<?xml version="1.0" encoding="UTF-8"?><svg id="_レイヤー_2" xmlns="http://www.w3.org/2000/svg" viewBox="0 0 30.37 26.68"><defs><style>.cls-1{fill:#4152c3;stroke-width:0px;}</style></defs><g id="_レイヤー_1-2"><path class="cls-1" d="M0,0v21.88h15.73v-1.37H1.37v-1.38l8.76-6.93c.71.62,2.02,1.76,2.18,1.9,1.04.91,2.15,1.14,2.86,1.14s1.81-.23,2.86-1.14c.81-.71,8.77-7.65,10.7-9.33v11.63l1.37,1.37V0H0ZM1.37,1.37h27.35v1.6c-.71.62-10.73,9.35-11.6,10.11-.77.67-1.55.8-1.96.8s-1.19-.14-1.96-.8C12.31,12.3,1.67,3.02,1.37,2.76v-1.39ZM1.37,4.57c1.16,1.01,4.59,4.01,7.71,6.72l-7.71,6.1V4.57ZM24.61,15.72c-.28,0-.53.17-.63.43-.1.26-.04.55.16.75l3.62,3.62h-9.29v1.37h9.29l-3.62,3.62c-.18.17-.25.43-.19.67.06.24.25.43.49.49.24.06.49,0,.67-.19l5.27-5.27-5.27-5.27c-.13-.13-.3-.21-.49-.21Z"/></g></svg>