<?xml version="1.0" encoding="UTF-8"?><svg id="_レイヤー_2" xmlns="http://www.w3.org/2000/svg" viewBox="0 0 855.7 613.2"><defs><style>.cls-1,.cls-2,.cls-3,.cls-4,.cls-5,.cls-6,.cls-7,.cls-8{stroke-width:0px;}.cls-2{fill:#d0e4ff;}.cls-3{fill:#dedede;}.cls-4{fill:#b4b3b3;}.cls-5{fill:#fff;}.cls-6{fill:#ffbe9d;}.cls-7{fill:#ebebeb;}.cls-8{fill:#0017af;}</style></defs><g id="_レイヤー_1-2"><path class="cls-5" d="M849.28,143.3c-19.21-66.84-89.22-107.52-153.08-122.54-18.3-4.3-37.13-6.29-55.89-7-22.98-.87-46.2.9-68.41,7.07-36.41,10.12-67.71,32.07-92.13,60.61-28.31,33.1-46.6,72.9-59.65,114.14-14.11,44.6-23.47,90.76-40.69,134.36-25.25,63.93-73.21,132.38-145.79,144.74-16.07,2.74-32.69,1.8-48.86.53-18.8-1.47-37.48-4.58-55.57-9.98-19.35-5.77-37.81-14.24-54.75-25.23-18.29-11.86-36-26.71-49.81-43.65-11.62-14.26-16.87-34.58-18.73-52.51-2.47-23.79,2.45-46.71,11.47-68.67,6.7-16.32,15.75-31.92,27.41-45.21,7.13-8.13,15.41-16.06,25.12-21.04,6.89-3.54,14.74-5.66,22.15-7.87,9.7-2.89,19.57-5.21,29.57-6.78,18.07-2.84,36.58-3.08,54.7-.54,37.82,5.31,72.84,22.04,105.71,40.75,39.06,22.23,76.11,47.74,114.5,71.07,34.12,20.73,69.45,39.59,106.41,54.74,78.84,32.32,168.38,46.94,249.54,13.92,17.5-7.12,35.29-15.27,48.66-28.94,11.32-11.57,20.25-25.45,27.54-39.84,16.86-33.3,26.23-71.06,26.96-108.37.35-18.1-1.51-36.3-6.36-53.77-.92-3.3-6.06-1.9-5.14,1.42,10.38,37.32,7.08,77.84-3.36,114.77-9,31.84-24.03,65.88-49.65,87.89-7.66,6.58-17,11.09-26.04,15.45-10.61,5.12-21.58,9.47-32.81,13.03-20.83,6.6-42.46,10.43-64.27,11.59-42.66,2.27-85.24-5.36-125.75-18.4s-78.02-30.9-114.54-51.42c-37.88-21.29-73.87-45.7-110.81-68.54-33.75-20.87-68.69-41.45-106.84-53.19-34.92-10.74-71.38-11.93-106.91-3.38-10.41,2.51-20.65,5.74-30.67,9.51-3.75,1.41-7.24,3.2-10.58,5.41-10.17,6.74-18.85,15.69-26.31,25.28C10.58,264.93-4.46,307.98,1.19,348.8c2.4,17.33,7.77,36,18.67,50.03,6.71,8.63,14.99,16.4,23.12,23.68,7.71,6.9,15.85,13.33,24.39,19.16,32.16,21.97,69.41,33.83,107.94,37.98,16.77,1.81,34.25,3.13,51.08,1.35,14.17-1.5,27.91-5.31,40.95-11,30.77-13.42,56.2-36.86,76.18-63.47,25.87-34.45,42.45-74.49,54.84-115.48,13.58-44.91,23.08-91.45,41.77-134.67,16.04-37.08,38.94-72.01,70.44-97.76,33.47-27.37,75-39.62,117.92-39.76,36.99-.12,73.41,6.18,107.62,20.4,32.12,13.35,62.81,33.15,84.64,60.59,10.59,13.31,18.7,28.48,23.4,44.85.95,3.29,6.09,1.89,5.14-1.42Z"/><circle class="cls-8" cx="568.53" cy="31.61" r="31.61"/><circle class="cls-1" cx="138.18" cy="471.73" r="16.07"/><circle class="cls-5" cx="446.54" cy="136.57" r="21.48"/><path class="cls-2" d="M465.72,287.11c.42-.64.8-1.29,1.16-1.97.36-.69.67-1.39.94-2.09l8.11-2.95-.59-12.34-8.34-2.17c-.69-1.37-1.52-2.67-2.48-3.86l1.48-8.48-10.98-5.69-6.04,6.14c-1.55-.09-3.09-.02-4.59.21l-6.61-5.54-10.4,6.67,2.3,8.31c-.42.64-.8,1.29-1.16,1.97s-.67,1.37-.94,2.09l-8.13,2.96.59,12.35,8.34,2.17c.69,1.37,1.52,2.67,2.48,3.86l-1.49,8.5,10.99,5.68,6.04-6.14c1.53.09,3.07.03,4.58-.22l6.62,5.55,10.4-6.67-2.28-8.33h0ZM442.99,284.32c-5.03-2.6-7-8.76-4.41-13.78,2.59-5.02,8.76-6.99,13.79-4.39,5.03,2.6,7,8.76,4.41,13.78-2.59,5.02-8.76,6.99-13.79,4.39h0Z"/><path class="cls-6" d="M508.37,392.98l8.75-.58.9,13.51-8.75.58-.9-13.51Z"/><path class="cls-1" d="M494.46,411.91h24.36l-1-8.99c-1.06.6-1.94.86-3.22.86-2.54,0-4.8-1.08-5.72-3.52l-13.11,6.52c-.34.16-.64.4-.88.7-1.36,1.72-.44,4.44-.44,4.44h0Z"/><path class="cls-6" d="M539.83,395.64l8.11-3.32,5.12,12.53-8.11,3.32-5.12-12.53Z"/><path class="cls-1" d="M527.28,411.91h28.6l-3.82-9.51c-1.06.6-3.36,1.38-4.64,1.38-2.54,0-4.8-1.08-5.72-3.52l-13.11,6.52c-.34.16-.64.4-.88.7-1.36,1.72-.44,4.44-.44,4.44h0Z"/><path class="cls-6" d="M486.37,302.56s-13.61-3-17.89,2.06c0,0-1.7,2.16.04,3.58.6.5,1.4.7,2.18.62,2.68-.28,11.01.26,12.43,1.08l3.24-7.34h0ZM484.81,275.99s-6.08-12.53-12.69-12.77c0,0-2.74,0-2.78,2.26-.02.78.32,1.54.86,2.1,1.88,1.94,6.62,8.8,6.86,10.41l7.75-2Z"/><path class="cls-8" d="M534.19,400.96c-8.35-15.17-16.91-37.64-25.4-66.76l17.27-5.04c8.13,27.86,16.17,49.11,23.88,63.12l-15.75,8.68h0Z"/><path class="cls-8" d="M504.11,399.84c-4.14-26.94-4.4-45.13-4.3-67.86l17.99.08c-.1,22.61.14,39.34,4.08,65.04l-17.77,2.74Z"/><path class="cls-6" d="M521.34,287.14c0,.8-.12,1.56-.32,2.3-1,3.44-4.18,5.96-7.93,5.96-4.56,0-8.25-3.7-8.25-8.26,0-3.3,1.94-6.14,4.72-7.46,1.1-.52,2.32-.8,3.54-.8,4.56,0,8.25,3.7,8.25,8.26h0Z"/><path class="cls-1" d="M521.34,287.14c0,.8-.12,1.56-.32,2.3-.76.2-1.54.3-2.32.3-5.08,0-9.19-4.12-9.19-9.19,0-.3.02-.58.04-.86,1.1-.52,2.32-.8,3.54-.8,4.56,0,8.25,3.7,8.25,8.26h0ZM518.32,364.7c-.46-5.8-.46-11.19,0-16.49l.2.02c-.46,5.28-.46,10.65,0,16.45l-.2.02Z"/><circle class="cls-8" cx="511.97" cy="308.15" r="12.25"/><path class="cls-8" d="M510.21,313.01c-11.49-1.9-20.21-6.18-26.68-13.05-5.54-5.88-9.37-13.59-12.09-24.27l14.53-3.7c4.24,16.59,11.47,23.69,26.7,26.23l-2.46,14.79Z"/><path class="cls-8" d="M527.04,332.48h-27.26v-22.61l21.96-3.68,5.3,26.29Z"/><path class="cls-8" d="M501.88,323.64c-4.22,0-8.67-1.16-13.29-3.46l-.44-.22-12.27-8.26,8.35-12.43,11.45,7.7c7.59,3.64,10.69.74,12.69-2.6l12.85,7.74c-3.42,5.68-8.25,9.45-13.97,10.89-1.72.42-3.54.64-5.38.64h0Z"/><path class="cls-1" d="M501.9,323.7c-.7,0-1.42-.04-2.14-.1l.02-.2c3.1.28,5.96-.04,8.71-.96,3.34-1.1,6.46-3.14,9.01-5.88l.14.14c-2.6,2.78-5.74,4.82-9.09,5.94-2.14.7-4.34,1.06-6.66,1.06h0ZM501.58,308.67c-.58,0-1.2-.06-1.82-.18-3.34-.38-9.99-5.06-15.47-9.11l-.54.8-.16-.12.66-.98.08.06c5.46,4.06,12.15,8.78,15.45,9.13,2.68.5,4.98-.08,6.8-1.76.82-.76,1.52-1.74,2.04-2.94,1.48-3.36,4.14-4.74,8.15-4.26l-.02.2c-3.92-.48-6.52.88-7.95,4.14-.54,1.22-1.24,2.24-2.08,3.02-1.44,1.32-3.16,2-5.14,2h0Z"/><path class="cls-8" d="M512.01,277.57c7.02-3.12,12.29,3.08,12.29,7.84s-1.44,8.88-6.2,8.88c0,0-10.53-13.15-11.17-17.69-.44-3.08,3.32,1.76,5.08.98Z"/><path class="cls-4" d="M592.95,610.6h-5.39l-88.59-256.32-2.73-7.88-12.92-37.36,4.82-1.67,104.81,303.23Z"/><path class="cls-4" d="M501.32,347.32l-2.37,6.96-86.71,256.32h-5.37l89.38-264.2.24-.74,4.84,1.65Z"/><path class="cls-4" d="M463.32,411.47h74.57v4.83h-74.57v-4.83ZM514.7,443.98h37.58v4.83h-37.58v-4.83ZM526.15,477.82h37.58v4.83h-37.58v-4.83ZM537.59,511.66h37.58v4.83h-37.58v-4.83ZM553.36,545.5h37.58v4.83h-37.58v-4.83ZM566.18,579.37h37.58v4.83h-37.58v-4.83Z"/><path class="cls-1" d="M401.3,542.25h91.02v43.1h-91.02v-43.1Z"/><path class="cls-4" d="M352.33,597.93h188.95v12.84h-188.95v-12.84Z"/><path class="cls-4" d="M387.78,577.32h118.05v23.61h-118.05v-23.61Z"/><path class="cls-1" d="M387.78,597.73h118.05v.4h-118.05v-.4ZM350.59,266.83l27.71,18.13-16.31,24.94-27.71-18.13,16.31-24.94Z"/><path class="cls-7" d="M463.27,468l-46.27,73.13-139.61-105.86,30.48-48.19,155.4,80.92Z"/><path class="cls-7" d="M330.45,283.81l40.38,26.44-39.62,83.44-6.89,14.52-64.93-42.5,11.98-13.78,59.08-68.12h0Z"/><path class="cls-1" d="M399.42,207.22l13.91,9.11-16.31,24.94-13.91-9.11,16.31-24.94Z"/><ellipse class="cls-7" cx="446.41" cy="507.54" rx="76.35" ry="76.43"/><path class="cls-1" d="M426.49,448.89l-.48-.26c-8.8,3.04-16.87,8.07-23.63,14.84-11.78,11.76-18.24,27.42-18.24,44.08,0,3.12.22,6.21.68,9.23l.46.34c-.48-3.18-.74-6.37-.74-9.59,0-16.54,6.45-32.09,18.12-43.8,6.81-6.79,14.95-11.82,23.83-14.84Z"/><ellipse class="cls-4" cx="446.41" cy="509.34" rx="21.12" ry="21.13"/><ellipse class="cls-1" cx="446.41" cy="509.34" rx="14.19" ry="14.22"/><path class="cls-7" d="M392.95,263.68l-17.45,36.73-37.91-24.82,26.65-30.69,28.7,18.79Z"/><ellipse class="cls-7" cx="383.13" cy="248.38" rx="27.57" ry="27.58"/><circle class="cls-4" cx="383.13" cy="248.38" r="8"/><path class="cls-4" d="M458.08,179.84l-14.51,2.82c.26,1.3.38,2.64.38,4.01,0,11.64-9.44,21.09-21.08,21.09s-21.08-9.45-21.08-21.09c0-9.33,6.05-17.23,14.43-20.01l-4.83-14.64c-14.07,4.79-24.19,18.11-24.19,33.81,0,19.73,15.97,35.71,35.69,35.71s35.69-15.98,35.69-35.71c0-2.04-.16-4.03-.5-5.99h0Z"/><ellipse class="cls-7" cx="280.45" cy="402.55" rx="63.34" ry="63.39"/><path class="cls-1" d="M317.02,365.97c-9.76-9.77-22.76-15.16-36.57-15.16-3.07,0-6.11.26-9.06.78l-.4.48c3.11-.58,6.29-.88,9.46-.86,13.71,0,26.59,5.33,36.29,15.04,9.68,9.71,15.03,22.59,15.03,36.31s-5.33,26.6-15.03,36.31c-5.43,5.43-11.84,9.49-18.84,12l.38.28c6.97-2.56,13.35-6.61,18.74-12.02,9.76-9.77,15.15-22.77,15.15-36.59s-5.39-26.78-15.15-36.57Z"/><ellipse class="cls-4" cx="280.45" cy="402.55" rx="17.51" ry="17.53"/><ellipse class="cls-1" cx="280.45" cy="402.55" rx="11.78" ry="11.78"/><path class="cls-1" d="M383.31,270.99c-2.18,0-4.35-.34-6.53-1-4.11-1.26-7.8-3.57-10.62-6.75-3.53-3.95-5.43-8.77-5.63-14.3l.4-.02c.2,5.45,2.06,10.17,5.53,14.06,2.77,3.12,6.39,5.39,10.44,6.63,4.39,1.34,8.8,1.3,13.13-.12l.12.38c-2.28.74-4.55,1.12-6.85,1.12h0Z"/><path class="cls-6" d="M486.28,302.56s-13.67-3.01-17.96,2.06c0,0-1.71,2.16.04,3.59.6.5,1.4.7,2.19.62,2.69-.26,11.06.26,12.48,1.08l3.25-7.35h0Z"/><path class="cls-8" d="M501.86,323.69c-4.23,0-8.71-1.16-13.35-3.47l-.44-.22-12.3-8.25,8.41-12.48,11.5,7.71c7.63,3.65,10.74.74,12.74-2.6l12.88,7.73c-3.43,5.69-8.29,9.48-14.03,10.92-1.75.44-3.57.66-5.42.66h0Z"/><path class="cls-1" d="M501.88,323.77c-.7,0-1.4-.04-2.15-.1l.02-.2c3.11.28,5.98-.04,8.75-.96,3.35-1.1,6.48-3.15,9.05-5.89l.14.14c-2.61,2.78-5.76,4.83-9.13,5.95-2.15.7-4.36,1.06-6.68,1.06h0ZM501.55,308.69c-.58,0-1.2-.06-1.83-.18-3.35-.38-10.03-5.07-15.53-9.14l-.54.82-.16-.12.66-.98.08.06c5.48,4.07,12.2,8.8,15.51,9.16,2.69.5,5-.08,6.82-1.76.82-.76,1.53-1.74,2.05-2.95,1.51-3.37,4.17-4.75,8.21-4.27l-.02.2c-3.93-.48-6.54.88-7.99,4.15-.54,1.22-1.24,2.24-2.09,3.03-1.47,1.32-3.19,1.98-5.18,1.98h0Z"/><path class="cls-6" d="M338.58,607.97l-7.67,1.31-2.03-11.84,7.67-1.31,2.03,11.84ZM291.72,596.22l7.67,1.31-2.03,11.84-7.67-1.31,2.03-11.84Z"/><path class="cls-1" d="M327,611.43c0,.57.05,1.12.17,1.67h16.46c.1-.55.17-1.1.17-1.67,0-4.63-3.75-8.4-8.41-8.4s-8.38,3.77-8.38,8.4h0ZM284.62,611.52c0,.57.05,1.12.17,1.67h16.46c.1-.55.17-1.1.17-1.67,0-4.63-3.75-8.4-8.41-8.4s-8.38,3.77-8.38,8.4h0Z"/><path class="cls-6" d="M304.97,483.91c0-.76.12-1.5.31-2.2.12-.45.29-.88.5-1.29,1.29-2.65,4.01-4.46,7.14-4.46s5.85,1.81,7.14,4.46c.53,1.05.81,2.24.81,3.49,0,.55-.05,1.07-.17,1.6-.5,2.48-2.17,4.54-4.4,5.59-.86.41-1.79.67-2.75.74h-.1c-.38.02-.76.02-1.17,0h-.1c-3.56-.29-6.43-2.91-7.12-6.33-.05-.53-.12-1.05-.12-1.6h0Z"/><path class="cls-1" d="M304.97,483.91c0-.76.12-1.5.31-2.2.12-.45.29-.88.5-1.29h.33c2.84,0,5.35,1.46,6.81,3.68.88,1.34,1.36,2.89,1.34,4.49,0,1.17-.24,2.27-.67,3.27h-.1c-.38.02-.76.02-1.17,0h-.1c-3.56-.29-6.43-2.91-7.12-6.33-.07-.55-.14-1.07-.14-1.62h0Z"/><path class="cls-1" d="M311.59,488.56c0-1.65.5-3.2,1.34-4.49,1.46-2.2,3.97-3.68,6.81-3.68h.33c.53,1.05.81,2.24.81,3.49,0,.55-.05,1.07-.17,1.6-.5,2.48-2.17,4.54-4.4,5.59-.86.41-1.79.67-2.75.74h-.1c-.38.02-.76.02-1.17,0h-.1c-.38-1-.62-2.12-.62-3.25h0Z"/><path class="cls-8" d="M305.05,480.56c.98-.69,9.53.31,14.45-.67,1.82-.36,1.96-.64,2.39-.67,2.65-.1-.67,1.65-1.05,5.8,0,.12-1.03,2.6-.98,2.7-.55,1.03-1.36,1.96-2.36,2.7-.45.31-.91.57-1.39.79-2.32,1.03-4.94.88-7.09-.31-.84-.45-1.58-1.07-2.2-1.79l-.05-.07c-.24-.29-.48-.62-.67-.96l-.05-.07c-.76-.88-1.43-2.89-1.27-4.75.12-1.89.26-2.7.26-2.7Z"/><path class="cls-6" d="M359.27,480.76s5.49-7.86,5.37-13.78c-.07-3.44-1.36-3.94-2.41-3.75-.64.12-1.19.5-1.58,1.03-.12.17-.21.38-.29.57-.81,2.12-1.89,4.2-3.18,6.26-.33.69-1.31.76-1.74.12l-.02-.02c-.43-.64-.81-2.15-1-3.01-.14-.62-.74-1.05-1.36-.93-.31.07-.67.21-.84.72-.07.19-.07.38-.07.57l.43,9.6,6.69,2.63h0ZM295.66,523.8l1.96,1.19c1.39.86,2.1,2.48,1.74,4.08l-2.15,10.12s-1.65,1.77-3.42-.1-.21-12.08-.21-12.08l2.08-3.22h0Z"/><path class="cls-8" d="M304.21,599.68l-17.77-2.24c3.06-24.16,7.76-48.64,13.95-72.75l17.37,4.44c-6.02,23.37-10.56,47.13-13.54,70.55h0Z"/><path class="cls-8" d="M323.82,599.75c-2.99-23.42-7.52-47.16-13.52-70.55l17.37-4.44c6.19,24.11,10.87,48.59,13.95,72.75l-17.8,2.24Z"/><path class="cls-8" d="M279.96,526.77l11.8,6.8,5.9-10.79c-7.52-4.39-10.41-4.01-1.39-11.08,3.32,5.61,3.34,13.92,2.58,19.05l30.29-.1c-.02-.31-.38-13.2-.43-21.42,17.94,3.75,25.75-7.4,32.85-28.82l-12.33-5.85c-10.18,30.7-19.25,17.52-40.54,18.31-8.72.43-15.57,4.78-22.07,9.69-9.72,7.35-15.98,17.36-6.66,24.19h0Z"/><path class="cls-5" d="M384.41,320.58c-7.03,19.22-15.49,37.93-25.73,55.66-8.88,15.38-19.1,30.02-30.89,43.32-10.44,11.78-22.1,22.54-35.02,31.54-11.54,8.04-24.08,14.71-37.38,19.33-12.37,4.3-25.33,6.83-38.43,7.21-1.58.05-3.16.06-4.74.05-1.72-.01-1.72,2.65,0,2.66,13.3.11,26.59-1.93,39.3-5.85,13.48-4.16,26.29-10.38,38.1-18.07,13.2-8.59,25.2-18.98,35.95-30.47,12.1-12.93,22.66-27.28,31.86-42.39,10.59-17.39,19.38-35.85,26.74-54.82.96-2.48,1.89-4.96,2.81-7.45.59-1.61-1.98-2.31-2.57-.71h0Z"/><path class="cls-6" d="M738.67,505.67l7.75-.52.8,11.95-7.75.52-.8-11.95Z"/><path class="cls-1" d="M726.36,522.42h21.54l-.88-7.96c-.93.54-1.71.76-2.84.76-2.25,0-4.24-.95-5.07-3.11l-11.6,5.76c-.29.14-.55.35-.78.62-1.21,1.54-.38,3.93-.38,3.93h0Z"/><path class="cls-6" d="M766.49,508.03l7.17-2.94,4.53,11.09-7.17,2.94-4.53-11.09Z"/><path class="cls-1" d="M755.39,522.42h25.29l-3.37-8.42c-.93.54-2.96,1.23-4.1,1.23-2.25,0-4.24-.95-5.07-3.11l-11.58,5.76c-.29.14-.55.35-.78.62-1.21,1.54-.38,3.93-.4,3.93h0Z"/><path class="cls-6" d="M716.06,408.51c-1.8.48-5.96,2.06-7.04,6.49,0,0-.54,2.7,1.87,2.87.54.03,1.07-.12,1.54-.42,1.73-1.11,3.87-1.68,6.52-2.4.97-.26,1.71-1.06,1.92-2.04.43-2.18-.28-4.25-2.75-4.64-.69-.1-1.38-.05-2.06.14h0Z"/><path class="cls-8" d="M737.62,431.27c-.31-4.17-1.76-6.87-4.69-8.77-3.25-2.09-8.51-3.34-15.65-3.7l.64-12.95c9.58.47,16.79,2.35,22.04,5.76,6.4,4.13,9.96,10.43,10.58,18.68l-12.93.99Z"/><path class="cls-6" d="M748.16,413.09c0,.71-.1,1.38-.28,2.02-.88,3.04-3.68,5.28-7.02,5.28-4.03,0-7.3-3.27-7.3-7.3,0-2.92,1.71-5.43,4.18-6.61.99-.47,2.04-.71,3.13-.71,4.01.02,7.28,3.29,7.28,7.32Z"/><path class="cls-1" d="M748.16,413.09c0,.71-.1,1.38-.28,2.02-.66.17-1.35.26-2.06.26-4.49,0-8.13-3.63-8.13-8.13,0-.26.02-.52.03-.76.95-.45,2.01-.71,3.13-.71,4.03.02,7.3,3.29,7.3,7.32Z"/><path class="cls-6" d="M709.4,433.5s-8.56-8.87-6.73-14.46c0,0,.85-2.27,2.73-1.63.66.22,1.18.73,1.47,1.35,1.04,2.14,5.27,8.18,6.55,8.89l-4.03,5.85h0Z"/><path class="cls-8" d="M762.87,512.85c-10.03-18.51-17.84-38.59-23.25-59.69l15.08-3.87c5.1,19.87,12.45,38.76,21.87,56.14l-13.69,7.42Z"/><path class="cls-8" d="M735.46,511.76c-2.89-17.12-5.98-39.83-4.13-63.56l15.51,1.21c-1.35,17.19-.12,35.63,3.96,59.76l-15.33,2.59Z"/><circle class="cls-8" cx="741.85" cy="430.58" r="8.8"/><path class="cls-8" d="M755.18,452.13h-24.13v-20.01l19.43-3.27,4.7,23.28Z"/><path class="cls-1" d="M746.69,476.51c-.43-5.31-.55-9.53-.43-14.08h.17c-.12,4.55.02,8.75.43,14.06l-.17.02h0Z"/><path class="cls-8" d="M724.67,442.1c-.86,0-1.71-.05-2.58-.14-7.17-.81-13.14-5-18.53-9.39l8.19-10.05c9.16,7.47,13.99,9.65,25.03.92l8.04,10.17c-7.24,5.74-13.73,8.49-20.16,8.49h0Z"/><path class="cls-1" d="M731.08,441.25l-.05-.17c5.57-1.69,10.06-4.2,13.73-7.64,2.35-2.27,3.28-5.05,2.59-7.68-.54-2.04-2.28-3.51-4.44-3.77-2.56-.31-5.03.55-7.33,2.56l-.1-.14c2.35-2.04,4.86-2.91,7.47-2.59,2.23.28,4.03,1.8,4.6,3.91.71,2.68-.26,5.55-2.65,7.85-3.7,3.48-8.21,5.98-13.81,7.68h0Z"/><path class="cls-3" d="M706.93,522.29h80.31v86.08h-80.31v-86.08Z"/><path class="cls-3" d="M730.62,411.86l11.86,5.42,9.45-14.34-9.65-8.76c1.57-4.45,2.66-9.22,2.71-13.98l12.29-4.59-3.49-17.06-12.94.38c-1.93-4.36-4.81-8.31-8-11.79l5.27-11.62-14.33-9.46-8.76,9.65c-4.45-1.57-9.22-2.66-13.99-2.71l-4.59-12.29-17.05,3.5.38,12.94c-4.36,1.93-8.31,4.81-11.79,8l-11.62-5.27-9.46,14.33,9.65,8.76c-1.57,4.45-2.66,9.22-2.71,13.99l-12.29,4.59,3.5,17.06,12.94-.38c1.93,4.36,4.81,8.31,8,11.79l-5.27,11.62,14.34,9.45,8.76-9.65c4.45,1.57,9.22,2.66,13.98,2.71l4.74,12.05,16.66-3.42-.38-12.94c4.37-1.91,8.33-4.79,11.8-7.98ZM682.59,404.07c-14.08-9.29-17.95-28.24-8.66-42.31,9.29-14.08,28.24-17.95,42.31-8.66,14.08,9.29,17.95,28.24,8.66,42.31s-28.24,17.95-42.31,8.66Z"/><path class="cls-6" d="M748.33,413.09c0,.71-.1,1.38-.28,2.02-.89,3.04-3.7,5.26-7.05,5.26-4.04,0-7.32-3.26-7.32-7.3,0-2.92,1.72-5.42,4.2-6.59.99-.47,2.05-.71,3.14-.71,4.03.02,7.31,3.28,7.31,7.32Z"/><path class="cls-1" d="M748.33,413.09c0,.71-.1,1.38-.28,2.02-.66.17-1.35.26-2.07.26-4.51,0-8.16-3.64-8.16-8.11,0-.26.02-.52.03-.76.95-.45,2.01-.71,3.14-.71,4.04,0,7.32,3.26,7.32,7.3Z"/><path class="cls-6" d="M709.43,433.44s-8.59-8.85-6.75-14.43c0,0,.85-2.26,2.74-1.62.66.22,1.18.72,1.48,1.35,1.04,2.14,5.29,8.16,6.58,8.87l-4.04,5.83h0Z"/><ellipse class="cls-8" cx="742" cy="430.52" rx="8.83" ry="8.78"/><path class="cls-8" d="M724.75,442.02c-.87,0-1.72-.05-2.59-.14-7.2-.81-13.19-4.99-18.6-9.37l8.23-10.03c9.2,7.46,14.04,9.63,25.13.91l8.07,10.15c-7.27,5.75-13.78,8.47-20.23,8.47h0Z"/><path class="cls-1" d="M731.19,441.17l-.05-.17c5.61-1.69,10.1-4.19,13.78-7.63,2.36-2.26,3.3-5.06,2.6-7.66-.54-2.04-2.29-3.5-4.46-3.76-2.57-.31-5.05.55-7.36,2.55l-.1-.14c2.36-2.04,4.88-2.9,7.5-2.59,2.24.28,4.04,1.79,4.62,3.9.71,2.67-.26,5.54-2.66,7.83-3.71,3.47-8.24,5.97-13.87,7.66h0Z"/><path class="cls-8" d="M736.76,405.22c4.93-4.07,10.53-.28,11.59,3.52,1.06,3.81.83,7.44-2.98,8.49,0,0-11.37-8.18-12.89-11.67-1.02-2.35,3.05.67,4.29-.35Z"/><path class="cls-5" d="M696.47,389.78c26.29-4.18,51.82-12.45,75.58-24.45,3.05-1.54,6.07-3.14,9.06-4.8,2.61-1.45,5.3-2.84,7.73-4.59,3.21-2.31,6.26-4.84,9.14-7.54,6.25-5.87,11.74-12.52,16.7-19.51,11.35-16.01,19.85-34.01,26.35-52.48,7.12-20.24,11.75-41.39,13.7-62.76,1.93-21.03,1.16-42.5-3.59-63.13-.56-2.42-1.17-4.82-1.85-7.21-.93-3.3-6.07-1.9-5.14,1.42,5.55,19.75,7.01,40.43,5.85,60.86s-5.24,41.87-11.61,61.92c-5.9,18.59-13.86,36.66-24.49,53.05-4.68,7.21-9.58,13.69-15.52,19.93-2.69,2.82-5.53,5.51-8.54,8-1.55,1.28-2.27,1.84-3.9,3.01-2.55,1.83-5.41,3.28-8.15,4.8-23,12.68-47.88,21.74-73.67,26.76-3.01.59-6.04,1.12-9.07,1.6-1.42.23-2.21,2-1.86,3.28.42,1.51,1.85,2.09,3.28,1.86h0Z"/></g></svg>