<?xml version="1.0" encoding="UTF-8"?><svg id="_レイヤー_2" xmlns="http://www.w3.org/2000/svg" xmlns:xlink="http://www.w3.org/1999/xlink" viewBox="0 0 97.39 71.12"><defs><style>.cls-1{clip-path:url(#clippath);}.cls-2{fill:none;}.cls-2,.cls-3{stroke-width:0px;}.cls-3{fill:#0017af;}</style><clipPath id="clippath"><polygon class="cls-2" points="48.16 8.75 48.16 59.08 30.55 59.08 30.55 71.12 97.39 71.12 97.39 8.75 48.16 8.75"/></clipPath></defs><g id="_レイヤー_1-2"><path class="cls-3" d="M21.65,0c-2.11,0-3.83,1.47-4.34,3.42H3.42c-1.87,0-3.42,1.54-3.42,3.42v44.45c0,1.87,1.54,3.42,3.42,3.42h36.47c1.87,0,3.42-1.54,3.42-3.42V6.84c0-1.87-1.54-3.42-3.42-3.42h-13.89c-.52-1.95-2.24-3.42-4.34-3.42ZM21.65,2.28c1.27,0,2.28,1.01,2.28,2.28,0,.63.51,1.14,1.14,1.14h3.42v2.28h-13.68v-2.28h3.42c.63,0,1.14-.51,1.14-1.14,0-1.27,1.01-2.28,2.28-2.28ZM3.42,5.7h9.12v3.42c0,.63.51,1.14,1.14,1.14h15.96c.63,0,1.14-.51,1.14-1.14v-3.42h9.12c.65,0,1.14.49,1.14,1.14v44.45c0,.65-.49,1.14-1.14,1.14H3.42c-.65,0-1.14-.49-1.14-1.14V6.84c0-.65.49-1.14,1.14-1.14ZM34.19,19.3c-.06,0-.12.02-.18.04-.02,0-.05.02-.07.04-.29.07-.55.24-.71.5l-3.78,5.66-2.42-2.42c-.24-.25-.58-.38-.93-.36-.05,0-.1.02-.14.04-.43.08-.77.39-.89.8-.12.42,0,.86.32,1.16l3.28,3.28s.04.05.07.07l.07.07.04.04.04.04.04.04s.09.05.14.07c.02.01.05.03.07.04.02.01.05.03.07.04h.04s.05.03.07.04h.04s.05.03.07.04h.14c.07,0,.14,0,.21,0h.04c.08-.01.17-.04.25-.07.02,0,.05-.02.07-.04.04,0,.07-.02.11-.04.03-.02.05-.04.07-.07.02,0,.05-.02.07-.04.04-.03.08-.07.11-.11.03-.04.05-.07.07-.11l.04-.04.04-.04s.03-.07.04-.11l4.49-6.7c.28-.35.33-.84.12-1.24-.21-.41-.64-.65-1.09-.61ZM8.8,22.79c-.63.09-1.07.67-.98,1.3s.67,1.07,1.3.98h11.4c.41,0,.79-.21,1-.57.2-.36.2-.79,0-1.15-.21-.36-.59-.57-1-.57h-11.72ZM34.19,34.12c-.06,0-.12.02-.18.04-.02,0-.05.02-.07.04-.29.07-.55.24-.71.5l-3.78,5.66-2.42-2.42c-.24-.25-.58-.38-.93-.36-.05,0-.1.02-.14.04-.43.08-.77.39-.89.8-.12.42,0,.86.32,1.16l3.28,3.28s.04.05.07.07l.07.07.04.04.04.04.04.04s.09.05.14.07c.02.01.05.03.07.04.02.01.05.03.07.04h.04s.05.03.07.04h.04s.05.03.07.04h.14c.07,0,.14,0,.21,0h.04c.08-.01.17-.04.25-.07.02,0,.05-.02.07-.04.04,0,.07-.02.11-.04.03-.02.05-.04.07-.07.02,0,.05-.02.07-.04.04-.03.08-.07.11-.11.03-.04.05-.07.07-.11l.04-.04.04-.04s.03-.07.04-.11l4.49-6.7c.28-.35.33-.84.12-1.24-.21-.41-.64-.65-1.09-.61ZM8.8,37.61c-.63.09-1.07.67-.98,1.3s.67,1.07,1.3.98h11.4c.41,0,.79-.21,1-.57.2-.36.2-.79,0-1.15-.21-.36-.59-.57-1-.57h-11.72Z"/><g class="cls-1"><path class="cls-3" d="M61.28,14.23s-.08.02-.12.04h-17.65c-.2.04-.39.14-.55.28l-7.45,6.23-.12.08c-.05.03-.11.07-.16.12-.01.01-.02.02-.04.04v.04h-.04v.08s-.05.08-.08.12c-.05.07-.09.15-.12.24-.02.08-.03.16-.04.24,0,.08,0,.16,0,.24v44.02c0,.69.57,1.26,1.26,1.26h50.44c.69,0,1.26-.57,1.26-1.26V22.03c0-.06,0-.13,0-.2v-.2l-.04-.04v-.12s-.02-.05-.04-.08l-.04-.04v-.08l-.04-.04s-.02-.05-.04-.08l-.04-.04-.04-.04s-.02-.05-.04-.08l-.04-.04-.04-.04-.04-.04-.04-.04-.12-.08s-.05-.05-.08-.08l-7.37-6.15c-.22-.18-.5-.28-.79-.28h-17.38c-.13-.03-.26-.05-.39-.04ZM44.22,16.79h15.92v3.78h-20.45l4.53-3.78ZM62.66,16.79h15.92l4.53,3.78h-20.45v-3.78ZM37.44,23.09h47.92v41.61h-47.92V23.09ZM56.99,28.14c-1.74,0-3.15,1.41-3.15,3.15s1.41,3.15,3.15,3.15h8.83c1.74,0,3.15-1.41,3.15-3.15s-1.41-3.15-3.15-3.15h-8.83ZM56.99,30.66h8.83c.27,0,.63.36.63.63s-.36.63-.63.63h-8.83c-.27,0-.63-.36-.63-.63s.36-.63.63-.63ZM68.96,48.31l-3.78,3.78h2.52v5.04h2.52v-5.04h2.52l-3.78-3.78ZM77.79,48.31l-3.78,3.78h2.52v5.04h2.52v-5.04h2.52l-3.78-3.78ZM65.18,58.4v2.52h16.39v-2.52h-16.39Z"/></g></g></svg>