<?xml version="1.0" encoding="UTF-8"?><svg id="_レイヤー_2" xmlns="http://www.w3.org/2000/svg" viewBox="0 0 75.43 75.39"><defs><style>.cls-1{fill:#0017af;stroke-width:0px;}</style></defs><g id="_レイヤー_1-2"><path class="cls-1" d="M74.88,13.38c-.15-.45-.61-.9-1.06-.9-.45-.15-1.06,0-1.36.45l-8,7.99c-.45.45-1.36.45-1.81,0l-8-7.99c-.45-.45-.45-1.36,0-1.82l8-8.15c.3-.3.45-.91.45-1.36-.15-.45-.45-.91-.91-1.06-6.04-2.11-15.69,2.26-19.62,6.19-3.92,3.93-4.37,9.35-1.21,15.24l-.3.3-3.32-3.47c-2.86-3.17-6.79-4.98-11.16-5.13-4.38-.15-8.3,1.51-11.32,4.53l-10.56,10.56c-6.04,6.04-6.04,15.84,0,21.88l2.86,2.86-4.53,4.23c-1.21,1.21-2.56,3.32-3.02,6.04-.15,2.26,0,5.43,3.02,8.6,2.42,2.42,4.98,3.02,7.09,3.02.45,0,1.06,0,1.51-.15,2.72-.45,4.83-1.81,6.04-3.02l5.13-5.28c.3,0,.6.15,1.06.15,2.41,0,4.67-1.21,5.88-3.17.75.31,1.66.45,2.42.45,3.47,0,6.34-2.41,6.94-5.74.45.15.91.15,1.36.15,3.47,0,6.34-2.42,6.94-5.74.45.15.91.15,1.36.15,3.92,0,7.09-3.17,7.09-7.09,0-2.12-1.06-4.23-2.72-5.59l-3.02-3.02,3.32-3.32c5.89,3.17,11.17,2.72,15.24-1.21,3.93-4.07,8.3-13.73,6.19-19.62ZM15.58,70.11c-.75.75-2.42,1.81-4.38,2.11-2.26.31-4.22-.45-5.88-2.11-1.81-1.81-2.42-3.77-2.11-5.88.3-1.96,1.36-3.47,2.11-4.38l4.37-4.23,8.75,8.75c.45.45.91.91,1.51,1.36l-4.37,4.37ZM51.34,42.8c1.06.75,1.66,1.96,1.66,3.17,0,2.26-1.82,4.07-4.08,4.07-.75,0-1.36-.15-2.11-.6l-2.72-1.66.45,3.17v.6c0,2.26-1.81,4.07-4.07,4.07-.75,0-1.36-.15-2.12-.6l-2.71-1.66.45,3.17v.6c0,2.26-1.81,4.08-4.07,4.08-.75,0-1.66-.31-2.26-.75l-1.66-1.06-.61,1.82c-.6,1.66-2.11,2.71-3.77,2.71-1.21,0-2.41-.6-3.17-1.51l-13.89-13.88c-4.83-4.83-4.83-12.83,0-17.65l10.56-10.56c2.42-2.42,5.74-3.77,9.21-3.62,3.47.15,6.64,1.51,9.05,4.22l3.47,3.62-.91.9-.3-.45c-.6-.61-1.51-.61-2.11,0-.61.6-.61,1.51,0,2.11l15.54,15.54.15.15ZM66.43,30.73c-4.07,4.08-9.05,2.42-12.53.15-.6-.3-1.36-.3-1.81.3l-4.07,4.07-7.85-7.85,4.07-4.07c.45-.45.6-1.21.3-1.81-2.11-3.62-3.77-8.6.15-12.53,2.86-2.86,9.05-5.88,13.73-6.04l-5.88,5.88c-1.66,1.66-1.66,4.38,0,6.19l8,8c1.66,1.66,4.37,1.66,6.18,0l5.89-5.89c-.15,4.53-3.32,10.72-6.19,13.58Z"/></g></svg>