<?xml version="1.0" encoding="UTF-8"?><svg id="_レイヤー_2" xmlns="http://www.w3.org/2000/svg" viewBox="0 0 65.65 60.83"><defs><style>.cls-1{fill:#0017af;stroke-width:0px;}</style></defs><g id="_レイヤー_1-2"><path class="cls-1" d="M60.13,0c-1.42,0-2.83.54-3.9,1.61l-6.75,6.75H2.76c-1.52,0-2.76,1.24-2.76,2.76v34.52c0,1.52,1.24,2.76,2.76,2.76h20.71v5.52h-2.76c-3.03,0-5.52,2.49-5.52,5.52,0,.76.62,1.38,1.38,1.38h30.38c.76,0,1.38-.62,1.38-1.38,0-3.03-2.49-5.52-5.52-5.52h-2.76v-5.52h20.71c1.52,0,2.76-1.24,2.76-2.76V11.12c0-.35-.08-.68-.19-.98l.72-.72c2.15-2.15,2.15-5.66,0-7.81-1.07-1.07-2.49-1.61-3.9-1.61ZM60.13,2.74c.7,0,1.41.27,1.95.82,1.09,1.09,1.09,2.81,0,3.9l-14.65,14.65-3.9-3.9,14.65-14.65c.55-.55,1.25-.82,1.95-.82ZM2.76,11.12h43.95l-12.13,12.12c-1.35.28-2.46.83-3.32,1.58-1.14,1-1.79,2.3-2.19,3.6-.68,2.19-.81,4.46-1.17,6.17H8.28c-.76-.01-1.39.6-1.4,1.36s.6,1.39,1.36,1.4c.01,0,.03,0,.04,0h22.09c.11,0,.23-.01.34-.04,3.29-.09,5.77-.44,7.69-1.43,1.86-.96,3.05-2.56,3.78-4.61l.37-.37,18.19-18.19v32.93s-57.99,0-57.99,0v-2.76h57.99v-2.76H2.76V11.12ZM41.58,20.16l3.9,3.9-3.9,3.9-3.9-3.9,3.9-3.9ZM35.69,25.98l3.96,3.96c-.53,1.75-1.2,2.81-2.51,3.49-1.25.65-3.48.96-6.46,1.07.35-1.84.58-3.78,1.04-5.25.31-1,.73-1.78,1.38-2.35.54-.47,1.46-.75,2.6-.92ZM26.23,48.4h11.05v5.52h-11.05v-5.52ZM20.71,56.69h22.09c1,0,1.71.6,2.2,1.38h-26.48c.48-.78,1.2-1.38,2.2-1.38Z"/></g></svg>