<?xml version="1.0" encoding="UTF-8"?><svg id="_レイヤー_2" xmlns="http://www.w3.org/2000/svg" viewBox="0 0 386.44 354.27"><defs><style>.cls-1,.cls-2,.cls-3,.cls-4,.cls-5,.cls-6,.cls-7,.cls-8,.cls-9,.cls-10{stroke-width:0px;}.cls-2{fill:gray;}.cls-3{fill:#0a4ed0;}.cls-4{fill:#d0e4ff;}.cls-5{fill:#c78875;}.cls-6{fill:#dedede;}.cls-7{fill:#fff;}.cls-8{fill:#ffbe9d;}.cls-9{fill:#ee5a25;}.cls-10{fill:#0017af;}</style></defs><g id="_レイヤー_1-2"><path class="cls-8" d="M133.21,262.65l6.84-.46.7,10.56-6.84.46-.7-10.56Z"/><path class="cls-1" d="M122.34,277.45h19.03l-.78-7.03c-.82.47-1.51.67-2.51.67-1.99,0-3.74-.84-4.48-2.75l-10.25,5.09c-.26.12-.49.31-.69.55-1.07,1.36-.34,3.47-.34,3.47h0Z"/><path class="cls-8" d="M157.79,264.73l6.34-2.6,4,9.8-6.34,2.6-4-9.8Z"/><path class="cls-1" d="M147.99,277.45h22.35l-2.98-7.44c-.82.47-2.61,1.09-3.62,1.09-1.99,0-3.74-.84-4.48-2.75l-10.24,5.09c-.26.12-.49.31-.69.55-1.07,1.36-.34,3.47-.35,3.47h0Z"/><path class="cls-8" d="M113.23,176.79c-1.59.43-5.27,1.82-6.22,5.73,0,0-.47,2.38,1.65,2.54.47.03.95-.11,1.36-.37,1.53-.98,3.42-1.48,5.76-2.12.86-.23,1.51-.93,1.7-1.8.38-1.93-.24-3.76-2.43-4.1-.61-.09-1.22-.05-1.82.12h0Z"/><path class="cls-10" d="M132.28,196.91c-.27-3.68-1.56-6.07-4.14-7.75-2.87-1.85-7.52-2.95-13.82-3.27l.57-11.45c8.46.41,14.83,2.08,19.48,5.09,5.65,3.65,8.8,9.22,9.35,16.51l-11.43.87Z"/><path class="cls-8" d="M141.6,180.84c0,.63-.09,1.22-.24,1.79-.78,2.69-3.25,4.66-6.2,4.66-3.56,0-6.45-2.89-6.45-6.45,0-2.58,1.51-4.8,3.7-5.84.87-.41,1.8-.63,2.76-.63,3.54.02,6.43,2.9,6.43,6.46Z"/><path class="cls-1" d="M141.6,180.84c0,.63-.09,1.22-.24,1.79-.58.15-1.19.23-1.82.23-3.97,0-7.18-3.21-7.18-7.18,0-.23.02-.46.03-.67.84-.4,1.77-.63,2.76-.63,3.56.02,6.45,2.9,6.45,6.46Z"/><path class="cls-8" d="M107.35,198.88s-7.56-7.84-5.94-12.78c0,0,.75-2,2.41-1.44.58.2,1.04.64,1.3,1.19.92,1.9,4.66,7.23,5.79,7.86l-3.56,5.17h0Z"/><path class="cls-10" d="M154.6,268.99c-8.86-16.35-15.77-34.1-20.55-52.74l13.32-3.42c4.51,17.56,11,34.25,19.32,49.61l-12.1,6.56Z"/><path class="cls-10" d="M130.37,268.03c-2.55-15.13-5.29-35.2-3.65-56.16l13.7,1.07c-1.19,15.19-.11,31.48,3.5,52.8l-13.55,2.29Z"/><circle class="cls-10" cx="136.02" cy="196.3" r="7.78"/><path class="cls-10" d="M147.8,215.34h-21.33v-17.68l17.17-2.89,4.16,20.57Z"/><path class="cls-1" d="M140.3,236.89c-.38-4.69-.49-8.42-.38-12.44h.15c-.11,4.02.02,7.73.38,12.42l-.15.02h0Z"/><path class="cls-10" d="M120.84,206.47c-.76,0-1.51-.05-2.28-.12-6.34-.72-11.61-4.42-16.38-8.3l7.24-8.88c8.1,6.6,12.36,8.53,22.12.81l7.1,8.99c-6.4,5.07-12.13,7.5-17.81,7.5h0Z"/><path class="cls-1" d="M126.51,205.72l-.05-.15c4.92-1.5,8.89-3.71,12.13-6.75,2.08-2,2.9-4.46,2.29-6.79-.47-1.8-2.02-3.1-3.93-3.33-2.26-.28-4.45.49-6.48,2.26l-.09-.12c2.08-1.8,4.29-2.57,6.6-2.29,1.97.24,3.56,1.59,4.06,3.45.63,2.37-.23,4.91-2.34,6.94-3.27,3.07-7.26,5.29-12.21,6.79h0Z"/><path class="cls-4" d="M290.44,108.71l16.19,4.43,9.05-20.17-14.08-9.13c1.07-5.98,1.47-12.26.54-18.33l14.66-8.37-7.99-20.95-16.36,3.17c-3.35-5.13-7.83-9.57-12.61-13.32l4.29-15.86-20.17-9.05-9.13,14.08c-5.98-1.07-12.26-1.47-18.34-.55l-8.37-14.66-20.94,7.98,3.17,16.36c-5.14,3.36-9.57,7.83-13.32,12.61l-15.85-4.28-9.05,20.17,14.08,9.13c-1.07,5.98-1.47,12.26-.55,18.34l-14.66,8.37,7.98,20.94,16.36-3.17c3.36,5.14,7.83,9.57,12.61,13.32l-4.28,15.85,20.17,9.04,9.13-14.08c5.98,1.07,12.26,1.47,18.34.55l8.53,14.32,20.45-7.79-3.17-16.36c5.14-3.34,9.56-7.82,13.33-12.59ZM227.8,108.77c-19.81-8.89-28.66-32.15-19.78-51.96,8.89-19.81,32.15-28.66,51.96-19.78,19.81,8.89,28.66,32.15,19.78,51.96-8.89,19.81-32.15,28.66-51.96,19.78Z"/><path class="cls-8" d="M253.4,232.96l-6.93-.46-.71,10.68,6.93.46.71-10.68Z"/><path class="cls-1" d="M264.41,247.94h-19.28l.79-7.11c.84.48,1.53.68,2.54.68,2.01,0,3.79-.85,4.53-2.78l10.38,5.16c.26.12.5.31.7.56,1.08,1.36.34,3.49.34,3.49h0Z"/><path class="cls-8" d="M228.49,235.08l-6.42-2.63-4.05,9.91,6.42,2.63,4.05-9.91Z"/><path class="cls-1" d="M238.42,247.94h-22.63l3.02-7.53c.84.48,2.65,1.1,3.67,1.1,2.01,0,3.79-.85,4.53-2.78l10.38,5.16c.26.12.5.31.7.56,1.08,1.36.34,3.49.34,3.49h0Z"/><path class="cls-10" d="M231.74,239.39l-12.24-6.63c8.42-15.53,15.01-32.4,19.57-50.16l13.49,3.46c-4.86,18.85-11.85,36.79-20.82,53.33h0Z"/><path class="cls-10" d="M256.27,238.42l-13.72-2.32c3.65-21.56,4.73-38.03,3.54-53.39l13.88-1.08c1.66,21.2-1.1,41.49-3.7,56.79Z"/><path class="cls-1" d="M246.22,206.92l-.15-.02c.37-3.52.45-5.84.32-10.37h.15c.12,4.53.05,6.86-.32,10.38h0Z"/><path class="cls-8" d="M221.09,147.43s-.94-7.25,1.22-11.19c1.27-2.3,2.31-2.18,2.95-1.67.39.31.63.76.7,1.25.02.15.02.32,0,.48-.2,1.72-.2,3.51-.06,5.35-.02.59.62.97,1.13.7t.02-.02c.51-.29,1.3-1.16,1.73-1.68.31-.37.87-.45,1.24-.15.19.15.39.37.32.79-.03.15-.08.28-.15.42l-3.68,6.34-5.41-.6h0ZM273.93,145.87s.94-7.25-1.22-11.19c-1.27-2.3-2.31-2.18-2.95-1.68-.39.31-.63.76-.7,1.25-.02.17-.02.32,0,.48.2,1.72.2,3.51.06,5.35.02.59-.62.97-1.13.7,0,0-.02,0-.02-.02-.51-.29-1.3-1.16-1.73-1.68-.31-.37-.87-.45-1.24-.15-.19.15-.39.37-.31.79.02.15.08.28.15.42l3.68,6.34,5.4-.59h0Z"/><path class="cls-10" d="M248.12,181.29c-3.54,0-7.21-.82-10.66-2.38-3.6-1.62-7.01-4.08-9.84-7.11-6.68-7.12-9.9-16.84-8.82-26.67l11.53,1.27c-.71,6.46,1.39,12.83,5.74,17.48,3.59,3.83,8.28,6,12.53,5.81,4.16-.19,8.57-2.67,11.79-6.66,3.93-4.87,5.57-11.27,4.5-17.57l11.43-1.95c1.62,9.58-.88,19.33-6.9,26.79-5.35,6.63-12.75,10.62-20.3,10.96-.32.02-.67.03-1.01.03h0Z"/><path class="cls-8" d="M241.61,161.29c0-.63.09-1.24.25-1.81.11-.37.25-.71.4-1.05,1.05-2.16,3.28-3.65,5.85-3.65s4.8,1.48,5.85,3.65c.43.87.67,1.84.67,2.86,0,.45-.05.88-.14,1.3-.42,2.02-1.76,3.71-3.59,4.57-.7.34-1.47.54-2.24.6h-.08c-.15.02-.32.02-.48.02s-.32,0-.48-.02h-.08c-2.91-.25-5.26-2.38-5.83-5.18-.06-.42-.09-.85-.09-1.3h0Z"/><path class="cls-1" d="M241.61,161.29c0-.63.09-1.24.25-1.81.11-.37.25-.71.4-1.05h.26c2.34,0,4.38,1.19,5.57,3,.7,1.05,1.1,2.32,1.1,3.68,0,.94-.2,1.85-.56,2.67h-.08c-.15.02-.32.02-.48.02s-.32,0-.48-.02h-.08c-2.91-.25-5.26-2.38-5.83-5.18-.05-.43-.08-.87-.08-1.31h0Z"/><path class="cls-1" d="M247.01,165.11c0-1.36.4-2.61,1.1-3.68,1.19-1.81,3.25-3,5.57-3h.26c.43.87.67,1.84.67,2.86,0,.45-.05.88-.14,1.3-.42,2.02-1.76,3.71-3.59,4.57-.7.34-1.47.54-2.24.6h-.08c-.15.02-.32.02-.48.02s-.32,0-.48-.02h-.08c-.32-.83-.51-1.75-.51-2.66h0Z"/><path class="cls-10" d="M241.85,158.53c.82-.59,7.91.25,11.99-.56,1.5-.29,1.64-.54,1.98-.56,2.2-.08-.56,1.36-.87,4.82-.02.09-.87,2.15-.8,2.23-.46.87-1.13,1.62-1.96,2.23-.37.26-.76.48-1.16.66-1.92.85-4.12.73-5.89-.26-.7-.39-1.31-.9-1.81-1.5l-.05-.06c-.2-.25-.39-.51-.56-.79l-.03-.06c-.63-.73-1.19-2.4-1.07-3.94.11-1.53.23-2.21.23-2.21Z"/><path class="cls-10" d="M236.38,170.89h24.07v21.39h-24.07v-21.39Z"/><path class="cls-6" d="M315.47,211.24h70.97v142.17h-70.97v-142.17ZM210.33,247.79h70.97v105.62h-70.97v-105.62ZM105.16,277.34h70.97v76.06h-70.97v-76.06ZM0,324.6h70.97v29.66H0v-29.66Z"/><path class="cls-6" d="M364.9,147.31c.03-.94,0-1.88-.06-2.82-.07-.96-.19-1.89-.37-2.8l6.56-8.34-8.6-12.55-10.12,3.13c-1.6-.99-3.32-1.81-5.09-2.45l-3.94-9.85-15.16,1.14-2.34,10.35c-1.68.91-3.24,1.98-4.66,3.2l-10.51-1.53-6.55,13.73,7.78,7.22c-.03.94,0,1.88.06,2.82s.19,1.87.37,2.8l-6.56,8.36,8.6,12.57,10.12-3.13c1.6.99,3.32,1.81,5.09,2.45l3.94,9.87,15.16-1.16,2.34-10.35c1.66-.9,3.22-1.96,4.65-3.19l10.51,1.53,6.55-13.73-7.77-7.26h0ZM339.33,159.09c-6.94.53-12.99-4.65-13.52-11.6-.54-6.95,4.64-13,11.57-13.54,6.94-.53,12.99,4.65,13.52,11.6.54,6.95-4.64,13-11.57,13.54h0Z"/><path class="cls-8" d="M354.38,200.55s-6.71,3.11-11.17,2.22c-2.61-.52-2.8-1.56-2.52-2.33.17-.47.55-.84,1-1.05.16-.06.31-.11.47-.14,1.72-.33,3.44-.86,5.18-1.56.56-.17.75-.89.33-1.3l-.02-.02c-.44-.41-1.52-.89-2.16-1.17-.45-.19-.7-.7-.52-1.16.09-.23.25-.48.66-.55.14-.02.3-.02.44.03l7.23,1.62,1.08,5.39h0Z"/><path class="cls-9" d="M354.53,203.75l-4.71-10.73c9.48-4.14,14.42-10.34,14.72-18.45l11.73.42c-.22,6.06-2.06,11.58-5.51,16.36-3.69,5.14-9.15,9.31-16.24,12.41h0Z"/><path class="cls-8" d="M342.91,233.48l6.43.37.58-9.92-6.43-.37-.58,9.92Z"/><path class="cls-2" d="M331.78,238.03l17.39,1.02.39-6.64c-.8.39-1.7.59-2.64.53-1.86-.11-3.16-1.12-3.74-2.95l-10.21,4.34c-.25.11-.47.27-.67.48-1.08,1.2-.52,3.22-.52,3.22h0Z"/><path class="cls-8" d="M338.44,203.06l5.13,3.91,6.04-7.89-5.13-3.91-6.04,7.89Z"/><path class="cls-2" d="M328.27,211.37h17.17v-6.87c-.78.44-1.42.7-2.36.7-1.86,0-3.52-.89-4.21-2.69l-9.63,4.92c-.23.12-.45.3-.64.52-1,1.27-.33,3.42-.33,3.42h0Z"/><path class="cls-1" d="M364.48,210.81l-9.68-12.12-5.36,7.62-10.87-7.64,8.54-12.14c1.64-2.34,4.35-3.8,7.21-3.87s5.65,1.2,7.43,3.44l13.12,16.44-10.39,8.28h0Z"/><path class="cls-1" d="M353.06,228.48l-13.28-.62.99-21.05c.23-4.94,4.29-8.8,9.23-8.8h16.22v13.28h-12.36l-.8,17.19Z"/><path class="cls-1" d="M361.07,198.11v13.2h6.66c2.3.08,4.61-.45,6.58-1.64,5.85-3.48,5.51-10.11,3.46-13.8l-8.1,2.91c-2.64-.3-5.52-.53-8.6-.67h0Z"/><path class="cls-8" d="M343.07,186.36s-7.24-1.47-10.31-4.84c-1.8-1.95-1.33-2.91-.64-3.36.42-.28.94-.36,1.42-.25.16.03.31.09.47.17,1.58.75,3.28,1.34,5.1,1.81.56.2,1.14-.27,1.03-.84v-.03c-.11-.58-.69-1.62-1.05-2.22-.25-.42-.14-.97.27-1.23.2-.14.48-.25.86-.05.13.06.25.17.34.28l4.85,5.59-2.35,4.97h0Z"/><path class="cls-10" d="M375.66,172.85s6.55,11.36,3.33,30.31c0,0-6.3,6.5-19.52-11.5l16.19-18.81h0Z"/><path class="cls-8" d="M374.96,164.33c-.2.59-.48,1.16-.83,1.66-1.64,2.37-4.72,3.47-7.6,2.5-3.47-1.17-5.35-4.94-4.18-8.42.84-2.52,3.05-4.19,5.52-4.47.95-.11,1.94-.02,2.89.31,3.49,1.17,5.36,4.94,4.19,8.42h0Z"/><path class="cls-1" d="M374.96,164.33c-.2.59-.48,1.16-.83,1.66-.61-.05-1.24-.17-1.85-.37-3.88-1.31-5.96-5.5-4.65-9.37.08-.22.16-.44.25-.64.95-.11,1.94-.02,2.89.31,3.47,1.17,5.35,4.94,4.18,8.42h0Z"/><path class="cls-10" d="M367.31,155.38c5.16-2.3,9.04,2.27,9.04,5.75s-1.06,6.53-4.55,6.53c0,0-7.73-9.67-8.2-13-.33-2.27,2.41,1.28,3.71.72Z"/><path class="cls-7" d="M342.71,201.61l-.13-.09c.95-1.17,2.17-2.12,3.43-2.69,1.2-.53,2.53-.81,3.94-.83l10.57-.11v.16l-10.57.11c-1.39.02-2.71.28-3.88.81-1.24.55-2.42,1.48-3.36,2.64h0Z"/><path class="cls-10" d="M355.14,192.94c-4.77,0-9.93-1.59-15.44-4.78l5.88-10.14c4.85,2.8,8.82,3.77,11.84,2.89,3.02-.87,5.76-3.77,8.37-8.83l10.42,5.37c-4.18,8.06-9.24,12.86-15.5,14.69-1.78.53-3.64.8-5.57.8h0Z"/><ellipse class="cls-10" cx="370.41" cy="176.27" rx="6.29" ry="6.28"/><path class="cls-1" d="M360.01,192.44l-.05-.16c5.57-1.58,9.88-4.8,13.19-9.8l.13.09c-3.32,5.05-7.65,8.27-13.26,9.86h0Z"/><path class="cls-6" d="M126.1,179.75l10.48,4.79,8.35-12.67-8.53-7.74c1.39-3.93,2.35-8.15,2.39-12.35l10.86-4.05-3.09-15.08-11.43.34c-1.71-3.85-4.25-7.35-7.07-10.42l4.65-10.26-12.66-8.36-7.74,8.53c-3.93-1.39-8.15-2.35-12.36-2.4l-4.05-10.86-15.06,3.09.34,11.43c-3.85,1.71-7.35,4.25-10.42,7.07l-10.27-4.66-8.36,12.66,8.53,7.74c-1.39,3.93-2.35,8.15-2.4,12.36l-10.86,4.05,3.09,15.07,11.43-.34c1.71,3.85,4.25,7.35,7.07,10.42l-4.65,10.26,12.67,8.35,7.74-8.53c3.93,1.39,8.15,2.35,12.35,2.39l4.19,10.65,14.72-3.02-.34-11.43c3.86-1.69,7.36-4.23,10.43-7.05ZM83.66,172.87c-12.44-8.21-15.86-24.95-7.65-37.39,8.21-12.44,24.95-15.86,37.39-7.65,12.44,8.21,15.86,24.95,7.65,37.39-8.21,12.44-24.95,15.86-37.39,7.65Z"/><path class="cls-5" d="M49.31,279.48c.15.61.21,1.23.2,1.83-.11,2.84-2.06,5.38-4.95,6.11-3.5.88-7.06-1.25-7.93-4.76-.11-.43-.17-.87-.18-1.31h0v-.35c.02-1.95.91-3.77,2.39-4.99.15-.12.3-.24.47-.35.49-.33,1.04-.61,1.63-.81.15-.05.3-.09.46-.14s.32-.08.47-.09c.61-.11,1.22-.12,1.81-.06,1.16.12,2.25.56,3.18,1.23.85.62,1.55,1.44,2.02,2.43h0c.17.41.32.82.43,1.25h0Z"/><path class="cls-1" d="M42.69,281.66c5.88,7.7.67,17.58-1.22,21.26-1.35,3.04-7.5,4.06-8.27-1.95-.5-3.97,5.83-9.03,3.74-14.98-1.69-4.78-.26-7.41.73-8.76.32-.44.7-.85,1.14-1.2.15-.12.3-.24.47-.35.49-.33,1.04-.61,1.63-.81.15-.05.3-.09.46-.14s.32-.08.47-.09c.61-.11,1.22-.12,1.81-.06,1.16.12,2.25.56,3.18,1.23-.14,2.54-1.74,4.85-4.16,5.84h0Z"/><path class="cls-5" d="M89.8,339.36l-4.9,3.95-6.12-7.56,4.9-3.95,6.12,7.56Z"/><path class="cls-1" d="M101.19,336.46l-13.26,10.71-4.09-5.06c.88-.14,1.72-.52,2.41-1.08,1.42-1.14,1.87-2.69,1.29-4.49l10.59-2.36c.26-.06.53-.06.81,0,1.54.35,2.25,2.28,2.25,2.28h0Z"/><path class="cls-5" d="M71.2,349.2h-6.3v-9.72h6.3v9.72Z"/><path class="cls-1" d="M81.84,354.27h-17.05v-6.51c.76.43,1.63.67,2.56.67,1.83,0,3.15-.91,3.82-2.68l9.73,4.84c.23.12.46.29.62.5.97,1.23.32,3.18.32,3.18h0Z"/><path class="cls-10" d="M79.21,341.22c-5.16-7.09-10.53-13.16-15.98-18.05l8.14-9.05c6.09,5.46,12.04,12.18,17.7,19.95l-9.86,7.15h0Z"/><path class="cls-10" d="M75.05,319.45c.58,7.8.12,15.53-.41,23.76h-12.27v-18.63h-10.9c-3.06,0-5.83-1.23-7.84-3.24-2.01-2.01-3.24-4.78-3.24-7.83,0,0,27.57-1.06,31.07.3,2.37.94,3.38,2.65,3.59,5.64h0Z"/><path class="cls-10" d="M57.85,313.11c-4.86,3.86-10.14,5.89-15.83,6.19-2.65-4.32-3.06-12.38-1.64-23.5l12.7-3.6,4.78,20.91h0Z"/><path class="cls-5" d="M33.78,320.68l-.64,1.76c-.46,1.26-1.64,2.1-2.98,2.1h-8.48s-1.7-1-.5-2.74c1.2-1.73,9.59-3.7,9.59-3.7l3.01,2.57h0ZM69.39,278.42s3.18-10.37-.49-14.01c0,0-1.57-1.44-2.79-.18-.43.44-.62,1.03-.61,1.66.05,2.08-.88,8.52-1.6,9.57l5.48,2.97h0Z"/><path class="cls-10" d="M34.92,323.22l-8.3-7.83c.29-.3.58-.61.85-.9,5.36-5.64,9.22-9.7,14.37-22.92l10.64,4.14c-5.95,15.3-10.94,20.56-16.73,26.65l-.84.87Z"/><path class="cls-10" d="M51.73,299.71c-1.55,0-3.21-.12-4.95-.35l1.54-11.3c4.32.58,7.4.14,9.16-1.32,2.36-1.96,3.71-6.57,4.11-14.1l11.4.61c-.4,7.53-1.69,16.88-8.22,22.28-3.41,2.8-7.7,4.18-13.05,4.18Z"/><ellipse class="cls-10" cx="47.35" cy="294.01" rx="5.86" ry="5.86"/><path class="cls-1" d="M40.88,316.7l-.12-.11c3.73-4.17,8.3-12.35,10.38-17.55,1.31-2.98,1.58-5.86.76-7.89l.14-.06c.84,2.07.56,4.99-.76,8.02-2.09,5.22-6.67,13.43-10.4,17.6h0ZM75.16,335.72h-.15c.3-7.04.64-15.03-.38-18.4l.15-.05c1,3.39.67,11.39.38,18.45h0Z"/><path class="cls-10" d="M49.37,274.31c-1.7,2.91-12.53,8.9-12.53,8.9-3.24-1.34-3.07-4.55-1.74-7.79,1.34-3.24,6.65-5.96,10.55-1.87.97,1.02,4.86-1.22,3.71.76Z"/><path class="cls-3" d="M85.48,240.75c0-.78-.04-1.54-.11-2.32-.08-.79-.2-1.55-.37-2.3l5.22-7-7.34-10.14-8.26,2.79c-1.34-.78-2.77-1.42-4.24-1.9l-3.45-8.02-12.45,1.26-1.7,8.56c-1.36.78-2.62,1.7-3.77,2.73l-8.66-1.04-5.1,11.43,6.56,5.77c0,.78.04,1.54.11,2.32s.2,1.53.37,2.3l-5.23,7.02,7.35,10.15,8.26-2.79c1.34.78,2.77,1.42,4.24,1.9l3.46,8.03,12.44-1.28,1.7-8.56c1.35-.78,2.61-1.68,3.75-2.73l8.68,1.03,5.1-11.43-6.55-5.8h0ZM64.69,250.99c-5.69.59-10.78-3.55-11.37-9.25-.59-5.7,3.54-10.79,9.23-11.38,5.69-.59,10.78,3.55,11.37,9.25.59,5.7-3.54,10.79-9.23,11.38h0Z"/><path class="cls-8" d="M141.75,180.85c0,.63-.09,1.22-.25,1.78-.78,2.68-3.27,4.65-6.23,4.65-3.57,0-6.47-2.88-6.47-6.45,0-2.58,1.52-4.79,3.71-5.83.87-.41,1.81-.63,2.78-.63,3.56.02,6.46,2.9,6.46,6.47Z"/><path class="cls-1" d="M141.75,180.85c0,.63-.09,1.22-.25,1.78-.58.15-1.2.23-1.82.23-3.99,0-7.21-3.22-7.21-7.17,0-.23.02-.46.03-.67.84-.4,1.78-.63,2.78-.63,3.57,0,6.47,2.88,6.47,6.45Z"/><path class="cls-8" d="M107.37,198.82s-7.59-7.82-5.96-12.75c0,0,.75-2,2.42-1.43.58.2,1.04.64,1.3,1.19.92,1.89,4.68,7.21,5.81,7.84l-3.57,5.15h0Z"/><ellipse class="cls-10" cx="136.16" cy="196.25" rx="7.8" ry="7.76"/><path class="cls-10" d="M120.91,206.4c-.77,0-1.52-.05-2.28-.12-6.36-.72-11.65-4.41-16.44-8.28l7.27-8.86c8.13,6.59,12.4,8.51,22.2.81l7.13,8.97c-6.42,5.08-12.17,7.49-17.88,7.49h0Z"/><path class="cls-1" d="M126.6,205.66l-.05-.15c4.95-1.49,8.92-3.71,12.17-6.74,2.09-2,2.91-4.47,2.3-6.77-.48-1.8-2.02-3.1-3.94-3.32-2.27-.27-4.46.49-6.5,2.26l-.09-.12c2.09-1.8,4.31-2.56,6.62-2.29,1.98.24,3.57,1.59,4.08,3.45.63,2.36-.23,4.89-2.35,6.92-3.28,3.07-7.28,5.28-12.25,6.77h0Z"/><path class="cls-10" d="M131.52,173.89c4.35-3.6,9.31-.24,10.24,3.11.94,3.37.74,6.57-2.64,7.5,0,0-10.04-7.23-11.39-10.31-.9-2.07,2.7.59,3.79-.3Z"/></g></svg>