<?xml version="1.0" encoding="utf-8"?>
<!-- Generator: Adobe Illustrator 27.9.0, SVG Export Plug-In . SVG Version: 6.00 Build 0)  -->
<svg version="1.1" id="_レイヤー_2" xmlns="http://www.w3.org/2000/svg" xmlns:xlink="http://www.w3.org/1999/xlink" x="0px"
	 y="0px" viewBox="0 0 1125.5 264" style="enable-background:new 0 0 1125.5 264;" xml:space="preserve">
<style type="text/css">
	.st0{fill:#FFFFFF;}
	.st1{enable-background:new    ;}
	.st2{fill:#0017AF;}
	.st3{fill:#EFEFEF;}
	.st4{fill:#D6D8D6;stroke:#FFFFFF;stroke-width:9.76;stroke-linejoin:bevel;}
	.st5{fill:#AEE6E8;stroke:#FFFFFF;stroke-width:9.76;stroke-linejoin:bevel;}
	.st6{fill:#C3DDC4;stroke:#FFFFFF;stroke-width:9.76;stroke-linejoin:bevel;}
	.st7{fill:#F4F198;stroke:#FFFFFF;stroke-width:9.76;stroke-linejoin:bevel;}
	.st8{fill:#ABE6A0;stroke:#FFFFFF;stroke-width:9.76;stroke-linejoin:bevel;}
	.st9{fill:#67D271;stroke:#FFFFFF;stroke-width:0.85;stroke-miterlimit:10;}
	.st10{fill:none;stroke:#000000;stroke-width:0.49;stroke-miterlimit:10;}
	.st11{fill:#DFDFDF;stroke:#000000;stroke-width:0.25;stroke-miterlimit:10;}
	.st12{fill:#67D271;}
	.st13{fill:#407CD0;}
	.st14{fill:#D9BFED;stroke:#FFFFFF;stroke-width:0.54;stroke-miterlimit:10;}
	.st15{fill:#90B8EB;stroke:#FFFFFF;stroke-width:0.54;stroke-miterlimit:10;}
</style>
<g id="_レイヤー_1-2">
	<rect class="st0" width="211.5" height="264"/>
	<rect x="682" class="st0" width="219.5" height="264"/>
	<rect x="906" class="st0" width="219.5" height="264"/>
	<path class="st0" d="M677.5,264V0h-461v264C216.5,264,677.4,263.7,677.5,264z"/>
	<g class="st1">
		<path class="st2" d="M98.7,41.6c0,0,0,0.6-0.1,0.9c-0.3,3.3-0.6,4.8-1.2,5.3c-0.5,0.5-1,0.6-1.8,0.7c-0.6,0.1-1.7,0-2.9,0
			c0-0.6-0.3-1.4-0.7-2c1.1,0.1,2.3,0.1,2.7,0.1c0.4,0,0.6,0,0.8-0.2c0.3-0.3,0.6-1.2,0.8-3h-4.7c-0.9,2.3-2.8,4.1-7.3,5.1
			c-0.2-0.6-0.7-1.4-1.1-1.9c3.5-0.7,5.2-1.7,6-3.2h-5.3v-1.9h6c0.1-0.4,0.1-0.8,0.2-1.2h-5v-7.7H98v7.7h-5.7
			c-0.1,0.4-0.1,0.8-0.2,1.2L98.7,41.6z M87.3,35.7h3.2v-1.2h-3.2V35.7z M87.3,38.6h3.2v-1.3h-3.2V38.6z M95.9,34.4h-3.2v1.2h3.2
			V34.4z M95.9,37.3h-3.2v1.3h3.2V37.3z"/>
		<path class="st2" d="M115.2,38c-0.5,2.5-1.3,4.4-2.4,5.9c1.9,0.9,3.6,1.9,4.8,2.7l-1.6,2c-1.2-0.9-2.9-2-4.9-3
			c-1.9,1.5-4.6,2.4-8.2,2.9c-0.2-0.7-0.7-1.6-1.1-2.1c3-0.3,5.3-0.9,7-2c-1-0.5-1.9-0.9-2.9-1.2l-0.3,0.7l-2.2-0.8
			c0.7-1.4,1.5-3.2,2.3-5.2h-4v-2.2h4.9c0.5-1.4,1.1-2.8,1.5-4l2.4,0.4c-0.4,1.2-0.9,2.4-1.4,3.6h9v2.2L115.2,38z M108,38
			c-0.5,1.2-1,2.3-1.4,3.4c1.2,0.4,2.6,1,3.9,1.5c1-1.2,1.7-2.8,2.2-4.9H108z"/>
		<path class="st2" d="M123.8,45.2c1.2-0.3,2.5-0.5,3.8-0.8l0.2,2.1c-2.7,0.6-5.7,1.3-7.9,1.7l-0.6-2.2c0.7-0.1,1.4-0.3,2.3-0.4V32
			h2.2v5.1h3.6v2.1h-3.6V45.2z M133.3,46.2c0.7,0,0.8-0.6,0.9-3.1c0.5,0.4,1.4,0.8,2,0.9c-0.2,3-0.8,4.2-2.7,4.2H131
			c-2.1,0-2.7-0.7-2.7-3.3V31.8h2.2v5.8c1.4-0.6,2.7-1.4,3.7-2.1l1.5,1.9c-1.6,0.8-3.5,1.6-5.2,2.3v5.2c0,1,0.1,1.2,0.8,1.2
			L133.3,46.2z"/>
	</g>
	<g class="st1">
		<path class="st2" d="M974,29.8c0,3.4,0.5,10,7.1,13.9c-0.5,0.4-1.3,1.3-1.7,1.9c-3.7-2.2-5.6-5.7-6.6-8.9c-1.3,4-3.5,7-6.6,8.9
			c-0.4-0.5-1.4-1.3-2-1.7c3.7-1.9,5.9-5.4,6.9-10.1l1.1,0.2c-0.1-0.7-0.2-1.3-0.3-1.9h-4.1v-2.2L974,29.8z"/>
		<path class="st2" d="M988.9,40.7c-0.4-0.5-1-1.2-1.6-1.9v6.8h-2.1v-6.2c-0.7,0.7-1.5,1.3-2.2,1.7c-0.2-0.6-0.7-1.6-1-2
			c2-1.1,3.9-3,5-5h-4.3v-1.9h2.6v-3.3h2.1v3.3h0.8l0.4-0.1l1.2,0.8c-0.5,1.4-1.3,2.7-2.1,3.9c0.9,0.7,2.3,1.9,2.6,2.3L988.9,40.7z
			 M999.2,43v2.1H989V43h4.2v-6.6h-3.4v-2.1h3.4v-5.4h2.2v5.4h3.4v2.1h-3.4V43H999.2z"/>
		<path class="st2" d="M1009.6,29.2c0,0.3,0,0.6-0.1,1c0.1,2.5,1,10.2,7.8,13.4c-0.7,0.5-1.3,1.2-1.7,1.8c-4.1-2-6.1-5.7-7.1-9
			c-1,3.2-2.9,6.7-6.7,9c-0.4-0.6-1.1-1.2-1.8-1.7c7.2-4,6.9-12.2,7.1-14.5C1007.1,29.2,1009.6,29.2,1009.6,29.2z"/>
		<path class="st2" d="M1034,34c-0.4,2.7-1,4.9-2,6.7c0.8,1.3,1.9,2.3,3.2,3c-0.5,0.4-1.2,1.3-1.5,1.9c-1.2-0.7-2.2-1.7-3-2.9
			c-1,1.2-2.2,2.2-3.8,3c-0.1-0.3-0.4-0.8-0.7-1.2l-0.8,0.8c-0.5-0.4-1.1-0.9-1.9-1.3c-1.1,0.8-2.5,1.3-4.4,1.7
			c-0.1-0.6-0.5-1.3-0.8-1.8c1.5-0.2,2.6-0.5,3.4-1c-0.3-0.2-0.7-0.3-1-0.5l-0.2,0.3l-1.9-0.6c0.4-0.6,0.8-1.4,1.3-2.3h-1.7v-1.7
			h2.6c0.2-0.5,0.4-0.9,0.6-1.3l0.4,0.1v-1.7c-0.8,0.8-1.8,1.6-2.7,2.1c-0.2-0.5-0.7-1.2-1.1-1.5c1.1-0.5,2.3-1.3,3.2-2.3h-2.8v-1.7
			h1.4c-0.2-0.6-0.6-1.4-0.9-2.1l1.5-0.6c0.5,0.7,0.9,1.6,1.1,2.2l-1.2,0.5h1.5v-3h2v3h1.4l-1.2-0.5c0.4-0.6,0.9-1.6,1.2-2.3
			l1.8,0.7c-0.6,0.8-1.1,1.5-1.5,2.1h1.7v1.7h-3c0.9,0.5,2.1,1.2,2.5,1.5l-1.1,1.5c-0.4-0.4-1.2-1-1.9-1.6v2.2h-1.2l0.8,0.2
			l-0.4,0.9h4.3c-0.4-0.4-1.1-1-1.5-1.2c1.5-1.8,2.4-4.9,2.8-8.1l2.2,0.3c-0.1,1-0.3,2-0.6,3h4.8v2L1034,34z M1021.6,40.8
			c0.5,0.2,1.1,0.4,1.6,0.7c0.3-0.5,0.5-1,0.7-1.6h-1.7L1021.6,40.8z M1025.9,39.8c-0.2,1-0.5,1.9-1,2.6c0.6,0.3,1.1,0.6,1.5,1
			c1.3-0.7,2.4-1.6,3.2-2.7c-0.5-1.1-0.9-2.2-1.2-3.5c-0.3,0.5-0.5,0.9-0.8,1.3c-0.1-0.1-0.1-0.2-0.3-0.3v1.7L1025.9,39.8z
			 M1029.7,34c0.3,1.5,0.6,2.9,1.1,4.2c0.5-1.2,0.8-2.6,1-4.2H1029.7z"/>
		<path class="st2" d="M1042.8,34.6c1.5-0.9,3-1.6,3.9-2.1c0.7-0.4,1.2-0.7,1.7-1.1l1.2,2.1c-0.5,0.3-1.1,0.6-1.8,1
			c-1.1,0.6-3.4,1.6-5,2.7c-1.5,1-2.5,2-2.5,3.3s1.2,2,3.7,2c1.9,0,4.3-0.3,5.9-0.7v2.6c-1.5,0.3-3.4,0.5-5.8,0.5
			c-3.6,0-6.3-1-6.3-4.1c0-2,1.3-3.5,3-4.8c-0.8-1.5-1.7-3.5-2.5-5.4l2.3-0.9C1041.2,31.5,1042.1,33.3,1042.8,34.6z"/>
		<path class="st2" d="M1057.1,30.4h3.8v3.1h-0.9v1.4h-2.9v0.8h2.6V37h-2.6v0.8h3.6v1.6h-9.3v-1.6h3.7V37h-2.7v-1.4h2.7v-0.8h-2.8
			v-1.4h-0.9v-3.1h3.7v-1.5h2.1L1057.1,30.4z M1052.4,40h7.5v5.4h-2v-0.6h-3.6v0.8h-1.9V40z M1058.9,32h-5.6v1.3h1.8v-1h2v1h1.8
			L1058.9,32z M1054.4,41.6v1.5h3.6v-1.5H1054.4z M1063.7,40.7h-2V30.6h2V40.7z M1067.5,29.1V43c0,1.2-0.2,1.8-0.9,2.1
			c-0.7,0.4-1.8,0.4-3.3,0.4c-0.1-0.6-0.4-1.6-0.7-2.2c1,0.1,2.1,0,2.4,0s0.4-0.1,0.4-0.4V29L1067.5,29.1z"/>
		<path class="st2" d="M1078.6,28.8c1.9,2.8,4.8,5,7.7,6.2c-0.5,0.6-1,1.3-1.4,1.9c-0.9-0.5-1.9-1.1-2.8-1.7v1.2h-9v-1.3
			c-0.9,0.6-1.8,1.2-2.8,1.8c-0.3-0.5-0.9-1.3-1.4-1.7c3.1-1.5,6-4.2,7.3-6.4L1078.6,28.8z M1072,38.2h11.4v7.4h-2.2v-0.7h-7.1v0.7
			h-2.1L1072,38.2z M1081.3,34.5c-1.5-1.2-2.8-2.5-3.7-3.7c-0.8,1.2-2.1,2.5-3.6,3.7H1081.3z M1074.1,40.1V43h7.1v-2.9H1074.1z"/>
	</g>
	<g class="st1">
		<path class="st2" d="M417.5,36.9c-0.4,1-0.8,2-1.1,2.7h2.1v1.9h-9.3v-1.9h2.1c-0.1-0.7-0.3-1.8-0.6-2.7l1.7-0.4
			c0.4,0.8,0.7,1.9,0.7,2.6l-1.7,0.4h4.7l-1.5-0.4c0.3-0.8,0.6-1.9,0.7-2.7L417.5,36.9z M418.4,36.4h-8.7v-1.9h3.3v-1.6h2.1v1.6h3.3
			L418.4,36.4z M410.3,42.6h7.4v6.9h-2.1v-0.8h-3.4v0.9h-2L410.3,42.6z M412.3,44.5v2.4h3.4v-2.4H412.3z M426.1,34.7
			c-0.6,1.7-1.4,3.8-2.1,5.3c1.5,1.6,1.8,3,1.8,4.2c0,1.3-0.3,2.2-1,2.7c-0.3,0.2-0.8,0.4-1.2,0.5c-0.4,0.1-0.9,0.1-1.4,0
			c0-0.6-0.2-1.5-0.5-2.1c0.4,0,0.7,0,1,0s0.5-0.1,0.7-0.1c0.3-0.2,0.4-0.6,0.4-1.2c0-1-0.4-2.3-1.8-3.7c0.5-1.3,1.1-3.1,1.5-4.5
			h-2.2v13.8h-2.1V33.8h5.1l0.3-0.1L426.1,34.7z"/>
		<path class="st2" d="M438.4,42.4c-0.5,0.3-1,0.5-1.5,0.8h5.3v6.3h-2.1v-0.4h-6.9v0.4h-2v-4.1c-1,0.3-2,0.6-3.1,0.8
			c-0.2-0.5-0.7-1.4-1-1.8c2.4-0.5,4.8-1.1,7-2h-6.5v-1.7h6.4v-0.9h-4.5v-1.6h4.5v-0.8h-5.5v-4.1h14.2v4.1H436v0.8h3.7v1.1
			c0.6-0.5,1.2-1,1.7-1.5l1.7,1c-0.7,0.7-1.4,1.4-2.2,1.9h2.7v1.7H438.4z M432.6,34.8h-2v1.1h2V34.8z M433.3,44.7L433.3,44.7
			l-0.1,0.7h6.9v-0.7H433.3z M440.1,47.6v-0.8h-6.9v0.8H440.1z M434.6,36h2v-1.1h-2V36z M436.1,40.8h1.5c0.5-0.3,1-0.6,1.4-0.9h-2.9
			V40.8z M438.6,36h2.1v-1.1h-2.1V36z"/>
		<path class="st2" d="M451.1,34.4h3.8v3.1H454v1.4h-2.9v0.8h2.6v1.4h-2.6v0.8h3.6v1.6h-9.3v-1.6h3.7V41h-2.7v-1.4h2.7v-0.8h-2.8
			v-1.4h-0.9v-3.1h3.7v-1.5h2.1L451.1,34.4z M446.4,44.1h7.5v5.4h-2v-0.6h-3.6v0.8h-1.9V44.1z M452.9,36h-5.6v1.3h1.8v-1h2v1h1.8
			L452.9,36z M448.3,45.7v1.5h3.6v-1.5H448.3z M457.7,44.8h-2V34.7h2V44.8z M461.5,33.1V47c0,1.2-0.2,1.8-0.9,2.1
			c-0.7,0.4-1.8,0.4-3.3,0.4c-0.1-0.6-0.4-1.6-0.7-2.2c1,0.1,2.1,0,2.4,0s0.4-0.1,0.4-0.4V33L461.5,33.1z"/>
		<path class="st2" d="M472.6,32.8c1.9,2.8,4.8,5,7.7,6.2c-0.5,0.6-1,1.3-1.4,1.9c-0.9-0.5-1.9-1.1-2.8-1.7v1.2h-9v-1.3
			c-0.9,0.6-1.8,1.2-2.8,1.8c-0.3-0.5-0.9-1.3-1.4-1.7c3.1-1.5,6-4.2,7.3-6.4H472.6z M466,42.2h11.4v7.4h-2.2v-0.7h-7.1v0.7H466
			V42.2z M475.3,38.6c-1.5-1.2-2.8-2.5-3.7-3.7c-0.8,1.2-2.1,2.5-3.6,3.7H475.3z M468.1,44.1V47h7.1v-2.9H468.1z"/>
	</g>
	<g class="st1">
		<path class="st2" d="M770.9,43.8h-6.2v3.9h-2.2v-3.9h-8.1v-2.1h2.8V37h5.3v-2.1h-3.9c-0.7,1.3-1.6,2.4-2.4,3.3
			c-0.4-0.4-1.3-1.1-1.9-1.4c1.6-1.4,3-3.7,3.8-6l2.2,0.6c-0.2,0.5-0.4,1-0.6,1.5h10.2V35h-5.2v2.1h4.8v2h-4.8v2.7h6.2L770.9,43.8z
			 M762.5,41.7V39h-3.1v2.7H762.5z"/>
		<path class="st2" d="M782.6,36.8c-0.4,0.4-0.8,0.9-1.2,1.2c-0.1-0.3-0.3-0.6-0.5-1h-8.7v-1.8h1v-3.5h1.8v3.5h1.2v-4.4h2v1.4h2.6
			v1.7h-2.6v1.3h3.1v0.1c1.1-1.3,2.1-3.1,2.5-4.5h1.9c0.8,1.9,2.2,4.1,3.6,5.1c-0.4,0.5-0.8,1.4-1,2c-0.4-0.3-0.8-0.7-1.1-1.1v1.4
			h-4.6V36.8z M779.3,37.5h1.7v9.9h-1.7v-0.9h-4.9v1.1h-1.6V37.5h1.6v7.4h4.9V37.5z M776.2,42.7c-0.3,0.7-0.7,1.3-1.2,1.7
			c-0.1-0.4-0.4-1-0.6-1.3c0.5-0.3,0.9-1,1.3-1.6h-1v-1.2h1.5v-2.5h1.3v2.5h1.5v1.2h-1.3c0.5,0.4,1.3,1.2,1.5,1.5l-0.8,0.9
			c-0.2-0.3-0.6-0.8-0.9-1.3v2.1h-1.3V42.7z M775.1,40c-0.1-0.5-0.3-1.2-0.5-1.7l1-0.3c0.3,0.5,0.5,1.2,0.6,1.7L775.1,40z
			 M779.2,38.3c-0.3,0.6-0.6,1.2-0.8,1.6l-0.9-0.3c0.3-0.5,0.5-1.2,0.7-1.7L779.2,38.3z M788.4,43.9c0,0.8-0.1,1.4-0.6,1.7
			s-1.2,0.4-2.1,0.4c-0.1-0.6-0.3-1.4-0.6-1.9c0.5,0,1,0,1.2,0s0.2-0.1,0.2-0.2v-2.6h-1.6v6.3h-2v-6.3h-1.3v-1.9h6.9L788.4,43.9z
			 M786.8,36.4c-0.8-1.1-1.5-2.3-1.9-3.3c-0.4,1-1.1,2.3-1.9,3.3H786.8z"/>
		<path class="st2" d="M802,31c1.1,2.3,3.4,4.9,5.3,6.4c-0.6,0.5-1.4,1.3-1.8,1.9c-0.4-0.3-0.8-0.7-1.2-1.2v0.1
			c-0.2,5.4-0.4,7.6-1,8.3c-0.5,0.6-0.9,0.8-1.6,0.8c-0.6,0.1-1.7,0.1-2.7,0.1c0-0.6-0.3-1.5-0.7-2.2c1,0.1,1.9,0.1,2.4,0.1
			c0.3,0,0.5,0,0.7-0.3c0.4-0.4,0.6-2,0.7-5.7h-3.5c-0.4,3.5-1.6,6.5-6.3,8.3c-0.3-0.6-0.9-1.5-1.4-2c4.1-1.3,5-3.7,5.4-6.3h-3V38
			c-0.5,0.5-1,0.9-1.4,1.3c-0.4-0.5-1.3-1.3-1.8-1.7c2.2-1.5,4.2-4,5.3-6.7l2.3,0.7c-0.9,2.1-2.1,4.1-3.6,5.7h9.7
			c-1.4-1.7-2.8-3.6-3.8-5.5L802,31z"/>
		<path class="st2" d="M815.1,35.4c-0.4,0.9-0.9,1.9-1.5,2.7h2.9V36h2.2v2.1h5.2v5.6c0,1-0.2,1.5-0.9,1.9c-0.7,0.3-1.7,0.3-3,0.3
			c-0.1-0.6-0.4-1.4-0.7-1.9c0.8,0,1.8,0,2,0c0.3,0,0.4-0.1,0.4-0.3v-3.5h-3v7.4h-2.2v-7.4h-2.8v5.9h-2.1v-5.2
			c-0.7,0.7-1.4,1.4-2.3,2c-0.3-0.5-0.8-1.4-1.2-1.9c2-1.3,3.5-3.3,4.6-5.5h-4v-2.1h4.9c0.3-0.9,0.6-1.7,0.8-2.6l2.2,0.5
			c-0.2,0.7-0.4,1.4-0.7,2.1h8.8v2.1L815.1,35.4z"/>
	</g>
	<path class="st3" d="M271.9,119.7V81.6c-4.2,0-7.8,0.6-11.8,1.9c-7.2,2.4-13.1,6.4-17.9,12.3c-9,11.1-11.1,25-5.7,38.3
		c1.6,3.9,3.5,7,6.2,10.2c13.5,16.1,37.6,18.3,53.8,4.7L271.9,119.7z"/>
	<path class="st3" d="M360.1,119.8l0.7-38.2c-11.8-0.2-21.7,4.2-29.5,13.1c-13.9,15.9-12.2,40,3.7,53.9c3.1,2.8,6.2,4.8,10.1,6.4
		v-0.1c7,3,14.1,3.8,21.6,2.5l0,0c14.1-2.4,24.8-11.5,29.5-25.1L360.1,119.8z"/>
	<path class="st3" d="M480.9,101.1l-33,18.8h-0.2l-0.4-38.2c-4.2,0.1-7.8,0.7-11.8,2c-20,6.7-30.7,28.4-24,48.4l0,0
		c3.8,11.2,11.3,19,22.3,23.3c19.6,7.7,41.8-2,49.5-21.6h-0.1c1.6-3.9,2.4-7.4,2.6-11.6C486.3,114.7,484.7,107.7,480.9,101.1z"/>
	<path class="st3" d="M563.8,92.6c-3-2.9-5.9-5-9.7-6.9l-17,34.2l0,0l0,0L532.7,82c-14.2,1.7-25.4,10.1-30.9,23.4
		c-1.6,3.9-2.5,7.4-2.8,11.6c-1.7,21,14.1,39.4,35.1,41v-0.1c11.7,1,21.9-2.9,30.2-11.3C579.1,131.6,578.9,107.4,563.8,92.6z"/>
	<path class="st3" d="M634.3,82.8l-9.7,37l-2.2-38.1c-7.6,0.5-14.4,2.8-20.5,7.3c-11.5,8.5-17,21.5-15.2,35.7
		c0.6,4.2,1.6,7.7,3.4,11.5c9.1,19,31.8,27.1,50.9,18.1c10.7-5.1,17.6-13.5,20.6-24.9C666.9,109,654.7,88.1,634.3,82.8z"/>
	<g class="st1">
		<path class="st2" d="M269.3,182.9c-0.7,0.5-1.5,0.9-2.2,1.3c0.8,0.4,1.8,0.7,3,0.9c-0.3,0.3-0.7,0.9-0.9,1.3
			c-2.8-0.5-4.5-1.8-5.6-4c-0.5,0.4-1,0.7-1.6,1v1.2c0.9-0.1,1.8-0.2,2.7-0.4l0.1,1.3c-1.9,0.3-4,0.5-5.5,0.8l-0.2-1.3
			c0.4,0,0.9-0.1,1.3-0.2V184c-0.7,0.2-1.5,0.4-2.2,0.6c-0.2-0.3-0.6-0.9-0.9-1.2c1.5-0.2,3-0.6,4.2-1.1h-4V181h5.3v-0.7
			c-0.2,0-0.3,0-0.5,0c-0.1-0.3-0.3-0.7-0.4-0.9c0.3,0,0.6,0,0.7,0s0.2,0,0.2-0.1v-0.6h-1.1v2h-1.4v-2h-1v1.7h-1.2v-2.7h2.2v-0.5
			h-2.8v-1.1h0.8c-0.3-0.2-0.6-0.4-0.8-0.5c0.4-0.5,0.8-1.3,1.1-2l1.2,0.3c-0.1,0.2-0.1,0.4-0.2,0.6h0.8v-0.9h1.4v0.9h2.3v1h-2.3
			v0.5h2.6v1.1h-2.6v0.5h2.4v1.5c0,0.5-0.1,0.8-0.4,0.9c-0.2,0.1-0.4,0.1-0.6,0.1h1.4v0.7h5.3v1.3h-1.4L269.3,182.9z M260.3,176.1
			v-0.5H259c-0.1,0.2-0.2,0.4-0.3,0.5H260.3z M266.3,178.7h-1.4v-4.5h1.4V178.7z M265,182.2c0.3,0.4,0.6,0.8,1,1.2
			c0.6-0.3,1.4-0.8,1.9-1.2H265z M269.3,179.2c0,0.7-0.1,1-0.6,1.2s-1.1,0.2-2.1,0.2c-0.1-0.4-0.3-0.9-0.5-1.3c0.6,0,1.3,0,1.5,0
			s0.3-0.1,0.3-0.2v-5.4h1.5L269.3,179.2L269.3,179.2z"/>
		<path class="st2" d="M274.3,183.2c0.6,0.9,1.6,1.3,3,1.3c1.6,0.1,4.7,0,6.5-0.1c-0.2,0.4-0.4,1.2-0.5,1.6c-1.6,0.1-4.4,0.1-6,0
			c-1.7-0.1-2.8-0.5-3.7-1.5c-0.6,0.5-1.2,1.1-1.9,1.6l-0.8-1.7c0.6-0.3,1.3-0.8,1.9-1.3v-2.9h-1.6v-1.5h3.1V183.2z M273.3,177.1
			c-0.4-0.7-1.4-1.6-2.2-2.2l1.2-1c0.8,0.6,1.8,1.4,2.3,2.1L273.3,177.1z M275.7,177.7c-0.3-0.2-1-0.6-1.3-0.8
			c0.8-0.7,1.5-1.9,1.9-3.2l1.5,0.3c-0.1,0.4-0.3,0.7-0.4,1h1v-1.5h1.6v1.5h3v1.4h-3v1.2h3.5v1.3h-8.8v-1.3h1L275.7,177.7
			L275.7,177.7z M276.6,176.5c-0.3,0.4-0.6,0.8-0.9,1.2h2.6v-1.2H276.6z M275.8,183.8v-4h6.9v4H275.8z M277.4,182.5h3.6v-1.4h-3.6
			V182.5z"/>
	</g>
	<g class="st1">
		<path class="st2" d="M444.1,177.2h-5.3v-1.3h5.3V177.2z M450.9,179.8c-0.4,1.6-1.2,2.9-2.1,4c0.8,0.5,1.8,0.9,2.8,1.2
			c-0.4,0.3-0.8,1-1,1.4c-1.1-0.3-2.1-0.8-3-1.5c-0.9,0.6-2,1.1-3.1,1.5c-0.2-0.4-0.5-1-0.8-1.4v0.7h-2.8v0.5h-1.4v-4.6h4.2v3.4
			c1-0.3,1.9-0.6,2.8-1.2c-0.6-0.7-1.1-1.5-1.6-2.4l1.4-0.4h-1.9v-1.5h0.5c-0.2-0.3-0.8-0.8-1.1-1v0.5h-4.2v-1.2h4.2v0.7
			c1.2-0.8,1.3-1.9,1.3-2.8V174h4.6v3.1c0,0.4,0,0.4,0.2,0.4h0.3c0.2,0,0.2-0.2,0.2-1.4c0.3,0.2,0.9,0.5,1.3,0.6
			c-0.1,1.7-0.5,2.2-1.4,2.2h-0.8c-1.1,0-1.4-0.4-1.4-1.8v-1.6h-1.5v0.2c0,1.3-0.3,2.8-1.7,3.8h4.8l0.3-0.1L450.9,179.8z
			 M443.6,180.9h-4.2v-1.2h4.2V180.9z M443.6,175.3h-4.1v-1.2h4.1V175.3z M442.2,182.8h-1.4v1.6h1.4V182.8z M446.2,180.9
			c0.3,0.7,0.8,1.3,1.3,1.8c0.5-0.5,1-1.1,1.3-1.8H446.2z"/>
		<path class="st2" d="M458,177.2h-5.6v-1.3h5.6V177.2z M457.4,185.6h-3v0.5H453v-4.6h4.4V185.6z M453,177.8h4.4v1.2H453V177.8z
			 M453,179.6h4.4v1.2H453V179.6z M457.4,175.3h-4.3v-1.2h4.3V175.3z M454.4,182.8v1.6h1.6v-1.6H454.4z M465.2,179.8h-2.8v6.6h-1.6
			v-6.6H458v-1.6h2.8v-4.5h1.6v4.5h2.8L465.2,179.8L465.2,179.8z"/>
	</g>
	<g class="st1">
		<path class="st2" d="M247.8,213.5l2-2.7c1.3,1.3,2.9,2.2,4.8,2.2c2.2,0,3.7-1.1,3.7-2.9c0-2.1-1.3-3.3-6-3.3v-3.1
			c4,0,5.3-1.3,5.3-3.1c0-1.6-1.1-2.6-2.9-2.6c-1.6,0-2.8,0.7-4.1,1.9l-2.2-2.6c1.9-1.6,4-2.7,6.5-2.7c4.2,0,7,2.1,7,5.7
			c0,2.3-1.3,3.9-3.6,4.8v0.1c2.4,0.6,4.3,2.4,4.3,5.2c0,3.9-3.5,6.1-7.6,6.1C251.6,216.6,249.3,215.3,247.8,213.5z"/>
		<path class="st2" d="M265.8,214.1l2.3-2.6c0.8,0.9,2.1,1.6,3.3,1.6c2.5,0,4.5-1.8,4.7-7.3c-1.2,1.5-3.1,2.4-4.5,2.4
			c-3.6,0-6.2-2.1-6.2-6.5c0-4.3,3.1-7,6.8-7c4.1,0,7.8,3.1,7.8,10.4c0,8.1-4,11.6-8.4,11.6C269.1,216.6,267.1,215.4,265.8,214.1z
			 M272.6,205.1c1.1,0,2.5-0.7,3.5-2.3c-0.4-3.6-1.9-4.9-3.7-4.9c-1.6,0-2.9,1.2-2.9,3.8C269.4,204,270.6,205.1,272.6,205.1z"/>
	</g>
	<g class="st1">
		<path class="st2" d="M282.4,206.6c0-2.2,1.1-3.4,2.7-3.4s2.7,1.2,2.7,3.4s-1.1,3.5-2.7,3.5C283.5,210,282.4,208.7,282.4,206.6z
			 M286.2,206.6c0-1.6-0.5-2.2-1.1-2.2s-1.1,0.6-1.1,2.2c0,1.6,0.5,2.2,1.1,2.2S286.2,208.2,286.2,206.6z M291.4,203.1h1.3
			l-5.9,11.3h-1.3L291.4,203.1z M290.4,211c0-2.2,1.1-3.4,2.7-3.4s2.7,1.3,2.7,3.4c0,2.2-1.1,3.5-2.7,3.5S290.4,213.1,290.4,211z
			 M294.2,211c0-1.6-0.5-2.2-1.1-2.2s-1.1,0.6-1.1,2.2c0,1.6,0.5,2.2,1.1,2.2S294.2,212.5,294.2,211z"/>
	</g>
	<g class="st1">
		<path class="st2" d="M335.5,213.5l2-2.7c1.3,1.3,2.9,2.2,4.8,2.2c2.2,0,3.7-1.1,3.7-2.9c0-2.1-1.3-3.3-6-3.3v-3.1
			c4,0,5.3-1.3,5.3-3.1c0-1.6-1.1-2.6-2.9-2.6c-1.6,0-2.8,0.7-4.1,1.9l-2.2-2.6c1.9-1.6,4-2.7,6.5-2.7c4.2,0,7,2.1,7,5.7
			c0,2.3-1.3,3.9-3.6,4.8v0.1c2.4,0.6,4.3,2.4,4.3,5.2c0,3.9-3.5,6.1-7.6,6.1C339.3,216.6,337,215.3,335.5,213.5z"/>
		<path class="st2" d="M353.3,205.5c0-7.2,2.9-10.9,7.4-10.9s7.3,3.8,7.3,10.9c0,7.2-2.9,11.1-7.3,11.1
			C356.2,216.6,353.3,212.7,353.3,205.5z M363.9,205.5c0-5.9-1.4-7.5-3.3-7.5s-3.3,1.6-3.3,7.5s1.4,7.7,3.3,7.7
			S363.9,211.4,363.9,205.5z"/>
	</g>
	<g class="st1">
		<path class="st2" d="M370.1,206.6c0-2.2,1.1-3.4,2.7-3.4s2.7,1.2,2.7,3.4s-1.1,3.5-2.7,3.5C371.2,210,370.1,208.7,370.1,206.6z
			 M373.9,206.6c0-1.6-0.5-2.2-1.1-2.2s-1.1,0.6-1.1,2.2c0,1.6,0.5,2.2,1.1,2.2S373.9,208.2,373.9,206.6z M379.1,203.1h1.3
			l-5.9,11.3h-1.3L379.1,203.1z M378.1,211c0-2.2,1.1-3.4,2.7-3.4s2.7,1.3,2.7,3.4c0,2.2-1.1,3.5-2.7,3.5S378.1,213.1,378.1,211z
			 M381.9,211c0-1.6-0.5-2.2-1.1-2.2s-1.1,0.6-1.1,2.2c0,1.6,0.5,2.2,1.1,2.2S381.9,212.5,381.9,211z"/>
	</g>
	<g class="st1">
		<path class="st2" d="M430.8,212.7h4.7v-13.2h-3.9v-2.7c2.2-0.4,3.7-1,5-1.8h3.2v17.7h4.1v3.5h-13.1L430.8,212.7L430.8,212.7z"/>
		<path class="st2" d="M456.9,198.6h-9.8V195h14.4v2.6c-4.9,6-5.7,10.3-6.1,18.5H451C451.5,208.8,452.8,204.2,456.9,198.6z"/>
	</g>
	<g class="st1">
		<path class="st2" d="M461.2,206.6c0-2.2,1.1-3.4,2.7-3.4s2.7,1.2,2.7,3.4s-1.1,3.5-2.7,3.5C462.3,210,461.2,208.7,461.2,206.6z
			 M465,206.6c0-1.6-0.5-2.2-1.1-2.2s-1.1,0.6-1.1,2.2c0,1.6,0.5,2.2,1.1,2.2S465,208.2,465,206.6z M470.2,203.1h1.3l-5.9,11.3h-1.3
			L470.2,203.1z M469.2,211c0-2.2,1.1-3.4,2.7-3.4s2.7,1.3,2.7,3.4c0,2.2-1.1,3.5-2.7,3.5C470.3,214.4,469.2,213.1,469.2,211z
			 M473,211c0-1.6-0.5-2.2-1.1-2.2s-1.1,0.6-1.1,2.2c0,1.6,0.5,2.2,1.1,2.2S473,212.5,473,211z"/>
	</g>
	<g class="st1">
		<path class="st2" d="M528.2,214.1l2.3-2.6c0.8,0.9,2.1,1.6,3.3,1.6c2.5,0,4.5-1.8,4.7-7.3c-1.2,1.5-3.1,2.4-4.5,2.4
			c-3.6,0-6.2-2.1-6.2-6.5c0-4.3,3.1-7,6.8-7c4.1,0,7.8,3.1,7.8,10.4c0,8.1-4,11.6-8.4,11.6C531.4,216.6,529.5,215.4,528.2,214.1z
			 M534.9,205.1c1.1,0,2.5-0.7,3.5-2.3c-0.4-3.6-1.9-4.9-3.7-4.9c-1.6,0-2.9,1.2-2.9,3.8C531.8,204,533,205.1,534.9,205.1z"/>
	</g>
	<g class="st1">
		<path class="st2" d="M544.9,206.6c0-2.2,1.1-3.4,2.7-3.4c1.6,0,2.7,1.2,2.7,3.4s-1.1,3.5-2.7,3.5C546,210,544.9,208.7,544.9,206.6
			z M548.7,206.6c0-1.6-0.5-2.2-1.1-2.2s-1.1,0.6-1.1,2.2c0,1.6,0.5,2.2,1.1,2.2S548.7,208.2,548.7,206.6z M553.8,203.1h1.3
			l-5.9,11.3h-1.3L553.8,203.1z M552.8,211c0-2.2,1.1-3.4,2.7-3.4s2.7,1.3,2.7,3.4c0,2.2-1.1,3.5-2.7,3.5S552.8,213.1,552.8,211z
			 M556.6,211c0-1.6-0.5-2.2-1.1-2.2s-1.1,0.6-1.1,2.2c0,1.6,0.5,2.2,1.1,2.2S556.6,212.5,556.6,211z"/>
	</g>
	<g class="st1">
		<path class="st2" d="M619.4,213.6l2-2.8c1.2,1.2,2.8,2.2,4.8,2.2c2.3,0,3.8-1.3,3.8-3.7c0-2.3-1.5-3.7-3.7-3.7
			c-1.3,0-2,0.3-3.3,1.1l-2-1.3l0.6-10.6h11.6v3.6h-7.9l-0.4,4.6c0.9-0.4,1.6-0.6,2.6-0.6c3.6,0,6.7,2.1,6.7,6.6
			c0,4.7-3.6,7.4-7.6,7.4C623.3,216.6,621,215.2,619.4,213.6z"/>
	</g>
	<g class="st1">
		<path class="st2" d="M636.8,206.6c0-2.2,1.1-3.4,2.7-3.4c1.6,0,2.7,1.2,2.7,3.4s-1.1,3.5-2.7,3.5
			C637.9,210,636.8,208.7,636.8,206.6z M640.6,206.6c0-1.6-0.5-2.2-1.1-2.2s-1.1,0.6-1.1,2.2c0,1.6,0.5,2.2,1.1,2.2
			S640.6,208.2,640.6,206.6z M645.8,203.1h1.3l-5.9,11.3h-1.3L645.8,203.1z M644.7,211c0-2.2,1.1-3.4,2.7-3.4c1.6,0,2.7,1.3,2.7,3.4
			c0,2.2-1.1,3.5-2.7,3.5C645.9,214.4,644.7,213.1,644.7,211z M648.5,211c0-1.6-0.5-2.2-1.1-2.2s-1.1,0.6-1.1,2.2
			c0,1.6,0.5,2.2,1.1,2.2C648.1,213.2,648.5,212.5,648.5,211z"/>
	</g>
	<g class="st1">
		<path class="st2" d="M513.5,181.8c-0.1,1.3-0.4,2.6-0.8,3.5c-0.3-0.2-0.9-0.5-1.2-0.6c0.4-0.8,0.6-2,0.7-3.2L513.5,181.8z
			 M515.1,180.7v5.7h-1.4v-5.5l-1.8,0.2l-0.2-1.4l1-0.1c0.2-0.3,0.4-0.5,0.6-0.8c-0.4-0.6-1-1.3-1.6-1.9l0.8-1.1
			c0.1,0.1,0.2,0.2,0.3,0.3c0.4-0.8,0.8-1.6,1-2.4l1.4,0.5c-0.5,0.9-1,2-1.5,2.8c0.1,0.2,0.3,0.4,0.4,0.5c0.5-0.8,0.9-1.5,1.2-2.2
			l1.3,0.6c-0.7,1.1-1.7,2.5-2.5,3.6l1.2-0.1c-0.1-0.3-0.3-0.6-0.4-0.9l1.1-0.5c0.5,0.9,1.1,2.1,1.3,2.9l-1.2,0.6
			c-0.1-0.3-0.1-0.5-0.2-0.9L515.1,180.7z M516.3,181.6c0.3,0.7,0.5,1.5,0.7,2.2c0.1-0.4,0.2-0.9,0.3-1.4l1.3,0.2
			c-0.1,1.1-0.5,2.4-1,3.2l-1.3-0.6c0.2-0.3,0.4-0.7,0.5-1.1l-1,0.3c-0.1-0.7-0.4-1.7-0.7-2.6L516.3,181.6z M520,174.2
			c-0.5,1.4-1.4,2.7-2.3,3.5c-0.3-0.3-0.9-0.8-1.3-1c0.9-0.7,1.6-1.8,2-2.9L520,174.2z M522.8,180.9c-0.1-0.3-0.3-0.6-0.4-1
			c-1.8,0.1-3.6,0.3-5,0.4l-0.3-1.5c0.4,0,0.9,0,1.4-0.1c0.3-0.9,0.7-2,0.9-2.8l1.6,0.4c-0.3,0.8-0.7,1.6-1,2.4l1.6-0.1
			c-0.2-0.3-0.4-0.6-0.6-0.8l1.2-0.6c0.7,0.9,1.5,2.1,1.9,3L522.8,180.9z M523,182.1c0.7,1,1.4,2.2,1.6,3.1l-1.3,0.7
			c-0.1-0.4-0.3-1-0.5-1.5c-0.1,1.6-0.5,2-1.4,2h-1.1c-1.2,0-1.5-0.4-1.5-1.8v-2.5h1.5v2.5c0,0.4,0,0.4,0.3,0.4h0.6
			c0.2,0,0.3-0.2,0.3-1.3c0.3,0.2,0.8,0.5,1.3,0.6c-0.3-0.5-0.6-1.1-0.9-1.5L523,182.1z M519.8,180.2c0.9,0.4,1.8,1.1,2.3,1.7
			l-1.1,1c-0.5-0.6-1.4-1.4-2.3-1.8L519.8,180.2z M522.3,173.8c0.5,0.9,1.5,1.9,2.3,2.5c-0.4,0.3-0.9,0.8-1.1,1.2
			c-0.9-0.8-1.9-2.1-2.5-3.2L522.3,173.8z"/>
		<path class="st2" d="M537.1,176.3c-0.4,0.8-0.8,1.4-1.4,2c0.7,0.4,1.6,0.6,2.5,0.8c-0.4,0.3-0.8,1-1,1.4c-1-0.3-2-0.7-2.8-1.2
			c-0.8,0.5-1.7,0.9-2.8,1.1c-0.1-0.1-0.2-0.4-0.4-0.6c-0.2,0.8-0.4,1.7-0.7,2.3l-1.1-0.5c0.1-0.5,0.3-1.2,0.4-1.9h-0.7v4.8
			c0,0.7-0.1,1.2-0.6,1.4c-0.5,0.3-1.1,0.3-1.9,0.3c0-0.4-0.3-1.1-0.5-1.5c0.5,0,1,0,1.2,0s0.2,0,0.2-0.2v-2.9c-0.5,1-1,1.9-1.7,2.5
			c-0.1-0.5-0.5-1.1-0.7-1.6c0.7-0.7,1.5-1.7,1.9-2.8h-1.7v-1.4h3.1c-0.8-0.5-1.8-1-2.6-1.3l1-1c0.3,0.1,0.7,0.3,1.1,0.4
			c0.3-0.3,0.6-0.6,0.9-0.9h-3.3v-1.4h4.4l0.2-0.1l1,0.7c-0.5,0.8-1.2,1.6-2,2.2c0.4,0.2,0.7,0.4,1,0.6l-0.7,0.7h0.7l0.2-0.1l1,0.3
			l-0.1,0.3c0.6-0.2,1.2-0.4,1.7-0.6c-0.4-0.3-0.7-0.7-1-1.1c-0.2,0.2-0.4,0.4-0.6,0.6c-0.3-0.3-0.9-0.7-1.3-0.9
			c1.1-0.8,2.1-2,2.6-3.2l1.5,0.4c-0.1,0.3-0.3,0.6-0.5,1h4v1.3L537.1,176.3L537.1,176.3z M537.7,181.2c0,0,0,0.4-0.1,0.6
			c-0.2,2.4-0.5,3.4-0.9,3.8c-0.3,0.3-0.6,0.4-1,0.5c-0.3,0-0.9,0.1-1.5,0c0-0.5-0.2-1.1-0.4-1.5c0.5,0.1,1,0.1,1.2,0.1
			s0.3,0,0.4-0.1c0.2-0.2,0.4-0.8,0.5-2h-1.6c-0.5,1.6-1.4,2.9-3.6,3.8c-0.2-0.4-0.6-1-0.9-1.3c1.6-0.6,2.4-1.5,2.8-2.5H531v-1.3h2
			c0.1-0.4,0.1-0.8,0.1-1.2h1.6c0,0.4-0.1,0.8-0.1,1.2h3.1L537.7,181.2L537.7,181.2z M533.3,176.3c0.3,0.4,0.7,0.8,1.1,1.2
			c0.4-0.3,0.7-0.7,0.9-1.2H533.3z"/>
		<path class="st2" d="M540.8,181.8c-0.1,1.3-0.4,2.6-0.8,3.5c-0.3-0.2-0.9-0.5-1.2-0.6c0.4-0.8,0.6-2,0.7-3.2L540.8,181.8z
			 M551.3,174.7c-0.5,1.4-1.3,2.6-2.2,3.5c0.8,0.5,1.8,0.8,2.8,1c-0.3,0.3-0.8,0.9-1,1.3c-1.1-0.3-2.2-0.8-3-1.4
			c-0.9,0.6-2,1.1-3.1,1.4c-0.2-0.4-0.5-1-0.9-1.3c0.3,0.6,0.5,1.2,0.6,1.6l-1.1,0.5c0-0.2-0.1-0.4-0.2-0.7l-0.7,0.1v5.6H541v-5.5
			l-2,0.1l-0.1-1.4h1c0.2-0.3,0.4-0.6,0.6-0.9c-0.4-0.6-1-1.3-1.6-1.9l0.8-1.1c0.1,0.1,0.2,0.2,0.3,0.3c0.4-0.8,0.8-1.6,1-2.4
			l1.4,0.5c-0.5,0.9-1,2-1.5,2.7c0.2,0.2,0.3,0.4,0.5,0.5c0.5-0.8,0.9-1.5,1.2-2.2l1.3,0.6c-0.7,1.2-1.7,2.6-2.5,3.7l1.3-0.1
			c-0.1-0.3-0.3-0.7-0.5-1l1.1-0.4c0.2,0.4,0.4,0.8,0.6,1.3c1-0.3,1.9-0.6,2.7-1.1c-0.6-0.6-1.2-1.4-1.6-2.2l0.9-0.3h-1.6v-1.4h5.6
			l0.3-0.1L551.3,174.7z M543.6,181.5c0.3,0.8,0.7,1.8,0.8,2.5l-1.2,0.4c-0.1-0.7-0.5-1.7-0.8-2.5L543.6,181.5z M548.7,184.6h3v1.4
			H544v-1.4h3.1V183h-2.3v-1.4h2.3V180h1.6v1.6h2.4v1.4h-2.4L548.7,184.6L548.7,184.6z M546.5,175.7c0.3,0.6,0.8,1.1,1.3,1.6
			c0.5-0.5,1-1,1.3-1.6H546.5z"/>
		<path class="st2" d="M557.3,183.6c-1.5,0.5-3.1,1-4.4,1.5l-0.4-1.6c0.5-0.1,1-0.3,1.7-0.5v-3.2h-1.4v-1.5h1.4v-2.4h-1.5v-1.5h4.5
			v1.5h-1.5v2.4h1.2v1.5h-1.2v2.7c0.4-0.1,0.9-0.3,1.3-0.4L557.3,183.6z M565.4,184.5v1.5h-8.8v-1.5h3.8v-1.3h-2.8v-1.5h2.8v-1.2
			h-2.7v-6.3h7.1v6.3h-2.7v1.2h2.9v1.5h-2.9v1.3H565.4z M559.1,176.7h1.4v-1.1h-1.4V176.7z M559.1,179.2h1.4V178h-1.4V179.2z
			 M563.3,175.6H562v1.1h1.3V175.6z M563.3,178H562v1.2h1.3V178z"/>
	</g>
	<g class="st1">
		<path class="st2" d="M630.7,175.8v2.9h-1.6v-1.5h-8.5v1.5h-1.5v-2.9h1.7c-0.2-0.4-0.6-0.9-0.9-1.3l1.4-0.6c0.4,0.5,1,1.2,1.2,1.7
			l-0.4,0.2h2.1c-0.2-0.5-0.6-1.2-0.9-1.7l1.4-0.5c0.4,0.5,0.8,1.3,1,1.8l-1,0.4h2.2c0.4-0.6,1-1.4,1.2-2.1l1.7,0.5
			c-0.4,0.5-0.8,1.1-1.2,1.5h2.1V175.8z M625.6,181.1c-0.1,0.3-0.2,0.6-0.4,0.8h4.5v4.4h-1.6v-0.5h-6.4v0.5h-1.5V182h3.4
			c0.1-0.3,0.1-0.6,0.2-0.8h-2.5v-3.3h7.1v3.3L625.6,181.1L625.6,181.1z M628.2,183.4h-6.4v1.2h6.4V183.4z M622.9,179.9h4v-1h-4
			V179.9z"/>
		<path class="st2" d="M640.6,183.3c1.2,0.7,2.7,1.2,4.3,1.5c-0.4,0.4-0.8,1-1.1,1.5c-1.7-0.4-3.3-1.2-4.6-2.3v2.5h-1.6V184
			c-1.3,1-2.9,1.8-4.6,2.2c-0.2-0.4-0.7-1-1-1.3c1.5-0.3,3.1-0.9,4.3-1.6h-3.9V182h5.2v-0.6h-3.9v-1.2h3.9v-0.6H633v-1.3h2.6
			c-0.1-0.3-0.3-0.8-0.5-1.1h0.2h-2.8v-1.3h1.8c-0.2-0.5-0.5-1.2-0.8-1.7l1.4-0.5c0.4,0.6,0.8,1.4,1,1.9l-0.7,0.2h1.2v-2.2h1.5v2.2
			h1v-2.2h1.5v2.2h1.2l-0.5-0.1c0.3-0.6,0.7-1.4,0.9-2l1.7,0.4c-0.4,0.6-0.7,1.2-1.1,1.7h1.8v1.3H642c-0.2,0.4-0.4,0.8-0.6,1.1h2.7
			v1.3h-4.7v0.6h4.1v1.2h-4.1v0.6h5.3v1.3h-4.1L640.6,183.3L640.6,183.3z M636.9,177.2c0.2,0.4,0.4,0.8,0.5,1h-0.2h2.5
			c0.2-0.3,0.3-0.7,0.5-1.1h-3.3V177.2z"/>
	</g>
	<g class="st1">
		<path class="st2" d="M340.9,184.1c1.4,0.5,3,1.1,3.9,1.6l-1.9,0.7c-0.8-0.5-2.2-1.1-3.5-1.6l1.2-0.7h-4l1.2,0.5
			c-1.1,0.7-2.9,1.4-4.3,1.8c-0.3-0.3-0.9-0.9-1.2-1.2c1.3-0.2,2.8-0.7,3.7-1.1h-2v-5.5h2.8c-0.2-0.3-0.4-0.7-0.6-0.9v0.1
			c-1.2,0.3-2.4,0.7-3.5,1l-0.6-1.4c1-0.2,2.5-0.5,3.9-0.9l0.1,1.2c2.2-0.4,2.9-0.9,3.2-1.9h-1c-0.3,0.4-0.7,0.7-1.1,1.1
			c-0.3-0.3-0.8-0.6-1.2-0.8c1-0.7,1.6-1.6,2-2.4l1.4,0.2c-0.1,0.2-0.2,0.4-0.4,0.7h4h0.2l1.1,0.3c-0.4,0.7-0.8,1.6-1.3,2.1
			l-1.3-0.4c0.2-0.2,0.4-0.5,0.5-0.7h-1.5c0.3,0.9,1.1,1.6,3.8,1.9c-0.3,0.3-0.7,0.9-0.8,1.3c-0.3-0.1-0.6-0.1-0.9-0.2v5.3h-1.9
			L340.9,184.1L340.9,184.1z M335.8,176c-0.6-0.3-1.9-0.8-2.8-1.1l0.7-1.1c0.9,0.2,2.2,0.7,2.9,1L335.8,176z M335.8,180.1h5.9v-0.6
			h-5.9V180.1z M335.8,181.6h5.9V181h-5.9V181.6z M335.8,183.1h5.9v-0.6h-5.9V183.1z M342.5,178.5c-1-0.4-1.7-0.9-2.1-1.5
			c-0.5,0.6-1.2,1.1-2.5,1.5H342.5z"/>
		<path class="st2" d="M351,181.8c-0.3-0.4-0.7-1-1.2-1.6v6.2h-1.6v-5.3c-0.5,1.2-1,2.3-1.7,3.1c-0.2-0.5-0.5-1.2-0.8-1.6
			c1-1.1,1.8-2.9,2.3-4.5h-1.9v-1.5h2.1v-2.8h1.6v2.8h1.7v1.5h-1.7v0.4c0.5,0.5,1.8,1.8,2.1,2.1L351,181.8z M358.6,178h-1.3v6.4
			c0,0.9-0.2,1.4-0.8,1.6c-0.5,0.3-1.4,0.3-2.6,0.3c-0.1-0.5-0.3-1.2-0.5-1.6c0.7,0,1.6,0,1.8,0c0.2,0,0.3-0.1,0.3-0.3v-4.1
			c-1,1.6-2.3,3.1-3.6,4.1c-0.3-0.4-0.7-1-1.2-1.3c1.7-1.1,3.3-3.1,4.3-5h-3.1v-1.5h3.6v-2.8h1.7v2.8h1.3v1.4L358.6,178L358.6,178z"
			/>
		<path class="st2" d="M362.2,183.3c-0.4,1.1-1,2.3-1.6,3.1c-0.3-0.2-0.9-0.6-1.2-0.8c0.6-0.6,1.1-1.6,1.4-2.6L362.2,183.3z
			 M364.3,182.9h-4.1v-8.8h4.1V182.9z M362.9,175.4h-1.3v1.3h1.3V175.4z M362.9,177.9h-1.3v1.3h1.3V177.9z M362.9,180.4h-1.3v1.3
			h1.3V180.4z M363.6,183c0.4,0.7,1,1.6,1.2,2.2l-1.3,0.6c-0.2-0.6-0.7-1.6-1.1-2.3L363.6,183z M372.2,184.2h-0.6v0.7
			c0,0.7-0.1,1-0.6,1.2c-0.4,0.2-1.1,0.2-2,0.2c-0.1-0.4-0.2-0.9-0.4-1.3c0.5,0,1.1,0,1.3,0c0.2,0,0.2-0.1,0.2-0.2v-0.7h-3.5v2.2
			h-1.4v-2.2h-0.7V183h0.7v-3.4h2.5v-0.5h-3.1V178h1.7v-0.5h-1.2v-1.1h1.2v-0.5h-1.5v-1.1h1.5v-1h1.4v1h1.4v-1h1.4v1h1.5v1.1h-1.5
			v0.5h1.3v1.1h-1.3v0.5h1.7v1.1H369v0.5h2.5v3.4h0.6v1.2H372.2z M366.6,180.7v0.6h1v-0.6H366.6z M366.6,183h1v-0.7h-1V183z
			 M367.6,176.3h1.4v-0.5h-1.4V176.3z M367.6,177.9h1.4v-0.5h-1.4V177.9z M369,180.7v0.6h1.1v-0.6H369z M370.1,183v-0.7H369v0.7
			H370.1z"/>
		<path class="st2" d="M381.9,184.1c1.4,0.5,3,1.1,4,1.5l-1.8,0.8c-0.8-0.5-2.3-1.1-3.8-1.6l1.1-0.7h-3.8l1.2,0.5
			c-1.1,0.7-2.9,1.4-4.3,1.8c-0.3-0.3-0.9-0.9-1.2-1.2c1.3-0.2,2.8-0.7,3.8-1.1H375v-6h9.3v6H381.9z M384.9,177.5h-10.8v-3.4h10.8
			V177.5z M377.3,175.4h-1.6v0.9h1.6V175.4z M376.5,179.8h6v-0.7h-6V179.8z M376.5,181.4h6v-0.7h-6V181.4z M376.5,183.1h6v-0.7h-6
			V183.1z M380.3,175.4h-1.6v0.9h1.6V175.4z M383.4,175.4h-1.7v0.9h1.7V175.4z"/>
	</g>
	<path class="st4" d="M789.8,147.6l-57.1-61.3c16-14.9,35.3-22.5,57.1-22.5V147.6z"/>
	<path class="st5" d="M789.8,147.6l-56.1,62.3c-34.4-31-37.2-83.9-6.2-118.3c1.6-1.8,3.4-3.6,5.1-5.2L789.8,147.6L789.8,147.6z"/>
	<path class="st6" d="M789.8,147.6l77.1,32.7c-18.1,42.6-67.3,62.5-109.9,44.4c-12.8-3.6-16.7-8.3-23.3-14.9L789.8,147.6z"/>
	<path class="st7" d="M789.8,147.6l80.9-21.7c5,18.8,3.8,36.5-3.8,54.4L789.8,147.6L789.8,147.6z"/>
	<path class="st8" d="M789.8,147.6V63.8c39.1,0,70.8,24.4,80.9,62.1L789.8,147.6z"/>
	<g class="st1">
		<path class="st2" d="M806.6,109.4c0-2.1,0.9-3.8,2.2-5.2l0.7,0.3c-1.2,1.3-2,2.9-2,4.8s0.8,3.5,2,4.8l-0.7,0.3
			C807.5,113.3,806.6,111.6,806.6,109.4z"/>
		<path class="st2" d="M810,113c2.5-2.2,3.7-3.8,3.7-5.1c0-0.9-0.5-1.6-1.5-1.6c-0.7,0-1.2,0.4-1.7,0.9l-0.6-0.6
			c0.7-0.7,1.3-1.2,2.3-1.2c1.4,0,2.3,0.9,2.3,2.4c0,1.6-1.2,3.2-3.1,5c0.4,0,0.9-0.1,1.3-0.1h2.2v0.9h-5L810,113L810,113z"/>
		<path class="st2" d="M816.5,112.7h1.8v-5.9h-1.4v-0.6c0.7-0.1,1.2-0.3,1.7-0.6h0.8v7.1h1.6v0.8h-4.4L816.5,112.7L816.5,112.7z"/>
		<path class="st2" d="M822.4,113c0-0.4,0.3-0.8,0.7-0.8s0.7,0.3,0.7,0.8s-0.3,0.8-0.7,0.8C822.7,113.7,822.4,113.4,822.4,113z"/>
		<path class="st2" d="M825.5,112.7h1.8v-5.9h-1.4v-0.6c0.7-0.1,1.2-0.3,1.7-0.6h0.8v7.1h1.6v0.8h-4.4L825.5,112.7L825.5,112.7z"/>
		<path class="st2" d="M831.5,107.8c0-1.6,0.7-2.5,1.8-2.5s1.8,0.9,1.8,2.5s-0.7,2.5-1.8,2.5S831.5,109.4,831.5,107.8z M834.3,107.8
			c0-1.3-0.4-1.9-1.1-1.9c-0.6,0-1.1,0.6-1.1,1.9s0.4,1.9,1.1,1.9C833.9,109.7,834.3,109.1,834.3,107.8z M837.9,105.3h0.7l-4.4,8.3
			h-0.7L837.9,105.3z M837,111c0-1.6,0.7-2.5,1.8-2.5s1.8,0.9,1.8,2.5s-0.7,2.5-1.8,2.5C837.7,113.6,837,112.7,837,111z M839.9,111
			c0-1.3-0.4-1.9-1.1-1.9c-0.6,0-1.1,0.6-1.1,1.9s0.4,1.9,1.1,1.9C839.5,113,839.9,112.3,839.9,111z"/>
	</g>
	<g class="st1">
		<path class="st2" d="M849.2,109.4c0,2.1-0.9,3.8-2.2,5.2l-0.7-0.3c1.2-1.3,2-2.9,2-4.8s-0.8-3.5-2-4.8l0.7-0.3
			C848.3,105.6,849.2,107.3,849.2,109.4z"/>
	</g>
	<g class="st1">
		<path class="st2" d="M811.4,96c4.5-4.3,7.5-7.3,7.5-9.8c0-1.7-0.9-2.7-2.6-2.7c-1.3,0-2.3,0.8-3.2,1.8l-1.9-1.9
			c1.6-1.7,3.1-2.6,5.5-2.6c3.3,0,5.5,2.1,5.5,5.3c0,2.9-2.7,6-5.8,9.2c0.9-0.1,2-0.2,2.8-0.2h3.8V98h-11.6V96z"/>
		<path class="st2" d="M824.9,89.5c0-5.7,2.3-8.7,5.9-8.7s5.8,3,5.8,8.7s-2.3,8.8-5.8,8.8S824.9,95.2,824.9,89.5z M833.4,89.5
			c0-4.7-1.1-6-2.6-6s-2.6,1.3-2.6,6s1.1,6.2,2.6,6.2S833.4,94.2,833.4,89.5z"/>
	</g>
	<g class="st1">
		<path class="st2" d="M843.8,86c-0.3,0.8-0.8,1.6-1.2,2.5v9.4h-1.7v-7c-0.5,0.6-0.9,1.1-1.4,1.5c-0.1-0.4-0.6-1.2-0.9-1.6
			c1.4-1.2,2.8-3.2,3.6-5.2L843.8,86z M847.4,90.8c0.4,3,1.1,4.9,2.2,5.1c0.3,0,0.5-0.6,0.6-2.1c0.3,0.3,1,0.7,1.3,0.9
			c-0.3,2.6-1.1,3.2-1.8,3.2c-2.3-0.2-3.3-2.7-3.8-6.8l-2.6,0.4l-0.2-1.5l2.7-0.4c-0.1-1.2-0.2-2.5-0.2-3.9h1.6
			c0,1.3,0.1,2.6,0.2,3.7l3.8-0.5l0.2,1.5L847.4,90.8z M849.8,88.5c-0.3-0.6-1.1-1.6-1.8-2.2l1.2-0.7c0.7,0.6,1.5,1.5,1.9,2.2
			L849.8,88.5z"/>
	</g>
	<g class="st1">
		<path class="st2" d="M840.9,175.4c0-2.1,0.9-3.8,2.2-5.2l0.7,0.3c-1.2,1.3-2,2.9-2,4.8c0,1.9,0.8,3.5,2,4.8l-0.7,0.3
			C841.7,179.3,840.9,177.6,840.9,175.4z"/>
		<path class="st2" d="M844.7,178.7h1.8v-5.9h-1.4v-0.6c0.7-0.1,1.2-0.3,1.7-0.6h0.8v7.1h1.6v0.8h-4.4L844.7,178.7L844.7,178.7z"/>
		<path class="st2" d="M850.3,175.6c0-2.8,1-4.1,2.5-4.1s2.5,1.3,2.5,4.1s-1,4.2-2.5,4.2C851.3,179.7,850.3,178.3,850.3,175.6z
			 M854.3,175.6c0-2.3-0.6-3.3-1.5-3.3s-1.5,1-1.5,3.3s0.6,3.4,1.5,3.4C853.7,178.9,854.3,177.9,854.3,175.6z"/>
		<path class="st2" d="M856.6,179c0-0.4,0.3-0.8,0.7-0.8s0.7,0.3,0.7,0.8s-0.3,0.8-0.7,0.8C856.9,179.7,856.6,179.4,856.6,179z"/>
		<path class="st2" d="M859.1,178.7l0.5-0.7c0.5,0.5,1,0.9,2,0.9c0.9,0,1.7-0.7,1.7-1.9c0-1.1-0.7-1.8-1.7-1.8
			c-0.5,0-0.9,0.2-1.3,0.5l-0.5-0.3l0.2-3.7h3.9v0.8h-3l-0.2,2.3c0.3-0.2,0.7-0.3,1.2-0.3c1.3,0,2.4,0.8,2.4,2.5s-1.3,2.7-2.6,2.7
			C860.4,179.7,859.7,179.2,859.1,178.7z"/>
		<path class="st2" d="M865.7,173.8c0-1.6,0.7-2.5,1.8-2.5s1.8,0.9,1.8,2.5s-0.7,2.5-1.8,2.5S865.7,175.4,865.7,173.8z M868.6,173.8
			c0-1.3-0.4-1.9-1.1-1.9c-0.6,0-1.1,0.6-1.1,1.9c0,1.3,0.4,1.9,1.1,1.9C868.2,175.7,868.6,175.1,868.6,173.8z M872.2,171.3h0.7
			l-4.4,8.3h-0.7L872.2,171.3z M871.3,177c0-1.6,0.7-2.5,1.8-2.5s1.8,0.9,1.8,2.5s-0.7,2.5-1.8,2.5C872,179.6,871.3,178.7,871.3,177
			z M874.1,177c0-1.3-0.4-1.9-1.1-1.9c-0.6,0-1.1,0.6-1.1,1.9s0.4,1.9,1.1,1.9C873.7,179,874.1,178.3,874.1,177z"/>
	</g>
	<g class="st1">
		<path class="st2" d="M883.4,175.4c0,2.1-0.9,3.8-2.2,5.2l-0.7-0.3c1.2-1.3,2-2.9,2-4.8c0-1.9-0.8-3.5-2-4.8l0.7-0.3
			C882.6,171.6,883.4,173.3,883.4,175.4z"/>
	</g>
	<g class="st1">
		<path class="st2" d="M845.2,161.9l1.6-2.2c1,1,2.3,1.8,3.9,1.8c1.8,0,2.9-0.8,2.9-2.3c0-1.6-1-2.6-4.8-2.6v-2.5
			c3.2,0,4.2-1.1,4.2-2.5c0-1.3-0.8-2.1-2.3-2.1c-1.2,0-2.2,0.6-3.3,1.5l-1.8-2.1c1.5-1.3,3.2-2.2,5.2-2.2c3.3,0,5.6,1.6,5.6,4.5
			c0,1.8-1.1,3.1-2.9,3.8v0.1c1.9,0.5,3.4,1.9,3.4,4.2c0,3.1-2.8,4.9-6.1,4.9C848.3,164.3,846.4,163.3,845.2,161.9z"/>
		<path class="st2" d="M859.2,155.5c0-5.7,2.3-8.7,5.9-8.7s5.8,3,5.8,8.7s-2.3,8.8-5.8,8.8S859.2,161.2,859.2,155.5z M867.6,155.5
			c0-4.7-1.1-6-2.6-6s-2.6,1.3-2.6,6s1.1,6.2,2.6,6.2S867.6,160.2,867.6,155.5z"/>
	</g>
	<g class="st1">
		<path class="st2" d="M878,152c-0.3,0.8-0.8,1.6-1.2,2.5v9.4h-1.7v-7c-0.5,0.6-0.9,1.1-1.4,1.5c-0.1-0.4-0.6-1.2-0.9-1.6
			c1.4-1.2,2.8-3.2,3.6-5.2L878,152z M881.7,156.8c0.4,3,1.1,4.9,2.2,5.1c0.3,0,0.5-0.6,0.6-2.1c0.3,0.3,1,0.7,1.3,0.9
			c-0.3,2.6-1.1,3.2-1.8,3.2c-2.3-0.2-3.3-2.7-3.8-6.8l-2.6,0.4l-0.2-1.5l2.7-0.4c-0.1-1.2-0.2-2.5-0.2-3.9h1.6
			c0,1.3,0.1,2.6,0.2,3.7l3.8-0.5l0.2,1.5L881.7,156.8z M884.1,154.5c-0.3-0.6-1.1-1.6-1.8-2.2l1.2-0.7c0.7,0.6,1.5,1.5,1.9,2.2
			L884.1,154.5z"/>
	</g>
	<g class="st1">
		<path class="st2" d="M776.5,213.9c0-2.1,0.9-3.8,2.2-5.2l0.7,0.3c-1.2,1.3-2,2.9-2,4.8c0,1.9,0.8,3.5,2,4.8l-0.7,0.3
			C777.4,217.7,776.5,216,776.5,213.9z"/>
		<path class="st2" d="M779.8,217l0.5-0.7c0.5,0.5,1.1,0.9,2,0.9s1.6-0.6,1.6-1.5c0-1-0.6-1.6-2.5-1.6v-0.8c1.6,0,2.2-0.7,2.2-1.5
			s-0.5-1.3-1.3-1.3c-0.6,0-1.2,0.3-1.7,0.8l-0.5-0.6c0.6-0.6,1.3-1,2.2-1c1.3,0,2.3,0.7,2.3,2c0,1-0.6,1.6-1.4,1.9l0,0
			c0.9,0.2,1.7,0.9,1.7,2c0,1.4-1.1,2.3-2.6,2.3C781.1,218.1,780.3,217.6,779.8,217z"/>
		<path class="st2" d="M786,214c0-2.8,1-4.1,2.5-4.1s2.5,1.3,2.5,4.1s-1,4.2-2.5,4.2C787,218.1,786,216.8,786,214z M790,214
			c0-2.3-0.6-3.3-1.5-3.3s-1.5,1-1.5,3.3s0.6,3.4,1.5,3.4C789.4,217.3,790,216.3,790,214z"/>
		<path class="st2" d="M792.3,217.4c0-0.4,0.3-0.8,0.7-0.8s0.7,0.3,0.7,0.8s-0.3,0.8-0.7,0.8C792.6,218.1,792.3,217.8,792.3,217.4z"
			/>
		<path class="st2" d="M794.8,217l0.5-0.7c0.5,0.5,1.1,0.9,2,0.9s1.6-0.6,1.6-1.5c0-1-0.6-1.6-2.5-1.6v-0.8c1.6,0,2.2-0.7,2.2-1.5
			s-0.5-1.3-1.3-1.3c-0.6,0-1.2,0.3-1.7,0.8l-0.5-0.6c0.6-0.6,1.3-1,2.2-1c1.3,0,2.3,0.7,2.3,2c0,1-0.6,1.6-1.4,1.9l0,0
			c0.9,0.2,1.7,0.9,1.7,2c0,1.4-1.1,2.3-2.6,2.3C796.1,218.1,795.3,217.6,794.8,217z"/>
		<path class="st2" d="M801.4,212.2c0-1.6,0.7-2.5,1.8-2.5s1.8,0.9,1.8,2.5s-0.7,2.5-1.8,2.5C802.1,214.8,801.4,213.8,801.4,212.2z
			 M804.3,212.2c0-1.3-0.4-1.9-1.1-1.9c-0.6,0-1.1,0.6-1.1,1.9c0,1.3,0.4,1.9,1.1,1.9C803.8,214.1,804.3,213.5,804.3,212.2z
			 M807.8,209.7h0.7l-4.4,8.3h-0.7L807.8,209.7z M807,215.5c0-1.6,0.7-2.5,1.8-2.5s1.8,0.9,1.8,2.5s-0.7,2.5-1.8,2.5
			S807,217.1,807,215.5z M809.8,215.5c0-1.3-0.4-1.9-1.1-1.9c-0.6,0-1.1,0.6-1.1,1.9s0.4,1.9,1.1,1.9
			C809.4,217.4,809.8,216.7,809.8,215.5z"/>
	</g>
	<g class="st1">
		<path class="st2" d="M819.1,213.9c0,2.1-0.9,3.8-2.2,5.2l-0.7-0.3c1.2-1.3,2-2.9,2-4.8c0-1.9-0.8-3.5-2-4.8l0.7-0.3
			C818.2,210,819.1,211.7,819.1,213.9z"/>
	</g>
	<g class="st1">
		<path class="st2" d="M788.2,198.2h-7.4v-2.4l6.5-10.3h4.1v10h2v2.6h-2v4.2h-3.2L788.2,198.2L788.2,198.2z M788.2,195.6v-3.4
			c0-1,0.1-2.6,0.1-3.6h-0.1c-0.4,0.9-0.9,1.8-1.4,2.7l-2.7,4.3H788.2z"/>
		<path class="st2" d="M794.9,193.9c0-5.7,2.3-8.7,5.9-8.7c3.6,0,5.8,3,5.8,8.7s-2.3,8.8-5.8,8.8
			C797.2,202.7,794.9,199.6,794.9,193.9z M803.3,193.9c0-4.7-1.1-6-2.6-6s-2.6,1.3-2.6,6s1.1,6.2,2.6,6.2S803.3,198.6,803.3,193.9z"
			/>
	</g>
	<g class="st1">
		<path class="st2" d="M813.7,190.4c-0.3,0.8-0.8,1.6-1.2,2.5v9.4h-1.7v-7c-0.5,0.6-0.9,1.1-1.4,1.5c-0.1-0.4-0.6-1.2-0.9-1.6
			c1.4-1.2,2.8-3.2,3.6-5.2L813.7,190.4z M817.3,195.2c0.4,3,1.1,4.9,2.2,5.1c0.3,0,0.5-0.6,0.6-2.1c0.3,0.3,1,0.7,1.3,0.9
			c-0.3,2.6-1.1,3.2-1.8,3.2c-2.3-0.2-3.3-2.7-3.8-6.8l-2.6,0.4l-0.2-1.5l2.7-0.4c-0.1-1.2-0.2-2.5-0.2-3.9h1.6
			c0,1.3,0.1,2.6,0.2,3.7l3.8-0.5l0.2,1.5L817.3,195.2z M819.7,192.9c-0.3-0.6-1.1-1.6-1.8-2.2l1.2-0.7c0.7,0.6,1.5,1.5,1.9,2.2
			L819.7,192.9z"/>
	</g>
	<g class="st1">
		<path class="st2" d="M701.3,157.1c0-2.1,0.9-3.8,2.2-5.2l0.7,0.3c-1.2,1.3-2,2.9-2,4.8c0,1.9,0.8,3.5,2,4.8l-0.7,0.3
			C702.2,160.9,701.3,159.2,701.3,157.1z"/>
		<path class="st2" d="M704.7,160.6c2.5-2.2,3.7-3.8,3.7-5.1c0-0.9-0.5-1.6-1.5-1.6c-0.7,0-1.2,0.4-1.7,0.9l-0.6-0.6
			c0.7-0.7,1.3-1.2,2.3-1.2c1.4,0,2.3,0.9,2.3,2.4c0,1.6-1.2,3.2-3.1,5c0.4,0,0.9-0.1,1.3-0.1h2.2v0.9h-5L704.7,160.6L704.7,160.6z"
			/>
		<path class="st2" d="M715.2,154.5c-0.3-0.4-0.8-0.6-1.3-0.6c-1.1,0-2,0.8-2.1,3.3c0.5-0.6,1.2-1,1.8-1c1.3,0,2.2,0.8,2.2,2.5
			c0,1.5-1,2.6-2.3,2.6c-1.5,0-2.7-1.3-2.7-3.9c0-3.1,1.4-4.3,2.9-4.3c0.8,0,1.4,0.3,1.9,0.8L715.2,154.5z M714.9,158.7
			c0-1.1-0.5-1.8-1.4-1.8c-0.5,0-1.1,0.3-1.6,1c0.1,1.7,0.7,2.6,1.7,2.6C714.3,160.6,714.9,159.8,714.9,158.7z"/>
		<path class="st2" d="M717.1,160.6c0-0.4,0.3-0.8,0.7-0.8s0.7,0.3,0.7,0.8s-0.3,0.8-0.7,0.8C717.4,161.3,717.1,161,717.1,160.6z"/>
		<path class="st2" d="M719.6,160.2l0.5-0.7c0.5,0.5,1.1,0.9,2,0.9s1.6-0.6,1.6-1.5c0-1-0.6-1.6-2.5-1.6v-0.8c1.6,0,2.2-0.7,2.2-1.5
			s-0.5-1.3-1.3-1.3c-0.6,0-1.2,0.3-1.7,0.8l-0.5-0.6c0.6-0.6,1.3-1,2.2-1c1.3,0,2.3,0.7,2.3,2c0,1-0.6,1.6-1.4,1.9l0,0
			c0.9,0.2,1.7,0.9,1.7,2c0,1.4-1.1,2.3-2.6,2.3C721,161.3,720.2,160.8,719.6,160.2z"/>
		<path class="st2" d="M726.2,155.4c0-1.6,0.7-2.5,1.8-2.5s1.8,0.9,1.8,2.5s-0.7,2.5-1.8,2.5C726.9,158,726.2,157,726.2,155.4z
			 M729.1,155.4c0-1.3-0.4-1.9-1.1-1.9s-1.1,0.6-1.1,1.9c0,1.3,0.4,1.9,1.1,1.9S729.1,156.7,729.1,155.4z M732.7,152.9h0.7l-4.4,8.3
			h-0.7L732.7,152.9z M731.8,158.7c0-1.6,0.7-2.5,1.8-2.5s1.8,0.9,1.8,2.5s-0.7,2.5-1.8,2.5S731.8,160.3,731.8,158.7z M734.6,158.7
			c0-1.3-0.4-1.9-1.1-1.9c-0.6,0-1.1,0.6-1.1,1.9s0.4,1.9,1.1,1.9C734.2,160.6,734.6,159.9,734.6,158.7z"/>
	</g>
	<g class="st1">
		<path class="st2" d="M743.9,157.1c0,2.1-0.9,3.8-2.2,5.2L741,162c1.2-1.3,2-2.9,2-4.8c0-1.9-0.8-3.5-2-4.8l0.7-0.3
			C743.1,153.2,743.9,154.9,743.9,157.1z"/>
	</g>
	<g class="st1">
		<path class="st2" d="M705.7,143.6l1.6-2.2c1,1,2.2,1.8,3.8,1.8c1.8,0,3.1-1.1,3.1-2.9c0-1.9-1.2-2.9-2.9-2.9c-1,0-1.6,0.3-2.6,0.9
			l-1.6-1l0.5-8.4h9.3v2.9h-6.3l-0.3,3.7c0.7-0.3,1.3-0.5,2.1-0.5c2.9,0,5.3,1.6,5.3,5.2c0,3.7-2.9,5.9-6.1,5.9
			C708.8,145.9,707,144.9,705.7,143.6z"/>
		<path class="st2" d="M719.7,137.1c0-5.7,2.3-8.7,5.9-8.7s5.8,3,5.8,8.7s-2.3,8.8-5.8,8.8S719.7,142.8,719.7,137.1z M728.1,137.1
			c0-4.7-1.1-6-2.6-6s-2.6,1.3-2.6,6s1.1,6.2,2.6,6.2S728.1,141.8,728.1,137.1z"/>
	</g>
	<g class="st1">
		<path class="st2" d="M738.5,133.6c-0.3,0.8-0.8,1.6-1.2,2.5v9.4h-1.7v-7c-0.5,0.6-0.9,1.1-1.4,1.5c-0.1-0.4-0.6-1.2-0.9-1.6
			c1.4-1.2,2.8-3.2,3.6-5.2L738.5,133.6z M742.2,138.4c0.4,3,1.1,4.9,2.2,5.1c0.3,0,0.5-0.6,0.6-2.1c0.3,0.3,1,0.7,1.3,0.9
			c-0.3,2.6-1.1,3.2-1.8,3.2c-2.3-0.2-3.3-2.7-3.8-6.8l-2.6,0.4l-0.2-1.5l2.7-0.4c-0.1-1.2-0.2-2.5-0.2-3.9h1.6
			c0,1.3,0.1,2.6,0.2,3.7l3.8-0.5l0.2,1.5L742.2,138.4z M744.5,136.1c-0.3-0.6-1.1-1.6-1.8-2.2l1.2-0.7c0.7,0.6,1.5,1.5,1.9,2.2
			L744.5,136.1z"/>
	</g>
	<g class="st1">
		<path class="st2" d="M740.2,100.9c0-1.8,0.7-3.3,1.8-4.4l0.6,0.3c-1.1,1.1-1.7,2.5-1.7,4.1s0.7,3,1.7,4.1l-0.6,0.3
			C740.9,104.2,740.2,102.7,740.2,100.9z"/>
		<path class="st2" d="M743.5,103.7h1.5v-5h-1.2v-0.5c0.6-0.1,1-0.3,1.4-0.5h0.6v6h1.4v0.7h-3.7V103.7z"/>
		<path class="st2" d="M748.6,103.7h1.5v-5h-1.2v-0.5c0.6-0.1,1-0.3,1.4-0.5h0.6v6h1.3v0.7h-3.7v-0.7H748.6z"/>
		<path class="st2" d="M753.6,103.9c0-0.4,0.3-0.7,0.6-0.7s0.6,0.3,0.6,0.7c0,0.4-0.3,0.6-0.6,0.6
			C753.8,104.5,753.6,104.3,753.6,103.9z"/>
		<path class="st2" d="M755.9,102.7c0-0.9,0.6-1.5,1.2-1.9l0,0c-0.5-0.3-0.9-0.8-0.9-1.6c0-1,0.8-1.7,1.8-1.7c1.1,0,1.8,0.7,1.8,1.8
			c0,0.7-0.5,1.3-0.9,1.6l0,0c0.6,0.3,1.1,0.8,1.1,1.8s-0.8,1.7-2.1,1.7C756.8,104.5,755.9,103.8,755.9,102.7z M759.3,102.7
			c0-0.9-0.8-1.2-1.8-1.6c-0.5,0.3-0.9,0.9-0.9,1.5c0,0.7,0.6,1.2,1.4,1.2C758.8,103.9,759.3,103.4,759.3,102.7z M759.2,99.4
			c0-0.7-0.4-1.2-1.1-1.2c-0.6,0-1.1,0.4-1.1,1.1c0,0.8,0.7,1.2,1.5,1.5C758.9,100.3,759.2,99.9,759.2,99.4z"/>
		<path class="st2" d="M761.3,99.5c0-1.4,0.6-2.1,1.5-2.1s1.5,0.8,1.5,2.1c0,1.4-0.6,2.1-1.5,2.1
			C761.9,101.7,761.3,100.9,761.3,99.5z M763.7,99.5c0-1.1-0.4-1.6-0.9-1.6s-0.9,0.5-0.9,1.6s0.4,1.6,0.9,1.6
			S763.7,100.6,763.7,99.5z M766.7,97.4h0.6l-3.7,7H763L766.7,97.4z M766,102.3c0-1.4,0.6-2.1,1.5-2.1s1.5,0.8,1.5,2.1
			c0,1.4-0.6,2.1-1.5,2.1S766,103.6,766,102.3z M768.4,102.3c0-1.1-0.4-1.6-0.9-1.6s-0.9,0.5-0.9,1.6s0.4,1.6,0.9,1.6
			S768.4,103.3,768.4,102.3z"/>
	</g>
	<g class="st1">
		<path class="st2" d="M776.2,100.9c0,1.8-0.7,3.3-1.8,4.4l-0.6-0.3c1.1-1.1,1.7-2.5,1.7-4.1s-0.7-3-1.7-4.1l0.6-0.3
			C775.5,97.6,776.2,99.1,776.2,100.9z"/>
	</g>
	<g class="st1">
		<path class="st2" d="M744.2,84.4c0-5.6,2.8-8,5.8-8c1.8,0,3.2,0.8,4,1.7l-1.6,1.8c-0.5-0.6-1.4-1.1-2.3-1.1c-1.7,0-3.1,1.3-3.3,5
			c0.8-1,2.1-1.6,3.1-1.6c2.5,0,4.3,1.4,4.3,4.5c0,3-2.1,4.9-4.7,4.9C746.8,91.5,744.2,89.3,744.2,84.4z M747,85.9
			c0.3,2.5,1.3,3.4,2.5,3.4c1.1,0,2-0.9,2-2.6c0-1.6-0.9-2.4-2.1-2.4C748.7,84.3,747.8,84.7,747,85.9z"/>
		<path class="st2" d="M756.1,83.9c0-4.9,2-7.5,5.1-7.5s5.1,2.6,5.1,7.5c0,5-2,7.6-5.1,7.6S756.1,88.8,756.1,83.9z M763.4,83.9
			c0-4-1-5.2-2.2-5.2s-2.3,1.1-2.3,5.2s1,5.3,2.3,5.3S763.4,88,763.4,83.9z"/>
	</g>
	<g class="st1">
		<path class="st2" d="M772.1,80.9c-0.3,0.7-0.7,1.4-1.1,2.1v8.1h-1.4V85c-0.4,0.5-0.8,0.9-1.2,1.3c-0.1-0.3-0.5-1.1-0.8-1.4
			c1.2-1.1,2.5-2.8,3.2-4.5L772.1,80.9z M775.3,85.1c0.3,2.6,0.9,4.3,1.9,4.4c0.3,0,0.4-0.6,0.5-1.8c0.3,0.3,0.9,0.6,1.1,0.8
			c-0.3,2.2-0.9,2.8-1.6,2.7c-2-0.2-2.9-2.4-3.3-5.9l-2.3,0.3l-0.2-1.3l2.3-0.3c-0.1-1-0.2-2.2-0.2-3.4h1.4c0,1.1,0.1,2.2,0.1,3.2
			l3.3-0.4l0.2,1.3L775.3,85.1z M777.4,83c-0.3-0.5-1-1.4-1.6-1.9l1-0.6c0.6,0.6,1.3,1.3,1.7,1.9L777.4,83z"/>
	</g>
	<path class="st9" d="M271.9,119.8V81.6c21.1,0,38.2,17.1,38.2,38.2c0,11.8-4.6,21.7-13.6,29.3L271.9,119.8L271.9,119.8z"/>
	<path class="st9" d="M360.1,119.8l0.7-38.2c21.1,0.4,37.9,17.8,37.5,38.9c-0.1,4.2-0.7,7.8-2.1,11.8L360.1,119.8L360.1,119.8z"/>
	<path class="st9" d="M447.7,119.9l-0.4-38.2c14.4-0.2,26.5,6.8,33.6,19.3L447.7,119.9L447.7,119.9z"/>
	<path class="st9" d="M537.1,119.9L532.7,82c7.5-0.9,14.6,0.4,21.4,3.7L537.1,119.9z"/>
	<path class="st9" d="M624.6,119.8l-2.2-38.1c4.2-0.2,7.8,0.1,11.9,1.2L624.6,119.8L624.6,119.8z"/>
	<line class="st10" x1="951.5" y1="216.7" x2="1089.4" y2="216.7"/>
	<line class="st10" x1="951.5" y1="216.7" x2="951.5" y2="213.7"/>
	<line class="st10" x1="1005.5" y1="216.7" x2="1005.5" y2="213.7"/>
	<line class="st10" x1="1047.5" y1="216.7" x2="1047.5" y2="213.7"/>
	<line class="st10" x1="1089.4" y1="216.7" x2="1089.4" y2="213.7"/>
	<g class="st1">
		<path d="M944.1,217.6c0-2.2,1-3.4,2.5-3.4s2.5,1.2,2.5,3.4s-1,3.4-2.5,3.4S944.1,219.8,944.1,217.6z M947.7,217.6
			c0-1.8-0.5-2.3-1.1-2.3s-1.1,0.5-1.1,2.3s0.5,2.4,1.1,2.4S947.7,219.4,947.7,217.6z"/>
	</g>
	<g class="st1">
		<path d="M944.1,196.3c1.9-1.7,3.2-2.8,3.2-3.8c0-0.7-0.4-1.1-1.1-1.1c-0.5,0-1,0.3-1.4,0.7l-0.8-0.7c0.7-0.7,1.3-1,2.3-1
			c1.4,0,2.3,0.8,2.3,2c0,1.1-1.2,2.3-2.5,3.6c0.4,0,0.9-0.1,1.2-0.1h1.6v1.1h-5v-0.7H944.1z"/>
	</g>
	<g class="st1">
		<path d="M947,171.7h-3.2v-0.9l2.8-4h1.8v3.9h0.9v1h-0.9v1.6H947V171.7z M947,170.7v-1.3c0-0.4,0-1,0-1.4l0,0
			c-0.2,0.4-0.4,0.7-0.6,1.1l-1.1,1.7h1.7L947,170.7L947,170.7z"/>
	</g>
	<g class="st1">
		<path d="M944.1,146.4c0-2.5,1.4-3.6,2.9-3.6c0.9,0,1.6,0.3,2,0.8l-0.8,0.8c-0.3-0.3-0.7-0.5-1.1-0.5c-0.8,0-1.5,0.6-1.6,2.3
			c0.4-0.5,1-0.7,1.5-0.7c1.2,0,2.1,0.6,2.1,2c0,1.3-1.1,2.2-2.3,2.2C945.4,149.6,944.1,148.7,944.1,146.4z M945.5,147.1
			c0.1,1.1,0.6,1.5,1.2,1.5c0.6,0,1-0.4,1-1.2c0-0.7-0.4-1.1-1.1-1.1C946.3,146.4,945.9,146.6,945.5,147.1z"/>
	</g>
	<g class="st1">
		<path d="M944.1,124.1c0-0.8,0.6-1.3,1.3-1.6l0,0c-0.6-0.4-1-0.9-1-1.5c0-1.1,0.9-1.8,2.2-1.8s2.1,0.7,2.1,1.8
			c0,0.6-0.5,1.2-0.9,1.5l0,0c0.7,0.3,1.2,0.8,1.2,1.7c0,1-1,1.8-2.5,1.8C945.2,125.8,944.1,125.1,944.1,124.1z M947.7,124
			c0-0.7-0.7-0.9-1.6-1.2c-0.4,0.3-0.7,0.7-0.7,1.1c0,0.6,0.5,1,1.2,1C947.2,124.9,947.7,124.6,947.7,124z M947.6,120.9
			c0-0.5-0.4-0.9-1-0.9c-0.5,0-0.9,0.3-0.9,0.8c0,0.6,0.6,0.9,1.3,1.2C947.4,121.6,947.6,121.3,947.6,120.9z"/>
	</g>
	<g class="st1">
		<path d="M938.7,100.9h1.6v-4.1H939V96c0.7-0.1,1.2-0.3,1.7-0.6h1.1v5.5h1.4v1.1h-4.4L938.7,100.9L938.7,100.9z"/>
		<path d="M944.2,98.6c0-2.2,1-3.4,2.5-3.4s2.5,1.2,2.5,3.4c0,2.2-1,3.4-2.5,3.4C945.2,102.1,944.2,100.9,944.2,98.6z M947.8,98.6
			c0-1.8-0.5-2.3-1.1-2.3s-1.1,0.5-1.1,2.3s0.5,2.4,1.1,2.4S947.8,100.5,947.8,98.6z"/>
	</g>
	<line class="st10" x1="951.5" y1="216.7" x2="951.5" y2="97.8"/>
	<line class="st10" x1="951.5" y1="216.7" x2="954.6" y2="216.7"/>
	<line class="st10" x1="951.5" y1="192.9" x2="954.6" y2="192.9"/>
	<line class="st10" x1="951.5" y1="169.1" x2="954.6" y2="169.1"/>
	<line class="st10" x1="951.5" y1="145.3" x2="954.6" y2="145.3"/>
	<line class="st10" x1="951.5" y1="121.5" x2="954.6" y2="121.5"/>
	<line class="st10" x1="951.5" y1="97.8" x2="954.6" y2="97.8"/>
	<polygon class="st11" points="1011.4,109.6 1041.6,109.6 1041.6,109.6 	"/>
	<rect x="969.5" y="133.4" class="st12" width="30.2" height="47.6"/>
	<rect x="1053.4" y="121.5" class="st12" width="30.2" height="95.2"/>
	<rect x="1011.4" y="109.6" class="st12" width="30.2" height="107.1"/>
	<rect x="969.5" y="181" class="st13" width="30.2" height="35.7"/>
	<g class="st1">
		<path class="st2" d="M1058.4,236.5c2.8-2.4,4-4.2,4-5.7c0-1-0.5-1.7-1.6-1.7c-0.7,0-1.3,0.4-1.8,1l-0.6-0.6
			c0.7-0.8,1.5-1.3,2.6-1.3c1.6,0,2.6,1,2.6,2.6c0,1.8-1.4,3.5-3.4,5.5c0.5,0,1-0.1,1.4-0.1h2.4v0.9h-5.5L1058.4,236.5L1058.4,236.5
			z"/>
		<path class="st2" d="M1065,232.7c0-3.1,1.1-4.5,2.7-4.5c1.7,0,2.7,1.5,2.7,4.5c0,3.1-1.1,4.6-2.7,4.6S1065,235.8,1065,232.7z
			 M1069.4,232.7c0-2.6-0.7-3.6-1.7-3.6s-1.7,1.1-1.7,3.6c0,2.6,0.7,3.7,1.7,3.7C1068.8,236.4,1069.4,235.3,1069.4,232.7z"/>
		<path class="st2" d="M1071.5,236.5c2.8-2.4,4-4.2,4-5.7c0-1-0.5-1.7-1.6-1.7c-0.7,0-1.3,0.4-1.8,1l-0.6-0.6
			c0.7-0.8,1.5-1.3,2.6-1.3c1.6,0,2.6,1,2.6,2.6c0,1.8-1.4,3.5-3.4,5.5c0.5,0,1-0.1,1.4-0.1h2.4v0.9h-5.5L1071.5,236.5L1071.5,236.5
			z"/>
	</g>
	<g class="st1">
		<path class="st2" d="M1077.9,236.1l0.6-0.7c0.5,0.5,1.2,1,2.2,1s1.8-0.6,1.8-1.6c0-1.1-0.7-1.8-2.7-1.8v-0.8
			c1.8,0,2.4-0.7,2.4-1.7c0-0.9-0.6-1.4-1.5-1.4c-0.7,0-1.3,0.4-1.8,0.9l-0.6-0.7c0.7-0.6,1.4-1.1,2.5-1.1c1.5,0,2.6,0.8,2.6,2.2
			c0,1.1-0.6,1.8-1.6,2.1l0,0c1,0.2,1.9,1,1.9,2.2c0,1.6-1.3,2.5-2.8,2.5C1079.3,237.3,1078.4,236.7,1077.9,236.1z"/>
	</g>
	<g class="st1">
		<path class="st2" d="M1098.5,235.3h-4.3v2.7h-0.9v-2.7h-5.5v-0.9h2v-3.2h3.6v-1.8h-2.9c-0.5,0.9-1.2,1.7-1.8,2.4
			c-0.2-0.1-0.5-0.4-0.8-0.6c1.1-1,2.1-2.5,2.7-4.1l0.9,0.2c-0.2,0.4-0.4,0.9-0.6,1.3h7.1v0.9h-3.8v1.8h3.5v0.8h-3.5v2.4h4.3
			L1098.5,235.3L1098.5,235.3z M1093.2,234.5v-2.4h-2.7v2.4H1093.2z"/>
	</g>
	<g class="st1">
		<path class="st2" d="M1011.1,236.5c2.8-2.4,4-4.2,4-5.7c0-1-0.5-1.7-1.6-1.7c-0.7,0-1.3,0.4-1.8,1l-0.6-0.6
			c0.7-0.8,1.5-1.3,2.6-1.3c1.6,0,2.6,1,2.6,2.6c0,1.8-1.4,3.5-3.4,5.5c0.5,0,1-0.1,1.4-0.1h2.4v0.9h-5.5v-0.6L1011.1,236.5
			L1011.1,236.5z"/>
		<path class="st2" d="M1017.7,232.7c0-3.1,1.1-4.5,2.7-4.5c1.7,0,2.7,1.5,2.7,4.5c0,3.1-1.1,4.6-2.7,4.6S1017.7,235.8,1017.7,232.7
			z M1022.2,232.7c0-2.6-0.7-3.6-1.7-3.6s-1.7,1.1-1.7,3.6c0,2.6,0.7,3.7,1.7,3.7S1022.2,235.3,1022.2,232.7z"/>
		<path class="st2" d="M1024.2,236.5c2.8-2.4,4-4.2,4-5.7c0-1-0.5-1.7-1.6-1.7c-0.7,0-1.3,0.4-1.8,1l-0.6-0.6
			c0.7-0.8,1.5-1.3,2.6-1.3c1.6,0,2.6,1,2.6,2.6c0,1.8-1.4,3.5-3.4,5.5c0.5,0,1-0.1,1.4-0.1h2.4v0.9h-5.5L1024.2,236.5L1024.2,236.5
			z"/>
	</g>
	<g class="st1">
		<path class="st2" d="M1030.8,236.5c2.8-2.4,4-4.2,4-5.7c0-1-0.5-1.7-1.6-1.7c-0.7,0-1.3,0.4-1.8,1l-0.6-0.6
			c0.7-0.8,1.5-1.3,2.6-1.3c1.6,0,2.6,1,2.6,2.6c0,1.8-1.4,3.5-3.4,5.5c0.5,0,1-0.1,1.4-0.1h2.4v0.9h-5.5L1030.8,236.5L1030.8,236.5
			z"/>
	</g>
	<g class="st1">
		<path class="st2" d="M1051.2,235.3h-4.3v2.7h-0.9v-2.7h-5.5v-0.9h2v-3.2h3.6v-1.8h-2.9c-0.5,0.9-1.2,1.7-1.8,2.4
			c-0.2-0.1-0.5-0.4-0.8-0.6c1.1-1,2.1-2.5,2.7-4.1l0.9,0.2c-0.2,0.4-0.4,0.9-0.6,1.3h7.1v0.9h-3.8v1.8h3.5v0.8h-3.5v2.4h4.3
			L1051.2,235.3L1051.2,235.3z M1045.9,234.5v-2.4h-2.7v2.4H1045.9z"/>
	</g>
	<g class="st1">
		<path class="st2" d="M963.8,236.5c2.8-2.4,4-4.2,4-5.7c0-1-0.5-1.7-1.6-1.7c-0.7,0-1.3,0.4-1.8,1l-0.6-0.6
			c0.7-0.8,1.5-1.3,2.6-1.3c1.6,0,2.6,1,2.6,2.6c0,1.8-1.4,3.5-3.4,5.5c0.5,0,1-0.1,1.4-0.1h2.4v0.9h-5.5v-0.6L963.8,236.5
			L963.8,236.5z"/>
		<path class="st2" d="M970.4,232.7c0-3.1,1.1-4.5,2.7-4.5c1.7,0,2.7,1.5,2.7,4.5c0,3.1-1.1,4.6-2.7,4.6S970.4,235.8,970.4,232.7z
			 M974.9,232.7c0-2.6-0.7-3.6-1.7-3.6s-1.7,1.1-1.7,3.6c0,2.6,0.7,3.7,1.7,3.7S974.9,235.3,974.9,232.7z"/>
		<path class="st2" d="M976.9,236.5c2.8-2.4,4-4.2,4-5.7c0-1-0.5-1.7-1.6-1.7c-0.7,0-1.3,0.4-1.8,1l-0.6-0.6
			c0.7-0.8,1.5-1.3,2.6-1.3c1.6,0,2.6,1,2.6,2.6c0,1.8-1.4,3.5-3.4,5.5c0.5,0,1-0.1,1.4-0.1h2.4v0.9H977v-0.6L976.9,236.5
			L976.9,236.5z"/>
	</g>
	<g class="st1">
		<path class="st2" d="M984,236.2h2v-6.6h-1.6V229c0.8-0.1,1.3-0.3,1.8-0.6h0.8v7.9h1.8v0.9H984V236.2z"/>
	</g>
	<g class="st1">
		<path class="st2" d="M1003.9,235.3h-4.3v2.7h-0.9v-2.7h-5.5v-0.9h2v-3.2h3.6v-1.8h-2.9c-0.5,0.9-1.2,1.7-1.8,2.4
			c-0.2-0.1-0.5-0.4-0.8-0.6c1.1-1,2.1-2.5,2.7-4.1l0.9,0.2c-0.2,0.4-0.4,0.9-0.6,1.3h7.1v0.9h-3.8v1.8h3.5v0.8h-3.5v2.4h4.3V235.3z
			 M998.6,234.5v-2.4h-2.7v2.4H998.6z"/>
	</g>
	<path class="st14" d="M101.2,120.1l-46.1,9c-4.9-25.4,11.7-50.1,37.1-55c3.1-0.6,5.8-0.9,8.9-0.9
		C101.2,73.2,101.2,120.1,101.2,120.1z"/>
	<path class="st15" d="M111.9,131.7V84.8c25.9,0,46.9,21,46.9,46.9s-21,46.9-46.9,46.9c-22.8,0-41.7-15.6-46.1-38L111.9,131.7z"/>
	<path class="st2" d="M162.4,114.1c-4.4,0-7.9,1.3-10.3,3.7s-3.5,5.9-3.5,10c0,1.7,0.8,5,1.4,6.9c-0.3,0.2-0.5,0.4-0.8,0.7
		c-0.4,0.6-0.7,1.6-0.6,2.6c0.4,3.1,2.3,4.3,3,4.6c0.2,1.5,1,3.3,2.2,5.1c1.3,2,3.2,3.9,5.4,5l0.1,0.1c0.8,1,1.9,1.6,3.3,1.6
		s2.5-0.7,3.3-1.6l0.1-0.1c2.2-1.1,4-3,5.4-5c1.2-1.9,2-3.7,2.2-5.1c0.6-0.3,2.7-1.4,3.1-4.6c0.1-1.1-0.2-2-0.6-2.7
		c-0.2-0.4-0.5-0.5-0.8-0.7c0.6-2,1.4-5,1.4-8.3c0-1.5-0.3-3.6-1.4-5.4c-1-1.7-2.7-3.1-5.2-3.3C169,116,166.6,114.1,162.4,114.1
		L162.4,114.1z M162.4,115.8c3.9,0,5.8,1.8,6.5,3.1c0.1,0.3,0.4,0.5,0.8,0.5c2.1,0,3.3,1,4.1,2.5c0.8,1.4,1.1,3.3,1.1,4.6
		c0,3.3-0.9,6.5-1.5,8.3c-0.1,0.4,0,0.8,0.4,1c0.1,0.1,0.5,0.4,0.7,0.7s0.4,0.8,0.3,1.5c-0.3,2.8-2.3,3.4-2.3,3.4
		c-0.3,0.1-0.6,0.4-0.6,0.7c-0.1,1-0.8,2.9-2.1,4.8s-2.9,3.6-4.8,4.4c-0.1,0.1-0.3,0.2-0.4,0.3c-0.5,0.7-1.3,1.2-2.2,1.2
		s-1.7-0.5-2.2-1.2c-0.1-0.1-0.2-0.2-0.4-0.3c-1.9-0.9-3.6-2.6-4.8-4.4s-2-3.8-2.1-4.8c0-0.3-0.3-0.6-0.6-0.7c0,0-2-0.6-2.3-3.4
		c-0.1-0.7,0.1-1.1,0.3-1.5s0.6-0.6,0.7-0.7c0.4-0.2,0.5-0.6,0.4-1c-0.5-1.5-1.4-5.7-1.4-6.9c0-3.8,1-6.7,3-8.8
		C155.3,117,158.3,115.9,162.4,115.8L162.4,115.8z M169.1,122.6C169.1,122.6,169,122.6,169.1,122.6c-0.1,0-0.1,0-0.1,0.1
		c-0.1,0-0.1,0.1-0.2,0.1c0,0,0,0-0.1,0l0,0c0,0-0.1,0-0.1,0.1c0,0,0,0-0.1,0.1c0,0,0,0,0,0.1s-0.1,0.1-0.1,0.2l0,0c0,0,0,0,0,0.1
		c-0.1,0.1-0.4,0.8-1.4,1.5c-1,0.8-2.7,1.7-5.3,1.7c-1.6,0-3.7,0-5.5,0.7c-0.9,0.3-1.7,0.8-2.3,1.6s-1,1.8-1,3
		c0,0.3,0.2,0.6,0.4,0.8c0.3,0.2,0.6,0.2,0.9,0c0.3-0.2,0.4-0.5,0.4-0.8c0-0.9,0.2-1.5,0.6-1.9s0.9-0.8,1.6-1
		c1.4-0.5,3.3-0.6,4.9-0.6c3,0,5.1-1,6.4-2.1c0.4-0.4,0.8-0.7,1-1c0.9,1.4,2.2,4,2.2,6.7c0,0.3,0.2,0.6,0.4,0.8
		c0.3,0.2,0.6,0.2,0.9,0c0.3-0.2,0.4-0.5,0.4-0.8c0-4.4-2.6-7.9-3.1-8.5l0,0l-0.1-0.1c0,0,0,0-0.1-0.1l0,0c0,0,0,0,0-0.1l0,0
		c-0.1-0.1-0.1-0.1-0.2-0.2l0,0c0,0,0,0-0.1,0l0,0c0,0,0,0-0.1,0L169.1,122.6L169.1,122.6z M157.8,136.1c-0.7,0-1.3,0.6-1.3,1.3
		s0.6,1.3,1.3,1.3s1.3-0.6,1.3-1.3S158.5,136.1,157.8,136.1z M167.5,136.1c-0.7,0-1.3,0.6-1.3,1.3s0.6,1.3,1.3,1.3s1.3-0.6,1.3-1.3
		S168.2,136.1,167.5,136.1z"/>
	<path class="st2" d="M44.9,114.1c-4.6,0-8.6,1.4-11.3,4.1c-2.8,2.7-4.3,6.7-4.3,11.5c0,2.7,0.7,5.3,0.8,8.1s-0.3,5.5-2.5,8.5
		c-0.1,0.2-0.2,0.4-0.1,0.7c0,0.2,0.2,0.4,0.4,0.6c0,0,1,0.7,2.9,1.4s4.8,1.5,8.7,1.9l0,0c2,2.4,4.2,3.8,6.5,3.8s4.6-1.4,6.6-3.8
		c4-0.4,6.9-1.2,8.9-1.9s3.1-1.4,3.1-1.4c0.2-0.1,0.4-0.4,0.4-0.6c0-0.2,0-0.5-0.2-0.7c-2.2-2.9-2.7-5.4-2.7-7.9s0.7-5.1,0.7-7.9
		s-0.6-5.9-2.1-8.4c-1.5-2.4-4.1-4.1-7.7-4.2C51.8,116.7,49.1,114.1,44.9,114.1L44.9,114.1z M44.9,115.8c3.6,0,6.1,2.5,7,3.4
		c0.2,0.2,0.4,0.3,0.6,0.3c3.2,0,5.2,1.4,6.5,3.5s1.9,4.9,1.9,7.4s-0.6,5.1-0.7,7.9c0,2.5,0.5,5.2,2.4,8.1c-0.4,0.2-0.6,0.3-1.9,0.8
		c-1.6,0.6-3.9,1.2-6.9,1.6c1.4-2.2,3.5-6.5,3.5-11.6c0-6.7-3.9-10.6-4.9-11.6c0,0,0,0,0-0.1c-0.1-0.2-0.3-0.3-0.6-0.4l0,0
		c-0.1,0-0.2,0-0.3,0l0,0c-0.1,0-0.1,0.1-0.2,0.1l-0.1,0.1l-0.1,0.1c0,0,0,0,0,0.1l0,0l0,0l0,0c0,0,0,0,0,0.1s0,0,0,0v0.1l0,0v0.1
		l0,0c0,0-1,3.9-6,5.5c-1.6,0.5-4.1,0.8-6.3,1.9c-2.2,1.1-4,3.1-4,6.4c0,4.1,1.8,7.3,3.1,9.1c-2.8-0.4-5-1-6.4-1.5
		c-1.3-0.5-1.5-0.6-1.8-0.8c1.9-3,2.4-6,2.3-8.6c-0.1-3-0.8-5.6-0.8-8c0-4.5,1.4-7.9,3.7-10.3S40.6,115.9,44.9,115.8L44.9,115.8z
		 M52,127.6c1.3,1.4,3.7,4.5,3.7,9.6c0,6.6-4,11.9-4.2,12.1v0.1v0.1c-1.8,2.3-3.8,3.3-5.4,3.3s-3.5-1-5.3-3.2c0,0,0-0.1-0.1-0.1
		c0,0,0,0,0-0.1c0,0,0,0,0-0.1l0,0l-0.1-0.1c0,0,0,0-0.1-0.1c-0.4-0.4-4-4.1-4-9.6c0-2.8,1.2-3.9,3-4.8c1.8-0.9,4.2-1.2,6-1.8
		C49.3,131.7,51.2,129.1,52,127.6L52,127.6z M41.2,136.9c-0.7,0-1.3,0.6-1.3,1.3s0.6,1.3,1.3,1.3s1.3-0.6,1.3-1.3
		S41.9,136.9,41.2,136.9z M50.8,136.9c-0.7,0-1.3,0.6-1.3,1.3s0.6,1.3,1.3,1.3s1.3-0.6,1.3-1.3S51.5,136.9,50.8,136.9z"/>
	<g class="st1">
		<path class="st2" d="M151.3,193h-14v-5.2H158v3.8c-7.1,8.6-8.2,14.8-8.7,26.6H143C143.5,207.7,145.4,201.1,151.3,193z"/>
		<path class="st2" d="M161.8,214.6c8.1-7.8,13.5-13.1,13.5-17.6c0-3.1-1.7-4.9-4.7-4.9c-2.3,0-4.1,1.5-5.7,3.2l-3.4-3.4
			c2.9-3.1,5.7-4.8,9.9-4.8c5.9,0,9.8,3.8,9.8,9.5c0,5.3-4.9,10.8-10.5,16.6c1.6-0.2,3.6-0.3,5.1-0.3h6.8v5.2h-20.9L161.8,214.6
			L161.8,214.6z"/>
	</g>
	<g class="st1">
		<path class="st2" d="M185.6,207.9c0-2.4,1.2-3.7,2.9-3.7s2.9,1.3,2.9,3.7s-1.2,3.8-2.9,3.8C186.8,211.6,185.6,210.2,185.6,207.9z
			 M189.7,207.9c0-1.7-0.5-2.4-1.2-2.4s-1.2,0.7-1.2,2.4s0.5,2.4,1.2,2.4C189.2,210.3,189.7,209.6,189.7,207.9z M195.3,204.2h1.4
			l-6.4,12.2h-1.4L195.3,204.2z M194.2,212.6c0-2.4,1.2-3.7,2.9-3.7s2.9,1.4,2.9,3.7s-1.2,3.7-2.9,3.7S194.2,215,194.2,212.6z
			 M198.3,212.6c0-1.7-0.5-2.4-1.2-2.4s-1.2,0.7-1.2,2.4s0.5,2.4,1.2,2.4S198.3,214.3,198.3,212.6z"/>
	</g>
	<g class="st1">
		<path class="st2" d="M22.7,214.6c8.1-7.8,13.5-13.1,13.5-17.6c0-3.1-1.7-4.9-4.7-4.9c-2.3,0-4.1,1.5-5.7,3.2l-3.4-3.4
			c2.9-3.1,5.7-4.8,9.9-4.8c5.9,0,9.8,3.8,9.8,9.5c0,5.3-4.9,10.8-10.5,16.6c1.6-0.2,3.6-0.3,5.1-0.3h6.8v5.2H22.7V214.6z"/>
		<path class="st2" d="M47.7,210.5c0-3.8,2.5-6.2,5.4-7.7v-0.2c-2.4-1.7-4.1-4-4.1-7.2c0-5,4-8.2,9.4-8.2c5.5,0,9.1,3.3,9.1,8.3
			c0,3-2,5.4-4,6.8v0.2c2.8,1.6,5.2,3.8,5.2,7.9c0,4.7-4.2,8.4-10.5,8.4C52.2,218.8,47.7,215.4,47.7,210.5z M62.8,210.3
			c0-3-2.9-4.1-6.9-5.8c-1.6,1.3-2.9,3.2-2.9,5.3c0,2.8,2.3,4.6,5.2,4.6C60.9,214.4,62.8,213,62.8,210.3z M62.3,195.9
			c0-2.5-1.5-4.3-4.1-4.3c-2.1,0-3.8,1.3-3.8,3.8c0,2.8,2.4,4.1,5.7,5.4C61.5,199.3,62.3,197.6,62.3,195.9z"/>
	</g>
	<g class="st1">
		<path class="st2" d="M71.4,207.9c0-2.4,1.2-3.7,2.9-3.7c1.7,0,2.9,1.3,2.9,3.7s-1.2,3.8-2.9,3.8C72.5,211.6,71.4,210.2,71.4,207.9
			z M75.5,207.9c0-1.7-0.5-2.4-1.2-2.4s-1.2,0.7-1.2,2.4s0.5,2.4,1.2,2.4C74.9,210.3,75.5,209.6,75.5,207.9z M81,204.2h1.4L76,216.3
			h-1.4L81,204.2z M79.9,212.6c0-2.4,1.2-3.7,2.9-3.7s2.9,1.4,2.9,3.7s-1.2,3.7-2.9,3.7S79.9,215,79.9,212.6z M84,212.6
			c0-1.7-0.5-2.4-1.2-2.4s-1.2,0.7-1.2,2.4s0.5,2.4,1.2,2.4S84,214.3,84,212.6z"/>
	</g>
	<g class="st1">
		<path class="st2" d="M162.6,172.8c0,0,0,0.5-0.1,0.8c-0.3,2.9-0.6,4.2-1.1,4.7c-0.4,0.4-0.9,0.6-1.6,0.6c-0.6,0-1.5,0-2.5,0
			c0-0.5-0.3-1.2-0.6-1.7c1,0.1,2,0.1,2.4,0.1c0.3,0,0.5,0,0.7-0.2c0.3-0.2,0.5-1,0.7-2.6h-4.2c-0.8,2-2.5,3.6-6.5,4.4
			c-0.1-0.5-0.6-1.2-1-1.6c3.1-0.6,4.6-1.5,5.3-2.8h-4.6v-1.7h5.2c0.1-0.3,0.1-0.7,0.2-1.1h-4.4v-6.8H162v6.8h-5
			c0,0.4-0.1,0.7-0.2,1.1H162.6z M152.6,167.6h2.8v-1.1h-2.8V167.6z M152.6,170.1h2.8V169h-2.8V170.1z M160.1,166.5h-2.8v1.1h2.8
			V166.5z M160.1,169h-2.8v1.1h2.8V169z"/>
		<path class="st2" d="M179.5,176.7v1.8h-9.8v-1.8h4.2v-3.2h-3.1v-1.8h3.1v-2.6h-1.7c-0.2,0.8-0.6,1.6-0.9,2.2
			c-0.4-0.2-1.2-0.7-1.7-0.9c0.2-0.3,0.3-0.6,0.5-0.9l-0.9,0.4c-0.1-0.5-0.3-1.2-0.6-1.8v10.8h-1.9v-11.3c-0.1,1.3-0.3,3.1-0.7,4.2
			l-1.4-0.5c0.4-1,0.7-2.8,0.8-4.1l1.3,0.2v-3.2h1.9v3l0.9-0.4c0.3,0.6,0.6,1.4,0.9,2c0.4-1.2,0.7-2.5,0.8-3.9l1.8,0.3
			c-0.1,0.7-0.2,1.5-0.4,2.2h1.3v-3.1h1.9v3.1h3.2v1.8h-3.2v2.6h2.9v1.8h-2.9v3.2h3.7L179.5,176.7L179.5,176.7z"/>
	</g>
	<g class="st1">
		<path class="st2" d="M43.4,169.6c-0.5,2.2-1.1,3.9-2.1,5.2c1.6,0.8,3.2,1.6,4.2,2.4l-1.4,1.8c-1-0.8-2.6-1.7-4.3-2.6
			c-1.7,1.3-4.1,2.1-7.2,2.6c-0.2-0.6-0.6-1.4-1-1.9c2.7-0.3,4.6-0.8,6.1-1.7c-0.9-0.4-1.7-0.8-2.5-1.1l-0.3,0.6l-1.9-0.7
			c0.6-1.2,1.3-2.8,2-4.5h-3.5v-1.9h4.3c0.5-1.2,0.9-2.5,1.3-3.5l2.1,0.3c-0.4,1-0.8,2.1-1.2,3.2h7.9v1.9h-2.5
			C43.4,169.7,43.4,169.6,43.4,169.6z M37.1,169.6c-0.4,1-0.8,2-1.2,3c1.1,0.4,2.3,0.8,3.4,1.4c0.9-1.1,1.5-2.5,1.9-4.3L37.1,169.6
			L37.1,169.6z"/>
		<path class="st2" d="M61.7,176.7v1.8h-9.8v-1.8h4.2v-3.2H53v-1.8h3.1v-2.6h-1.7c-0.2,0.8-0.6,1.6-0.9,2.2
			c-0.4-0.2-1.2-0.7-1.7-0.9c0.2-0.3,0.3-0.6,0.5-0.9l-0.9,0.4c-0.1-0.5-0.3-1.2-0.6-1.8v10.8h-1.9v-11.3c-0.1,1.3-0.3,3.1-0.7,4.2
			l-1.4-0.5c0.4-1,0.7-2.8,0.8-4.1l1.3,0.2v-3.2h1.9v3l0.9-0.4c0.3,0.6,0.6,1.4,0.9,2c0.4-1.2,0.7-2.5,0.8-3.9l1.8,0.3
			c-0.1,0.7-0.2,1.5-0.4,2.2h1.3v-3.1H58v3.1h3.2v1.8H58v2.6h2.9v1.8H58v3.2h3.7V176.7z"/>
	</g>
	<rect x="998" y="75.2" class="st12" width="6.1" height="14.7"/>
	<rect x="1061" y="75.2" class="st13" width="6.1" height="14.7"/>
	<g class="st1">
		<path class="st2" d="M1077.8,85c-0.3-0.3-0.9-0.9-1.4-1.4v3h-0.9v-3.1c-0.6,0.9-1.3,1.8-2,2.3c-0.1-0.2-0.4-0.5-0.6-0.6
			c0.9-0.6,1.8-1.7,2.4-2.7h-2.1v-0.8h2.3v-1.2h-2.4v-0.8h3.9l-0.6-0.2c0.2-0.5,0.5-1.2,0.6-1.7l0.8,0.2c-0.3,0.6-0.5,1.3-0.7,1.7
			h1.6v0.8h-2.3v1.2h2.2v0.8h-2.2v0.3c0.5,0.3,1.6,1.3,1.9,1.5L1077.8,85z M1078.6,77.7h-5.3V77h2.2v-1.2h0.9V77h2.2L1078.6,77.7
			L1078.6,77.7z M1074.5,79.7c0-0.5-0.2-1.2-0.5-1.7l0.7-0.2c0.3,0.5,0.5,1.2,0.5,1.7L1074.5,79.7z M1084,80.6h-1.4v6h-0.9v-6h-1.8
			v0.3c0,1.8-0.2,4.2-1.9,5.8c-0.1-0.2-0.4-0.5-0.6-0.6c1.5-1.5,1.7-3.5,1.7-5.2v-4.2l0.7,0.2c1.2-0.3,2.5-0.7,3.3-1l0.7,0.7
			c-1,0.5-2.5,0.8-3.9,1.1v2.1h4v0.8C1083.9,80.6,1084,80.6,1084,80.6z"/>
		<path class="st2" d="M1095.7,83.8h-4.9v2.9h-0.9v-2.9h-4.8v-0.9h4.8v-0.8h0.6c-0.2-0.2-0.4-0.4-0.6-0.6c1.2-0.7,2.2-1.8,2.7-3.3
			l0.9,0.2c-0.2,0.5-0.3,0.9-0.6,1.3c0.9,0.6,2.1,1.5,2.6,2l-0.7,0.6c-0.5-0.5-1.5-1.4-2.4-2c-0.5,0.7-1.1,1.2-1.7,1.7h0.1v0.8h4.9
			V83.8z M1089.5,81.5c-0.3-0.3-0.9-0.8-1.5-1.3c-0.6,0.9-1.3,1.7-2.1,2.3c-0.1-0.2-0.5-0.5-0.7-0.7c1.3-0.8,2.3-2.1,2.7-3.7
			l0.9,0.2c-0.1,0.4-0.3,0.8-0.5,1.2c0.6,0.4,1.3,1,1.7,1.3L1089.5,81.5z M1095.4,78.1h-10v-0.9h4.5v-1.5h0.9v1.5h4.6V78.1z"/>
	</g>
	<g class="st1">
		<path class="st2" d="M1019.3,77.8v5.6h-0.9v-0.7h-3.4v3.9h-0.9v-3.9h-3.4v0.7h-0.9v-5.7h4.3v-2.1h0.9v2.1L1019.3,77.8L1019.3,77.8
			z M1014,81.9v-3.2h-3.4v3.2H1014z M1018.4,81.9v-3.2h-3.4v3.2H1018.4z"/>
		<path class="st2" d="M1023.4,84.2c0.6,0.9,1.7,1.3,3,1.3s4,0,5.4-0.1c-0.1,0.2-0.3,0.6-0.3,0.9c-1.3,0.1-3.8,0.1-5.1,0
			c-1.5-0.1-2.7-0.5-3.4-1.4c-0.5,0.5-1.1,1-1.7,1.5l-0.5-0.9c0.5-0.4,1.1-0.9,1.7-1.4v-3h-1.6v-0.8h2.4L1023.4,84.2L1023.4,84.2z
			 M1023.1,78.5c-0.4-0.6-1.2-1.4-2-2l0.7-0.5c0.8,0.6,1.6,1.4,2,2L1023.1,78.5z M1028.2,75.7c0.9,1.2,2.4,2.4,3.7,2.9
			c-0.2,0.2-0.4,0.6-0.5,0.8c-1.3-0.7-2.8-1.8-3.6-2.9c-0.7,1-2.1,2.2-3.5,2.9c-0.1-0.2-0.3-0.6-0.5-0.8c1.5-0.7,2.9-2,3.5-3.1h0.9
			V75.7z M1026.3,82.1c-0.4,0.9-1.1,1.9-1.8,2.5c-0.1-0.1-0.5-0.4-0.7-0.5c0.7-0.6,1.3-1.4,1.6-2.2L1026.3,82.1z M1031.5,81.4h-3.3
			v2.8c0,0.4-0.1,0.7-0.4,0.8c-0.3,0.1-0.8,0.1-1.5,0.1c0-0.2-0.2-0.6-0.3-0.8c0.5,0,1,0,1.1,0s0.2,0,0.2-0.2v-2.7h-3.1v-0.8h3.1
			v-1.1h-1.7v-0.7h4.4v0.7h-1.8v1.1h3.3L1031.5,81.4L1031.5,81.4z M1030.8,84.4c-0.3-0.6-1-1.6-1.6-2.3l0.7-0.3
			c0.6,0.7,1.4,1.6,1.7,2.2L1030.8,84.4z"/>
	</g>
</g>
</svg>
