<?xml version="1.0" encoding="utf-8"?>
<!-- Generator: Adobe Illustrator 27.9.0, SVG Export Plug-In . SVG Version: 6.00 Build 0)  -->
<svg version="1.1" id="_レイヤー_2" xmlns="http://www.w3.org/2000/svg" xmlns:xlink="http://www.w3.org/1999/xlink" x="0px"
	 y="0px" viewBox="0 0 315 1092" style="enable-background:new 0 0 315 1092;" xml:space="preserve">
<style type="text/css">
	.st0{fill:#FFFFFF;}
	.st1{enable-background:new    ;}
	.st2{fill:#0017AF;}
	.st3{fill:#D6D8D6;stroke:#FFFFFF;stroke-width:9.76;stroke-linejoin:bevel;}
	.st4{fill:#AEE6E8;stroke:#FFFFFF;stroke-width:9.76;stroke-linejoin:bevel;}
	.st5{fill:#C3DDC4;stroke:#FFFFFF;stroke-width:9.76;stroke-linejoin:bevel;}
	.st6{fill:#F4F198;stroke:#FFFFFF;stroke-width:9.76;stroke-linejoin:bevel;}
	.st7{fill:#ABE6A0;stroke:#FFFFFF;stroke-width:9.76;stroke-linejoin:bevel;}
	.st8{fill:none;stroke:#000000;stroke-width:0.49;stroke-miterlimit:10;}
	.st9{fill:#DFDFDF;stroke:#000000;stroke-width:0.25;stroke-miterlimit:10;}
	.st10{fill:#67D271;}
	.st11{fill:#407CD0;}
	.st12{fill:#D9BFED;stroke:#FFFFFF;stroke-width:0.54;stroke-miterlimit:10;}
	.st13{fill:#90B8EB;stroke:#FFFFFF;stroke-width:0.54;stroke-miterlimit:10;}
	.st14{fill:#EFEFEF;}
	.st15{fill:#67D271;stroke:#FFFFFF;stroke-width:0.85;stroke-miterlimit:10;}
</style>
<g id="_レイヤー_1-2">
	<rect y="607" class="st0" width="315" height="234"/>
	<rect y="845" class="st0" width="315" height="247"/>
	<g class="st1">
		<path class="st2" d="M118.57,866.79c0,3.4,0.49,9.97,7.12,13.88c-0.47,0.38-1.35,1.31-1.73,1.87c-3.73-2.25-5.64-5.65-6.63-8.87
			c-1.35,4.03-3.51,7.02-6.64,8.9c-0.4-0.45-1.41-1.33-1.96-1.75c3.74-1.89,5.89-5.37,6.87-10.1l1.1,0.2
			c-0.13-0.68-0.2-1.33-0.25-1.94l-4.11,0l0-2.18L118.57,866.79z"/>
		<path class="st2" d="M133.44,877.7c-0.38-0.5-0.99-1.22-1.6-1.89l0,6.79h-2.12l0-6.21c-0.72,0.67-1.48,1.26-2.23,1.73
			c-0.18-0.58-0.68-1.62-1.01-2.03c1.96-1.06,3.85-2.95,5.02-5.02l-4.34,0l0-1.95l2.56,0l0-3.31h2.12l0,3.31l0.81,0l0.38-0.09
			l1.21,0.77c-0.54,1.37-1.26,2.67-2.12,3.85c0.86,0.7,2.25,1.94,2.63,2.3L133.44,877.7z M143.76,879.98l0,2.09l-10.19,0l0-2.09
			l4.16,0l0-6.59l-3.42,0l0-2.07l3.42,0l0-5.38h2.2l0,5.38l3.4,0l0,2.07l-3.4,0l0,6.59L143.76,879.98z"/>
		<path class="st2" d="M154.14,866.19c-0.02,0.29-0.04,0.65-0.05,1.03c0.15,2.48,1.05,10.24,7.77,13.39
			c-0.67,0.5-1.31,1.24-1.66,1.82c-4.07-2.01-6.09-5.72-7.1-9.04c-0.97,3.24-2.86,6.72-6.66,9.04c-0.38-0.56-1.08-1.21-1.8-1.71
			c7.18-3.98,6.93-12.16,7.05-14.53H154.14z"/>
		<path class="st2" d="M178.57,870.99c-0.38,2.67-0.99,4.9-1.96,6.72c0.83,1.28,1.87,2.3,3.19,2.99c-0.49,0.43-1.15,1.26-1.48,1.86
			c-1.22-0.74-2.21-1.69-3.03-2.86c-0.99,1.19-2.23,2.16-3.8,2.95c-0.13-0.31-0.4-0.79-0.68-1.22l-0.81,0.83
			c-0.49-0.41-1.13-0.88-1.87-1.35c-1.06,0.79-2.5,1.31-4.43,1.71c-0.13-0.61-0.5-1.33-0.85-1.76c1.46-0.2,2.57-0.49,3.42-0.97
			c-0.32-0.18-0.67-0.34-1.01-0.49l-0.2,0.34l-1.87-0.58c0.4-0.63,0.85-1.44,1.29-2.3h-1.71l0-1.73h2.61
			c0.21-0.45,0.43-0.88,0.61-1.28l0.4,0.09l0-1.73c-0.83,0.83-1.8,1.58-2.7,2.09c-0.23-0.47-0.68-1.17-1.08-1.55
			c1.1-0.45,2.3-1.32,3.17-2.25l-2.81,0l0-1.69h1.37c-0.16-0.61-0.56-1.44-0.94-2.09l1.55-0.65c0.47,0.68,0.94,1.6,1.08,2.23
			l-1.15,0.5l1.51,0l0-3.03l1.96,0l0,3.03h1.42l-1.19-0.52c0.41-0.65,0.92-1.6,1.21-2.29l1.8,0.72c-0.56,0.77-1.12,1.53-1.55,2.09
			l1.71,0l0,1.69l-2.95,0c0.86,0.49,2.14,1.24,2.54,1.51l-1.13,1.48c-0.4-0.38-1.15-1.01-1.86-1.57l0,2.18l-1.15,0l0.77,0.16
			l-0.43,0.86l4.29,0c-0.41-0.41-1.06-0.97-1.46-1.24c1.53-1.84,2.39-4.9,2.82-8.1l2.16,0.29c-0.14,1.01-0.34,2-0.58,2.95l4.79,0
			l0,1.98L178.57,870.99z M166.15,877.8c0.54,0.22,1.06,0.43,1.58,0.68c0.29-0.45,0.52-0.99,0.68-1.64l-1.75,0L166.15,877.8z
			 M170.44,876.84c-0.2,1.01-0.5,1.86-0.95,2.56c0.56,0.32,1.08,0.65,1.5,0.95c1.33-0.7,2.38-1.6,3.17-2.72
			c-0.5-1.06-0.9-2.25-1.23-3.55c-0.25,0.47-0.54,0.9-0.83,1.3c-0.07-0.07-0.14-0.16-0.25-0.27l0,1.73L170.44,876.84z
			 M174.29,870.99c0.25,1.51,0.61,2.94,1.1,4.23c0.45-1.22,0.77-2.65,0.97-4.23H174.29z"/>
		<path class="st2" d="M187.32,871.65c1.48-0.86,3.04-1.64,3.89-2.13c0.68-0.4,1.21-0.7,1.67-1.1l1.24,2.09
			c-0.54,0.32-1.12,0.63-1.78,0.97c-1.12,0.56-3.38,1.6-5.02,2.67c-1.49,0.99-2.5,2.02-2.5,3.28c0,1.3,1.24,1.98,3.75,1.98
			c1.85,0,4.29-0.27,5.89-0.67l-0.04,2.59c-1.53,0.27-3.44,0.45-5.78,0.45c-3.58,0-6.3-0.99-6.3-4.08c0-1.98,1.26-3.48,2.99-4.75
			c-0.83-1.53-1.69-3.46-2.5-5.36l2.25-0.92C185.75,868.54,186.6,870.26,187.32,871.65z"/>
		<path class="st2" d="M201.68,867.38l3.78,0l0,3.08l-0.94,0v1.37l-2.88,0l0,0.76l2.63,0V874l-2.63,0v0.77l3.62,0l0,1.64l-9.25,0
			l0-1.64l3.67,0V874l-2.67,0l0-1.42l2.67,0v-0.76l-2.84,0l0-1.37l-0.88,0l0-3.08l3.67,0l0-1.51h2.05L201.68,867.38z M196.97,877.03
			l7.54,0l0,5.37h-2.04v-0.63l-3.58,0v0.79h-1.93L196.97,877.03z M203.48,868.98l-5.64,0l0,1.33l1.84,0v-0.97h1.96v0.97l1.84,0
			L203.48,868.98z M198.89,878.63v1.53l3.58,0v-1.53L198.89,878.63z M208.25,877.73l-2.03,0l0-10.06l2.03,0L208.25,877.73z
			 M212.01,866.08l0,13.88c0,1.19-0.21,1.8-0.93,2.12c-0.7,0.36-1.82,0.43-3.29,0.43c-0.09-0.61-0.4-1.6-0.7-2.21
			c1.04,0.05,2.07,0.04,2.43,0.04c0.31,0,0.43-0.11,0.43-0.4l0-13.86L212.01,866.08z"/>
		<path class="st2" d="M223.15,865.77c1.93,2.75,4.84,5.04,7.71,6.19c-0.52,0.56-1.01,1.26-1.39,1.93
			c-0.92-0.47-1.85-1.06-2.75-1.71v1.24l-8.97,0v-1.26c-0.88,0.65-1.84,1.24-2.79,1.77c-0.29-0.52-0.88-1.3-1.35-1.75
			c3.1-1.5,5.98-4.22,7.33-6.41L223.15,865.77z M216.57,875.2l11.42,0l0,7.38l-2.2,0v-0.67l-7.11,0v0.67l-2.11,0L216.57,875.2z
			 M225.84,871.53c-1.5-1.17-2.83-2.47-3.69-3.65c-0.85,1.21-2.11,2.49-3.58,3.66L225.84,871.53z M218.67,877.09l0,2.93l7.11,0
			l0-2.93L218.67,877.09z"/>
	</g>
	<g class="st1">
		<path class="st2" d="M136.44,638.78l-6.16,0l0,3.85l-2.21,0l0-3.85l-8.1,0l0-2.05l2.84,0l0-4.74l5.26,0l0-2.14l-3.85,0
			c-0.74,1.28-1.6,2.43-2.45,3.28c-0.41-0.36-1.33-1.08-1.85-1.39c1.62-1.37,3.01-3.67,3.78-6l2.18,0.56
			c-0.16,0.5-0.36,0.99-0.59,1.48l10.17,0l0,2.07l-5.17,0l0,2.14l4.75,0l0,2l-4.75,0l0,2.74l6.16,0L136.44,638.78z M128.06,636.73
			l0-2.74l-3.11,0l0,2.74L128.06,636.73z"/>
		<path class="st2" d="M148.12,631.8c-0.38,0.45-0.77,0.86-1.19,1.19c-0.11-0.29-0.27-0.65-0.45-0.99l-8.68,0l0-1.8h1.01l0-3.46
			l1.8,0l0,3.46h1.15l0-4.39l1.98,0l0,1.37l2.61,0l0,1.69l-2.61,0l0,1.33l3.06,0v0.13c1.12-1.26,2.05-3.08,2.52-4.52l1.93,0
			c0.83,1.94,2.16,4.11,3.59,5.06c-0.38,0.54-0.77,1.37-1.04,2.04c-0.38-0.31-0.76-0.67-1.1-1.08l0,1.37l-4.57,0L148.12,631.8z
			 M144.86,632.47l1.66,0l0,9.9l-1.66,0l0-0.86l-4.9,0l0,1.08h-1.58l0-10.12h1.58l0,7.42l4.9,0L144.86,632.47z M141.78,637.66
			c-0.32,0.67-0.74,1.26-1.17,1.66c-0.11-0.38-0.36-0.97-0.56-1.31c0.45-0.34,0.92-0.95,1.26-1.58h-1.04l0-1.24h1.51l0-2.52l1.26,0
			l0,2.52h1.49l0,1.24h-1.28c0.47,0.45,1.26,1.22,1.5,1.48l-0.77,0.9c-0.18-0.31-0.58-0.81-0.94-1.28l0,2.11l-1.26,0L141.78,637.66z
			 M140.66,634.99c-0.07-0.45-0.29-1.19-0.54-1.73l0.95-0.29c0.27,0.52,0.5,1.24,0.59,1.69L140.66,634.99z M144.79,633.33
			c-0.31,0.63-0.59,1.21-0.85,1.64l-0.88-0.25c0.25-0.49,0.54-1.21,0.68-1.69L144.79,633.33z M153.95,638.91
			c0,0.85-0.11,1.37-0.65,1.71c-0.54,0.32-1.19,0.36-2.09,0.36c-0.07-0.58-0.34-1.39-0.58-1.91c0.49,0.02,1.01,0.02,1.17,0.02
			c0.16,0,0.22-0.07,0.22-0.22l0-2.56l-1.62,0l0,6.3l-1.98,0l0-6.3h-1.33l0-1.85l6.86,0L153.95,638.91z M152.31,631.37
			c-0.83-1.06-1.51-2.3-1.95-3.35c-0.41,1.03-1.08,2.27-1.89,3.35L152.31,631.37z"/>
		<path class="st2" d="M167.55,625.98c1.13,2.29,3.39,4.9,5.35,6.41c-0.58,0.45-1.4,1.31-1.82,1.93c-0.38-0.34-0.76-0.74-1.15-1.15
			v0.13c-0.2,5.44-0.41,7.56-1.04,8.32c-0.45,0.58-0.94,0.76-1.64,0.85c-0.61,0.09-1.66,0.09-2.72,0.05
			c-0.04-0.65-0.32-1.55-0.7-2.16c0.99,0.07,1.93,0.09,2.38,0.09c0.32,0,0.52-0.04,0.72-0.25c0.36-0.38,0.56-1.98,0.72-5.74l-3.55,0
			c-0.45,3.46-1.62,6.54-6.28,8.28c-0.27-0.61-0.9-1.49-1.42-1.98c4.07-1.32,5-3.67,5.36-6.3l-3.04,0v-1.26
			c-0.47,0.49-0.95,0.92-1.44,1.3c-0.4-0.49-1.31-1.35-1.84-1.73c2.25-1.51,4.23-4,5.31-6.74l2.31,0.67
			c-0.88,2.07-2.14,4.05-3.56,5.67l9.72,0c-1.42-1.66-2.77-3.64-3.77-5.53L167.55,625.98z"/>
		<path class="st2" d="M180.6,630.39c-0.43,0.94-0.9,1.85-1.46,2.72l2.9,0l0-2.07h2.16l0,2.07l5.17,0l0,5.58
			c0,0.99-0.2,1.53-0.92,1.85c-0.68,0.31-1.66,0.33-3.01,0.33c-0.09-0.59-0.4-1.4-0.67-1.94c0.83,0.04,1.78,0.04,2.03,0.04
			c0.29,0,0.38-0.07,0.38-0.31l0-3.51l-2.99,0l0,7.44h-2.16l0-7.44l-2.84,0l0,5.85h-2.14l0-5.2c-0.7,0.74-1.44,1.39-2.29,1.98
			c-0.27-0.54-0.83-1.4-1.21-1.89c2-1.3,3.53-3.3,4.64-5.49l-4.02,0v-2.05l4.93,0c0.34-0.88,0.61-1.75,0.81-2.61l2.21,0.5
			c-0.22,0.7-0.45,1.41-0.7,2.11l8.79,0v2.05L180.6,630.39z"/>
	</g>
	<path class="st3" d="M155.28,742.55l-57.14-61.28c15.97-14.9,35.3-22.51,57.14-22.51V742.55z"/>
	<path class="st4" d="M155.28,742.55l-56.06,62.27c-34.39-30.96-37.16-83.94-6.2-118.33c1.61-1.79,3.36-3.57,5.12-5.21
		L155.28,742.55L155.28,742.55z"/>
	<path class="st5" d="M155.28,742.55l77.13,32.74c-18.08,42.6-67.27,62.47-109.86,44.39c-12.83-3.64-16.65-8.27-23.33-14.86
		L155.28,742.55z"/>
	<path class="st6" d="M155.28,742.55l80.93-21.69c5.03,18.77,3.79,36.53-3.81,54.42l-77.13-32.74L155.28,742.55z"/>
	<path class="st7" d="M155.28,742.55v-83.79c39.06,0,70.82,24.38,80.93,62.1L155.28,742.55z"/>
	<g class="st1">
		<path class="st2" d="M172.13,704.44c0-2.12,0.86-3.85,2.16-5.17l0.65,0.34c-1.25,1.29-2.02,2.9-2.02,4.83
			c0,1.93,0.77,3.54,2.02,4.83l-0.65,0.34C172.99,708.29,172.13,706.56,172.13,704.44z"/>
		<path class="st2" d="M175.53,707.98c2.5-2.18,3.65-3.77,3.65-5.14c0-0.91-0.48-1.58-1.47-1.58c-0.65,0-1.22,0.4-1.65,0.92
			l-0.58-0.57c0.65-0.71,1.34-1.17,2.35-1.17c1.42,0,2.31,0.93,2.31,2.36c0,1.59-1.25,3.21-3.12,4.98c0.41-0.03,0.9-0.08,1.3-0.08
			h2.21v0.86h-5.01V707.98z"/>
		<path class="st2" d="M182.03,707.74h1.77v-5.94h-1.41v-0.63c0.71-0.13,1.22-0.32,1.65-0.57h0.76v7.14h1.6v0.83h-4.37V707.74z"/>
		<path class="st2" d="M187.9,707.96c0-0.45,0.33-0.77,0.72-0.77c0.39,0,0.72,0.33,0.72,0.77s-0.33,0.75-0.72,0.75
			C188.22,708.71,187.9,708.41,187.9,707.96z"/>
		<path class="st2" d="M191.08,707.74h1.77v-5.94h-1.41v-0.63c0.71-0.13,1.22-0.32,1.65-0.57h0.76v7.14h1.6v0.83h-4.37V707.74z"/>
		<path class="st2" d="M197,702.81c0-1.6,0.72-2.51,1.81-2.51c1.09,0,1.81,0.91,1.81,2.51c0,1.61-0.73,2.53-1.81,2.53
			C197.71,705.34,197,704.42,197,702.81z M199.87,702.81c0-1.28-0.42-1.89-1.05-1.89s-1.06,0.61-1.06,1.89
			c0,1.27,0.43,1.91,1.06,1.91S199.87,704.08,199.87,702.81z M203.45,700.3h0.66l-4.41,8.28h-0.66L203.45,700.3z M202.56,706.05
			c0-1.6,0.72-2.51,1.8-2.51c1.1,0,1.81,0.91,1.81,2.51c0,1.61-0.72,2.53-1.81,2.53C203.28,708.58,202.56,707.66,202.56,706.05z
			 M205.43,706.05c0-1.27-0.42-1.89-1.06-1.89c-0.63,0-1.05,0.62-1.05,1.89s0.42,1.91,1.05,1.91
			C205,707.96,205.43,707.32,205.43,706.05z"/>
	</g>
	<g class="st1">
		<path class="st2" d="M214.71,704.44c0,2.12-0.86,3.85-2.16,5.17l-0.65-0.34c1.25-1.29,2.02-2.9,2.02-4.83
			c0-1.93-0.77-3.54-2.02-4.83l0.65-0.34C213.85,700.6,214.71,702.32,214.71,704.44z"/>
	</g>
	<g class="st1">
		<path class="st2" d="M176.9,690.99c4.51-4.3,7.49-7.25,7.49-9.75c0-1.71-0.94-2.74-2.6-2.74c-1.26,0-2.29,0.84-3.18,1.8
			l-1.87-1.87c1.59-1.71,3.13-2.64,5.5-2.64c3.27,0,5.45,2.08,5.45,5.26c0,2.95-2.71,5.99-5.8,9.21c0.87-0.09,2.01-0.19,2.83-0.19
			h3.79v2.9h-11.6V690.99z"/>
		<path class="st2" d="M190.46,684.46c0-5.71,2.32-8.68,5.87-8.68s5.85,2.99,5.85,8.68c0,5.73-2.29,8.84-5.85,8.84
			S190.46,690.2,190.46,684.46z M198.93,684.46c0-4.68-1.1-5.99-2.6-5.99s-2.62,1.31-2.62,5.99c0,4.7,1.12,6.15,2.62,6.15
			S198.93,689.17,198.93,684.46z"/>
	</g>
	<g class="st1">
		<path class="st2" d="M209.29,680.98c-0.35,0.82-0.76,1.64-1.24,2.46v9.4h-1.66v-7.02c-0.45,0.56-0.91,1.07-1.39,1.5
			c-0.15-0.37-0.6-1.23-0.88-1.62c1.44-1.23,2.85-3.19,3.65-5.21L209.29,680.98z M212.96,685.82c0.37,2.97,1.08,4.95,2.15,5.08
			c0.31,0.03,0.47-0.64,0.57-2.13c0.29,0.35,1,0.75,1.3,0.91c-0.33,2.58-1.06,3.19-1.8,3.15c-2.26-0.21-3.31-2.73-3.8-6.8
			l-2.63,0.36l-0.23-1.54l2.7-0.36c-0.09-1.2-0.17-2.51-0.21-3.92h1.62c0.03,1.31,0.08,2.57,0.17,3.7l3.81-0.49l0.23,1.5
			L212.96,685.82z M215.35,683.45c-0.33-0.63-1.14-1.56-1.83-2.25l1.19-0.74c0.71,0.64,1.54,1.52,1.92,2.15L215.35,683.45z"/>
	</g>
	<g class="st1">
		<path class="st2" d="M206.38,770.44c0-2.12,0.86-3.85,2.16-5.17l0.65,0.34c-1.25,1.29-2.02,2.9-2.02,4.83
			c0,1.93,0.77,3.54,2.02,4.83l-0.65,0.34C207.24,774.29,206.38,772.56,206.38,770.44z"/>
		<path class="st2" d="M210.26,773.74h1.77v-5.94h-1.41v-0.63c0.71-0.13,1.22-0.32,1.65-0.57h0.76v7.14h1.6v0.83h-4.37V773.74z"/>
		<path class="st2" d="M215.86,770.56c0-2.77,0.97-4.11,2.49-4.11c1.51,0,2.48,1.35,2.48,4.11c0,2.77-0.97,4.15-2.48,4.15
			C216.83,774.71,215.86,773.33,215.86,770.56z M219.86,770.56c0-2.33-0.61-3.3-1.51-3.3c-0.91,0-1.52,0.98-1.52,3.3
			c0,2.35,0.61,3.36,1.52,3.36C219.25,773.92,219.86,772.91,219.86,770.56z"/>
		<path class="st2" d="M222.15,773.96c0-0.45,0.33-0.77,0.72-0.77c0.39,0,0.72,0.33,0.72,0.77s-0.33,0.75-0.72,0.75
			C222.47,774.71,222.15,774.41,222.15,773.96z"/>
		<path class="st2" d="M224.68,773.66l0.49-0.65c0.46,0.46,1.03,0.88,1.96,0.88c0.93,0,1.69-0.72,1.69-1.88
			c0-1.14-0.65-1.81-1.65-1.81c-0.53,0-0.87,0.16-1.33,0.47l-0.53-0.33l0.25-3.73h3.88v0.85h-3.01l-0.2,2.3
			c0.35-0.2,0.71-0.32,1.18-0.32c1.33,0,2.4,0.78,2.4,2.53s-1.26,2.74-2.61,2.74C225.97,774.71,225.21,774.19,224.68,773.66z"/>
		<path class="st2" d="M231.25,768.81c0-1.6,0.72-2.51,1.81-2.51c1.09,0,1.81,0.91,1.81,2.51c0,1.61-0.73,2.53-1.81,2.53
			C231.96,771.34,231.25,770.42,231.25,768.81z M234.12,768.81c0-1.28-0.42-1.89-1.05-1.89s-1.06,0.61-1.06,1.89
			c0,1.27,0.43,1.91,1.06,1.91S234.12,770.08,234.12,768.81z M237.7,766.3h0.66l-4.41,8.28h-0.66L237.7,766.3z M236.81,772.05
			c0-1.6,0.72-2.51,1.8-2.51c1.1,0,1.81,0.91,1.81,2.51c0,1.61-0.72,2.53-1.81,2.53C237.53,774.58,236.81,773.66,236.81,772.05z
			 M239.68,772.05c0-1.27-0.42-1.89-1.06-1.89c-0.63,0-1.05,0.62-1.05,1.89s0.42,1.91,1.05,1.91
			C239.25,773.96,239.68,773.32,239.68,772.05z"/>
	</g>
	<g class="st1">
		<path class="st2" d="M248.96,770.44c0,2.12-0.86,3.85-2.16,5.17l-0.65-0.34c1.25-1.29,2.02-2.9,2.02-4.83
			c0-1.93-0.77-3.54-2.02-4.83l0.65-0.34C248.1,766.6,248.96,768.32,248.96,770.44z"/>
	</g>
	<g class="st1">
		<path class="st2" d="M210.75,756.9l1.61-2.18c1.03,1.01,2.29,1.78,3.86,1.78c1.75,0,2.95-0.84,2.95-2.29
			c0-1.64-1.01-2.64-4.77-2.64v-2.48c3.18,0,4.21-1.05,4.21-2.5c0-1.31-0.84-2.08-2.32-2.08c-1.24,0-2.25,0.59-3.28,1.54l-1.75-2.11
			c1.5-1.31,3.16-2.15,5.19-2.15c3.34,0,5.61,1.64,5.61,4.54c0,1.83-1.08,3.09-2.88,3.81v0.12c1.94,0.52,3.44,1.94,3.44,4.16
			c0,3.09-2.78,4.89-6.08,4.89C213.81,759.31,211.96,758.28,210.75,756.9z"/>
		<path class="st2" d="M224.71,750.46c0-5.71,2.32-8.68,5.87-8.68s5.85,2.99,5.85,8.68c0,5.73-2.29,8.84-5.85,8.84
			S224.71,756.2,224.71,750.46z M233.18,750.46c0-4.68-1.1-5.99-2.6-5.99s-2.62,1.31-2.62,5.99c0,4.7,1.12,6.15,2.62,6.15
			S233.18,755.17,233.18,750.46z"/>
	</g>
	<g class="st1">
		<path class="st2" d="M243.53,746.98c-0.35,0.82-0.76,1.64-1.24,2.46v9.4h-1.66v-7.02c-0.45,0.56-0.91,1.07-1.39,1.5
			c-0.15-0.37-0.6-1.23-0.88-1.62c1.44-1.23,2.85-3.19,3.65-5.21L243.53,746.98z M247.2,751.82c0.38,2.97,1.08,4.95,2.15,5.08
			c0.31,0.03,0.47-0.64,0.58-2.13c0.29,0.35,1,0.75,1.3,0.91c-0.33,2.58-1.06,3.19-1.8,3.15c-2.26-0.21-3.32-2.73-3.8-6.8
			l-2.63,0.36l-0.23-1.54l2.7-0.36c-0.09-1.2-0.17-2.51-0.21-3.92h1.62c0.03,1.31,0.08,2.57,0.17,3.7l3.81-0.49l0.23,1.5
			L247.2,751.82z M249.59,749.45c-0.33-0.63-1.14-1.56-1.83-2.25l1.19-0.74c0.71,0.64,1.54,1.52,1.92,2.15L249.59,749.45z"/>
	</g>
	<g class="st1">
		<path class="st2" d="M142.06,808.86c0-2.12,0.86-3.85,2.16-5.17l0.65,0.34c-1.25,1.29-2.02,2.9-2.02,4.83
			c0,1.93,0.77,3.54,2.02,4.83l-0.65,0.34C142.92,812.71,142.06,810.98,142.06,808.86z"/>
		<path class="st2" d="M145.29,812.04l0.5-0.65c0.47,0.49,1.08,0.91,1.98,0.91c0.95,0,1.62-0.56,1.62-1.48c0-0.96-0.64-1.6-2.48-1.6
			v-0.76c1.64,0,2.21-0.66,2.21-1.52c0-0.77-0.52-1.26-1.35-1.28c-0.64,0.02-1.21,0.35-1.65,0.79l-0.53-0.63
			c0.6-0.55,1.3-0.96,2.23-0.96c1.34,0,2.31,0.72,2.31,2c0,0.97-0.58,1.61-1.42,1.92v0.04c0.94,0.22,1.69,0.93,1.69,2.02
			c0,1.42-1.14,2.27-2.55,2.27C146.6,813.13,145.82,812.61,145.29,812.04z"/>
		<path class="st2" d="M151.54,808.98c0-2.77,0.97-4.11,2.49-4.11c1.51,0,2.48,1.35,2.48,4.11c0,2.77-0.97,4.15-2.48,4.15
			C152.51,813.13,151.54,811.75,151.54,808.98z M155.54,808.98c0-2.33-0.61-3.3-1.51-3.3c-0.91,0-1.52,0.98-1.52,3.3
			c0,2.35,0.61,3.36,1.52,3.36C154.93,812.34,155.54,811.33,155.54,808.98z"/>
		<path class="st2" d="M157.83,812.38c0-0.45,0.33-0.77,0.72-0.77c0.39,0,0.72,0.33,0.72,0.77s-0.33,0.75-0.72,0.75
			C158.15,813.13,157.83,812.83,157.83,812.38z"/>
		<path class="st2" d="M160.37,812.04l0.5-0.65c0.47,0.49,1.08,0.91,1.98,0.91c0.95,0,1.62-0.56,1.62-1.48c0-0.96-0.64-1.6-2.48-1.6
			v-0.76c1.64,0,2.21-0.66,2.21-1.52c0-0.77-0.52-1.26-1.35-1.28c-0.64,0.02-1.21,0.35-1.65,0.79l-0.53-0.63
			c0.6-0.55,1.3-0.96,2.23-0.96c1.34,0,2.31,0.72,2.31,2c0,0.97-0.58,1.61-1.42,1.92v0.04c0.94,0.22,1.69,0.93,1.69,2.02
			c0,1.42-1.14,2.27-2.55,2.27C161.67,813.13,160.89,812.61,160.37,812.04z"/>
		<path class="st2" d="M166.93,807.23c0-1.6,0.72-2.51,1.81-2.51c1.09,0,1.81,0.91,1.81,2.51c0,1.61-0.73,2.53-1.81,2.53
			C167.65,809.76,166.93,808.84,166.93,807.23z M169.8,807.23c0-1.28-0.42-1.89-1.05-1.89c-0.63,0-1.06,0.61-1.06,1.89
			c0,1.27,0.43,1.91,1.06,1.91C169.37,809.14,169.8,808.5,169.8,807.23z M173.38,804.72h0.66l-4.41,8.28h-0.66L173.38,804.72z
			 M172.49,810.47c0-1.6,0.72-2.51,1.8-2.51c1.1,0,1.81,0.91,1.81,2.51c0,1.61-0.72,2.53-1.81,2.53
			C173.21,813,172.49,812.08,172.49,810.47z M175.36,810.47c0-1.27-0.42-1.89-1.06-1.89c-0.63,0-1.05,0.62-1.05,1.89
			s0.42,1.91,1.05,1.91C174.94,812.38,175.36,811.74,175.36,810.47z"/>
	</g>
	<g class="st1">
		<path class="st2" d="M184.64,808.86c0,2.12-0.86,3.85-2.16,5.17l-0.65-0.34c1.25-1.29,2.02-2.9,2.02-4.83
			c0-1.93-0.77-3.54-2.02-4.83l0.65-0.34C183.78,805.02,184.64,806.74,184.64,808.86z"/>
	</g>
	<g class="st1">
		<path class="st2" d="M153.7,793.21h-7.39v-2.36l6.46-10.32h4.14v10.04h2.03v2.64h-2.03v4.19h-3.21V793.21z M153.7,790.57v-3.37
			c0-1.01,0.07-2.6,0.12-3.6h-0.09c-0.42,0.91-0.89,1.78-1.38,2.71l-2.69,4.26H153.7z"/>
		<path class="st2" d="M160.39,788.89c0-5.71,2.32-8.68,5.87-8.68c3.56,0,5.85,2.99,5.85,8.68c0,5.73-2.29,8.84-5.85,8.84
			C162.71,797.73,160.39,794.62,160.39,788.89z M168.86,788.89c0-4.68-1.1-5.99-2.6-5.99s-2.62,1.31-2.62,5.99
			c0,4.7,1.12,6.15,2.62,6.15S168.86,793.59,168.86,788.89z"/>
	</g>
	<g class="st1">
		<path class="st2" d="M179.21,785.4c-0.35,0.82-0.76,1.64-1.24,2.46v9.4h-1.66v-7.02c-0.45,0.56-0.91,1.07-1.39,1.5
			c-0.15-0.37-0.6-1.23-0.88-1.62c1.44-1.23,2.85-3.19,3.65-5.21L179.21,785.4z M182.88,790.24c0.37,2.97,1.08,4.95,2.15,5.08
			c0.31,0.03,0.47-0.64,0.57-2.13c0.29,0.35,1,0.75,1.3,0.91c-0.33,2.58-1.06,3.19-1.8,3.15c-2.26-0.21-3.31-2.73-3.8-6.8
			l-2.63,0.36l-0.23-1.54l2.7-0.36c-0.09-1.2-0.17-2.51-0.21-3.92h1.62c0.03,1.31,0.08,2.57,0.17,3.7l3.81-0.49l0.23,1.5
			L182.88,790.24z M185.27,787.87c-0.33-0.63-1.14-1.56-1.83-2.25l1.19-0.74c0.71,0.64,1.54,1.52,1.92,2.15L185.27,787.87z"/>
	</g>
	<g class="st1">
		<path class="st2" d="M66.88,752.06c0-2.12,0.86-3.85,2.16-5.17l0.65,0.34c-1.25,1.29-2.02,2.9-2.02,4.83
			c0,1.93,0.77,3.54,2.02,4.83l-0.65,0.34C67.74,755.91,66.88,754.18,66.88,752.06z"/>
		<path class="st2" d="M70.28,755.6c2.5-2.18,3.65-3.77,3.65-5.14c0-0.91-0.48-1.58-1.47-1.58c-0.65,0-1.22,0.4-1.65,0.92
			l-0.58-0.57c0.65-0.71,1.34-1.17,2.35-1.17c1.42,0,2.31,0.93,2.31,2.36c0,1.59-1.25,3.21-3.12,4.98c0.41-0.03,0.9-0.08,1.3-0.08
			h2.21v0.86h-5.01V755.6z"/>
		<path class="st2" d="M80.69,749.51c-0.31-0.38-0.79-0.61-1.28-0.61c-1.09,0-2.01,0.84-2.05,3.31c0.49-0.6,1.18-0.97,1.81-0.97
			c1.35,0,2.21,0.84,2.21,2.5c0,1.54-1.04,2.59-2.28,2.59c-1.53,0-2.66-1.32-2.66-3.94c0-3.12,1.4-4.31,2.94-4.31
			c0.83,0,1.42,0.35,1.86,0.81L80.69,749.51z M80.44,753.75c0-1.08-0.47-1.76-1.43-1.76c-0.5,0-1.11,0.28-1.63,1.02
			c0.12,1.65,0.72,2.55,1.72,2.55C79.86,755.56,80.44,754.83,80.44,753.75z"/>
		<path class="st2" d="M82.65,755.58c0-0.45,0.33-0.77,0.72-0.77s0.72,0.33,0.72,0.77s-0.33,0.75-0.72,0.75
			S82.65,756.03,82.65,755.58z"/>
		<path class="st2" d="M85.19,755.25l0.5-0.65c0.47,0.49,1.08,0.91,1.98,0.91c0.95,0,1.62-0.56,1.62-1.48c0-0.96-0.64-1.6-2.48-1.6
			v-0.76c1.64,0,2.21-0.66,2.21-1.52c0-0.77-0.52-1.26-1.35-1.28c-0.64,0.02-1.21,0.35-1.65,0.79l-0.53-0.63
			c0.6-0.55,1.3-0.96,2.23-0.96c1.34,0,2.31,0.72,2.31,2c0,0.97-0.58,1.61-1.42,1.92v0.04c0.94,0.22,1.69,0.93,1.69,2.02
			c0,1.42-1.14,2.27-2.55,2.27C86.49,756.33,85.71,755.81,85.19,755.25z"/>
		<path class="st2" d="M91.75,750.43c0-1.6,0.72-2.51,1.81-2.51c1.09,0,1.81,0.91,1.81,2.51c0,1.61-0.73,2.53-1.81,2.53
			C92.47,752.96,91.75,752.04,91.75,750.43z M94.62,750.43c0-1.28-0.42-1.89-1.05-1.89c-0.63,0-1.06,0.61-1.06,1.89
			c0,1.27,0.43,1.91,1.06,1.91C94.19,752.34,94.62,751.7,94.62,750.43z M98.2,747.92h0.66l-4.41,8.28h-0.66L98.2,747.92z
			 M97.31,753.67c0-1.6,0.72-2.51,1.8-2.51c1.1,0,1.81,0.91,1.81,2.51c0,1.61-0.72,2.53-1.81,2.53
			C98.03,756.2,97.31,755.28,97.31,753.67z M100.18,753.67c0-1.27-0.42-1.89-1.06-1.89c-0.63,0-1.05,0.62-1.05,1.89
			s0.42,1.91,1.05,1.91C99.76,755.58,100.18,754.94,100.18,753.67z"/>
	</g>
	<g class="st1">
		<path class="st2" d="M109.46,752.06c0,2.12-0.86,3.85-2.16,5.17l-0.65-0.34c1.25-1.29,2.02-2.9,2.02-4.83
			c0-1.93-0.77-3.54-2.02-4.83l0.65-0.34C108.6,748.22,109.46,749.94,109.46,752.06z"/>
	</g>
	<g class="st1">
		<path class="st2" d="M71.24,738.56l1.59-2.2c0.98,0.96,2.2,1.75,3.81,1.75c1.8,0,3.06-1.05,3.06-2.95c0-1.87-1.17-2.92-2.92-2.92
			c-1.03,0-1.59,0.26-2.6,0.91l-1.57-1.01l0.47-8.42h9.26v2.88h-6.29l-0.33,3.67c0.7-0.3,1.29-0.47,2.08-0.47
			c2.9,0,5.33,1.64,5.33,5.24c0,3.72-2.85,5.87-6.06,5.87C74.35,740.93,72.52,739.85,71.24,738.56z"/>
		<path class="st2" d="M85.2,732.08c0-5.71,2.32-8.68,5.87-8.68c3.56,0,5.85,2.99,5.85,8.68c0,5.73-2.29,8.84-5.85,8.84
			C87.52,740.93,85.2,737.82,85.2,732.08z M93.67,732.08c0-4.68-1.1-5.99-2.6-5.99s-2.62,1.31-2.62,5.99c0,4.7,1.12,6.15,2.62,6.15
			S93.67,736.79,93.67,732.08z"/>
	</g>
	<g class="st1">
		<path class="st2" d="M104.03,728.6c-0.35,0.82-0.76,1.64-1.24,2.46v9.4h-1.66v-7.02c-0.45,0.56-0.91,1.07-1.39,1.5
			c-0.15-0.37-0.6-1.23-0.88-1.62c1.44-1.23,2.85-3.19,3.65-5.21L104.03,728.6z M107.7,733.44c0.37,2.97,1.08,4.95,2.15,5.08
			c0.31,0.03,0.47-0.64,0.57-2.13c0.29,0.35,1,0.75,1.3,0.91c-0.33,2.58-1.06,3.19-1.8,3.15c-2.26-0.21-3.31-2.73-3.8-6.8
			l-2.63,0.36l-0.23-1.54l2.7-0.36c-0.09-1.2-0.17-2.51-0.21-3.92h1.62c0.03,1.31,0.08,2.57,0.17,3.7l3.81-0.49l0.23,1.5
			L107.7,733.44z M110.09,731.07c-0.33-0.63-1.14-1.56-1.83-2.25l1.19-0.74c0.71,0.64,1.54,1.52,1.92,2.15L110.09,731.07z"/>
	</g>
	<g class="st1">
		<path class="st2" d="M105.75,695.9c0-1.79,0.73-3.25,1.83-4.37l0.55,0.29c-1.06,1.09-1.71,2.45-1.71,4.09
			c0,1.63,0.65,2.99,1.71,4.09l-0.55,0.29C106.48,699.15,105.75,697.69,105.75,695.9z"/>
		<path class="st2" d="M109.03,698.69h1.5v-5.02h-1.19v-0.53c0.6-0.11,1.03-0.27,1.4-0.48h0.64v6.04h1.35v0.7h-3.69V698.69z"/>
		<path class="st2" d="M114.13,698.69h1.5v-5.02h-1.19v-0.53c0.6-0.11,1.03-0.27,1.4-0.48h0.64v6.04h1.35v0.7h-3.69V698.69z"/>
		<path class="st2" d="M119.1,698.88c0-0.38,0.28-0.65,0.61-0.65s0.61,0.28,0.61,0.65c0,0.38-0.28,0.63-0.61,0.63
			S119.1,699.25,119.1,698.88z"/>
		<path class="st2" d="M121.39,697.72c0-0.9,0.62-1.52,1.24-1.86v-0.05c-0.5-0.34-0.91-0.84-0.91-1.55c0-1.03,0.79-1.71,1.85-1.71
			c1.15,0,1.85,0.73,1.85,1.77c0,0.71-0.5,1.31-0.9,1.63V696c0.59,0.34,1.14,0.84,1.14,1.76c0,0.98-0.85,1.75-2.11,1.75
			C122.3,699.51,121.39,698.76,121.39,697.72z M124.86,697.75c0-0.9-0.83-1.24-1.78-1.63c-0.54,0.35-0.92,0.88-0.92,1.53
			c0,0.72,0.6,1.24,1.41,1.24C124.33,698.88,124.86,698.42,124.86,697.75z M124.7,694.37c0-0.66-0.42-1.2-1.15-1.2
			c-0.62,0-1.07,0.44-1.07,1.09c0,0.81,0.73,1.16,1.52,1.47C124.46,695.33,124.7,694.87,124.7,694.37z"/>
		<path class="st2" d="M126.8,694.52c0-1.35,0.61-2.12,1.53-2.12c0.92,0,1.53,0.77,1.53,2.12c0,1.36-0.62,2.14-1.53,2.14
			C127.4,696.66,126.8,695.88,126.8,694.52z M129.22,694.52c0-1.08-0.36-1.6-0.89-1.6s-0.9,0.51-0.9,1.6c0,1.07,0.37,1.62,0.9,1.62
			S129.22,695.6,129.22,694.52z M132.25,692.4h0.56l-3.73,7h-0.56L132.25,692.4z M131.5,697.26c0-1.35,0.61-2.12,1.52-2.12
			c0.93,0,1.53,0.77,1.53,2.12c0,1.36-0.61,2.14-1.53,2.14C132.11,699.4,131.5,698.62,131.5,697.26z M133.93,697.26
			c0-1.08-0.36-1.6-0.9-1.6c-0.53,0-0.89,0.52-0.89,1.6c0,1.07,0.36,1.62,0.89,1.62C133.57,698.88,133.93,698.33,133.93,697.26z"/>
	</g>
	<g class="st1">
		<path class="st2" d="M141.78,695.9c0,1.79-0.73,3.25-1.83,4.37l-0.55-0.29c1.06-1.09,1.71-2.45,1.71-4.09c0-1.64-0.65-3-1.71-4.09
			l0.55-0.29C141.06,692.65,141.78,694.11,141.78,695.9z"/>
	</g>
	<g class="st1">
		<path class="st2" d="M109.76,679.35c0-5.56,2.77-7.97,5.81-7.97c1.82,0,3.16,0.77,4.05,1.7l-1.58,1.78
			c-0.53-0.59-1.44-1.07-2.31-1.07c-1.72,0-3.14,1.28-3.26,5.04c0.83-1.03,2.1-1.64,3.08-1.64c2.51,0,4.31,1.44,4.31,4.49
			c0,2.99-2.15,4.86-4.71,4.86C112.31,686.53,109.76,684.35,109.76,679.35z M112.55,680.89c0.28,2.47,1.29,3.4,2.53,3.4
			c1.13,0,2.04-0.87,2.04-2.61c0-1.64-0.85-2.39-2.15-2.39C114.21,679.29,113.3,679.71,112.55,680.89z"/>
		<path class="st2" d="M121.58,678.88c0-4.94,2-7.51,5.08-7.51c3.08,0,5.06,2.59,5.06,7.51c0,4.96-1.98,7.65-5.06,7.65
			C123.58,686.53,121.58,683.84,121.58,678.88z M128.91,678.88c0-4.05-0.95-5.18-2.25-5.18s-2.27,1.13-2.27,5.18
			c0,4.07,0.97,5.32,2.27,5.32S128.91,682.95,128.91,678.88z"/>
	</g>
	<g class="st1">
		<path class="st2" d="M137.67,675.87c-0.3,0.71-0.66,1.42-1.08,2.13v8.13h-1.43v-6.07c-0.39,0.49-0.79,0.92-1.2,1.29
			c-0.13-0.32-0.52-1.06-0.76-1.4c1.25-1.06,2.46-2.76,3.16-4.51L137.67,675.87z M140.84,680.06c0.32,2.57,0.94,4.28,1.86,4.39
			c0.27,0.02,0.4-0.55,0.5-1.84c0.25,0.3,0.87,0.65,1.12,0.79c-0.29,2.23-0.91,2.76-1.56,2.73c-1.95-0.19-2.87-2.36-3.28-5.89
			l-2.28,0.31l-0.2-1.33l2.34-0.31c-0.08-1.04-0.15-2.17-0.19-3.39h1.4c0.02,1.13,0.07,2.22,0.15,3.2l3.3-0.43l0.2,1.3
			L140.84,680.06z M142.91,678.01c-0.29-0.54-0.98-1.35-1.58-1.94l1.03-0.64c0.61,0.56,1.33,1.32,1.67,1.86L142.91,678.01z"/>
	</g>
	<line class="st8" x1="96.03" y1="1053.72" x2="233.96" y2="1053.72"/>
	<line class="st8" x1="96.03" y1="1053.72" x2="96.03" y2="1050.74"/>
	<line class="st8" x1="150.08" y1="1053.72" x2="150.08" y2="1050.74"/>
	<line class="st8" x1="192.02" y1="1053.72" x2="192.02" y2="1050.74"/>
	<line class="st8" x1="233.96" y1="1053.72" x2="233.96" y2="1050.74"/>
	<g class="st1">
		<path d="M88.62,1054.6c0-2.21,0.99-3.36,2.5-3.36c1.52,0,2.49,1.16,2.49,3.36c0,2.22-0.98,3.43-2.49,3.43
			C89.61,1058.03,88.62,1056.82,88.62,1054.6z M92.23,1054.6c0-1.81-0.47-2.32-1.11-2.32s-1.12,0.51-1.12,2.32
			c0,1.82,0.48,2.38,1.12,2.38S92.23,1056.42,92.23,1054.6z"/>
	</g>
	<g class="st1">
		<path d="M88.61,1033.33c1.93-1.67,3.19-2.81,3.19-3.78c0-0.66-0.4-1.06-1.11-1.06c-0.54,0-0.98,0.33-1.36,0.7l-0.8-0.73
			c0.68-0.66,1.34-1.02,2.35-1.02c1.4,0,2.33,0.81,2.33,2.04c0,1.14-1.16,2.32-2.48,3.57c0.37-0.04,0.86-0.07,1.21-0.07h1.62v1.12
			h-4.95V1033.33z"/>
	</g>
	<g class="st1">
		<path d="M91.54,1008.69h-3.15v-0.92l2.75-4h1.77v3.89h0.87v1.02h-0.87v1.62h-1.37V1008.69z M91.54,1007.66v-1.31
			c0-0.39,0.03-1.01,0.05-1.4h-0.04c-0.18,0.35-0.38,0.69-0.59,1.05l-1.15,1.65H91.54z"/>
	</g>
	<g class="st1">
		<path d="M88.67,983.43c0-2.49,1.37-3.57,2.86-3.57c0.9,0,1.56,0.34,2,0.76l-0.78,0.8c-0.26-0.26-0.71-0.48-1.14-0.48
			c-0.85,0-1.55,0.57-1.61,2.26c0.41-0.46,1.04-0.73,1.52-0.73c1.24,0,2.13,0.64,2.13,2.01c0,1.34-1.06,2.18-2.33,2.18
			C89.93,986.65,88.67,985.67,88.67,983.43z M90.05,984.12c0.14,1.11,0.64,1.52,1.25,1.52c0.56,0,1.01-0.39,1.01-1.17
			c0-0.73-0.42-1.07-1.06-1.07C90.86,983.4,90.42,983.59,90.05,984.12z"/>
	</g>
	<g class="st1">
		<path d="M88.65,961.05c0-0.81,0.59-1.32,1.27-1.65v-0.04c-0.56-0.37-0.98-0.85-0.98-1.54c0-1.08,0.95-1.77,2.23-1.77
			c1.31,0,2.15,0.71,2.15,1.78c0,0.64-0.48,1.17-0.95,1.47v0.04c0.67,0.34,1.24,0.83,1.24,1.7c0,1.02-0.99,1.79-2.48,1.79
			C89.71,962.85,88.65,962.1,88.65,961.05z M92.23,961.01c0-0.65-0.69-0.89-1.64-1.24c-0.39,0.28-0.68,0.68-0.68,1.14
			c0,0.61,0.55,1,1.24,1C91.78,961.9,92.23,961.59,92.23,961.01z M92.11,957.92c0-0.54-0.36-0.92-0.98-0.92
			c-0.5,0-0.9,0.29-0.9,0.82c0,0.6,0.58,0.88,1.35,1.15C91.92,958.65,92.11,958.3,92.11,957.92z"/>
	</g>
	<g class="st1">
		<path d="M83.21,937.85h1.59v-4.07h-1.34v-0.82c0.74-0.13,1.25-0.3,1.72-0.56h1.09v5.46h1.39v1.08h-4.44V937.85z"/>
		<path d="M88.71,935.63c0-2.21,0.99-3.36,2.5-3.36c1.52,0,2.49,1.16,2.49,3.36c0,2.22-0.98,3.43-2.49,3.43
			C89.69,939.06,88.71,937.85,88.71,935.63z M92.32,935.63c0-1.81-0.47-2.32-1.11-2.32s-1.12,0.51-1.12,2.32
			c0,1.82,0.48,2.38,1.12,2.38S92.32,937.45,92.32,935.63z"/>
	</g>
	<line class="st8" x1="96.03" y1="1053.72" x2="96.03" y2="934.75"/>
	<line class="st8" x1="96.03" y1="1053.72" x2="99.18" y2="1053.72"/>
	<line class="st8" x1="96.03" y1="1029.92" x2="99.18" y2="1029.92"/>
	<line class="st8" x1="96.03" y1="1006.13" x2="99.18" y2="1006.13"/>
	<line class="st8" x1="96.03" y1="982.33" x2="99.18" y2="982.33"/>
	<line class="st8" x1="96.03" y1="958.54" x2="99.18" y2="958.54"/>
	<line class="st8" x1="96.03" y1="934.75" x2="99.18" y2="934.75"/>
	<polygon class="st9" points="155.96,946.64 186.16,946.64 186.16,946.64 	"/>
	<rect x="114.02" y="970.44" class="st10" width="30.2" height="47.59"/>
	<rect x="197.9" y="958.54" class="st10" width="30.2" height="95.18"/>
	<rect x="155.96" y="946.64" class="st10" width="30.2" height="107.07"/>
	<rect x="114.02" y="1018.03" class="st11" width="30.2" height="35.69"/>
	<g class="st1">
		<path class="st2" d="M204.96,1073.5c2.76-2.41,4.03-4.16,4.03-5.67c0-1.01-0.53-1.74-1.62-1.74c-0.72,0-1.34,0.44-1.82,1.02
			l-0.64-0.62c0.72-0.78,1.48-1.29,2.59-1.29c1.57,0,2.55,1.03,2.55,2.6c0,1.75-1.38,3.54-3.44,5.49c0.46-0.04,1-0.08,1.44-0.08
			h2.43v0.95h-5.53V1073.5z"/>
		<path class="st2" d="M211.56,1069.72c0-3.06,1.07-4.53,2.75-4.53c1.67,0,2.74,1.49,2.74,4.53c0,3.06-1.07,4.58-2.74,4.58
			C212.62,1074.31,211.56,1072.78,211.56,1069.72z M215.97,1069.72c0-2.57-0.67-3.65-1.67-3.65c-1.01,0-1.68,1.08-1.68,3.65
			c0,2.59,0.67,3.71,1.68,3.71C215.3,1073.43,215.97,1072.32,215.97,1069.72z"/>
		<path class="st2" d="M218.04,1073.5c2.76-2.41,4.03-4.16,4.03-5.67c0-1.01-0.53-1.74-1.62-1.74c-0.72,0-1.34,0.44-1.82,1.02
			l-0.64-0.62c0.72-0.78,1.48-1.29,2.59-1.29c1.57,0,2.55,1.03,2.55,2.6c0,1.75-1.38,3.54-3.44,5.49c0.46-0.04,1-0.08,1.44-0.08
			h2.43v0.95h-5.53V1073.5z"/>
	</g>
	<g class="st1">
		<path class="st2" d="M224.4,1073.11l0.55-0.72c0.52,0.54,1.19,1.01,2.18,1.01c1.04,0,1.79-0.62,1.79-1.63
			c0-1.06-0.71-1.76-2.73-1.76v-0.84c1.81,0,2.43-0.73,2.43-1.68c0-0.85-0.58-1.39-1.49-1.42c-0.71,0.02-1.33,0.38-1.82,0.88
			l-0.59-0.7c0.66-0.61,1.44-1.06,2.46-1.06c1.47,0,2.55,0.79,2.55,2.21c0,1.07-0.64,1.77-1.57,2.12v0.05
			c1.04,0.24,1.87,1.03,1.87,2.23c0,1.57-1.26,2.51-2.82,2.51C225.84,1074.31,224.97,1073.73,224.4,1073.11z"/>
	</g>
	<g class="st1">
		<path class="st2" d="M244.98,1072.33h-4.34v2.75h-0.9v-2.75h-5.54v-0.86h1.97v-3.21h3.57v-1.82h-2.92
			c-0.54,0.92-1.17,1.74-1.82,2.36c-0.17-0.14-0.54-0.44-0.77-0.56c1.13-0.98,2.13-2.53,2.7-4.14l0.9,0.22
			c-0.17,0.42-0.36,0.85-0.55,1.26h7.15v0.86h-3.79v1.82h3.51v0.84h-3.51v2.38h4.34V1072.33z M239.74,1071.46v-2.38h-2.69v2.38
			H239.74z"/>
	</g>
	<g class="st1">
		<path class="st2" d="M157.67,1073.5c2.76-2.41,4.03-4.16,4.03-5.67c0-1.01-0.53-1.74-1.62-1.74c-0.72,0-1.34,0.44-1.82,1.02
			l-0.64-0.62c0.72-0.78,1.48-1.29,2.59-1.29c1.57,0,2.55,1.03,2.55,2.6c0,1.75-1.38,3.54-3.44,5.49c0.46-0.04,1-0.08,1.44-0.08
			h2.43v0.95h-5.53V1073.5z"/>
		<path class="st2" d="M164.27,1069.72c0-3.06,1.07-4.53,2.75-4.53c1.67,0,2.74,1.49,2.74,4.53c0,3.06-1.07,4.58-2.74,4.58
			C165.33,1074.31,164.27,1072.78,164.27,1069.72z M168.68,1069.72c0-2.57-0.67-3.65-1.67-3.65c-1.01,0-1.68,1.08-1.68,3.65
			c0,2.59,0.67,3.71,1.68,3.71C168.01,1073.43,168.68,1072.32,168.68,1069.72z"/>
		<path class="st2" d="M170.75,1073.5c2.76-2.41,4.03-4.16,4.03-5.67c0-1.01-0.53-1.74-1.62-1.74c-0.72,0-1.34,0.44-1.82,1.02
			l-0.64-0.62c0.72-0.78,1.48-1.29,2.59-1.29c1.57,0,2.55,1.03,2.55,2.6c0,1.75-1.38,3.54-3.44,5.49c0.46-0.04,1-0.08,1.44-0.08
			h2.43v0.95h-5.53V1073.5z"/>
	</g>
	<g class="st1">
		<path class="st2" d="M177.29,1073.5c2.76-2.41,4.03-4.16,4.03-5.67c0-1.01-0.53-1.74-1.62-1.74c-0.72,0-1.34,0.44-1.82,1.02
			l-0.64-0.62c0.72-0.78,1.48-1.29,2.59-1.29c1.57,0,2.55,1.03,2.55,2.6c0,1.75-1.38,3.54-3.44,5.49c0.46-0.04,1-0.08,1.44-0.08
			h2.43v0.95h-5.53V1073.5z"/>
	</g>
	<g class="st1">
		<path class="st2" d="M197.69,1072.33h-4.34v2.75h-0.9v-2.75h-5.54v-0.86h1.97v-3.21h3.57v-1.82h-2.92
			c-0.54,0.92-1.17,1.74-1.82,2.36c-0.17-0.14-0.54-0.44-0.77-0.56c1.13-0.98,2.13-2.53,2.7-4.14l0.9,0.22
			c-0.17,0.42-0.36,0.85-0.55,1.26h7.15v0.86h-3.79v1.82h3.51v0.84h-3.51v2.38h4.34V1072.33z M192.45,1071.46v-2.38h-2.69v2.38
			H192.45z"/>
	</g>
	<g class="st1">
		<path class="st2" d="M110.39,1073.5c2.76-2.41,4.03-4.16,4.03-5.67c0-1.01-0.53-1.74-1.62-1.74c-0.72,0-1.34,0.44-1.82,1.02
			l-0.64-0.62c0.72-0.78,1.48-1.29,2.59-1.29c1.57,0,2.55,1.03,2.55,2.6c0,1.75-1.38,3.54-3.44,5.49c0.46-0.04,1-0.08,1.44-0.08
			h2.43v0.95h-5.53V1073.5z"/>
		<path class="st2" d="M116.99,1069.72c0-3.06,1.07-4.53,2.75-4.53c1.67,0,2.73,1.49,2.73,4.53c0,3.06-1.07,4.58-2.73,4.58
			C118.06,1074.31,116.99,1072.78,116.99,1069.72z M121.4,1069.72c0-2.57-0.67-3.65-1.67-3.65c-1.01,0-1.68,1.08-1.68,3.65
			c0,2.59,0.67,3.71,1.68,3.71C120.73,1073.43,121.4,1072.32,121.4,1069.72z"/>
		<path class="st2" d="M123.47,1073.5c2.76-2.41,4.03-4.16,4.03-5.67c0-1.01-0.53-1.74-1.62-1.74c-0.72,0-1.34,0.44-1.82,1.02
			l-0.64-0.62c0.72-0.78,1.48-1.29,2.59-1.29c1.57,0,2.55,1.03,2.55,2.6c0,1.75-1.38,3.54-3.44,5.49c0.46-0.04,1-0.08,1.44-0.08H129
			v0.95h-5.53V1073.5z"/>
	</g>
	<g class="st1">
		<path class="st2" d="M130.54,1073.24h1.95v-6.56h-1.56v-0.7c0.78-0.14,1.34-0.35,1.82-0.62h0.84v7.88h1.76v0.91h-4.82V1073.24z"/>
	</g>
	<g class="st1">
		<path class="st2" d="M150.41,1072.33h-4.34v2.75h-0.9v-2.75h-5.54v-0.86h1.97v-3.21h3.57v-1.82h-2.91
			c-0.54,0.92-1.18,1.74-1.82,2.36c-0.17-0.14-0.54-0.44-0.77-0.56c1.13-0.98,2.13-2.53,2.7-4.14l0.9,0.22
			c-0.17,0.42-0.36,0.85-0.55,1.26h7.15v0.86h-3.79v1.82h3.51v0.84h-3.51v2.38h4.34V1072.33z M145.17,1071.46v-2.38h-2.69v2.38
			H145.17z"/>
	</g>
	<rect class="st0" width="314" height="224"/>
	<g class="st1">
		<path class="st2" d="M146.28,28.6c0,0-0.04,0.58-0.07,0.86c-0.29,3.28-0.65,4.75-1.22,5.33c-0.5,0.5-1.04,0.65-1.8,0.7
			c-0.63,0.06-1.73,0.04-2.86,0.02c-0.04-0.61-0.32-1.42-0.7-1.96c1.12,0.09,2.25,0.11,2.74,0.11c0.38,0,0.59-0.02,0.79-0.18
			c0.32-0.27,0.59-1.17,0.79-2.95l-4.74,0c-0.9,2.32-2.81,4.07-7.34,5.06c-0.16-0.56-0.68-1.4-1.12-1.87
			c3.51-0.68,5.18-1.75,6.03-3.19l-5.26,0l0-1.93l5.96,0c0.07-0.4,0.14-0.81,0.2-1.24l-4.95,0l0-7.69l12.95,0l0,7.69l-5.74,0
			c-0.05,0.43-0.13,0.83-0.2,1.24L146.28,28.6z M134.87,22.68l3.17,0l0-1.24l-3.17,0L134.87,22.68z M134.87,25.59l3.17,0l0-1.26
			l-3.17,0L134.87,25.59z M143.42,21.43l-3.22,0l0,1.24l3.22,0L143.42,21.43z M143.42,24.33l-3.22,0l0,1.26l3.22,0L143.42,24.33z"/>
		<path class="st2" d="M162.72,25.01c-0.54,2.5-1.29,4.43-2.41,5.92c1.87,0.9,3.6,1.87,4.79,2.73l-1.64,2.02
			c-1.15-0.92-2.92-1.98-4.88-2.99c-1.94,1.53-4.61,2.4-8.25,2.94c-0.2-0.68-0.68-1.57-1.14-2.14c3.02-0.34,5.28-0.92,6.97-1.96
			c-0.97-0.45-1.95-0.86-2.9-1.24l-0.31,0.67l-2.16-0.79c0.68-1.41,1.49-3.22,2.28-5.15l-4.03,0l0-2.18l4.92,0
			c0.54-1.4,1.06-2.79,1.49-4.03l2.36,0.4c-0.43,1.15-0.9,2.39-1.4,3.64l8.97,0v2.18L162.72,25.01z M155.53,25.01
			c-0.47,1.17-0.95,2.3-1.4,3.37c1.22,0.43,2.58,0.95,3.93,1.55c1.03-1.22,1.73-2.83,2.21-4.92L155.53,25.01z"/>
		<path class="st2" d="M171.32,32.15c1.24-0.25,2.54-0.54,3.78-0.81l0.2,2.11c-2.72,0.63-5.65,1.28-7.87,1.75l-0.59-2.2
			c0.67-0.11,1.42-0.25,2.25-0.42l0-13.61l2.23,0l0,5.13l3.57,0v2.09l-3.57,0L171.32,32.15z M180.88,33.23
			c0.67,0,0.77-0.61,0.9-3.06c0.5,0.38,1.41,0.79,2,0.94c-0.21,3.04-0.77,4.21-2.7,4.21l-2.48,0c-2.09,0-2.67-0.72-2.67-3.28
			l0-13.07l2.21,0l0,5.8c1.39-0.65,2.74-1.41,3.73-2.09l1.48,1.87c-1.57,0.85-3.46,1.62-5.2,2.29l0,5.22c0,1.03,0.09,1.17,0.78,1.17
			L180.88,33.23z"/>
	</g>
	<rect y="227" class="st0" width="314" height="377"/>
	<g class="st1">
		<path class="st2" d="M131.08,252.86c-0.38,0.99-0.76,1.96-1.06,2.67l2.09,0l0,1.94l-9.25,0l0-1.94l2.05,0
			c-0.05-0.72-0.33-1.84-0.63-2.67l1.75-0.36c0.38,0.81,0.67,1.89,0.74,2.63l-1.69,0.4l4.72,0l-1.46-0.38
			c0.27-0.76,0.59-1.89,0.74-2.72L131.08,252.86z M131.91,252.37l-8.68,0l0-1.85l3.29,0l0-1.6h2.07l0,1.6l3.31,0L131.91,252.37z
			 M123.88,258.64l7.44,0l0,6.91h-2.09l0-0.83l-3.37,0l0,0.9h-1.98L123.88,258.64z M125.86,260.49l0,2.38l3.37,0l0-2.38
			L125.86,260.49z M139.63,250.71c-0.63,1.73-1.42,3.8-2.14,5.33c1.53,1.62,1.8,3.02,1.8,4.21c0,1.31-0.29,2.2-0.97,2.68
			c-0.34,0.23-0.77,0.38-1.22,0.45c-0.41,0.05-0.94,0.05-1.44,0.04c0-0.58-0.18-1.49-0.52-2.09c0.4,0.02,0.74,0.04,1.01,0.02
			c0.25,0,0.49-0.05,0.67-0.14c0.32-0.2,0.43-0.61,0.43-1.22c0-0.97-0.4-2.27-1.84-3.67c0.52-1.28,1.1-3.11,1.53-4.48h-2.18l0,13.77
			l-2.09,0l-0.01-15.79l5.08,0l0.32-0.07L139.63,250.71z"/>
		<path class="st2" d="M151.95,258.43c-0.49,0.27-0.97,0.54-1.49,0.79l5.28,0l0,6.28l-2.09,0v-0.4l-6.88,0v0.43l-1.98,0l0-4.14
			c-1.01,0.31-2.03,0.58-3.08,0.83c-0.18-0.47-0.67-1.37-1.01-1.82c2.4-0.45,4.77-1.12,6.99-1.98l-6.5,0l0-1.67l6.43,0l0-0.88
			l-4.5,0l0-1.62l4.5,0l0-0.83l-5.47,0l0-4.05l14.22,0l0,4.05l-6.68,0l0,0.83l3.67,0l0,1.08c0.63-0.49,1.22-1.01,1.73-1.55
			l1.69,1.03c-0.67,0.68-1.42,1.35-2.23,1.94l2.7,0l0,1.67L151.95,258.43z M146.16,250.83l-2,0l0,1.12l2,0L146.16,250.83z
			 M146.81,260.74l-0.05,0.02v0.7l6.88,0v-0.72L146.81,260.74z M153.64,263.6l0-0.81l-6.88,0l0,0.81L153.64,263.6z M148.13,251.95
			l2.03,0l0-1.12l-2.03,0L148.13,251.95z M149.68,256.76h1.51c0.49-0.29,0.97-0.58,1.42-0.88l-2.94,0L149.68,256.76z M152.12,251.95
			h2.09l0-1.12h-2.09L152.12,251.95z"/>
		<path class="st2" d="M164.67,250.4l3.78,0l0,3.08l-0.94,0l0,1.37l-2.88,0v0.76l2.63,0l0,1.42l-2.63,0v0.77l3.62,0l0,1.64l-9.25,0
			l0-1.64l3.67,0v-0.77l-2.67,0v-1.42l2.67,0l0-0.76l-2.84,0v-1.37h-0.88l0-3.08l3.67,0v-1.51l2.05,0V250.4z M159.95,260.05l7.54,0
			l0,5.37h-2.03v-0.63l-3.58,0l0,0.79h-1.93L159.95,260.05z M166.47,252l-5.63,0v1.33l1.84,0v-0.97h1.96v0.97l1.84,0L166.47,252z
			 M161.88,261.65l0,1.53l3.58,0v-1.53L161.88,261.65z M171.24,260.75l-2.03,0l0-10.06l2.03,0L171.24,260.75z M175,249.09l0,13.88
			c0,1.19-0.22,1.8-0.94,2.12c-0.7,0.36-1.82,0.43-3.29,0.43c-0.09-0.61-0.4-1.6-0.7-2.21c1.04,0.05,2.07,0.04,2.43,0.04
			c0.31,0,0.43-0.11,0.43-0.4l0-13.86L175,249.09z"/>
		<path class="st2" d="M186.14,248.79c1.93,2.75,4.85,5.04,7.71,6.19c-0.52,0.56-1.01,1.26-1.38,1.93
			c-0.92-0.47-1.86-1.06-2.76-1.71v1.24l-8.97,0v-1.26c-0.88,0.65-1.84,1.24-2.79,1.77c-0.29-0.52-0.88-1.3-1.35-1.75
			c3.1-1.5,5.98-4.22,7.33-6.41L186.14,248.79z M179.56,258.22l11.42,0l0,7.38l-2.2,0v-0.67l-7.11,0v0.67h-2.11L179.56,258.22z
			 M188.83,254.55c-1.49-1.17-2.83-2.47-3.69-3.65c-0.85,1.21-2.11,2.49-3.58,3.66L188.83,254.55z M181.66,260.11l0,2.93l7.11,0
			l0-2.93L181.66,260.11z"/>
	</g>
	<path class="st12" d="M148.73,100.12l-46.06,8.95C97.73,83.63,114.34,59,139.78,54.06c3.05-0.59,5.84-0.86,8.95-0.86
		C148.73,53.2,148.73,100.12,148.73,100.12z"/>
	<path class="st13" d="M159.47,111.74V64.82c25.91,0,46.92,21.01,46.92,46.92s-21.01,46.92-46.92,46.92
		c-22.8,0-41.71-15.58-46.06-37.97C113.41,120.69,159.47,111.74,159.47,111.74z"/>
	<path class="st2" d="M209.92,94.09c-4.44,0-7.94,1.32-10.3,3.74s-3.52,5.87-3.52,9.97c0,1.7,0.76,4.99,1.37,6.92
		c-0.26,0.22-0.52,0.36-0.77,0.74c-0.42,0.65-0.73,1.55-0.6,2.64c0.37,3.14,2.34,4.26,2.99,4.59c0.25,1.47,1.01,3.28,2.25,5.14
		c1.33,1.99,3.17,3.9,5.41,4.97c0.04,0.02,0.07,0.06,0.11,0.08c0.81,0.96,1.95,1.65,3.3,1.65s2.49-0.68,3.3-1.65
		c0.04-0.02,0.07-0.06,0.11-0.08c2.23-1.08,4.03-2.98,5.36-4.97c1.23-1.85,1.97-3.67,2.22-5.14c0.65-0.31,2.67-1.4,3.05-4.56
		c0.13-1.09-0.21-2.02-0.63-2.66c-0.25-0.38-0.51-0.52-0.77-0.74c0.62-1.96,1.43-5,1.43-8.32c0-1.53-0.31-3.62-1.35-5.44
		c-0.97-1.71-2.73-3.12-5.22-3.3c-1.13-1.71-3.57-3.57-7.75-3.57L209.92,94.09z M209.92,95.85c3.95,0,5.84,1.83,6.51,3.05
		c0.15,0.28,0.45,0.46,0.77,0.47c2.15,0,3.33,1.04,4.15,2.47c0.82,1.44,1.13,3.29,1.13,4.56c0,3.26-0.89,6.47-1.48,8.3
		c-0.12,0.39,0.04,0.81,0.38,1.02c0.15,0.09,0.5,0.37,0.74,0.74s0.41,0.82,0.33,1.48c-0.34,2.83-2.31,3.38-2.31,3.38
		c-0.33,0.11-0.57,0.4-0.6,0.74c-0.1,0.97-0.84,2.94-2.06,4.78s-2.9,3.59-4.75,4.45c-0.14,0.07-0.27,0.17-0.36,0.3
		c-0.47,0.71-1.28,1.18-2.2,1.18s-1.72-0.47-2.2-1.18c-0.09-0.13-0.21-0.24-0.36-0.3c-1.86-0.86-3.55-2.61-4.78-4.45
		s-1.99-3.81-2.09-4.78c-0.04-0.33-0.26-0.6-0.58-0.71c0,0-1.97-0.59-2.31-3.43c-0.08-0.66,0.09-1.12,0.33-1.48s0.56-0.61,0.71-0.71
		c0.36-0.21,0.52-0.65,0.38-1.04c-0.53-1.53-1.43-5.74-1.43-6.87c0-3.77,1.04-6.74,3.02-8.76c1.98-2.03,4.94-3.19,9.04-3.19
		L209.92,95.85z M216.6,102.55c0,0-0.05,0.02-0.08,0.03c-0.02,0-0.04,0.02-0.05,0.03c-0.07,0.02-0.13,0.05-0.19,0.08
		c-0.02,0-0.04,0.02-0.05,0.03v0.03c0,0-0.05,0.03-0.08,0.05c-0.02,0.02-0.04,0.03-0.05,0.05c-0.01,0.02-0.02,0.04-0.03,0.05
		c-0.04,0.05-0.08,0.11-0.11,0.16v0.03c0,0-0.02,0.04-0.03,0.05c-0.07,0.14-0.42,0.75-1.35,1.51c-1.04,0.85-2.68,1.73-5.27,1.73
		c-1.65,0-3.72,0.01-5.49,0.66c-0.89,0.32-1.72,0.82-2.33,1.59s-0.96,1.8-0.96,3.02c0,0.32,0.16,0.61,0.44,0.77
		c0.27,0.16,0.61,0.16,0.89,0c0.27-0.16,0.44-0.46,0.44-0.77c0-0.9,0.22-1.47,0.58-1.92s0.89-0.8,1.57-1.04
		c1.36-0.49,3.27-0.55,4.89-0.55c2.99,0,5.1-1.04,6.4-2.12c0.44-0.36,0.77-0.71,1.04-1.04c0.85,1.37,2.22,3.96,2.22,6.67
		c0,0.32,0.16,0.61,0.44,0.77c0.27,0.16,0.61,0.16,0.89,0c0.27-0.16,0.44-0.46,0.44-0.77c0-4.37-2.64-7.95-3.1-8.54v-0.03
		c0,0-0.07-0.13-0.08-0.14c-0.02-0.02-0.03-0.04-0.05-0.05l-0.03-0.03c0,0-0.02-0.04-0.03-0.05h-0.03
		c-0.07-0.08-0.15-0.14-0.25-0.19l-0.03-0.03c0,0-0.04-0.02-0.05-0.03h-0.03c0,0-0.04-0.02-0.05-0.03h-0.38L216.6,102.55z
		 M205.34,116.06c-0.73,0-1.32,0.59-1.32,1.32s0.59,1.32,1.32,1.32s1.32-0.59,1.32-1.32S206.07,116.06,205.34,116.06z M215,116.06
		c-0.73,0-1.32,0.59-1.32,1.32s0.59,1.32,1.32,1.32s1.32-0.59,1.32-1.32S215.73,116.06,215,116.06z"/>
	<path class="st2" d="M92.42,94.09c-4.64,0-8.56,1.42-11.32,4.12c-2.75,2.7-4.28,6.65-4.28,11.51c0,2.67,0.68,5.33,0.77,8.05
		s-0.33,5.47-2.53,8.46c-0.14,0.19-0.19,0.43-0.15,0.66s0.18,0.44,0.37,0.57c0,0,0.99,0.66,2.94,1.37c1.9,0.69,4.8,1.46,8.73,1.9
		h0.03c1.98,2.37,4.24,3.79,6.54,3.79s4.58-1.44,6.56-3.82c3.96-0.44,6.92-1.18,8.87-1.87c2.01-0.7,3.05-1.35,3.05-1.35
		c0.21-0.13,0.36-0.35,0.4-0.6c0.04-0.24-0.02-0.5-0.18-0.69c-2.24-2.88-2.7-5.36-2.66-7.88c0.04-2.53,0.66-5.11,0.66-7.91
		s-0.57-5.91-2.14-8.38c-1.52-2.39-4.1-4.11-7.66-4.23c-1.06-1.08-3.82-3.71-7.99-3.71L92.42,94.09z M92.42,95.85
		c3.58,0,6.14,2.49,7,3.38c0.16,0.18,0.39,0.27,0.63,0.27c3.23,0,5.22,1.39,6.54,3.46s1.87,4.86,1.87,7.44s-0.61,5.1-0.66,7.88
		c-0.04,2.52,0.53,5.23,2.44,8.08c-0.36,0.2-0.56,0.34-1.87,0.8c-1.58,0.55-3.87,1.18-6.92,1.62c1.36-2.22,3.49-6.46,3.49-11.59
		c0-6.73-3.86-10.62-4.92-11.56c-0.01-0.01-0.04-0.04-0.05-0.05c-0.13-0.2-0.34-0.34-0.58-0.38h-0.03c-0.09-0.01-0.18-0.01-0.27,0
		h-0.05c-0.07,0.02-0.13,0.05-0.19,0.08c-0.05,0.02-0.09,0.05-0.14,0.08c-0.04,0.02-0.08,0.05-0.11,0.08
		c-0.01,0.02-0.02,0.04-0.03,0.05c-0.02,0-0.04,0.02-0.05,0.03v0.03l-0.03,0.03c0,0-0.02,0.04-0.03,0.05s-0.02,0.02-0.03,0.03v0.05
		c0,0-0.02,0.02-0.03,0.03v0.05l-0.03,0.03c0,0-1.04,3.93-5.99,5.47c-1.58,0.49-4.09,0.84-6.26,1.9c-2.17,1.06-4.04,3.05-4.04,6.4
		c0,4.07,1.76,7.26,3.13,9.15c-2.82-0.43-4.95-1.01-6.4-1.54c-1.27-0.46-1.48-0.63-1.81-0.82c1.92-3.01,2.43-5.96,2.33-8.65
		c-0.1-2.96-0.77-5.63-0.77-7.99c0-4.5,1.36-7.94,3.74-10.27s5.82-3.6,10.11-3.6L92.42,95.85z M99.53,107.55
		c1.29,1.37,3.65,4.54,3.65,9.64c0,6.64-3.97,11.86-4.15,12.09c-0.02,0.03-0.04,0.05-0.05,0.08c-0.02,0.03-0.04,0.05-0.05,0.08
		c-1.82,2.28-3.76,3.32-5.41,3.32s-3.52-1.02-5.3-3.19c-0.02-0.04-0.05-0.08-0.08-0.11c-0.01-0.02-0.01-0.04-0.03-0.05
		c-0.02-0.02-0.03-0.04-0.05-0.05l-0.03-0.03c0,0-0.07-0.1-0.08-0.11c-0.03-0.02-0.05-0.04-0.08-0.05c-0.44-0.43-4.01-4.1-4.01-9.59
		c0-2.75,1.24-3.95,3.05-4.83c1.81-0.88,4.16-1.22,5.99-1.79c3.92-1.22,5.82-3.85,6.65-5.41H99.53z M88.68,116.94
		c-0.73,0-1.32,0.59-1.32,1.32s0.59,1.32,1.32,1.32s1.32-0.59,1.32-1.32S89.41,116.94,88.68,116.94z M98.35,116.94
		c-0.73,0-1.32,0.59-1.32,1.32s0.59,1.32,1.32,1.32s1.32-0.59,1.32-1.32S99.08,116.94,98.35,116.94z"/>
	<g class="st1">
		<path class="st2" d="M198.81,173h-14.05v-5.19h20.76v3.8c-7.09,8.65-8.23,14.77-8.73,26.62h-6.29
			C191.05,187.72,192.99,181.1,198.81,173z"/>
		<path class="st2" d="M209.31,194.64c8.14-7.76,13.5-13.08,13.5-17.59c0-3.08-1.69-4.94-4.68-4.94c-2.28,0-4.13,1.52-5.74,3.25
			l-3.38-3.38c2.87-3.08,5.65-4.77,9.92-4.77c5.91,0,9.83,3.75,9.83,9.49c0,5.32-4.89,10.8-10.46,16.62
			c1.56-0.17,3.63-0.34,5.1-0.34h6.83v5.23h-20.93V194.64z"/>
	</g>
	<g class="st1">
		<path class="st2" d="M233.16,187.87c0-2.36,1.19-3.7,2.86-3.7c1.69,0,2.86,1.34,2.86,3.7s-1.17,3.75-2.86,3.75
			C234.34,191.62,233.16,190.23,233.16,187.87z M237.25,187.87c0-1.72-0.54-2.39-1.23-2.39c-0.68,0-1.22,0.67-1.22,2.39
			s0.54,2.42,1.22,2.42C236.72,190.29,237.25,189.59,237.25,187.87z M242.81,184.17h1.39l-6.41,12.18h-1.38L242.81,184.17z
			 M241.7,192.61c0-2.36,1.2-3.72,2.88-3.72c1.68,0,2.86,1.36,2.86,3.72c0,2.34-1.19,3.73-2.86,3.73
			C242.9,196.35,241.7,194.96,241.7,192.61z M245.8,192.61c0-1.74-0.52-2.39-1.22-2.39s-1.23,0.65-1.23,2.39
			c0,1.71,0.54,2.42,1.23,2.42S245.8,194.32,245.8,192.61z"/>
	</g>
	<g class="st1">
		<path class="st2" d="M70.19,194.64c8.14-7.76,13.5-13.08,13.5-17.59c0-3.08-1.69-4.94-4.68-4.94c-2.28,0-4.13,1.52-5.74,3.25
			l-3.38-3.38c2.87-3.08,5.65-4.77,9.91-4.77c5.91,0,9.83,3.75,9.83,9.49c0,5.32-4.89,10.8-10.46,16.62
			c1.56-0.17,3.63-0.34,5.1-0.34h6.83v5.23H70.19V194.64z"/>
		<path class="st2" d="M95.21,190.47c0-3.75,2.49-6.16,5.36-7.68v-0.17c-2.36-1.73-4.13-3.97-4.13-7.17c0-5.02,4.01-8.23,9.41-8.23
			c5.53,0,9.07,3.29,9.07,8.27c0,3-2.03,5.44-4.01,6.83v0.21c2.83,1.6,5.23,3.84,5.23,7.93c0,4.72-4.18,8.35-10.51,8.35
			C99.68,198.82,95.21,195.36,95.21,190.47z M110.36,190.26c0-3.04-2.91-4.13-6.92-5.78c-1.65,1.31-2.87,3.16-2.87,5.32
			c0,2.83,2.32,4.64,5.23,4.64C108.46,194.43,110.36,192.96,110.36,190.26z M109.85,175.91c0-2.53-1.52-4.3-4.13-4.3
			c-2.11,0-3.8,1.35-3.8,3.84c0,2.79,2.45,4.09,5.7,5.36C109.05,179.29,109.85,177.64,109.85,175.91z"/>
	</g>
	<g class="st1">
		<path class="st2" d="M118.89,187.87c0-2.36,1.19-3.7,2.86-3.7c1.69,0,2.86,1.34,2.86,3.7s-1.17,3.75-2.86,3.75
			C120.07,191.62,118.89,190.23,118.89,187.87z M122.98,187.87c0-1.72-0.54-2.39-1.23-2.39c-0.68,0-1.22,0.67-1.22,2.39
			s0.54,2.42,1.22,2.42C122.45,190.29,122.98,189.59,122.98,187.87z M128.54,184.17h1.39l-6.41,12.18h-1.38L128.54,184.17z
			 M127.43,192.61c0-2.36,1.2-3.72,2.88-3.72s2.86,1.36,2.86,3.72c0,2.34-1.19,3.73-2.86,3.73S127.43,194.96,127.43,192.61z
			 M131.53,192.61c0-1.74-0.52-2.39-1.22-2.39s-1.23,0.65-1.23,2.39c0,1.71,0.54,2.42,1.23,2.42S131.53,194.32,131.53,192.61z"/>
	</g>
	<g class="st1">
		<path class="st2" d="M210.13,152.79c0,0-0.03,0.51-0.06,0.76c-0.25,2.88-0.57,4.18-1.08,4.68c-0.44,0.44-0.92,0.57-1.58,0.62
			c-0.55,0.05-1.52,0.03-2.52,0.02c-0.03-0.54-0.29-1.25-0.62-1.72c0.98,0.08,1.98,0.09,2.41,0.09c0.33,0,0.52-0.02,0.7-0.16
			c0.29-0.24,0.52-1.03,0.7-2.6h-4.16c-0.79,2.04-2.47,3.58-6.46,4.45c-0.14-0.49-0.6-1.23-0.98-1.65c3.09-0.6,4.56-1.53,5.3-2.8
			h-4.62v-1.69h5.24c0.06-0.35,0.13-0.71,0.17-1.09h-4.35v-6.76h11.38v6.76h-5.05c-0.05,0.38-0.11,0.73-0.17,1.09H210.13z
			 M200.09,147.59h2.79v-1.09h-2.79V147.59z M200.09,150.15h2.79v-1.11h-2.79V150.15z M207.61,146.49h-2.83v1.09h2.83V146.49z
			 M207.61,149.04h-2.83v1.11h2.83V149.04z"/>
		<path class="st2" d="M227.02,156.65v1.79h-9.84v-1.79h4.22v-3.16h-3.05v-1.76h3.05v-2.59h-1.74c-0.24,0.82-0.55,1.58-0.89,2.18
			c-0.38-0.24-1.23-0.67-1.68-0.85c0.16-0.29,0.32-0.59,0.47-0.92l-0.9,0.41c-0.1-0.47-0.33-1.17-0.6-1.82v10.81h-1.88v-11.31
			c-0.1,1.33-0.35,3.07-0.71,4.19l-1.39-0.51c0.38-1.04,0.67-2.82,0.78-4.11l1.33,0.19v-3.23h1.88v2.99l0.92-0.38
			c0.32,0.62,0.65,1.38,0.87,1.99c0.4-1.16,0.68-2.52,0.84-3.86l1.83,0.25c-0.11,0.74-0.24,1.49-0.4,2.2h1.27v-3.1h1.88v3.1h3.23
			v1.77h-3.23v2.59h2.9v1.76h-2.9v3.16H227.02z"/>
	</g>
	<g class="st1">
		<path class="st2" d="M90.97,149.64c-0.47,2.2-1.14,3.89-2.12,5.21c1.65,0.79,3.17,1.65,4.21,2.41l-1.44,1.77
			c-1.01-0.81-2.56-1.74-4.29-2.63c-1.71,1.34-4.05,2.1-7.25,2.58c-0.17-0.6-0.6-1.38-1-1.88c2.66-0.3,4.64-0.81,6.12-1.72
			c-0.85-0.4-1.71-0.76-2.55-1.09l-0.27,0.58l-1.9-0.7c0.6-1.23,1.31-2.83,2.01-4.53h-3.54v-1.91h4.32
			c0.48-1.23,0.93-2.45,1.31-3.54l2.07,0.35c-0.38,1.01-0.79,2.1-1.23,3.2h7.88v1.91H90.97z M84.66,149.64
			c-0.41,1.03-0.84,2.03-1.23,2.96c1.08,0.38,2.26,0.84,3.45,1.36c0.9-1.08,1.52-2.48,1.95-4.32H84.66z"/>
		<path class="st2" d="M109.24,156.65v1.79H99.4v-1.79h4.23v-3.16h-3.05v-1.76h3.05v-2.59h-1.74c-0.24,0.82-0.55,1.58-0.89,2.18
			c-0.38-0.24-1.23-0.67-1.68-0.85c0.16-0.29,0.32-0.59,0.47-0.92l-0.9,0.41c-0.09-0.47-0.33-1.17-0.6-1.82v10.81h-1.88v-11.31
			c-0.09,1.33-0.35,3.07-0.71,4.19l-1.39-0.51c0.38-1.04,0.66-2.82,0.78-4.11l1.33,0.19v-3.23h1.88v2.99l0.92-0.38
			c0.32,0.62,0.65,1.38,0.87,1.99c0.4-1.16,0.68-2.52,0.84-3.86l1.84,0.25c-0.11,0.74-0.24,1.49-0.4,2.2h1.27v-3.1h1.88v3.1h3.23
			v1.77h-3.23v2.59h2.9v1.76h-2.9v3.16H109.24z"/>
	</g>
	<rect x="142.56" y="912.19" class="st10" width="6.06" height="14.65"/>
	<rect x="205.56" y="912.19" class="st11" width="6.06" height="14.65"/>
	<g class="st1">
		<path class="st2" d="M222.32,921.97c-0.26-0.31-0.88-0.91-1.38-1.37v3h-0.88v-3.06c-0.59,0.92-1.33,1.78-2.03,2.32
			c-0.14-0.2-0.41-0.49-0.6-0.65c0.86-0.56,1.82-1.67,2.42-2.73h-2.13v-0.77h2.34v-1.24h-2.38v-0.77h3.92l-0.61-0.2
			c0.22-0.48,0.49-1.22,0.61-1.74l0.79,0.24c-0.25,0.6-0.52,1.26-0.74,1.7h1.6v0.77h-2.31v1.24h2.24v0.77h-2.24v0.29
			c0.47,0.34,1.62,1.28,1.89,1.52L222.32,921.97z M223.15,914.73h-5.3v-0.74h2.22v-1.2h0.88v1.2h2.21V914.73z M219.05,916.69
			c-0.04-0.47-0.24-1.19-0.47-1.74l0.7-0.19c0.26,0.54,0.47,1.25,0.53,1.73L219.05,916.69z M228.56,917.58h-1.36v6.01h-0.88v-6.01
			h-1.8v0.31c0,1.78-0.22,4.19-1.91,5.84c-0.11-0.2-0.42-0.5-0.61-0.62c1.51-1.49,1.68-3.55,1.68-5.23v-4.19l0.7,0.22
			c1.22-0.28,2.52-0.66,3.29-1.04l0.72,0.66c-1.03,0.46-2.52,0.84-3.86,1.1v2.11h4.03V917.58z"/>
		<path class="st2" d="M240.24,920.77h-4.88v2.93h-0.91v-2.93h-4.8v-0.85h4.8v-0.83h0.56c-0.16-0.18-0.41-0.43-0.56-0.58
			c1.25-0.7,2.22-1.85,2.66-3.29l0.89,0.18c-0.16,0.47-0.35,0.91-0.58,1.32c0.91,0.62,2.05,1.47,2.63,2.04l-0.67,0.64
			c-0.52-0.54-1.51-1.36-2.4-1.99c-0.48,0.67-1.07,1.24-1.71,1.68h0.1v0.83h4.88V920.77z M234.02,918.54
			c-0.34-0.35-0.95-0.84-1.51-1.26c-0.58,0.95-1.31,1.73-2.12,2.29c-0.14-0.17-0.47-0.52-0.67-0.68c1.28-0.79,2.27-2.1,2.75-3.67
			l0.9,0.19c-0.13,0.42-0.3,0.82-0.48,1.2c0.61,0.41,1.34,0.97,1.74,1.33L234.02,918.54z M239.92,915.11h-9.97v-0.85h4.49v-1.54
			h0.91v1.54h4.57V915.11z"/>
	</g>
	<g class="st1">
		<path class="st2" d="M163.85,914.85v5.61h-0.91v-0.68h-3.44v3.89h-0.92v-3.89h-3.43v0.74h-0.88v-5.67h4.31v-2.13h0.92v2.13H163.85
			z M158.58,918.9v-3.18h-3.43v3.18H158.58z M162.94,918.9v-3.18h-3.44v3.18H162.94z"/>
		<path class="st2" d="M167.95,921.23c0.58,0.86,1.67,1.28,3.05,1.34c1.32,0.05,4,0.01,5.43-0.08c-0.11,0.22-0.25,0.64-0.3,0.91
			c-1.32,0.06-3.8,0.08-5.13,0.04c-1.54-0.06-2.65-0.49-3.43-1.42c-0.53,0.5-1.07,1.01-1.66,1.52l-0.53-0.89
			c0.53-0.37,1.14-0.86,1.7-1.37v-3.03h-1.56v-0.84h2.42V921.23z M167.62,915.54c-0.37-0.6-1.2-1.44-1.95-2.01l0.67-0.52
			c0.77,0.55,1.62,1.37,1.99,1.97L167.62,915.54z M172.72,912.68c0.92,1.22,2.39,2.36,3.73,2.94c-0.19,0.23-0.41,0.56-0.53,0.83
			c-1.31-0.66-2.77-1.83-3.6-2.89c-0.74,1.02-2.1,2.21-3.53,2.94c-0.11-0.23-0.32-0.56-0.5-0.76c1.45-0.71,2.87-1.95,3.54-3.06
			H172.72z M170.85,919.08c-0.43,0.94-1.12,1.87-1.77,2.47c-0.14-0.13-0.47-0.38-0.66-0.5c0.67-0.55,1.27-1.37,1.64-2.18
			L170.85,919.08z M176.08,918.36h-3.27v2.76c0,0.44-0.1,0.66-0.41,0.79c-0.32,0.13-0.8,0.14-1.55,0.14
			c-0.04-0.24-0.16-0.56-0.25-0.78c0.5,0.01,1,0.01,1.14,0c0.14,0,0.19-0.04,0.19-0.17v-2.75h-3.09v-0.76h3.09v-1.08h-1.74v-0.74
			h4.4v0.74h-1.79v1.08h3.27V918.36z M175.35,921.44c-0.3-0.62-1-1.58-1.64-2.28l0.68-0.35c0.65,0.66,1.38,1.59,1.68,2.23
			L175.35,921.44z"/>
	</g>
	<path class="st14" d="M65.95,336.58L65.95,336.58l-0.01-0.01v-38.2c-4.21,0-7.79,0.57-11.8,1.87l0,0.01
		c-7.22,2.35-13.1,6.39-17.88,12.29c-9.03,11.15-11.1,25.04-5.74,38.34l-0.01,0c1.58,3.91,3.45,7.01,6.16,10.24
		c13.56,16.16,37.66,18.27,53.82,4.71L65.95,336.58z"/>
	<path class="st14" d="M190.34,349.01l-36.1-12.48v-0.01l0.71-38.19c-11.81-0.22-21.75,4.19-29.51,13.1
		c-13.86,15.91-12.21,40.04,3.7,53.9c3.18,2.78,6.25,4.7,10.13,6.35c6.99,2.97,14.08,3.79,21.56,2.48l0,0
		C174.95,371.68,185.65,362.57,190.34,349.01z"/>
	<path class="st14" d="M275.02,317.78l-33.21,18.87v-0.01l0,0l-0.4-38.18c-4.21,0.04-7.78,0.64-11.78,1.99
		c-20,6.73-30.75,28.39-24.02,48.39l0,0c3.77,11.2,11.27,19.06,22.27,23.37c19.64,7.7,41.8-1.99,49.5-21.63l-0.01,0
		c1.54-3.93,2.32-7.46,2.57-11.67C280.39,331.33,278.77,324.38,275.02,317.78z"/>
	<path class="st14" d="M142.92,467.35c-3.01-2.95-5.96-5.05-9.74-6.93l-17,34.21l0,0v-0.01l0,0.01h0l-4.37-37.95
		c-14.25,1.64-25.47,10.11-30.94,23.37l0.01,0c-1.61,3.91-2.45,7.42-2.78,11.63c-1.64,21.04,14.1,39.41,35.13,41.04l0-0.01
		c11.78,0.92,21.96-2.9,30.23-11.34C158.23,506.31,157.99,482.12,142.92,467.35z"/>
	<path class="st14" d="M213.39,457.64l-9.65,36.96l0,0l-2.24-38.13c-7.58,0.44-14.29,2.87-20.41,7.37
		c-11.56,8.51-17.08,21.43-15.24,35.66c0.54,4.19,1.56,7.66,3.37,11.47c9.03,19.06,31.82,27.19,50.88,18.15l0,0
		c10.68-5.06,17.61-13.44,20.6-24.87C246.03,483.84,233.8,462.97,213.39,457.64z"/>
	<g class="st1">
		<path class="st2" d="M63.45,392.7c-0.69,0.46-1.53,0.91-2.25,1.25c0.82,0.44,1.8,0.74,2.96,0.91c-0.31,0.31-0.7,0.9-0.89,1.29
			c-2.83-0.54-4.54-1.83-5.56-3.99c-0.48,0.35-1.02,0.68-1.61,0.97v1.19c0.89-0.11,1.81-0.23,2.72-0.35l0.05,1.27
			c-1.92,0.27-3.95,0.54-5.45,0.76l-0.23-1.32c0.39-0.04,0.86-0.1,1.35-0.15v-0.76c-0.72,0.25-1.49,0.44-2.25,0.57
			c-0.19-0.34-0.57-0.87-0.86-1.17c1.5-0.2,3.04-0.6,4.21-1.14h-3.98v-1.28h5.3v-0.69c-0.16,0-0.34,0-0.55,0
			c-0.07-0.31-0.26-0.68-0.39-0.94c0.31,0.01,0.64,0.01,0.74,0.01c0.12,0,0.16-0.04,0.16-0.15v-0.56h-1.12v1.99h-1.38v-1.99h-1.02
			v1.69H52.2v-2.67h2.25v-0.48h-2.79v-1.09h0.83c-0.27-0.16-0.63-0.37-0.84-0.48c0.45-0.52,0.83-1.25,1.06-1.96l1.19,0.3
			c-0.07,0.19-0.14,0.37-0.22,0.56h0.78v-0.87h1.38v0.87h2.26v1.04h-2.26v0.54h2.63v1.09h-2.63v0.48h2.41v1.54
			c0,0.52-0.09,0.76-0.45,0.93c-0.18,0.08-0.4,0.12-0.64,0.14h1.44v0.71h5.31v1.28h-1.36L63.45,392.7z M54.44,385.86v-0.54h-1.29
			c-0.11,0.19-0.22,0.38-0.34,0.54H54.44z M60.45,388.49h-1.44v-4.54h1.44V388.49z M59.15,392.02c0.26,0.44,0.59,0.83,0.97,1.17
			c0.64-0.33,1.39-0.78,1.93-1.17H59.15z M63.41,388.96c0,0.69-0.14,1.04-0.63,1.24c-0.48,0.21-1.14,0.22-2.08,0.22
			c-0.07-0.38-0.29-0.93-0.48-1.28c0.61,0.03,1.27,0.03,1.46,0.01c0.21,0,0.26-0.05,0.26-0.22v-5.42h1.47V388.96z"/>
		<path class="st2" d="M68.38,392.97c0.56,0.91,1.58,1.28,3,1.33c1.59,0.07,4.66,0.03,6.47-0.11c-0.18,0.38-0.42,1.17-0.5,1.63
			c-1.63,0.08-4.37,0.11-6,0.04c-1.68-0.07-2.79-0.45-3.68-1.51c-0.6,0.53-1.2,1.06-1.95,1.63l-0.79-1.69
			c0.59-0.34,1.27-0.79,1.87-1.25v-2.88h-1.57v-1.48h3.15V392.97z M67.44,386.86c-0.42-0.65-1.39-1.55-2.19-2.15l1.2-0.98
			c0.82,0.57,1.81,1.42,2.28,2.06L67.44,386.86z M69.82,387.47c-0.33-0.25-0.98-0.59-1.35-0.76c0.84-0.75,1.54-1.95,1.93-3.16
			l1.51,0.34c-0.12,0.35-0.26,0.71-0.42,1.05h0.95v-1.51h1.61v1.51h2.97v1.38h-2.97v1.16h3.53v1.35h-8.76v-1.35H69.82z
			 M70.75,386.31c-0.29,0.44-0.59,0.83-0.9,1.16h2.6v-1.16H70.75z M69.92,393.53v-3.96h6.85v3.96H69.92z M71.5,392.24h3.58v-1.39
			H71.5V392.24z"/>
	</g>
	<g class="st1">
		<path class="st2" d="M238.19,386.94h-5.33v-1.28h5.33V386.94z M244.99,389.58c-0.44,1.65-1.16,2.94-2.1,3.97
			c0.8,0.52,1.76,0.91,2.81,1.17c-0.35,0.34-0.82,0.98-1.05,1.4c-1.14-0.34-2.14-0.84-3-1.49c-0.91,0.64-1.96,1.13-3.12,1.49
			c-0.16-0.4-0.54-1.04-0.84-1.4v0.69h-2.85v0.53h-1.38v-4.65h4.22v3.39c1.02-0.26,1.95-0.64,2.75-1.17
			c-0.63-0.68-1.14-1.47-1.57-2.36l1.39-0.45h-1.89v-1.46h0.46c-0.23-0.27-0.8-0.76-1.13-0.98v0.52h-4.2v-1.24h4.2v0.65
			c1.17-0.8,1.32-1.88,1.32-2.79v-1.62h4.56v3.05c0,0.38,0.03,0.42,0.18,0.42h0.34c0.18,0,0.23-0.18,0.25-1.36
			c0.3,0.23,0.93,0.46,1.32,0.57c-0.14,1.69-0.49,2.17-1.4,2.17h-0.79c-1.09,0-1.4-0.42-1.4-1.77v-1.65h-1.53v0.23
			c0,1.28-0.27,2.83-1.69,3.8h4.8l0.27-0.07L244.99,389.58z M237.7,390.63h-4.2v-1.21h4.2V390.63z M237.67,385.06h-4.12v-1.23h4.12
			V385.06z M236.28,392.58h-1.44v1.57h1.44V392.58z M240.3,390.71c0.33,0.68,0.78,1.29,1.32,1.84c0.53-0.53,0.95-1.14,1.28-1.84
			H240.3z"/>
		<path class="st2" d="M252.05,386.94h-5.57v-1.28h5.57V386.94z M251.47,395.41h-2.97v0.53h-1.4v-4.65h4.37V395.41z M247.13,387.55
			h4.37v1.24h-4.37V387.55z M247.13,389.42h4.37v1.21h-4.37V389.42z M251.54,385.06h-4.32v-1.23h4.32V385.06z M248.5,392.58v1.57
			h1.55v-1.57H248.5z M259.33,389.57h-2.85v6.57h-1.64v-6.57H252v-1.61h2.85v-4.5h1.64v4.5h2.85V389.57z"/>
	</g>
	<g class="st1">
		<path class="st2" d="M41.89,423.31l2.02-2.73c1.29,1.26,2.88,2.23,4.84,2.23c2.2,0,3.7-1.06,3.7-2.88c0-2.05-1.26-3.32-5.99-3.32
			v-3.11c3.99,0,5.28-1.32,5.28-3.14c0-1.64-1.06-2.61-2.9-2.61c-1.56,0-2.82,0.73-4.11,1.94l-2.2-2.64c1.88-1.64,3.96-2.7,6.51-2.7
			c4.2,0,7.04,2.05,7.04,5.69c0,2.29-1.35,3.87-3.61,4.78v0.15c2.44,0.65,4.31,2.43,4.31,5.22c0,3.87-3.49,6.13-7.63,6.13
			C45.74,426.33,43.42,425.04,41.89,423.31z"/>
		<path class="st2" d="M59.94,423.87l2.29-2.61c0.76,0.88,2.08,1.55,3.35,1.55c2.49,0,4.55-1.82,4.72-7.28
			c-1.2,1.5-3.05,2.38-4.46,2.38c-3.64,0-6.25-2.11-6.25-6.54c0-4.31,3.11-7.01,6.84-7.01c4.11,0,7.81,3.14,7.81,10.42
			c0,8.07-4.02,11.56-8.39,11.56C63.16,426.33,61.2,425.19,59.94,423.87z M66.66,414.83c1.14,0,2.52-0.67,3.52-2.32
			c-0.44-3.55-1.91-4.9-3.7-4.9c-1.61,0-2.93,1.23-2.93,3.76C63.55,413.74,64.75,414.83,66.66,414.83z"/>
	</g>
	<g class="st1">
		<path class="st2" d="M76.55,416.31c0-2.19,1.1-3.43,2.65-3.43c1.57,0,2.65,1.25,2.65,3.43c0,2.18-1.08,3.47-2.65,3.47
			C77.65,419.79,76.55,418.5,76.55,416.31z M80.35,416.31c0-1.6-0.5-2.21-1.14-2.21c-0.63,0-1.13,0.62-1.13,2.21
			c0,1.6,0.5,2.24,1.13,2.24C79.85,418.56,80.35,417.91,80.35,416.31z M85.49,412.88h1.29l-5.94,11.29h-1.28L85.49,412.88z
			 M84.47,420.71c0-2.18,1.11-3.45,2.67-3.45s2.65,1.26,2.65,3.45c0,2.17-1.1,3.46-2.65,3.46S84.47,422.88,84.47,420.71z
			 M88.26,420.71c0-1.61-0.48-2.21-1.13-2.21s-1.14,0.6-1.14,2.21c0,1.58,0.5,2.24,1.14,2.24S88.26,422.3,88.26,420.71z"/>
	</g>
	<g class="st1">
		<path class="st2" d="M129.59,423.31l2.02-2.73c1.29,1.26,2.88,2.23,4.84,2.23c2.2,0,3.7-1.06,3.7-2.88c0-2.05-1.26-3.32-5.99-3.32
			v-3.11c3.99,0,5.28-1.32,5.28-3.14c0-1.64-1.06-2.61-2.9-2.61c-1.56,0-2.82,0.73-4.11,1.94l-2.2-2.64c1.88-1.64,3.96-2.7,6.51-2.7
			c4.2,0,7.04,2.05,7.04,5.69c0,2.29-1.35,3.87-3.61,4.78v0.15c2.44,0.65,4.31,2.43,4.31,5.22c0,3.87-3.49,6.13-7.63,6.13
			C133.44,426.33,131.12,425.04,129.59,423.31z"/>
		<path class="st2" d="M147.4,415.24c0-7.16,2.9-10.89,7.37-10.89c4.46,0,7.34,3.76,7.34,10.89c0,7.19-2.88,11.09-7.34,11.09
			C150.31,426.33,147.4,422.43,147.4,415.24z M158.02,415.24c0-5.87-1.38-7.51-3.26-7.51s-3.29,1.64-3.29,7.51
			c0,5.9,1.41,7.72,3.29,7.72S158.02,421.14,158.02,415.24z"/>
	</g>
	<g class="st1">
		<path class="st2" d="M164.25,416.31c0-2.19,1.1-3.43,2.65-3.43c1.57,0,2.65,1.25,2.65,3.43c0,2.18-1.08,3.47-2.65,3.47
			C165.35,419.79,164.25,418.5,164.25,416.31z M168.05,416.31c0-1.6-0.5-2.21-1.14-2.21c-0.63,0-1.13,0.62-1.13,2.21
			c0,1.6,0.5,2.24,1.13,2.24C167.55,418.56,168.05,417.91,168.05,416.31z M173.19,412.88h1.29l-5.94,11.29h-1.28L173.19,412.88z
			 M172.17,420.71c0-2.18,1.11-3.45,2.67-3.45c1.55,0,2.65,1.26,2.65,3.45c0,2.17-1.1,3.46-2.65,3.46
			C173.28,424.17,172.17,422.88,172.17,420.71z M175.96,420.71c0-1.61-0.48-2.21-1.13-2.21c-0.65,0-1.14,0.6-1.14,2.21
			c0,1.58,0.5,2.24,1.14,2.24C175.48,422.96,175.96,422.3,175.96,420.71z"/>
	</g>
	<g class="st1">
		<path class="st2" d="M224.9,422.43h4.67v-13.17h-3.93v-2.67c2.17-0.41,3.67-0.97,5.05-1.82h3.2v17.66h4.08v3.49H224.9V422.43z"/>
		<path class="st2" d="M251.01,408.37h-9.77v-3.61h14.44v2.64c-4.93,6.02-5.72,10.27-6.07,18.52h-4.37
			C245.61,418.61,246.96,414.01,251.01,408.37z"/>
	</g>
	<g class="st1">
		<path class="st2" d="M255.36,416.31c0-2.19,1.1-3.43,2.65-3.43c1.57,0,2.65,1.25,2.65,3.43c0,2.18-1.08,3.47-2.65,3.47
			C256.46,419.79,255.36,418.5,255.36,416.31z M259.16,416.31c0-1.6-0.5-2.21-1.14-2.21c-0.63,0-1.13,0.62-1.13,2.21
			c0,1.6,0.5,2.24,1.13,2.24C258.66,418.56,259.16,417.91,259.16,416.31z M264.3,412.88h1.29l-5.94,11.29h-1.28L264.3,412.88z
			 M263.28,420.71c0-2.18,1.12-3.45,2.67-3.45c1.55,0,2.65,1.26,2.65,3.45c0,2.17-1.1,3.46-2.65,3.46
			C264.39,424.17,263.28,422.88,263.28,420.71z M267.07,420.71c0-1.61-0.48-2.21-1.13-2.21c-0.64,0-1.14,0.6-1.14,2.21
			c0,1.58,0.5,2.24,1.14,2.24C266.59,422.96,267.07,422.3,267.07,420.71z"/>
	</g>
	<g class="st1">
		<path class="st2" d="M107.31,581.87l2.29-2.61c0.76,0.88,2.08,1.55,3.34,1.55c2.49,0,4.55-1.82,4.72-7.28
			c-1.2,1.5-3.05,2.38-4.46,2.38c-3.64,0-6.25-2.11-6.25-6.54c0-4.31,3.11-7.01,6.84-7.01c4.11,0,7.8,3.14,7.8,10.42
			c0,8.07-4.02,11.56-8.39,11.56C110.53,584.33,108.57,583.19,107.31,581.87z M114.03,572.83c1.14,0,2.52-0.67,3.52-2.32
			c-0.44-3.55-1.91-4.9-3.7-4.9c-1.61,0-2.93,1.23-2.93,3.76C110.92,571.74,112.12,572.83,114.03,572.83z"/>
	</g>
	<g class="st1">
		<path class="st2" d="M123.98,574.31c0-2.19,1.1-3.43,2.65-3.43c1.57,0,2.65,1.25,2.65,3.43c0,2.18-1.08,3.47-2.65,3.47
			C125.08,577.79,123.98,576.5,123.98,574.31z M127.78,574.31c0-1.6-0.5-2.21-1.14-2.21c-0.63,0-1.13,0.62-1.13,2.21
			c0,1.6,0.5,2.24,1.13,2.24C127.28,576.56,127.78,575.91,127.78,574.31z M132.92,570.88h1.29l-5.94,11.29H127L132.92,570.88z
			 M131.9,578.71c0-2.18,1.12-3.45,2.67-3.45c1.55,0,2.65,1.26,2.65,3.45c0,2.17-1.1,3.46-2.65,3.46
			C133.01,582.17,131.9,580.88,131.9,578.71z M135.69,578.71c0-1.61-0.48-2.21-1.13-2.21c-0.64,0-1.14,0.6-1.14,2.21
			c0,1.58,0.5,2.24,1.14,2.24C135.21,580.96,135.69,580.3,135.69,578.71z"/>
	</g>
	<g class="st1">
		<path class="st2" d="M198.5,581.37l2-2.76c1.23,1.2,2.76,2.2,4.78,2.2c2.26,0,3.84-1.32,3.84-3.7c0-2.35-1.47-3.67-3.67-3.67
			c-1.29,0-2,0.32-3.26,1.14l-1.97-1.26l0.59-10.56h11.62v3.61h-7.89l-0.41,4.61c0.88-0.38,1.61-0.59,2.61-0.59
			c3.64,0,6.69,2.05,6.69,6.57c0,4.67-3.58,7.37-7.6,7.37C202.41,584.33,200.12,582.98,198.5,581.37z"/>
	</g>
	<g class="st1">
		<path class="st2" d="M215.93,574.31c0-2.19,1.1-3.43,2.65-3.43c1.57,0,2.65,1.25,2.65,3.43c0,2.18-1.08,3.47-2.65,3.47
			C217.03,577.79,215.93,576.5,215.93,574.31z M219.73,574.31c0-1.6-0.5-2.21-1.14-2.21c-0.63,0-1.13,0.62-1.13,2.21
			c0,1.6,0.5,2.24,1.13,2.24C219.23,576.56,219.73,575.91,219.73,574.31z M224.87,570.88h1.29l-5.94,11.29h-1.28L224.87,570.88z
			 M223.85,578.71c0-2.18,1.12-3.45,2.67-3.45c1.55,0,2.65,1.26,2.65,3.45c0,2.17-1.1,3.46-2.65,3.46
			C224.96,582.17,223.85,580.88,223.85,578.71z M227.64,578.71c0-1.61-0.48-2.21-1.13-2.21c-0.64,0-1.14,0.6-1.14,2.21
			c0,1.58,0.5,2.24,1.14,2.24C227.16,580.96,227.64,580.3,227.64,578.71z"/>
	</g>
	<g class="st1">
		<path class="st2" d="M92.63,549.57c-0.14,1.29-0.42,2.64-0.82,3.52c-0.27-0.18-0.86-0.45-1.17-0.57c0.38-0.79,0.57-2.02,0.68-3.16
			L92.63,549.57z M94.24,548.44v5.68h-1.4v-5.53L91,548.78l-0.22-1.4l0.97-0.05c0.2-0.26,0.41-0.54,0.61-0.84
			c-0.37-0.61-1.01-1.35-1.55-1.92l0.79-1.08c0.11,0.09,0.2,0.19,0.31,0.29c0.38-0.75,0.76-1.65,0.99-2.36l1.39,0.52
			c-0.48,0.93-1.05,1.98-1.53,2.75c0.15,0.18,0.3,0.37,0.42,0.55c0.48-0.76,0.91-1.53,1.23-2.19l1.31,0.61
			c-0.75,1.14-1.66,2.49-2.52,3.57l1.2-0.08c-0.15-0.31-0.3-0.6-0.45-0.87l1.14-0.48c0.54,0.93,1.1,2.11,1.28,2.89l-1.21,0.56
			c-0.05-0.26-0.14-0.54-0.25-0.87L94.24,548.44z M95.44,549.34c0.27,0.67,0.55,1.5,0.72,2.15c0.14-0.45,0.23-0.93,0.3-1.36
			l1.29,0.22c-0.14,1.1-0.48,2.4-0.99,3.23l-1.27-0.56c0.2-0.29,0.38-0.67,0.53-1.1l-1.01,0.34c-0.11-0.68-0.44-1.74-0.74-2.56
			L95.44,549.34z M99.16,542c-0.5,1.36-1.38,2.67-2.29,3.5c-0.29-0.27-0.9-0.75-1.25-0.98c0.89-0.68,1.62-1.77,2.02-2.9L99.16,542z
			 M101.94,548.69c-0.1-0.27-0.26-0.61-0.45-0.97c-1.77,0.15-3.6,0.29-4.96,0.38l-0.27-1.46c0.42-0.01,0.91-0.03,1.44-0.05
			c0.34-0.86,0.68-1.96,0.87-2.79l1.62,0.38c-0.33,0.78-0.68,1.62-1.02,2.36l1.57-0.07c-0.19-0.3-0.4-0.59-0.59-0.84l1.23-0.6
			c0.72,0.9,1.54,2.13,1.88,2.97L101.94,548.69z M102.16,549.86c0.72,0.97,1.39,2.22,1.59,3.12l-1.35,0.67
			c-0.08-0.42-0.27-0.97-0.53-1.51c-0.15,1.58-0.54,1.99-1.44,1.99h-1.08c-1.24,0-1.48-0.44-1.48-1.76v-2.53h1.47v2.52
			c0,0.37,0.04,0.41,0.27,0.41h0.63c0.25,0,0.3-0.15,0.33-1.31c0.26,0.23,0.84,0.45,1.25,0.56c-0.26-0.53-0.56-1.08-0.89-1.54
			L102.16,549.86z M98.95,547.92c0.89,0.4,1.83,1.1,2.32,1.66l-1.06,0.99c-0.46-0.63-1.42-1.36-2.28-1.8L98.95,547.92z
			 M101.41,541.6c0.53,0.91,1.53,1.95,2.34,2.55c-0.37,0.27-0.86,0.82-1.12,1.19c-0.86-0.76-1.92-2.08-2.55-3.17L101.41,541.6z"/>
		<path class="st2" d="M116.21,544.12c-0.35,0.78-0.8,1.43-1.36,1.99c0.75,0.35,1.59,0.63,2.51,0.8c-0.35,0.33-0.8,0.97-1.02,1.38
			c-1.04-0.26-1.96-0.67-2.78-1.17c-0.8,0.49-1.74,0.86-2.78,1.14c-0.08-0.15-0.22-0.35-0.38-0.57c-0.19,0.84-0.42,1.66-0.67,2.28
			l-1.09-0.5c0.15-0.5,0.31-1.19,0.44-1.88h-0.72v4.8c0,0.74-0.11,1.17-0.59,1.42c-0.46,0.26-1.08,0.29-1.92,0.29
			c-0.04-0.45-0.26-1.1-0.46-1.54c0.5,0.01,1.05,0.01,1.23,0.01c0.16-0.01,0.22-0.04,0.22-0.2v-2.92c-0.48,1.01-1.05,1.92-1.7,2.52
			c-0.14-0.46-0.49-1.13-0.74-1.57c0.75-0.67,1.46-1.73,1.93-2.81h-1.7v-1.42h3.12c-0.76-0.46-1.78-0.98-2.63-1.32l1.02-1.04
			c0.33,0.12,0.71,0.27,1.08,0.44c0.3-0.26,0.6-0.56,0.86-0.86h-3.27v-1.36h4.4l0.25-0.05l1.04,0.65c-0.46,0.76-1.23,1.59-1.99,2.25
			c0.4,0.2,0.74,0.41,0.99,0.6l-0.67,0.69h0.65l0.22-0.07l0.98,0.33l-0.05,0.31c0.6-0.16,1.17-0.37,1.66-0.63
			c-0.35-0.34-0.68-0.72-0.97-1.13c-0.2,0.22-0.41,0.41-0.61,0.59c-0.31-0.26-0.94-0.69-1.32-0.91c1.06-0.76,2.07-1.99,2.6-3.24
			l1.51,0.41c-0.15,0.33-0.31,0.64-0.5,0.95H117v1.35H116.21z M116.85,549c0,0-0.03,0.42-0.05,0.61c-0.22,2.36-0.46,3.41-0.86,3.84
			c-0.3,0.31-0.59,0.42-0.99,0.48c-0.34,0.04-0.9,0.05-1.53,0.03c-0.01-0.45-0.19-1.08-0.44-1.5c0.49,0.05,0.95,0.07,1.17,0.07
			c0.19,0,0.3-0.03,0.44-0.15c0.19-0.18,0.37-0.76,0.52-2.03h-1.58c-0.46,1.62-1.43,2.94-3.58,3.79c-0.18-0.38-0.6-0.95-0.94-1.25
			c1.64-0.6,2.43-1.47,2.85-2.53h-1.65V549h1.99c0.07-0.4,0.11-0.79,0.14-1.21h1.62c-0.04,0.41-0.08,0.82-0.14,1.21H116.85z
			 M112.38,544.12c0.3,0.42,0.68,0.82,1.13,1.16c0.37-0.33,0.67-0.72,0.9-1.16H112.38z"/>
		<path class="st2" d="M119.95,549.61c-0.14,1.28-0.42,2.64-0.82,3.52c-0.29-0.18-0.89-0.46-1.24-0.59c0.4-0.8,0.61-2.02,0.72-3.16
			L119.95,549.61z M130.43,542.46c-0.49,1.44-1.25,2.6-2.22,3.53c0.82,0.46,1.76,0.82,2.79,1.04c-0.34,0.31-0.78,0.93-0.99,1.31
			c-1.14-0.31-2.17-0.76-3.04-1.36c-0.93,0.61-1.98,1.08-3.11,1.43c-0.18-0.37-0.54-0.97-0.86-1.31c0.26,0.59,0.48,1.17,0.56,1.61
			l-1.14,0.52c-0.04-0.2-0.1-0.44-0.18-0.7l-0.69,0.05v5.57h-1.4v-5.48l-1.98,0.12l-0.14-1.4l0.98-0.04
			c0.2-0.26,0.42-0.56,0.64-0.87c-0.4-0.59-1.05-1.31-1.61-1.85l0.78-1.1c0.1,0.08,0.2,0.18,0.31,0.27
			c0.38-0.75,0.76-1.65,0.99-2.37l1.4,0.52c-0.49,0.93-1.04,1.98-1.53,2.74c0.18,0.19,0.33,0.38,0.46,0.55
			c0.46-0.76,0.9-1.54,1.21-2.21l1.32,0.61c-0.75,1.19-1.69,2.56-2.55,3.67l1.31-0.05c-0.15-0.34-0.31-0.68-0.48-0.98l1.08-0.45
			c0.22,0.38,0.44,0.82,0.63,1.25c0.98-0.26,1.89-0.64,2.71-1.13c-0.64-0.64-1.17-1.38-1.61-2.22l0.87-0.29h-1.55v-1.39h5.64
			l0.29-0.07L130.43,542.46z M122.72,549.27c0.34,0.78,0.69,1.77,0.84,2.45l-1.2,0.44c-0.12-0.68-0.48-1.73-0.79-2.54L122.72,549.27
			z M127.82,552.34h2.98v1.42h-7.7v-1.42h3.12v-1.59h-2.32v-1.43h2.32v-1.62h1.59v1.62h2.43v1.43h-2.43V552.34z M125.59,543.43
			c0.33,0.6,0.78,1.14,1.31,1.62c0.53-0.48,0.98-1.02,1.34-1.62H125.59z"/>
		<path class="st2" d="M136.43,551.41c-1.5,0.53-3.13,1.05-4.44,1.47l-0.37-1.65c0.48-0.12,1.04-0.27,1.66-0.45v-3.2h-1.38v-1.48
			h1.38v-2.4h-1.5v-1.51h4.5v1.51h-1.46v2.4h1.23v1.48h-1.23v2.73c0.45-0.14,0.9-0.27,1.33-0.42L136.43,551.41z M144.53,552.24v1.47
			h-8.76v-1.47h3.76v-1.29h-2.82v-1.46h2.82v-1.17h-2.73v-6.34h7.11v6.34h-2.74v1.17h2.89v1.46h-2.89v1.29H144.53z M138.26,544.5
			h1.4v-1.14h-1.4V544.5z M138.26,546.94h1.4v-1.17h-1.4V546.94z M142.38,543.36h-1.35v1.14h1.35V543.36z M142.38,545.77h-1.35v1.17
			h1.35V545.77z"/>
	</g>
	<g class="st1">
		<path class="st2" d="M209.85,543.52v2.9h-1.57v-1.53h-8.52v1.53h-1.49v-2.9h1.66c-0.25-0.44-0.59-0.93-0.9-1.32l1.4-0.61
			c0.45,0.52,0.98,1.24,1.21,1.74l-0.44,0.19h2.1c-0.19-0.49-0.56-1.16-0.89-1.68l1.42-0.48c0.4,0.53,0.84,1.31,1.04,1.8l-0.95,0.35
			h2.23c0.44-0.59,0.95-1.4,1.21-2.06l1.74,0.54c-0.4,0.52-0.8,1.06-1.19,1.51H209.85z M204.71,548.9c-0.11,0.3-0.23,0.57-0.35,0.83
			h4.51v4.43h-1.61v-0.45h-6.39v0.45h-1.54v-4.43h3.42c0.07-0.27,0.15-0.56,0.2-0.83h-2.48v-3.34h7.11v3.34H204.71z M207.26,551.12
			h-6.39v1.19h6.39V551.12z M201.98,547.72h4.05v-0.95h-4.05V547.72z"/>
		<path class="st2" d="M219.74,551.03c1.16,0.71,2.74,1.24,4.32,1.49c-0.37,0.35-0.84,1.04-1.09,1.47c-1.68-0.42-3.32-1.24-4.58-2.3
			v2.45h-1.59v-2.37c-1.27,1-2.94,1.79-4.57,2.21c-0.23-0.39-0.69-1.02-1.04-1.35c1.53-0.31,3.13-0.89,4.31-1.59h-3.91v-1.34h5.21
			v-0.6h-3.92v-1.17h3.92v-0.61h-4.61v-1.27h2.59c-0.11-0.34-0.29-0.75-0.46-1.06l0.16-0.03h-2.85v-1.32h1.83
			c-0.19-0.52-0.54-1.17-0.84-1.69l1.39-0.48c0.4,0.59,0.84,1.39,1.04,1.92l-0.67,0.25h1.24v-2.22h1.51v2.22h1.01v-2.22h1.53v2.22
			h1.21l-0.49-0.15c0.33-0.56,0.67-1.38,0.86-1.98l1.7,0.41c-0.38,0.63-0.75,1.24-1.06,1.72h1.77v1.32h-2.56
			c-0.22,0.39-0.44,0.76-0.64,1.09h2.67v1.27h-4.73v0.61h4.09v1.17h-4.09v0.6h5.3v1.34H219.74z M216.03,544.95
			c0.19,0.35,0.37,0.76,0.46,1.05l-0.23,0.04h2.55c0.16-0.33,0.33-0.72,0.48-1.09H216.03z"/>
	</g>
	<g class="st1">
		<path class="st2" d="M135.05,393.85c1.39,0.49,2.96,1.14,3.88,1.59l-1.88,0.72c-0.78-0.45-2.17-1.09-3.54-1.61l1.23-0.71h-3.98
			l1.24,0.54c-1.13,0.74-2.88,1.4-4.25,1.79c-0.29-0.31-0.86-0.9-1.2-1.19c1.32-0.25,2.81-0.68,3.75-1.14h-2v-5.53h2.85
			c-0.16-0.33-0.42-0.72-0.64-0.94l0.01,0.05c-1.17,0.34-2.44,0.71-3.46,0.99l-0.6-1.42c1.01-0.19,2.47-0.53,3.91-0.87l0.14,1.23
			c2.17-0.35,2.89-0.94,3.19-1.91h-0.98c-0.31,0.38-0.67,0.75-1.09,1.09c-0.29-0.29-0.84-0.61-1.21-0.76c0.98-0.68,1.65-1.58,2-2.37
			l1.43,0.23c-0.11,0.23-0.22,0.45-0.35,0.67h4.02l0.25-0.04l1.08,0.27c-0.35,0.74-0.84,1.55-1.29,2.06l-1.25-0.4
			c0.16-0.2,0.35-0.46,0.53-0.75h-1.51c0.29,0.87,1.06,1.62,3.81,1.95c-0.3,0.3-0.65,0.93-0.8,1.32c-0.33-0.05-0.63-0.11-0.9-0.18
			v5.3H135.05z M129.9,385.82c-0.63-0.34-1.91-0.83-2.85-1.1l0.71-1.1c0.9,0.22,2.19,0.65,2.88,0.98L129.9,385.82z M129.85,389.87
			h5.9v-0.58h-5.9V389.87z M129.85,391.37h5.9v-0.59h-5.9V391.37z M129.85,392.88h5.9v-0.6h-5.9V392.88z M136.64,388.31
			c-1.05-0.38-1.68-0.89-2.08-1.47c-0.48,0.64-1.24,1.12-2.49,1.47H136.64z"/>
		<path class="st2" d="M145.1,391.6c-0.27-0.44-0.71-1.05-1.16-1.64v6.16h-1.64v-5.27c-0.48,1.19-1.04,2.29-1.66,3.05
			c-0.16-0.5-0.54-1.19-0.83-1.62c0.97-1.09,1.83-2.89,2.29-4.52h-1.89v-1.54h2.1v-2.81h1.64v2.81h1.72v1.54h-1.72v0.37
			c0.54,0.45,1.8,1.76,2.1,2.1L145.1,391.6z M152.69,387.76h-1.29v6.38c0,0.94-0.2,1.36-0.76,1.62c-0.54,0.27-1.42,0.31-2.59,0.31
			c-0.07-0.46-0.31-1.19-0.55-1.63c0.75,0.03,1.59,0.03,1.83,0.03c0.25-0.01,0.34-0.08,0.34-0.33v-4.14
			c-1.01,1.62-2.32,3.13-3.62,4.13c-0.27-0.42-0.75-1-1.17-1.34c1.69-1.06,3.33-3.05,4.31-5.03h-3.13v-1.54h3.62v-2.78h1.73v2.78
			h1.29V387.76z"/>
		<path class="st2" d="M156.3,393.11c-0.35,1.14-0.98,2.32-1.62,3.05c-0.27-0.23-0.86-0.61-1.2-0.79c0.61-0.64,1.13-1.62,1.4-2.58
			L156.3,393.11z M158.38,392.7h-4.14v-8.79h4.14V392.7z M156.96,385.19h-1.35v1.25h1.35V385.19z M156.96,387.66h-1.35v1.27h1.35
			V387.66z M156.96,390.13h-1.35v1.28h1.35V390.13z M157.68,392.77c0.45,0.68,0.95,1.59,1.17,2.19l-1.25,0.61
			c-0.19-0.63-0.68-1.59-1.12-2.3L157.68,392.77z M166.31,393.94h-0.63v0.72c0,0.68-0.14,1.02-0.59,1.24
			c-0.45,0.22-1.09,0.23-1.98,0.23c-0.05-0.38-0.25-0.94-0.42-1.29c0.53,0.01,1.12,0.01,1.28,0.01c0.18,0,0.23-0.05,0.23-0.2v-0.71
			h-3.5v2.21h-1.42v-2.21h-0.74v-1.13h0.74v-3.43h2.45v-0.52h-3.12v-1.14h1.7v-0.53h-1.16v-1.08h1.16v-0.5h-1.47v-1.14h1.47v-1.04
			h1.42v1.04h1.39v-1.04h1.44v1.04h1.47v1.14h-1.47v0.5h1.25v1.08h-1.25v0.53h1.72v1.14h-3.15v0.52h2.53v3.43h0.63V393.94z
			 M160.71,390.51v0.63h1.04v-0.63H160.71z M160.71,392.81h1.04v-0.68h-1.04V392.81z M161.74,386.11h1.39v-0.5h-1.39V386.11z
			 M161.74,387.71h1.39v-0.53h-1.39V387.71z M163.14,390.51v0.63h1.06v-0.63H163.14z M164.21,392.81v-0.68h-1.06v0.68H164.21z"/>
		<path class="st2" d="M175.99,393.86c1.44,0.46,3.01,1.06,3.96,1.49l-1.76,0.8c-0.85-0.45-2.34-1.08-3.83-1.58l1.1-0.71h-3.8
			l1.19,0.53c-1.14,0.75-2.93,1.4-4.35,1.8c-0.27-0.33-0.86-0.91-1.2-1.19c1.33-0.25,2.82-0.68,3.79-1.14H169v-5.98h9.31v5.98
			H175.99z M179.03,387.32h-10.76v-3.35h10.76V387.32z M171.4,385.18h-1.63v0.94h1.63V385.18z M170.63,389.57h5.97v-0.67h-5.97
			V389.57z M170.63,391.2h5.97v-0.68h-5.97V391.2z M170.63,392.84h5.97v-0.68h-5.97V392.84z M174.39,385.18h-1.65v0.94h1.65V385.18z
			 M177.46,385.18h-1.72v0.94h1.72V385.18z"/>
	</g>
	<path class="st15" d="M65.95,336.58v-38.2c21.1,0,38.2,17.1,38.2,38.2c0,11.81-4.6,21.67-13.65,29.26l-24.56-29.26H65.95z"/>
	<path class="st15" d="M154.24,336.53l0.71-38.19c21.09,0.39,37.87,17.81,37.48,38.91c-0.08,4.22-0.71,7.78-2.09,11.77
		L154.24,336.53L154.24,336.53z"/>
	<path class="st15" d="M241.81,336.65l-0.4-38.2c14.35-0.15,26.53,6.85,33.62,19.33l-33.21,18.87L241.81,336.65z"/>
	<path class="st15" d="M116.18,494.63l-4.37-37.95c7.55-0.87,14.57,0.36,21.37,3.74L116.18,494.63L116.18,494.63z"/>
	<path class="st15" d="M203.74,494.6l-2.24-38.14c4.21-0.25,7.81,0.11,11.89,1.17L203.74,494.6L203.74,494.6z"/>
</g>
</svg>
