<?xml version="1.0" encoding="UTF-8"?><svg id="_レイヤー_2" xmlns="http://www.w3.org/2000/svg" viewBox="0 0 315 1092"><defs><style>.cls-1{fill:#f4f198;}.cls-1,.cls-2,.cls-3,.cls-4,.cls-5{stroke-linejoin:bevel;stroke-width:9.76px;}.cls-1,.cls-2,.cls-3,.cls-4,.cls-5,.cls-6,.cls-7,.cls-8{stroke:#fff;}.cls-2{fill:#d6d8d6;}.cls-3{fill:#c3ddc4;}.cls-4{fill:#aee6e8;}.cls-5{fill:#abe6a0;}.cls-9{fill:#dfdfdf;stroke-width:.25px;}.cls-9,.cls-6,.cls-7,.cls-8,.cls-10{stroke-miterlimit:10;}.cls-9,.cls-10{stroke:#000;}.cls-6{stroke-width:.85px;}.cls-6,.cls-11{fill:#67d271;}.cls-12,.cls-13,.cls-14,.cls-15,.cls-16,.cls-11{stroke-width:0px;}.cls-7{fill:#d9bfed;}.cls-7,.cls-8{stroke-width:.54px;}.cls-8{fill:#90b8eb;}.cls-13{fill:#407cd0;}.cls-14{fill:#fff;}.cls-15{fill:#efefef;}.cls-16{fill:#0017af;}.cls-10{fill:none;stroke-width:.49px;}</style></defs><g id="_レイヤー_1-2"><rect class="cls-14" y="607" width="315" height="234"/><rect class="cls-14" y="845" width="315" height="247"/><path class="cls-16" d="M55.49,864.73h2.42s3.44,6.3,3.44,6.3l1.18,2.56h.08c-.13-1.23-.3-2.8-.31-4.15v-4.72s2.24,0,2.24,0v11.84s-2.4,0-2.4,0l-3.43-6.34-1.2-2.54h-.08c.11,1.28.29,2.77.29,4.13v4.75s-2.24,0-2.24,0v-11.84Z"/><path class="cls-16" d="M67.03,873.21v-5.6s2.35,0,2.35,0v5.3c0,1.39.39,1.87,1.25,1.87.74,0,1.22-.32,1.83-1.12v-6.05s2.35,0,2.35,0v8.96s-1.92,0-1.92,0l-.18-1.28h-.06c-.77.91-1.63,1.5-2.86,1.51-1.92,0-2.75-1.34-2.75-3.58Z"/><path class="cls-16" d="M77.16,867.6h1.92s.16,1.2.16,1.2h.06c.75-.78,1.58-1.43,2.75-1.43,1.28,0,2.03.58,2.47,1.57.82-.86,1.68-1.57,2.85-1.57,1.91,0,2.79,1.34,2.79,3.6v5.59s-2.35,0-2.35,0v-5.3c0-1.38-.4-1.87-1.25-1.87-.51,0-1.09.34-1.73,1.01v6.16s-2.35,0-2.35,0v-5.3c0-1.38-.4-1.87-1.25-1.87-.51,0-1.09.34-1.73,1.01v6.16s-2.33,0-2.33,0v-8.96Z"/><path class="cls-16" d="M94.52,875.62h-.05l-.21.94h-1.84s0-12.77,0-12.77h2.34s0,3.22,0,3.22l-.05,1.44c.7-.64,1.6-1.07,2.48-1.07,2.21,0,3.54,1.81,3.54,4.54,0,3.09-1.84,4.87-3.81,4.87-.8,0-1.67-.42-2.4-1.17ZM98.31,871.97c0-1.71-.55-2.66-1.78-2.66-.61,0-1.15.3-1.78.93v3.94c.56.5,1.15.67,1.63.67,1.09,0,1.92-.93,1.92-2.88Z"/><path class="cls-16" d="M102.01,872.09c0-2.91,2.03-4.72,4.18-4.72,2.46,0,3.75,1.81,3.75,4.29,0,.43-.05.86-.11,1.07h-5.52c.19,1.47,1.15,2.24,2.48,2.24.74,0,1.38-.22,2.02-.62l.8,1.44c-.88.61-2.02.99-3.14.99-2.5,0-4.45-1.74-4.45-4.69ZM107.91,871.18c0-1.22-.54-1.98-1.7-1.98-.94,0-1.78.67-1.95,1.99h3.65Z"/><path class="cls-16" d="M111.7,867.59h1.92s.16,1.58.16,1.58h.06c.66-1.17,1.62-1.81,2.54-1.81.5,0,.78.08,1.06.19l-.42,2.03c-.3-.1-.56-.14-.93-.14-.7,0-1.55.46-2.06,1.76v5.35s-2.33,0-2.33,0v-8.96Z"/><path class="cls-16" d="M121.43,872.09c0-2.99,2.06-4.72,4.3-4.72,2.24,0,4.31,1.73,4.31,4.72,0,2.96-2.06,4.69-4.3,4.69-2.24,0-4.31-1.73-4.31-4.69ZM127.64,872.08c0-1.7-.69-2.8-1.91-2.8-1.22,0-1.9,1.1-1.9,2.8,0,1.68.69,2.77,1.91,2.77,1.22,0,1.91-1.09,1.9-2.77Z"/><path class="cls-16" d="M136.63,865.6c-.3-.11-.66-.19-.94-.19-.71,0-1.09.42-1.09,1.41v.77s1.68,0,1.68,0v1.86h-1.68v7.11s-2.35,0-2.35,0v-7.11s-1.2,0-1.2,0v-1.74l1.2-.1v-.74c0-1.87.86-3.31,3.12-3.31.69,0,1.3.16,1.7.32l-.43,1.73Z"/><path class="cls-16" d="M141.11,867.58h1.92s.16,1.18.16,1.18h.06c.78-.77,1.7-1.41,2.91-1.41,1.94,0,2.77,1.34,2.77,3.6v5.59s-2.35,0-2.35,0v-5.3c0-1.38-.39-1.87-1.27-1.87-.74,0-1.2.35-1.87,1.01v6.16s-2.33,0-2.33,0v-8.96Z"/><path class="cls-16" d="M150.64,872.08c0-2.91,2.03-4.72,4.18-4.72,2.46,0,3.75,1.81,3.75,4.29,0,.43-.05.86-.11,1.07h-5.52c.19,1.47,1.15,2.24,2.48,2.24.74,0,1.38-.22,2.02-.62l.8,1.44c-.88.61-2.02.99-3.14.99-2.5,0-4.45-1.74-4.45-4.69ZM156.55,871.16c0-1.22-.54-1.98-1.7-1.98-.94,0-1.78.67-1.95,1.99h3.65Z"/><path class="cls-16" d="M159.51,867.58h2.35s.98,4.43.98,4.43c.18.86.29,1.73.45,2.61h.06c.18-.88.34-1.76.56-2.61l1.07-4.43h2.1s1.12,4.43,1.12,4.43c.21.86.37,1.73.56,2.61h.08c.16-.88.27-1.75.45-2.61l.98-4.43h2.18s-2.21,8.96-2.21,8.96h-2.77s-.95-3.9-.95-3.9c-.19-.85-.34-1.66-.51-2.61h-.08c-.17.94-.3,1.78-.5,2.61l-.91,3.91h-2.69s-2.32-8.96-2.32-8.96Z"/><path class="cls-16" d="M177.46,863.76h2.34s0,3.22,0,3.22l-.09,1.68c.72-.67,1.6-1.31,2.82-1.31,1.94,0,2.77,1.34,2.77,3.6v5.59s-2.35,0-2.35,0v-5.3c0-1.38-.39-1.87-1.27-1.87-.74,0-1.2.35-1.87,1.01v6.16s-2.33,0-2.33,0v-12.77Z"/><path class="cls-16" d="M187.31,864.85c0-.77.59-1.28,1.41-1.28.8,0,1.39.51,1.39,1.28,0,.74-.59,1.28-1.39,1.28-.82,0-1.41-.54-1.41-1.28ZM187.54,867.57h2.34s0,8.96,0,8.96h-2.34s0-8.96,0-8.96Z"/><path class="cls-16" d="M192.24,867.57h1.92s.16,1.58.16,1.58h.06c.66-1.17,1.62-1.81,2.54-1.81.5,0,.78.08,1.06.19l-.42,2.03c-.3-.1-.56-.14-.93-.14-.7,0-1.55.46-2.06,1.76v5.35s-2.33,0-2.33,0v-8.96Z"/><path class="cls-16" d="M198.5,872.06c0-2.91,2.03-4.72,4.18-4.72,2.46,0,3.75,1.81,3.75,4.29,0,.43-.05.86-.11,1.07h-5.52c.19,1.47,1.15,2.24,2.48,2.24.74,0,1.38-.22,2.02-.62l.8,1.44c-.88.61-2.02.99-3.14.99-2.5,0-4.45-1.74-4.45-4.69ZM204.41,871.15c0-1.22-.54-1.98-1.7-1.98-.94,0-1.78.67-1.95,1.99h3.65Z"/><path class="cls-16" d="M207.35,875.48l1.07-1.47c.8.62,1.57.98,2.4.98.9,0,1.3-.38,1.3-.94,0-.67-.93-.98-1.87-1.34-1.14-.43-2.45-1.12-2.45-2.61,0-1.62,1.31-2.75,3.33-2.75,1.31,0,2.31.54,3.06,1.1l-1.06,1.43c-.64-.45-1.26-.77-1.94-.77-.8,0-1.18.35-1.18.86,0,.66.88.9,1.83,1.25,1.18.45,2.5,1.04,2.5,2.7,0,1.57-1.23,2.83-3.57,2.83-1.2,0-2.53-.53-3.41-1.26Z"/><path class="cls-16" d="M218.98,874.09c0-1.92,1.55-2.93,5.15-3.32-.03-.88-.42-1.55-1.52-1.55-.83,0-1.63.37-2.47.85l-.85-1.55c1.06-.66,2.34-1.19,3.75-1.19,2.27,0,3.44,1.36,3.44,3.95v5.23s-1.92,0-1.92,0l-.18-.96h-.05c-.78.67-1.68,1.19-2.7,1.19-1.6,0-2.66-1.14-2.66-2.66ZM224.13,874.02v-1.81c-2.18.29-2.91.88-2.91,1.68,0,.7.5,1.01,1.18,1.01.67,0,1.17-.32,1.73-.88Z"/><path class="cls-16" d="M228.72,867.55h1.92l.16,1.18h.06c.78-.77,1.7-1.41,2.91-1.41,1.94,0,2.77,1.34,2.77,3.6v5.59s-2.35,0-2.35,0v-5.3c0-1.38-.39-1.87-1.27-1.87-.74,0-1.2.35-1.87,1.01v6.16s-2.33,0-2.33,0v-8.96Z"/><path class="cls-16" d="M238.31,872.05c0-2.93,1.82-4.72,3.76-4.72,1.01,0,1.63.38,2.27.98l-.1-1.41v-3.15s2.35,0,2.35,0v12.77s-1.9,0-1.9,0l-.19-.93h-.05c-.66.64-1.55,1.15-2.48,1.15-2.22,0-3.67-1.76-3.67-4.69ZM244.25,873.87v-3.94c-.55-.5-1.11-.67-1.67-.67-1.01,0-1.86.96-1.86,2.75,0,1.86.67,2.79,1.86,2.79.62,0,1.15-.26,1.66-.93Z"/><path class="cls-16" d="M89.84,895.48v-3.97s-1.27,0-1.27,0v-1.74l1.38-.11.27-2.4h1.97s0,2.4,0,2.4h2.21s0,1.86,0,1.86h-2.21s0,3.97,0,3.97c0,1.02.42,1.5,1.22,1.5.29,0,.64-.1.88-.19l.38,1.71c-.48.16-1.1.34-1.89.34-2.13,0-2.95-1.34-2.95-3.36Z"/><path class="cls-16" d="M96.06,885.85h2.34s0,3.22,0,3.22l-.1,1.68c.72-.67,1.6-1.31,2.82-1.31,1.94,0,2.77,1.34,2.77,3.6v5.59s-2.35,0-2.35,0v-5.3c0-1.38-.39-1.87-1.27-1.87-.74,0-1.2.35-1.87,1.01v6.16s-2.33,0-2.33,0v-12.77Z"/><path class="cls-16" d="M105.58,894.15c0-2.91,2.03-4.72,4.18-4.72,2.46,0,3.75,1.81,3.75,4.29,0,.43-.05.86-.11,1.07h-5.52c.19,1.47,1.15,2.24,2.48,2.24.74,0,1.38-.22,2.02-.62l.8,1.44c-.88.61-2.02.99-3.14.99-2.5,0-4.45-1.74-4.45-4.69ZM111.49,893.24c0-1.22-.54-1.98-1.7-1.98-.94,0-1.78.67-1.95,1.99h3.65Z"/><path class="cls-16" d="M115.05,886.93c0-.77.59-1.28,1.41-1.28.8,0,1.39.51,1.39,1.28s-.59,1.28-1.39,1.28c-.82,0-1.41-.54-1.41-1.28ZM115.28,889.65h2.34s0,8.96,0,8.96h-2.34s0-8.96,0-8.96Z"/><path class="cls-16" d="M119.98,889.65h1.92s.16,1.58.16,1.58h.06c.66-1.17,1.62-1.81,2.54-1.81.5,0,.78.08,1.06.19l-.42,2.03c-.3-.1-.56-.14-.93-.14-.7,0-1.55.46-2.06,1.76v5.35s-2.33,0-2.33,0v-8.96Z"/><path class="cls-16" d="M130.27,889.65h1.92s.16.93.16.93h.06c.75-.64,1.68-1.15,2.64-1.15,2.21,0,3.52,1.81,3.52,4.56,0,3.07-1.84,4.85-3.81,4.85-.79,0-1.54-.35-2.23-.98l.06,1.47v2.72s-2.34,0-2.34,0v-12.4ZM136.16,894.01c0-1.71-.55-2.66-1.78-2.66-.61,0-1.15.3-1.78.93v3.94c.58.5,1.15.67,1.63.67,1.09,0,1.92-.93,1.92-2.88Z"/><path class="cls-16" d="M139.85,894.14c0-2.91,2.03-4.72,4.18-4.72,2.46,0,3.75,1.81,3.75,4.29,0,.43-.05.86-.11,1.07h-5.52c.19,1.47,1.15,2.24,2.48,2.24.74,0,1.38-.22,2.02-.62l.8,1.44c-.88.61-2.02.99-3.14.99-2.5,0-4.45-1.74-4.45-4.69ZM145.76,893.23c0-1.22-.54-1.98-1.7-1.98-.94,0-1.78.67-1.95,1.99h3.65Z"/><path class="cls-16" d="M149.54,889.64h1.92s.16,1.58.16,1.58h.06c.66-1.17,1.62-1.81,2.54-1.81.5,0,.78.08,1.06.19l-.42,2.03c-.3-.1-.56-.14-.93-.14-.7,0-1.55.46-2.06,1.76v5.35s-2.33,0-2.33,0v-8.96Z"/><path class="cls-16" d="M155.8,894.14c0-2.99,2.14-4.72,4.58-4.72,1.1,0,1.95.43,2.61.99l-1.12,1.52c-.45-.38-.87-.59-1.38-.59-1.36,0-2.29,1.11-2.29,2.8,0,1.68.93,2.77,2.23,2.77.64,0,1.25-.3,1.75-.72l.93,1.55c-.85.75-1.94,1.09-2.93,1.09-2.48,0-4.37-1.73-4.37-4.69Z"/><path class="cls-16" d="M164.07,894.13c0-2.91,2.03-4.72,4.18-4.72,2.46,0,3.75,1.81,3.75,4.29,0,.43-.05.86-.11,1.07h-5.52c.19,1.47,1.15,2.24,2.48,2.24.74,0,1.38-.22,2.02-.62l.8,1.44c-.88.61-2.02.99-3.14.99-2.5,0-4.45-1.74-4.45-4.69ZM169.98,893.22c0-1.22-.54-1.98-1.7-1.98-.94,0-1.78.67-1.95,1.99h3.65Z"/><path class="cls-16" d="M173.77,889.63h1.92l.16,1.18h.06c.78-.77,1.7-1.41,2.91-1.41,1.94,0,2.77,1.34,2.77,3.6v5.59s-2.35,0-2.35,0v-5.3c0-1.38-.39-1.87-1.27-1.87-.74,0-1.2.35-1.87,1.01v6.16s-2.33,0-2.33,0v-8.96Z"/><path class="cls-16" d="M184.2,895.45v-3.97s-1.27,0-1.27,0v-1.74l1.38-.11.27-2.4h1.97s0,2.4,0,2.4h2.21s0,1.86,0,1.86h-2.21s0,3.97,0,3.97c0,1.02.42,1.5,1.22,1.5.29,0,.64-.1.88-.19l.38,1.71c-.48.16-1.1.34-1.89.34-2.13,0-2.95-1.34-2.95-3.36Z"/><path class="cls-16" d="M189.98,896.16c0-1.92,1.55-2.93,5.15-3.31-.03-.88-.42-1.55-1.52-1.55-.83,0-1.63.37-2.46.85l-.85-1.55c1.06-.66,2.34-1.19,3.75-1.19,2.27,0,3.44,1.36,3.44,3.95v5.23s-1.92,0-1.92,0l-.18-.96h-.05c-.78.67-1.68,1.19-2.7,1.19-1.6,0-2.66-1.14-2.66-2.66ZM195.13,896.09v-1.81c-2.18.29-2.91.88-2.91,1.68,0,.7.5,1.01,1.18,1.01s1.17-.32,1.73-.88Z"/><path class="cls-16" d="M199.13,900.17c0-.75.46-1.39,1.28-1.86v-.08c-.46-.3-.82-.77-.82-1.5,0-.67.46-1.3.99-1.68v-.06c-.61-.45-1.19-1.3-1.19-2.34,0-2.11,1.71-3.25,3.62-3.25.5,0,.98.1,1.34.22h3.23s0,1.73,0,1.73h-1.54c.24.3.42.8.42,1.36,0,2.02-1.54,3.04-3.46,3.04-.35,0-.77-.08-1.15-.21-.26.21-.38.42-.38.77,0,.48.35.74,1.41.74h1.52c2.16,0,3.33.67,3.33,2.24,0,1.81-1.87,3.19-4.87,3.19-2.11,0-3.75-.72-3.75-2.3ZM205.5,899.69c0-.64-.53-.8-1.49-.8h-1.09c-.54,0-.93-.05-1.25-.13-.4.32-.59.67-.59,1.04,0,.75.83,1.18,2.15,1.18,1.34,0,2.27-.59,2.27-1.3ZM204.41,892.65c0-1.06-.59-1.65-1.39-1.65-.8,0-1.41.59-1.41,1.65,0,1.06.62,1.65,1.41,1.65.78,0,1.39-.59,1.39-1.65Z"/><path class="cls-16" d="M208.55,894.12c0-2.91,2.03-4.72,4.18-4.72,2.46,0,3.75,1.81,3.75,4.29,0,.43-.05.86-.11,1.07h-5.52c.19,1.47,1.15,2.24,2.48,2.24.74,0,1.38-.22,2.02-.62l.8,1.44c-.88.61-2.02.99-3.14.99-2.5,0-4.45-1.74-4.45-4.69ZM214.46,893.2c0-1.22-.54-1.98-1.7-1.98-.94,0-1.78.67-1.95,1.99h3.65Z"/><path class="cls-16" d="M94.7,641.51h-3.84s-.83,3.04-.83,3.04h-2.4s3.79-11.85,3.79-11.85h2.79s3.81,11.84,3.81,11.84h-2.48s-.83-3.04-.83-3.04ZM94.18,639.67l-.35-1.3c-.37-1.23-.69-2.59-1.04-3.87h-.06c-.3,1.3-.66,2.64-1.01,3.87l-.35,1.3h2.82Z"/><path class="cls-16" d="M98.45,646.13c0-.75.46-1.39,1.28-1.86v-.08c-.46-.3-.82-.77-.82-1.5,0-.67.46-1.3.99-1.68v-.06c-.61-.45-1.18-1.3-1.18-2.34,0-2.11,1.71-3.25,3.62-3.25.5,0,.98.1,1.34.22h3.23s0,1.73,0,1.73h-1.54c.24.3.42.8.42,1.36,0,2.02-1.54,3.04-3.46,3.04-.35,0-.77-.08-1.15-.21-.26.21-.38.42-.38.77,0,.48.35.74,1.41.74h1.52c2.16,0,3.33.67,3.33,2.24,0,1.81-1.87,3.19-4.87,3.19-2.11,0-3.75-.72-3.75-2.3ZM104.82,645.65c0-.64-.53-.8-1.49-.8h-1.09c-.54,0-.93-.05-1.25-.13-.4.32-.59.67-.59,1.04,0,.75.83,1.18,2.14,1.18,1.34,0,2.27-.59,2.27-1.3ZM103.73,638.61c0-1.06-.59-1.65-1.39-1.65-.8,0-1.41.59-1.41,1.65,0,1.06.62,1.65,1.41,1.65.78,0,1.39-.59,1.39-1.65Z"/><path class="cls-16" d="M107.87,640.08c0-2.91,2.03-4.72,4.18-4.72,2.46,0,3.75,1.81,3.75,4.29,0,.43-.05.86-.11,1.07h-5.52c.19,1.47,1.15,2.24,2.48,2.24.74,0,1.38-.22,2.02-.62l.8,1.44c-.88.61-2.02.99-3.14.99-2.5,0-4.45-1.74-4.45-4.69ZM113.78,639.16c0-1.22-.54-1.98-1.7-1.98-.94,0-1.78.67-1.95,1.99h3.65Z"/><path class="cls-16" d="M121.23,632.69h3.25c3.62,0,5.86,1.87,5.86,5.87,0,3.99-2.24,5.97-5.73,5.97h-3.38s0-11.84,0-11.84ZM124.34,642.63c2.21,0,3.59-1.19,3.58-4.07,0-2.9-1.38-3.98-3.59-3.98h-.74s0,8.05,0,8.05h.74Z"/><path class="cls-16" d="M132.08,632.85c0-.77.59-1.28,1.41-1.28.8,0,1.39.51,1.39,1.28,0,.74-.59,1.28-1.39,1.28-.82,0-1.41-.54-1.41-1.28ZM132.31,635.57h2.34s0,8.96,0,8.96h-2.34s0-8.96,0-8.96Z"/><path class="cls-16" d="M136.16,643.49l1.07-1.47c.8.62,1.57.98,2.4.98.9,0,1.3-.38,1.3-.95,0-.67-.93-.98-1.87-1.34-1.14-.43-2.45-1.12-2.45-2.61,0-1.62,1.31-2.75,3.33-2.75,1.31,0,2.31.54,3.06,1.1l-1.06,1.42c-.64-.45-1.26-.77-1.94-.77-.8,0-1.18.35-1.18.86,0,.66.88.9,1.83,1.25,1.18.45,2.5,1.04,2.5,2.7,0,1.57-1.23,2.83-3.57,2.83-1.2,0-2.53-.53-3.41-1.26Z"/><path class="cls-16" d="M145.11,641.39v-3.97h-1.27v-1.74l1.38-.11.27-2.4h1.97s0,2.4,0,2.4h2.21s0,1.86,0,1.86h-2.21s0,3.97,0,3.97c0,1.02.42,1.5,1.22,1.5.29,0,.64-.1.88-.19l.38,1.71c-.48.16-1.1.34-1.89.34-2.13,0-2.95-1.34-2.95-3.36Z"/><path class="cls-16" d="M151.33,635.57h1.92s.16,1.58.16,1.58h.06c.66-1.17,1.62-1.81,2.54-1.81.5,0,.78.08,1.06.19l-.42,2.03c-.3-.1-.56-.14-.93-.14-.7,0-1.55.46-2.06,1.76v5.35s-2.33,0-2.33,0v-8.96Z"/><path class="cls-16" d="M157.92,632.84c0-.77.59-1.28,1.41-1.28.8,0,1.39.51,1.39,1.28,0,.74-.59,1.28-1.39,1.28-.82,0-1.41-.54-1.41-1.28ZM158.15,635.56h2.34s0,8.96,0,8.96h-2.34s0-8.96,0-8.96Z"/><path class="cls-16" d="M164.95,643.58h-.05l-.21.94h-1.84s0-12.77,0-12.77h2.34s0,3.22,0,3.22l-.05,1.44c.7-.64,1.6-1.07,2.48-1.07,2.21,0,3.54,1.81,3.54,4.54,0,3.09-1.84,4.87-3.81,4.87-.8,0-1.67-.42-2.4-1.17ZM168.74,639.93c0-1.71-.55-2.66-1.78-2.66-.61,0-1.15.3-1.78.93v3.94c.56.5,1.15.67,1.63.67,1.09,0,1.92-.93,1.92-2.88Z"/><path class="cls-16" d="M172.9,641.16v-5.6s2.35,0,2.35,0v5.3c0,1.39.39,1.87,1.25,1.87.74,0,1.22-.32,1.82-1.12v-6.05s2.35,0,2.35,0v8.96s-1.92,0-1.92,0l-.18-1.28h-.06c-.77.91-1.63,1.51-2.86,1.51-1.92,0-2.75-1.34-2.75-3.58Z"/><path class="cls-16" d="M183.36,641.38v-3.97s-1.27,0-1.27,0v-1.75l1.38-.11.27-2.4h1.97s0,2.4,0,2.4h2.21s0,1.86,0,1.86h-2.21s0,3.97,0,3.97c0,1.02.42,1.5,1.22,1.5.29,0,.64-.1.88-.19l.38,1.71c-.48.16-1.1.34-1.89.34-2.13,0-2.95-1.34-2.95-3.36Z"/><path class="cls-16" d="M189.36,632.83c0-.77.59-1.28,1.41-1.28s1.39.51,1.39,1.28c0,.74-.59,1.28-1.39,1.28-.82,0-1.41-.54-1.41-1.28ZM189.58,635.55h2.34s0,8.96,0,8.96h-2.34s0-8.96,0-8.96Z"/><path class="cls-16" d="M193.73,640.05c0-2.99,2.06-4.72,4.3-4.72,2.24,0,4.31,1.73,4.31,4.72,0,2.96-2.06,4.69-4.3,4.69-2.24,0-4.31-1.73-4.31-4.69ZM199.94,640.05c0-1.7-.69-2.8-1.91-2.8-1.22,0-1.9,1.1-1.9,2.8,0,1.68.69,2.77,1.91,2.77,1.22,0,1.91-1.09,1.9-2.77Z"/><path class="cls-16" d="M204.14,635.55h1.92l.16,1.18h.06c.78-.77,1.7-1.41,2.91-1.41,1.94,0,2.77,1.34,2.77,3.6v5.59s-2.35,0-2.35,0v-5.3c0-1.38-.39-1.87-1.27-1.87-.74,0-1.2.35-1.87,1.01v6.16s-2.33,0-2.33,0v-8.96Z"/><path class="cls-2" d="M155.28,742.55l-57.14-61.28c15.97-14.9,35.3-22.51,57.14-22.51v83.79Z"/><path class="cls-4" d="M155.28,742.55l-56.06,62.27c-34.39-30.96-37.16-83.94-6.2-118.33,1.61-1.79,3.36-3.57,5.12-5.21l57.14,61.28Z"/><path class="cls-3" d="M155.28,742.55l77.13,32.74c-18.08,42.6-67.27,62.47-109.86,44.39-12.83-3.64-16.65-8.27-23.33-14.86l56.06-62.27Z"/><path class="cls-1" d="M155.28,742.55l80.93-21.69c5.03,18.77,3.79,36.53-3.81,54.42l-77.13-32.74Z"/><path class="cls-5" d="M155.28,742.55v-83.79c39.06,0,70.82,24.38,80.93,62.1l-80.93,21.69Z"/><path class="cls-16" d="M177.17,704.45c0-2.12.86-3.85,2.16-5.17l.65.34c-1.25,1.29-2.02,2.9-2.02,4.83s.77,3.54,2.02,4.83l-.65.34c-1.3-1.33-2.16-3.05-2.16-5.17Z"/><path class="cls-16" d="M180.85,707.99c2.5-2.18,3.65-3.77,3.65-5.14,0-.91-.48-1.58-1.47-1.58-.65,0-1.22.4-1.65.92l-.58-.56c.65-.71,1.34-1.17,2.35-1.17,1.42,0,2.31.93,2.31,2.36,0,1.59-1.25,3.21-3.12,4.98.41-.03.9-.08,1.3-.08h2.21v.86h-5.01v-.59Z"/><path class="cls-16" d="M187.25,707.75h1.77v-5.94h-1.41v-.63c.71-.13,1.22-.31,1.65-.56h.76v7.14h1.6v.83h-4.37v-.83Z"/><path class="cls-16" d="M193,707.97c0-.45.33-.77.72-.77s.72.33.72.77-.33.75-.72.75-.72-.3-.72-.75Z"/><path class="cls-16" d="M196.08,707.75h1.77v-5.94h-1.41v-.63c.71-.13,1.22-.31,1.65-.56h.76v7.14h1.6v.83h-4.37v-.83Z"/><path class="cls-16" d="M201.89,702.82c0-1.6.72-2.51,1.81-2.51s1.81.91,1.81,2.51-.73,2.53-1.81,2.53-1.81-.92-1.81-2.53ZM204.75,702.82c0-1.28-.42-1.89-1.05-1.89s-1.07.61-1.07,1.89.43,1.91,1.07,1.91,1.05-.64,1.05-1.91ZM208.34,700.31h.66l-4.41,8.28h-.66l4.41-8.28ZM207.45,706.05c0-1.6.72-2.51,1.8-2.51s1.81.91,1.81,2.51-.72,2.53-1.81,2.53-1.8-.92-1.8-2.53ZM210.32,706.05c0-1.27-.42-1.89-1.07-1.89s-1.05.62-1.05,1.89.42,1.91,1.05,1.91,1.07-.64,1.07-1.91Z"/><path class="cls-16" d="M215.1,704.45c0,2.12-.86,3.85-2.16,5.17l-.65-.34c1.25-1.29,2.02-2.9,2.02-4.83s-.77-3.54-2.02-4.83l.65-.34c1.3,1.33,2.16,3.05,2.16,5.17Z"/><path class="cls-16" d="M176.89,690.99c4.7-4.21,7.49-7.46,7.49-10.13,0-1.75-.96-2.81-2.6-2.81-1.26,0-2.32.82-3.18,1.78l-1.87-1.87c1.59-1.68,3.13-2.62,5.5-2.62,3.28,0,5.45,2.11,5.45,5.33s-2.6,6.5-5.75,9.59c.87-.09,2.01-.19,2.81-.19h3.77v2.9h-11.6v-1.99Z"/><path class="cls-16" d="M190.46,684.26c0-5.99,2.34-8.91,5.87-8.91s5.85,2.95,5.85,8.91-2.34,9.05-5.85,9.05-5.87-3.09-5.87-9.05ZM198.93,684.26c0-4.84-1.12-6.25-2.6-6.25s-2.62,1.4-2.62,6.25,1.12,6.36,2.62,6.36,2.6-1.5,2.6-6.36Z"/><path class="cls-16" d="M204.3,690.84l.9-1.23c.67.52,1.31.82,2,.82.75,0,1.08-.32,1.08-.79,0-.56-.78-.82-1.56-1.12-.95-.36-2.04-.94-2.04-2.18,0-1.35,1.1-2.3,2.78-2.3,1.1,0,1.92.45,2.55.92l-.88,1.19c-.53-.37-1.06-.64-1.62-.64-.67,0-.99.29-.99.72,0,.55.74.75,1.52,1.04.99.37,2.09.87,2.09,2.26,0,1.31-1.03,2.37-2.98,2.37-1,0-2.11-.44-2.85-1.06Z"/><path class="cls-16" d="M211.42,770.44c0-2.12.86-3.85,2.16-5.17l.65.34c-1.25,1.29-2.02,2.9-2.02,4.83s.77,3.54,2.02,4.83l-.65.34c-1.3-1.33-2.16-3.05-2.16-5.17Z"/><path class="cls-16" d="M215.58,773.74h1.77v-5.94h-1.41v-.63c.71-.13,1.22-.32,1.65-.56h.76v7.14h1.6v.83h-4.37v-.83Z"/><path class="cls-16" d="M221.07,770.56c0-2.77.97-4.11,2.49-4.11s2.48,1.35,2.48,4.11-.97,4.15-2.48,4.15-2.49-1.38-2.49-4.15ZM225.07,770.56c0-2.33-.61-3.3-1.51-3.3s-1.52.98-1.52,3.3.61,3.36,1.52,3.36,1.51-1.01,1.51-3.36Z"/><path class="cls-16" d="M227.25,773.96c0-.45.33-.77.72-.77s.72.33.72.77-.33.75-.72.75-.72-.3-.72-.75Z"/><path class="cls-16" d="M229.67,773.66l.49-.65c.46.46,1.03.88,1.96.88s1.69-.72,1.69-1.88-.65-1.81-1.65-1.81c-.53,0-.87.16-1.33.47l-.53-.33.25-3.73h3.88v.85h-3.01l-.2,2.3c.35-.2.71-.31,1.18-.31,1.33,0,2.4.78,2.4,2.53s-1.26,2.74-2.61,2.74c-1.24,0-2-.52-2.53-1.05Z"/><path class="cls-16" d="M236.14,768.81c0-1.6.72-2.51,1.81-2.51s1.81.91,1.81,2.51-.73,2.53-1.81,2.53-1.81-.92-1.81-2.53ZM239,768.81c0-1.28-.42-1.89-1.05-1.89s-1.07.61-1.07,1.89.43,1.91,1.07,1.91,1.05-.64,1.05-1.91ZM242.59,766.3h.66l-4.41,8.28h-.66l4.41-8.28ZM241.7,772.05c0-1.6.72-2.51,1.8-2.51s1.81.91,1.81,2.51-.72,2.53-1.81,2.53-1.8-.92-1.8-2.53ZM244.57,772.05c0-1.27-.42-1.89-1.07-1.89s-1.05.62-1.05,1.89.42,1.91,1.05,1.91,1.07-.64,1.07-1.91Z"/><path class="cls-16" d="M249.35,770.44c0,2.12-.86,3.85-2.16,5.17l-.65-.34c1.25-1.29,2.02-2.9,2.02-4.83s-.77-3.54-2.02-4.83l.65-.34c1.3,1.33,2.16,3.05,2.16,5.17Z"/><path class="cls-16" d="M210.75,756.89l1.61-2.18c1.03,1.01,2.29,1.78,3.86,1.78,1.75,0,2.95-.87,2.95-2.41,0-1.71-1.01-2.76-4.77-2.76v-2.48c3.18,0,4.21-1.1,4.21-2.64,0-1.36-.84-2.15-2.32-2.18-1.24.02-2.25.61-3.28,1.54l-1.75-2.11c1.5-1.31,3.16-2.13,5.19-2.13,3.35,0,5.61,1.64,5.61,4.61,0,1.87-1.05,3.23-2.9,3.95v.12c1.96.54,3.46,1.99,3.46,4.26,0,3.18-2.78,5.03-6.08,5.03-2.74,0-4.58-1.03-5.8-2.41Z"/><path class="cls-16" d="M224.71,750.25c0-5.99,2.34-8.91,5.87-8.91s5.85,2.95,5.85,8.91-2.34,9.05-5.85,9.05-5.87-3.09-5.87-9.05ZM233.18,750.25c0-4.84-1.12-6.25-2.6-6.25s-2.62,1.4-2.62,6.25,1.12,6.36,2.62,6.36,2.6-1.5,2.6-6.36Z"/><path class="cls-16" d="M238.55,756.83l.9-1.23c.67.52,1.31.82,2,.82.75,0,1.08-.32,1.08-.79,0-.56-.78-.82-1.56-1.12-.95-.36-2.04-.94-2.04-2.18,0-1.35,1.1-2.3,2.78-2.3,1.1,0,1.92.45,2.55.92l-.88,1.19c-.53-.37-1.06-.64-1.62-.64-.67,0-.99.29-.99.72,0,.55.74.75,1.52,1.04.99.37,2.09.87,2.09,2.26,0,1.31-1.03,2.37-2.98,2.37-1,0-2.11-.44-2.85-1.06Z"/><path class="cls-16" d="M147.1,808.87c0-2.12.86-3.85,2.16-5.17l.65.34c-1.25,1.29-2.02,2.9-2.02,4.83s.77,3.54,2.02,4.83l-.65.34c-1.3-1.33-2.16-3.05-2.16-5.17Z"/><path class="cls-16" d="M150.62,812.05l.5-.65c.47.49,1.08.91,1.98.91s1.62-.56,1.62-1.48-.64-1.6-2.48-1.6v-.76c1.64,0,2.21-.66,2.21-1.52,0-.77-.52-1.26-1.35-1.28-.64.02-1.21.35-1.65.79l-.53-.63c.6-.55,1.3-.96,2.23-.96,1.34,0,2.31.72,2.31,2,0,.97-.58,1.61-1.42,1.92v.04c.95.22,1.69.93,1.69,2.02,0,1.42-1.14,2.27-2.55,2.27-1.25,0-2.03-.52-2.55-1.09Z"/><path class="cls-16" d="M156.75,808.99c0-2.77.97-4.11,2.49-4.11s2.48,1.35,2.48,4.11-.97,4.15-2.48,4.15-2.49-1.38-2.49-4.15ZM160.75,808.99c0-2.32-.61-3.3-1.51-3.3s-1.52.98-1.52,3.3.61,3.36,1.52,3.36,1.51-1.01,1.51-3.36Z"/><path class="cls-16" d="M162.93,812.39c0-.45.33-.77.72-.77s.72.33.72.77-.33.75-.72.75-.72-.3-.72-.75Z"/><path class="cls-16" d="M165.36,812.05l.5-.65c.47.49,1.08.91,1.98.91s1.62-.56,1.62-1.48-.64-1.6-2.48-1.6v-.76c1.64,0,2.21-.66,2.21-1.52,0-.77-.52-1.26-1.35-1.28-.64.02-1.21.35-1.65.79l-.53-.63c.6-.55,1.3-.96,2.23-.96,1.34,0,2.31.72,2.31,2,0,.97-.58,1.61-1.42,1.92v.04c.95.22,1.69.93,1.69,2.02,0,1.42-1.14,2.27-2.55,2.27-1.25,0-2.03-.52-2.55-1.09Z"/><path class="cls-16" d="M171.81,807.24c0-1.6.72-2.51,1.81-2.51s1.81.91,1.81,2.51-.73,2.53-1.81,2.53-1.81-.92-1.81-2.53ZM174.68,807.24c0-1.28-.42-1.89-1.05-1.89s-1.07.61-1.07,1.89.43,1.91,1.07,1.91,1.05-.64,1.05-1.91ZM178.27,804.73h.66l-4.41,8.28h-.66l4.41-8.28ZM177.38,810.47c0-1.6.72-2.51,1.8-2.51s1.81.91,1.81,2.51-.72,2.53-1.81,2.53-1.8-.92-1.8-2.53ZM180.25,810.47c0-1.27-.42-1.89-1.07-1.89s-1.05.62-1.05,1.89.42,1.91,1.05,1.91,1.07-.64,1.07-1.91Z"/><path class="cls-16" d="M185.03,808.87c0,2.12-.86,3.85-2.16,5.17l-.65-.34c1.25-1.29,2.02-2.9,2.02-4.83s-.77-3.54-2.02-4.83l.65-.34c1.3,1.33,2.16,3.05,2.16,5.17Z"/><path class="cls-16" d="M158.94,792.91h-2.06v4.49h-3.21v-4.49h-7.37v-2.34l6.46-10.48h4.12v10.2h2.06v2.62ZM153.68,790.29v-3.53c0-1.01.09-2.57.14-3.58h-.09c-.42.91-.89,1.87-1.38,2.81l-2.69,4.3h4.02Z"/><path class="cls-16" d="M160.39,788.68c0-5.99,2.34-8.91,5.87-8.91s5.85,2.95,5.85,8.91-2.34,9.05-5.85,9.05-5.87-3.09-5.87-9.05ZM168.86,788.68c0-4.84-1.12-6.25-2.6-6.25s-2.62,1.4-2.62,6.25,1.12,6.36,2.62,6.36,2.6-1.5,2.6-6.36Z"/><path class="cls-16" d="M174.23,795.25l.9-1.23c.67.52,1.31.82,2,.82.75,0,1.08-.32,1.08-.79,0-.56-.78-.82-1.56-1.12-.95-.36-2.04-.94-2.04-2.18,0-1.35,1.1-2.3,2.78-2.3,1.1,0,1.92.45,2.55.92l-.88,1.19c-.53-.37-1.06-.64-1.62-.64-.67,0-.99.29-.99.72,0,.55.74.75,1.52,1.04.99.37,2.09.87,2.09,2.26,0,1.31-1.03,2.37-2.98,2.37-1,0-2.11-.44-2.85-1.06Z"/><path class="cls-16" d="M71.92,752.06c0-2.12.86-3.85,2.16-5.17l.65.34c-1.25,1.29-2.02,2.9-2.02,4.83s.77,3.54,2.02,4.83l-.65.34c-1.3-1.33-2.16-3.05-2.16-5.17Z"/><path class="cls-16" d="M75.6,755.6c2.5-2.18,3.65-3.77,3.65-5.14,0-.91-.48-1.58-1.47-1.58-.65,0-1.22.4-1.65.92l-.58-.56c.65-.71,1.34-1.17,2.35-1.17,1.42,0,2.31.93,2.31,2.36,0,1.59-1.25,3.2-3.12,4.98.41-.03.9-.08,1.3-.08h2.21v.86h-5.01v-.59Z"/><path class="cls-16" d="M85.9,749.51c-.32-.38-.79-.61-1.28-.61-1.09,0-2.01.84-2.05,3.31.49-.6,1.18-.97,1.81-.97,1.35,0,2.21.84,2.21,2.5,0,1.54-1.04,2.59-2.28,2.59-1.53,0-2.66-1.31-2.66-3.94,0-3.12,1.4-4.31,2.94-4.31.83,0,1.42.35,1.86.81l-.54.62ZM85.65,753.75c0-1.08-.47-1.76-1.43-1.76-.5,0-1.11.28-1.63,1.02.12,1.65.72,2.55,1.72,2.55.76,0,1.35-.73,1.35-1.81Z"/><path class="cls-16" d="M87.75,755.58c0-.45.33-.77.72-.77s.72.33.72.77-.33.75-.72.75-.72-.3-.72-.75Z"/><path class="cls-16" d="M90.18,755.24l.5-.65c.47.49,1.08.91,1.98.91s1.62-.56,1.62-1.48-.64-1.6-2.48-1.6v-.76c1.64,0,2.21-.66,2.21-1.52,0-.77-.52-1.26-1.35-1.28-.64.02-1.21.35-1.65.79l-.53-.63c.6-.55,1.3-.96,2.23-.96,1.34,0,2.31.72,2.31,2,0,.97-.58,1.61-1.42,1.92v.04c.95.22,1.69.93,1.69,2.02,0,1.42-1.14,2.27-2.55,2.27-1.25,0-2.03-.52-2.55-1.09Z"/><path class="cls-16" d="M96.63,750.43c0-1.6.72-2.51,1.81-2.51s1.81.91,1.81,2.51-.73,2.53-1.81,2.53-1.81-.92-1.81-2.53ZM99.5,750.43c0-1.28-.42-1.89-1.05-1.89s-1.07.61-1.07,1.89.43,1.91,1.07,1.91,1.05-.64,1.05-1.91ZM103.09,747.92h.66l-4.41,8.28h-.66l4.41-8.28ZM102.2,753.67c0-1.6.72-2.51,1.8-2.51s1.81.91,1.81,2.51-.72,2.53-1.81,2.53-1.8-.92-1.8-2.53ZM105.06,753.67c0-1.27-.42-1.89-1.07-1.89s-1.05.62-1.05,1.89.42,1.91,1.05,1.91,1.07-.64,1.07-1.91Z"/><path class="cls-16" d="M109.85,752.06c0,2.12-.86,3.85-2.16,5.17l-.65-.34c1.25-1.29,2.02-2.9,2.02-4.83s-.77-3.54-2.02-4.83l.65-.34c1.3,1.33,2.16,3.05,2.16,5.17Z"/><path class="cls-16" d="M71.24,738.56l1.59-2.2c.98.96,2.2,1.75,3.81,1.75,1.8,0,3.06-1.15,3.06-3.18s-1.17-3.13-2.92-3.13c-1.03,0-1.59.26-2.6.91l-1.57-1.03.47-8.4h9.26v2.88h-6.29l-.33,3.67c.68-.33,1.29-.49,2.08-.49,2.9,0,5.33,1.73,5.33,5.5s-2.85,6.08-6.06,6.08c-2.74,0-4.56-1.08-5.85-2.36Z"/><path class="cls-16" d="M85.21,731.87c0-5.99,2.34-8.91,5.87-8.91s5.85,2.95,5.85,8.91-2.34,9.05-5.85,9.05-5.87-3.09-5.87-9.05ZM93.67,731.87c0-4.84-1.12-6.25-2.6-6.25s-2.62,1.4-2.62,6.25,1.12,6.36,2.62,6.36,2.6-1.5,2.6-6.36Z"/><path class="cls-16" d="M99.05,738.45l.9-1.23c.67.52,1.31.82,2,.82.75,0,1.08-.32,1.08-.79,0-.56-.78-.82-1.56-1.12-.95-.36-2.04-.94-2.04-2.18,0-1.35,1.1-2.3,2.78-2.3,1.1,0,1.92.45,2.55.92l-.88,1.19c-.53-.37-1.06-.64-1.62-.64-.67,0-.99.29-.99.72,0,.55.74.75,1.52,1.04.99.37,2.09.87,2.09,2.26,0,1.31-1.03,2.37-2.98,2.37-1,0-2.11-.44-2.85-1.06Z"/><path class="cls-16" d="M110.01,695.9c0-1.79.73-3.25,1.83-4.37l.55.29c-1.06,1.09-1.71,2.45-1.71,4.09s.65,2.99,1.71,4.09l-.55.28c-1.1-1.12-1.83-2.58-1.83-4.37Z"/><path class="cls-16" d="M113.54,698.69h1.5v-5.02h-1.19v-.53c.6-.11,1.03-.27,1.4-.48h.64v6.04h1.35v.7h-3.69v-.7Z"/><path class="cls-16" d="M118.54,698.69h1.5v-5.02h-1.19v-.53c.6-.11,1.03-.27,1.4-.48h.64v6.04h1.35v.7h-3.69v-.7Z"/><path class="cls-16" d="M123.41,698.87c0-.38.28-.65.61-.65s.61.28.61.65-.28.63-.61.63-.61-.26-.61-.63Z"/><path class="cls-16" d="M125.62,697.71c0-.9.62-1.52,1.24-1.86v-.05c-.5-.34-.91-.85-.91-1.55,0-1.03.79-1.71,1.85-1.71,1.15,0,1.85.73,1.85,1.77,0,.71-.5,1.31-.9,1.63v.05c.59.34,1.14.85,1.14,1.76,0,.98-.85,1.75-2.11,1.75s-2.15-.75-2.15-1.79ZM129.08,697.74c0-.9-.83-1.24-1.78-1.63-.54.35-.92.88-.92,1.52,0,.72.6,1.24,1.41,1.24s1.29-.47,1.29-1.14ZM128.93,694.37c0-.66-.42-1.2-1.15-1.2-.62,0-1.07.44-1.07,1.09,0,.81.73,1.16,1.52,1.47.46-.4.7-.86.7-1.36Z"/><path class="cls-16" d="M130.93,694.52c0-1.35.61-2.12,1.53-2.12s1.53.77,1.53,2.12-.62,2.14-1.53,2.14-1.53-.78-1.53-2.14ZM133.35,694.52c0-1.08-.36-1.6-.89-1.6s-.9.51-.9,1.6.37,1.62.9,1.62.89-.54.89-1.62ZM136.39,692.4h.56l-3.73,7h-.56l3.73-7ZM135.63,697.26c0-1.35.61-2.12,1.52-2.12s1.53.77,1.53,2.12-.61,2.14-1.53,2.14-1.52-.78-1.52-2.14ZM138.06,697.26c0-1.08-.36-1.6-.9-1.6s-.89.52-.89,1.6.36,1.62.89,1.62.9-.54.9-1.62Z"/><path class="cls-16" d="M142.11,695.9c0,1.79-.73,3.25-1.83,4.37l-.55-.28c1.06-1.09,1.71-2.45,1.71-4.09s-.65-2.99-1.71-4.09l.55-.29c1.1,1.12,1.83,2.58,1.83,4.37Z"/><path class="cls-16" d="M118.07,674.47c-.53-.61-1.44-1.09-2.31-1.09-1.72,0-3.14,1.3-3.26,5.04.81-.99,2.11-1.6,3.08-1.6,2.51,0,4.29,1.5,4.29,4.72s-2.15,5-4.7,5c-2.85,0-5.39-2.29-5.39-7.57,0-5.59,2.77-7.98,5.79-7.98,1.82,0,3.16.77,4.07,1.7l-1.58,1.78ZM117.13,681.53c0-1.78-.83-2.61-2.13-2.61-.81,0-1.7.43-2.45,1.58.28,2.73,1.3,3.79,2.55,3.79,1.11,0,2.02-.93,2.02-2.75Z"/><path class="cls-16" d="M121.38,678.7c0-5.18,2.03-7.71,5.08-7.71s5.06,2.55,5.06,7.71-2.02,7.84-5.06,7.84-5.08-2.67-5.08-7.84ZM128.71,678.7c0-4.19-.97-5.41-2.25-5.41s-2.27,1.21-2.27,5.41.97,5.51,2.27,5.51,2.25-1.3,2.25-5.51Z"/><path class="cls-16" d="M133.41,684.28l.9-1.23c.67.52,1.31.82,2,.82.75,0,1.08-.32,1.08-.79,0-.56-.78-.82-1.56-1.12-.95-.36-2.04-.94-2.04-2.18,0-1.35,1.1-2.3,2.78-2.3,1.1,0,1.92.45,2.55.92l-.88,1.19c-.53-.37-1.06-.64-1.62-.64-.67,0-.99.29-.99.72,0,.55.74.75,1.52,1.04.99.37,2.09.87,2.09,2.26,0,1.31-1.03,2.37-2.98,2.37-1,0-2.11-.44-2.85-1.06Z"/><line class="cls-10" x1="96.03" y1="1053.72" x2="233.96" y2="1053.72"/><line class="cls-10" x1="96.03" y1="1053.72" x2="96.03" y2="1050.74"/><line class="cls-10" x1="150.08" y1="1053.72" x2="150.08" y2="1050.74"/><line class="cls-10" x1="192.02" y1="1053.72" x2="192.02" y2="1050.74"/><line class="cls-10" x1="233.96" y1="1053.72" x2="233.96" y2="1050.74"/><path class="cls-12" d="M88.62,1054.52c0-2.32,1-3.45,2.51-3.45s2.5,1.14,2.5,3.45-1,3.51-2.5,3.51-2.51-1.2-2.51-3.51ZM92.24,1054.52c0-1.88-.48-2.42-1.11-2.42s-1.12.54-1.12,2.42.48,2.47,1.12,2.47,1.11-.58,1.11-2.47Z"/><path class="cls-12" d="M88.61,1033.33c2.01-1.63,3.2-2.89,3.2-3.92,0-.68-.41-1.09-1.11-1.09-.54,0-.99.32-1.36.69l-.8-.73c.68-.65,1.34-1.02,2.35-1.02,1.4,0,2.33.82,2.33,2.07s-1.11,2.52-2.46,3.72c.37-.04.86-.07,1.2-.07h1.61v1.12h-4.96v-.77Z"/><path class="cls-12" d="M93.78,1008.57h-.88v1.74h-1.37v-1.74h-3.15v-.91l2.76-4.06h1.76v3.95h.88v1.02ZM91.54,1007.56v-1.37c0-.39.04-1,.06-1.39h-.04c-.18.35-.38.72-.59,1.09l-1.15,1.67h1.72Z"/><path class="cls-12" d="M92.77,981.24c-.26-.27-.71-.49-1.14-.49-.85,0-1.55.58-1.61,2.26.4-.44,1.04-.72,1.52-.72,1.24,0,2.12.67,2.12,2.11s-1.06,2.24-2.32,2.24c-1.41,0-2.66-1.02-2.66-3.39,0-2.5,1.37-3.57,2.86-3.57.9,0,1.56.34,2.01.76l-.78.8ZM92.31,984.4c0-.8-.41-1.17-1.05-1.17-.4,0-.84.19-1.21.71.14,1.22.64,1.69,1.26,1.69.55,0,1-.42,1-1.23Z"/><path class="cls-12" d="M88.65,961.06c0-.86.58-1.41,1.27-1.75v-.05c-.57-.37-.98-.88-.98-1.6,0-1.08.94-1.77,2.23-1.77s2.15.72,2.15,1.79c0,.66-.46,1.21-.95,1.53v.04c.68.34,1.24.88,1.24,1.79,0,1.01-.99,1.79-2.49,1.79-1.41,0-2.47-.74-2.47-1.79ZM92.24,961.01c0-.7-.68-.99-1.64-1.34-.4.29-.68.74-.68,1.24,0,.61.55,1,1.24,1,.62,0,1.08-.32,1.08-.9ZM92.12,957.77c0-.54-.36-.93-.98-.93-.5,0-.9.3-.9.83,0,.63.57.94,1.35,1.22.36-.34.53-.73.53-1.12Z"/><path class="cls-12" d="M83.21,937.85h1.59v-4.24h-1.34v-.83c.74-.13,1.25-.3,1.72-.56h1.09v5.63h1.39v1.08h-4.45v-1.08Z"/><path class="cls-12" d="M88.62,935.55c0-2.32,1-3.45,2.51-3.45s2.5,1.14,2.5,3.45-1,3.51-2.5,3.51-2.51-1.2-2.51-3.51ZM92.24,935.55c0-1.88-.48-2.42-1.11-2.42s-1.12.54-1.12,2.42.48,2.46,1.12,2.46,1.11-.58,1.11-2.46Z"/><line class="cls-10" x1="96.03" y1="1053.72" x2="96.03" y2="934.75"/><line class="cls-10" x1="96.03" y1="1053.72" x2="99.18" y2="1053.72"/><line class="cls-10" x1="96.03" y1="1029.92" x2="99.18" y2="1029.92"/><line class="cls-10" x1="96.03" y1="1006.13" x2="99.18" y2="1006.13"/><line class="cls-10" x1="96.03" y1="982.33" x2="99.18" y2="982.33"/><line class="cls-10" x1="96.03" y1="958.54" x2="99.18" y2="958.54"/><line class="cls-10" x1="96.03" y1="934.75" x2="99.18" y2="934.75"/><rect class="cls-9" x="155.96" y="946.64" width="30.2"/><rect class="cls-11" x="114.02" y="970.44" width="30.2" height="47.59"/><rect class="cls-11" x="197.9" y="958.54" width="30.2" height="95.18"/><rect class="cls-11" x="155.96" y="946.64" width="30.2" height="107.07"/><rect class="cls-13" x="114.02" y="1018.03" width="30.2" height="35.69"/><path class="cls-16" d="M204.96,1073.5c2.76-2.41,4.03-4.16,4.03-5.67,0-1.01-.53-1.74-1.62-1.74-.72,0-1.34.44-1.82,1.02l-.64-.62c.72-.78,1.48-1.3,2.59-1.3,1.57,0,2.55,1.03,2.55,2.6,0,1.75-1.38,3.54-3.44,5.49.46-.04,1-.08,1.44-.08h2.43v.95h-5.53v-.65Z"/><path class="cls-16" d="M211.56,1069.72c0-3.06,1.07-4.53,2.75-4.53s2.73,1.49,2.73,4.53-1.07,4.58-2.73,4.58-2.75-1.52-2.75-4.58ZM215.97,1069.72c0-2.57-.67-3.65-1.67-3.65s-1.68,1.08-1.68,3.65.67,3.71,1.68,3.71,1.67-1.12,1.67-3.71Z"/><path class="cls-16" d="M218.04,1073.5c2.76-2.41,4.03-4.16,4.03-5.67,0-1.01-.53-1.74-1.62-1.74-.72,0-1.34.44-1.82,1.02l-.64-.62c.72-.78,1.48-1.3,2.59-1.3,1.57,0,2.55,1.03,2.55,2.6,0,1.75-1.38,3.54-3.44,5.49.46-.04,1-.08,1.44-.08h2.43v.95h-5.53v-.65Z"/><path class="cls-16" d="M224.4,1073.11l.55-.72c.52.54,1.19,1.01,2.18,1.01,1.04,0,1.79-.62,1.79-1.63s-.71-1.76-2.73-1.76v-.84c1.81,0,2.43-.73,2.43-1.68,0-.85-.58-1.39-1.49-1.42-.71.02-1.33.38-1.82.88l-.59-.7c.66-.61,1.44-1.06,2.46-1.06,1.48,0,2.55.79,2.55,2.21,0,1.07-.64,1.78-1.57,2.12v.05c1.04.24,1.87,1.03,1.87,2.23,0,1.57-1.26,2.51-2.82,2.51-1.38,0-2.24-.58-2.82-1.2Z"/><path class="cls-16" d="M256.54,1070.54l-2.2-4.48h.99l.94,2.07c.24.54.46,1.05.72,1.6h.04c.26-.55.51-1.06.73-1.6l.95-2.07h.96l-2.2,4.48v2.85h-.93v-2.85Z"/><path class="cls-16" d="M260.07,1070.68c0-1.76,1.19-2.86,2.45-2.86,1.38,0,2.16,1,2.16,2.55,0,.2-.02.39-.04.52h-3.66c.06,1.16.77,1.9,1.8,1.9.53,0,.96-.16,1.36-.43l.33.6c-.48.31-1.06.56-1.8.56-1.44,0-2.6-1.05-2.6-2.84ZM263.88,1070.24c0-1.1-.5-1.69-1.35-1.69-.77,0-1.45.62-1.56,1.69h2.91Z"/><path class="cls-16" d="M265.58,1071.98c0-1.18,1.03-1.77,3.34-2.03,0-.7-.23-1.37-1.12-1.37-.63,0-1.2.29-1.63.58l-.36-.63c.5-.32,1.27-.71,2.14-.71,1.32,0,1.88.89,1.88,2.23v3.34h-.75l-.08-.65h-.03c-.52.43-1.13.78-1.8.78-.91,0-1.59-.56-1.59-1.54ZM268.92,1072.07v-1.52c-1.83.22-2.45.67-2.45,1.37,0,.62.42.87.96.87s.96-.25,1.49-.72Z"/><path class="cls-16" d="M271.46,1067.96h.75l.08.99h.03c.38-.69.93-1.13,1.54-1.13.24,0,.41.03.58.12l-.17.8c-.18-.07-.31-.09-.53-.09-.45,0-1.01.32-1.37,1.25v3.49h-.91v-5.43Z"/><path class="cls-16" d="M157.67,1073.5c2.76-2.41,4.03-4.16,4.03-5.67,0-1.01-.53-1.74-1.62-1.74-.72,0-1.34.44-1.82,1.02l-.64-.62c.72-.78,1.48-1.3,2.59-1.3,1.57,0,2.55,1.03,2.55,2.6,0,1.75-1.38,3.54-3.44,5.49.46-.04,1-.08,1.44-.08h2.43v.95h-5.53v-.65Z"/><path class="cls-16" d="M164.27,1069.72c0-3.06,1.07-4.53,2.75-4.53s2.73,1.49,2.73,4.53-1.07,4.58-2.73,4.58-2.75-1.52-2.75-4.58ZM168.69,1069.72c0-2.57-.67-3.65-1.67-3.65s-1.68,1.08-1.68,3.65.67,3.71,1.68,3.71,1.67-1.12,1.67-3.71Z"/><path class="cls-16" d="M170.75,1073.5c2.76-2.41,4.03-4.16,4.03-5.67,0-1.01-.53-1.74-1.62-1.74-.72,0-1.34.44-1.82,1.02l-.64-.62c.72-.78,1.48-1.3,2.59-1.3,1.57,0,2.55,1.03,2.55,2.6,0,1.75-1.38,3.54-3.44,5.49.46-.04,1-.08,1.44-.08h2.43v.95h-5.53v-.65Z"/><path class="cls-16" d="M177.29,1073.5c2.76-2.41,4.03-4.16,4.03-5.67,0-1.01-.53-1.74-1.62-1.74-.72,0-1.34.44-1.82,1.02l-.64-.62c.72-.78,1.48-1.3,2.59-1.3,1.57,0,2.55,1.03,2.55,2.6,0,1.75-1.38,3.54-3.44,5.49.46-.04,1-.08,1.44-.08h2.43v.95h-5.53v-.65Z"/><path class="cls-16" d="M110.38,1073.5c2.76-2.41,4.03-4.16,4.03-5.67,0-1.01-.53-1.74-1.62-1.74-.72,0-1.34.44-1.82,1.02l-.64-.62c.72-.78,1.48-1.3,2.59-1.3,1.57,0,2.55,1.03,2.55,2.6,0,1.75-1.38,3.54-3.44,5.49.46-.04,1-.08,1.44-.08h2.43v.95h-5.53v-.65Z"/><path class="cls-16" d="M116.99,1069.72c0-3.06,1.07-4.53,2.75-4.53s2.73,1.49,2.73,4.53-1.07,4.58-2.73,4.58-2.75-1.52-2.75-4.58ZM121.4,1069.72c0-2.57-.67-3.65-1.67-3.65s-1.68,1.08-1.68,3.65.67,3.71,1.68,3.71,1.67-1.12,1.67-3.71Z"/><path class="cls-16" d="M123.46,1073.5c2.76-2.41,4.03-4.16,4.03-5.67,0-1.01-.53-1.74-1.62-1.74-.72,0-1.34.44-1.82,1.02l-.64-.62c.72-.78,1.48-1.3,2.59-1.3,1.57,0,2.55,1.03,2.55,2.6,0,1.75-1.38,3.54-3.44,5.49.46-.04,1-.08,1.44-.08h2.43v.95h-5.53v-.65Z"/><path class="cls-16" d="M130.53,1073.24h1.96v-6.56h-1.56v-.7c.78-.14,1.34-.35,1.82-.62h.84v7.88h1.76v.91h-4.82v-.91Z"/><rect class="cls-14" x="1" y="0" width="314" height="224"/><path class="cls-16" d="M102.55,31.67c0-3.91,2.53-6.2,5.68-6.2,1.71,0,2.9.74,3.67,1.52l-1.26,1.51c-.58-.56-1.25-.99-2.32-.99-1.97,0-3.34,1.54-3.34,4.08,0,2.58,1.19,4.13,3.51,4.13.58,0,1.15-.16,1.49-.45v-2.34s-2.1,0-2.1,0v-1.94s4.21,0,4.21,0v5.35c-.8.78-2.19,1.43-3.84,1.43-3.23,0-5.68-2.14-5.68-6.1Z"/><path class="cls-16" d="M113.7,33.07c0-2.91,2.03-4.72,4.18-4.72,2.46,0,3.75,1.81,3.75,4.29,0,.43-.05.86-.11,1.07h-5.52c.19,1.47,1.15,2.24,2.48,2.24.74,0,1.38-.22,2.02-.62l.8,1.44c-.88.61-2.02.99-3.14.99-2.5,0-4.45-1.74-4.45-4.69ZM119.61,32.16c0-1.22-.54-1.98-1.7-1.98-.94,0-1.78.67-1.95,1.99h3.65Z"/><path class="cls-16" d="M123.39,28.57h1.92s.16,1.18.16,1.18h.06c.78-.77,1.7-1.41,2.91-1.41,1.94,0,2.77,1.34,2.77,3.6v5.59s-2.35,0-2.35,0v-5.3c0-1.38-.39-1.87-1.27-1.87-.74,0-1.2.35-1.87,1.01v6.16s-2.33,0-2.33,0v-8.96Z"/><path class="cls-16" d="M132.98,33.07c0-2.93,1.82-4.72,3.76-4.72,1.01,0,1.63.38,2.27.98l-.1-1.41v-3.15s2.35,0,2.35,0v12.77s-1.9,0-1.9,0l-.19-.93h-.05c-.66.64-1.55,1.15-2.48,1.15-2.22,0-3.67-1.76-3.67-4.69ZM138.92,34.89v-3.94c-.55-.5-1.11-.67-1.67-.67-1.01,0-1.86.96-1.86,2.75,0,1.86.67,2.78,1.86,2.78.62,0,1.15-.26,1.66-.93Z"/><path class="cls-16" d="M143.08,33.06c0-2.91,2.03-4.72,4.18-4.72,2.46,0,3.75,1.81,3.75,4.29,0,.43-.05.86-.11,1.07h-5.52c.19,1.47,1.15,2.24,2.48,2.24.74,0,1.38-.22,2.02-.62l.8,1.44c-.88.61-2.02.99-3.14.99-2.5,0-4.45-1.74-4.45-4.69ZM148.98,32.15c0-1.22-.54-1.98-1.7-1.98-.94,0-1.78.67-1.95,1.99h3.65Z"/><path class="cls-16" d="M152.77,28.56h1.92s.16,1.58.16,1.58h.06c.66-1.17,1.62-1.81,2.54-1.81.5,0,.78.08,1.06.19l-.42,2.03c-.3-.1-.56-.14-.93-.14-.7,0-1.55.46-2.06,1.76v5.35s-2.33,0-2.33,0v-8.96Z"/><path class="cls-16" d="M169.7,37.52l-2.43-4.48h-1.65s0,4.48,0,4.48h-2.37s0-11.84,0-11.84h4.13c2.48,0,4.45.86,4.45,3.58,0,1.78-.9,2.88-2.26,3.41l2.77,4.85h-2.64ZM165.62,31.17h1.54c1.52,0,2.35-.64,2.35-1.91,0-1.28-.83-1.71-2.35-1.71h-1.54s0,3.62,0,3.62Z"/><path class="cls-16" d="M173.36,35.09c0-1.92,1.55-2.93,5.15-3.31-.03-.88-.42-1.55-1.52-1.55-.83,0-1.63.37-2.47.85l-.85-1.55c1.06-.66,2.34-1.19,3.75-1.19,2.27,0,3.44,1.36,3.44,3.95v5.23s-1.92,0-1.92,0l-.18-.96h-.05c-.78.67-1.68,1.19-2.7,1.19-1.6,0-2.66-1.14-2.66-2.66ZM178.52,35.02v-1.81c-2.18.29-2.91.88-2.91,1.68,0,.7.5,1.01,1.18,1.01.67,0,1.17-.32,1.73-.88Z"/><path class="cls-16" d="M183.44,34.38v-3.97s-1.27,0-1.27,0v-1.74l1.38-.11.27-2.4h1.97s0,2.4,0,2.4h2.21s0,1.86,0,1.86h-2.21s0,3.97,0,3.97c0,1.02.42,1.5,1.22,1.5.29,0,.64-.1.88-.19l.38,1.71c-.48.16-1.1.34-1.89.34-2.13,0-2.95-1.34-2.95-3.36Z"/><path class="cls-16" d="M189.44,25.83c0-.77.59-1.28,1.41-1.28.8,0,1.39.51,1.39,1.28,0,.74-.59,1.28-1.39,1.28-.82,0-1.41-.54-1.41-1.28ZM189.67,28.55h2.34s0,8.96,0,8.96h-2.34s0-8.96,0-8.96Z"/><path class="cls-16" d="M193.81,33.05c0-2.99,2.06-4.72,4.3-4.72,2.24,0,4.31,1.73,4.31,4.72,0,2.96-2.06,4.69-4.3,4.69-2.24,0-4.31-1.73-4.31-4.69ZM200.02,33.05c0-1.7-.69-2.8-1.91-2.8-1.22,0-1.9,1.1-1.9,2.8,0,1.68.69,2.77,1.91,2.77,1.22,0,1.91-1.09,1.9-2.77Z"/><rect class="cls-14" x="1" y="227" width="314" height="377"/><path class="cls-16" d="M77.26,247.72h3.25c3.62,0,5.86,1.87,5.86,5.87,0,3.99-2.24,5.97-5.73,5.97h-3.38s0-11.84,0-11.84ZM80.37,257.66c2.21,0,3.59-1.19,3.58-4.07,0-2.9-1.38-3.99-3.59-3.98h-.74s0,8.05,0,8.05h.74Z"/><path class="cls-16" d="M87.77,255.1c0-2.91,2.03-4.72,4.18-4.72,2.46,0,3.75,1.81,3.75,4.29,0,.43-.05.86-.11,1.07h-5.52c.19,1.47,1.15,2.24,2.48,2.24.74,0,1.38-.22,2.02-.62l.8,1.44c-.88.61-2.02.99-3.14.99-2.5,0-4.45-1.74-4.45-4.69ZM93.68,254.18c0-1.22-.54-1.98-1.7-1.98-.94,0-1.78.67-1.95,1.99h3.65Z"/><path class="cls-16" d="M97.47,250.6h1.92s.16.93.16.93h.06c.75-.64,1.68-1.15,2.64-1.15,2.21,0,3.52,1.81,3.52,4.56,0,3.07-1.84,4.85-3.81,4.85-.79,0-1.54-.35-2.23-.98l.07,1.47v2.72s-2.34,0-2.34,0v-12.41ZM103.36,254.97c0-1.71-.55-2.66-1.78-2.66-.61,0-1.15.3-1.78.93v3.94c.58.5,1.15.67,1.63.67,1.09,0,1.92-.93,1.92-2.88Z"/><path class="cls-16" d="M107.17,257.12c0-1.92,1.55-2.93,5.15-3.31-.03-.88-.42-1.55-1.52-1.55-.83,0-1.63.37-2.47.85l-.85-1.55c1.06-.66,2.34-1.19,3.75-1.19,2.27,0,3.44,1.36,3.44,3.95v5.23s-1.92,0-1.92,0l-.18-.96h-.05c-.78.67-1.68,1.19-2.7,1.19-1.6,0-2.66-1.14-2.66-2.66ZM112.32,257.06v-1.81c-2.18.29-2.91.88-2.91,1.68,0,.7.5,1.01,1.18,1.01.67,0,1.17-.32,1.73-.88Z"/><path class="cls-16" d="M116.91,250.59h1.92s.16,1.58.16,1.58h.06c.66-1.17,1.62-1.81,2.54-1.81.5,0,.78.08,1.06.19l-.42,2.03c-.3-.1-.56-.14-.93-.14-.7,0-1.55.46-2.06,1.76v5.35s-2.33,0-2.33,0v-8.96Z"/><path class="cls-16" d="M124.06,256.42v-3.97s-1.27,0-1.27,0v-1.74l1.38-.11.27-2.4h1.97s0,2.4,0,2.4h2.21s0,1.86,0,1.86h-2.21s0,3.97,0,3.97c0,1.02.42,1.5,1.22,1.5.29,0,.64-.1.88-.19l.38,1.71c-.48.16-1.1.34-1.89.34-2.13,0-2.95-1.34-2.95-3.36Z"/><path class="cls-16" d="M130.28,250.59h1.92s.16,1.2.16,1.2h.06c.75-.78,1.58-1.43,2.75-1.43,1.28,0,2.03.58,2.47,1.57.82-.86,1.68-1.57,2.85-1.57,1.91,0,2.79,1.34,2.79,3.6v5.59s-2.35,0-2.35,0v-5.3c0-1.38-.4-1.87-1.25-1.87-.51,0-1.09.34-1.73,1.01v6.16s-2.35,0-2.35,0v-5.3c0-1.38-.4-1.87-1.25-1.87-.51,0-1.09.34-1.73,1.01v6.16s-2.33,0-2.33,0v-8.96Z"/><path class="cls-16" d="M144.99,255.08c0-2.91,2.03-4.72,4.18-4.72,2.46,0,3.75,1.81,3.75,4.29,0,.43-.05.86-.11,1.07h-5.52c.19,1.47,1.15,2.24,2.48,2.24.74,0,1.38-.22,2.02-.62l.8,1.44c-.88.61-2.02.99-3.14.99-2.5,0-4.45-1.74-4.45-4.69ZM150.89,254.17c0-1.22-.54-1.98-1.7-1.98-.94,0-1.78.67-1.95,1.99h3.65Z"/><path class="cls-16" d="M154.68,250.58h1.92s.16,1.18.16,1.18h.06c.78-.77,1.7-1.41,2.91-1.41,1.94,0,2.77,1.34,2.77,3.6v5.59s-2.35,0-2.35,0v-5.3c0-1.38-.39-1.87-1.27-1.87-.74,0-1.2.35-1.87,1.01v6.16s-2.33,0-2.33,0v-8.96Z"/><path class="cls-16" d="M165.12,256.4v-3.97s-1.27,0-1.27,0v-1.74l1.38-.11.27-2.4h1.97s0,2.4,0,2.4h2.21s0,1.86,0,1.86h-2.21s0,3.97,0,3.97c0,1.02.42,1.5,1.22,1.5.29,0,.64-.1.88-.19l.38,1.71c-.48.16-1.1.34-1.89.34-2.13,0-2.95-1.34-2.95-3.36Z"/><path class="cls-16" d="M173.96,258.5l1.07-1.47c.8.62,1.57.98,2.4.98.9,0,1.3-.38,1.3-.94,0-.67-.93-.98-1.87-1.34-1.14-.43-2.45-1.12-2.45-2.61,0-1.62,1.31-2.75,3.33-2.75,1.31,0,2.31.54,3.06,1.1l-1.06,1.42c-.64-.45-1.26-.77-1.94-.77-.8,0-1.18.35-1.18.86,0,.66.88.9,1.83,1.25,1.18.45,2.5,1.04,2.5,2.7,0,1.57-1.23,2.83-3.57,2.83-1.2,0-2.53-.53-3.41-1.26Z"/><path class="cls-16" d="M182.01,255.07c0-2.91,2.03-4.72,4.18-4.72,2.46,0,3.75,1.81,3.75,4.29,0,.43-.05.86-.11,1.07h-5.52c.19,1.47,1.15,2.24,2.48,2.24.74,0,1.38-.22,2.02-.62l.8,1.44c-.88.61-2.02.99-3.14.99-2.5,0-4.45-1.74-4.45-4.69ZM187.92,254.15c0-1.22-.54-1.98-1.7-1.98-.94,0-1.78.67-1.95,1.99h3.65Z"/><path class="cls-16" d="M191.15,255.06c0-2.99,2.14-4.72,4.58-4.72,1.1,0,1.95.43,2.61.99l-1.12,1.52c-.45-.38-.86-.59-1.38-.59-1.36,0-2.29,1.1-2.29,2.8,0,1.68.93,2.77,2.23,2.77.64,0,1.25-.3,1.75-.72l.93,1.55c-.85.75-1.94,1.09-2.93,1.09-2.48,0-4.37-1.73-4.37-4.69Z"/><path class="cls-16" d="M200.32,256.39v-3.97s-1.27,0-1.27,0v-1.74l1.38-.11.27-2.4h1.97s0,2.4,0,2.4h2.21s0,1.86,0,1.86h-2.21s0,3.97,0,3.97c0,1.02.42,1.5,1.22,1.5.29,0,.64-.1.88-.19l.38,1.71c-.48.16-1.1.34-1.89.34-2.13,0-2.95-1.34-2.95-3.36Z"/><path class="cls-16" d="M206.31,247.84c0-.77.59-1.28,1.41-1.28.8,0,1.39.51,1.39,1.28,0,.74-.59,1.28-1.39,1.28-.82,0-1.41-.54-1.41-1.28ZM206.54,250.56h2.34s0,8.96,0,8.96h-2.34s0-8.96,0-8.96Z"/><path class="cls-16" d="M210.68,255.06c0-2.99,2.06-4.72,4.3-4.72,2.24,0,4.31,1.73,4.31,4.72,0,2.96-2.06,4.69-4.3,4.69-2.24,0-4.31-1.73-4.31-4.69ZM216.89,255.06c0-1.7-.69-2.8-1.91-2.8-1.22,0-1.9,1.1-1.9,2.8,0,1.68.69,2.77,1.91,2.77,1.22,0,1.91-1.09,1.9-2.77Z"/><path class="cls-16" d="M221.1,250.56h1.92s.16,1.18.16,1.18h.06c.78-.77,1.7-1.41,2.91-1.41,1.94,0,2.77,1.34,2.77,3.6v5.59s-2.35,0-2.35,0v-5.3c0-1.38-.39-1.87-1.27-1.87-.74,0-1.2.35-1.87,1.01v6.16s-2.33,0-2.33,0v-8.96Z"/><path class="cls-16" d="M91.53,267.6h1.92s.16.93.16.93h.06c.75-.64,1.68-1.15,2.64-1.15,2.21,0,3.52,1.81,3.52,4.56,0,3.07-1.84,4.85-3.81,4.85-.79,0-1.54-.35-2.23-.98l.06,1.47v2.72s-2.34,0-2.34,0v-12.41ZM97.42,271.97c0-1.71-.55-2.66-1.78-2.66-.61,0-1.15.3-1.78.93v3.94c.58.5,1.15.67,1.63.67,1.09,0,1.92-.93,1.92-2.88Z"/><path class="cls-16" d="M101.12,272.09c0-2.91,2.03-4.72,4.18-4.72,2.46,0,3.75,1.81,3.75,4.29,0,.43-.05.86-.11,1.07h-5.52c.19,1.47,1.15,2.24,2.48,2.24.74,0,1.38-.22,2.02-.62l.8,1.44c-.88.61-2.02.99-3.14.99-2.5,0-4.45-1.74-4.45-4.69ZM107.02,271.18c0-1.22-.54-1.98-1.7-1.98-.94,0-1.78.67-1.95,1.99h3.65Z"/><path class="cls-16" d="M110.81,267.59h1.92s.16,1.58.16,1.58h.06c.66-1.17,1.62-1.81,2.54-1.81.5,0,.78.08,1.06.19l-.42,2.03c-.3-.1-.56-.14-.93-.14-.7,0-1.55.46-2.06,1.76v5.35s-2.33,0-2.33,0v-8.96Z"/><path class="cls-16" d="M117.07,272.09c0-2.99,2.14-4.72,4.58-4.72,1.1,0,1.95.43,2.61.99l-1.12,1.52c-.45-.38-.86-.59-1.38-.59-1.36,0-2.29,1.1-2.29,2.8,0,1.68.93,2.77,2.23,2.77.64,0,1.25-.3,1.74-.72l.93,1.55c-.85.75-1.94,1.09-2.93,1.09-2.48,0-4.37-1.73-4.37-4.69Z"/><path class="cls-16" d="M125.34,272.09c0-2.91,2.03-4.72,4.18-4.72,2.46,0,3.75,1.81,3.75,4.29,0,.43-.05.86-.11,1.07h-5.52c.19,1.47,1.15,2.24,2.48,2.24.74,0,1.38-.22,2.02-.62l.8,1.44c-.88.61-2.02.99-3.14.99-2.5,0-4.45-1.74-4.45-4.69ZM131.24,271.17c0-1.22-.54-1.98-1.7-1.98-.94,0-1.78.67-1.95,1.99h3.65Z"/><path class="cls-16" d="M135.03,267.59h1.92s.16,1.18.16,1.18h.06c.78-.77,1.7-1.41,2.91-1.41,1.94,0,2.77,1.34,2.77,3.6v5.59s-2.35,0-2.35,0v-5.3c0-1.38-.39-1.87-1.27-1.87-.74,0-1.2.35-1.87,1.01v6.16s-2.33,0-2.33,0v-8.96Z"/><path class="cls-16" d="M145.47,273.41v-3.97s-1.27,0-1.27,0v-1.74s1.38-.11,1.38-.11l.27-2.4h1.97s0,2.4,0,2.4h2.21s0,1.86,0,1.86h-2.21s0,3.97,0,3.97c0,1.02.42,1.5,1.22,1.5.29,0,.64-.1.88-.19l.38,1.71c-.48.16-1.1.34-1.89.34-2.13,0-2.94-1.34-2.95-3.36Z"/><path class="cls-16" d="M151.24,274.11c0-1.92,1.55-2.93,5.15-3.31-.03-.88-.42-1.55-1.52-1.55-.83,0-1.63.37-2.47.85l-.85-1.55c1.06-.66,2.34-1.19,3.75-1.19,2.27,0,3.44,1.36,3.44,3.95v5.23s-1.92,0-1.92,0l-.18-.96h-.05c-.78.67-1.68,1.19-2.71,1.19-1.6,0-2.66-1.14-2.66-2.66ZM156.4,274.04v-1.81c-2.18.29-2.91.88-2.91,1.68,0,.7.5,1.01,1.19,1.01.67,0,1.17-.32,1.73-.88Z"/><path class="cls-16" d="M160.39,278.13c0-.75.46-1.39,1.28-1.86v-.08c-.46-.3-.82-.77-.82-1.5,0-.67.46-1.3.99-1.68v-.06c-.61-.45-1.18-1.3-1.19-2.34,0-2.11,1.71-3.25,3.62-3.25.5,0,.98.1,1.34.22h3.23s0,1.73,0,1.73h-1.54c.24.3.42.8.42,1.36,0,2.02-1.54,3.04-3.46,3.04-.35,0-.77-.08-1.15-.21-.26.21-.38.42-.38.77,0,.48.35.74,1.41.74h1.52c2.16,0,3.33.67,3.33,2.24,0,1.81-1.87,3.19-4.87,3.19-2.11,0-3.75-.72-3.75-2.3ZM166.76,277.64c0-.64-.53-.8-1.49-.8h-1.09c-.54,0-.93-.05-1.25-.13-.4.32-.59.67-.59,1.04,0,.75.83,1.18,2.14,1.18,1.34,0,2.27-.59,2.27-1.3ZM165.67,270.6c0-1.06-.59-1.65-1.39-1.65-.8,0-1.41.59-1.41,1.65,0,1.06.62,1.65,1.41,1.65s1.39-.59,1.39-1.65Z"/><path class="cls-16" d="M169.82,272.07c0-2.91,2.03-4.72,4.18-4.72,2.46,0,3.75,1.81,3.75,4.29,0,.43-.05.86-.11,1.07h-5.52c.19,1.47,1.15,2.24,2.48,2.24.74,0,1.38-.22,2.02-.62l.8,1.44c-.88.61-2.02.99-3.14.99-2.5,0-4.45-1.74-4.45-4.69ZM175.72,271.16c0-1.22-.54-1.98-1.7-1.98-.94,0-1.78.67-1.95,1.99h3.65Z"/><path class="cls-16" d="M182.98,267.57h1.92s.16,1.58.16,1.58h.06c.66-1.17,1.62-1.81,2.54-1.81.5,0,.78.08,1.06.19l-.42,2.03c-.3-.1-.56-.14-.93-.14-.7,0-1.55.46-2.06,1.76v5.35s-2.33,0-2.33,0v-8.96Z"/><path class="cls-16" d="M189.35,274.1c0-1.92,1.55-2.93,5.15-3.31-.03-.88-.42-1.55-1.52-1.55-.83,0-1.63.37-2.47.85l-.85-1.55c1.06-.66,2.34-1.19,3.75-1.19,2.27,0,3.44,1.36,3.44,3.95v5.23s-1.92,0-1.92,0l-.18-.96h-.05c-.78.67-1.68,1.19-2.71,1.19-1.6,0-2.66-1.14-2.66-2.66ZM194.51,274.03v-1.81c-2.18.29-2.91.88-2.91,1.68,0,.7.5,1.01,1.19,1.01.67,0,1.17-.32,1.73-.88Z"/><path class="cls-16" d="M199.43,273.39v-3.97s-1.27,0-1.27,0v-1.74s1.38-.11,1.38-.11l.27-2.4h1.97s0,2.4,0,2.4h2.21s0,1.86,0,1.86h-2.21s0,3.97,0,3.97c0,1.02.42,1.5,1.22,1.5.29,0,.64-.1.88-.19l.38,1.71c-.48.16-1.1.34-1.89.34-2.13,0-2.95-1.34-2.95-3.36Z"/><path class="cls-16" d="M205.43,264.84c0-.77.59-1.28,1.41-1.28.8,0,1.39.51,1.39,1.28,0,.74-.59,1.28-1.39,1.28-.82,0-1.41-.54-1.41-1.28ZM205.65,267.56h2.34s0,8.96,0,8.96h-2.34s0-8.96,0-8.96Z"/><path class="cls-16" d="M209.8,272.06c0-2.99,2.06-4.72,4.3-4.72,2.24,0,4.31,1.73,4.31,4.72,0,2.96-2.06,4.69-4.3,4.69-2.24,0-4.31-1.73-4.31-4.69ZM216.01,272.06c0-1.7-.69-2.8-1.91-2.8-1.22,0-1.9,1.1-1.9,2.8,0,1.68.69,2.77,1.91,2.77,1.22,0,1.9-1.09,1.9-2.77Z"/><path class="cls-7" d="M148.73,100.12l-46.06,8.95c-4.94-25.44,11.67-50.07,37.11-55.01,3.05-.59,5.84-.86,8.95-.86v46.92Z"/><path class="cls-8" d="M159.47,111.74v-46.92c25.91,0,46.92,21.01,46.92,46.92s-21.01,46.92-46.92,46.92c-22.8,0-41.71-15.58-46.06-37.97l46.06-8.95Z"/><path class="cls-16" d="M209.92,94.09c-4.44,0-7.94,1.32-10.3,3.74s-3.52,5.87-3.52,9.97c0,1.7.76,4.99,1.37,6.92-.26.22-.52.36-.77.74-.42.65-.73,1.55-.6,2.64.37,3.14,2.34,4.26,2.99,4.59.25,1.47,1.01,3.28,2.25,5.14,1.33,1.99,3.17,3.9,5.41,4.97.04.02.07.06.11.08.81.96,1.95,1.65,3.3,1.65s2.49-.68,3.3-1.65c.04-.02.07-.06.11-.08,2.23-1.08,4.03-2.98,5.36-4.97,1.23-1.85,1.97-3.67,2.22-5.14.65-.31,2.67-1.4,3.05-4.56.13-1.09-.21-2.02-.63-2.66-.25-.38-.51-.52-.77-.74.62-1.96,1.43-5,1.43-8.32,0-1.53-.31-3.62-1.35-5.44-.97-1.71-2.73-3.12-5.22-3.3-1.13-1.71-3.57-3.57-7.75-3.57ZM209.92,95.85c3.95,0,5.84,1.83,6.51,3.05.15.28.45.46.77.47,2.15,0,3.33,1.04,4.15,2.47.82,1.44,1.13,3.29,1.13,4.56,0,3.26-.89,6.47-1.48,8.3-.12.39.04.81.38,1.02.15.09.5.37.74.74s.41.82.33,1.48c-.34,2.83-2.31,3.38-2.31,3.38-.33.11-.57.4-.6.74-.1.97-.84,2.94-2.06,4.78-1.22,1.84-2.9,3.59-4.75,4.45-.14.07-.27.17-.36.3-.47.71-1.28,1.18-2.2,1.18s-1.72-.47-2.2-1.18c-.09-.13-.21-.24-.36-.3-1.86-.86-3.55-2.61-4.78-4.45-1.23-1.84-1.99-3.81-2.09-4.78-.04-.33-.26-.6-.58-.71,0,0-1.97-.59-2.31-3.43-.08-.66.09-1.12.33-1.48.24-.36.56-.61.71-.71.36-.21.52-.65.38-1.04-.53-1.53-1.43-5.74-1.43-6.87,0-3.77,1.04-6.74,3.02-8.76,1.98-2.03,4.94-3.19,9.04-3.19ZM216.6,102.55s-.05.02-.08.03c-.02,0-.04.02-.05.03-.07.02-.13.05-.19.08-.02,0-.04.02-.05.03v.03s-.05.03-.08.05c-.02.02-.04.03-.05.05-.01.02-.02.04-.03.05-.04.05-.08.11-.11.16v.03s-.02.04-.03.05c-.07.14-.42.75-1.35,1.51-1.04.85-2.68,1.73-5.27,1.73-1.65,0-3.72.01-5.49.66-.89.32-1.72.82-2.33,1.59s-.96,1.8-.96,3.02c0,.32.16.61.44.77.27.16.61.16.89,0,.27-.16.44-.46.44-.77,0-.9.22-1.47.58-1.92.36-.45.89-.8,1.57-1.04,1.36-.49,3.27-.55,4.89-.55,2.99,0,5.1-1.04,6.4-2.12.44-.36.77-.71,1.04-1.04.85,1.37,2.22,3.96,2.22,6.67,0,.32.16.61.44.77.27.16.61.16.89,0,.27-.16.44-.46.44-.77,0-4.37-2.64-7.95-3.1-8.54v-.03s-.07-.13-.08-.14c-.02-.02-.03-.04-.05-.05l-.03-.03s-.02-.04-.03-.05h-.03c-.07-.08-.15-.14-.25-.19l-.03-.03s-.04-.02-.05-.03h-.03s-.04-.02-.05-.03h-.38ZM205.34,116.06c-.73,0-1.32.59-1.32,1.32s.59,1.32,1.32,1.32,1.32-.59,1.32-1.32-.59-1.32-1.32-1.32ZM215,116.06c-.73,0-1.32.59-1.32,1.32s.59,1.32,1.32,1.32,1.32-.59,1.32-1.32-.59-1.32-1.32-1.32Z"/><path class="cls-16" d="M92.42,94.09c-4.64,0-8.56,1.42-11.32,4.12-2.75,2.7-4.28,6.65-4.28,11.51,0,2.67.68,5.33.77,8.05.09,2.72-.33,5.47-2.53,8.46-.14.19-.19.43-.15.66.04.23.18.44.37.57,0,0,.99.66,2.94,1.37,1.9.69,4.8,1.46,8.73,1.9h.03c1.98,2.37,4.24,3.79,6.54,3.79s4.58-1.44,6.56-3.82c3.96-.44,6.92-1.18,8.87-1.87,2.01-.7,3.05-1.35,3.05-1.35.21-.13.36-.35.4-.6.04-.24-.02-.5-.18-.69-2.24-2.88-2.7-5.36-2.66-7.88s.66-5.11.66-7.91-.57-5.91-2.14-8.38c-1.52-2.39-4.1-4.11-7.66-4.23-1.06-1.08-3.82-3.71-7.99-3.71ZM92.42,95.85c3.58,0,6.14,2.49,7,3.38.16.18.39.27.63.27,3.23,0,5.22,1.39,6.54,3.46,1.32,2.07,1.87,4.86,1.87,7.44s-.61,5.1-.66,7.88c-.04,2.52.53,5.23,2.44,8.08-.36.2-.56.34-1.87.8-1.58.55-3.87,1.18-6.92,1.62,1.36-2.22,3.49-6.46,3.49-11.59,0-6.73-3.86-10.62-4.92-11.56-.01-.01-.04-.04-.05-.05-.13-.2-.34-.34-.58-.38h-.03c-.09-.01-.18-.01-.27,0h-.05c-.07.02-.13.05-.19.08-.05.02-.09.05-.14.08-.04.02-.08.05-.11.08-.01.02-.02.04-.03.05-.02,0-.04.02-.05.03v.03l-.03.03s-.02.04-.03.05c-.01.01-.02.02-.03.03v.05s-.02.02-.03.03v.05l-.03.03s-1.04,3.93-5.99,5.47c-1.58.49-4.09.84-6.26,1.9-2.17,1.06-4.04,3.05-4.04,6.4,0,4.07,1.76,7.26,3.13,9.15-2.82-.43-4.95-1.01-6.4-1.54-1.27-.46-1.48-.63-1.81-.82,1.92-3.01,2.43-5.96,2.33-8.65-.1-2.96-.77-5.63-.77-7.99,0-4.5,1.36-7.94,3.74-10.27,2.38-2.33,5.82-3.6,10.11-3.6ZM99.53,107.55c1.29,1.37,3.65,4.54,3.65,9.64,0,6.64-3.97,11.86-4.15,12.09-.02.03-.04.05-.05.08-.02.03-.04.05-.05.08-1.82,2.28-3.76,3.32-5.41,3.32s-3.52-1.02-5.3-3.19c-.02-.04-.05-.08-.08-.11-.01-.02-.01-.04-.03-.05-.02-.02-.03-.04-.05-.05l-.03-.03s-.07-.1-.08-.11c-.03-.02-.05-.04-.08-.05-.44-.43-4.01-4.1-4.01-9.59,0-2.75,1.24-3.95,3.05-4.83,1.81-.88,4.16-1.22,5.99-1.79,3.92-1.22,5.82-3.85,6.65-5.41ZM88.68,116.94c-.73,0-1.32.59-1.32,1.32s.59,1.32,1.32,1.32,1.32-.59,1.32-1.32-.59-1.32-1.32-1.32ZM98.35,116.94c-.73,0-1.32.59-1.32,1.32s.59,1.32,1.32,1.32,1.32-.59,1.32-1.32-.59-1.32-1.32-1.32Z"/><path class="cls-16" d="M198.81,172.19h-14.05v-5.19h20.76v3.75c-7.26,8.86-8.23,15.23-8.73,27.47h-6.29c.55-10.84,2.36-17.76,8.31-26.03Z"/><path class="cls-16" d="M208.89,194.64c8.48-7.59,13.5-13.46,13.5-18.27,0-3.16-1.73-5.06-4.68-5.06-2.28,0-4.18,1.48-5.74,3.21l-3.38-3.38c2.87-3.04,5.65-4.73,9.92-4.73,5.91,0,9.83,3.8,9.83,9.62s-4.68,11.73-10.38,17.3c1.56-.17,3.63-.34,5.06-.34h6.79v5.23h-20.93v-3.59Z"/><path class="cls-16" d="M233.15,187.87c0-2.36,1.19-3.7,2.86-3.7s2.86,1.35,2.86,3.7-1.17,3.75-2.86,3.75-2.86-1.39-2.86-3.75ZM237.25,187.87c0-1.72-.54-2.39-1.23-2.39s-1.22.66-1.22,2.39.54,2.42,1.22,2.42,1.23-.7,1.23-2.42ZM242.8,184.16h1.39l-6.41,12.18h-1.38l6.39-12.18ZM241.7,192.61c0-2.36,1.2-3.72,2.88-3.72s2.86,1.36,2.86,3.72-1.19,3.73-2.86,3.73-2.88-1.39-2.88-3.73ZM245.79,192.61c0-1.74-.52-2.39-1.22-2.39s-1.23.65-1.23,2.39.54,2.42,1.23,2.42,1.22-.71,1.22-2.42Z"/><path class="cls-16" d="M70.2,194.64c8.48-7.59,13.5-13.46,13.5-18.27,0-3.16-1.73-5.06-4.68-5.06-2.28,0-4.18,1.48-5.74,3.21l-3.38-3.38c2.87-3.04,5.65-4.73,9.92-4.73,5.91,0,9.83,3.8,9.83,9.62s-4.68,11.73-10.38,17.3c1.56-.17,3.63-.34,5.06-.34h6.79v5.23h-20.93v-3.59Z"/><path class="cls-16" d="M94.8,190.46c0-4.01,2.45-6.58,5.36-8.14v-.21c-2.4-1.73-4.13-4.09-4.13-7.43,0-5.02,3.97-8.23,9.41-8.23s9.07,3.33,9.07,8.31c0,3.08-1.94,5.65-4.01,7.13v.21c2.87,1.56,5.23,4.09,5.23,8.35,0,4.73-4.18,8.35-10.5,8.35-5.95,0-10.42-3.46-10.42-8.35ZM109.94,190.25c0-3.25-2.87-4.6-6.92-6.24-1.69,1.35-2.87,3.46-2.87,5.78,0,2.83,2.32,4.64,5.23,4.64,2.62,0,4.56-1.48,4.56-4.18ZM109.44,175.15c0-2.53-1.52-4.35-4.13-4.35-2.11,0-3.8,1.39-3.8,3.88,0,2.95,2.4,4.39,5.7,5.7,1.52-1.6,2.24-3.38,2.24-5.23Z"/><path class="cls-16" d="M118.89,187.87c0-2.36,1.19-3.7,2.86-3.7s2.86,1.35,2.86,3.7-1.17,3.75-2.86,3.75-2.86-1.39-2.86-3.75ZM122.99,187.87c0-1.72-.54-2.39-1.23-2.39s-1.22.66-1.22,2.39.54,2.42,1.22,2.42,1.23-.7,1.23-2.42ZM128.54,184.16h1.39l-6.41,12.18h-1.38l6.39-12.18ZM127.43,192.61c0-2.36,1.2-3.72,2.88-3.72s2.86,1.36,2.86,3.72-1.19,3.73-2.86,3.73-2.88-1.39-2.88-3.73ZM131.53,192.61c0-1.74-.52-2.39-1.22-2.39s-1.23.65-1.23,2.39.54,2.42,1.23,2.42,1.22-.71,1.22-2.42Z"/><path class="cls-16" d="M196.42,145.86h2.6l1.99,5.47c.25.73.47,1.5.71,2.26h.08c.25-.76.46-1.53.71-2.26l1.95-5.47h2.59v11.71h-2.14v-4.89c0-1.11.17-2.74.28-3.84h-.06l-.95,2.75-1.8,4.92h-1.34l-1.82-4.92-.93-2.75h-.06c.11,1.11.3,2.74.3,3.84v4.89h-2.11v-11.71Z"/><path class="cls-16" d="M209.14,155.16c0-1.9,1.54-2.9,5.1-3.28-.03-.87-.41-1.53-1.5-1.53-.82,0-1.61.36-2.44.84l-.84-1.53c1.04-.65,2.31-1.17,3.7-1.17,2.25,0,3.4,1.34,3.4,3.91v5.17h-1.9l-.17-.95h-.05c-.78.66-1.66,1.17-2.67,1.17-1.58,0-2.63-1.12-2.63-2.63ZM214.24,155.1v-1.79c-2.15.28-2.88.87-2.88,1.66,0,.7.49,1,1.17,1s1.16-.32,1.71-.87Z"/><path class="cls-16" d="M218.78,155.09v-10.14h2.31v10.25c0,.52.25.7.47.7.09,0,.16,0,.32-.03l.29,1.72c-.27.11-.67.21-1.2.21-1.61,0-2.18-1.06-2.18-2.71Z"/><path class="cls-16" d="M223.05,153.16c0-2.88,2.01-4.67,4.13-4.67,2.44,0,3.7,1.79,3.7,4.24,0,.43-.05.85-.11,1.06h-5.46c.19,1.46,1.14,2.22,2.45,2.22.73,0,1.36-.22,1.99-.62l.79,1.42c-.87.6-1.99.98-3.1.98-2.47,0-4.4-1.72-4.4-4.64ZM228.89,152.25c0-1.2-.54-1.96-1.68-1.96-.93,0-1.76.66-1.93,1.96h3.61Z"/><path class="cls-16" d="M67.64,145.86h7.22v1.95h-4.87v3.05h4.16v1.96h-4.16v4.75h-2.34v-11.71Z"/><path class="cls-16" d="M75.99,153.16c0-2.88,2.01-4.67,4.13-4.67,2.44,0,3.7,1.79,3.7,4.24,0,.43-.05.85-.11,1.06h-5.46c.19,1.46,1.14,2.22,2.45,2.22.73,0,1.36-.22,1.99-.62l.79,1.42c-.87.6-1.99.98-3.1.98-2.47,0-4.4-1.72-4.4-4.64ZM81.83,152.25c0-1.2-.54-1.96-1.68-1.96-.93,0-1.76.66-1.93,1.96h3.61Z"/><path class="cls-16" d="M85.58,148.71h1.9l.16,1.19h.06c.74-.78,1.57-1.41,2.72-1.41,1.27,0,2.01.57,2.44,1.55.81-.85,1.66-1.55,2.82-1.55,1.88,0,2.75,1.33,2.75,3.56v5.52h-2.33v-5.24c0-1.36-.4-1.85-1.23-1.85-.51,0-1.08.33-1.71,1v6.09h-2.33v-5.24c0-1.36-.4-1.85-1.23-1.85-.51,0-1.08.33-1.71,1v6.09h-2.31v-8.86Z"/><path class="cls-16" d="M100.23,155.16c0-1.9,1.54-2.9,5.1-3.28-.03-.87-.41-1.53-1.5-1.53-.82,0-1.61.36-2.44.84l-.84-1.53c1.04-.65,2.31-1.17,3.7-1.17,2.25,0,3.4,1.34,3.4,3.91v5.17h-1.9l-.17-.95h-.05c-.78.66-1.66,1.17-2.67,1.17-1.58,0-2.63-1.12-2.63-2.63ZM105.33,155.1v-1.79c-2.15.28-2.88.87-2.88,1.66,0,.7.49,1,1.17,1s1.16-.32,1.71-.87Z"/><path class="cls-16" d="M109.87,155.09v-10.14h2.31v10.25c0,.52.25.7.47.7.09,0,.16,0,.32-.03l.29,1.72c-.27.11-.67.21-1.2.21-1.61,0-2.18-1.06-2.18-2.71Z"/><path class="cls-16" d="M114.14,153.16c0-2.88,2.01-4.67,4.13-4.67,2.44,0,3.7,1.79,3.7,4.24,0,.43-.05.85-.11,1.06h-5.46c.19,1.46,1.14,2.22,2.45,2.22.73,0,1.36-.22,1.99-.62l.79,1.42c-.87.6-1.99.98-3.1.98-2.47,0-4.4-1.72-4.4-4.64ZM119.98,152.25c0-1.2-.54-1.96-1.68-1.96-.93,0-1.76.66-1.93,1.96h3.61Z"/><rect class="cls-11" x="142.56" y="918.19" width="6.06" height="11.56"/><rect class="cls-13" x="212.56" y="918.19" width="6.06" height="11.56"/><path class="cls-16" d="M224.65,925.09c0-2.37,1.42-3.81,3.36-3.81,1.02,0,1.69.46,2.11.91l-.5.6c-.37-.39-.84-.7-1.59-.7-1.47,0-2.43,1.14-2.43,2.97s.87,3.01,2.44,3.01c.53,0,1.04-.16,1.33-.43v-1.92h-1.55v-.77h2.4v3.08c-.47.49-1.28.85-2.27.85-1.93,0-3.3-1.41-3.3-3.79Z"/><path class="cls-16" d="M231.78,923.32h.75l.08.99h.03c.38-.69.93-1.13,1.54-1.13.24,0,.41.03.58.12l-.17.8c-.18-.07-.31-.09-.53-.09-.45,0-1.01.32-1.37,1.25v3.49h-.91v-5.43Z"/><path class="cls-16" d="M235.22,927.34c0-1.18,1.03-1.77,3.34-2.03,0-.7-.23-1.37-1.12-1.37-.63,0-1.2.29-1.63.58l-.36-.63c.5-.32,1.27-.71,2.14-.71,1.32,0,1.88.89,1.88,2.23v3.34h-.75l-.08-.65h-.03c-.52.43-1.13.78-1.8.78-.91,0-1.59-.56-1.59-1.54ZM238.56,927.43v-1.52c-1.83.22-2.45.67-2.45,1.37,0,.62.42.87.96.87s.96-.25,1.49-.72Z"/><path class="cls-16" d="M240.71,926.04c0-1.76,1.11-2.86,2.35-2.86.64,0,1.05.24,1.53.64l-.05-.94v-2.09h.91v7.96h-.74l-.09-.64h-.02c-.43.42-1,.77-1.65.77-1.36,0-2.24-1.03-2.24-2.84ZM244.54,927.37v-2.85c-.46-.41-.87-.57-1.32-.57-.88,0-1.57.84-1.57,2.08,0,1.31.54,2.09,1.5,2.09.5,0,.94-.25,1.39-.75Z"/><path class="cls-16" d="M247.13,926.76v-3.44h.91v3.33c0,1.01.3,1.44,1.02,1.44.56,0,.95-.27,1.47-.92v-3.85h.91v5.43h-.76l-.07-.85h-.03c-.51.59-1.05.98-1.8.98-1.14,0-1.65-.74-1.65-2.12Z"/><path class="cls-16" d="M252.83,927.34c0-1.18,1.03-1.77,3.34-2.03,0-.7-.23-1.37-1.12-1.37-.63,0-1.2.29-1.63.58l-.36-.63c.5-.32,1.27-.71,2.14-.71,1.32,0,1.88.89,1.88,2.23v3.34h-.75l-.08-.65h-.03c-.52.43-1.13.78-1.8.78-.91,0-1.59-.56-1.59-1.54ZM256.17,927.43v-1.52c-1.83.22-2.45.67-2.45,1.37,0,.62.42.87.96.87s.96-.25,1.49-.72Z"/><path class="cls-16" d="M258.87,927.07v-3.01h-.81v-.69l.85-.05.11-1.52h.76v1.52h1.47v.74h-1.47v3.03c0,.67.21,1.05.84,1.05.19,0,.44-.07.62-.14l.18.68c-.31.1-.67.2-1,.2-1.16,0-1.55-.72-1.55-1.81Z"/><path class="cls-16" d="M261.97,926.04c0-1.76,1.19-2.86,2.45-2.86,1.38,0,2.16,1,2.16,2.55,0,.2-.02.39-.04.52h-3.66c.06,1.16.77,1.9,1.8,1.9.53,0,.96-.16,1.36-.43l.33.6c-.48.31-1.06.56-1.8.56-1.44,0-2.6-1.05-2.6-2.84ZM265.78,925.6c0-1.1-.5-1.69-1.35-1.69-.77,0-1.45.62-1.56,1.69h2.91Z"/><path class="cls-16" d="M267.21,928.13l.45-.6c.47.38.96.64,1.61.64.72,0,1.07-.38,1.07-.85,0-.55-.64-.8-1.24-1.03-.76-.28-1.62-.65-1.62-1.57,0-.86.69-1.54,1.87-1.54.67,0,1.26.28,1.69.61l-.44.59c-.38-.28-.76-.48-1.25-.48-.68,0-.99.36-.99.78,0,.52.59.71,1.2.94.79.3,1.66.62,1.66,1.65,0,.88-.7,1.61-1.98,1.61-.77,0-1.51-.32-2.03-.75Z"/><path class="cls-16" d="M154.07,921.42h1.12l1.41,3.92c.17.51.34,1.02.52,1.53h.05c.17-.51.33-1.02.5-1.53l1.4-3.92h1.12v7.33h-.87v-4.06c0-.63.07-1.52.12-2.16h-.04l-.58,1.67-1.39,3.81h-.62l-1.39-3.81-.58-1.67h-.04c.04.64.11,1.53.11,2.16v4.06h-.84v-7.33Z"/><path class="cls-16" d="M161.84,921.61c0-.37.27-.59.63-.59s.63.22.63.59c0,.34-.27.59-.63.59s-.63-.25-.63-.59ZM162.01,923.32h.91v5.43h-.91v-5.43Z"/><path class="cls-16" d="M164.27,926.04c0-1.76,1.11-2.86,2.35-2.86.64,0,1.05.24,1.53.64l-.05-.94v-2.09h.91v7.96h-.74l-.09-.64h-.02c-.43.42-1,.77-1.65.77-1.36,0-2.24-1.03-2.24-2.84ZM168.1,927.37v-2.85c-.46-.41-.87-.57-1.32-.57-.88,0-1.57.84-1.57,2.08,0,1.31.54,2.09,1.5,2.09.5,0,.94-.25,1.39-.75Z"/><path class="cls-16" d="M172.49,926.04c0-1.81,1.23-2.86,2.62-2.86.71,0,1.2.3,1.59.64l-.47.61c-.32-.29-.65-.49-1.09-.49-.98,0-1.7.85-1.7,2.1s.68,2.08,1.68,2.08c.5,0,.94-.23,1.28-.54l.39.61c-.48.44-1.1.69-1.75.69-1.44,0-2.55-1.04-2.55-2.84Z"/><path class="cls-16" d="M177.55,927.34c0-1.18,1.03-1.77,3.34-2.03,0-.7-.23-1.37-1.12-1.37-.63,0-1.2.29-1.63.58l-.36-.63c.5-.32,1.27-.71,2.14-.71,1.32,0,1.88.89,1.88,2.23v3.34h-.75l-.08-.65h-.03c-.52.43-1.13.78-1.8.78-.91,0-1.59-.56-1.59-1.54ZM180.89,927.43v-1.52c-1.83.22-2.45.67-2.45,1.37,0,.62.42.87.96.87s.96-.25,1.49-.72Z"/><path class="cls-16" d="M183.43,923.32h.75l.08.99h.03c.38-.69.93-1.13,1.54-1.13.24,0,.41.03.58.12l-.17.8c-.18-.07-.31-.09-.53-.09-.45,0-1.01.32-1.37,1.25v3.49h-.91v-5.43Z"/><path class="cls-16" d="M186.8,926.04c0-1.76,1.19-2.86,2.45-2.86,1.38,0,2.16,1,2.16,2.55,0,.2-.02.39-.04.52h-3.66c.06,1.16.77,1.9,1.8,1.9.53,0,.96-.16,1.36-.43l.33.6c-.48.31-1.06.56-1.8.56-1.44,0-2.6-1.05-2.6-2.84ZM190.61,925.6c0-1.1-.5-1.69-1.35-1.69-.77,0-1.45.62-1.56,1.69h2.91Z"/><path class="cls-16" d="M192.24,926.04c0-1.76,1.19-2.86,2.45-2.86,1.38,0,2.16,1,2.16,2.55,0,.2-.02.39-.04.52h-3.66c.06,1.16.77,1.9,1.8,1.9.53,0,.96-.16,1.36-.43l.33.6c-.48.31-1.06.56-1.8.56-1.44,0-2.6-1.05-2.6-2.84ZM196.05,925.6c0-1.1-.5-1.69-1.35-1.69-.77,0-1.45.62-1.56,1.69h2.91Z"/><path class="cls-16" d="M198.09,923.32h.75l.08.99h.03c.38-.69.93-1.13,1.54-1.13.24,0,.41.03.58.12l-.17.8c-.18-.07-.31-.09-.53-.09-.45,0-1.01.32-1.37,1.25v3.49h-.91v-5.43Z"/><path class="cls-15" d="M65.95,336.58v-38.2c-4.22,0-7.79.57-11.8,1.87-7.22,2.35-13.1,6.39-17.88,12.29-9.03,11.15-11.11,25.05-5.73,38.35,1.58,3.91,3.44,7.01,6.16,10.24,13.56,16.16,37.66,18.27,53.82,4.71l-24.56-29.26Z"/><path class="cls-15" d="M154.24,336.53l.71-38.19c-11.81-.22-21.75,4.19-29.51,13.1-13.86,15.91-12.2,40.04,3.7,53.9,3.18,2.77,6.25,4.69,10.13,6.35,6.99,2.98,14.08,3.79,21.56,2.48,14.13-2.47,24.83-11.59,29.52-25.15l-36.1-12.48Z"/><path class="cls-15" d="M275.02,317.77l-33.21,18.87-.4-38.2c-4.22.04-7.79.65-11.78,1.99-20,6.73-30.75,28.4-24.02,48.39,3.77,11.2,11.27,19.07,22.27,23.38,19.64,7.7,41.81-1.99,49.5-21.63,1.54-3.93,2.32-7.46,2.57-11.67.45-7.58-1.17-14.53-4.92-21.13Z"/><path class="cls-15" d="M142.93,467.35c-3.01-2.95-5.96-5.05-9.74-6.93l-17,34.21-4.37-37.95c-14.25,1.64-25.47,10.11-30.94,23.37-1.61,3.9-2.45,7.42-2.78,11.62-1.63,21.03,14.1,39.41,35.13,41.04,11.78.91,21.96-2.91,30.23-11.34,14.77-15.07,14.53-39.25-.54-54.02Z"/><path class="cls-15" d="M213.39,457.63l-9.65,36.96-2.24-38.14c-7.58.45-14.29,2.87-20.41,7.37-11.55,8.51-17.08,21.43-15.24,35.66.54,4.18,1.56,7.66,3.37,11.47,9.04,19.06,31.82,27.19,50.88,18.15,10.68-5.06,17.61-13.43,20.6-24.87,5.33-20.41-6.9-41.28-27.31-46.61Z"/><path class="cls-16" d="M41.9,431.31l2.02-2.73c1.29,1.26,2.88,2.23,4.84,2.23,2.2,0,3.7-1.09,3.7-3.02,0-2.14-1.26-3.46-5.99-3.46v-3.11c3.99,0,5.28-1.38,5.28-3.32,0-1.7-1.06-2.7-2.91-2.73-1.55.03-2.82.76-4.11,1.94l-2.2-2.64c1.88-1.64,3.96-2.67,6.51-2.67,4.2,0,7.04,2.05,7.04,5.78,0,2.35-1.32,4.05-3.64,4.96v.15c2.46.67,4.34,2.49,4.34,5.34,0,3.99-3.49,6.31-7.63,6.31-3.43,0-5.75-1.29-7.28-3.02Z"/><path class="cls-16" d="M61.91,429.28c.79.85,2.14,1.53,3.43,1.53,2.43,0,4.46-1.85,4.64-7.31-1.12,1.47-2.96,2.38-4.46,2.38-3.61,0-6.22-2.23-6.22-6.84s3.11-7.25,6.84-7.25c4.11,0,7.8,3.23,7.8,10.77,0,8.22-4.02,11.77-8.33,11.77-2.7,0-4.67-1.14-5.96-2.46l2.26-2.58ZM69.92,420.48c-.38-3.96-1.88-5.43-3.73-5.43-1.61,0-2.93,1.32-2.93,3.99s1.2,3.76,3.08,3.76c1.17,0,2.52-.65,3.58-2.32Z"/><path class="cls-16" d="M76.55,424.32c0-2.19,1.1-3.43,2.65-3.43s2.65,1.25,2.65,3.43-1.08,3.48-2.65,3.48-2.65-1.29-2.65-3.48ZM80.35,424.32c0-1.6-.5-2.21-1.14-2.21s-1.13.62-1.13,2.21.5,2.24,1.13,2.24,1.14-.65,1.14-2.24ZM85.5,420.88h1.29l-5.94,11.29h-1.28l5.92-11.29ZM84.47,428.71c0-2.19,1.11-3.45,2.67-3.45s2.65,1.26,2.65,3.45-1.1,3.46-2.65,3.46-2.67-1.29-2.67-3.46ZM88.27,428.71c0-1.61-.48-2.21-1.13-2.21s-1.14.6-1.14,2.21.5,2.24,1.14,2.24,1.13-.66,1.13-2.24Z"/><path class="cls-16" d="M129.59,431.31l2.02-2.73c1.29,1.26,2.88,2.23,4.84,2.23,2.2,0,3.7-1.09,3.7-3.02,0-2.14-1.26-3.46-5.99-3.46v-3.11c3.99,0,5.28-1.38,5.28-3.32,0-1.7-1.06-2.7-2.91-2.73-1.55.03-2.82.76-4.11,1.94l-2.2-2.64c1.88-1.64,3.96-2.67,6.51-2.67,4.2,0,7.04,2.05,7.04,5.78,0,2.35-1.32,4.05-3.64,4.96v.15c2.46.67,4.34,2.49,4.34,5.34,0,3.99-3.49,6.31-7.63,6.31-3.43,0-5.75-1.29-7.28-3.02Z"/><path class="cls-16" d="M147.11,422.97c0-7.51,2.93-11.18,7.37-11.18s7.34,3.7,7.34,11.18-2.93,11.36-7.34,11.36-7.37-3.87-7.37-11.36ZM157.73,422.97c0-6.07-1.41-7.83-3.26-7.83s-3.29,1.76-3.29,7.83,1.41,7.98,3.29,7.98,3.26-1.88,3.26-7.98Z"/><path class="cls-16" d="M164.25,424.32c0-2.19,1.1-3.43,2.65-3.43s2.65,1.25,2.65,3.43-1.08,3.48-2.65,3.48-2.65-1.29-2.65-3.48ZM168.05,424.32c0-1.6-.5-2.21-1.14-2.21s-1.13.62-1.13,2.21.5,2.24,1.13,2.24,1.14-.65,1.14-2.24ZM173.19,420.88h1.29l-5.94,11.29h-1.28l5.92-11.29ZM172.17,428.71c0-2.19,1.11-3.45,2.67-3.45s2.65,1.26,2.65,3.45-1.1,3.46-2.65,3.46-2.67-1.29-2.67-3.46ZM175.97,428.71c0-1.61-.48-2.21-1.13-2.21s-1.14.6-1.14,2.21.5,2.24,1.14,2.24,1.13-.66,1.13-2.24Z"/><path class="cls-16" d="M224.89,430.43h4.67v-13.73h-3.93v-2.67c2.17-.41,3.67-.97,5.05-1.82h3.2v18.22h4.08v3.49h-13.06v-3.49Z"/><path class="cls-16" d="M250.71,415.81h-9.77v-3.61h14.44v2.61c-5.05,6.16-5.72,10.59-6.07,19.1h-4.37c.38-7.54,1.64-12.35,5.78-18.1Z"/><path class="cls-16" d="M255.35,424.32c0-2.19,1.1-3.43,2.65-3.43s2.65,1.25,2.65,3.43-1.08,3.48-2.65,3.48-2.65-1.29-2.65-3.48ZM259.15,424.32c0-1.6-.5-2.21-1.14-2.21s-1.13.62-1.13,2.21.5,2.24,1.13,2.24,1.14-.65,1.14-2.24ZM264.3,420.88h1.29l-5.94,11.29h-1.28l5.92-11.29ZM263.27,428.71c0-2.19,1.11-3.45,2.67-3.45s2.65,1.26,2.65,3.45-1.1,3.46-2.65,3.46-2.67-1.29-2.67-3.46ZM267.07,428.71c0-1.61-.48-2.21-1.13-2.21s-1.14.6-1.14,2.21.5,2.24,1.14,2.24,1.13-.66,1.13-2.24Z"/><path class="cls-16" d="M109.57,587.28c.79.85,2.14,1.53,3.43,1.53,2.43,0,4.46-1.85,4.64-7.31-1.12,1.47-2.96,2.38-4.46,2.38-3.61,0-6.22-2.23-6.22-6.84s3.11-7.25,6.84-7.25c4.11,0,7.8,3.23,7.8,10.77,0,8.22-4.02,11.77-8.33,11.77-2.7,0-4.67-1.14-5.96-2.46l2.26-2.58ZM117.58,578.48c-.38-3.96-1.88-5.43-3.73-5.43-1.61,0-2.93,1.32-2.93,3.99s1.2,3.76,3.08,3.76c1.17,0,2.52-.65,3.58-2.32Z"/><path class="cls-16" d="M123.98,582.32c0-2.19,1.1-3.43,2.65-3.43s2.65,1.25,2.65,3.43-1.08,3.48-2.65,3.48-2.65-1.29-2.65-3.48ZM127.78,582.32c0-1.6-.5-2.21-1.14-2.21s-1.13.62-1.13,2.21.5,2.24,1.13,2.24,1.14-.65,1.14-2.24ZM132.92,578.88h1.29l-5.94,11.29h-1.28l5.92-11.29ZM131.9,586.71c0-2.19,1.11-3.45,2.67-3.45s2.65,1.26,2.65,3.45-1.1,3.46-2.65,3.46-2.67-1.29-2.67-3.46ZM135.69,586.71c0-1.61-.48-2.21-1.13-2.21s-1.14.6-1.14,2.21.5,2.24,1.14,2.24,1.13-.66,1.13-2.24Z"/><path class="cls-16" d="M198.5,589.37l2-2.76c1.23,1.2,2.76,2.2,4.78,2.2,2.26,0,3.84-1.44,3.84-3.99s-1.47-3.93-3.67-3.93c-1.29,0-2,.32-3.26,1.14l-1.97-1.29.59-10.53h11.62v3.61h-7.89l-.41,4.61c.85-.41,1.61-.62,2.61-.62,3.64,0,6.69,2.17,6.69,6.9s-3.58,7.63-7.6,7.63c-3.43,0-5.72-1.35-7.34-2.96Z"/><path class="cls-16" d="M215.93,582.32c0-2.19,1.1-3.43,2.65-3.43s2.65,1.25,2.65,3.43-1.08,3.48-2.65,3.48-2.65-1.29-2.65-3.48ZM219.73,582.32c0-1.6-.5-2.21-1.14-2.21s-1.13.62-1.13,2.21.5,2.24,1.13,2.24,1.14-.65,1.14-2.24ZM224.88,578.88h1.29l-5.94,11.29h-1.28l5.92-11.29ZM223.85,586.71c0-2.19,1.11-3.45,2.67-3.45s2.65,1.26,2.65,3.45-1.1,3.46-2.65,3.46-2.67-1.29-2.67-3.46ZM227.65,586.71c0-1.61-.48-2.21-1.13-2.21s-1.14.6-1.14,2.21.5,2.24,1.14,2.24,1.13-.66,1.13-2.24Z"/><path class="cls-6" d="M65.95,336.58v-38.2c21.1,0,38.2,17.1,38.2,38.2,0,11.81-4.6,21.67-13.65,29.26l-24.56-29.26Z"/><path class="cls-6" d="M154.24,336.53l.71-38.19c21.09.39,37.87,17.81,37.48,38.91-.08,4.22-.71,7.78-2.09,11.77l-36.1-12.48Z"/><path class="cls-6" d="M241.81,336.65l-.4-38.2c14.35-.15,26.53,6.85,33.62,19.33l-33.21,18.87Z"/><path class="cls-6" d="M116.18,494.63l-4.37-37.95c7.55-.87,14.57.36,21.37,3.74l-17,34.21Z"/><path class="cls-6" d="M203.74,494.6l-2.24-38.14c4.21-.25,7.81.11,11.89,1.17l-9.65,36.96Z"/><path class="cls-16" d="M48.75,377.68h1.66c2.03,0,3.12,1.18,3.12,3.28s-1.09,3.32-3.08,3.32h-1.69v-6.6ZM50.33,383.59c1.56,0,2.32-.97,2.32-2.64s-.77-2.6-2.32-2.6h-.75v5.24h.75Z"/><path class="cls-16" d="M54.4,381.84c0-1.58,1.07-2.57,2.21-2.57,1.24,0,1.94.9,1.94,2.3,0,.18-.02.35-.04.47h-3.29c.05,1.04.69,1.71,1.62,1.71.48,0,.86-.14,1.22-.39l.3.54c-.43.28-.95.5-1.62.5-1.3,0-2.34-.95-2.34-2.56ZM57.83,381.44c0-.99-.45-1.52-1.21-1.52-.69,0-1.31.56-1.4,1.52h2.62Z"/><path class="cls-16" d="M58.95,379.39h.86l.92,2.78c.15.48.31.98.46,1.44h.04c.14-.46.31-.96.45-1.44l.93-2.78h.81l-1.74,4.89h-.95l-1.76-4.89Z"/><path class="cls-16" d="M64.11,377.85c0-.33.24-.53.57-.53s.57.2.57.53c0,.31-.24.53-.57.53s-.57-.23-.57-.53ZM64.26,379.39h.82v4.89h-.82v-4.89Z"/><path class="cls-16" d="M66.28,381.84c0-1.63,1.11-2.57,2.36-2.57.64,0,1.08.27,1.43.58l-.42.55c-.29-.26-.58-.44-.98-.44-.88,0-1.53.77-1.53,1.89s.61,1.87,1.51,1.87c.45,0,.85-.21,1.15-.49l.35.55c-.43.4-.99.62-1.58.62-1.3,0-2.3-.94-2.3-2.56Z"/><path class="cls-16" d="M70.77,381.84c0-1.58,1.07-2.57,2.21-2.57,1.24,0,1.94.9,1.94,2.3,0,.18-.02.35-.04.47h-3.29c.05,1.04.69,1.71,1.62,1.71.48,0,.86-.14,1.22-.39l.3.54c-.43.28-.95.5-1.62.5-1.3,0-2.34-.95-2.34-2.56ZM74.2,381.44c0-.99-.45-1.52-1.21-1.52-.69,0-1.31.56-1.4,1.52h2.62Z"/><path class="cls-16" d="M32.35,387.68h1.01l1.27,3.53c.15.46.31.92.47,1.38h.04c.15-.46.3-.92.45-1.38l1.26-3.53h1.01v6.6h-.78v-3.66c0-.57.06-1.37.11-1.94h-.04l-.52,1.5-1.25,3.43h-.56l-1.25-3.43-.52-1.5h-.04c.04.58.1,1.38.1,1.94v3.66h-.76v-6.6Z"/><path class="cls-16" d="M39.19,393.01c0-1.06.93-1.59,3.01-1.83,0-.63-.21-1.23-1.01-1.23-.57,0-1.08.26-1.47.52l-.32-.57c.45-.29,1.14-.64,1.93-.64,1.19,0,1.69.8,1.69,2.01v3.01h-.68l-.07-.59h-.03c-.47.39-1.02.7-1.62.7-.82,0-1.43-.5-1.43-1.39ZM42.2,393.09v-1.37c-1.65.2-2.21.6-2.21,1.23,0,.56.38.78.86.78s.86-.22,1.34-.65Z"/><path class="cls-16" d="M44.49,389.39h.68l.07.7h.03c.47-.46.97-.83,1.64-.83,1.03,0,1.49.67,1.49,1.92v3.1h-.82v-2.99c0-.92-.28-1.31-.93-1.31-.5,0-.85.25-1.34.75v3.55h-.82v-4.89Z"/><path class="cls-16" d="M49.83,392.49v-3.1h.82v3c0,.91.27,1.3.92,1.3.5,0,.86-.24,1.32-.83v-3.47h.82v4.89h-.68l-.06-.77h-.03c-.46.53-.95.88-1.62.88-1.03,0-1.49-.67-1.49-1.91Z"/><path class="cls-16" d="M57.46,387.78c-.18-.08-.38-.13-.55-.13-.47,0-.69.33-.69.96v.77h1.04v.67h-1.04v4.22h-.82v-4.22h-.67v-.62l.67-.04v-.78c0-.99.45-1.61,1.42-1.61.3,0,.58.06.82.16l-.18.62Z"/><path class="cls-16" d="M57.8,393.01c0-1.06.93-1.59,3.01-1.83,0-.63-.21-1.23-1.01-1.23-.57,0-1.08.26-1.47.52l-.32-.57c.45-.29,1.14-.64,1.93-.64,1.19,0,1.69.8,1.69,2.01v3.01h-.68l-.07-.59h-.03c-.47.39-1.02.7-1.62.7-.82,0-1.43-.5-1.43-1.39ZM60.8,393.09v-1.37c-1.65.2-2.21.6-2.21,1.23,0,.56.38.78.86.78s.86-.22,1.34-.65Z"/><path class="cls-16" d="M62.72,391.84c0-1.63,1.11-2.57,2.36-2.57.64,0,1.08.27,1.43.58l-.42.55c-.29-.26-.58-.44-.98-.44-.88,0-1.53.77-1.53,1.89s.61,1.87,1.51,1.87c.45,0,.85-.21,1.15-.49l.35.55c-.43.4-.99.62-1.58.62-1.3,0-2.3-.94-2.3-2.56Z"/><path class="cls-16" d="M67.72,392.77v-2.71h-.73v-.62l.77-.04.1-1.37h.68v1.37h1.32v.67h-1.32v2.73c0,.6.19.95.76.95.17,0,.4-.06.56-.13l.16.61c-.28.09-.6.18-.9.18-1.04,0-1.4-.65-1.4-1.63Z"/><path class="cls-16" d="M70.82,392.49v-3.1h.82v3c0,.91.27,1.3.92,1.3.5,0,.86-.24,1.32-.83v-3.47h.82v4.89h-.68l-.06-.77h-.03c-.46.53-.95.88-1.62.88-1.03,0-1.49-.67-1.49-1.91Z"/><path class="cls-16" d="M76.26,389.39h.68l.07.89h.03c.34-.62.84-1.02,1.39-1.02.22,0,.37.03.52.11l-.15.72c-.16-.06-.28-.08-.48-.08-.41,0-.91.29-1.23,1.13v3.14h-.82v-4.89Z"/><path class="cls-16" d="M79.5,387.85c0-.33.24-.53.57-.53s.57.2.57.53c0,.31-.24.53-.57.53s-.57-.23-.57-.53ZM79.66,389.39h.82v4.89h-.82v-4.89Z"/><path class="cls-16" d="M82.04,389.39h.68l.07.7h.03c.47-.46.97-.83,1.64-.83,1.03,0,1.49.67,1.49,1.92v3.1h-.82v-2.99c0-.92-.28-1.31-.93-1.31-.5,0-.85.25-1.34.75v3.55h-.82v-4.89Z"/><path class="cls-16" d="M87.07,395.21c0-.41.27-.81.73-1.11v-.04c-.26-.15-.45-.41-.45-.8s.3-.73.55-.91v-.04c-.32-.26-.64-.73-.64-1.31,0-1.07.85-1.75,1.84-1.75.27,0,.51.06.68.13h1.7v.63h-1c.23.23.4.59.4,1.01,0,1.04-.79,1.7-1.78,1.7-.24,0-.51-.06-.73-.17-.18.15-.31.31-.31.59,0,.31.2.53.86.53h.95c1.13,0,1.7.36,1.7,1.16,0,.91-.95,1.69-2.47,1.69-1.2,0-2.03-.47-2.03-1.31ZM90.77,394.96c0-.45-.35-.6-1-.6h-.85c-.18,0-.41-.03-.63-.08-.35.25-.5.54-.5.83,0,.52.53.86,1.42.86.94,0,1.56-.5,1.56-1.01ZM90.13,391.01c0-.71-.46-1.14-1.04-1.14s-1.04.42-1.04,1.14.48,1.16,1.04,1.16,1.04-.45,1.04-1.16Z"/><path class="cls-16" d="M38.38,397.68h1.66c2.03,0,3.12,1.18,3.12,3.28s-1.09,3.32-3.08,3.32h-1.69v-6.6ZM39.96,403.59c1.56,0,2.32-.97,2.32-2.64s-.77-2.6-2.32-2.6h-.75v5.24h.75Z"/><path class="cls-16" d="M44.03,401.84c0-1.58,1.07-2.57,2.21-2.57,1.24,0,1.94.9,1.94,2.3,0,.18-.02.35-.04.47h-3.29c.05,1.04.69,1.71,1.62,1.71.48,0,.86-.14,1.22-.39l.3.54c-.43.28-.95.5-1.62.5-1.3,0-2.34-.95-2.34-2.56ZM47.46,401.44c0-.99-.45-1.52-1.22-1.52-.69,0-1.31.56-1.4,1.52h2.62Z"/><path class="cls-16" d="M49.3,399.39h.68l.07.56h.03c.44-.36.99-.68,1.56-.68,1.26,0,1.94.99,1.94,2.49,0,1.67-1,2.64-2.12,2.64-.44,0-.91-.21-1.35-.57l.02.86v1.66h-.82v-6.95ZM52.72,401.77c0-1.08-.36-1.81-1.29-1.81-.41,0-.84.23-1.31.68v2.57c.44.38.87.51,1.2.51.81,0,1.4-.73,1.4-1.94Z"/><path class="cls-16" d="M54.48,403.01c0-1.06.93-1.59,3.01-1.83,0-.63-.21-1.23-1.01-1.23-.57,0-1.08.26-1.47.52l-.32-.57c.45-.29,1.14-.64,1.93-.64,1.19,0,1.69.8,1.69,2.01v3.01h-.68l-.07-.59h-.03c-.47.39-1.02.7-1.62.7-.82,0-1.43-.5-1.43-1.39ZM57.49,403.09v-1.37c-1.65.2-2.21.6-2.21,1.23,0,.56.38.78.86.78s.86-.22,1.34-.65Z"/><path class="cls-16" d="M59.77,399.39h.68l.07.89h.03c.34-.62.84-1.02,1.39-1.02.22,0,.37.03.52.11l-.15.72c-.16-.06-.28-.08-.48-.08-.41,0-.91.29-1.23,1.13v3.14h-.82v-4.89Z"/><path class="cls-16" d="M63.32,402.77v-2.71h-.73v-.62l.76-.04.1-1.37h.68v1.37h1.32v.67h-1.32v2.73c0,.6.19.95.76.95.17,0,.4-.06.56-.13l.16.61c-.28.09-.6.18-.9.18-1.04,0-1.4-.65-1.4-1.63Z"/><path class="cls-16" d="M66.48,399.39h.68l.07.71h.03c.42-.47.94-.84,1.52-.84.75,0,1.15.36,1.35.94.5-.55,1.02-.94,1.61-.94,1.01,0,1.49.67,1.49,1.92v3.1h-.82v-2.99c0-.92-.29-1.31-.91-1.31-.38,0-.77.24-1.23.75v3.55h-.82v-2.99c0-.92-.29-1.31-.91-1.31-.37,0-.78.24-1.23.75v3.55h-.82v-4.89Z"/><path class="cls-16" d="M74.35,401.84c0-1.58,1.07-2.57,2.21-2.57,1.24,0,1.94.9,1.94,2.3,0,.18-.02.35-.04.47h-3.29c.05,1.04.69,1.71,1.62,1.71.48,0,.86-.14,1.22-.39l.3.54c-.43.28-.95.5-1.62.5-1.3,0-2.34-.95-2.34-2.56ZM77.78,401.44c0-.99-.45-1.52-1.21-1.52-.69,0-1.31.56-1.4,1.52h2.62Z"/><path class="cls-16" d="M79.62,399.39h.68l.07.7h.03c.47-.46.97-.83,1.64-.83,1.03,0,1.49.67,1.49,1.92v3.1h-.82v-2.99c0-.92-.28-1.31-.93-1.31-.5,0-.85.25-1.34.75v3.55h-.82v-4.89Z"/><path class="cls-16" d="M85.17,402.77v-2.71h-.73v-.62l.77-.04.1-1.37h.68v1.37h1.32v.67h-1.32v2.73c0,.6.19.95.76.95.17,0,.4-.06.56-.13l.16.61c-.28.09-.6.18-.9.18-1.04,0-1.4-.65-1.4-1.63Z"/><path class="cls-16" d="M228.93,377.68h1.66c2.03,0,3.12,1.18,3.12,3.28s-1.09,3.32-3.08,3.32h-1.69v-6.6ZM230.51,383.59c1.56,0,2.32-.97,2.32-2.64s-.77-2.6-2.32-2.6h-.75v5.24h.75Z"/><path class="cls-16" d="M234.58,381.84c0-1.58,1.07-2.57,2.21-2.57,1.24,0,1.94.9,1.94,2.3,0,.18-.02.35-.04.47h-3.29c.05,1.04.69,1.71,1.62,1.71.48,0,.86-.14,1.22-.39l.3.54c-.43.28-.95.5-1.62.5-1.3,0-2.34-.95-2.34-2.56ZM238.01,381.44c0-.99-.45-1.52-1.22-1.52-.69,0-1.31.56-1.4,1.52h2.62Z"/><path class="cls-16" d="M239.3,383.72l.41-.54c.42.34.86.58,1.45.58.65,0,.96-.34.96-.77,0-.5-.58-.72-1.12-.93-.68-.25-1.46-.59-1.46-1.41,0-.77.62-1.39,1.68-1.39.6,0,1.13.25,1.52.55l-.4.53c-.34-.25-.68-.43-1.12-.43-.61,0-.89.32-.89.7,0,.47.53.64,1.08.85.71.27,1.5.56,1.5,1.49,0,.79-.63,1.45-1.78,1.45-.69,0-1.36-.29-1.83-.68Z"/><path class="cls-16" d="M243.82,377.85c0-.33.24-.53.57-.53s.57.2.57.53c0,.31-.24.53-.57.53s-.57-.23-.57-.53ZM243.97,379.39h.82v4.89h-.82v-4.89Z"/><path class="cls-16" d="M245.98,385.21c0-.41.27-.81.73-1.11v-.04c-.26-.15-.45-.41-.45-.8s.3-.73.55-.91v-.04c-.32-.26-.64-.73-.64-1.31,0-1.07.85-1.75,1.84-1.75.27,0,.51.06.68.13h1.7v.63h-1c.23.23.4.59.4,1.01,0,1.04-.79,1.7-1.78,1.7-.24,0-.51-.06-.73-.17-.18.15-.31.31-.31.59,0,.31.2.53.86.53h.95c1.13,0,1.7.36,1.7,1.16,0,.91-.95,1.69-2.47,1.69-1.2,0-2.03-.47-2.03-1.31ZM249.68,384.96c0-.45-.35-.6-1-.6h-.85c-.18,0-.41-.03-.63-.08-.35.25-.5.54-.5.83,0,.52.53.86,1.42.86.94,0,1.56-.5,1.56-1.01ZM249.04,381.01c0-.71-.46-1.14-1.04-1.14s-1.04.42-1.04,1.14.48,1.16,1.04,1.16,1.04-.45,1.04-1.16Z"/><path class="cls-16" d="M251.33,379.39h.68l.07.7h.03c.47-.46.97-.83,1.64-.83,1.03,0,1.49.67,1.49,1.92v3.1h-.82v-2.99c0-.92-.28-1.31-.93-1.31-.5,0-.85.25-1.34.75v3.55h-.82v-4.89Z"/><path class="cls-16" d="M218.2,387.68h3.81v.7h-2.97v2.07h2.5v.71h-2.5v2.4h3.07v.71h-3.91v-6.6Z"/><path class="cls-16" d="M223.33,389.39h.68l.07.7h.03c.47-.46.97-.83,1.64-.83,1.03,0,1.49.67,1.49,1.92v3.1h-.82v-2.99c0-.92-.28-1.31-.93-1.31-.5,0-.85.25-1.34.75v3.55h-.82v-4.89Z"/><path class="cls-16" d="M228.36,395.21c0-.41.27-.81.73-1.11v-.04c-.26-.15-.45-.41-.45-.8s.3-.73.55-.91v-.04c-.32-.26-.64-.73-.64-1.31,0-1.07.85-1.75,1.84-1.75.27,0,.51.06.68.13h1.7v.63h-1c.23.23.4.59.4,1.01,0,1.04-.79,1.7-1.78,1.7-.24,0-.51-.06-.73-.17-.18.15-.31.31-.31.59,0,.31.2.53.86.53h.95c1.13,0,1.7.36,1.7,1.16,0,.91-.95,1.69-2.47,1.69-1.2,0-2.03-.47-2.03-1.31ZM232.06,394.96c0-.45-.35-.6-1-.6h-.85c-.18,0-.41-.03-.63-.08-.35.25-.5.54-.5.83,0,.52.53.86,1.42.86.94,0,1.56-.5,1.56-1.01ZM231.42,391.01c0-.71-.46-1.14-1.04-1.14s-1.04.42-1.04,1.14.48,1.16,1.04,1.16,1.04-.45,1.04-1.16Z"/><path class="cls-16" d="M233.56,387.85c0-.33.24-.53.57-.53s.57.2.57.53c0,.31-.24.53-.57.53s-.57-.23-.57-.53ZM233.72,389.39h.82v4.89h-.82v-4.89Z"/><path class="cls-16" d="M236.1,389.39h.68l.07.7h.03c.47-.46.97-.83,1.64-.83,1.03,0,1.49.67,1.49,1.92v3.1h-.82v-2.99c0-.92-.28-1.31-.93-1.31-.5,0-.85.25-1.34.75v3.55h-.82v-4.89Z"/><path class="cls-16" d="M241.14,391.84c0-1.58,1.07-2.57,2.21-2.57,1.24,0,1.94.9,1.94,2.3,0,.18-.02.35-.04.47h-3.29c.05,1.04.69,1.71,1.62,1.71.48,0,.86-.14,1.22-.39l.3.54c-.43.28-.95.5-1.62.5-1.3,0-2.34-.95-2.34-2.56ZM244.57,391.44c0-.99-.45-1.52-1.21-1.52-.69,0-1.31.56-1.4,1.52h2.62Z"/><path class="cls-16" d="M246.04,391.84c0-1.58,1.07-2.57,2.21-2.57,1.24,0,1.94.9,1.94,2.3,0,.18-.02.35-.04.47h-3.29c.05,1.04.69,1.71,1.62,1.71.48,0,.86-.14,1.22-.39l.3.54c-.43.28-.95.5-1.62.5-1.3,0-2.34-.95-2.34-2.56ZM249.47,391.44c0-.99-.45-1.52-1.21-1.52-.69,0-1.31.56-1.4,1.52h2.62Z"/><path class="cls-16" d="M251.3,389.39h.68l.07.89h.03c.34-.62.84-1.02,1.39-1.02.22,0,.37.03.52.11l-.15.72c-.16-.06-.28-.08-.48-.08-.41,0-.91.29-1.23,1.13v3.14h-.82v-4.89Z"/><path class="cls-16" d="M254.55,387.85c0-.33.24-.53.57-.53s.57.2.57.53c0,.31-.24.53-.57.53s-.57-.23-.57-.53ZM254.7,389.39h.82v4.89h-.82v-4.89Z"/><path class="cls-16" d="M257.09,389.39h.68l.07.7h.03c.47-.46.97-.83,1.64-.83,1.03,0,1.49.67,1.49,1.92v3.1h-.82v-2.99c0-.92-.28-1.31-.93-1.31-.5,0-.85.25-1.34.75v3.55h-.82v-4.89Z"/><path class="cls-16" d="M262.12,395.21c0-.41.27-.81.73-1.11v-.04c-.26-.15-.45-.41-.45-.8s.3-.73.55-.91v-.04c-.32-.26-.64-.73-.64-1.31,0-1.07.85-1.75,1.84-1.75.27,0,.51.06.68.13h1.7v.63h-1c.23.23.4.59.4,1.01,0,1.04-.79,1.7-1.78,1.7-.24,0-.51-.06-.73-.17-.18.15-.31.31-.31.59,0,.31.2.53.86.53h.95c1.13,0,1.7.36,1.7,1.16,0,.91-.95,1.69-2.47,1.69-1.2,0-2.03-.47-2.03-1.31ZM265.82,394.96c0-.45-.35-.6-1-.6h-.85c-.18,0-.41-.03-.63-.08-.35.25-.5.54-.5.83,0,.52.53.86,1.42.86.94,0,1.56-.5,1.56-1.01ZM265.18,391.01c0-.71-.46-1.14-1.04-1.14s-1.04.42-1.04,1.14.48,1.16,1.04,1.16,1.04-.45,1.04-1.16Z"/><path class="cls-16" d="M218.82,397.68h1.66c2.03,0,3.12,1.18,3.12,3.28s-1.09,3.32-3.08,3.32h-1.69v-6.6ZM220.41,403.59c1.56,0,2.32-.97,2.32-2.64s-.77-2.6-2.32-2.6h-.75v5.24h.75Z"/><path class="cls-16" d="M224.48,401.84c0-1.58,1.07-2.57,2.21-2.57,1.24,0,1.94.9,1.94,2.3,0,.18-.02.35-.04.47h-3.29c.05,1.04.69,1.71,1.62,1.71.48,0,.86-.14,1.22-.39l.3.54c-.43.28-.95.5-1.62.5-1.3,0-2.34-.95-2.34-2.56ZM227.91,401.44c0-.99-.45-1.52-1.21-1.52-.69,0-1.31.56-1.4,1.52h2.62Z"/><path class="cls-16" d="M229.74,399.39h.68l.07.56h.03c.44-.36.99-.68,1.56-.68,1.26,0,1.94.99,1.94,2.49,0,1.67-1,2.64-2.12,2.64-.44,0-.91-.21-1.35-.57l.02.86v1.66h-.82v-6.95ZM233.16,401.77c0-1.08-.36-1.81-1.29-1.81-.41,0-.84.23-1.31.68v2.57c.44.38.87.51,1.2.51.81,0,1.4-.73,1.4-1.94Z"/><path class="cls-16" d="M234.93,403.01c0-1.06.93-1.59,3.01-1.83,0-.63-.21-1.23-1.01-1.23-.57,0-1.08.26-1.47.52l-.32-.57c.45-.29,1.14-.64,1.93-.64,1.19,0,1.69.8,1.69,2.01v3.01h-.68l-.07-.59h-.03c-.47.39-1.02.7-1.62.7-.82,0-1.43-.5-1.43-1.39ZM237.93,403.09v-1.37c-1.65.2-2.21.6-2.21,1.23,0,.56.38.78.86.78s.86-.22,1.34-.65Z"/><path class="cls-16" d="M240.22,399.39h.68l.07.89h.03c.34-.62.84-1.02,1.39-1.02.22,0,.37.03.52.11l-.15.72c-.16-.06-.28-.08-.48-.08-.41,0-.91.29-1.23,1.13v3.14h-.82v-4.89Z"/><path class="cls-16" d="M243.76,402.77v-2.71h-.73v-.62l.77-.04.1-1.37h.68v1.37h1.32v.67h-1.32v2.73c0,.6.19.95.76.95.17,0,.4-.06.56-.13l.16.61c-.28.09-.6.18-.9.18-1.04,0-1.4-.65-1.4-1.63Z"/><path class="cls-16" d="M246.92,399.39h.68l.07.71h.03c.42-.47.94-.84,1.52-.84.75,0,1.15.36,1.35.94.5-.55,1.02-.94,1.61-.94,1.01,0,1.49.67,1.49,1.92v3.1h-.82v-2.99c0-.92-.29-1.31-.91-1.31-.38,0-.77.24-1.23.75v3.55h-.82v-2.99c0-.92-.29-1.31-.91-1.31-.37,0-.78.24-1.23.75v3.55h-.82v-4.89Z"/><path class="cls-16" d="M254.8,401.84c0-1.58,1.07-2.57,2.21-2.57,1.24,0,1.94.9,1.94,2.3,0,.18-.02.35-.04.47h-3.29c.05,1.04.69,1.71,1.62,1.71.48,0,.86-.14,1.22-.39l.3.54c-.43.28-.95.5-1.62.5-1.3,0-2.34-.95-2.34-2.56ZM258.23,401.44c0-.99-.45-1.52-1.22-1.52-.69,0-1.31.56-1.4,1.52h2.62Z"/><path class="cls-16" d="M260.06,399.39h.68l.07.7h.03c.47-.46.97-.83,1.64-.83,1.03,0,1.49.67,1.49,1.92v3.1h-.82v-2.99c0-.92-.28-1.31-.93-1.31-.5,0-.85.25-1.34.75v3.55h-.82v-4.89Z"/><path class="cls-16" d="M265.62,402.77v-2.71h-.73v-.62l.76-.04.1-1.37h.68v1.37h1.32v.67h-1.32v2.73c0,.6.19.95.76.95.17,0,.4-.06.56-.13l.16.61c-.28.09-.6.18-.9.18-1.04,0-1.4-.65-1.4-1.63Z"/><path class="cls-16" d="M99.4,538.98c0-2.13,1.28-3.43,3.02-3.43.92,0,1.52.41,1.9.82l-.45.54c-.33-.35-.76-.63-1.43-.63-1.32,0-2.19,1.03-2.19,2.67s.78,2.71,2.2,2.71c.48,0,.94-.14,1.2-.39v-1.73h-1.4v-.69h2.16v2.77c-.42.44-1.15.77-2.04.77-1.74,0-2.97-1.27-2.97-3.41Z"/><path class="cls-16" d="M105.45,539.84c0-1.58,1.07-2.57,2.21-2.57,1.24,0,1.94.9,1.94,2.3,0,.18-.02.35-.04.47h-3.29c.05,1.04.69,1.71,1.62,1.71.48,0,.86-.14,1.22-.39l.3.54c-.43.28-.95.5-1.62.5-1.3,0-2.34-.95-2.34-2.56ZM108.88,539.44c0-.99-.45-1.52-1.21-1.52-.69,0-1.31.56-1.4,1.52h2.62Z"/><path class="cls-16" d="M110.71,537.39h.68l.07.7h.03c.47-.46.97-.83,1.64-.83,1.03,0,1.49.67,1.49,1.92v3.1h-.82v-2.99c0-.92-.28-1.31-.93-1.31-.5,0-.85.25-1.34.75v3.55h-.82v-4.89Z"/><path class="cls-16" d="M115.75,539.84c0-1.58,1.07-2.57,2.21-2.57,1.24,0,1.94.9,1.94,2.3,0,.18-.02.35-.04.47h-3.29c.05,1.04.69,1.71,1.62,1.71.48,0,.86-.14,1.22-.39l.3.54c-.43.28-.95.5-1.62.5-1.3,0-2.34-.95-2.34-2.56ZM119.18,539.44c0-.99-.45-1.52-1.22-1.52-.69,0-1.31.56-1.4,1.52h2.62Z"/><path class="cls-16" d="M121.02,537.39h.68l.07.89h.03c.34-.62.84-1.02,1.39-1.02.22,0,.37.03.52.11l-.15.72c-.16-.06-.28-.08-.48-.08-.41,0-.91.29-1.23,1.13v3.14h-.82v-4.89Z"/><path class="cls-16" d="M124.12,541.01c0-1.06.93-1.59,3.01-1.83,0-.63-.21-1.23-1.01-1.23-.57,0-1.08.26-1.47.52l-.32-.57c.45-.29,1.14-.64,1.93-.64,1.19,0,1.69.8,1.69,2.01v3.01h-.68l-.07-.59h-.03c-.47.39-1.02.7-1.62.7-.82,0-1.43-.5-1.43-1.39ZM127.12,541.09v-1.37c-1.65.2-2.21.6-2.21,1.23,0,.56.38.78.86.78s.86-.22,1.34-.65Z"/><path class="cls-16" d="M129.41,541.31v-6.19h.82v6.25c0,.25.11.35.23.35.04,0,.08,0,.17-.02l.12.63c-.12.05-.26.07-.48.07-.61,0-.86-.4-.86-1.09Z"/><path class="cls-16" d="M97,550.26h-2.41l-.64,2.02h-.85l2.24-6.6h.93l2.24,6.6h-.88l-.63-2.02ZM96.79,549.6l-.31-1.01c-.24-.75-.45-1.47-.67-2.23h-.04c-.21.77-.42,1.49-.66,2.23l-.32,1.01h2Z"/><path class="cls-16" d="M104.34,545.78c-.18-.08-.38-.13-.55-.13-.47,0-.69.33-.69.96v.77h1.04v.67h-1.04v4.22h-.82v-4.22h-2.04v4.22h-.82v-4.22h-.67v-.62l.67-.04v-.66c0-1.01.5-1.64,1.51-1.64.32,0,.65.06.9.17l-.17.63c-.22-.1-.41-.14-.66-.14-.49,0-.77.36-.77,1.01v.63h2.04v-.78c0-.99.45-1.61,1.43-1.61.29,0,.58.06.81.16l-.18.62Z"/><path class="cls-16" d="M104.67,551.01c0-1.06.93-1.59,3.01-1.83,0-.63-.21-1.23-1.01-1.23-.57,0-1.08.26-1.47.52l-.32-.57c.45-.29,1.14-.64,1.93-.64,1.19,0,1.69.8,1.69,2.01v3.01h-.68l-.07-.58h-.03c-.47.39-1.02.7-1.62.7-.82,0-1.43-.5-1.43-1.39ZM107.68,551.09v-1.37c-1.65.2-2.21.6-2.21,1.23,0,.56.38.78.86.78s.86-.23,1.34-.65Z"/><path class="cls-16" d="M109.81,545.85c0-.33.24-.53.57-.53s.57.2.57.53c0,.31-.24.53-.57.53s-.57-.23-.57-.53ZM109.96,547.39h.82v4.89h-.82v-4.89Z"/><path class="cls-16" d="M112.35,547.39h.68l.07.89h.03c.34-.62.84-1.02,1.39-1.02.22,0,.37.03.52.11l-.15.72c-.16-.06-.28-.08-.48-.08-.41,0-.91.29-1.23,1.13v3.14h-.82v-4.89Z"/><path class="cls-16" d="M115.2,551.72l.41-.54c.42.34.86.58,1.45.58.65,0,.96-.34.96-.77,0-.5-.58-.72-1.12-.93-.68-.25-1.46-.59-1.46-1.41,0-.77.62-1.39,1.68-1.39.6,0,1.13.25,1.52.55l-.4.53c-.34-.25-.68-.43-1.12-.43-.61,0-.89.32-.89.7,0,.47.53.64,1.08.85.71.27,1.5.56,1.5,1.49,0,.79-.63,1.45-1.78,1.45-.69,0-1.36-.29-1.83-.68Z"/><path class="cls-16" d="M121.49,551.01c0-1.06.93-1.59,3.01-1.83,0-.63-.21-1.23-1.01-1.23-.57,0-1.08.26-1.47.52l-.32-.57c.45-.29,1.14-.64,1.93-.64,1.19,0,1.69.8,1.69,2.01v3.01h-.68l-.07-.58h-.03c-.47.39-1.02.7-1.62.7-.82,0-1.43-.5-1.43-1.39ZM124.5,551.09v-1.37c-1.65.2-2.21.6-2.21,1.23,0,.56.38.78.86.78s.86-.23,1.34-.65Z"/><path class="cls-16" d="M126.78,547.39h.68l.07.7h.03c.47-.46.97-.83,1.64-.83,1.03,0,1.49.67,1.49,1.92v3.1h-.82v-2.99c0-.92-.28-1.31-.93-1.31-.5,0-.85.25-1.34.75v3.55h-.82v-4.89Z"/><path class="cls-16" d="M131.84,549.84c0-1.58,1-2.57,2.12-2.57.58,0,.95.22,1.38.58l-.04-.85v-1.88h.82v7.17h-.67l-.08-.58h-.02c-.39.38-.9.69-1.49.69-1.22,0-2.02-.93-2.02-2.56ZM135.29,551.04v-2.57c-.41-.37-.78-.51-1.19-.51-.79,0-1.41.76-1.41,1.87,0,1.18.49,1.88,1.35,1.88.45,0,.85-.23,1.25-.68Z"/><path class="cls-16" d="M96.57,560.26h-2.41l-.64,2.02h-.85l2.24-6.6h.93l2.24,6.6h-.88l-.63-2.02ZM96.36,559.6l-.31-1.01c-.24-.75-.45-1.47-.67-2.23h-.04c-.21.77-.42,1.49-.66,2.23l-.32,1.01h2Z"/><path class="cls-16" d="M98.47,559.84c0-1.63,1.11-2.57,2.36-2.57.64,0,1.08.27,1.43.58l-.42.55c-.29-.26-.58-.44-.98-.44-.88,0-1.53.77-1.53,1.89s.61,1.87,1.51,1.87c.45,0,.85-.21,1.15-.49l.35.55c-.43.4-.99.62-1.58.62-1.3,0-2.3-.94-2.3-2.56Z"/><path class="cls-16" d="M102.96,559.84c0-1.63,1.11-2.57,2.36-2.57.64,0,1.08.27,1.43.58l-.42.55c-.29-.26-.58-.44-.98-.44-.88,0-1.53.77-1.53,1.89s.61,1.87,1.51,1.87c.45,0,.85-.21,1.15-.49l.35.55c-.43.4-.99.62-1.58.62-1.3,0-2.3-.94-2.3-2.56Z"/><path class="cls-16" d="M107.46,559.84c0-1.63,1.07-2.57,2.27-2.57s2.27.95,2.27,2.57-1.07,2.56-2.27,2.56-2.27-.94-2.27-2.56ZM111.15,559.84c0-1.13-.58-1.89-1.42-1.89s-1.41.77-1.41,1.89.57,1.87,1.41,1.87,1.42-.75,1.42-1.87Z"/><path class="cls-16" d="M113.12,560.49v-3.1h.82v3c0,.91.27,1.3.92,1.3.5,0,.86-.24,1.32-.83v-3.47h.82v4.89h-.68l-.06-.77h-.03c-.46.53-.95.88-1.62.88-1.03,0-1.49-.67-1.49-1.91Z"/><path class="cls-16" d="M118.56,557.39h.68l.07.7h.03c.47-.46.97-.83,1.64-.83,1.03,0,1.49.67,1.49,1.92v3.1h-.82v-2.99c0-.92-.28-1.31-.93-1.31-.5,0-.85.25-1.34.75v3.55h-.82v-4.89Z"/><path class="cls-16" d="M124.11,560.77v-2.71h-.73v-.62l.76-.04.1-1.37h.68v1.37h1.32v.67h-1.32v2.73c0,.6.19.95.76.95.17,0,.4-.06.56-.13l.16.61c-.28.09-.6.18-.9.18-1.04,0-1.4-.65-1.4-1.63Z"/><path class="cls-16" d="M127.12,555.85c0-.33.24-.53.57-.53s.57.2.57.53c0,.31-.24.53-.57.53s-.57-.23-.57-.53ZM127.27,557.39h.82v4.89h-.82v-4.89Z"/><path class="cls-16" d="M129.66,557.39h.68l.07.7h.03c.47-.46.97-.83,1.64-.83,1.03,0,1.49.67,1.49,1.92v3.1h-.82v-2.99c0-.92-.28-1.31-.93-1.31-.5,0-.85.25-1.34.75v3.55h-.82v-4.89Z"/><path class="cls-16" d="M134.69,563.21c0-.41.27-.81.73-1.11v-.04c-.26-.15-.45-.41-.45-.8s.3-.73.55-.91v-.04c-.32-.26-.64-.73-.64-1.31,0-1.07.85-1.75,1.84-1.75.27,0,.51.06.68.13h1.7v.63h-1c.23.23.4.59.4,1.01,0,1.04-.79,1.7-1.78,1.7-.24,0-.51-.06-.73-.17-.18.15-.31.31-.31.58,0,.31.2.53.86.53h.95c1.13,0,1.7.36,1.7,1.16,0,.91-.95,1.69-2.47,1.69-1.2,0-2.03-.47-2.03-1.31ZM138.39,562.96c0-.45-.35-.6-1-.6h-.85c-.18,0-.41-.03-.63-.08-.35.25-.5.54-.5.83,0,.52.53.86,1.42.86.94,0,1.56-.5,1.56-1.01ZM137.75,559.01c0-.71-.46-1.14-1.04-1.14s-1.04.42-1.04,1.14.48,1.16,1.04,1.16,1.04-.45,1.04-1.16Z"/><path class="cls-16" d="M196.28,546.91l.5-.57c.48.5,1.14.82,1.83.82.86,0,1.39-.43,1.39-1.08s-.48-.89-1.1-1.17l-.95-.41c-.61-.26-1.34-.73-1.34-1.69,0-1.02.88-1.76,2.08-1.76.78,0,1.48.33,1.95.82l-.44.53c-.41-.38-.89-.62-1.5-.62-.75,0-1.23.38-1.23.97,0,.64.58.88,1.09,1.1l.95.41c.77.33,1.36.78,1.36,1.76,0,1.04-.86,1.87-2.24,1.87-.94,0-1.74-.38-2.31-.98Z"/><path class="cls-16" d="M201.66,546.51c0-1.06.93-1.59,3.01-1.83,0-.63-.21-1.23-1.01-1.23-.57,0-1.08.26-1.47.52l-.32-.57c.45-.29,1.14-.64,1.93-.64,1.19,0,1.69.8,1.69,2.01v3.01h-.68l-.07-.58h-.03c-.47.39-1.02.7-1.62.7-.82,0-1.43-.5-1.43-1.39ZM204.67,546.59v-1.37c-1.65.2-2.21.6-2.21,1.23,0,.56.38.78.86.78s.86-.23,1.34-.65Z"/><path class="cls-16" d="M206.95,546.81v-6.19h.82v6.25c0,.25.11.35.23.35.04,0,.08,0,.17-.02l.12.63c-.12.05-.26.07-.48.07-.61,0-.86-.4-.86-1.09Z"/><path class="cls-16" d="M209.06,545.34c0-1.58,1.07-2.57,2.21-2.57,1.24,0,1.94.9,1.94,2.3,0,.18-.02.35-.04.47h-3.29c.05,1.04.69,1.71,1.62,1.71.48,0,.86-.14,1.22-.39l.3.54c-.43.28-.95.5-1.62.5-1.3,0-2.34-.95-2.34-2.56ZM212.49,544.94c0-.99-.45-1.52-1.22-1.52-.69,0-1.31.56-1.4,1.52h2.62Z"/><path class="cls-16" d="M213.77,547.22l.41-.54c.42.34.86.58,1.45.58.65,0,.96-.34.96-.77,0-.5-.58-.72-1.12-.93-.68-.25-1.46-.59-1.46-1.41,0-.77.62-1.39,1.68-1.39.6,0,1.13.25,1.52.55l-.4.53c-.34-.25-.68-.43-1.12-.43-.61,0-.89.32-.89.7,0,.47.53.64,1.08.85.71.27,1.49.56,1.49,1.49,0,.79-.63,1.45-1.78,1.45-.69,0-1.36-.29-1.83-.68Z"/><path class="cls-16" d="M182.62,551.18h1.66c2.03,0,3.12,1.18,3.12,3.28s-1.09,3.32-3.08,3.32h-1.69v-6.6ZM184.21,557.09c1.56,0,2.32-.97,2.32-2.64s-.77-2.6-2.32-2.6h-.75v5.24h.75Z"/><path class="cls-16" d="M188.28,555.34c0-1.58,1.07-2.57,2.21-2.57,1.24,0,1.94.9,1.94,2.3,0,.18-.02.35-.04.47h-3.29c.05,1.04.69,1.71,1.62,1.71.48,0,.86-.14,1.22-.39l.3.54c-.43.28-.95.5-1.62.5-1.3,0-2.34-.95-2.34-2.56ZM191.71,554.94c0-.99-.45-1.52-1.22-1.52-.69,0-1.31.56-1.4,1.52h2.62Z"/><path class="cls-16" d="M193.54,552.89h.68l.07.56h.03c.44-.36.99-.68,1.56-.68,1.26,0,1.94.99,1.94,2.49,0,1.67-1,2.64-2.12,2.64-.44,0-.91-.21-1.35-.57l.02.86v1.66h-.82v-6.95ZM196.96,555.27c0-1.08-.36-1.81-1.29-1.81-.41,0-.84.23-1.31.68v2.57c.44.38.87.51,1.2.51.81,0,1.4-.73,1.4-1.94Z"/><path class="cls-16" d="M198.73,556.51c0-1.06.93-1.59,3.01-1.83,0-.63-.21-1.23-1.01-1.23-.57,0-1.08.26-1.47.52l-.32-.57c.45-.29,1.14-.64,1.93-.64,1.19,0,1.69.8,1.69,2.01v3.01h-.68l-.07-.58h-.03c-.47.39-1.02.7-1.62.7-.82,0-1.43-.5-1.43-1.39ZM201.73,556.59v-1.37c-1.65.2-2.21.6-2.21,1.23,0,.56.38.78.86.78s.86-.23,1.34-.65Z"/><path class="cls-16" d="M204.02,552.89h.68l.07.89h.03c.34-.62.84-1.02,1.39-1.02.22,0,.37.03.52.11l-.15.72c-.16-.06-.28-.08-.48-.08-.41,0-.91.29-1.23,1.13v3.14h-.82v-4.89Z"/><path class="cls-16" d="M207.56,556.27v-2.71h-.73v-.62l.76-.04.1-1.37h.68v1.37h1.32v.67h-1.32v2.73c0,.6.19.95.76.95.17,0,.4-.06.56-.13l.16.61c-.28.09-.6.18-.9.18-1.04,0-1.4-.65-1.4-1.63Z"/><path class="cls-16" d="M210.72,552.89h.68l.07.71h.03c.42-.47.94-.84,1.52-.84.75,0,1.15.36,1.35.94.5-.55,1.02-.94,1.61-.94,1.01,0,1.49.67,1.49,1.92v3.1h-.82v-2.99c0-.92-.29-1.31-.91-1.31-.38,0-.77.24-1.23.75v3.55h-.82v-2.99c0-.92-.29-1.31-.91-1.31-.37,0-.78.24-1.23.75v3.55h-.82v-4.89Z"/><path class="cls-16" d="M218.6,555.34c0-1.58,1.07-2.57,2.21-2.57,1.24,0,1.94.9,1.94,2.3,0,.18-.02.35-.04.47h-3.29c.05,1.04.69,1.71,1.62,1.71.48,0,.86-.14,1.22-.39l.3.54c-.43.28-.95.5-1.62.5-1.3,0-2.34-.95-2.34-2.56ZM222.03,554.94c0-.99-.45-1.52-1.21-1.52-.69,0-1.31.56-1.4,1.52h2.62Z"/><path class="cls-16" d="M223.86,552.89h.68l.07.7h.03c.47-.46.97-.83,1.64-.83,1.03,0,1.49.67,1.49,1.92v3.1h-.82v-2.99c0-.92-.28-1.31-.93-1.31-.5,0-.85.25-1.34.75v3.55h-.82v-4.89Z"/><path class="cls-16" d="M229.42,556.27v-2.71h-.73v-.62l.77-.04.1-1.37h.68v1.37h1.32v.67h-1.32v2.73c0,.6.19.95.76.95.17,0,.4-.06.56-.13l.16.61c-.28.09-.6.18-.9.18-1.04,0-1.4-.65-1.4-1.63Z"/><path class="cls-16" d="M130.33,377.68h1.88c1.49,0,2.48.5,2.48,1.94s-.99,2.04-2.43,2.04h-1.09v2.62h-.84v-6.6ZM132.15,380.98c1.16,0,1.71-.42,1.71-1.37s-.59-1.26-1.75-1.26h-.95v2.63h.98Z"/><path class="cls-16" d="M135.8,382.49v-3.1h.82v3c0,.91.27,1.3.92,1.3.5,0,.86-.24,1.32-.83v-3.47h.82v4.89h-.68l-.06-.77h-.03c-.46.53-.95.88-1.62.88-1.03,0-1.49-.67-1.49-1.91Z"/><path class="cls-16" d="M141.23,379.39h.68l.07.89h.03c.34-.62.84-1.02,1.39-1.02.22,0,.37.03.52.11l-.15.72c-.16-.06-.28-.08-.48-.08-.41,0-.91.29-1.23,1.13v3.14h-.82v-4.89Z"/><path class="cls-16" d="M144.27,381.84c0-1.63,1.11-2.57,2.36-2.57.64,0,1.08.27,1.43.58l-.42.55c-.29-.26-.58-.44-.98-.44-.88,0-1.53.77-1.53,1.89s.61,1.87,1.51,1.87c.45,0,.85-.21,1.15-.49l.35.55c-.43.4-.99.62-1.58.62-1.3,0-2.3-.94-2.3-2.56Z"/><path class="cls-16" d="M149.12,377.11h.82v1.96l-.03,1.01c.45-.45.96-.82,1.62-.82,1.03,0,1.49.67,1.49,1.92v3.1h-.82v-2.99c0-.92-.28-1.31-.93-1.31-.5,0-.85.25-1.34.75v3.55h-.82v-7.17Z"/><path class="cls-16" d="M154.19,383.01c0-1.06.93-1.59,3.01-1.83,0-.63-.21-1.23-1.01-1.23-.57,0-1.08.26-1.47.52l-.32-.57c.45-.29,1.14-.64,1.93-.64,1.19,0,1.69.8,1.69,2.01v3.01h-.68l-.07-.59h-.03c-.47.39-1.02.7-1.62.7-.82,0-1.43-.5-1.43-1.39ZM157.2,383.09v-1.37c-1.65.2-2.21.6-2.21,1.23,0,.56.38.78.86.78s.86-.22,1.34-.65Z"/><path class="cls-16" d="M158.94,383.72l.41-.54c.42.34.86.58,1.45.58.65,0,.96-.34.96-.77,0-.5-.58-.72-1.12-.93-.68-.25-1.46-.59-1.46-1.41,0-.77.62-1.39,1.68-1.39.6,0,1.13.25,1.52.55l-.4.53c-.34-.25-.68-.43-1.12-.43-.61,0-.89.32-.89.7,0,.47.53.64,1.08.85.71.27,1.5.56,1.5,1.49,0,.79-.63,1.45-1.78,1.45-.69,0-1.36-.29-1.83-.68Z"/><path class="cls-16" d="M163.45,377.85c0-.33.24-.53.57-.53s.57.2.57.53c0,.31-.24.53-.57.53s-.57-.23-.57-.53ZM163.61,379.39h.82v4.89h-.82v-4.89Z"/><path class="cls-16" d="M165.99,379.39h.68l.07.7h.03c.47-.46.97-.83,1.64-.83,1.03,0,1.49.67,1.49,1.92v3.1h-.82v-2.99c0-.92-.28-1.31-.93-1.31-.5,0-.85.25-1.34.75v3.55h-.82v-4.89Z"/><path class="cls-16" d="M171.02,385.21c0-.41.27-.81.73-1.11v-.04c-.26-.15-.45-.41-.45-.8s.3-.73.55-.91v-.04c-.32-.26-.64-.73-.64-1.31,0-1.07.85-1.75,1.84-1.75.27,0,.51.06.68.13h1.7v.63h-1c.23.23.4.59.4,1.01,0,1.04-.79,1.7-1.78,1.7-.24,0-.51-.06-.73-.17-.18.15-.31.31-.31.59,0,.31.2.53.86.53h.95c1.13,0,1.7.36,1.7,1.16,0,.91-.95,1.69-2.47,1.69-1.2,0-2.03-.47-2.03-1.31ZM174.72,384.96c0-.45-.35-.6-1-.6h-.85c-.18,0-.41-.03-.63-.08-.35.25-.5.54-.5.83,0,.52.53.86,1.42.86.94,0,1.56-.5,1.56-1.01ZM174.08,381.01c0-.71-.46-1.14-1.04-1.14s-1.04.42-1.04,1.14.48,1.16,1.04,1.16,1.04-.45,1.04-1.16Z"/><path class="cls-16" d="M125.22,393.01c0-1.06.93-1.59,3.01-1.83,0-.63-.21-1.23-1.01-1.23-.57,0-1.08.26-1.47.52l-.32-.57c.45-.29,1.14-.64,1.93-.64,1.19,0,1.69.8,1.69,2.01v3.01h-.68l-.07-.59h-.03c-.47.39-1.02.7-1.62.7-.82,0-1.43-.5-1.43-1.39ZM128.23,393.09v-1.37c-1.65.2-2.21.6-2.21,1.23,0,.56.38.78.86.78s.86-.22,1.34-.65Z"/><path class="cls-16" d="M130.51,389.39h.68l.07.7h.03c.47-.46.97-.83,1.64-.83,1.03,0,1.49.67,1.49,1.92v3.1h-.82v-2.99c0-.92-.28-1.31-.93-1.31-.5,0-.85.25-1.34.75v3.55h-.82v-4.89Z"/><path class="cls-16" d="M135.57,391.84c0-1.58,1-2.57,2.12-2.57.58,0,.95.22,1.38.58l-.04-.85v-1.88h.82v7.17h-.67l-.08-.58h-.02c-.39.38-.9.69-1.49.69-1.22,0-2.02-.93-2.02-2.56ZM139.02,393.04v-2.57c-.41-.37-.78-.51-1.19-.51-.79,0-1.41.76-1.41,1.87,0,1.18.49,1.88,1.35,1.88.45,0,.85-.23,1.25-.68Z"/><path class="cls-16" d="M143.41,387.68h1.01l1.27,3.53c.15.46.31.92.47,1.38h.04c.15-.46.3-.92.45-1.38l1.26-3.53h1.01v6.6h-.78v-3.66c0-.57.06-1.37.11-1.94h-.04l-.52,1.5-1.25,3.43h-.56l-1.25-3.43-.52-1.5h-.04c.04.58.1,1.38.1,1.94v3.66h-.76v-6.6Z"/><path class="cls-16" d="M150.25,393.01c0-1.06.93-1.59,3.01-1.83,0-.63-.21-1.23-1.01-1.23-.57,0-1.08.26-1.47.52l-.32-.57c.45-.29,1.14-.64,1.93-.64,1.19,0,1.69.8,1.69,2.01v3.01h-.68l-.07-.59h-.03c-.47.39-1.02.7-1.62.7-.82,0-1.43-.5-1.43-1.39ZM153.26,393.09v-1.37c-1.65.2-2.21.6-2.21,1.23,0,.56.38.78.86.78s.86-.22,1.34-.65Z"/><path class="cls-16" d="M155.69,392.77v-2.71h-.73v-.62l.76-.04.1-1.37h.68v1.37h1.32v.67h-1.32v2.73c0,.6.19.95.76.95.17,0,.4-.06.56-.13l.16.61c-.28.09-.6.18-.9.18-1.04,0-1.4-.65-1.4-1.63Z"/><path class="cls-16" d="M158.48,391.84c0-1.58,1.07-2.57,2.21-2.57,1.24,0,1.94.9,1.94,2.3,0,.18-.02.35-.04.47h-3.29c.05,1.04.69,1.71,1.62,1.71.48,0,.86-.14,1.22-.39l.3.54c-.43.28-.95.5-1.62.5-1.3,0-2.34-.95-2.34-2.56ZM161.91,391.44c0-.99-.45-1.52-1.21-1.52-.69,0-1.31.56-1.4,1.52h2.62Z"/><path class="cls-16" d="M163.74,389.39h.68l.07.89h.03c.34-.62.84-1.02,1.39-1.02.22,0,.37.03.52.11l-.15.72c-.16-.06-.28-.08-.48-.08-.41,0-.91.29-1.23,1.13v3.14h-.82v-4.89Z"/><path class="cls-16" d="M166.99,387.85c0-.33.24-.53.57-.53s.57.2.57.53c0,.31-.24.53-.57.53s-.57-.23-.57-.53ZM167.14,389.39h.82v4.89h-.82v-4.89Z"/><path class="cls-16" d="M169.22,393.01c0-1.06.93-1.59,3.01-1.83,0-.63-.21-1.23-1.01-1.23-.57,0-1.08.26-1.47.52l-.32-.57c.45-.29,1.14-.64,1.93-.64,1.19,0,1.69.8,1.69,2.01v3.01h-.68l-.07-.59h-.03c-.47.39-1.02.7-1.62.7-.82,0-1.43-.5-1.43-1.39ZM172.23,393.09v-1.37c-1.65.2-2.21.6-2.21,1.23,0,.56.38.78.86.78s.86-.22,1.34-.65Z"/><path class="cls-16" d="M174.51,393.31v-6.19h.82v6.25c0,.25.11.35.23.35.04,0,.08,0,.17-.02l.12.63c-.12.05-.26.07-.48.07-.61,0-.86-.4-.86-1.09Z"/><path class="cls-16" d="M176.44,393.72l.41-.54c.42.34.86.58,1.45.58.65,0,.96-.34.96-.77,0-.5-.58-.72-1.12-.93-.68-.25-1.46-.59-1.46-1.41,0-.77.62-1.39,1.68-1.39.6,0,1.13.25,1.52.55l-.4.53c-.34-.25-.68-.43-1.12-.43-.61,0-.89.32-.89.7,0,.47.53.64,1.08.85.71.27,1.5.56,1.5,1.49,0,.79-.63,1.45-1.78,1.45-.69,0-1.36-.29-1.83-.68Z"/><path class="cls-16" d="M129.34,397.68h1.66c2.03,0,3.12,1.18,3.12,3.28s-1.09,3.32-3.08,3.32h-1.69v-6.6ZM130.93,403.59c1.56,0,2.32-.97,2.32-2.64s-.77-2.6-2.32-2.6h-.75v5.24h.75Z"/><path class="cls-16" d="M135,401.84c0-1.58,1.07-2.57,2.21-2.57,1.24,0,1.94.9,1.94,2.3,0,.18-.02.35-.04.47h-3.29c.05,1.04.69,1.71,1.62,1.71.48,0,.86-.14,1.22-.39l.3.54c-.43.28-.95.5-1.62.5-1.3,0-2.34-.95-2.34-2.56ZM138.42,401.44c0-.99-.45-1.52-1.21-1.52-.69,0-1.31.56-1.4,1.52h2.62Z"/><path class="cls-16" d="M140.26,399.39h.68l.07.56h.03c.44-.36.99-.68,1.56-.68,1.26,0,1.94.99,1.94,2.49,0,1.67-1,2.64-2.12,2.64-.44,0-.91-.21-1.35-.57l.02.86v1.66h-.82v-6.95ZM143.68,401.77c0-1.08-.36-1.81-1.29-1.81-.41,0-.84.23-1.31.68v2.57c.44.38.87.51,1.2.51.81,0,1.4-.73,1.4-1.94Z"/><path class="cls-16" d="M145.45,403.01c0-1.06.93-1.59,3.01-1.83,0-.63-.21-1.23-1.01-1.23-.57,0-1.08.26-1.47.52l-.32-.57c.45-.29,1.14-.64,1.93-.64,1.19,0,1.69.8,1.69,2.01v3.01h-.68l-.07-.59h-.03c-.47.39-1.02.7-1.62.7-.82,0-1.43-.5-1.43-1.39ZM148.45,403.09v-1.37c-1.65.2-2.21.6-2.21,1.23,0,.56.38.78.86.78s.86-.22,1.34-.65Z"/><path class="cls-16" d="M150.74,399.39h.68l.07.89h.03c.34-.62.84-1.02,1.39-1.02.22,0,.37.03.52.11l-.15.72c-.16-.06-.28-.08-.48-.08-.41,0-.91.29-1.23,1.13v3.14h-.82v-4.89Z"/><path class="cls-16" d="M154.28,402.77v-2.71h-.73v-.62l.77-.04.1-1.37h.68v1.37h1.32v.67h-1.32v2.73c0,.6.19.95.76.95.17,0,.4-.06.56-.13l.16.61c-.28.09-.6.18-.9.18-1.04,0-1.4-.65-1.4-1.63Z"/><path class="cls-16" d="M157.44,399.39h.68l.07.71h.03c.42-.47.94-.84,1.52-.84.75,0,1.15.36,1.35.94.5-.55,1.02-.94,1.61-.94,1.01,0,1.49.67,1.49,1.92v3.1h-.82v-2.99c0-.92-.29-1.31-.91-1.31-.38,0-.77.24-1.23.75v3.55h-.82v-2.99c0-.92-.29-1.31-.91-1.31-.37,0-.78.24-1.23.75v3.55h-.82v-4.89Z"/><path class="cls-16" d="M165.32,401.84c0-1.58,1.07-2.57,2.21-2.57,1.24,0,1.94.9,1.94,2.3,0,.18-.02.35-.04.47h-3.29c.05,1.04.69,1.71,1.62,1.71.48,0,.86-.14,1.22-.39l.3.54c-.43.28-.95.5-1.62.5-1.3,0-2.34-.95-2.34-2.56ZM168.75,401.44c0-.99-.45-1.52-1.22-1.52-.69,0-1.31.56-1.4,1.52h2.62Z"/><path class="cls-16" d="M170.58,399.39h.68l.07.7h.03c.47-.46.97-.83,1.64-.83,1.03,0,1.49.67,1.49,1.92v3.1h-.82v-2.99c0-.92-.28-1.31-.93-1.31-.5,0-.85.25-1.34.75v3.55h-.82v-4.89Z"/><path class="cls-16" d="M176.14,402.77v-2.71h-.73v-.62l.76-.04.1-1.37h.68v1.37h1.32v.67h-1.32v2.73c0,.6.19.95.76.95.17,0,.4-.06.56-.13l.16.61c-.28.09-.6.18-.9.18-1.04,0-1.4-.65-1.4-1.63Z"/></g></svg>