<?xml version="1.0" encoding="UTF-8"?><svg id="_レイヤー_2" xmlns="http://www.w3.org/2000/svg" viewBox="0 0 997.08 217.22"><defs><style>.cls-1{fill:none;stroke:#fff;stroke-miterlimit:10;stroke-width:1.79px;}.cls-2{fill:#fff;}.cls-2,.cls-3{stroke-width:0px;}.cls-3{fill:#0017af;}</style></defs><g id="_レイヤー_1-2"><circle class="cls-2" cx="61.95" cy="65.33" r="61.95"/><circle class="cls-2" cx="437.25" cy="61.95" r="61.95"/><path class="cls-3" d="M119.7,122.41h-9.55v20.83h-14.86v-20.83h-34.17v-10.85l29.94-48.6h19.09v47.29h9.55v12.15ZM95.29,110.26v-16.38c0-4.66.43-11.93.65-16.6h-.43c-1.95,4.23-4.12,8.68-6.4,13.02l-12.47,19.96h18.66Z"/><path class="cls-3" d="M126.32,134.02c21.8-19.53,34.71-34.6,34.71-46.97,0-8.14-4.45-13.02-12.04-13.02-5.86,0-10.74,3.8-14.75,8.24l-8.68-8.68c7.38-7.81,14.54-12.15,25.49-12.15,15.19,0,25.27,9.76,25.27,24.73s-12.04,30.16-26.68,44.47c4.01-.43,9.33-.87,13.02-.87h17.46v13.45h-53.8v-9.22Z"/><path class="cls-3" d="M70.7,169.99h7.26v1.96h-4.91v3.07h4.19v1.98h-4.19v4.78h-2.36v-11.79Z"/><path class="cls-3" d="M79.67,172.86h1.91l.16,1.58h.06c.65-1.16,1.61-1.8,2.53-1.8.49,0,.78.08,1.05.19l-.41,2.02c-.3-.1-.56-.14-.92-.14-.7,0-1.55.46-2.06,1.75v5.32h-2.33v-8.92Z"/><path class="cls-3" d="M85.9,177.34c0-2.98,2.05-4.7,4.29-4.7s4.29,1.72,4.29,4.7-2.05,4.67-4.29,4.67-4.29-1.72-4.29-4.67ZM92.08,177.34c0-1.69-.68-2.79-1.9-2.79s-1.9,1.1-1.9,2.79.68,2.76,1.9,2.76,1.9-1.08,1.9-2.76Z"/><path class="cls-3" d="M96.27,172.86h1.91l.16,1.19h.06c.75-.78,1.58-1.42,2.74-1.42,1.27,0,2.02.57,2.45,1.56.81-.86,1.67-1.56,2.84-1.56,1.9,0,2.77,1.34,2.77,3.58v5.56h-2.34v-5.27c0-1.37-.4-1.86-1.24-1.86-.51,0-1.08.33-1.72,1v6.13h-2.34v-5.27c0-1.37-.4-1.86-1.24-1.86-.51,0-1.08.33-1.72,1v6.13h-2.33v-8.92Z"/><path class="cls-3" d="M120.64,178.75h-3.82l-.83,3.03h-2.39l3.78-11.79h2.77l3.79,11.79h-2.47l-.83-3.03ZM120.13,176.92l-.35-1.29c-.37-1.23-.68-2.58-1.04-3.86h-.06c-.3,1.29-.65,2.63-1,3.86l-.35,1.29h2.8Z"/><path class="cls-3" d="M124.98,172.86h1.91l.16.92h.06c.75-.64,1.67-1.15,2.63-1.15,2.2,0,3.5,1.8,3.5,4.54,0,3.06-1.83,4.83-3.79,4.83-.78,0-1.53-.35-2.21-.97l.06,1.47v2.71h-2.33v-12.35ZM130.84,177.21c0-1.7-.54-2.64-1.77-2.64-.61,0-1.15.3-1.77.92v3.92c.57.49,1.15.67,1.62.67,1.08,0,1.91-.92,1.91-2.87Z"/><path class="cls-3" d="M135.08,172.86h1.91l.16,1.58h.06c.65-1.16,1.61-1.8,2.53-1.8.49,0,.78.08,1.05.19l-.41,2.02c-.3-.1-.56-.14-.92-.14-.7,0-1.55.46-2.06,1.75v5.32h-2.33v-8.92Z"/><path class="cls-3" d="M141.64,170.15c0-.76.59-1.27,1.4-1.27s1.39.51,1.39,1.27-.59,1.27-1.39,1.27-1.4-.54-1.4-1.27ZM141.86,172.86h2.33v8.92h-2.33v-8.92Z"/><path class="cls-3" d="M146.55,179.28v-10.21h2.33v10.32c0,.53.25.7.48.7.1,0,.16,0,.32-.03l.29,1.74c-.27.11-.67.21-1.21.21-1.62,0-2.2-1.07-2.2-2.72Z"/><path class="cls-3" d="M154.91,179.88h2.53v-7.46h-2.13v-1.45c1.18-.22,1.99-.53,2.74-.99h1.74v9.89h2.21v1.9h-7.09v-1.9Z"/><path class="cls-3" d="M164.88,179.26c.43.46,1.16.83,1.86.83,1.32,0,2.42-1,2.52-3.97-.61.8-1.61,1.29-2.42,1.29-1.96,0-3.38-1.21-3.38-3.71s1.69-3.93,3.71-3.93c2.23,0,4.24,1.75,4.24,5.85,0,4.46-2.18,6.39-4.52,6.39-1.47,0-2.53-.62-3.23-1.34l1.23-1.4ZM169.23,174.49c-.21-2.15-1.02-2.95-2.02-2.95-.88,0-1.59.72-1.59,2.17s.65,2.04,1.67,2.04c.64,0,1.37-.35,1.94-1.26Z"/><path class="cls-3" d="M174.1,179.26c.43.46,1.16.83,1.86.83,1.32,0,2.42-1,2.52-3.97-.61.8-1.61,1.29-2.42,1.29-1.96,0-3.38-1.21-3.38-3.71s1.69-3.93,3.71-3.93c2.23,0,4.24,1.75,4.24,5.85,0,4.46-2.18,6.39-4.52,6.39-1.47,0-2.53-.62-3.23-1.34l1.23-1.4ZM178.45,174.49c-.21-2.15-1.02-2.95-2.02-2.95-.88,0-1.59.72-1.59,2.17s.65,2.04,1.67,2.04c.64,0,1.37-.35,1.94-1.26Z"/><path class="cls-3" d="M182.58,179.88h2.53v-7.46h-2.13v-1.45c1.18-.22,1.99-.53,2.74-.99h1.74v9.89h2.21v1.9h-7.09v-1.9Z"/><path class="cls-3" d="M35.56,23.63h9.08v2.46h-6.12v3.42h5.2v2.48h-5.2v3.96h6.34v2.48h-9.3v-14.8Z"/><path class="cls-3" d="M46.36,37.14l1.34-1.84c1,.78,1.96,1.22,3,1.22,1.12,0,1.62-.48,1.62-1.18,0-.84-1.16-1.22-2.34-1.68-1.42-.54-3.06-1.4-3.06-3.26,0-2.02,1.64-3.44,4.16-3.44,1.64,0,2.88.68,3.82,1.38l-1.32,1.78c-.8-.56-1.58-.96-2.42-.96-1,0-1.48.44-1.48,1.08,0,.82,1.1,1.12,2.28,1.56,1.48.56,3.12,1.3,3.12,3.38,0,1.96-1.54,3.54-4.46,3.54-1.5,0-3.16-.66-4.26-1.58Z"/><path class="cls-3" d="M57.54,34.52v-4.96h-1.58v-2.18l1.72-.14.34-3h2.46v3h2.76v2.32h-2.76v4.96c0,1.28.52,1.88,1.52,1.88.36,0,.8-.12,1.1-.24l.48,2.14c-.6.2-1.38.42-2.36.42-2.66,0-3.68-1.68-3.68-4.2Z"/><path class="cls-3" d="M64.77,35.4c0-2.4,1.94-3.66,6.44-4.14-.04-1.1-.52-1.94-1.9-1.94-1.04,0-2.04.46-3.08,1.06l-1.06-1.94c1.32-.82,2.92-1.48,4.68-1.48,2.84,0,4.3,1.7,4.3,4.94v6.54h-2.4l-.22-1.2h-.06c-.98.84-2.1,1.48-3.38,1.48-2,0-3.32-1.42-3.32-3.32ZM71.21,35.32v-2.26c-2.72.36-3.64,1.1-3.64,2.1,0,.88.62,1.26,1.48,1.26s1.46-.4,2.16-1.1Z"/><path class="cls-3" d="M79.57,37.26h-.06l-.26,1.18h-2.3v-15.96h2.92v4.02l-.06,1.8c.88-.8,2-1.34,3.1-1.34,2.76,0,4.42,2.26,4.42,5.68,0,3.86-2.3,6.08-4.76,6.08-1,0-2.08-.52-3-1.46ZM84.31,32.7c0-2.14-.68-3.32-2.22-3.32-.76,0-1.44.38-2.22,1.16v4.92c.7.62,1.44.84,2.04.84,1.36,0,2.4-1.16,2.4-3.6Z"/><path class="cls-3" d="M89.62,35.3v-12.82h2.92v12.96c0,.66.32.88.6.88.12,0,.2,0,.4-.04l.36,2.18c-.34.14-.84.26-1.52.26-2.04,0-2.76-1.34-2.76-3.42Z"/><path class="cls-3" d="M95.44,23.83c0-.96.74-1.6,1.76-1.6s1.74.64,1.74,1.6-.74,1.6-1.74,1.6-1.76-.68-1.76-1.6ZM95.72,27.23h2.92v11.2h-2.92v-11.2Z"/><path class="cls-3" d="M100.54,37.14l1.34-1.84c1,.78,1.96,1.22,3,1.22,1.12,0,1.62-.48,1.62-1.18,0-.84-1.16-1.22-2.34-1.68-1.42-.54-3.06-1.4-3.06-3.26,0-2.02,1.64-3.44,4.16-3.44,1.64,0,2.88.68,3.82,1.38l-1.32,1.78c-.8-.56-1.58-.96-2.42-.96-1,0-1.48.44-1.48,1.08,0,.82,1.1,1.12,2.28,1.56,1.48.56,3.12,1.3,3.12,3.38,0,1.96-1.54,3.54-4.46,3.54-1.5,0-3.16-.66-4.26-1.58Z"/><path class="cls-3" d="M111.3,22.47h2.92v4.02l-.12,2.1c.9-.84,2-1.64,3.52-1.64,2.42,0,3.46,1.68,3.46,4.5v6.98h-2.94v-6.62c0-1.72-.48-2.34-1.58-2.34-.92,0-1.5.44-2.34,1.26v7.7h-2.92v-15.96Z"/><path class="cls-3" d="M123.2,32.85c0-3.64,2.54-5.9,5.22-5.9,3.08,0,4.68,2.26,4.68,5.36,0,.54-.06,1.08-.14,1.34h-6.9c.24,1.84,1.44,2.8,3.1,2.8.92,0,1.72-.28,2.52-.78l1,1.8c-1.1.76-2.52,1.24-3.92,1.24-3.12,0-5.56-2.18-5.56-5.86ZM130.59,31.71c0-1.52-.68-2.48-2.12-2.48-1.18,0-2.22.84-2.44,2.48h4.56Z"/><path class="cls-3" d="M134.68,32.85c0-3.66,2.28-5.9,4.7-5.9,1.26,0,2.04.48,2.84,1.22l-.12-1.76v-3.94h2.94v15.96h-2.38l-.24-1.16h-.06c-.82.8-1.94,1.44-3.1,1.44-2.78,0-4.58-2.2-4.58-5.86ZM142.1,35.14v-4.92c-.68-.62-1.38-.84-2.08-.84-1.26,0-2.32,1.2-2.32,3.44s.84,3.48,2.32,3.48c.78,0,1.44-.32,2.08-1.16Z"/><path class="cls-3" d="M158.32,24.75c-.38-.14-.82-.24-1.18-.24-.88,0-1.36.52-1.36,1.76v.96h2.1v2.32h-2.1v8.88h-2.94v-8.88h-1.5v-2.18l1.5-.12v-.92c0-2.34,1.08-4.14,3.9-4.14.86,0,1.62.2,2.12.4l-.54,2.16Z"/><path class="cls-3" d="M158.88,32.85c0-3.74,2.58-5.9,5.38-5.9s5.38,2.16,5.38,5.9-2.58,5.86-5.38,5.86-5.38-2.16-5.38-5.86ZM166.64,32.85c0-2.12-.86-3.5-2.38-3.5s-2.38,1.38-2.38,3.5.86,3.46,2.38,3.46,2.38-1.36,2.38-3.46Z"/><path class="cls-3" d="M171.9,27.23h2.4l.2,1.98h.08c.82-1.46,2.02-2.26,3.18-2.26.62,0,.98.1,1.32.24l-.52,2.54c-.38-.12-.7-.18-1.16-.18-.88,0-1.94.58-2.58,2.2v6.68h-2.92v-11.2Z"/><path class="cls-3" d="M189.08,145.42l1.15-4.8c.42.13,1.1.3,1.66.3,2.42,0,3.78-1.53,4.46-3.61l.42-1.4-9.26-23.36h6.29l3.78,11.04c.72,2.12,1.32,4.42,2,6.71h.21c.55-2.21,1.15-4.5,1.7-6.71l3.27-11.04h5.99l-8.45,24.51c-2.08,5.61-4.63,8.84-9.94,8.84-1.4,0-2.34-.17-3.27-.47Z"/><path class="cls-3" d="M212.74,124.48c0-7.73,5.39-12.53,11.09-12.53,6.54,0,9.94,4.8,9.94,11.38,0,1.15-.13,2.29-.3,2.85h-14.66c.51,3.91,3.06,5.95,6.58,5.95,1.95,0,3.65-.59,5.35-1.66l2.12,3.82c-2.34,1.61-5.35,2.63-8.33,2.63-6.63,0-11.81-4.63-11.81-12.45ZM228.41,122.06c0-3.23-1.45-5.27-4.5-5.27-2.51,0-4.71,1.78-5.18,5.27h9.69Z"/><path class="cls-3" d="M237.29,129.88c0-5.1,4.12-7.77,13.68-8.79-.08-2.34-1.1-4.12-4.04-4.12-2.21,0-4.33.98-6.54,2.25l-2.25-4.12c2.8-1.74,6.2-3.14,9.94-3.14,6.03,0,9.13,3.61,9.13,10.49v13.89h-5.1l-.47-2.55h-.13c-2.08,1.78-4.46,3.14-7.18,3.14-4.25,0-7.05-3.02-7.05-7.05ZM250.97,129.71v-4.8c-5.78.76-7.73,2.34-7.73,4.46,0,1.87,1.32,2.68,3.14,2.68s3.1-.85,4.59-2.34Z"/><path class="cls-3" d="M263.16,112.55h5.1l.42,4.21h.17c1.74-3.1,4.29-4.8,6.75-4.8,1.32,0,2.08.21,2.8.51l-1.1,5.4c-.81-.25-1.49-.38-2.46-.38-1.87,0-4.12,1.23-5.48,4.67v14.19h-6.2v-23.79Z"/><path class="cls-3" d="M279.01,133.57l2.85-3.91c2.12,1.66,4.16,2.59,6.37,2.59,2.38,0,3.44-1.02,3.44-2.51,0-1.78-2.46-2.59-4.97-3.57-3.02-1.15-6.5-2.97-6.5-6.92,0-4.29,3.48-7.31,8.84-7.31,3.48,0,6.12,1.44,8.11,2.93l-2.8,3.78c-1.7-1.19-3.36-2.04-5.14-2.04-2.12,0-3.14.93-3.14,2.29,0,1.74,2.34,2.38,4.84,3.31,3.14,1.19,6.63,2.76,6.63,7.18,0,4.16-3.27,7.52-9.47,7.52-3.19,0-6.71-1.4-9.05-3.36Z"/><circle class="cls-2" cx="835.4" cy="68.33" r="61.95"/><path class="cls-3" d="M410.55,175.38h-3.82l-.83,3.03h-2.39l3.78-11.79h2.77l3.79,11.79h-2.47l-.83-3.03ZM410.04,173.54l-.35-1.29c-.37-1.23-.68-2.58-1.04-3.86h-.06c-.3,1.29-.65,2.63-1,3.86l-.35,1.29h2.8Z"/><path class="cls-3" d="M413.84,169.48h2.36l1.31,4.44c.22.88.48,1.8.72,2.71h.08c.22-.91.48-1.83.72-2.71l1.31-4.44h2.25l-2.98,8.92h-2.71l-3.04-8.92Z"/><path class="cls-3" d="M423.34,173.96c0-2.9,2.02-4.7,4.16-4.7,2.45,0,3.73,1.8,3.73,4.27,0,.43-.05.86-.11,1.07h-5.5c.19,1.47,1.15,2.23,2.47,2.23.73,0,1.37-.22,2.01-.62l.8,1.43c-.88.61-2.01.99-3.12.99-2.49,0-4.43-1.74-4.43-4.67ZM429.22,173.05c0-1.21-.54-1.98-1.69-1.98-.94,0-1.77.67-1.94,1.98h3.63Z"/><path class="cls-3" d="M432.99,169.48h1.91l.16,1.58h.06c.65-1.16,1.61-1.8,2.53-1.8.49,0,.78.08,1.05.19l-.41,2.02c-.3-.1-.56-.14-.92-.14-.7,0-1.55.46-2.06,1.75v5.32h-2.33v-8.92Z"/><path class="cls-3" d="M439.33,175.98c0-1.91,1.54-2.92,5.13-3.3-.03-.88-.42-1.55-1.51-1.55-.83,0-1.62.37-2.45.84l-.84-1.55c1.05-.65,2.33-1.18,3.73-1.18,2.26,0,3.43,1.35,3.43,3.93v5.21h-1.91l-.17-.96h-.05c-.78.67-1.67,1.18-2.69,1.18-1.59,0-2.64-1.13-2.64-2.64ZM444.46,175.92v-1.8c-2.17.29-2.9.88-2.9,1.67,0,.7.49,1,1.18,1s1.16-.32,1.72-.88Z"/><path class="cls-3" d="M448.44,179.98c0-.75.46-1.39,1.27-1.85v-.08c-.46-.3-.81-.76-.81-1.5,0-.67.46-1.29.99-1.67v-.06c-.61-.45-1.18-1.29-1.18-2.33,0-2.1,1.71-3.23,3.6-3.23.49,0,.97.1,1.34.22h3.22v1.72h-1.53c.24.3.42.8.42,1.35,0,2.01-1.53,3.03-3.44,3.03-.35,0-.76-.08-1.15-.21-.25.21-.38.41-.38.76,0,.48.35.73,1.4.73h1.51c2.15,0,3.31.67,3.31,2.23,0,1.8-1.86,3.17-4.84,3.17-2.1,0-3.73-.72-3.73-2.29ZM454.78,179.5c0-.64-.53-.8-1.48-.8h-1.08c-.54,0-.92-.05-1.24-.13-.4.32-.59.67-.59,1.04,0,.75.83,1.18,2.13,1.18s2.26-.59,2.26-1.29ZM453.7,172.49c0-1.05-.59-1.64-1.39-1.64s-1.4.59-1.4,1.64.62,1.64,1.4,1.64,1.39-.59,1.39-1.64Z"/><path class="cls-3" d="M457.83,173.96c0-2.9,2.02-4.7,4.16-4.7,2.45,0,3.73,1.8,3.73,4.27,0,.43-.05.86-.11,1.07h-5.5c.19,1.47,1.15,2.23,2.47,2.23.73,0,1.37-.22,2.01-.62l.8,1.43c-.88.61-2.01.99-3.12.99-2.49,0-4.43-1.74-4.43-4.67ZM463.71,173.05c0-1.21-.54-1.98-1.69-1.98-.94,0-1.77.67-1.94,1.98h3.63Z"/><path class="cls-3" d="M470.94,169.48h1.91l.16.92h.06c.75-.64,1.67-1.15,2.63-1.15,2.2,0,3.5,1.8,3.5,4.54,0,3.06-1.83,4.83-3.79,4.83-.78,0-1.53-.35-2.21-.97l.06,1.47v2.71h-2.33v-12.35ZM476.8,173.83c0-1.7-.54-2.64-1.77-2.64-.61,0-1.15.3-1.77.92v3.92c.57.49,1.15.67,1.62.67,1.08,0,1.91-.92,1.91-2.87Z"/><path class="cls-3" d="M480.59,175.98c0-1.91,1.54-2.92,5.13-3.3-.03-.88-.42-1.55-1.51-1.55-.83,0-1.62.37-2.45.84l-.84-1.55c1.05-.65,2.33-1.18,3.73-1.18,2.26,0,3.43,1.35,3.43,3.93v5.21h-1.91l-.17-.96h-.05c-.78.67-1.67,1.18-2.69,1.18-1.59,0-2.64-1.13-2.64-2.64ZM485.72,175.92v-1.8c-2.17.29-2.9.88-2.9,1.67,0,.7.49,1,1.18,1s1.16-.32,1.72-.88Z"/><path class="cls-3" d="M490.07,166.77c0-.76.59-1.27,1.4-1.27s1.39.51,1.39,1.27-.59,1.27-1.39,1.27-1.4-.54-1.4-1.27ZM490.3,169.48h2.33v8.92h-2.33v-8.92Z"/><path class="cls-3" d="M494.47,173.96c0-2.92,1.82-4.7,3.74-4.7,1,0,1.62.38,2.26.97l-.1-1.4v-3.14h2.34v12.71h-1.9l-.19-.92h-.05c-.65.64-1.55,1.15-2.47,1.15-2.21,0-3.65-1.75-3.65-4.67ZM500.38,175.77v-3.92c-.54-.49-1.1-.67-1.66-.67-1,0-1.85.96-1.85,2.74s.67,2.77,1.85,2.77c.62,0,1.15-.25,1.66-.92Z"/><path class="cls-3" d="M508.54,175.9v-10.21h2.33v10.32c0,.53.25.7.48.7.1,0,.16,0,.32-.03l.29,1.74c-.27.11-.67.21-1.21.21-1.62,0-2.2-1.07-2.2-2.72Z"/><path class="cls-3" d="M512.84,173.96c0-2.9,2.02-4.7,4.16-4.7,2.45,0,3.73,1.8,3.73,4.27,0,.43-.05.86-.11,1.07h-5.5c.19,1.47,1.15,2.23,2.47,2.23.73,0,1.37-.22,2.01-.62l.8,1.43c-.88.61-2.01.99-3.12.99-2.49,0-4.43-1.74-4.43-4.67ZM518.71,173.05c0-1.21-.54-1.98-1.69-1.98-.94,0-1.77.67-1.94,1.98h3.63Z"/><path class="cls-3" d="M522.04,175.98c0-1.91,1.54-2.92,5.13-3.3-.03-.88-.42-1.55-1.51-1.55-.83,0-1.62.37-2.45.84l-.84-1.55c1.05-.65,2.33-1.18,3.73-1.18,2.26,0,3.43,1.35,3.43,3.93v5.21h-1.91l-.17-.96h-.05c-.78.67-1.67,1.18-2.69,1.18-1.59,0-2.64-1.13-2.64-2.64ZM527.17,175.92v-1.8c-2.17.29-2.9.88-2.9,1.67,0,.7.49,1,1.18,1s1.16-.32,1.72-.88Z"/><path class="cls-3" d="M530.71,169.48h2.36l1.31,4.44c.22.88.48,1.8.72,2.71h.08c.22-.91.48-1.83.72-2.71l1.31-4.44h2.25l-2.98,8.92h-2.71l-3.04-8.92Z"/><path class="cls-3" d="M540.21,173.96c0-2.9,2.02-4.7,4.16-4.7,2.45,0,3.73,1.8,3.73,4.27,0,.43-.05.86-.11,1.07h-5.5c.19,1.47,1.15,2.23,2.47,2.23.73,0,1.37-.22,2.01-.62l.8,1.43c-.88.61-2.01.99-3.12.99-2.49,0-4.43-1.74-4.43-4.67ZM546.08,173.05c0-1.21-.54-1.98-1.69-1.98-.94,0-1.77.67-1.94,1.98h3.63Z"/><path class="cls-3" d="M553.19,171.06c0-.88.62-1.53,1.45-1.53s1.46.65,1.46,1.53-.62,1.51-1.46,1.51-1.45-.65-1.45-1.51ZM553.19,177.1c0-.86.62-1.53,1.45-1.53s1.46.67,1.46,1.53-.62,1.53-1.46,1.53-1.45-.67-1.45-1.53Z"/><path class="cls-3" d="M558.38,176.51h2.53v-7.46h-2.13v-1.45c1.18-.22,1.99-.53,2.74-.99h1.74v9.89h2.21v1.9h-7.09v-1.9Z"/><path class="cls-3" d="M566.98,177.05c3.2-2.87,5.1-5.08,5.1-6.9,0-1.19-.65-1.91-1.77-1.91-.86,0-1.58.56-2.17,1.21l-1.27-1.27c1.08-1.15,2.13-1.78,3.74-1.78,2.23,0,3.71,1.43,3.71,3.63s-1.77,4.43-3.92,6.53c.59-.06,1.37-.13,1.91-.13h2.56v1.98h-7.9v-1.35Z"/><path class="cls-3" d="M576.65,177.1c0-.86.62-1.53,1.45-1.53s1.46.67,1.46,1.53-.62,1.53-1.46,1.53-1.45-.67-1.45-1.53Z"/><path class="cls-3" d="M581.85,176.51h2.53v-7.46h-2.13v-1.45c1.18-.22,1.99-.53,2.74-.99h1.74v9.89h2.21v1.9h-7.09v-1.9Z"/><path class="cls-3" d="M590.18,177.02l1.08-1.5c.67.65,1.5,1.19,2.6,1.19,1.23,0,2.09-.78,2.09-2.17s-.8-2.13-1.99-2.13c-.7,0-1.08.18-1.77.62l-1.07-.7.32-5.72h6.31v1.96h-4.29l-.22,2.5c.46-.22.88-.33,1.42-.33,1.98,0,3.63,1.18,3.63,3.74s-1.94,4.14-4.13,4.14c-1.86,0-3.11-.73-3.98-1.61Z"/><path class="cls-3" d="M603.19,173.96c0-2.92,1.82-4.7,3.74-4.7,1,0,1.62.38,2.26.97l-.09-1.4v-3.14h2.34v12.71h-1.9l-.19-.92h-.05c-.65.64-1.55,1.15-2.47,1.15-2.21,0-3.65-1.75-3.65-4.67ZM609.1,175.77v-3.92c-.54-.49-1.1-.67-1.66-.67-1,0-1.85.96-1.85,2.74s.67,2.77,1.85,2.77c.62,0,1.15-.25,1.66-.92Z"/><path class="cls-3" d="M613.36,175.98c0-1.91,1.54-2.92,5.13-3.3-.03-.88-.42-1.55-1.51-1.55-.83,0-1.62.37-2.45.84l-.84-1.55c1.05-.65,2.33-1.18,3.73-1.18,2.26,0,3.42,1.35,3.42,3.93v5.21h-1.91l-.17-.96h-.05c-.78.67-1.67,1.18-2.69,1.18-1.59,0-2.64-1.13-2.64-2.64ZM618.49,175.92v-1.8c-2.17.29-2.9.88-2.9,1.67,0,.7.49,1,1.18,1s1.16-.32,1.72-.88Z"/><path class="cls-3" d="M622.61,181.81l.43-1.8c.16.05.41.11.62.11.91,0,1.42-.57,1.67-1.35l.16-.53-3.47-8.76h2.36l1.42,4.14c.27.8.49,1.66.75,2.52h.08c.21-.83.43-1.69.64-2.52l1.23-4.14h2.25l-3.17,9.19c-.78,2.1-1.74,3.31-3.73,3.31-.53,0-.88-.06-1.23-.18Z"/><path class="cls-3" d="M631.2,177.37l1.07-1.47c.8.62,1.56.97,2.39.97.89,0,1.29-.38,1.29-.94,0-.67-.92-.97-1.86-1.34-1.13-.43-2.44-1.11-2.44-2.6,0-1.61,1.31-2.74,3.31-2.74,1.31,0,2.29.54,3.04,1.1l-1.05,1.42c-.64-.45-1.26-.76-1.93-.76-.8,0-1.18.35-1.18.86,0,.65.88.89,1.82,1.24,1.18.45,2.48,1.04,2.48,2.69,0,1.56-1.23,2.82-3.55,2.82-1.2,0-2.52-.53-3.39-1.26Z"/><path class="cls-3" d="M897.15,79.31h-36.12v-13.34h53.37v9.65c-18.66,22.78-21.15,39.16-22.45,70.62h-16.16c1.41-27.88,6.07-45.67,21.37-66.93Z"/><path class="cls-3" d="M921.24,136.8l7.38-10.2c4.56,4.45,10.2,8.14,17.68,8.14,8.35,0,14.21-5.32,14.21-14.75s-5.42-14.54-13.56-14.54c-4.77,0-7.38,1.19-12.04,4.23l-7.27-4.77,2.17-38.94h42.96v13.34h-29.18l-1.52,17.03c3.15-1.52,5.97-2.28,9.65-2.28,13.45,0,24.73,8.03,24.73,25.49s-13.23,28.2-28.09,28.2c-12.69,0-21.15-4.99-27.12-10.96Z"/><path class="cls-3" d="M845.32,181.75h-3.82l-.83,3.03h-2.39l3.78-11.79h2.77l3.79,11.79h-2.47l-.83-3.03ZM844.81,179.92l-.35-1.29c-.37-1.23-.68-2.58-1.04-3.86h-.06c-.3,1.29-.65,2.63-1,3.86l-.35,1.29h2.8Z"/><path class="cls-3" d="M848.81,183.74l1.07-1.47c.8.62,1.56.97,2.39.97.89,0,1.29-.38,1.29-.94,0-.67-.92-.97-1.86-1.34-1.13-.43-2.44-1.11-2.44-2.6,0-1.61,1.31-2.74,3.31-2.74,1.31,0,2.29.54,3.04,1.1l-1.05,1.42c-.64-.45-1.26-.76-1.93-.76-.8,0-1.18.35-1.18.86,0,.65.88.89,1.82,1.24,1.18.45,2.48,1.04,2.48,2.69,0,1.56-1.23,2.82-3.55,2.82-1.2,0-2.52-.53-3.39-1.26Z"/><path class="cls-3" d="M860.28,180.33c0-2.98,2.05-4.7,4.29-4.7s4.29,1.72,4.29,4.7-2.05,4.67-4.29,4.67-4.29-1.72-4.29-4.67ZM866.46,180.33c0-1.69-.68-2.79-1.9-2.79s-1.9,1.1-1.9,2.79.68,2.76,1.9,2.76,1.9-1.08,1.9-2.76Z"/><path class="cls-3" d="M875.41,173.88c-.3-.11-.65-.19-.94-.19-.7,0-1.08.41-1.08,1.4v.76h1.67v1.85h-1.67v7.07h-2.34v-7.07h-1.2v-1.74l1.2-.1v-.73c0-1.86.86-3.3,3.11-3.3.69,0,1.29.16,1.69.32l-.43,1.72Z"/><path class="cls-3" d="M880.06,172.99h3.23c3.6,0,5.83,1.86,5.83,5.85s-2.23,5.94-5.7,5.94h-3.36v-11.79ZM883.16,182.88c2.2,0,3.57-1.18,3.57-4.05s-1.37-3.97-3.57-3.97h-.73v8.01h.73Z"/><path class="cls-3" d="M890.53,180.33c0-2.9,2.02-4.7,4.16-4.7,2.45,0,3.73,1.8,3.73,4.27,0,.43-.05.86-.11,1.07h-5.5c.19,1.47,1.15,2.23,2.47,2.23.73,0,1.37-.22,2.01-.62l.8,1.43c-.88.61-2.01.99-3.12.99-2.49,0-4.43-1.74-4.43-4.67ZM896.41,179.43c0-1.21-.54-1.98-1.69-1.98-.94,0-1.77.67-1.94,1.98h3.63Z"/><path class="cls-3" d="M899.63,180.33c0-2.98,2.13-4.7,4.56-4.7,1.1,0,1.94.43,2.6.99l-1.12,1.51c-.45-.38-.86-.59-1.37-.59-1.35,0-2.28,1.1-2.28,2.79s.92,2.76,2.21,2.76c.64,0,1.24-.3,1.74-.72l.92,1.55c-.84.75-1.93,1.08-2.92,1.08-2.47,0-4.35-1.72-4.35-4.67Z"/><path class="cls-3" d="M907.86,180.33c0-2.9,2.02-4.7,4.16-4.7,2.45,0,3.73,1.8,3.73,4.27,0,.43-.05.86-.11,1.07h-5.5c.19,1.47,1.15,2.23,2.47,2.23.73,0,1.37-.22,2.01-.62l.8,1.43c-.88.61-2.01.99-3.12.99-2.49,0-4.43-1.74-4.43-4.67ZM913.74,179.43c0-1.21-.54-1.98-1.69-1.98-.94,0-1.77.67-1.94,1.98h3.63Z"/><path class="cls-3" d="M917.52,175.86h1.91l.16,1.19h.06c.75-.78,1.58-1.42,2.74-1.42,1.27,0,2.02.57,2.45,1.56.81-.86,1.67-1.56,2.84-1.56,1.9,0,2.77,1.34,2.77,3.58v5.56h-2.34v-5.27c0-1.37-.4-1.86-1.24-1.86-.51,0-1.08.33-1.72,1v6.13h-2.34v-5.27c0-1.37-.4-1.86-1.24-1.86-.51,0-1.08.33-1.72,1v6.13h-2.33v-8.92Z"/><path class="cls-3" d="M934.8,183.84h-.05l-.21.94h-1.83v-12.71h2.33v3.2l-.05,1.43c.7-.64,1.59-1.07,2.47-1.07,2.2,0,3.52,1.8,3.52,4.52,0,3.07-1.83,4.84-3.79,4.84-.8,0-1.66-.41-2.39-1.16ZM938.58,180.21c0-1.7-.54-2.64-1.77-2.64-.61,0-1.15.3-1.77.92v3.92c.56.49,1.15.67,1.62.67,1.08,0,1.91-.92,1.91-2.87Z"/><path class="cls-3" d="M942.26,180.33c0-2.9,2.02-4.7,4.16-4.7,2.45,0,3.73,1.8,3.73,4.27,0,.43-.05.86-.11,1.07h-5.5c.19,1.47,1.15,2.23,2.47,2.23.73,0,1.37-.22,2.01-.62l.8,1.43c-.88.61-2.01.99-3.12.99-2.49,0-4.43-1.74-4.43-4.67ZM948.14,179.43c0-1.21-.54-1.98-1.69-1.98-.94,0-1.77.67-1.94,1.98h3.63Z"/><path class="cls-3" d="M951.91,175.86h1.91l.16,1.58h.06c.65-1.16,1.61-1.8,2.53-1.8.49,0,.78.08,1.05.19l-.41,2.02c-.3-.1-.56-.14-.92-.14-.7,0-1.55.46-2.06,1.75v5.32h-2.33v-8.92Z"/><path class="cls-3" d="M961.58,183.42c3.2-2.87,5.1-5.08,5.1-6.9,0-1.19-.65-1.91-1.77-1.91-.86,0-1.58.56-2.17,1.21l-1.27-1.27c1.08-1.15,2.13-1.78,3.74-1.78,2.23,0,3.71,1.43,3.71,3.63s-1.77,4.43-3.92,6.53c.59-.06,1.37-.13,1.91-.13h2.56v1.98h-7.9v-1.35Z"/><path class="cls-3" d="M970.82,178.84c0-4.08,1.59-6.07,4-6.07s3.98,2.01,3.98,6.07-1.59,6.17-3.98,6.17-4-2.1-4-6.17ZM976.59,178.84c0-3.3-.76-4.25-1.77-4.25s-1.78.96-1.78,4.25.76,4.33,1.78,4.33,1.77-1.02,1.77-4.33Z"/><path class="cls-3" d="M980.03,183.42c3.2-2.87,5.1-5.08,5.1-6.9,0-1.19-.65-1.91-1.77-1.91-.86,0-1.58.56-2.17,1.21l-1.27-1.27c1.08-1.15,2.13-1.78,3.74-1.78,2.23,0,3.71,1.43,3.71,3.63s-1.77,4.43-3.92,6.53c.59-.06,1.37-.13,1.91-.13h2.56v1.98h-7.9v-1.35Z"/><path class="cls-3" d="M988.98,183.36l1.1-1.48c.7.69,1.56,1.21,2.63,1.21,1.2,0,2.01-.59,2.01-1.64,0-1.16-.69-1.88-3.25-1.88v-1.69c2.17,0,2.87-.75,2.87-1.8,0-.92-.57-1.47-1.58-1.48-.84.02-1.53.41-2.23,1.05l-1.19-1.43c1.02-.89,2.15-1.45,3.54-1.45,2.28,0,3.82,1.11,3.82,3.14,0,1.27-.72,2.2-1.97,2.69v.08c1.34.37,2.36,1.35,2.36,2.9,0,2.17-1.9,3.43-4.14,3.43-1.86,0-3.12-.7-3.95-1.64Z"/><path class="cls-3" d="M816.77,23.63h9.08v2.46h-6.12v3.42h5.2v2.48h-5.2v3.96h6.34v2.48h-9.3v-14.8Z"/><path class="cls-3" d="M828.63,27.23h2.4l.2,1.5h.08c.94-.98,1.98-1.78,3.44-1.78,1.6,0,2.54.72,3.08,1.96,1.02-1.08,2.1-1.96,3.56-1.96,2.38,0,3.48,1.68,3.48,4.5v6.98h-2.94v-6.62c0-1.72-.5-2.34-1.56-2.34-.64,0-1.36.42-2.16,1.26v7.7h-2.94v-6.62c0-1.72-.5-2.34-1.56-2.34-.64,0-1.36.42-2.16,1.26v7.7h-2.92v-11.2Z"/><path class="cls-3" d="M847.71,27.23h2.4l.2,1.16h.08c.94-.8,2.1-1.44,3.3-1.44,2.76,0,4.4,2.26,4.4,5.7,0,3.84-2.3,6.06-4.76,6.06-.98,0-1.92-.44-2.78-1.22l.08,1.84v3.4h-2.92v-15.5ZM855.08,32.69c0-2.14-.68-3.32-2.22-3.32-.76,0-1.44.38-2.22,1.16v4.92c.72.62,1.44.84,2.04.84,1.36,0,2.4-1.16,2.4-3.6Z"/><path class="cls-3" d="M860.39,35.3v-12.82h2.92v12.96c0,.66.32.88.6.88.12,0,.2,0,.4-.04l.36,2.18c-.34.14-.84.26-1.52.26-2.04,0-2.76-1.34-2.76-3.42Z"/><path class="cls-3" d="M865.79,32.85c0-3.74,2.58-5.9,5.38-5.9s5.38,2.16,5.38,5.9-2.58,5.86-5.38,5.86-5.38-2.16-5.38-5.86ZM873.55,32.85c0-2.12-.86-3.5-2.38-3.5s-2.38,1.38-2.38,3.5.86,3.46,2.38,3.46,2.38-1.36,2.38-3.46Z"/><path class="cls-3" d="M878.25,42.72l.54-2.26c.2.06.52.14.78.14,1.14,0,1.78-.72,2.1-1.7l.2-.66-4.36-11h2.96l1.78,5.2c.34,1,.62,2.08.94,3.16h.1c.26-1.04.54-2.12.8-3.16l1.54-5.2h2.82l-3.98,11.54c-.98,2.64-2.18,4.16-4.68,4.16-.66,0-1.1-.08-1.54-.22Z"/><path class="cls-3" d="M889.39,32.85c0-3.64,2.54-5.9,5.22-5.9,3.08,0,4.68,2.26,4.68,5.36,0,.54-.06,1.08-.14,1.34h-6.9c.24,1.84,1.44,2.8,3.1,2.8.92,0,1.72-.28,2.52-.78l1,1.8c-1.1.76-2.52,1.24-3.92,1.24-3.12,0-5.56-2.18-5.56-5.86ZM896.77,31.71c0-1.52-.68-2.48-2.12-2.48-1.18,0-2.22.84-2.44,2.48h4.56Z"/><path class="cls-3" d="M900.81,32.85c0-3.64,2.54-5.9,5.22-5.9,3.08,0,4.68,2.26,4.68,5.36,0,.54-.06,1.08-.14,1.34h-6.9c.24,1.84,1.44,2.8,3.1,2.8.92,0,1.72-.28,2.52-.78l1,1.8c-1.1.76-2.52,1.24-3.92,1.24-3.12,0-5.56-2.18-5.56-5.86ZM908.19,31.71c0-1.52-.68-2.48-2.12-2.48-1.18,0-2.22.84-2.44,2.48h4.56Z"/><path class="cls-3" d="M911.87,37.14l1.34-1.84c1,.78,1.96,1.22,3,1.22,1.12,0,1.62-.48,1.62-1.18,0-.84-1.16-1.22-2.34-1.68-1.42-.54-3.06-1.4-3.06-3.26,0-2.02,1.64-3.44,4.16-3.44,1.64,0,2.88.68,3.82,1.38l-1.32,1.78c-.8-.56-1.58-.96-2.42-.96-1,0-1.48.44-1.48,1.08,0,.82,1.1,1.12,2.28,1.56,1.48.56,3.12,1.3,3.12,3.38,0,1.96-1.54,3.54-4.46,3.54-1.5,0-3.16-.66-4.26-1.58Z"/><path class="cls-3" d="M505.15,73.82h-36.12s0-13.33,0-13.33l53.37-.02v9.65c-18.65,22.79-21.14,39.17-22.43,70.62h-16.16c1.4-27.87,6.06-45.66,21.35-66.93Z"/><path class="cls-3" d="M529.25,131.31l7.37-10.2c4.56,4.45,10.2,8.13,17.68,8.13,8.35,0,14.21-5.32,14.21-14.76,0-9.33-5.43-14.53-13.56-14.53-4.77,0-7.38,1.2-12.04,4.23l-7.27-4.77,2.16-38.94h42.96s0,13.33,0,13.33h-29.18s-1.51,17.04-1.51,17.04c3.15-1.52,5.96-2.28,9.65-2.28,13.45,0,24.74,8.02,24.74,25.48,0,17.9-13.23,28.21-28.09,28.21-12.69,0-21.16-4.98-27.12-10.95Z"/><path class="cls-3" d="M422.06,23.7h4.86c3.28,0,5.8,1.14,5.8,4.64,0,3.38-2.54,4.9-5.72,4.9h-1.98s0,5.26,0,5.26h-2.96s0-14.8,0-14.8ZM426.8,30.9c2.04,0,3.02-.86,3.02-2.56,0-1.72-1.08-2.3-3.12-2.3h-1.68s0,4.86,0,4.86h1.78Z"/><path class="cls-3" d="M434.4,35.46c0-2.4,1.94-3.66,6.44-4.14-.04-1.1-.52-1.94-1.9-1.94-1.04,0-2.04.46-3.08,1.06l-1.06-1.94c1.32-.82,2.92-1.48,4.68-1.48,2.84,0,4.3,1.7,4.3,4.94v6.54s-2.4,0-2.4,0l-.22-1.2h-.06c-.98.84-2.1,1.48-3.38,1.48-2,0-3.32-1.42-3.32-3.32ZM440.84,35.38v-2.26c-2.72.36-3.64,1.1-3.64,2.1,0,.88.62,1.26,1.48,1.26.84,0,1.46-.4,2.16-1.1Z"/><path class="cls-3" d="M446.3,23.9c0-.96.74-1.6,1.76-1.6,1,0,1.74.64,1.74,1.6s-.74,1.6-1.74,1.6c-1.02,0-1.76-.68-1.76-1.6ZM446.58,27.3h2.92s0,11.2,0,11.2h-2.92s0-11.2,0-11.2Z"/><path class="cls-3" d="M451.82,32.92c0-3.66,2.28-5.9,4.7-5.9,1.26,0,2.04.48,2.84,1.22l-.12-1.76v-3.94s2.94,0,2.94,0v15.96s-2.38,0-2.38,0l-.24-1.16h-.06c-.82.8-1.94,1.44-3.1,1.44-2.78,0-4.58-2.2-4.58-5.86ZM459.24,35.2v-4.92c-.68-.62-1.38-.84-2.08-.84-1.26,0-2.32,1.2-2.32,3.44,0,2.32.84,3.48,2.32,3.48.78,0,1.44-.32,2.08-1.16Z"/><path class="cls-3" d="M469.72,23.69h2.96s0,12.32,0,12.32h6s0,2.48,0,2.48h-8.96s0-14.8,0-14.8Z"/><path class="cls-3" d="M480.12,32.91c0-3.64,2.54-5.9,5.22-5.9,3.08,0,4.68,2.26,4.68,5.36,0,.54-.06,1.08-.14,1.34h-6.9c.24,1.84,1.44,2.8,3.1,2.8.92,0,1.72-.28,2.52-.78l1,1.8c-1.1.76-2.52,1.24-3.92,1.24-3.12,0-5.56-2.18-5.56-5.86ZM487.5,31.77c0-1.52-.68-2.48-2.12-2.48-1.18,0-2.22.84-2.44,2.48h4.56Z"/><path class="cls-3" d="M491.68,35.45c0-2.4,1.94-3.66,6.44-4.14-.04-1.1-.52-1.94-1.9-1.94-1.04,0-2.04.46-3.08,1.06l-1.06-1.94c1.32-.82,2.92-1.48,4.68-1.48,2.84,0,4.3,1.7,4.3,4.94v6.54s-2.4,0-2.4,0l-.22-1.2h-.06c-.98.84-2.1,1.48-3.38,1.48-2,0-3.32-1.42-3.32-3.32ZM498.12,35.36v-2.26c-2.72.36-3.64,1.1-3.64,2.1,0,.88.62,1.26,1.48,1.26.84,0,1.46-.4,2.16-1.1Z"/><path class="cls-3" d="M502.56,27.28h2.96s1.64,5.58,1.64,5.58c.28,1.1.6,2.26.9,3.4h.1c.28-1.14.6-2.3.9-3.4l1.64-5.58h2.82s-3.74,11.2-3.74,11.2h-3.4s-3.82-11.2-3.82-11.2Z"/><path class="cls-3" d="M514.48,32.9c0-3.64,2.54-5.9,5.22-5.9,3.08,0,4.68,2.26,4.68,5.36,0,.54-.06,1.08-.14,1.34h-6.9c.24,1.84,1.44,2.8,3.1,2.8.92,0,1.72-.28,2.52-.78l1,1.8c-1.1.76-2.52,1.24-3.92,1.24-3.12,0-5.56-2.18-5.56-5.86ZM521.86,31.75c0-1.52-.68-2.48-2.12-2.48-1.18,0-2.22.84-2.44,2.48h4.56Z"/><path class="cls-3" d="M538.12,34.67h-4.8s-1.04,3.8-1.04,3.8h-3s4.74-14.8,4.74-14.8h3.48s4.77,14.8,4.77,14.8h-3.1s-1.04-3.8-1.04-3.8ZM537.48,32.37l-.44-1.62c-.46-1.54-.86-3.24-1.3-4.84h-.08c-.38,1.62-.82,3.3-1.26,4.84l-.44,1.62h3.52Z"/><path class="cls-3" d="M542.86,32.89c0-3.74,2.68-5.9,5.72-5.9,1.38,0,2.44.54,3.26,1.24l-1.4,1.9c-.56-.48-1.08-.74-1.72-.74-1.7,0-2.86,1.38-2.86,3.5,0,2.1,1.16,3.46,2.78,3.46.8,0,1.56-.38,2.18-.9l1.16,1.94c-1.06.94-2.42,1.36-3.66,1.36-3.1,0-5.46-2.16-5.46-5.86Z"/><path class="cls-3" d="M560.68,39.2l.12-1.8c-.76.78-1.86,1.34-2.96,1.34-2.78,0-4.58-2.2-4.58-5.86,0-3.66,2.28-5.9,4.7-5.9,1.24,0,2.14.44,3.04,1.38h.08l.24-1.1h2.3s0,15.5,0,15.5h-2.94s0-3.56,0-3.56ZM560.68,35.16v-4.92c-.68-.62-1.38-.84-2.08-.84-1.26,0-2.32,1.2-2.32,3.44,0,2.32.84,3.48,2.32,3.48.78,0,1.44-.32,2.08-1.16Z"/><path class="cls-3" d="M566.46,34.26v-7s2.94,0,2.94,0v6.62c0,1.74.48,2.34,1.56,2.34.92,0,1.52-.4,2.28-1.4v-7.56s2.94,0,2.94,0v11.2s-2.4,0-2.4,0l-.22-1.6h-.08c-.96,1.14-2.04,1.88-3.58,1.88-2.4,0-3.44-1.68-3.44-4.48Z"/><path class="cls-3" d="M578.84,23.85c0-.96.74-1.6,1.76-1.6,1,0,1.74.64,1.74,1.6s-.74,1.6-1.74,1.6c-1.02,0-1.76-.68-1.76-1.6ZM579.12,27.26h2.92s0,11.2,0,11.2h-2.92s0-11.2,0-11.2Z"/><path class="cls-3" d="M583.94,37.16l1.34-1.84c1,.78,1.96,1.22,3,1.22,1.12,0,1.62-.48,1.62-1.18,0-.84-1.16-1.22-2.34-1.68-1.42-.54-3.06-1.4-3.06-3.26,0-2.02,1.64-3.44,4.16-3.44,1.64,0,2.88.68,3.82,1.38l-1.32,1.78c-.8-.56-1.58-.96-2.42-.96-1,0-1.48.44-1.48,1.08,0,.82,1.1,1.12,2.28,1.56,1.48.56,3.12,1.3,3.12,3.38,0,1.96-1.54,3.54-4.46,3.54-1.5,0-3.16-.66-4.26-1.58Z"/><path class="cls-3" d="M594.42,23.85c0-.96.74-1.6,1.76-1.6,1,0,1.74.64,1.74,1.6s-.74,1.6-1.74,1.6c-1.02,0-1.76-.68-1.76-1.6ZM594.7,27.25h2.92s0,11.2,0,11.2h-2.92s0-11.2,0-11.2Z"/><path class="cls-3" d="M601,34.53v-4.96s-1.58,0-1.58,0v-2.18s1.72-.14,1.72-.14l.34-3h2.46s0,3,0,3h2.76s0,2.32,0,2.32h-2.76s0,4.96,0,4.96c0,1.28.52,1.88,1.52,1.88.36,0,.8-.12,1.1-.24l.48,2.14c-.6.2-1.38.42-2.36.42-2.66,0-3.68-1.68-3.68-4.2Z"/><path class="cls-3" d="M608.5,23.85c0-.96.74-1.6,1.76-1.6,1,0,1.74.64,1.74,1.6s-.74,1.6-1.74,1.6c-1.02,0-1.76-.68-1.76-1.6ZM608.78,27.25h2.92s0,11.2,0,11.2h-2.92s0-11.2,0-11.2Z"/><path class="cls-3" d="M613.96,32.87c0-3.74,2.58-5.9,5.38-5.9,2.8,0,5.38,2.16,5.38,5.9,0,3.7-2.58,5.86-5.38,5.86-2.8,0-5.38-2.16-5.38-5.86ZM621.72,32.86c0-2.12-.86-3.5-2.38-3.5-1.52,0-2.38,1.38-2.38,3.5,0,2.1.86,3.46,2.38,3.46,1.52,0,2.38-1.36,2.38-3.46Z"/><path class="cls-3" d="M626.98,27.24h2.4s.2,1.48.2,1.48h.08c.98-.96,2.12-1.76,3.64-1.76,2.42,0,3.46,1.68,3.46,4.5v6.98s-2.94,0-2.94,0v-6.62c0-1.72-.48-2.34-1.58-2.34-.92,0-1.5.44-2.34,1.26v7.7s-2.92,0-2.92,0v-11.2Z"/><path class="cls-3" d="M652.25,38.43l-3.04-5.6h-2.06s0,5.6,0,5.6h-2.96s0-14.8,0-14.8h5.16c3.1,0,5.56,1.08,5.56,4.48,0,2.22-1.12,3.6-2.82,4.26l3.46,6.06h-3.3ZM647.14,30.49h1.92c1.9,0,2.94-.8,2.94-2.38,0-1.6-1.04-2.14-2.94-2.14h-1.92s0,4.52,0,4.52Z"/><path class="cls-3" d="M656.82,35.39c0-2.4,1.94-3.66,6.44-4.14-.04-1.1-.52-1.94-1.9-1.94-1.04,0-2.04.46-3.08,1.06l-1.06-1.94c1.32-.82,2.92-1.48,4.68-1.48,2.84,0,4.3,1.7,4.3,4.94v6.54s-2.4,0-2.4,0l-.22-1.2h-.06c-.98.84-2.1,1.48-3.38,1.48-2,0-3.32-1.42-3.32-3.32ZM663.26,35.31v-2.26c-2.72.36-3.64,1.1-3.64,2.1,0,.88.62,1.26,1.48,1.26.84,0,1.46-.4,2.16-1.1Z"/><path class="cls-3" d="M669.42,34.51v-4.96s-1.58,0-1.58,0v-2.18s1.72-.14,1.72-.14l.34-3h2.46s0,3,0,3h2.76s0,2.32,0,2.32h-2.76s0,4.96,0,4.96c0,1.28.52,1.88,1.52,1.88.36,0,.8-.12,1.1-.24l.48,2.14c-.6.2-1.38.42-2.36.42-2.66,0-3.68-1.68-3.68-4.2Z"/><path class="cls-3" d="M676.5,32.85c0-3.64,2.54-5.9,5.22-5.9,3.08,0,4.68,2.26,4.68,5.36,0,.54-.06,1.08-.14,1.34h-6.9c.24,1.84,1.44,2.8,3.1,2.8.92,0,1.72-.28,2.52-.78l1,1.8c-1.1.76-2.52,1.24-3.92,1.24-3.12,0-5.56-2.18-5.56-5.86ZM683.88,31.7c0-1.52-.68-2.48-2.12-2.48-1.18,0-2.22.84-2.44,2.48h4.56Z"/><path class="cls-3" d="M600.22,116.57c0-6.33,3.18-9.94,7.68-9.94,4.55,0,7.69,3.61,7.69,9.94s-3.14,10.07-7.69,10.07c-4.5,0-7.69-3.74-7.69-10.07ZM611.22,116.57c0-4.63-1.45-6.41-3.32-6.41-1.83,0-3.27,1.79-3.27,6.42,0,4.63,1.45,6.5,3.27,6.5,1.87,0,3.31-1.87,3.31-6.5ZM626.13,106.62h3.74s-17.19,32.71-17.19,32.71h-3.7s17.15-32.71,17.15-32.71ZM623.16,129.31c0-6.33,3.23-9.98,7.73-9.99,4.5,0,7.69,3.65,7.69,9.98,0,6.29-3.18,10.03-7.69,10.03-4.5,0-7.73-3.74-7.73-10.02ZM634.16,129.31c0-4.67-1.4-6.41-3.27-6.41-1.87,0-3.31,1.74-3.31,6.42,0,4.59,1.45,6.5,3.31,6.5,1.87,0,3.27-1.91,3.27-6.5Z"/><path class="cls-3" d="M588.82,91.85c0-2.29,1.66-4.08,3.87-4.08s3.91,1.78,3.91,4.08-1.66,4.08-3.91,4.08-3.87-1.78-3.87-4.08Z"/><path class="cls-3" d="M602.67,90.28h6.75v-19.88h-5.69v-3.87c3.14-.59,5.31-1.4,7.31-2.63h4.63v26.38h5.91v5.06h-18.9v-5.06Z"/><path class="cls-3" d="M624.89,91.64l2.89-3.99c1.78,1.74,3.99,3.19,6.92,3.19,3.27,0,5.56-2.08,5.56-5.78s-2.12-5.69-5.31-5.69c-1.87,0-2.89.47-4.71,1.66l-2.85-1.87.85-15.25h16.82v5.23h-11.43l-.59,6.67c1.23-.59,2.34-.89,3.78-.89,5.27,0,9.69,3.14,9.69,9.98s-5.18,11.04-11,11.04c-4.97,0-8.28-1.95-10.62-4.29Z"/><line class="cls-1" x1="338.26" y1="9.89" x2="338.26" y2="217.22"/><line class="cls-1" x1="742.57" y1="9.89" x2="742.57" y2="217.22"/></g></svg>