<?xml version="1.0" encoding="UTF-8"?><svg id="_レイヤー_2" xmlns="http://www.w3.org/2000/svg" viewBox="0 0 1126.55 265.73"><defs><style>.cls-1{fill:#f4f198;}.cls-1,.cls-2,.cls-3,.cls-4,.cls-5{stroke-linejoin:bevel;stroke-width:9.76px;}.cls-1,.cls-2,.cls-3,.cls-4,.cls-5,.cls-6,.cls-7,.cls-8{stroke:#fff;}.cls-2{fill:#d6d8d6;}.cls-3{fill:#c3ddc4;}.cls-4{fill:#aee6e8;}.cls-5{fill:#abe6a0;}.cls-9{fill:#dfdfdf;stroke-width:.25px;}.cls-9,.cls-6,.cls-7,.cls-8,.cls-10{stroke-miterlimit:10;}.cls-9,.cls-10{stroke:#000;}.cls-6{stroke-width:.85px;}.cls-6,.cls-11{fill:#67d271;}.cls-12,.cls-13,.cls-14,.cls-15,.cls-16,.cls-11{stroke-width:0px;}.cls-7{fill:#d9bfed;}.cls-7,.cls-8{stroke-width:.54px;}.cls-8{fill:#90b8eb;}.cls-13{fill:#407cd0;}.cls-14{fill:#fff;}.cls-15{fill:#efefef;}.cls-16{fill:#0017af;}.cls-10{fill:none;stroke-width:.49px;}</style></defs><g id="_レイヤー_1-2"><rect class="cls-14" x="1.08" y=".86" width="211.46" height="264" transform="translate(-1.09 .88) rotate(-.47)"/><rect class="cls-14" x="683.08" y=".86" width="219.46" height="264"/><rect class="cls-14" x="907.08" y=".86" width="219.46" height="264"/><path class="cls-14" d="M678.55,264.86V.86H217.55v264s460.95-.33,461,0Z"/><path class="cls-16" d="M52.7,41.3c0-4.39,2.84-6.97,6.39-6.97,1.93,0,3.26.83,4.12,1.71l-1.42,1.69c-.65-.63-1.41-1.12-2.61-1.12-2.21,0-3.76,1.73-3.76,4.59,0,2.9,1.33,4.64,3.95,4.64.65,0,1.3-.18,1.67-.5v-2.63s-2.36,0-2.36,0v-2.18s4.73,0,4.73,0v6.01c-.9.88-2.46,1.6-4.32,1.6-3.64,0-6.39-2.41-6.39-6.86Z"/><path class="cls-16" d="M65.25,42.88c0-3.28,2.29-5.31,4.7-5.31,2.77,0,4.21,2.03,4.22,4.82,0,.49-.05.97-.13,1.21h-6.21c.22,1.66,1.3,2.52,2.79,2.52.83,0,1.55-.25,2.27-.7l.9,1.62c-.99.68-2.27,1.12-3.53,1.12-2.81,0-5.01-1.96-5.01-5.27ZM71.89,41.85c0-1.37-.61-2.23-1.91-2.23-1.06,0-2,.76-2.2,2.23h4.11Z"/><path class="cls-16" d="M76.15,37.82h2.16s.18,1.33.18,1.33h.07c.88-.86,1.91-1.59,3.28-1.59,2.18,0,3.12,1.51,3.12,4.05v6.28s-2.64,0-2.64,0v-5.96c0-1.55-.43-2.11-1.42-2.11-.83,0-1.35.4-2.11,1.13v6.93s-2.62,0-2.62,0v-10.08Z"/><path class="cls-16" d="M86.94,42.87c0-3.29,2.05-5.31,4.23-5.31,1.13,0,1.84.43,2.56,1.1l-.11-1.58v-3.55s2.65,0,2.65,0v14.37s-2.14,0-2.14,0l-.22-1.04h-.05c-.74.72-1.75,1.3-2.79,1.3-2.5,0-4.12-1.98-4.12-5.27ZM93.62,44.92v-4.43c-.61-.56-1.24-.76-1.88-.76-1.13,0-2.09,1.08-2.09,3.1,0,2.09.76,3.13,2.09,3.13.7,0,1.3-.29,1.87-1.04Z"/><path class="cls-16" d="M98.3,42.87c0-3.28,2.29-5.31,4.7-5.31,2.77,0,4.21,2.03,4.22,4.82,0,.49-.05.97-.13,1.21h-6.21c.22,1.66,1.3,2.52,2.79,2.52.83,0,1.55-.25,2.27-.7l.9,1.62c-.99.68-2.27,1.12-3.53,1.12-2.81,0-5.01-1.96-5.01-5.27ZM104.94,41.84c0-1.37-.61-2.23-1.91-2.23-1.06,0-2,.76-2.2,2.23h4.11Z"/><path class="cls-16" d="M109.2,37.81h2.16s.18,1.78.18,1.78h.07c.74-1.31,1.82-2.03,2.86-2.04.56,0,.88.09,1.19.22l-.47,2.29c-.34-.11-.63-.16-1.04-.16-.79,0-1.75.52-2.32,1.98v6.01s-2.63,0-2.63,0v-10.08Z"/><path class="cls-16" d="M128.25,47.88l-2.74-5.04h-1.85s0,5.04,0,5.04h-2.67s0-13.32,0-13.32h4.65c2.79,0,5.01.97,5.01,4.03,0,2-1.01,3.24-2.54,3.84l3.12,5.45h-2.97ZM123.66,40.74h1.73c1.71,0,2.65-.72,2.65-2.14,0-1.44-.94-1.93-2.65-1.93h-1.73s0,4.07,0,4.07Z"/><path class="cls-16" d="M132.37,45.14c0-2.16,1.75-3.3,5.8-3.73-.04-.99-.47-1.75-1.71-1.75-.94,0-1.84.41-2.77.96l-.95-1.75c1.19-.74,2.63-1.33,4.21-1.33,2.56,0,3.87,1.53,3.87,4.45v5.89s-2.16,0-2.16,0l-.2-1.08h-.05c-.88.76-1.89,1.33-3.04,1.33-1.8,0-2.99-1.28-2.99-2.99ZM138.17,45.07v-2.03c-2.45.33-3.28.99-3.28,1.89,0,.79.56,1.13,1.33,1.13.76,0,1.31-.36,1.94-.99Z"/><path class="cls-16" d="M143.71,44.35v-4.47s-1.42,0-1.42,0v-1.96s1.55-.13,1.55-.13l.3-2.7h2.21s0,2.7,0,2.7h2.48s0,2.09,0,2.09h-2.48s0,4.47,0,4.47c0,1.15.47,1.69,1.37,1.69.32,0,.72-.11.99-.22l.43,1.93c-.54.18-1.24.38-2.12.38-2.39,0-3.31-1.51-3.31-3.78Z"/><path class="cls-16" d="M150.45,34.73c0-.86.67-1.44,1.58-1.44.9,0,1.57.58,1.57,1.44,0,.83-.67,1.44-1.57,1.44-.92,0-1.58-.61-1.59-1.44ZM150.71,37.79h2.63s0,10.08,0,10.08h-2.63s0-10.08,0-10.08Z"/><path class="cls-16" d="M155.37,42.85c0-3.37,2.32-5.31,4.84-5.31,2.52,0,4.84,1.94,4.85,5.31,0,3.33-2.32,5.28-4.84,5.28-2.52,0-4.84-1.94-4.85-5.27ZM162.36,42.85c0-1.91-.78-3.15-2.14-3.15-1.37,0-2.14,1.24-2.14,3.15,0,1.89.78,3.11,2.14,3.11,1.37,0,2.14-1.22,2.14-3.12Z"/><path class="cls-16" d="M918.54,33.09h2.42s3.44,6.3,3.44,6.3l1.18,2.56h.08c-.13-1.23-.3-2.8-.31-4.15v-4.72s2.24,0,2.24,0v11.84s-2.4,0-2.4,0l-3.43-6.34-1.2-2.54h-.08c.11,1.28.29,2.77.29,4.13v4.75s-2.24,0-2.24,0v-11.84Z"/><path class="cls-16" d="M930.08,41.57v-5.6s2.35,0,2.35,0v5.3c0,1.39.39,1.87,1.25,1.87.74,0,1.22-.32,1.83-1.12v-6.05s2.35,0,2.35,0v8.96s-1.92,0-1.92,0l-.18-1.28h-.06c-.77.91-1.63,1.51-2.86,1.51-1.92,0-2.75-1.34-2.75-3.58Z"/><path class="cls-16" d="M940.2,35.97h1.92s.16,1.2.16,1.2h.06c.75-.78,1.58-1.43,2.75-1.43,1.28,0,2.03.58,2.47,1.57.82-.86,1.68-1.57,2.85-1.57,1.91,0,2.79,1.34,2.79,3.6v5.59s-2.35,0-2.35,0v-5.3c0-1.38-.4-1.87-1.25-1.87-.51,0-1.09.34-1.73,1.01v6.16s-2.35,0-2.35,0v-5.3c0-1.38-.4-1.87-1.25-1.87-.51,0-1.09.34-1.73,1.01v6.16s-2.33,0-2.33,0v-8.96Z"/><path class="cls-16" d="M957.57,43.98h-.05l-.21.94h-1.84s0-12.77,0-12.77h2.34s0,3.22,0,3.22l-.05,1.44c.7-.64,1.6-1.07,2.48-1.07,2.21,0,3.54,1.81,3.54,4.54,0,3.09-1.84,4.87-3.81,4.87-.8,0-1.67-.42-2.4-1.17ZM961.36,40.33c0-1.71-.55-2.66-1.78-2.66-.61,0-1.15.3-1.78.93v3.94c.56.5,1.15.67,1.63.67,1.09,0,1.92-.93,1.92-2.88Z"/><path class="cls-16" d="M965.05,40.46c0-2.91,2.03-4.72,4.18-4.72,2.46,0,3.75,1.81,3.75,4.29,0,.43-.05.86-.11,1.07h-5.52c.19,1.47,1.15,2.24,2.48,2.24.74,0,1.38-.22,2.02-.62l.8,1.44c-.88.61-2.02.99-3.14.99-2.5,0-4.45-1.74-4.45-4.69ZM970.96,39.54c0-1.22-.54-1.98-1.7-1.98-.94,0-1.78.67-1.95,1.99h3.65Z"/><path class="cls-16" d="M974.75,35.96h1.92s.16,1.58.16,1.58h.06c.66-1.17,1.62-1.81,2.54-1.81.5,0,.78.08,1.06.19l-.42,2.03c-.3-.1-.56-.14-.93-.14-.7,0-1.55.46-2.06,1.76v5.35s-2.33,0-2.33,0v-8.96Z"/><path class="cls-16" d="M984.47,40.45c0-2.99,2.06-4.72,4.3-4.72,2.24,0,4.31,1.73,4.31,4.72,0,2.96-2.06,4.69-4.3,4.69-2.24,0-4.31-1.73-4.31-4.69ZM990.69,40.45c0-1.7-.69-2.8-1.91-2.8-1.22,0-1.9,1.1-1.9,2.8,0,1.68.69,2.77,1.91,2.77,1.22,0,1.91-1.09,1.9-2.77Z"/><path class="cls-16" d="M999.67,33.96c-.3-.11-.66-.19-.94-.19-.71,0-1.09.42-1.09,1.41v.77s1.68,0,1.68,0v1.86h-1.68s0,7.11,0,7.11h-2.35s0-7.11,0-7.11h-1.2s0-1.74,0-1.74l1.2-.1v-.74c0-1.87.86-3.31,3.12-3.31.69,0,1.3.16,1.7.32l-.43,1.73Z"/><path class="cls-16" d="M1004.15,35.95h1.92s.16,1.18.16,1.18h.06c.78-.77,1.7-1.41,2.91-1.41,1.94,0,2.77,1.34,2.77,3.6v5.59s-2.35,0-2.35,0v-5.3c0-1.38-.39-1.87-1.27-1.87-.74,0-1.2.35-1.87,1.01v6.16s-2.33,0-2.33,0v-8.96Z"/><path class="cls-16" d="M1013.69,40.44c0-2.91,2.03-4.72,4.18-4.72,2.46,0,3.75,1.81,3.75,4.29,0,.43-.05.86-.11,1.07h-5.52c.19,1.47,1.15,2.24,2.48,2.24.74,0,1.38-.22,2.02-.62l.8,1.44c-.88.61-2.02.99-3.14.99-2.5,0-4.45-1.74-4.45-4.69ZM1019.6,39.53c0-1.22-.54-1.98-1.7-1.98-.94,0-1.78.67-1.95,1.99h3.65Z"/><path class="cls-16" d="M1022.55,35.94h2.35s.98,4.43.98,4.43c.18.86.29,1.73.45,2.61h.06c.18-.88.34-1.76.56-2.61l1.07-4.43h2.1s1.12,4.43,1.12,4.43c.21.86.37,1.73.56,2.61h.08c.16-.88.27-1.74.45-2.61l.98-4.43h2.18s-2.21,8.96-2.21,8.96h-2.77s-.95-3.9-.95-3.9c-.19-.85-.34-1.66-.51-2.61h-.08c-.17.94-.3,1.78-.5,2.61l-.91,3.91h-2.69s-2.32-8.96-2.32-8.96Z"/><path class="cls-16" d="M1040.5,32.13h2.34s0,3.22,0,3.22l-.09,1.68c.72-.67,1.6-1.31,2.82-1.31,1.94,0,2.77,1.34,2.77,3.6v5.59s-2.35,0-2.35,0v-5.3c0-1.38-.39-1.87-1.27-1.87-.74,0-1.2.35-1.87,1.01v6.16s-2.33,0-2.33,0v-12.77Z"/><path class="cls-16" d="M1050.36,33.21c0-.77.59-1.28,1.41-1.28.8,0,1.39.51,1.39,1.28,0,.74-.59,1.28-1.39,1.28-.82,0-1.41-.54-1.41-1.28ZM1050.58,35.93h2.34s0,8.96,0,8.96h-2.34s0-8.96,0-8.96Z"/><path class="cls-16" d="M1055.29,35.93h1.92s.16,1.58.16,1.58h.06c.66-1.17,1.62-1.81,2.54-1.81.5,0,.78.08,1.06.19l-.42,2.03c-.3-.1-.56-.14-.93-.14-.7,0-1.55.46-2.06,1.76v5.35s-2.33,0-2.33,0v-8.96Z"/><path class="cls-16" d="M1061.54,40.43c0-2.91,2.03-4.72,4.18-4.72,2.46,0,3.75,1.81,3.75,4.29,0,.43-.05.86-.11,1.07h-5.52c.19,1.47,1.15,2.24,2.48,2.24.74,0,1.38-.22,2.02-.62l.8,1.44c-.88.61-2.02.99-3.14.99-2.5,0-4.45-1.74-4.45-4.69ZM1067.45,39.51c0-1.22-.54-1.98-1.7-1.98-.94,0-1.78.67-1.95,1.99h3.65Z"/><path class="cls-16" d="M1070.39,43.85l1.07-1.47c.8.62,1.57.98,2.4.98.9,0,1.3-.38,1.3-.94,0-.67-.93-.98-1.87-1.34-1.14-.43-2.45-1.12-2.45-2.61,0-1.62,1.31-2.75,3.33-2.75,1.31,0,2.31.54,3.06,1.1l-1.06,1.43c-.64-.45-1.26-.77-1.94-.77-.8,0-1.18.35-1.18.86,0,.66.88.9,1.83,1.25,1.18.45,2.5,1.04,2.5,2.7,0,1.57-1.23,2.83-3.57,2.83-1.2,0-2.53-.53-3.41-1.26Z"/><path class="cls-16" d="M1082.03,42.45c0-1.92,1.55-2.93,5.15-3.31-.03-.88-.42-1.55-1.52-1.55-.83,0-1.63.37-2.47.85l-.85-1.55c1.06-.66,2.34-1.19,3.75-1.19,2.27,0,3.44,1.36,3.44,3.95v5.23s-1.92,0-1.92,0l-.18-.96h-.05c-.78.67-1.68,1.19-2.7,1.19-1.6,0-2.66-1.14-2.66-2.66ZM1087.18,42.39v-1.81c-2.18.29-2.91.88-2.91,1.68,0,.7.5,1.01,1.18,1.01.67,0,1.17-.32,1.73-.88Z"/><path class="cls-16" d="M1091.77,35.92h1.92s.16,1.18.16,1.18h.06c.78-.77,1.7-1.41,2.91-1.41,1.94,0,2.77,1.34,2.77,3.6v5.59s-2.35,0-2.35,0v-5.3c0-1.38-.39-1.87-1.27-1.87-.74,0-1.2.35-1.87,1.01v6.16s-2.33,0-2.33,0v-8.96Z"/><path class="cls-16" d="M1101.35,40.41c0-2.93,1.82-4.72,3.76-4.72,1.01,0,1.63.38,2.27.98l-.1-1.41v-3.15s2.35,0,2.35,0v12.77s-1.9,0-1.9,0l-.19-.93h-.05c-.66.64-1.55,1.15-2.48,1.15-2.22,0-3.67-1.76-3.67-4.69ZM1107.29,42.24v-3.94c-.55-.5-1.11-.67-1.67-.67-1.01,0-1.86.96-1.86,2.75,0,1.86.67,2.78,1.86,2.78.62,0,1.15-.26,1.66-.93Z"/><path class="cls-16" d="M952.88,63.85v-3.97s-1.27,0-1.27,0v-1.74l1.38-.11.27-2.4h1.97s0,2.4,0,2.4h2.21s0,1.86,0,1.86h-2.21s0,3.97,0,3.97c0,1.02.42,1.5,1.22,1.5.29,0,.64-.1.88-.19l.38,1.71c-.48.16-1.1.34-1.89.34-2.13,0-2.95-1.34-2.95-3.36Z"/><path class="cls-16" d="M959.1,54.21h2.34s0,3.22,0,3.22l-.1,1.68c.72-.67,1.6-1.31,2.82-1.31,1.94,0,2.77,1.34,2.77,3.6v5.59s-2.35,0-2.35,0v-5.3c0-1.38-.39-1.87-1.27-1.87-.74,0-1.2.35-1.87,1.01v6.16s-2.33,0-2.33,0v-12.77Z"/><path class="cls-16" d="M968.63,62.52c0-2.91,2.03-4.72,4.18-4.72,2.46,0,3.75,1.81,3.75,4.29,0,.43-.05.86-.11,1.07h-5.52c.19,1.47,1.15,2.24,2.48,2.24.74,0,1.38-.22,2.02-.62l.8,1.44c-.88.61-2.02.99-3.14.99-2.5,0-4.45-1.74-4.45-4.69ZM974.53,61.6c0-1.22-.54-1.98-1.7-1.98-.94,0-1.78.67-1.95,1.99h3.65Z"/><path class="cls-16" d="M978.1,55.29c0-.77.59-1.28,1.41-1.28.8,0,1.39.51,1.39,1.28s-.59,1.28-1.39,1.28c-.82,0-1.41-.54-1.41-1.28ZM978.32,58.02h2.34s0,8.96,0,8.96h-2.34s0-8.96,0-8.96Z"/><path class="cls-16" d="M983.03,58.01h1.92s.16,1.58.16,1.58h.06c.66-1.17,1.62-1.81,2.54-1.81.5,0,.78.08,1.06.19l-.42,2.03c-.3-.1-.56-.14-.93-.14-.7,0-1.55.46-2.06,1.76v5.35s-2.33,0-2.33,0v-8.96Z"/><path class="cls-16" d="M993.31,58.01h1.92s.16.93.16.93h.06c.75-.64,1.68-1.15,2.64-1.15,2.21,0,3.52,1.81,3.52,4.56,0,3.07-1.84,4.85-3.81,4.85-.79,0-1.54-.35-2.23-.98l.06,1.47v2.72s-2.34,0-2.34,0v-12.41ZM999.2,62.38c0-1.71-.55-2.66-1.78-2.66-.61,0-1.15.3-1.78.93v3.94c.58.5,1.15.67,1.63.67,1.09,0,1.92-.93,1.92-2.88Z"/><path class="cls-16" d="M1002.9,62.51c0-2.91,2.03-4.72,4.18-4.72,2.46,0,3.75,1.81,3.75,4.29,0,.43-.05.86-.11,1.07h-5.52c.19,1.47,1.15,2.24,2.48,2.24.74,0,1.38-.22,2.02-.62l.8,1.44c-.88.61-2.02.99-3.14.99-2.5,0-4.45-1.74-4.45-4.69ZM1008.8,61.59c0-1.22-.54-1.98-1.7-1.98-.94,0-1.78.67-1.95,1.99h3.65Z"/><path class="cls-16" d="M1012.59,58h1.92s.16,1.58.16,1.58h.06c.66-1.17,1.62-1.81,2.54-1.81.5,0,.78.08,1.06.19l-.42,2.03c-.3-.1-.56-.14-.93-.14-.7,0-1.55.46-2.06,1.76v5.35s-2.33,0-2.33,0v-8.96Z"/><path class="cls-16" d="M1018.85,62.5c0-2.99,2.14-4.72,4.58-4.72,1.1,0,1.95.43,2.61.99l-1.12,1.52c-.45-.38-.87-.59-1.38-.59-1.36,0-2.29,1.1-2.29,2.8,0,1.68.93,2.77,2.23,2.77.64,0,1.25-.3,1.75-.72l.93,1.55c-.85.75-1.94,1.09-2.93,1.09-2.48,0-4.37-1.73-4.37-4.69Z"/><path class="cls-16" d="M1027.12,62.5c0-2.91,2.03-4.72,4.18-4.72,2.46,0,3.75,1.81,3.75,4.29,0,.43-.05.86-.11,1.07h-5.52c.19,1.47,1.15,2.24,2.48,2.24.74,0,1.38-.22,2.02-.62l.8,1.44c-.88.61-2.02.99-3.14.99-2.5,0-4.45-1.74-4.45-4.69ZM1033.03,61.58c0-1.22-.54-1.98-1.7-1.98-.94,0-1.78.67-1.95,1.99h3.65Z"/><path class="cls-16" d="M1036.81,58h1.92s.16,1.18.16,1.18h.06c.78-.77,1.7-1.41,2.91-1.41,1.94,0,2.77,1.34,2.77,3.6v5.59s-2.35,0-2.35,0v-5.3c0-1.38-.39-1.87-1.27-1.87-.74,0-1.2.35-1.87,1.01v6.16s-2.33,0-2.33,0v-8.96Z"/><path class="cls-16" d="M1047.25,63.82v-3.97s-1.27,0-1.27,0v-1.74l1.38-.11.27-2.4h1.97s0,2.4,0,2.4h2.21s0,1.86,0,1.86h-2.21s0,3.97,0,3.97c0,1.02.42,1.5,1.22,1.5.29,0,.64-.1.88-.19l.38,1.71c-.48.16-1.1.34-1.89.34-2.13,0-2.95-1.34-2.95-3.36Z"/><path class="cls-16" d="M1053.02,64.52c0-1.92,1.55-2.93,5.15-3.32-.03-.88-.42-1.55-1.52-1.55-.83,0-1.63.37-2.46.85l-.85-1.55c1.06-.66,2.34-1.19,3.75-1.19,2.27,0,3.44,1.36,3.44,3.95v5.23s-1.92,0-1.92,0l-.18-.96h-.05c-.78.67-1.68,1.19-2.7,1.19-1.6,0-2.66-1.14-2.66-2.66ZM1058.18,64.46v-1.81c-2.18.29-2.91.88-2.91,1.68,0,.7.5,1.01,1.18,1.01.67,0,1.17-.32,1.73-.88Z"/><path class="cls-16" d="M1062.18,68.54c0-.75.46-1.39,1.28-1.86v-.08c-.46-.3-.82-.77-.82-1.5,0-.67.46-1.3.99-1.68v-.06c-.61-.45-1.19-1.3-1.19-2.34,0-2.11,1.71-3.25,3.62-3.25.5,0,.98.1,1.34.22h3.23s0,1.73,0,1.73h-1.54c.24.3.42.8.42,1.36,0,2.02-1.54,3.04-3.46,3.04-.35,0-.77-.08-1.15-.21-.26.21-.38.42-.38.77,0,.48.35.74,1.41.74h1.52c2.16,0,3.33.67,3.33,2.24,0,1.81-1.87,3.19-4.87,3.19-2.11,0-3.75-.72-3.75-2.3ZM1068.55,68.05c0-.64-.53-.8-1.49-.8h-1.09c-.54,0-.93-.05-1.25-.13-.4.32-.59.67-.59,1.04,0,.75.83,1.18,2.15,1.18,1.34,0,2.27-.59,2.27-1.3ZM1067.46,61.01c0-1.06-.59-1.65-1.39-1.65-.8,0-1.41.59-1.41,1.65,0,1.06.62,1.65,1.41,1.65s1.39-.59,1.39-1.65Z"/><path class="cls-16" d="M1071.6,62.48c0-2.91,2.03-4.72,4.18-4.72,2.46,0,3.75,1.81,3.75,4.29,0,.43-.05.86-.11,1.07h-5.52c.19,1.47,1.15,2.24,2.48,2.24.74,0,1.38-.22,2.02-.62l.8,1.44c-.88.61-2.02.99-3.14.99-2.5,0-4.45-1.74-4.45-4.69ZM1077.5,61.57c0-1.22-.54-1.98-1.7-1.98-.94,0-1.78.67-1.95,1.99h3.65Z"/><path class="cls-16" d="M300.37,35.59h3.66c4.07,0,6.59,2.1,6.59,6.6,0,4.48-2.52,6.72-6.44,6.72h-3.8s0-13.32,0-13.32ZM303.86,46.77c2.48,0,4.03-1.33,4.03-4.57,0-3.26-1.55-4.48-4.03-4.48h-.83v9.06h.83Z"/><path class="cls-16" d="M312.19,43.89c0-3.28,2.29-5.31,4.7-5.31,2.77,0,4.21,2.03,4.22,4.82,0,.49-.05.97-.13,1.21h-6.21c.22,1.66,1.3,2.52,2.79,2.52.83,0,1.55-.25,2.27-.7l.9,1.62c-.99.68-2.27,1.12-3.53,1.12-2.81,0-5.01-1.96-5.01-5.27ZM318.84,42.86c0-1.37-.61-2.23-1.91-2.23-1.06,0-2,.76-2.2,2.23h4.11Z"/><path class="cls-16" d="M323.1,38.82h2.16s.18,1.04.18,1.04h.07c.85-.72,1.89-1.3,2.97-1.3,2.49,0,3.96,2.03,3.96,5.13,0,3.46-2.07,5.46-4.28,5.46-.88,0-1.73-.4-2.5-1.1l.07,1.66v3.06s-2.63,0-2.63,0v-13.95ZM329.73,43.74c0-1.93-.61-2.99-2-2.99-.68,0-1.3.34-2,1.04v4.43c.65.56,1.3.76,1.84.76,1.22,0,2.16-1.05,2.16-3.24Z"/><path class="cls-16" d="M334.01,46.17c0-2.16,1.75-3.3,5.8-3.73-.04-.99-.47-1.75-1.71-1.75-.94,0-1.84.42-2.77.96l-.95-1.75c1.19-.74,2.63-1.33,4.21-1.33,2.56,0,3.87,1.53,3.87,4.45v5.89s-2.16,0-2.16,0l-.2-1.08h-.05c-.88.76-1.89,1.33-3.04,1.33-1.8,0-2.99-1.28-2.99-2.99ZM339.81,46.09v-2.03c-2.45.32-3.28.99-3.28,1.89,0,.79.56,1.13,1.33,1.13.76,0,1.31-.36,1.94-.99Z"/><path class="cls-16" d="M344.97,38.82h2.16s.18,1.78.18,1.78h.07c.74-1.31,1.82-2.04,2.86-2.04.56,0,.88.09,1.19.22l-.47,2.29c-.34-.11-.63-.16-1.04-.16-.79,0-1.75.52-2.32,1.98v6.01s-2.63,0-2.63,0v-10.08Z"/><path class="cls-16" d="M353.02,45.37v-4.47s-1.42,0-1.42,0v-1.96s1.55-.13,1.55-.13l.3-2.7h2.21s0,2.7,0,2.7h2.48s0,2.09,0,2.09h-2.48s0,4.47,0,4.47c0,1.15.47,1.69,1.37,1.69.32,0,.72-.11.99-.22l.43,1.93c-.54.18-1.24.38-2.12.38-2.39,0-3.31-1.51-3.31-3.78Z"/><path class="cls-16" d="M360.02,38.81h2.16s.18,1.35.18,1.35h.07c.85-.88,1.78-1.6,3.1-1.6,1.44,0,2.29.65,2.77,1.76.92-.97,1.89-1.77,3.2-1.77,2.14,0,3.13,1.51,3.13,4.05v6.28s-2.64,0-2.64,0v-5.96c0-1.55-.45-2.11-1.41-2.11-.58,0-1.22.38-1.94,1.13v6.93s-2.64,0-2.64,0v-5.96c0-1.55-.45-2.11-1.41-2.11-.58,0-1.22.38-1.95,1.13v6.93s-2.62,0-2.62,0v-10.08Z"/><path class="cls-16" d="M376.56,43.87c0-3.28,2.29-5.31,4.7-5.31,2.77,0,4.21,2.03,4.22,4.82,0,.49-.05.97-.13,1.21h-6.21c.22,1.66,1.3,2.52,2.79,2.52.83,0,1.55-.25,2.27-.7l.9,1.62c-.99.68-2.27,1.12-3.53,1.12-2.81,0-5.01-1.96-5.01-5.27ZM383.2,42.84c0-1.37-.61-2.23-1.91-2.23-1.06,0-2,.76-2.2,2.23h4.11Z"/><path class="cls-16" d="M387.47,38.8h2.16s.18,1.33.18,1.33h.07c.88-.86,1.91-1.58,3.28-1.59,2.18,0,3.12,1.51,3.12,4.05v6.28s-2.64,0-2.64,0v-5.96c0-1.55-.43-2.11-1.42-2.11-.83,0-1.35.4-2.11,1.13v6.93s-2.62,0-2.62,0v-10.08Z"/><path class="cls-16" d="M399.2,45.35v-4.47s-1.42,0-1.42,0v-1.96s1.55-.13,1.55-.13l.3-2.7h2.21s0,2.7,0,2.7h2.48s0,2.09,0,2.09h-2.48s0,4.47,0,4.47c0,1.15.47,1.69,1.37,1.69.32,0,.72-.11.99-.22l.43,1.93c-.54.18-1.24.38-2.12.38-2.39,0-3.31-1.51-3.31-3.78Z"/><path class="cls-16" d="M409.16,47.71l1.21-1.66c.9.7,1.76,1.1,2.7,1.1,1.01,0,1.46-.43,1.46-1.06,0-.76-1.05-1.1-2.11-1.51-1.28-.49-2.75-1.26-2.76-2.93,0-1.82,1.48-3.1,3.74-3.1,1.48,0,2.59.61,3.44,1.24l-1.19,1.6c-.72-.5-1.42-.86-2.18-.86-.9,0-1.33.4-1.33.97,0,.74.99,1.01,2.05,1.4,1.33.5,2.81,1.17,2.81,3.04,0,1.76-1.39,3.19-4.01,3.19-1.35,0-2.85-.59-3.84-1.42Z"/><path class="cls-16" d="M418.21,43.85c0-3.28,2.29-5.31,4.7-5.31,2.77,0,4.21,2.03,4.22,4.82,0,.49-.05.97-.13,1.21h-6.21c.22,1.66,1.3,2.52,2.79,2.52.83,0,1.55-.25,2.27-.7l.9,1.62c-.99.68-2.27,1.12-3.53,1.12-2.81,0-5.01-1.96-5.01-5.27ZM424.85,42.82c0-1.37-.61-2.23-1.91-2.23-1.06,0-2,.76-2.2,2.23h4.11Z"/><path class="cls-16" d="M428.49,43.85c0-3.37,2.41-5.31,5.15-5.31,1.24,0,2.2.49,2.94,1.12l-1.26,1.71c-.5-.43-.97-.67-1.55-.67-1.53,0-2.57,1.24-2.57,3.15,0,1.89,1.04,3.11,2.5,3.11.72,0,1.4-.34,1.96-.81l1.04,1.75c-.95.85-2.18,1.22-3.29,1.23-2.79,0-4.92-1.94-4.92-5.27Z"/><path class="cls-16" d="M438.8,45.34v-4.47s-1.42,0-1.42,0v-1.96s1.55-.13,1.55-.13l.3-2.7h2.21s0,2.7,0,2.7h2.48s0,2.09,0,2.09h-2.48s0,4.47,0,4.47c0,1.15.47,1.69,1.37,1.69.32,0,.72-.11.99-.22l.43,1.93c-.54.18-1.24.38-2.12.38-2.39,0-3.31-1.51-3.31-3.78Z"/><path class="cls-16" d="M445.55,35.72c0-.86.67-1.44,1.58-1.44.9,0,1.57.58,1.57,1.44,0,.83-.67,1.44-1.57,1.44-.92,0-1.58-.61-1.59-1.44ZM445.8,38.78h2.63s0,10.08,0,10.08h-2.63s0-10.08,0-10.08Z"/><path class="cls-16" d="M450.47,43.84c0-3.37,2.32-5.31,4.84-5.31,2.52,0,4.84,1.94,4.85,5.31,0,3.33-2.32,5.28-4.84,5.28-2.52,0-4.84-1.94-4.85-5.27ZM457.45,43.84c0-1.91-.78-3.15-2.14-3.15-1.37,0-2.14,1.24-2.14,3.15,0,1.89.78,3.11,2.14,3.11,1.37,0,2.14-1.23,2.14-3.12Z"/><path class="cls-16" d="M462.18,38.78h2.16s.18,1.33.18,1.33h.07c.88-.86,1.91-1.58,3.28-1.59,2.18,0,3.12,1.51,3.12,4.05v6.28s-2.64,0-2.64,0v-5.96c0-1.55-.43-2.11-1.42-2.11-.83,0-1.35.4-2.11,1.13v6.93s-2.62,0-2.62,0v-10.08Z"/><path class="cls-16" d="M477.45,38.77h2.16s.18,1.04.18,1.04h.07c.85-.72,1.89-1.3,2.97-1.3,2.49,0,3.96,2.03,3.96,5.13,0,3.46-2.07,5.46-4.28,5.46-.88,0-1.73-.4-2.5-1.1l.07,1.66v3.06s-2.63,0-2.63,0v-13.95ZM484.07,43.69c0-1.93-.61-2.99-2-2.99-.68,0-1.3.34-2,1.05v4.43c.65.56,1.3.76,1.84.76,1.22,0,2.16-1.05,2.16-3.24Z"/><path class="cls-16" d="M488.23,43.83c0-3.28,2.29-5.31,4.7-5.31,2.77,0,4.21,2.03,4.22,4.82,0,.49-.05.97-.13,1.21h-6.21c.22,1.66,1.3,2.52,2.79,2.52.83,0,1.55-.25,2.27-.7l.9,1.62c-.99.68-2.27,1.12-3.53,1.12-2.81,0-5.01-1.96-5.01-5.27ZM494.87,42.8c0-1.37-.61-2.23-1.91-2.23-1.06,0-2,.76-2.2,2.23h4.11Z"/><path class="cls-16" d="M499.13,38.77h2.16s.18,1.78.18,1.78h.07c.74-1.31,1.82-2.04,2.86-2.04.56,0,.88.09,1.19.22l-.47,2.29c-.34-.11-.63-.16-1.04-.16-.79,0-1.75.52-2.32,1.98v6.01s-2.63,0-2.63,0v-10.08Z"/><path class="cls-16" d="M506.17,43.82c0-3.37,2.41-5.31,5.15-5.31,1.24,0,2.2.49,2.94,1.12l-1.26,1.71c-.5-.43-.97-.67-1.55-.67-1.53,0-2.57,1.24-2.57,3.15,0,1.89,1.04,3.11,2.5,3.11.72,0,1.4-.34,1.96-.81l1.04,1.75c-.95.85-2.18,1.22-3.29,1.23-2.79,0-4.92-1.94-4.92-5.27Z"/><path class="cls-16" d="M515.48,43.82c0-3.28,2.29-5.31,4.7-5.31,2.77,0,4.21,2.03,4.22,4.82,0,.49-.05.97-.13,1.21h-6.21c.22,1.66,1.3,2.52,2.79,2.52.83,0,1.55-.25,2.27-.7l.9,1.62c-.99.68-2.27,1.12-3.53,1.12-2.81,0-5.01-1.96-5.01-5.27ZM522.12,42.79c0-1.37-.61-2.23-1.91-2.23-1.06,0-2,.76-2.2,2.23h4.11Z"/><path class="cls-16" d="M526.39,38.76h2.16s.18,1.33.18,1.33h.07c.88-.86,1.91-1.58,3.28-1.59,2.18,0,3.12,1.51,3.12,4.05v6.28s-2.64,0-2.64,0v-5.96c0-1.55-.43-2.11-1.42-2.11-.83,0-1.35.4-2.11,1.13v6.93s-2.62,0-2.62,0v-10.08Z"/><path class="cls-16" d="M538.12,45.31v-4.47s-1.42,0-1.42,0v-1.96s1.55-.13,1.55-.13l.3-2.7h2.21s0,2.7,0,2.7h2.48s0,2.09,0,2.09h-2.48s0,4.47,0,4.47c0,1.15.47,1.69,1.37,1.69.32,0,.72-.11.99-.22l.43,1.93c-.54.18-1.24.38-2.12.38-2.39,0-3.31-1.51-3.31-3.78Z"/><path class="cls-16" d="M544.62,46.1c0-2.16,1.75-3.3,5.8-3.73-.04-.99-.47-1.75-1.71-1.75-.94,0-1.84.42-2.77.96l-.95-1.75c1.19-.74,2.63-1.33,4.21-1.33,2.56,0,3.87,1.53,3.87,4.45v5.89s-2.16,0-2.16,0l-.2-1.08h-.05c-.88.76-1.89,1.33-3.04,1.33-1.8,0-2.99-1.28-2.99-2.99ZM550.42,46.02v-2.03c-2.45.32-3.28.99-3.28,1.89,0,.79.56,1.13,1.33,1.13.76,0,1.31-.36,1.94-.99Z"/><path class="cls-16" d="M554.92,50.61c0-.85.52-1.57,1.44-2.09v-.09c-.52-.34-.92-.86-.92-1.69,0-.76.52-1.46,1.12-1.89v-.07c-.68-.5-1.33-1.46-1.33-2.63,0-2.38,1.93-3.66,4.07-3.66.56,0,1.1.11,1.51.25h3.64s0,1.94,0,1.94h-1.73c.27.34.47.9.47,1.53,0,2.27-1.73,3.42-3.89,3.42-.4,0-.87-.09-1.3-.23-.29.23-.43.47-.43.86,0,.54.4.83,1.58.83h1.71c2.43,0,3.75.75,3.75,2.52,0,2.03-2.11,3.58-5.47,3.58-2.38,0-4.21-.81-4.21-2.59ZM562.08,50.07c0-.72-.59-.9-1.67-.9h-1.22c-.61,0-1.04-.05-1.4-.14-.45.36-.67.76-.67,1.17,0,.85.94,1.33,2.41,1.33,1.51,0,2.56-.67,2.56-1.46ZM560.86,42.15c0-1.19-.67-1.85-1.57-1.85-.9,0-1.58.67-1.58,1.86,0,1.19.7,1.85,1.59,1.85.88,0,1.57-.67,1.57-1.85Z"/><path class="cls-16" d="M565.52,43.81c0-3.28,2.29-5.31,4.7-5.31,2.77,0,4.21,2.03,4.22,4.82,0,.49-.05.97-.13,1.21h-6.21c.22,1.66,1.3,2.52,2.79,2.52.83,0,1.55-.25,2.27-.7l.9,1.62c-.99.68-2.27,1.12-3.53,1.12-2.81,0-5.01-1.96-5.01-5.27ZM572.16,42.78c0-1.37-.61-2.23-1.91-2.23-1.06,0-2,.76-2.2,2.23h4.11Z"/><path class="cls-16" d="M580.33,38.74h2.16s.18,1.78.18,1.78h.07c.74-1.31,1.82-2.04,2.86-2.04.56,0,.88.09,1.19.22l-.47,2.29c-.34-.11-.63-.16-1.04-.16-.79,0-1.75.52-2.32,1.98v6.01s-2.63,0-2.63,0v-10.08Z"/><path class="cls-16" d="M587.5,46.08c0-2.16,1.75-3.3,5.8-3.73-.04-.99-.47-1.75-1.71-1.75-.94,0-1.84.41-2.77.96l-.95-1.75c1.19-.74,2.63-1.33,4.21-1.33,2.56,0,3.87,1.53,3.87,4.45v5.89s-2.16,0-2.16,0l-.2-1.08h-.05c-.88.76-1.89,1.33-3.04,1.33-1.8,0-2.99-1.28-2.99-2.99ZM593.29,46.01v-2.03c-2.45.32-3.28.99-3.28,1.89,0,.79.56,1.13,1.33,1.13.76,0,1.31-.36,1.94-.99Z"/><path class="cls-16" d="M598.84,45.29v-4.47s-1.42,0-1.42,0v-1.96s1.55-.13,1.55-.13l.3-2.7h2.21s0,2.7,0,2.7h2.48s0,2.09,0,2.09h-2.48s0,4.47,0,4.47c0,1.15.47,1.69,1.37,1.69.32,0,.72-.11.99-.22l.43,1.93c-.54.18-1.24.38-2.12.38-2.39,0-3.31-1.51-3.31-3.78Z"/><path class="cls-16" d="M605.58,35.67c0-.86.67-1.44,1.58-1.44.9,0,1.57.58,1.57,1.44,0,.83-.67,1.44-1.57,1.44-.92,0-1.58-.61-1.59-1.44ZM605.84,38.73h2.63s0,10.08,0,10.08h-2.63s0-10.08,0-10.08Z"/><path class="cls-16" d="M610.5,43.79c0-3.37,2.32-5.31,4.84-5.31,2.52,0,4.84,1.94,4.85,5.31,0,3.33-2.32,5.28-4.84,5.28-2.52,0-4.84-1.94-4.85-5.27ZM617.49,43.79c0-1.91-.78-3.15-2.14-3.15s-2.14,1.24-2.14,3.15c0,1.89.78,3.11,2.14,3.11s2.14-1.23,2.14-3.12Z"/><path class="cls-16" d="M722.62,43.49h-4.32s-.93,3.42-.93,3.42h-2.7s4.26-13.32,4.26-13.32h3.13s4.29,13.32,4.29,13.32h-2.79s-.94-3.42-.94-3.42ZM722.04,41.42l-.4-1.46c-.41-1.39-.78-2.92-1.17-4.36h-.07c-.34,1.46-.74,2.97-1.13,4.36l-.39,1.46h3.17Z"/><path class="cls-16" d="M726.85,48.69c0-.85.52-1.57,1.44-2.09v-.09c-.52-.34-.92-.86-.92-1.69,0-.76.52-1.46,1.12-1.89v-.07c-.68-.5-1.33-1.46-1.33-2.63,0-2.38,1.93-3.66,4.07-3.66.56,0,1.1.11,1.51.25h3.64s0,1.94,0,1.94h-1.73c.27.34.47.9.47,1.53,0,2.27-1.73,3.42-3.89,3.42-.4,0-.87-.09-1.3-.23-.29.23-.43.47-.43.86,0,.54.4.83,1.58.83h1.71c2.43,0,3.75.75,3.75,2.52,0,2.03-2.11,3.58-5.47,3.58-2.38,0-4.21-.81-4.21-2.59ZM734.01,48.15c0-.72-.59-.9-1.67-.9h-1.22c-.61,0-1.04-.05-1.4-.14-.45.36-.67.76-.67,1.17,0,.85.94,1.33,2.41,1.33,1.51,0,2.56-.67,2.56-1.46ZM732.78,40.23c0-1.19-.67-1.85-1.57-1.85s-1.58.67-1.58,1.86c0,1.19.7,1.85,1.59,1.85.88,0,1.57-.67,1.57-1.85Z"/><path class="cls-16" d="M737.45,41.88c0-3.28,2.29-5.31,4.7-5.31,2.77,0,4.21,2.03,4.22,4.82,0,.49-.05.97-.13,1.21h-6.21c.22,1.66,1.3,2.52,2.79,2.52.83,0,1.55-.25,2.27-.7l.9,1.62c-.99.68-2.27,1.12-3.53,1.12-2.81,0-5.01-1.96-5.01-5.27ZM744.09,40.85c0-1.37-.61-2.23-1.91-2.23-1.06,0-2,.76-2.2,2.23h4.11Z"/><path class="cls-16" d="M752.47,33.58h3.66c4.07,0,6.59,2.1,6.59,6.6,0,4.48-2.52,6.72-6.44,6.72h-3.8s0-13.32,0-13.32ZM755.97,44.76c2.48,0,4.03-1.33,4.03-4.57,0-3.26-1.55-4.48-4.03-4.48h-.83s0,9.06,0,9.06h.83Z"/><path class="cls-16" d="M764.68,33.75c0-.86.67-1.44,1.58-1.44.9,0,1.57.58,1.57,1.44,0,.83-.67,1.44-1.57,1.44-.92,0-1.58-.61-1.59-1.44ZM764.93,36.82h2.63s0,10.08,0,10.08h-2.63s0-10.08,0-10.08Z"/><path class="cls-16" d="M769.27,45.73l1.21-1.66c.9.7,1.76,1.1,2.7,1.1,1.01,0,1.46-.43,1.46-1.06,0-.76-1.05-1.1-2.11-1.51-1.28-.49-2.75-1.26-2.76-2.93,0-1.82,1.47-3.1,3.74-3.1,1.48,0,2.59.61,3.44,1.24l-1.19,1.6c-.72-.5-1.42-.86-2.18-.86-.9,0-1.33.4-1.33.97,0,.74.99,1.01,2.05,1.4,1.33.5,2.81,1.17,2.81,3.04,0,1.76-1.39,3.19-4.01,3.19-1.35,0-2.85-.59-3.84-1.42Z"/><path class="cls-16" d="M779.33,43.36v-4.47s-1.42,0-1.42,0v-1.96s1.55-.13,1.55-.13l.3-2.7h2.21s0,2.7,0,2.7h2.48s0,2.09,0,2.09h-2.48s0,4.47,0,4.47c0,1.15.47,1.69,1.37,1.69.32,0,.72-.11.99-.22l.43,1.93c-.54.18-1.24.38-2.12.38-2.39,0-3.31-1.51-3.31-3.78Z"/><path class="cls-16" d="M786.33,36.81h2.16s.18,1.78.18,1.78h.07c.74-1.31,1.82-2.04,2.86-2.04.56,0,.88.09,1.19.22l-.47,2.29c-.34-.11-.63-.16-1.04-.16-.79,0-1.75.52-2.32,1.98v6.01s-2.63,0-2.63,0v-10.08Z"/><path class="cls-16" d="M793.74,33.74c0-.86.67-1.44,1.58-1.44.9,0,1.57.58,1.57,1.44,0,.83-.67,1.44-1.57,1.44-.92,0-1.58-.61-1.59-1.44ZM794,36.81h2.63s0,10.08,0,10.08h-2.63s0-10.08,0-10.08Z"/><path class="cls-16" d="M801.65,45.82h-.05l-.23,1.06h-2.07s0-14.37,0-14.37h2.63s0,3.62,0,3.62l-.05,1.62c.79-.72,1.8-1.21,2.79-1.21,2.48,0,3.98,2.03,3.98,5.11,0,3.48-2.07,5.47-4.28,5.47-.9,0-1.87-.47-2.7-1.31ZM805.92,41.72c0-1.93-.61-2.99-2-2.99-.68,0-1.3.34-2,1.04v4.43c.63.56,1.3.76,1.84.76,1.22,0,2.16-1.05,2.16-3.24Z"/><path class="cls-16" d="M810.59,43.1v-6.3s2.64,0,2.64,0v5.96c0,1.57.44,2.11,1.41,2.11.83,0,1.37-.36,2.05-1.26v-6.81s2.65,0,2.65,0v10.08s-2.16,0-2.16,0l-.2-1.44h-.07c-.86,1.03-1.83,1.69-3.22,1.69-2.16,0-3.1-1.51-3.1-4.03Z"/><path class="cls-16" d="M822.37,43.35v-4.47s-1.42,0-1.42,0v-1.96s1.55-.13,1.55-.13l.3-2.7h2.21s0,2.7,0,2.7h2.48s0,2.09,0,2.09h-2.48s0,4.47,0,4.47c0,1.15.47,1.69,1.37,1.69.32,0,.72-.11.99-.22l.43,1.93c-.54.18-1.24.38-2.12.38-2.39,0-3.31-1.51-3.31-3.78Z"/><path class="cls-16" d="M829.11,33.73c0-.86.67-1.44,1.58-1.44.9,0,1.57.58,1.57,1.44,0,.83-.67,1.44-1.57,1.44-.92,0-1.58-.61-1.59-1.44ZM829.37,36.79h2.63s0,10.08,0,10.08h-2.63s0-10.08,0-10.08Z"/><path class="cls-16" d="M834.03,41.85c0-3.37,2.32-5.31,4.84-5.31,2.52,0,4.84,1.94,4.85,5.31,0,3.33-2.32,5.28-4.84,5.28-2.52,0-4.84-1.94-4.85-5.27ZM841.02,41.85c0-1.91-.78-3.15-2.14-3.15s-2.14,1.24-2.14,3.15c0,1.89.78,3.11,2.14,3.11s2.14-1.22,2.14-3.12Z"/><path class="cls-16" d="M845.75,36.79h2.16s.18,1.33.18,1.33h.07c.88-.86,1.91-1.59,3.28-1.59,2.18,0,3.12,1.51,3.12,4.05v6.28s-2.64,0-2.64,0v-5.96c0-1.55-.43-2.11-1.42-2.11-.83,0-1.35.4-2.11,1.14v6.93s-2.62,0-2.62,0v-10.08Z"/><path class="cls-15" d="M272.93,120.68v-38.2c-4.22,0-7.79.57-11.8,1.87-7.22,2.35-13.1,6.39-17.88,12.29-9.03,11.15-11.11,25.05-5.73,38.35,1.58,3.91,3.44,7.01,6.16,10.25,13.56,16.16,37.66,18.27,53.82,4.71l-24.56-29.26Z"/><path class="cls-15" d="M361.21,120.63l.71-38.19c-11.81-.22-21.75,4.19-29.51,13.1-13.86,15.91-12.2,40.04,3.7,53.9,3.18,2.77,6.25,4.69,10.13,6.35,6.99,2.98,14.08,3.79,21.56,2.48,14.13-2.47,24.83-11.59,29.52-25.15l-36.1-12.48Z"/><path class="cls-15" d="M481.99,101.87l-33.21,18.87-.4-38.2c-4.22.04-7.79.65-11.78,1.99-20,6.73-30.75,28.4-24.02,48.39,3.77,11.2,11.27,19.07,22.27,23.38,19.64,7.7,41.81-1.99,49.5-21.63,1.54-3.93,2.32-7.46,2.57-11.67.45-7.58-1.17-14.53-4.92-21.13Z"/><path class="cls-15" d="M563.4,94.95c-3.01-2.95-5.96-5.05-9.74-6.93l-15.65,31.48-4.23-36.72c-14.25,1.64-25.47,10.11-30.94,23.37-1.61,3.9-2.45,7.42-2.78,11.62-1.59,20.57,13.42,38.59,33.76,40.9l-.13,1.64c11.78.91,21.96-2.91,30.23-11.34,14.77-15.07,14.53-39.25-.54-54.02Z"/><path class="cls-15" d="M635.37,83.73l-9.65,36.96-2.24-38.14c-7.58.45-14.29,2.87-20.41,7.37-11.55,8.51-17.08,21.43-15.24,35.66.54,4.18,1.56,7.65,3.37,11.47,9.04,19.06,31.82,27.19,50.88,18.15,10.68-5.06,17.61-13.43,20.6-24.87,5.33-20.41-6.9-41.28-27.31-46.61Z"/><path class="cls-16" d="M252.97,165.8h2.23c2.49,0,4.03,1.29,4.03,4.04s-1.54,4.1-3.94,4.1h-2.32v-8.14ZM255.1,172.64c1.52,0,2.46-.81,2.46-2.79s-.95-2.74-2.46-2.74h-.51v5.53h.51Z"/><path class="cls-16" d="M260.2,170.88c0-2,1.4-3.25,2.87-3.25,1.69,0,2.57,1.24,2.57,2.95,0,.3-.03.59-.08.74h-3.79c.13,1.01.79,1.54,1.71,1.54.51,0,.95-.15,1.39-.43l.55.99c-.61.42-1.39.68-2.16.68-1.72,0-3.06-1.2-3.06-3.22ZM264.26,170.25c0-.84-.37-1.36-1.17-1.36-.65,0-1.22.46-1.34,1.36h2.51Z"/><path class="cls-16" d="M266.15,167.79h1.63l.9,3.07c.15.61.33,1.24.5,1.87h.05c.15-.63.33-1.27.5-1.87l.9-3.07h1.55l-2.06,6.16h-1.87l-2.1-6.16Z"/><path class="cls-16" d="M272.93,165.91c0-.53.41-.88.97-.88s.96.35.96.88-.41.88-.96.88-.97-.37-.97-.88ZM273.09,167.79h1.61v6.16h-1.61v-6.16Z"/><path class="cls-16" d="M275.94,170.88c0-2.06,1.47-3.25,3.15-3.25.76,0,1.34.3,1.79.68l-.77,1.05c-.31-.26-.59-.41-.95-.41-.94,0-1.57.76-1.57,1.93s.64,1.9,1.53,1.9c.44,0,.86-.21,1.2-.49l.64,1.07c-.58.52-1.33.75-2.01.75-1.71,0-3-1.19-3-3.22Z"/><path class="cls-16" d="M281.62,170.88c0-2,1.4-3.25,2.87-3.25,1.69,0,2.57,1.24,2.57,2.95,0,.3-.03.59-.08.74h-3.79c.13,1.01.79,1.54,1.71,1.54.51,0,.95-.15,1.39-.43l.55.99c-.61.42-1.39.68-2.16.68-1.72,0-3.06-1.2-3.06-3.22ZM285.68,170.25c0-.84-.37-1.36-1.17-1.36-.65,0-1.22.46-1.34,1.36h2.51Z"/><path class="cls-16" d="M231.55,177.8h1.8l1.39,3.81c.18.51.33,1.05.5,1.57h.05c.18-.53.32-1.07.5-1.57l1.35-3.81h1.8v8.14h-1.49v-3.4c0-.77.12-1.9.2-2.67h-.04l-.66,1.91-1.25,3.42h-.93l-1.27-3.42-.65-1.91h-.04c.08.77.21,1.9.21,2.67v3.4h-1.46v-8.14Z"/><path class="cls-16" d="M240.39,184.27c0-1.32,1.07-2.01,3.54-2.28-.02-.61-.29-1.07-1.04-1.07-.57,0-1.12.25-1.69.58l-.58-1.07c.73-.45,1.61-.81,2.57-.81,1.56,0,2.37.94,2.37,2.72v3.6h-1.32l-.12-.66h-.03c-.54.46-1.16.81-1.86.81-1.1,0-1.83-.78-1.83-1.83ZM243.93,184.23v-1.24c-1.5.2-2,.61-2,1.16,0,.48.34.69.81.69s.8-.22,1.19-.61Z"/><path class="cls-16" d="M247.09,179.79h1.32l.11.81h.04c.54-.53,1.17-.97,2-.97,1.33,0,1.9.92,1.9,2.48v3.84h-1.62v-3.64c0-.95-.26-1.29-.87-1.29-.51,0-.83.24-1.29.69v4.24h-1.61v-6.16Z"/><path class="cls-16" d="M253.96,183.64v-3.85h1.62v3.64c0,.96.26,1.29.86,1.29.51,0,.84-.22,1.25-.77v-4.16h1.62v6.16h-1.32l-.12-.88h-.04c-.53.63-1.12,1.03-1.97,1.03-1.32,0-1.89-.92-1.89-2.46Z"/><path class="cls-16" d="M264.22,178.42c-.21-.08-.45-.13-.65-.13-.48,0-.75.29-.75.97v.53h1.16v1.28h-1.16v4.88h-1.62v-4.88h-.83v-1.2l.83-.07v-.51c0-1.29.59-2.28,2.14-2.28.47,0,.89.11,1.17.22l-.3,1.19Z"/><path class="cls-16" d="M264.6,184.27c0-1.32,1.07-2.01,3.54-2.28-.02-.61-.29-1.07-1.04-1.07-.57,0-1.12.25-1.69.58l-.58-1.07c.73-.45,1.61-.81,2.57-.81,1.56,0,2.37.94,2.37,2.72v3.6h-1.32l-.12-.66h-.03c-.54.46-1.16.81-1.86.81-1.1,0-1.83-.78-1.83-1.83ZM268.14,184.23v-1.24c-1.5.2-2,.61-2,1.16,0,.48.34.69.81.69s.8-.22,1.19-.61Z"/><path class="cls-16" d="M270.92,182.88c0-2.06,1.47-3.25,3.15-3.25.76,0,1.34.3,1.79.68l-.77,1.05c-.31-.26-.59-.41-.95-.41-.94,0-1.57.76-1.57,1.93s.64,1.9,1.53,1.9c.44,0,.86-.21,1.2-.49l.64,1.07c-.58.52-1.33.75-2.01.75-1.71,0-3-1.19-3-3.22Z"/><path class="cls-16" d="M277.22,183.79v-2.73h-.87v-1.2l.95-.08.19-1.65h1.35v1.65h1.52v1.28h-1.52v2.73c0,.7.29,1.03.84,1.03.2,0,.44-.07.6-.13l.26,1.18c-.33.11-.76.23-1.3.23-1.46,0-2.02-.92-2.02-2.31Z"/><path class="cls-16" d="M281.43,183.64v-3.85h1.62v3.64c0,.96.26,1.29.86,1.29.51,0,.84-.22,1.25-.77v-4.16h1.62v6.16h-1.32l-.12-.88h-.04c-.53.63-1.12,1.03-1.97,1.03-1.32,0-1.89-.92-1.89-2.46Z"/><path class="cls-16" d="M288.39,179.79h1.32l.11,1.09h.04c.45-.8,1.11-1.24,1.75-1.24.34,0,.54.05.73.13l-.29,1.4c-.21-.07-.38-.1-.64-.1-.48,0-1.07.32-1.42,1.21v3.67h-1.61v-6.16Z"/><path class="cls-16" d="M292.93,177.91c0-.53.41-.88.97-.88s.96.35.96.88-.41.88-.96.88-.97-.37-.97-.88ZM293.08,179.79h1.61v6.16h-1.61v-6.16Z"/><path class="cls-16" d="M296.31,179.79h1.32l.11.81h.04c.54-.53,1.17-.97,2-.97,1.33,0,1.9.92,1.9,2.48v3.84h-1.62v-3.64c0-.95-.26-1.29-.87-1.29-.51,0-.83.24-1.29.69v4.24h-1.61v-6.16Z"/><path class="cls-16" d="M302.85,187.04c0-.52.32-.96.88-1.28v-.05c-.32-.21-.56-.53-.56-1.03,0-.46.32-.89.68-1.16v-.04c-.42-.31-.81-.89-.81-1.61,0-1.45,1.18-2.23,2.49-2.23.34,0,.67.07.92.15h2.22v1.19h-1.06c.17.21.29.55.29.94,0,1.39-1.06,2.09-2.38,2.09-.24,0-.53-.05-.79-.14-.18.14-.26.29-.26.53,0,.33.24.51.97.51h1.04c1.49,0,2.29.46,2.29,1.54,0,1.24-1.29,2.19-3.34,2.19-1.45,0-2.57-.5-2.57-1.58ZM307.23,186.71c0-.44-.36-.55-1.02-.55h-.75c-.37,0-.64-.03-.86-.09-.27.22-.41.46-.41.72,0,.52.57.81,1.47.81s1.56-.41,1.56-.89ZM306.48,181.86c0-.73-.41-1.13-.96-1.13s-.97.41-.97,1.13.43,1.13.97,1.13.96-.41.96-1.13Z"/><path class="cls-16" d="M239.48,189.8h2.23c2.49,0,4.03,1.29,4.03,4.04s-1.54,4.1-3.94,4.1h-2.32v-8.14ZM241.62,196.64c1.52,0,2.46-.81,2.46-2.79s-.95-2.74-2.46-2.74h-.51v5.53h.51Z"/><path class="cls-16" d="M246.71,194.88c0-2,1.4-3.25,2.87-3.25,1.69,0,2.57,1.24,2.57,2.95,0,.3-.03.59-.08.74h-3.79c.13,1.01.79,1.54,1.71,1.54.51,0,.95-.15,1.39-.43l.55.99c-.61.42-1.39.68-2.16.68-1.72,0-3.06-1.2-3.06-3.22ZM250.77,194.25c0-.84-.37-1.36-1.17-1.36-.65,0-1.22.46-1.34,1.36h2.51Z"/><path class="cls-16" d="M253.38,191.79h1.32l.11.64h.04c.52-.44,1.15-.79,1.81-.79,1.52,0,2.42,1.24,2.42,3.14,0,2.11-1.27,3.33-2.62,3.33-.54,0-1.06-.24-1.53-.67l.04,1.01v1.87h-1.61v-8.53ZM257.42,194.79c0-1.18-.37-1.83-1.22-1.83-.42,0-.79.21-1.22.64v2.71c.4.34.79.46,1.12.46.75,0,1.32-.64,1.32-1.98Z"/><path class="cls-16" d="M260.04,196.27c0-1.32,1.07-2.01,3.54-2.28-.02-.61-.29-1.07-1.04-1.07-.57,0-1.12.25-1.69.58l-.58-1.07c.73-.45,1.61-.81,2.57-.81,1.56,0,2.37.94,2.37,2.72v3.6h-1.32l-.12-.66h-.03c-.54.46-1.16.81-1.86.81-1.1,0-1.83-.78-1.83-1.83ZM263.58,196.23v-1.24c-1.5.2-2,.61-2,1.16,0,.48.34.69.81.69s.8-.22,1.19-.61Z"/><path class="cls-16" d="M266.74,191.79h1.32l.11,1.09h.04c.45-.8,1.11-1.24,1.75-1.24.34,0,.54.05.73.13l-.29,1.4c-.21-.07-.38-.1-.64-.1-.48,0-1.07.32-1.42,1.21v3.67h-1.61v-6.16Z"/><path class="cls-16" d="M271.66,195.79v-2.73h-.87v-1.2l.95-.08.19-1.65h1.35v1.65h1.52v1.28h-1.52v2.73c0,.7.29,1.03.84,1.03.2,0,.44-.07.6-.13l.26,1.18c-.33.11-.76.23-1.3.23-1.46,0-2.02-.92-2.02-2.31Z"/><path class="cls-16" d="M275.94,191.79h1.32l.11.83h.04c.52-.54,1.09-.98,1.89-.98.88,0,1.4.4,1.69,1.08.56-.59,1.16-1.08,1.96-1.08,1.31,0,1.92.92,1.92,2.48v3.84h-1.62v-3.64c0-.95-.28-1.29-.86-1.29-.35,0-.75.23-1.19.69v4.24h-1.62v-3.64c0-.95-.27-1.29-.86-1.29-.35,0-.75.23-1.19.69v4.24h-1.61v-6.16Z"/><path class="cls-16" d="M286.05,194.88c0-2,1.4-3.25,2.87-3.25,1.69,0,2.57,1.24,2.57,2.95,0,.3-.03.59-.08.74h-3.79c.13,1.01.79,1.54,1.71,1.54.51,0,.95-.15,1.39-.43l.55.99c-.61.42-1.39.68-2.16.68-1.72,0-3.06-1.2-3.06-3.22ZM290.11,194.25c0-.84-.37-1.36-1.17-1.36-.65,0-1.22.46-1.34,1.36h2.51Z"/><path class="cls-16" d="M292.71,191.79h1.32l.11.81h.04c.54-.53,1.17-.97,2-.97,1.33,0,1.9.92,1.9,2.48v3.84h-1.62v-3.64c0-.95-.26-1.29-.87-1.29-.51,0-.83.24-1.29.69v4.24h-1.61v-6.16Z"/><path class="cls-16" d="M299.88,195.79v-2.73h-.87v-1.2l.95-.08.19-1.65h1.35v1.65h1.52v1.28h-1.52v2.73c0,.7.29,1.03.84,1.03.2,0,.44-.07.6-.13l.26,1.18c-.33.11-.76.23-1.3.23-1.46,0-2.02-.92-2.02-2.31Z"/><path class="cls-16" d="M433.14,165.8h2.23c2.49,0,4.03,1.29,4.03,4.04s-1.54,4.1-3.94,4.1h-2.32v-8.14ZM435.28,172.64c1.52,0,2.46-.81,2.46-2.79s-.95-2.74-2.46-2.74h-.51v5.53h.51Z"/><path class="cls-16" d="M440.37,170.88c0-2,1.4-3.25,2.87-3.25,1.69,0,2.57,1.24,2.57,2.95,0,.3-.03.59-.08.74h-3.79c.13,1.01.79,1.54,1.71,1.54.51,0,.95-.15,1.39-.43l.55.99c-.61.42-1.39.68-2.16.68-1.72,0-3.06-1.2-3.06-3.22ZM444.43,170.25c0-.84-.37-1.36-1.17-1.36-.65,0-1.22.46-1.34,1.36h2.51Z"/><path class="cls-16" d="M446.45,173.23l.74-1.01c.55.43,1.08.67,1.65.67.62,0,.89-.26.89-.65,0-.46-.64-.67-1.29-.92-.78-.3-1.68-.77-1.68-1.79,0-1.11.9-1.89,2.29-1.89.9,0,1.58.37,2.1.76l-.73.98c-.44-.31-.87-.53-1.33-.53-.55,0-.81.24-.81.59,0,.45.61.62,1.25.86.81.31,1.72.72,1.72,1.86,0,1.08-.85,1.95-2.45,1.95-.82,0-1.74-.36-2.34-.87Z"/><path class="cls-16" d="M452.22,165.91c0-.53.41-.88.97-.88s.96.35.96.88-.41.88-.96.88-.97-.37-.97-.88ZM452.37,167.79h1.61v6.16h-1.61v-6.16Z"/><path class="cls-16" d="M455.2,175.04c0-.52.32-.96.88-1.28v-.05c-.32-.21-.56-.53-.56-1.03,0-.46.32-.89.68-1.16v-.04c-.42-.31-.81-.89-.81-1.61,0-1.45,1.18-2.23,2.49-2.23.34,0,.67.07.92.15h2.22v1.19h-1.06c.17.21.29.55.29.94,0,1.39-1.06,2.09-2.38,2.09-.24,0-.53-.05-.79-.14-.18.14-.26.29-.26.53,0,.33.24.51.97.51h1.04c1.49,0,2.29.46,2.29,1.54,0,1.24-1.29,2.19-3.34,2.19-1.45,0-2.57-.5-2.57-1.58ZM459.58,174.71c0-.44-.36-.55-1.02-.55h-.75c-.37,0-.64-.03-.86-.09-.27.22-.41.46-.41.72,0,.52.57.81,1.47.81s1.56-.41,1.56-.89ZM458.83,169.86c0-.73-.41-1.13-.96-1.13s-.97.41-.97,1.13.43,1.13.97,1.13.96-.41.96-1.13Z"/><path class="cls-16" d="M462.06,167.79h1.32l.11.81h.04c.54-.53,1.17-.97,2-.97,1.33,0,1.9.92,1.9,2.48v3.84h-1.62v-3.64c0-.95-.26-1.29-.87-1.29-.51,0-.83.24-1.29.69v4.24h-1.61v-6.16Z"/><path class="cls-16" d="M419.09,177.8h5v1.35h-3.37v1.88h2.86v1.36h-2.86v2.18h3.49v1.36h-5.12v-8.14Z"/><path class="cls-16" d="M425.61,179.79h1.32l.11.81h.04c.54-.53,1.17-.97,2-.97,1.33,0,1.9.92,1.9,2.48v3.84h-1.62v-3.64c0-.95-.26-1.29-.87-1.29-.51,0-.83.24-1.29.69v4.24h-1.61v-6.16Z"/><path class="cls-16" d="M432.14,187.04c0-.52.32-.96.88-1.28v-.05c-.32-.21-.56-.53-.56-1.03,0-.46.32-.89.68-1.16v-.04c-.42-.31-.81-.89-.81-1.61,0-1.45,1.18-2.23,2.49-2.23.34,0,.67.07.92.15h2.22v1.19h-1.06c.17.21.29.55.29.94,0,1.39-1.06,2.09-2.38,2.09-.24,0-.53-.05-.79-.14-.18.14-.26.29-.26.53,0,.33.24.51.97.51h1.04c1.49,0,2.29.46,2.29,1.54,0,1.24-1.29,2.19-3.34,2.19-1.45,0-2.57-.5-2.57-1.58ZM436.52,186.71c0-.44-.36-.55-1.02-.55h-.75c-.37,0-.64-.03-.86-.09-.27.22-.41.46-.41.72,0,.52.57.81,1.47.81s1.56-.41,1.56-.89ZM435.77,181.86c0-.73-.41-1.13-.96-1.13s-.97.41-.97,1.13.43,1.13.97,1.13.96-.41.96-1.13Z"/><path class="cls-16" d="M438.85,177.91c0-.53.41-.88.97-.88s.96.35.96.88-.41.88-.96.88-.97-.37-.97-.88ZM439.01,179.79h1.61v6.16h-1.61v-6.16Z"/><path class="cls-16" d="M442.24,179.79h1.32l.11.81h.04c.54-.53,1.17-.97,2-.97,1.33,0,1.9.92,1.9,2.48v3.84h-1.62v-3.64c0-.95-.26-1.29-.87-1.29-.51,0-.83.24-1.29.69v4.24h-1.61v-6.16Z"/><path class="cls-16" d="M448.8,182.88c0-2,1.4-3.25,2.87-3.25,1.69,0,2.57,1.24,2.57,2.95,0,.3-.03.59-.08.74h-3.79c.13,1.01.79,1.54,1.71,1.54.51,0,.95-.15,1.39-.43l.55.99c-.61.42-1.39.68-2.16.68-1.72,0-3.06-1.2-3.06-3.22ZM452.86,182.25c0-.84-.37-1.36-1.17-1.36-.65,0-1.22.46-1.34,1.36h2.51Z"/><path class="cls-16" d="M455.08,182.88c0-2,1.4-3.25,2.87-3.25,1.69,0,2.57,1.24,2.57,2.95,0,.3-.03.59-.08.74h-3.79c.13,1.01.79,1.54,1.71,1.54.51,0,.95-.15,1.39-.43l.55.99c-.61.42-1.39.68-2.16.68-1.72,0-3.06-1.2-3.06-3.22ZM459.14,182.25c0-.84-.37-1.36-1.17-1.36-.65,0-1.22.46-1.34,1.36h2.51Z"/><path class="cls-16" d="M461.74,179.79h1.32l.11,1.09h.04c.45-.8,1.11-1.24,1.75-1.24.34,0,.54.05.73.13l-.29,1.4c-.21-.07-.38-.1-.64-.1-.48,0-1.07.32-1.42,1.21v3.67h-1.61v-6.16Z"/><path class="cls-16" d="M466.27,177.91c0-.53.41-.88.97-.88s.96.35.96.88-.41.88-.96.88-.97-.37-.97-.88ZM466.43,179.79h1.61v6.16h-1.61v-6.16Z"/><path class="cls-16" d="M469.66,179.79h1.32l.11.81h.04c.54-.53,1.17-.97,2-.97,1.33,0,1.9.92,1.9,2.48v3.84h-1.62v-3.64c0-.95-.26-1.29-.87-1.29-.51,0-.83.24-1.29.69v4.24h-1.61v-6.16Z"/><path class="cls-16" d="M476.2,187.04c0-.52.32-.96.88-1.28v-.05c-.32-.21-.56-.53-.56-1.03,0-.46.32-.89.68-1.16v-.04c-.42-.31-.81-.89-.81-1.61,0-1.45,1.18-2.23,2.49-2.23.34,0,.67.07.92.15h2.22v1.19h-1.06c.17.21.29.55.29.94,0,1.39-1.06,2.09-2.38,2.09-.24,0-.53-.05-.79-.14-.18.14-.26.29-.26.53,0,.33.24.51.97.51h1.04c1.49,0,2.29.46,2.29,1.54,0,1.24-1.29,2.19-3.34,2.19-1.45,0-2.57-.5-2.57-1.58ZM480.57,186.71c0-.44-.36-.55-1.02-.55h-.75c-.37,0-.64-.03-.86-.09-.27.22-.41.46-.41.72,0,.52.57.81,1.47.81s1.56-.41,1.56-.89ZM479.83,181.86c0-.73-.41-1.13-.96-1.13s-.97.41-.97,1.13.43,1.13.97,1.13.96-.41.96-1.13Z"/><path class="cls-16" d="M419.93,189.8h2.23c2.49,0,4.03,1.29,4.03,4.04s-1.54,4.1-3.94,4.1h-2.32v-8.14ZM422.06,196.64c1.52,0,2.46-.81,2.46-2.79s-.95-2.74-2.46-2.74h-.51v5.53h.51Z"/><path class="cls-16" d="M427.15,194.88c0-2,1.4-3.25,2.87-3.25,1.69,0,2.57,1.24,2.57,2.95,0,.3-.03.59-.08.74h-3.79c.13,1.01.79,1.54,1.71,1.54.51,0,.95-.15,1.39-.43l.55.99c-.61.42-1.39.68-2.16.68-1.72,0-3.06-1.2-3.06-3.22ZM431.21,194.25c0-.84-.37-1.36-1.17-1.36-.65,0-1.22.46-1.34,1.36h2.51Z"/><path class="cls-16" d="M433.82,191.79h1.32l.11.64h.04c.52-.44,1.15-.79,1.81-.79,1.52,0,2.42,1.24,2.42,3.14,0,2.11-1.27,3.33-2.62,3.33-.54,0-1.06-.24-1.53-.67l.04,1.01v1.87h-1.61v-8.53ZM437.87,194.79c0-1.18-.37-1.83-1.22-1.83-.42,0-.79.21-1.22.64v2.71c.4.34.79.46,1.12.46.75,0,1.32-.64,1.32-1.98Z"/><path class="cls-16" d="M440.49,196.27c0-1.32,1.07-2.01,3.54-2.28-.02-.61-.29-1.07-1.04-1.07-.57,0-1.12.25-1.69.58l-.58-1.07c.73-.45,1.61-.81,2.57-.81,1.56,0,2.37.94,2.37,2.72v3.6h-1.32l-.12-.66h-.03c-.54.46-1.16.81-1.86.81-1.1,0-1.83-.78-1.83-1.83ZM444.03,196.23v-1.24c-1.5.2-2,.61-2,1.16,0,.48.34.69.81.69s.8-.22,1.19-.61Z"/><path class="cls-16" d="M447.18,191.79h1.32l.11,1.09h.04c.45-.8,1.11-1.24,1.75-1.24.34,0,.54.05.73.13l-.29,1.4c-.21-.07-.38-.1-.64-.1-.48,0-1.07.32-1.42,1.21v3.67h-1.61v-6.16Z"/><path class="cls-16" d="M452.1,195.79v-2.73h-.87v-1.2l.95-.08.19-1.65h1.35v1.65h1.52v1.28h-1.52v2.73c0,.7.29,1.03.84,1.03.2,0,.44-.07.6-.13l.26,1.18c-.33.11-.76.23-1.3.23-1.46,0-2.02-.92-2.02-2.31Z"/><path class="cls-16" d="M456.38,191.79h1.32l.11.83h.04c.52-.54,1.09-.98,1.89-.98.88,0,1.4.4,1.69,1.08.56-.59,1.16-1.08,1.96-1.08,1.31,0,1.92.92,1.92,2.48v3.84h-1.62v-3.64c0-.95-.28-1.29-.86-1.29-.35,0-.75.23-1.19.69v4.24h-1.62v-3.64c0-.95-.27-1.29-.86-1.29-.35,0-.75.23-1.19.69v4.24h-1.61v-6.16Z"/><path class="cls-16" d="M466.49,194.88c0-2,1.4-3.25,2.87-3.25,1.69,0,2.57,1.24,2.57,2.95,0,.3-.03.59-.08.74h-3.79c.13,1.01.79,1.54,1.71,1.54.51,0,.95-.15,1.39-.43l.55.99c-.61.42-1.39.68-2.16.68-1.72,0-3.06-1.2-3.06-3.22ZM470.55,194.25c0-.84-.37-1.36-1.17-1.36-.65,0-1.22.46-1.34,1.36h2.51Z"/><path class="cls-16" d="M473.16,191.79h1.32l.11.81h.04c.54-.53,1.17-.97,2-.97,1.33,0,1.9.92,1.9,2.48v3.84h-1.62v-3.64c0-.95-.26-1.29-.87-1.29-.51,0-.83.24-1.29.69v4.24h-1.61v-6.16Z"/><path class="cls-16" d="M480.33,195.79v-2.73h-.87v-1.2l.95-.08.19-1.65h1.35v1.65h1.52v1.28h-1.52v2.73c0,.7.29,1.03.84,1.03.2,0,.44-.07.6-.13l.26,1.18c-.33.11-.76.23-1.3.23-1.46,0-2.02-.92-2.02-2.31Z"/><path class="cls-16" d="M248.87,232.41l2.02-2.73c1.29,1.26,2.88,2.23,4.84,2.23,2.2,0,3.7-1.09,3.7-3.02,0-2.14-1.26-3.46-5.99-3.46v-3.11c3.99,0,5.28-1.38,5.28-3.32,0-1.7-1.06-2.7-2.91-2.73-1.55.03-2.82.76-4.11,1.94l-2.2-2.64c1.88-1.64,3.96-2.67,6.51-2.67,4.2,0,7.04,2.05,7.04,5.78,0,2.35-1.32,4.05-3.64,4.96v.15c2.46.67,4.34,2.49,4.34,5.34,0,3.99-3.49,6.31-7.63,6.31-3.43,0-5.75-1.29-7.28-3.02Z"/><path class="cls-16" d="M268.88,230.38c.79.85,2.14,1.53,3.43,1.53,2.43,0,4.46-1.85,4.64-7.31-1.12,1.47-2.96,2.38-4.46,2.38-3.61,0-6.22-2.23-6.22-6.84s3.11-7.25,6.84-7.25c4.11,0,7.8,3.23,7.8,10.77,0,8.22-4.02,11.77-8.33,11.77-2.7,0-4.67-1.14-5.96-2.46l2.26-2.58ZM276.89,221.58c-.38-3.96-1.88-5.43-3.73-5.43-1.61,0-2.93,1.32-2.93,3.99s1.2,3.76,3.08,3.76c1.17,0,2.52-.65,3.58-2.32Z"/><path class="cls-16" d="M283.53,225.41c0-2.19,1.1-3.43,2.65-3.43s2.65,1.25,2.65,3.43-1.08,3.48-2.65,3.48-2.65-1.29-2.65-3.48ZM287.32,225.41c0-1.6-.5-2.21-1.14-2.21s-1.13.62-1.13,2.21.5,2.24,1.13,2.24,1.14-.65,1.14-2.24ZM292.47,221.98h1.29l-5.94,11.29h-1.28l5.92-11.29ZM291.44,229.81c0-2.19,1.11-3.45,2.67-3.45s2.65,1.26,2.65,3.45-1.1,3.46-2.65,3.46-2.67-1.29-2.67-3.46ZM295.24,229.81c0-1.61-.48-2.21-1.13-2.21s-1.14.6-1.14,2.21.5,2.24,1.14,2.24,1.13-.66,1.13-2.24Z"/><path class="cls-16" d="M336.57,232.41l2.02-2.73c1.29,1.26,2.88,2.23,4.84,2.23,2.2,0,3.7-1.09,3.7-3.02,0-2.14-1.26-3.46-5.99-3.46v-3.11c3.99,0,5.28-1.38,5.28-3.32,0-1.7-1.06-2.7-2.91-2.73-1.55.03-2.82.76-4.11,1.94l-2.2-2.64c1.88-1.64,3.96-2.67,6.51-2.67,4.2,0,7.04,2.05,7.04,5.78,0,2.35-1.32,4.05-3.64,4.96v.15c2.46.67,4.34,2.49,4.34,5.34,0,3.99-3.49,6.31-7.63,6.31-3.43,0-5.75-1.29-7.28-3.02Z"/><path class="cls-16" d="M354.09,224.07c0-7.51,2.93-11.18,7.37-11.18s7.34,3.7,7.34,11.18-2.93,11.36-7.34,11.36-7.37-3.87-7.37-11.36ZM364.71,224.07c0-6.07-1.41-7.83-3.26-7.83s-3.29,1.76-3.29,7.83,1.41,7.98,3.29,7.98,3.26-1.88,3.26-7.98Z"/><path class="cls-16" d="M371.23,225.41c0-2.19,1.1-3.43,2.65-3.43s2.65,1.25,2.65,3.43-1.08,3.48-2.65,3.48-2.65-1.29-2.65-3.48ZM375.02,225.41c0-1.6-.5-2.21-1.14-2.21s-1.13.62-1.13,2.21.5,2.24,1.13,2.24,1.14-.65,1.14-2.24ZM380.17,221.98h1.29l-5.94,11.29h-1.28l5.92-11.29ZM379.14,229.81c0-2.19,1.11-3.45,2.67-3.45s2.65,1.26,2.65,3.45-1.1,3.46-2.65,3.46-2.67-1.29-2.67-3.46ZM382.94,229.81c0-1.61-.48-2.21-1.13-2.21s-1.14.6-1.14,2.21.5,2.24,1.14,2.24,1.13-.66,1.13-2.24Z"/><path class="cls-16" d="M431.87,231.53h4.67v-13.73h-3.93v-2.67c2.17-.41,3.67-.97,5.05-1.82h3.2v18.22h4.08v3.49h-13.06v-3.49Z"/><path class="cls-16" d="M457.69,216.91h-9.77v-3.61h14.44v2.61c-5.05,6.16-5.72,10.59-6.07,19.1h-4.37c.38-7.54,1.64-12.35,5.78-18.1Z"/><path class="cls-16" d="M462.33,225.41c0-2.19,1.1-3.43,2.65-3.43s2.65,1.25,2.65,3.43-1.08,3.48-2.65,3.48-2.65-1.29-2.65-3.48ZM466.13,225.41c0-1.6-.5-2.21-1.14-2.21s-1.13.62-1.13,2.21.5,2.24,1.13,2.24,1.14-.65,1.14-2.24ZM471.27,221.98h1.29l-5.94,11.29h-1.28l5.92-11.29ZM470.25,229.81c0-2.19,1.11-3.45,2.67-3.45s2.65,1.26,2.65,3.45-1.1,3.46-2.65,3.46-2.67-1.29-2.67-3.46ZM474.04,229.81c0-1.61-.48-2.21-1.13-2.21s-1.14.6-1.14,2.21.5,2.24,1.14,2.24,1.13-.66,1.13-2.24Z"/><path class="cls-16" d="M531.54,230.38c.79.85,2.14,1.53,3.43,1.53,2.43,0,4.46-1.85,4.64-7.31-1.12,1.47-2.96,2.38-4.46,2.38-3.61,0-6.22-2.23-6.22-6.84s3.11-7.25,6.84-7.25c4.11,0,7.8,3.23,7.8,10.77,0,8.22-4.02,11.77-8.33,11.77-2.7,0-4.67-1.14-5.96-2.46l2.26-2.58ZM539.55,221.58c-.38-3.96-1.88-5.43-3.73-5.43-1.61,0-2.93,1.32-2.93,3.99s1.2,3.76,3.08,3.76c1.17,0,2.52-.65,3.58-2.32Z"/><path class="cls-16" d="M545.95,225.41c0-2.19,1.1-3.43,2.65-3.43s2.65,1.25,2.65,3.43-1.08,3.48-2.65,3.48-2.65-1.29-2.65-3.48ZM549.75,225.41c0-1.6-.5-2.21-1.14-2.21s-1.13.62-1.13,2.21.5,2.24,1.13,2.24,1.14-.65,1.14-2.24ZM554.9,221.98h1.29l-5.94,11.29h-1.28l5.92-11.29ZM553.87,229.81c0-2.19,1.11-3.45,2.67-3.45s2.65,1.26,2.65,3.45-1.1,3.46-2.65,3.46-2.67-1.29-2.67-3.46ZM557.67,229.81c0-1.61-.48-2.21-1.13-2.21s-1.14.6-1.14,2.21.5,2.24,1.14,2.24,1.13-.66,1.13-2.24Z"/><path class="cls-16" d="M620.48,232.46l2-2.76c1.23,1.2,2.76,2.2,4.78,2.2,2.26,0,3.84-1.44,3.84-3.99s-1.47-3.93-3.67-3.93c-1.29,0-2,.32-3.26,1.14l-1.97-1.29.59-10.53h11.62v3.61h-7.89l-.41,4.61c.85-.41,1.61-.62,2.61-.62,3.64,0,6.69,2.17,6.69,6.9s-3.58,7.63-7.6,7.63c-3.43,0-5.72-1.35-7.34-2.96Z"/><path class="cls-16" d="M637.91,225.41c0-2.19,1.1-3.43,2.65-3.43s2.65,1.25,2.65,3.43-1.08,3.48-2.65,3.48-2.65-1.29-2.65-3.48ZM641.7,225.41c0-1.6-.5-2.21-1.14-2.21s-1.13.62-1.13,2.21.5,2.24,1.13,2.24,1.14-.65,1.14-2.24ZM646.85,221.98h1.29l-5.94,11.29h-1.28l5.92-11.29ZM645.82,229.81c0-2.19,1.11-3.45,2.67-3.45s2.65,1.26,2.65,3.45-1.1,3.46-2.65,3.46-2.67-1.29-2.67-3.46ZM649.62,229.81c0-1.61-.48-2.21-1.13-2.21s-1.14.6-1.14,2.21.5,2.24,1.14,2.24,1.13-.66,1.13-2.24Z"/><path class="cls-16" d="M515.87,169.91c0-2.68,1.74-4.26,3.91-4.26,1.18,0,1.99.51,2.52,1.05l-.87,1.03c-.4-.39-.86-.68-1.59-.68-1.35,0-2.3,1.06-2.3,2.81s.81,2.84,2.41,2.84c.4,0,.79-.11,1.02-.31v-1.61h-1.44v-1.33h2.89v3.67c-.55.54-1.51.98-2.64.98-2.22,0-3.91-1.47-3.91-4.19Z"/><path class="cls-16" d="M523.54,170.88c0-2,1.4-3.25,2.87-3.25,1.69,0,2.57,1.24,2.57,2.95,0,.3-.03.59-.08.74h-3.79c.13,1.01.79,1.54,1.71,1.54.51,0,.95-.15,1.39-.43l.55.99c-.61.42-1.39.68-2.16.68-1.72,0-3.06-1.2-3.06-3.22ZM527.6,170.25c0-.84-.37-1.36-1.17-1.36-.65,0-1.22.46-1.34,1.36h2.51Z"/><path class="cls-16" d="M530.2,167.79h1.32l.11.81h.04c.54-.53,1.17-.97,2-.97,1.33,0,1.9.92,1.9,2.48v3.84h-1.62v-3.64c0-.95-.26-1.29-.87-1.29-.51,0-.83.24-1.29.69v4.24h-1.61v-6.16Z"/><path class="cls-16" d="M536.76,170.88c0-2,1.4-3.25,2.87-3.25,1.69,0,2.57,1.24,2.57,2.95,0,.3-.03.59-.08.74h-3.79c.13,1.01.79,1.54,1.71,1.54.51,0,.95-.15,1.39-.43l.55.99c-.61.42-1.39.68-2.16.68-1.72,0-3.06-1.2-3.06-3.22ZM540.82,170.25c0-.84-.37-1.36-1.17-1.36-.65,0-1.22.46-1.34,1.36h2.51Z"/><path class="cls-16" d="M543.42,167.79h1.32l.11,1.09h.04c.45-.8,1.11-1.24,1.75-1.24.34,0,.54.05.73.13l-.29,1.4c-.21-.07-.38-.1-.64-.1-.48,0-1.07.32-1.42,1.21v3.67h-1.61v-6.16Z"/><path class="cls-16" d="M547.8,172.27c0-1.32,1.07-2.01,3.54-2.28-.02-.61-.29-1.07-1.04-1.07-.57,0-1.12.25-1.69.58l-.58-1.07c.73-.45,1.61-.81,2.57-.81,1.56,0,2.37.94,2.37,2.72v3.6h-1.32l-.12-.66h-.03c-.54.46-1.16.81-1.86.81-1.1,0-1.83-.78-1.83-1.83ZM551.34,172.23v-1.24c-1.5.2-2,.61-2,1.16,0,.48.34.69.81.69s.8-.22,1.19-.61Z"/><path class="cls-16" d="M554.5,172.22v-7.05h1.61v7.13c0,.36.18.48.33.48.07,0,.11,0,.22-.02l.2,1.2c-.19.08-.46.14-.84.14-1.12,0-1.52-.74-1.52-1.88Z"/><path class="cls-16" d="M512.41,183.86h-2.64l-.57,2.09h-1.65l2.61-8.14h1.91l2.62,8.14h-1.71l-.57-2.09ZM512.05,182.59l-.24-.89c-.25-.85-.47-1.78-.71-2.66h-.04c-.21.89-.45,1.82-.69,2.66l-.24.89h1.94Z"/><path class="cls-16" d="M522.53,178.42c-.22-.08-.45-.13-.66-.13-.48,0-.75.29-.75.97v.53h1.17v1.28h-1.17v4.88h-1.61v-4.88h-2.22v4.88h-1.62v-4.88h-.83v-1.2l.83-.07v-.43c0-1.27.65-2.23,2.21-2.23.5,0,.95.11,1.24.23l-.3,1.2c-.22-.1-.43-.15-.75-.15-.47,0-.79.32-.79.96v.42h2.22v-.5c0-1.29.59-2.28,2.13-2.28.48,0,.9.11,1.18.22l-.3,1.19Z"/><path class="cls-16" d="M522.9,184.27c0-1.32,1.07-2.01,3.54-2.28-.02-.61-.29-1.07-1.04-1.07-.57,0-1.12.25-1.69.58l-.58-1.07c.73-.45,1.61-.81,2.57-.81,1.56,0,2.37.94,2.37,2.72v3.6h-1.32l-.12-.66h-.03c-.54.46-1.16.81-1.86.81-1.1,0-1.83-.78-1.83-1.83ZM526.44,184.23v-1.24c-1.5.2-2,.61-2,1.16,0,.48.34.69.81.69s.8-.22,1.19-.61Z"/><path class="cls-16" d="M529.44,177.91c0-.53.41-.88.97-.88s.96.35.96.88-.41.88-.96.88-.97-.37-.97-.88ZM529.6,179.79h1.61v6.16h-1.61v-6.16Z"/><path class="cls-16" d="M532.83,179.79h1.32l.11,1.09h.04c.45-.8,1.11-1.24,1.75-1.24.34,0,.54.05.73.13l-.29,1.4c-.21-.07-.38-.1-.64-.1-.48,0-1.07.32-1.42,1.21v3.67h-1.61v-6.16Z"/><path class="cls-16" d="M536.94,185.23l.74-1.01c.55.43,1.08.67,1.65.67.62,0,.89-.26.89-.65,0-.46-.64-.67-1.29-.92-.78-.3-1.68-.77-1.68-1.79,0-1.11.9-1.89,2.29-1.89.9,0,1.58.37,2.1.76l-.73.98c-.44-.31-.87-.53-1.33-.53-.55,0-.81.24-.81.59,0,.45.61.62,1.25.86.81.31,1.72.72,1.72,1.86,0,1.08-.85,1.95-2.45,1.95-.82,0-1.74-.36-2.34-.87Z"/><path class="cls-16" d="M544.93,184.27c0-1.32,1.07-2.01,3.54-2.28-.02-.61-.29-1.07-1.04-1.07-.57,0-1.12.25-1.69.58l-.58-1.07c.73-.45,1.61-.81,2.57-.81,1.56,0,2.37.94,2.37,2.72v3.6h-1.32l-.12-.66h-.03c-.54.46-1.16.81-1.86.81-1.1,0-1.83-.78-1.83-1.83ZM548.48,184.23v-1.24c-1.5.2-2,.61-2,1.16,0,.48.34.69.81.69s.8-.22,1.19-.61Z"/><path class="cls-16" d="M551.63,179.79h1.32l.11.81h.04c.54-.53,1.17-.97,2-.97,1.33,0,1.9.92,1.9,2.48v3.84h-1.62v-3.64c0-.95-.26-1.29-.87-1.29-.51,0-.83.24-1.29.69v4.24h-1.61v-6.16Z"/><path class="cls-16" d="M558.22,182.88c0-2.01,1.25-3.25,2.59-3.25.69,0,1.12.26,1.56.67l-.07-.97v-2.17h1.62v8.78h-1.31l-.13-.64h-.03c-.45.44-1.07.79-1.71.79-1.53,0-2.52-1.21-2.52-3.22ZM562.3,184.13v-2.71c-.37-.34-.76-.46-1.14-.46-.69,0-1.28.66-1.28,1.89s.46,1.91,1.28,1.91c.43,0,.79-.18,1.14-.64Z"/><path class="cls-16" d="M512.11,195.86h-2.64l-.57,2.09h-1.65l2.61-8.14h1.91l2.62,8.14h-1.71l-.57-2.09ZM511.76,194.59l-.24-.89c-.25-.85-.47-1.78-.71-2.66h-.04c-.21.89-.45,1.82-.69,2.66l-.24.89h1.94Z"/><path class="cls-16" d="M514.72,194.88c0-2.06,1.47-3.25,3.15-3.25.76,0,1.34.3,1.79.68l-.77,1.05c-.31-.26-.59-.41-.95-.41-.94,0-1.57.76-1.57,1.93s.64,1.9,1.53,1.9c.44,0,.86-.21,1.2-.49l.64,1.07c-.58.52-1.33.75-2.01.75-1.71,0-3-1.19-3-3.22Z"/><path class="cls-16" d="M520.4,194.88c0-2.06,1.47-3.25,3.15-3.25.76,0,1.34.3,1.79.68l-.77,1.05c-.31-.26-.59-.41-.95-.41-.94,0-1.57.76-1.57,1.93s.64,1.9,1.53,1.9c.44,0,.86-.21,1.2-.49l.64,1.07c-.58.52-1.33.75-2.01.75-1.71,0-3-1.19-3-3.22Z"/><path class="cls-16" d="M526.09,194.88c0-2.06,1.42-3.25,2.96-3.25s2.96,1.19,2.96,3.25-1.42,3.22-2.96,3.22-2.96-1.19-2.96-3.22ZM530.36,194.88c0-1.17-.47-1.93-1.31-1.93s-1.31.76-1.31,1.93.47,1.9,1.31,1.9,1.31-.75,1.31-1.9Z"/><path class="cls-16" d="M533.18,195.64v-3.85h1.62v3.64c0,.96.26,1.29.86,1.29.51,0,.84-.22,1.25-.77v-4.16h1.62v6.16h-1.32l-.12-.88h-.04c-.53.63-1.12,1.03-1.97,1.03-1.32,0-1.89-.92-1.89-2.46Z"/><path class="cls-16" d="M540.15,191.79h1.32l.11.81h.04c.54-.53,1.17-.97,2-.97,1.33,0,1.9.92,1.9,2.48v3.84h-1.62v-3.64c0-.95-.26-1.29-.87-1.29-.51,0-.83.24-1.29.69v4.24h-1.61v-6.16Z"/><path class="cls-16" d="M547.32,195.79v-2.73h-.87v-1.2l.95-.08.19-1.65h1.35v1.65h1.52v1.28h-1.52v2.73c0,.7.29,1.03.84,1.03.2,0,.44-.07.6-.13l.26,1.18c-.33.11-.76.23-1.3.23-1.46,0-2.02-.92-2.02-2.31Z"/><path class="cls-16" d="M551.44,189.91c0-.53.41-.88.97-.88s.96.35.96.88-.41.88-.96.88-.97-.37-.97-.88ZM551.6,191.79h1.61v6.16h-1.61v-6.16Z"/><path class="cls-16" d="M554.83,191.79h1.32l.11.81h.04c.54-.53,1.17-.97,2-.97,1.33,0,1.9.92,1.9,2.48v3.84h-1.62v-3.64c0-.95-.26-1.29-.87-1.29-.51,0-.83.24-1.29.69v4.24h-1.61v-6.16Z"/><path class="cls-16" d="M561.37,199.04c0-.52.32-.96.88-1.28v-.05c-.32-.21-.56-.53-.56-1.03,0-.46.32-.89.68-1.16v-.04c-.42-.31-.81-.89-.81-1.61,0-1.45,1.18-2.23,2.49-2.23.34,0,.67.07.92.15h2.22v1.19h-1.06c.17.21.29.55.29.94,0,1.39-1.06,2.09-2.38,2.09-.24,0-.53-.05-.79-.14-.18.14-.26.29-.26.53,0,.33.24.51.97.51h1.04c1.49,0,2.29.46,2.29,1.54,0,1.24-1.29,2.19-3.34,2.19-1.45,0-2.57-.5-2.57-1.58ZM565.74,198.71c0-.44-.36-.55-1.02-.55h-.75c-.37,0-.64-.03-.86-.09-.27.22-.41.46-.41.72,0,.52.57.81,1.47.81s1.56-.41,1.56-.89ZM565,193.86c0-.73-.41-1.13-.96-1.13s-.97.41-.97,1.13.43,1.13.97,1.13.96-.41.96-1.13Z"/><path class="cls-16" d="M614.31,178.41l.94-1.12c.58.54,1.35.9,2.07.9.85,0,1.3-.36,1.3-.94,0-.61-.5-.79-1.22-1.1l-1.09-.46c-.83-.34-1.65-1-1.65-2.19,0-1.33,1.17-2.35,2.82-2.35.95,0,1.89.37,2.55,1.05l-.83,1.02c-.52-.43-1.06-.67-1.73-.67-.71,0-1.18.32-1.18.86,0,.58.58.79,1.28,1.07l1.07.45c.99.41,1.64,1.03,1.64,2.21,0,1.33-1.11,2.46-2.99,2.46-1.09,0-2.18-.43-2.97-1.19Z"/><path class="cls-16" d="M621.16,177.77c0-1.32,1.07-2.01,3.54-2.28-.02-.61-.29-1.07-1.04-1.07-.57,0-1.12.25-1.69.58l-.58-1.07c.73-.45,1.61-.81,2.57-.81,1.56,0,2.37.94,2.37,2.72v3.6h-1.32l-.12-.66h-.03c-.54.46-1.16.81-1.86.81-1.1,0-1.83-.78-1.83-1.83ZM624.7,177.73v-1.24c-1.5.2-2,.61-2,1.16,0,.48.34.69.81.69s.8-.22,1.19-.61Z"/><path class="cls-16" d="M627.86,177.72v-7.05h1.61v7.13c0,.36.18.48.33.48.07,0,.11,0,.22-.02l.2,1.2c-.19.08-.46.14-.84.14-1.12,0-1.52-.74-1.52-1.88Z"/><path class="cls-16" d="M630.83,176.38c0-2,1.4-3.25,2.87-3.25,1.69,0,2.57,1.24,2.57,2.95,0,.3-.03.59-.08.74h-3.79c.13,1.01.79,1.54,1.71,1.54.51,0,.95-.15,1.39-.43l.55.99c-.61.42-1.39.68-2.16.68-1.72,0-3.06-1.2-3.06-3.22ZM634.89,175.75c0-.84-.37-1.36-1.17-1.36-.65,0-1.22.46-1.34,1.36h2.51Z"/><path class="cls-16" d="M636.91,178.73l.74-1.01c.55.43,1.08.67,1.65.67.62,0,.89-.26.89-.65,0-.46-.64-.67-1.29-.92-.78-.3-1.68-.77-1.68-1.79,0-1.11.9-1.89,2.29-1.89.9,0,1.58.37,2.1.76l-.73.98c-.44-.31-.87-.53-1.33-.53-.55,0-.81.24-.81.59,0,.45.61.62,1.25.86.81.31,1.72.72,1.72,1.86,0,1.08-.85,1.95-2.45,1.95-.82,0-1.74-.36-2.34-.87Z"/><path class="cls-16" d="M596.5,183.3h2.23c2.49,0,4.03,1.29,4.03,4.04s-1.54,4.1-3.94,4.1h-2.32v-8.14ZM598.63,190.14c1.52,0,2.46-.81,2.46-2.79s-.95-2.74-2.46-2.74h-.51v5.53h.51Z"/><path class="cls-16" d="M603.72,188.38c0-2,1.4-3.25,2.87-3.25,1.69,0,2.57,1.24,2.57,2.95,0,.3-.03.59-.08.74h-3.79c.13,1.01.79,1.54,1.71,1.54.51,0,.95-.15,1.39-.43l.55.99c-.61.42-1.39.68-2.16.68-1.72,0-3.06-1.2-3.06-3.22ZM607.78,187.75c0-.84-.37-1.36-1.17-1.36-.65,0-1.22.46-1.34,1.36h2.51Z"/><path class="cls-16" d="M610.39,185.29h1.32l.11.64h.04c.52-.44,1.15-.79,1.81-.79,1.52,0,2.42,1.24,2.42,3.14,0,2.11-1.27,3.33-2.62,3.33-.54,0-1.06-.24-1.53-.67l.04,1.01v1.87h-1.61v-8.53ZM614.44,188.29c0-1.18-.37-1.83-1.22-1.83-.42,0-.79.21-1.22.64v2.71c.4.34.79.46,1.12.46.75,0,1.32-.64,1.32-1.98Z"/><path class="cls-16" d="M617.06,189.77c0-1.32,1.07-2.01,3.54-2.28-.02-.61-.29-1.07-1.04-1.07-.57,0-1.12.25-1.69.58l-.58-1.07c.73-.45,1.61-.81,2.57-.81,1.56,0,2.37.94,2.37,2.72v3.6h-1.32l-.12-.66h-.03c-.54.46-1.16.81-1.86.81-1.1,0-1.83-.78-1.83-1.83ZM620.6,189.73v-1.24c-1.5.2-2,.61-2,1.16,0,.48.34.69.81.69s.8-.22,1.19-.61Z"/><path class="cls-16" d="M623.75,185.29h1.32l.11,1.09h.04c.45-.8,1.11-1.24,1.75-1.24.34,0,.54.05.73.13l-.29,1.4c-.21-.07-.38-.1-.64-.1-.48,0-1.07.32-1.42,1.21v3.67h-1.61v-6.16Z"/><path class="cls-16" d="M628.67,189.29v-2.73h-.87v-1.2l.95-.08.19-1.65h1.35v1.65h1.52v1.28h-1.52v2.73c0,.7.29,1.03.84,1.03.2,0,.44-.07.6-.13l.26,1.18c-.33.11-.76.23-1.3.23-1.46,0-2.02-.92-2.02-2.31Z"/><path class="cls-16" d="M632.95,185.29h1.32l.11.83h.04c.52-.54,1.09-.98,1.89-.98.88,0,1.4.4,1.69,1.08.56-.59,1.16-1.08,1.96-1.08,1.31,0,1.92.92,1.92,2.48v3.84h-1.62v-3.64c0-.95-.28-1.29-.86-1.29-.35,0-.75.23-1.19.69v4.24h-1.62v-3.64c0-.95-.27-1.29-.86-1.29-.35,0-.75.23-1.19.69v4.24h-1.61v-6.16Z"/><path class="cls-16" d="M643.06,188.38c0-2,1.4-3.25,2.87-3.25,1.69,0,2.57,1.24,2.57,2.95,0,.3-.03.59-.08.74h-3.79c.13,1.01.79,1.54,1.71,1.54.51,0,.95-.15,1.39-.43l.55.99c-.61.42-1.39.68-2.16.68-1.72,0-3.06-1.2-3.06-3.22ZM647.12,187.75c0-.84-.37-1.36-1.17-1.36-.65,0-1.22.46-1.34,1.36h2.51Z"/><path class="cls-16" d="M649.72,185.29h1.32l.11.81h.04c.54-.53,1.17-.97,2-.97,1.33,0,1.9.92,1.9,2.48v3.84h-1.62v-3.64c0-.95-.26-1.29-.87-1.29-.51,0-.83.24-1.29.69v4.24h-1.61v-6.16Z"/><path class="cls-16" d="M656.9,189.29v-2.73h-.87v-1.2l.95-.08.19-1.65h1.35v1.65h1.52v1.28h-1.52v2.73c0,.7.29,1.03.84,1.03.2,0,.44-.07.6-.13l.26,1.18c-.33.11-.76.23-1.3.23-1.46,0-2.02-.92-2.02-2.31Z"/><path class="cls-16" d="M331.77,165.8h2.67c1.8,0,3.19.63,3.19,2.55s-1.4,2.7-3.15,2.7h-1.09v2.89h-1.63v-8.14ZM334.37,169.77c1.12,0,1.66-.47,1.66-1.41s-.59-1.27-1.72-1.27h-.92v2.67h.98Z"/><path class="cls-16" d="M338.8,171.64v-3.85h1.62v3.64c0,.96.26,1.29.86,1.29.51,0,.84-.22,1.25-.77v-4.16h1.62v6.16h-1.32l-.12-.88h-.04c-.53.63-1.12,1.03-1.97,1.03-1.32,0-1.89-.92-1.89-2.46Z"/><path class="cls-16" d="M345.76,167.79h1.32l.11,1.09h.04c.45-.8,1.11-1.24,1.75-1.24.34,0,.54.05.73.13l-.29,1.4c-.21-.07-.38-.1-.64-.1-.48,0-1.07.32-1.42,1.21v3.67h-1.61v-6.16Z"/><path class="cls-16" d="M350.06,170.88c0-2.06,1.47-3.25,3.15-3.25.76,0,1.34.3,1.79.68l-.77,1.05c-.31-.26-.59-.41-.95-.41-.94,0-1.57.76-1.57,1.93s.64,1.9,1.53,1.9c.44,0,.86-.21,1.2-.49l.64,1.07c-.58.52-1.33.75-2.01.75-1.71,0-3-1.19-3-3.22Z"/><path class="cls-16" d="M356.13,165.17h1.61v2.21l-.07,1.16c.5-.46,1.1-.9,1.94-.9,1.33,0,1.9.92,1.9,2.48v3.84h-1.62v-3.64c0-.95-.26-1.29-.87-1.29-.51,0-.83.24-1.29.69v4.24h-1.61v-8.78Z"/><path class="cls-16" d="M362.75,172.27c0-1.32,1.07-2.01,3.54-2.28-.02-.61-.29-1.07-1.04-1.07-.57,0-1.12.25-1.69.58l-.58-1.07c.73-.45,1.61-.81,2.57-.81,1.56,0,2.37.94,2.37,2.72v3.6h-1.32l-.12-.66h-.03c-.54.46-1.16.81-1.86.81-1.1,0-1.83-.78-1.83-1.83ZM366.3,172.23v-1.24c-1.5.2-2,.61-2,1.16,0,.48.34.69.81.69s.8-.22,1.19-.61Z"/><path class="cls-16" d="M368.87,173.23l.74-1.01c.55.43,1.08.67,1.65.67.62,0,.89-.26.89-.65,0-.46-.64-.67-1.29-.92-.78-.3-1.68-.77-1.68-1.79,0-1.11.9-1.89,2.29-1.89.9,0,1.58.37,2.1.76l-.73.98c-.44-.31-.87-.53-1.33-.53-.55,0-.81.24-.81.59,0,.45.61.62,1.25.86.81.31,1.72.72,1.72,1.86,0,1.08-.85,1.95-2.45,1.95-.82,0-1.74-.36-2.34-.87Z"/><path class="cls-16" d="M374.63,165.91c0-.53.41-.88.97-.88s.96.35.96.88-.41.88-.96.88-.97-.37-.97-.88ZM374.79,167.79h1.61v6.16h-1.61v-6.16Z"/><path class="cls-16" d="M378.02,167.79h1.32l.11.81h.04c.54-.53,1.17-.97,2-.97,1.33,0,1.9.92,1.9,2.48v3.84h-1.62v-3.64c0-.95-.26-1.29-.87-1.29-.51,0-.83.24-1.29.69v4.24h-1.61v-6.16Z"/><path class="cls-16" d="M384.56,175.04c0-.52.32-.96.88-1.28v-.05c-.32-.21-.56-.53-.56-1.03,0-.46.32-.89.68-1.16v-.04c-.42-.31-.81-.89-.81-1.61,0-1.45,1.18-2.23,2.49-2.23.34,0,.67.07.92.15h2.22v1.19h-1.06c.17.21.29.55.29.94,0,1.39-1.06,2.09-2.38,2.09-.24,0-.53-.05-.79-.14-.18.14-.26.29-.26.53,0,.33.24.51.97.51h1.04c1.49,0,2.29.46,2.29,1.54,0,1.24-1.29,2.19-3.34,2.19-1.45,0-2.57-.5-2.57-1.58ZM388.93,174.71c0-.44-.36-.55-1.02-.55h-.75c-.37,0-.64-.03-.86-.09-.27.22-.41.46-.41.72,0,.52.57.81,1.47.81s1.56-.41,1.56-.89ZM388.19,169.86c0-.73-.41-1.13-.96-1.13s-.97.41-.97,1.13.43,1.13.97,1.13.96-.41.96-1.13Z"/><path class="cls-16" d="M325.14,184.27c0-1.32,1.07-2.01,3.54-2.28-.02-.61-.29-1.07-1.04-1.07-.57,0-1.12.25-1.69.58l-.58-1.07c.73-.45,1.61-.81,2.57-.81,1.56,0,2.37.94,2.37,2.72v3.6h-1.32l-.12-.66h-.03c-.54.46-1.16.81-1.86.81-1.1,0-1.83-.78-1.83-1.83ZM328.68,184.23v-1.24c-1.5.2-2,.61-2,1.16,0,.48.34.69.81.69s.8-.22,1.19-.61Z"/><path class="cls-16" d="M331.84,179.79h1.32l.11.81h.04c.54-.53,1.17-.97,2-.97,1.33,0,1.9.92,1.9,2.48v3.84h-1.62v-3.64c0-.95-.26-1.29-.87-1.29-.51,0-.83.24-1.29.69v4.24h-1.61v-6.16Z"/><path class="cls-16" d="M338.43,182.88c0-2.01,1.25-3.25,2.59-3.25.69,0,1.12.26,1.56.67l-.07-.97v-2.17h1.62v8.78h-1.31l-.13-.64h-.03c-.45.44-1.07.79-1.71.79-1.53,0-2.52-1.21-2.52-3.22ZM342.51,184.13v-2.71c-.37-.34-.76-.46-1.14-.46-.69,0-1.28.66-1.28,1.89s.46,1.91,1.28,1.91c.43,0,.79-.18,1.14-.64Z"/><path class="cls-16" d="M348.27,177.8h1.8l1.39,3.81c.18.51.33,1.05.5,1.57h.05c.18-.53.32-1.07.5-1.57l1.35-3.81h1.8v8.14h-1.49v-3.4c0-.77.12-1.9.2-2.67h-.04l-.66,1.91-1.25,3.42h-.93l-1.27-3.42-.65-1.91h-.04c.08.77.21,1.9.21,2.67v3.4h-1.46v-8.14Z"/><path class="cls-16" d="M357.12,184.27c0-1.32,1.07-2.01,3.54-2.28-.02-.61-.29-1.07-1.04-1.07-.57,0-1.12.25-1.69.58l-.58-1.07c.73-.45,1.61-.81,2.57-.81,1.56,0,2.37.94,2.37,2.72v3.6h-1.32l-.12-.66h-.03c-.54.46-1.16.81-1.86.81-1.1,0-1.83-.78-1.83-1.83ZM360.66,184.23v-1.24c-1.5.2-2,.61-2,1.16,0,.48.34.69.81.69s.8-.22,1.19-.61Z"/><path class="cls-16" d="M364.05,183.79v-2.73h-.87v-1.2l.95-.08.19-1.65h1.35v1.65h1.52v1.28h-1.52v2.73c0,.7.29,1.03.84,1.03.2,0,.44-.07.6-.13l.26,1.18c-.33.11-.76.23-1.3.23-1.46,0-2.02-.92-2.02-2.31Z"/><path class="cls-16" d="M367.94,182.88c0-2,1.4-3.25,2.87-3.25,1.69,0,2.57,1.24,2.57,2.95,0,.3-.03.59-.08.74h-3.79c.13,1.01.79,1.54,1.71,1.54.51,0,.95-.15,1.39-.43l.55.99c-.61.42-1.39.68-2.16.68-1.72,0-3.06-1.2-3.06-3.22ZM372,182.25c0-.84-.37-1.36-1.17-1.36-.65,0-1.22.46-1.34,1.36h2.51Z"/><path class="cls-16" d="M374.61,179.79h1.32l.11,1.09h.04c.45-.8,1.11-1.24,1.75-1.24.34,0,.54.05.73.13l-.29,1.4c-.21-.07-.38-.1-.64-.1-.48,0-1.07.32-1.42,1.21v3.67h-1.61v-6.16Z"/><path class="cls-16" d="M379.14,177.91c0-.53.41-.88.97-.88s.96.35.96.88-.41.88-.96.88-.97-.37-.97-.88ZM379.29,179.79h1.61v6.16h-1.61v-6.16Z"/><path class="cls-16" d="M382.22,184.27c0-1.32,1.07-2.01,3.54-2.28-.02-.61-.29-1.07-1.04-1.07-.57,0-1.12.25-1.69.58l-.58-1.07c.73-.45,1.61-.81,2.57-.81,1.56,0,2.37.94,2.37,2.72v3.6h-1.32l-.12-.66h-.03c-.54.46-1.16.81-1.86.81-1.1,0-1.83-.78-1.83-1.83ZM385.76,184.23v-1.24c-1.5.2-2,.61-2,1.16,0,.48.34.69.81.69s.8-.22,1.19-.61Z"/><path class="cls-16" d="M388.92,184.22v-7.05h1.61v7.13c0,.36.18.48.33.48.07,0,.11,0,.22-.02l.2,1.2c-.19.08-.46.14-.84.14-1.12,0-1.52-.74-1.52-1.88Z"/><path class="cls-16" d="M391.69,185.23l.74-1.01c.55.43,1.08.67,1.65.67.62,0,.89-.26.89-.65,0-.46-.64-.67-1.29-.92-.78-.3-1.68-.77-1.68-1.79,0-1.11.9-1.89,2.29-1.89.9,0,1.58.37,2.1.76l-.73.98c-.44-.31-.87-.53-1.33-.53-.55,0-.81.24-.81.59,0,.45.61.62,1.25.86.81.31,1.72.72,1.72,1.86,0,1.08-.85,1.95-2.45,1.95-.82,0-1.74-.36-2.34-.87Z"/><path class="cls-16" d="M330.45,189.8h2.23c2.49,0,4.03,1.29,4.03,4.04s-1.54,4.1-3.94,4.1h-2.32v-8.14ZM332.58,196.64c1.52,0,2.46-.81,2.46-2.79s-.95-2.74-2.46-2.74h-.51v5.53h.51Z"/><path class="cls-16" d="M337.67,194.88c0-2,1.4-3.25,2.87-3.25,1.69,0,2.57,1.24,2.57,2.95,0,.3-.03.59-.08.74h-3.79c.13,1.01.79,1.54,1.71,1.54.51,0,.95-.15,1.39-.43l.55.99c-.61.42-1.39.68-2.16.68-1.72,0-3.06-1.2-3.06-3.22ZM341.73,194.25c0-.84-.37-1.36-1.17-1.36-.65,0-1.22.46-1.34,1.36h2.51Z"/><path class="cls-16" d="M344.34,191.79h1.32l.11.64h.04c.52-.44,1.15-.79,1.81-.79,1.52,0,2.42,1.24,2.42,3.14,0,2.11-1.27,3.33-2.62,3.33-.54,0-1.06-.24-1.53-.67l.04,1.01v1.87h-1.61v-8.53ZM348.39,194.79c0-1.18-.37-1.83-1.22-1.83-.42,0-.79.21-1.22.64v2.71c.4.34.79.46,1.12.46.75,0,1.32-.64,1.32-1.98Z"/><path class="cls-16" d="M351.01,196.27c0-1.32,1.07-2.01,3.54-2.28-.02-.61-.29-1.07-1.04-1.07-.57,0-1.12.25-1.69.58l-.58-1.07c.73-.45,1.61-.81,2.57-.81,1.56,0,2.37.94,2.37,2.72v3.6h-1.32l-.12-.66h-.03c-.54.46-1.16.81-1.86.81-1.1,0-1.83-.78-1.83-1.83ZM354.55,196.23v-1.24c-1.5.2-2,.61-2,1.16,0,.48.34.69.81.69s.8-.22,1.19-.61Z"/><path class="cls-16" d="M357.7,191.79h1.32l.11,1.09h.04c.45-.8,1.11-1.24,1.75-1.24.34,0,.54.05.73.13l-.29,1.4c-.21-.07-.38-.1-.64-.1-.48,0-1.07.32-1.42,1.21v3.67h-1.61v-6.16Z"/><path class="cls-16" d="M362.62,195.79v-2.73h-.87v-1.2l.95-.08.19-1.65h1.35v1.65h1.52v1.28h-1.52v2.73c0,.7.29,1.03.84,1.03.2,0,.44-.07.6-.13l.26,1.18c-.33.11-.76.23-1.3.23-1.46,0-2.02-.92-2.02-2.31Z"/><path class="cls-16" d="M366.9,191.79h1.32l.11.83h.04c.52-.54,1.09-.98,1.89-.98.88,0,1.4.4,1.69,1.08.56-.59,1.16-1.08,1.96-1.08,1.31,0,1.92.92,1.92,2.48v3.84h-1.62v-3.64c0-.95-.28-1.29-.86-1.29-.35,0-.75.23-1.19.69v4.24h-1.62v-3.64c0-.95-.27-1.29-.86-1.29-.35,0-.75.23-1.19.69v4.24h-1.61v-6.16Z"/><path class="cls-16" d="M377.01,194.88c0-2,1.4-3.25,2.87-3.25,1.69,0,2.57,1.24,2.57,2.95,0,.3-.03.59-.08.74h-3.79c.13,1.01.79,1.54,1.71,1.54.51,0,.95-.15,1.39-.43l.55.99c-.61.42-1.39.68-2.16.68-1.72,0-3.06-1.2-3.06-3.22ZM381.07,194.25c0-.84-.37-1.36-1.17-1.36-.65,0-1.22.46-1.34,1.36h2.51Z"/><path class="cls-16" d="M383.67,191.79h1.32l.11.81h.04c.54-.53,1.17-.97,2-.97,1.33,0,1.9.92,1.9,2.48v3.84h-1.62v-3.64c0-.95-.26-1.29-.87-1.29-.51,0-.83.24-1.29.69v4.24h-1.61v-6.16Z"/><path class="cls-16" d="M390.85,195.79v-2.73h-.87v-1.2l.95-.08.19-1.65h1.35v1.65h1.52v1.28h-1.52v2.73c0,.7.29,1.03.84,1.03.2,0,.44-.07.6-.13l.26,1.18c-.33.11-.76.23-1.3.23-1.46,0-2.02-.92-2.02-2.31Z"/><path class="cls-2" d="M790.83,148.41l-57.14-61.28c15.97-14.9,35.3-22.51,57.14-22.51v83.79Z"/><path class="cls-4" d="M790.83,148.41l-56.06,62.27c-34.39-30.96-37.16-83.94-6.2-118.33,1.61-1.79,3.36-3.57,5.12-5.21l57.14,61.28Z"/><path class="cls-3" d="M790.83,148.41l77.13,32.74c-18.08,42.6-67.27,62.47-109.86,44.39-12.83-3.64-16.65-8.27-23.33-14.86l56.06-62.27Z"/><path class="cls-1" d="M790.83,148.41l80.93-21.69c5.03,18.77,3.79,36.53-3.81,54.42l-77.13-32.74Z"/><path class="cls-5" d="M790.83,148.41v-83.79c39.06,0,70.82,24.38,80.93,62.1l-80.93,21.69Z"/><path class="cls-16" d="M812.72,110.31c0-2.12.86-3.85,2.16-5.17l.65.34c-1.25,1.29-2.02,2.9-2.02,4.83s.77,3.54,2.02,4.83l-.65.34c-1.3-1.33-2.16-3.05-2.16-5.17Z"/><path class="cls-16" d="M816.4,113.85c2.5-2.18,3.65-3.77,3.65-5.14,0-.91-.48-1.58-1.47-1.58-.65,0-1.22.4-1.65.92l-.58-.56c.65-.71,1.34-1.17,2.35-1.17,1.42,0,2.31.93,2.31,2.36,0,1.59-1.25,3.21-3.12,4.98.41-.03.9-.08,1.3-.08h2.21v.86h-5.01v-.59Z"/><path class="cls-16" d="M822.79,113.61h1.77v-5.94h-1.41v-.63c.71-.13,1.22-.31,1.65-.56h.76v7.14h1.6v.83h-4.37v-.83Z"/><path class="cls-16" d="M828.55,113.83c0-.45.33-.77.72-.77s.72.33.72.77-.33.75-.72.75-.72-.3-.72-.75Z"/><path class="cls-16" d="M831.62,113.61h1.77v-5.94h-1.41v-.63c.71-.13,1.22-.31,1.65-.56h.76v7.14h1.6v.83h-4.37v-.83Z"/><path class="cls-16" d="M837.43,108.68c0-1.6.72-2.51,1.81-2.51s1.81.91,1.81,2.51-.73,2.53-1.81,2.53-1.81-.92-1.81-2.53ZM840.3,108.68c0-1.28-.42-1.89-1.05-1.89s-1.07.61-1.07,1.89.43,1.91,1.07,1.91,1.05-.64,1.05-1.91ZM843.89,106.17h.66l-4.41,8.28h-.66l4.41-8.28ZM842.99,111.92c0-1.6.72-2.51,1.8-2.51s1.81.91,1.81,2.51-.72,2.53-1.81,2.53-1.8-.92-1.8-2.53ZM845.86,111.92c0-1.27-.42-1.89-1.07-1.89s-1.05.62-1.05,1.89.42,1.91,1.05,1.91,1.07-.64,1.07-1.91Z"/><path class="cls-16" d="M850.65,110.31c0,2.12-.86,3.85-2.16,5.17l-.65-.34c1.25-1.29,2.02-2.9,2.02-4.83s-.77-3.54-2.02-4.83l.65-.34c1.3,1.33,2.16,3.05,2.16,5.17Z"/><path class="cls-16" d="M812.44,96.86c4.7-4.21,7.49-7.46,7.49-10.13,0-1.75-.96-2.81-2.6-2.81-1.26,0-2.32.82-3.18,1.78l-1.87-1.87c1.59-1.68,3.13-2.62,5.5-2.62,3.28,0,5.45,2.11,5.45,5.33s-2.6,6.5-5.75,9.59c.87-.09,2.01-.19,2.81-.19h3.77v2.9h-11.6v-1.99Z"/><path class="cls-16" d="M826.01,90.12c0-5.99,2.34-8.91,5.87-8.91s5.85,2.95,5.85,8.91-2.34,9.05-5.85,9.05-5.87-3.09-5.87-9.05ZM834.47,90.12c0-4.84-1.12-6.25-2.6-6.25s-2.62,1.4-2.62,6.25,1.12,6.36,2.62,6.36,2.6-1.5,2.6-6.36Z"/><path class="cls-16" d="M839.85,96.7l.9-1.23c.67.52,1.31.82,2,.82.75,0,1.08-.32,1.08-.79,0-.56-.78-.82-1.56-1.12-.95-.36-2.04-.94-2.04-2.18,0-1.35,1.1-2.3,2.78-2.3,1.1,0,1.92.45,2.55.92l-.88,1.19c-.53-.37-1.06-.64-1.62-.64-.67,0-.99.29-.99.72,0,.55.74.75,1.52,1.04.99.37,2.09.87,2.09,2.26,0,1.31-1.03,2.37-2.98,2.37-1,0-2.11-.44-2.85-1.06Z"/><path class="cls-16" d="M846.97,176.3c0-2.12.86-3.85,2.16-5.17l.65.34c-1.25,1.29-2.02,2.9-2.02,4.83s.77,3.54,2.02,4.83l-.65.34c-1.3-1.33-2.16-3.05-2.16-5.17Z"/><path class="cls-16" d="M851.12,179.61h1.77v-5.94h-1.41v-.63c.71-.13,1.22-.32,1.65-.56h.76v7.14h1.6v.83h-4.37v-.83Z"/><path class="cls-16" d="M856.62,176.42c0-2.77.97-4.11,2.49-4.11s2.48,1.35,2.48,4.11-.97,4.15-2.48,4.15-2.49-1.38-2.49-4.15ZM860.62,176.42c0-2.33-.61-3.3-1.51-3.3s-1.52.98-1.52,3.3.61,3.36,1.52,3.36,1.51-1.01,1.51-3.36Z"/><path class="cls-16" d="M862.8,179.82c0-.45.33-.77.72-.77s.72.33.72.77-.33.75-.72.75-.72-.3-.72-.75Z"/><path class="cls-16" d="M865.22,179.52l.49-.65c.46.46,1.03.88,1.96.88s1.69-.72,1.69-1.88-.65-1.81-1.65-1.81c-.53,0-.87.16-1.33.47l-.53-.33.25-3.73h3.88v.85h-3.01l-.2,2.3c.35-.2.71-.31,1.18-.31,1.33,0,2.4.78,2.4,2.53s-1.26,2.74-2.61,2.74c-1.24,0-2-.52-2.53-1.05Z"/><path class="cls-16" d="M871.68,174.67c0-1.6.72-2.51,1.81-2.51s1.81.91,1.81,2.51-.73,2.53-1.81,2.53-1.81-.92-1.81-2.53ZM874.55,174.67c0-1.28-.42-1.89-1.05-1.89s-1.07.61-1.07,1.89.43,1.91,1.07,1.91,1.05-.64,1.05-1.91ZM878.14,172.16h.66l-4.41,8.28h-.66l4.41-8.28ZM877.24,177.91c0-1.6.72-2.51,1.8-2.51s1.81.91,1.81,2.51-.72,2.53-1.81,2.53-1.8-.92-1.8-2.53ZM880.11,177.91c0-1.27-.42-1.89-1.07-1.89s-1.05.62-1.05,1.89.42,1.91,1.05,1.91,1.07-.64,1.07-1.91Z"/><path class="cls-16" d="M884.9,176.3c0,2.12-.86,3.85-2.16,5.17l-.65-.34c1.25-1.29,2.02-2.9,2.02-4.83s-.77-3.54-2.02-4.83l.65-.34c1.3,1.33,2.16,3.05,2.16,5.17Z"/><path class="cls-16" d="M846.29,162.76l1.61-2.18c1.03,1.01,2.29,1.78,3.86,1.78,1.75,0,2.95-.87,2.95-2.41,0-1.71-1.01-2.76-4.77-2.76v-2.48c3.18,0,4.21-1.1,4.21-2.64,0-1.36-.84-2.15-2.32-2.18-1.24.02-2.25.61-3.28,1.54l-1.75-2.11c1.5-1.31,3.16-2.13,5.19-2.13,3.35,0,5.61,1.64,5.61,4.61,0,1.87-1.05,3.23-2.9,3.95v.12c1.96.54,3.46,1.99,3.46,4.26,0,3.18-2.78,5.03-6.08,5.03-2.74,0-4.58-1.03-5.8-2.41Z"/><path class="cls-16" d="M860.25,156.11c0-5.99,2.34-8.91,5.87-8.91s5.85,2.95,5.85,8.91-2.34,9.05-5.85,9.05-5.87-3.09-5.87-9.05ZM868.72,156.11c0-4.84-1.12-6.25-2.6-6.25s-2.62,1.4-2.62,6.25,1.12,6.36,2.62,6.36,2.6-1.5,2.6-6.36Z"/><path class="cls-16" d="M874.1,162.69l.9-1.23c.67.52,1.31.82,2,.82.75,0,1.08-.32,1.08-.79,0-.56-.78-.82-1.56-1.12-.95-.36-2.04-.94-2.04-2.18,0-1.35,1.1-2.3,2.78-2.3,1.1,0,1.92.45,2.55.92l-.88,1.19c-.53-.37-1.06-.64-1.62-.64-.67,0-.99.29-.99.72,0,.55.74.75,1.52,1.04.99.37,2.09.87,2.09,2.26,0,1.31-1.03,2.37-2.98,2.37-1,0-2.11-.44-2.85-1.06Z"/><path class="cls-16" d="M782.65,214.73c0-2.12.86-3.85,2.16-5.17l.65.34c-1.25,1.29-2.02,2.9-2.02,4.83s.77,3.54,2.02,4.83l-.65.34c-1.3-1.33-2.16-3.05-2.16-5.17Z"/><path class="cls-16" d="M786.16,217.91l.5-.65c.47.49,1.08.91,1.98.91s1.62-.56,1.62-1.48-.64-1.6-2.48-1.6v-.76c1.64,0,2.21-.66,2.21-1.52,0-.77-.52-1.26-1.35-1.28-.64.02-1.21.35-1.65.79l-.53-.63c.6-.55,1.3-.96,2.23-.96,1.34,0,2.31.72,2.31,2,0,.97-.58,1.61-1.42,1.92v.04c.95.22,1.69.93,1.69,2.02,0,1.42-1.14,2.27-2.55,2.27-1.25,0-2.03-.52-2.55-1.09Z"/><path class="cls-16" d="M792.3,214.85c0-2.77.97-4.11,2.49-4.11s2.48,1.35,2.48,4.11-.97,4.15-2.48,4.15-2.49-1.38-2.49-4.15ZM796.29,214.85c0-2.32-.61-3.3-1.51-3.3s-1.52.98-1.52,3.3.61,3.36,1.52,3.36,1.51-1.01,1.51-3.36Z"/><path class="cls-16" d="M798.48,218.25c0-.45.33-.77.72-.77s.72.33.72.77-.33.75-.72.75-.72-.3-.72-.75Z"/><path class="cls-16" d="M800.91,217.91l.5-.65c.47.49,1.08.91,1.98.91s1.62-.56,1.62-1.48-.64-1.6-2.48-1.6v-.76c1.64,0,2.21-.66,2.21-1.52,0-.77-.52-1.26-1.35-1.28-.64.02-1.21.35-1.65.79l-.53-.63c.6-.55,1.3-.96,2.23-.96,1.34,0,2.31.72,2.31,2,0,.97-.58,1.61-1.42,1.92v.04c.95.22,1.69.93,1.69,2.02,0,1.42-1.14,2.27-2.55,2.27-1.25,0-2.03-.52-2.55-1.09Z"/><path class="cls-16" d="M807.36,213.1c0-1.6.72-2.51,1.81-2.51s1.81.91,1.81,2.51-.73,2.53-1.81,2.53-1.81-.92-1.81-2.53ZM810.23,213.1c0-1.28-.42-1.89-1.05-1.89s-1.07.61-1.07,1.89.43,1.91,1.07,1.91,1.05-.64,1.05-1.91ZM813.81,210.59h.66l-4.41,8.28h-.66l4.41-8.28ZM812.92,216.34c0-1.6.72-2.51,1.8-2.51s1.81.91,1.81,2.51-.72,2.53-1.81,2.53-1.8-.92-1.8-2.53ZM815.79,216.34c0-1.27-.42-1.89-1.07-1.89s-1.05.62-1.05,1.89.42,1.91,1.05,1.91,1.07-.64,1.07-1.91Z"/><path class="cls-16" d="M820.58,214.73c0,2.12-.86,3.85-2.16,5.17l-.65-.34c1.25-1.29,2.02-2.9,2.02-4.83s-.77-3.54-2.02-4.83l.65-.34c1.3,1.33,2.16,3.05,2.16,5.17Z"/><path class="cls-16" d="M794.49,198.78h-2.06v4.49h-3.21v-4.49h-7.37v-2.34l6.46-10.48h4.12v10.2h2.06v2.62ZM789.22,196.16v-3.53c0-1.01.09-2.57.14-3.58h-.09c-.42.91-.89,1.87-1.38,2.81l-2.69,4.3h4.02Z"/><path class="cls-16" d="M795.93,194.54c0-5.99,2.34-8.91,5.87-8.91s5.85,2.95,5.85,8.91-2.34,9.05-5.85,9.05-5.87-3.09-5.87-9.05ZM804.4,194.54c0-4.84-1.12-6.25-2.6-6.25s-2.62,1.4-2.62,6.25,1.12,6.36,2.62,6.36,2.6-1.5,2.6-6.36Z"/><path class="cls-16" d="M809.78,201.12l.9-1.23c.67.52,1.31.82,2,.82.75,0,1.08-.32,1.08-.79,0-.56-.78-.82-1.56-1.12-.95-.36-2.04-.94-2.04-2.18,0-1.35,1.1-2.3,2.78-2.3,1.1,0,1.92.45,2.55.92l-.88,1.19c-.53-.37-1.06-.64-1.62-.64-.67,0-.99.29-.99.72,0,.55.74.75,1.52,1.04.99.37,2.09.87,2.09,2.26,0,1.31-1.03,2.37-2.98,2.37-1,0-2.11-.44-2.85-1.06Z"/><path class="cls-16" d="M707.46,157.93c0-2.12.86-3.85,2.16-5.17l.65.34c-1.25,1.29-2.02,2.9-2.02,4.83s.77,3.54,2.02,4.83l-.65.34c-1.3-1.33-2.16-3.05-2.16-5.17Z"/><path class="cls-16" d="M711.14,161.47c2.5-2.18,3.65-3.77,3.65-5.14,0-.91-.48-1.58-1.47-1.58-.65,0-1.22.4-1.65.92l-.58-.56c.65-.71,1.34-1.17,2.35-1.17,1.42,0,2.31.93,2.31,2.36,0,1.59-1.25,3.2-3.12,4.98.41-.03.9-.08,1.3-.08h2.21v.86h-5.01v-.59Z"/><path class="cls-16" d="M721.45,155.37c-.32-.38-.79-.61-1.28-.61-1.09,0-2.01.84-2.05,3.31.49-.6,1.18-.97,1.81-.97,1.35,0,2.21.84,2.21,2.5,0,1.54-1.04,2.59-2.28,2.59-1.53,0-2.66-1.31-2.66-3.94,0-3.12,1.4-4.31,2.94-4.31.83,0,1.42.35,1.86.81l-.54.62ZM721.2,159.61c0-1.08-.47-1.76-1.43-1.76-.5,0-1.11.28-1.63,1.02.12,1.65.72,2.55,1.72,2.55.76,0,1.35-.73,1.35-1.81Z"/><path class="cls-16" d="M723.29,161.45c0-.45.33-.77.72-.77s.72.33.72.77-.33.75-.72.75-.72-.3-.72-.75Z"/><path class="cls-16" d="M725.73,161.11l.5-.65c.47.49,1.08.91,1.98.91s1.62-.56,1.62-1.48-.64-1.6-2.48-1.6v-.76c1.64,0,2.21-.66,2.21-1.52,0-.77-.52-1.26-1.35-1.28-.64.02-1.21.35-1.65.79l-.53-.63c.6-.55,1.3-.96,2.23-.96,1.34,0,2.31.72,2.31,2,0,.97-.58,1.61-1.42,1.92v.04c.95.22,1.69.93,1.69,2.02,0,1.42-1.14,2.27-2.55,2.27-1.25,0-2.03-.52-2.55-1.09Z"/><path class="cls-16" d="M732.18,156.3c0-1.6.72-2.51,1.81-2.51s1.81.91,1.81,2.51-.73,2.53-1.81,2.53-1.81-.92-1.81-2.53ZM735.05,156.3c0-1.28-.42-1.89-1.05-1.89s-1.07.61-1.07,1.89.43,1.91,1.07,1.91,1.05-.64,1.05-1.91ZM738.63,153.79h.66l-4.41,8.28h-.66l4.41-8.28ZM737.74,159.53c0-1.6.72-2.51,1.8-2.51s1.81.91,1.81,2.51-.72,2.53-1.81,2.53-1.8-.92-1.8-2.53ZM740.61,159.53c0-1.27-.42-1.89-1.07-1.89s-1.05.62-1.05,1.89.42,1.91,1.05,1.91,1.07-.64,1.07-1.91Z"/><path class="cls-16" d="M745.4,157.93c0,2.12-.86,3.85-2.16,5.17l-.65-.34c1.25-1.29,2.02-2.9,2.02-4.83s-.77-3.54-2.02-4.83l.65-.34c1.3,1.33,2.16,3.05,2.16,5.17Z"/><path class="cls-16" d="M706.79,144.43l1.59-2.2c.98.96,2.2,1.75,3.81,1.75,1.8,0,3.06-1.15,3.06-3.18s-1.17-3.13-2.92-3.13c-1.03,0-1.59.26-2.6.91l-1.57-1.03.47-8.4h9.26v2.88h-6.29l-.33,3.67c.68-.33,1.29-.49,2.08-.49,2.9,0,5.33,1.73,5.33,5.5s-2.85,6.08-6.06,6.08c-2.74,0-4.56-1.08-5.85-2.36Z"/><path class="cls-16" d="M720.75,137.74c0-5.99,2.34-8.91,5.87-8.91s5.85,2.95,5.85,8.91-2.34,9.05-5.85,9.05-5.87-3.09-5.87-9.05ZM729.22,137.74c0-4.84-1.12-6.25-2.6-6.25s-2.62,1.4-2.62,6.25,1.12,6.36,2.62,6.36,2.6-1.5,2.6-6.36Z"/><path class="cls-16" d="M734.59,144.32l.9-1.23c.67.52,1.31.82,2,.82.75,0,1.08-.32,1.08-.79,0-.56-.78-.82-1.56-1.12-.95-.36-2.04-.94-2.04-2.18,0-1.35,1.1-2.3,2.78-2.3,1.1,0,1.92.45,2.55.92l-.88,1.19c-.53-.37-1.06-.64-1.62-.64-.67,0-.99.29-.99.72,0,.55.74.75,1.52,1.04.99.37,2.09.87,2.09,2.26,0,1.31-1.03,2.37-2.98,2.37-1,0-2.11-.44-2.85-1.06Z"/><path class="cls-16" d="M745.56,101.76c0-1.79.73-3.25,1.83-4.37l.55.28c-1.06,1.09-1.71,2.45-1.71,4.09s.65,2.99,1.71,4.09l-.55.28c-1.1-1.12-1.83-2.58-1.83-4.37Z"/><path class="cls-16" d="M749.08,104.55h1.5v-5.02h-1.19v-.53c.6-.11,1.03-.27,1.4-.48h.64v6.03h1.35v.7h-3.69v-.7Z"/><path class="cls-16" d="M754.09,104.55h1.5v-5.02h-1.19v-.53c.6-.11,1.03-.27,1.4-.48h.64v6.03h1.35v.7h-3.69v-.7Z"/><path class="cls-16" d="M758.96,104.74c0-.38.28-.65.61-.65s.61.28.61.65-.28.63-.61.63-.61-.26-.61-.63Z"/><path class="cls-16" d="M761.16,103.58c0-.9.62-1.52,1.24-1.86v-.05c-.5-.34-.91-.85-.91-1.55,0-1.03.79-1.71,1.85-1.71,1.15,0,1.85.73,1.85,1.77,0,.71-.5,1.31-.9,1.63v.05c.59.34,1.14.85,1.14,1.76,0,.98-.85,1.75-2.11,1.75s-2.15-.75-2.15-1.79ZM764.63,103.61c0-.9-.83-1.24-1.78-1.63-.54.35-.92.88-.92,1.52,0,.72.6,1.24,1.41,1.24s1.29-.47,1.29-1.14ZM764.47,100.24c0-.66-.42-1.2-1.15-1.2-.62,0-1.07.44-1.07,1.09,0,.81.73,1.16,1.52,1.47.46-.4.7-.86.7-1.36Z"/><path class="cls-16" d="M766.48,100.38c0-1.35.61-2.12,1.53-2.12s1.53.77,1.53,2.12-.62,2.14-1.53,2.14-1.53-.78-1.53-2.14ZM768.9,100.38c0-1.08-.36-1.6-.89-1.6s-.9.51-.9,1.6.37,1.62.9,1.62.89-.54.89-1.62ZM771.93,98.26h.56l-3.73,7h-.56l3.73-7ZM771.18,103.12c0-1.35.61-2.12,1.52-2.12s1.53.77,1.53,2.12-.61,2.14-1.53,2.14-1.52-.78-1.52-2.14ZM773.6,103.12c0-1.07-.36-1.6-.9-1.6s-.89.52-.89,1.6.36,1.62.89,1.62.9-.54.9-1.62Z"/><path class="cls-16" d="M777.66,101.76c0,1.79-.73,3.25-1.83,4.37l-.55-.28c1.06-1.09,1.71-2.45,1.71-4.09s-.65-2.99-1.71-4.09l.55-.28c1.1,1.12,1.83,2.58,1.83,4.37Z"/><path class="cls-16" d="M753.61,80.33c-.53-.61-1.44-1.09-2.31-1.09-1.72,0-3.14,1.3-3.26,5.04.81-.99,2.11-1.6,3.08-1.6,2.51,0,4.29,1.5,4.29,4.72s-2.15,5-4.7,5c-2.85,0-5.39-2.29-5.39-7.57,0-5.59,2.77-7.98,5.79-7.98,1.82,0,3.16.77,4.07,1.7l-1.58,1.78ZM752.68,87.4c0-1.78-.83-2.61-2.13-2.61-.81,0-1.7.43-2.45,1.58.28,2.73,1.3,3.79,2.55,3.79,1.11,0,2.02-.93,2.02-2.75Z"/><path class="cls-16" d="M756.93,84.56c0-5.18,2.03-7.71,5.08-7.71s5.06,2.55,5.06,7.71-2.02,7.84-5.06,7.84-5.08-2.67-5.08-7.84ZM764.26,84.56c0-4.19-.97-5.41-2.25-5.41s-2.27,1.21-2.27,5.41.97,5.51,2.27,5.51,2.25-1.3,2.25-5.51Z"/><path class="cls-16" d="M768.95,90.14l.9-1.23c.67.52,1.31.82,2,.82.75,0,1.08-.32,1.08-.79,0-.56-.78-.82-1.56-1.12-.95-.36-2.04-.94-2.04-2.18,0-1.35,1.1-2.3,2.78-2.3,1.1,0,1.92.45,2.55.92l-.88,1.19c-.53-.37-1.06-.64-1.62-.64-.67,0-.99.29-.99.72,0,.55.74.75,1.52,1.04.99.37,2.09.87,2.09,2.26,0,1.31-1.03,2.37-2.98,2.37-1,0-2.11-.44-2.85-1.06Z"/><path class="cls-6" d="M272.93,120.68v-38.2c21.1,0,38.2,17.1,38.2,38.2,0,11.81-4.6,21.67-13.65,29.26l-24.56-29.26Z"/><path class="cls-6" d="M361.21,120.63l.71-38.19c21.09.39,37.87,17.81,37.48,38.91-.08,4.22-.71,7.78-2.09,11.77l-36.1-12.48Z"/><path class="cls-6" d="M448.78,120.75l-.4-38.2c14.35-.15,26.53,6.85,33.62,19.33l-33.21,18.87Z"/><path class="cls-6" d="M538.16,120.73l-4.37-37.95c7.55-.87,14.57.36,21.37,3.74l-17,34.21Z"/><path class="cls-6" d="M625.71,120.69l-2.24-38.14c4.21-.25,7.81.11,11.89,1.17l-9.65,36.96Z"/><line class="cls-10" x1="952.58" y1="217.58" x2="1090.51" y2="217.58"/><line class="cls-10" x1="952.58" y1="217.58" x2="952.58" y2="214.61"/><line class="cls-10" x1="1006.63" y1="217.58" x2="1006.63" y2="214.61"/><line class="cls-10" x1="1048.57" y1="217.58" x2="1048.57" y2="214.61"/><line class="cls-10" x1="1090.51" y1="217.58" x2="1090.51" y2="214.61"/><path class="cls-12" d="M945.16,218.38c0-2.32,1-3.45,2.51-3.45s2.5,1.14,2.5,3.45-1,3.51-2.5,3.51-2.51-1.2-2.51-3.51ZM948.78,218.38c0-1.88-.48-2.42-1.11-2.42s-1.12.54-1.12,2.42.48,2.47,1.12,2.47,1.11-.58,1.11-2.47Z"/><path class="cls-12" d="M945.15,197.2c2.01-1.63,3.2-2.89,3.2-3.92,0-.68-.41-1.09-1.11-1.09-.54,0-.99.32-1.36.69l-.8-.73c.68-.65,1.34-1.02,2.35-1.02,1.4,0,2.33.82,2.33,2.07s-1.11,2.52-2.46,3.72c.37-.04.86-.07,1.2-.07h1.61v1.12h-4.96v-.77Z"/><path class="cls-12" d="M950.33,172.44h-.88v1.74h-1.37v-1.74h-3.15v-.91l2.76-4.06h1.76v3.95h.88v1.02ZM948.08,171.42v-1.37c0-.39.04-1,.06-1.39h-.04c-.18.35-.38.73-.59,1.09l-1.15,1.67h1.72Z"/><path class="cls-12" d="M949.31,145.11c-.26-.27-.71-.49-1.14-.49-.85,0-1.55.58-1.61,2.26.4-.44,1.04-.72,1.52-.72,1.24,0,2.12.67,2.12,2.11s-1.06,2.24-2.32,2.24c-1.41,0-2.66-1.02-2.66-3.39,0-2.5,1.37-3.57,2.86-3.57.9,0,1.56.34,2.01.76l-.78.8ZM948.85,148.27c0-.8-.41-1.17-1.05-1.17-.4,0-.84.19-1.21.71.14,1.22.64,1.69,1.26,1.69.55,0,1-.42,1-1.23Z"/><path class="cls-12" d="M945.19,124.92c0-.86.58-1.41,1.27-1.75v-.05c-.57-.37-.98-.88-.98-1.6,0-1.08.94-1.77,2.23-1.77s2.15.72,2.15,1.79c0,.66-.46,1.21-.95,1.53v.05c.68.34,1.24.88,1.24,1.79,0,1.02-.99,1.79-2.49,1.79-1.41,0-2.47-.74-2.47-1.79ZM948.78,124.87c0-.7-.68-.99-1.64-1.34-.4.29-.68.74-.68,1.24,0,.61.55,1,1.24,1,.62,0,1.08-.32,1.08-.9ZM948.66,121.63c0-.54-.36-.93-.98-.93-.5,0-.9.3-.9.83,0,.63.57.94,1.35,1.22.36-.34.53-.73.53-1.12Z"/><path class="cls-12" d="M939.75,101.72h1.59v-4.24h-1.34v-.82c.74-.13,1.25-.3,1.72-.56h1.09v5.63h1.39v1.08h-4.45v-1.08Z"/><path class="cls-12" d="M945.16,99.41c0-2.32,1-3.45,2.51-3.45s2.5,1.14,2.5,3.45-1,3.51-2.5,3.51-2.51-1.2-2.51-3.51ZM948.78,99.41c0-1.88-.48-2.42-1.11-2.42s-1.12.54-1.12,2.42.48,2.47,1.12,2.47,1.11-.58,1.11-2.47Z"/><line class="cls-10" x1="952.58" y1="217.58" x2="952.58" y2="98.61"/><line class="cls-10" x1="952.58" y1="217.58" x2="955.73" y2="217.58"/><line class="cls-10" x1="952.58" y1="193.79" x2="955.73" y2="193.79"/><line class="cls-10" x1="952.58" y1="169.99" x2="955.73" y2="169.99"/><line class="cls-10" x1="952.58" y1="146.2" x2="955.73" y2="146.2"/><line class="cls-10" x1="952.58" y1="122.4" x2="955.73" y2="122.4"/><line class="cls-10" x1="952.58" y1="98.61" x2="955.73" y2="98.61"/><rect class="cls-9" x="1012.5" y="110.51" width="30.2"/><rect class="cls-11" x="970.56" y="134.3" width="30.2" height="47.59"/><rect class="cls-11" x="1054.44" y="122.4" width="30.2" height="95.18"/><rect class="cls-11" x="1012.5" y="110.51" width="30.2" height="107.07"/><rect class="cls-13" x="970.56" y="181.89" width="30.2" height="35.69"/><path class="cls-16" d="M1059.51,237.37c2.76-2.41,4.03-4.16,4.03-5.67,0-1.01-.53-1.74-1.62-1.74-.72,0-1.34.44-1.82,1.02l-.64-.62c.72-.78,1.48-1.3,2.59-1.3,1.57,0,2.55,1.03,2.55,2.6,0,1.75-1.38,3.54-3.44,5.49.46-.04,1-.08,1.44-.08h2.43v.95h-5.53v-.65Z"/><path class="cls-16" d="M1066.11,233.59c0-3.06,1.07-4.53,2.75-4.53s2.73,1.49,2.73,4.53-1.07,4.58-2.73,4.58-2.75-1.52-2.75-4.58ZM1070.52,233.59c0-2.57-.67-3.65-1.67-3.65s-1.68,1.08-1.68,3.65.67,3.71,1.68,3.71,1.67-1.12,1.67-3.71Z"/><path class="cls-16" d="M1072.59,237.37c2.76-2.41,4.03-4.16,4.03-5.67,0-1.01-.53-1.74-1.62-1.74-.72,0-1.34.44-1.82,1.02l-.64-.62c.72-.78,1.48-1.3,2.59-1.3,1.57,0,2.55,1.03,2.55,2.6,0,1.75-1.38,3.54-3.44,5.49.46-.04,1-.08,1.44-.08h2.43v.95h-5.53v-.65Z"/><path class="cls-16" d="M1078.95,236.97l.55-.72c.52.54,1.19,1.01,2.18,1.01,1.04,0,1.79-.62,1.79-1.63s-.71-1.76-2.73-1.76v-.84c1.81,0,2.43-.73,2.43-1.68,0-.85-.58-1.39-1.49-1.42-.71.02-1.33.38-1.82.88l-.59-.7c.66-.61,1.44-1.06,2.46-1.06,1.48,0,2.55.79,2.55,2.21,0,1.07-.64,1.78-1.57,2.12v.05c1.04.24,1.87,1.03,1.87,2.23,0,1.57-1.26,2.51-2.82,2.51-1.38,0-2.24-.58-2.82-1.2Z"/><path class="cls-16" d="M1100.17,236.17l-2.2-4.48h.99l.94,2.07c.24.54.46,1.05.72,1.6h.04c.26-.55.51-1.06.73-1.6l.95-2.07h.96l-2.2,4.48v2.85h-.93v-2.85Z"/><path class="cls-16" d="M1103.7,236.31c0-1.76,1.19-2.86,2.45-2.86,1.38,0,2.16,1,2.16,2.55,0,.2-.02.39-.04.52h-3.66c.06,1.16.77,1.9,1.8,1.9.53,0,.96-.16,1.36-.43l.33.6c-.48.31-1.06.56-1.8.56-1.44,0-2.6-1.05-2.6-2.84ZM1107.51,235.87c0-1.1-.5-1.69-1.35-1.69-.77,0-1.45.62-1.56,1.69h2.91Z"/><path class="cls-16" d="M1109.21,237.6c0-1.18,1.03-1.77,3.34-2.03,0-.7-.23-1.37-1.12-1.37-.63,0-1.2.29-1.63.58l-.36-.63c.5-.32,1.27-.71,2.14-.71,1.32,0,1.88.89,1.88,2.23v3.34h-.75l-.08-.65h-.03c-.52.43-1.13.78-1.8.78-.91,0-1.59-.56-1.59-1.54ZM1112.55,237.69v-1.52c-1.83.22-2.45.67-2.45,1.37,0,.62.42.87.96.87s.96-.25,1.49-.72Z"/><path class="cls-16" d="M1115.09,233.59h.75l.08.99h.03c.38-.69.93-1.13,1.54-1.13.24,0,.41.03.58.12l-.17.8c-.18-.07-.31-.09-.53-.09-.45,0-1.01.32-1.37,1.25v3.49h-.91v-5.43Z"/><path class="cls-16" d="M1012.22,237.37c2.76-2.41,4.03-4.16,4.03-5.67,0-1.01-.53-1.74-1.62-1.74-.72,0-1.34.44-1.82,1.02l-.64-.62c.72-.78,1.48-1.3,2.59-1.3,1.57,0,2.55,1.03,2.55,2.6,0,1.75-1.38,3.54-3.44,5.49.46-.04,1-.08,1.44-.08h2.43v.95h-5.53v-.65Z"/><path class="cls-16" d="M1018.82,233.59c0-3.06,1.07-4.53,2.75-4.53s2.73,1.49,2.73,4.53-1.07,4.58-2.73,4.58-2.75-1.52-2.75-4.58ZM1023.23,233.59c0-2.57-.67-3.65-1.67-3.65s-1.68,1.08-1.68,3.65.67,3.71,1.68,3.71,1.67-1.12,1.67-3.71Z"/><path class="cls-16" d="M1025.3,237.37c2.76-2.41,4.03-4.16,4.03-5.67,0-1.01-.53-1.74-1.62-1.74-.72,0-1.34.44-1.82,1.02l-.64-.62c.72-.78,1.48-1.3,2.59-1.3,1.57,0,2.55,1.03,2.55,2.6,0,1.75-1.38,3.54-3.44,5.49.46-.04,1-.08,1.44-.08h2.43v.95h-5.53v-.65Z"/><path class="cls-16" d="M1031.84,237.37c2.76-2.41,4.03-4.16,4.03-5.67,0-1.01-.53-1.74-1.62-1.74-.72,0-1.34.44-1.82,1.02l-.64-.62c.72-.78,1.48-1.3,2.59-1.3,1.57,0,2.55,1.03,2.55,2.6,0,1.75-1.38,3.54-3.44,5.49.46-.04,1-.08,1.44-.08h2.43v.95h-5.53v-.65Z"/><path class="cls-16" d="M964.93,237.37c2.76-2.41,4.03-4.16,4.03-5.67,0-1.01-.53-1.74-1.62-1.74-.72,0-1.34.44-1.82,1.02l-.64-.62c.72-.78,1.48-1.3,2.59-1.3,1.57,0,2.55,1.03,2.55,2.6,0,1.75-1.38,3.54-3.44,5.49.46-.04,1-.08,1.44-.08h2.43v.95h-5.53v-.65Z"/><path class="cls-16" d="M971.53,233.59c0-3.06,1.07-4.53,2.75-4.53s2.73,1.49,2.73,4.53-1.07,4.58-2.73,4.58-2.75-1.52-2.75-4.58ZM975.94,233.59c0-2.57-.67-3.65-1.67-3.65s-1.68,1.08-1.68,3.65.67,3.71,1.68,3.71,1.67-1.12,1.67-3.71Z"/><path class="cls-16" d="M978.01,237.37c2.76-2.41,4.03-4.16,4.03-5.67,0-1.01-.53-1.74-1.62-1.74-.72,0-1.34.44-1.82,1.02l-.64-.62c.72-.78,1.48-1.3,2.59-1.3,1.57,0,2.55,1.03,2.55,2.6,0,1.75-1.38,3.54-3.44,5.49.46-.04,1-.08,1.44-.08h2.43v.95h-5.53v-.65Z"/><path class="cls-16" d="M985.08,237.1h1.96v-6.56h-1.56v-.7c.78-.14,1.34-.35,1.82-.62h.84v7.88h1.76v.91h-4.82v-.91Z"/><path class="cls-7" d="M102.28,120.99l-46.06,8.95c-4.94-25.44,11.67-50.07,37.11-55.01,3.05-.59,5.84-.86,8.95-.86v46.92Z"/><path class="cls-8" d="M113.02,132.61v-46.92c25.91,0,46.92,21.01,46.92,46.92s-21.01,46.92-46.92,46.92c-22.8,0-41.71-15.58-46.06-37.97l46.06-8.95Z"/><path class="cls-16" d="M163.47,114.95c-4.44,0-7.94,1.32-10.3,3.74s-3.52,5.87-3.52,9.97c0,1.7.76,4.99,1.37,6.92-.26.22-.52.36-.77.74-.42.65-.73,1.55-.6,2.64.37,3.14,2.34,4.26,2.99,4.59.25,1.47,1.01,3.28,2.25,5.14,1.33,1.99,3.17,3.9,5.41,4.97.04.02.07.06.11.08.81.96,1.95,1.65,3.3,1.65s2.49-.68,3.3-1.65c.04-.02.07-.06.11-.08,2.23-1.08,4.03-2.98,5.36-4.97,1.23-1.85,1.97-3.67,2.22-5.14.65-.31,2.67-1.4,3.05-4.56.13-1.09-.21-2.02-.63-2.66-.25-.38-.51-.52-.77-.74.62-1.96,1.43-5,1.43-8.32,0-1.53-.31-3.62-1.35-5.44-.97-1.71-2.73-3.12-5.22-3.3-1.13-1.71-3.57-3.57-7.75-3.57ZM163.47,116.71c3.95,0,5.84,1.83,6.51,3.05.15.28.45.46.77.47,2.15,0,3.33,1.04,4.15,2.47.82,1.44,1.13,3.29,1.13,4.56,0,3.26-.89,6.47-1.48,8.3-.12.39.04.81.38,1.02.15.09.5.37.74.74s.41.82.33,1.48c-.34,2.83-2.31,3.38-2.31,3.38-.33.11-.57.4-.6.74-.1.97-.84,2.94-2.06,4.78-1.22,1.84-2.9,3.59-4.75,4.45-.14.07-.27.17-.36.3-.47.71-1.28,1.18-2.2,1.18s-1.72-.47-2.2-1.18c-.09-.13-.21-.24-.36-.3-1.86-.86-3.55-2.61-4.78-4.45s-1.99-3.81-2.09-4.78c-.04-.33-.26-.6-.58-.71,0,0-1.97-.59-2.31-3.43-.08-.66.09-1.12.33-1.48.24-.36.56-.61.71-.71.36-.21.52-.65.38-1.04-.53-1.53-1.43-5.74-1.43-6.87,0-3.77,1.04-6.74,3.02-8.76,1.98-2.03,4.94-3.19,9.04-3.19ZM170.14,123.41s-.05.02-.08.03c-.02,0-.04.02-.05.03-.07.02-.13.05-.19.08-.02,0-.04.02-.05.03v.03s-.05.03-.08.05c-.02.02-.04.03-.05.05-.01.02-.02.04-.03.05-.04.05-.08.11-.11.16v.03s-.02.04-.03.05c-.07.14-.42.75-1.35,1.51-1.04.85-2.68,1.73-5.27,1.73-1.65,0-3.72.01-5.49.66-.89.32-1.72.82-2.33,1.59s-.96,1.8-.96,3.02c0,.32.16.61.44.77.27.16.61.16.89,0,.27-.16.44-.46.44-.77,0-.9.22-1.47.58-1.92s.89-.8,1.57-1.04c1.36-.49,3.27-.55,4.89-.55,2.99,0,5.1-1.04,6.4-2.12.44-.36.77-.71,1.04-1.04.85,1.37,2.22,3.96,2.22,6.67,0,.32.16.61.44.77.27.16.61.16.89,0,.27-.16.44-.46.44-.77,0-4.37-2.64-7.95-3.1-8.54v-.03s-.07-.13-.08-.14c-.02-.02-.03-.04-.05-.05l-.03-.03s-.02-.04-.03-.05h-.03c-.07-.08-.15-.14-.25-.19l-.03-.03s-.04-.02-.05-.03h-.03s-.04-.02-.05-.03h-.38ZM158.88,136.93c-.73,0-1.32.59-1.32,1.32s.59,1.32,1.32,1.32,1.32-.59,1.32-1.32-.59-1.32-1.32-1.32ZM168.55,136.93c-.73,0-1.32.59-1.32,1.32s.59,1.32,1.32,1.32,1.32-.59,1.32-1.32-.59-1.32-1.32-1.32Z"/><path class="cls-16" d="M45.96,114.96c-4.64,0-8.56,1.42-11.32,4.12-2.75,2.7-4.28,6.65-4.28,11.51,0,2.67.68,5.33.77,8.05.09,2.72-.33,5.47-2.53,8.46-.14.19-.19.43-.15.66.04.23.18.44.37.57,0,0,.99.66,2.94,1.37,1.9.69,4.8,1.46,8.73,1.9h.03c1.98,2.37,4.24,3.79,6.54,3.79s4.58-1.44,6.56-3.82c3.96-.44,6.92-1.18,8.87-1.87,2.01-.7,3.05-1.35,3.05-1.35.21-.13.36-.35.4-.6.04-.24-.02-.5-.18-.69-2.24-2.88-2.7-5.36-2.66-7.88s.66-5.11.66-7.91-.57-5.91-2.14-8.38c-1.52-2.39-4.1-4.11-7.66-4.23-1.06-1.08-3.82-3.71-7.99-3.71ZM45.96,116.71c3.58,0,6.14,2.49,7,3.38.16.18.39.27.63.27,3.23,0,5.22,1.39,6.54,3.46,1.32,2.07,1.87,4.86,1.87,7.44s-.61,5.1-.66,7.88c-.04,2.52.53,5.23,2.44,8.08-.36.2-.56.34-1.87.8-1.58.55-3.87,1.18-6.92,1.62,1.36-2.22,3.49-6.46,3.49-11.59,0-6.73-3.86-10.62-4.92-11.56-.01-.01-.04-.04-.05-.05-.13-.2-.34-.34-.58-.38h-.03c-.09-.01-.18-.01-.27,0h-.05c-.07.02-.13.05-.19.08-.05.02-.09.05-.14.08-.04.02-.08.05-.11.08-.01.02-.02.04-.03.05-.02,0-.04.02-.05.03v.03l-.03.03s-.02.04-.03.05c-.01.01-.02.02-.03.03v.05s-.02.02-.03.03v.05l-.03.03s-1.04,3.93-5.99,5.47c-1.58.49-4.09.84-6.26,1.9-2.17,1.06-4.04,3.05-4.04,6.4,0,4.07,1.76,7.26,3.13,9.15-2.82-.43-4.95-1.01-6.4-1.54-1.27-.46-1.48-.63-1.81-.82,1.92-3.01,2.43-5.96,2.33-8.65-.1-2.96-.77-5.63-.77-7.99,0-4.5,1.36-7.94,3.74-10.27,2.38-2.33,5.82-3.6,10.11-3.6ZM53.08,128.41c1.29,1.37,3.65,4.54,3.65,9.64,0,6.64-3.97,11.86-4.15,12.09-.02.03-.04.05-.05.08-.02.03-.04.05-.05.08-1.82,2.28-3.76,3.32-5.41,3.32s-3.52-1.02-5.3-3.19c-.02-.04-.05-.08-.08-.11-.01-.02-.01-.04-.03-.05-.02-.02-.03-.04-.05-.05l-.03-.03s-.07-.1-.08-.11c-.03-.02-.05-.04-.08-.05-.44-.43-4.01-4.1-4.01-9.59,0-2.75,1.24-3.95,3.05-4.83,1.81-.88,4.16-1.22,5.99-1.79,3.92-1.22,5.82-3.85,6.65-5.41ZM42.23,137.81c-.73,0-1.32.59-1.32,1.32s.59,1.32,1.32,1.32,1.32-.59,1.32-1.32-.59-1.32-1.32-1.32ZM51.9,137.81c-.73,0-1.32.59-1.32,1.32s.59,1.32,1.32,1.32,1.32-.59,1.32-1.32-.59-1.32-1.32-1.32Z"/><path class="cls-16" d="M152.36,193.06h-14.05v-5.19h20.76v3.75c-7.26,8.86-8.23,15.23-8.73,27.47h-6.29c.55-10.84,2.36-17.76,8.31-26.03Z"/><path class="cls-16" d="M162.44,215.5c8.48-7.59,13.5-13.46,13.5-18.27,0-3.16-1.73-5.06-4.68-5.06-2.28,0-4.18,1.48-5.74,3.21l-3.38-3.38c2.87-3.04,5.65-4.73,9.92-4.73,5.91,0,9.83,3.8,9.83,9.62s-4.68,11.73-10.38,17.3c1.56-.17,3.63-.34,5.06-.34h6.79v5.23h-20.93v-3.59Z"/><path class="cls-16" d="M186.7,208.73c0-2.36,1.19-3.7,2.86-3.7s2.86,1.35,2.86,3.7-1.17,3.75-2.86,3.75-2.86-1.39-2.86-3.75ZM190.8,208.73c0-1.72-.54-2.39-1.23-2.39s-1.22.66-1.22,2.39.54,2.42,1.22,2.42,1.23-.7,1.23-2.42ZM196.35,205.03h1.39l-6.41,12.18h-1.38l6.39-12.18ZM195.24,213.48c0-2.36,1.2-3.72,2.88-3.72s2.86,1.36,2.86,3.72-1.19,3.73-2.86,3.73-2.88-1.39-2.88-3.73ZM199.34,213.48c0-1.74-.52-2.39-1.22-2.39s-1.23.65-1.23,2.39.54,2.42,1.23,2.42,1.22-.71,1.22-2.42Z"/><path class="cls-16" d="M23.74,215.5c8.48-7.59,13.5-13.46,13.5-18.27,0-3.16-1.73-5.06-4.68-5.06-2.28,0-4.18,1.48-5.74,3.21l-3.38-3.38c2.87-3.04,5.65-4.73,9.92-4.73,5.91,0,9.83,3.8,9.83,9.62s-4.68,11.73-10.38,17.3c1.56-.17,3.63-.34,5.06-.34h6.79v5.23h-20.93v-3.59Z"/><path class="cls-16" d="M48.34,211.33c0-4.01,2.45-6.58,5.36-8.14v-.21c-2.4-1.73-4.13-4.09-4.13-7.43,0-5.02,3.97-8.23,9.41-8.23s9.07,3.33,9.07,8.31c0,3.08-1.94,5.65-4.01,7.13v.21c2.87,1.56,5.23,4.09,5.23,8.35,0,4.73-4.18,8.35-10.5,8.35-5.95,0-10.42-3.46-10.42-8.35ZM63.49,211.12c0-3.25-2.87-4.6-6.92-6.24-1.69,1.35-2.87,3.46-2.87,5.78,0,2.83,2.32,4.64,5.23,4.64,2.62,0,4.56-1.48,4.56-4.18ZM62.98,196.01c0-2.53-1.52-4.35-4.13-4.35-2.11,0-3.8,1.39-3.8,3.88,0,2.95,2.4,4.39,5.7,5.7,1.52-1.6,2.24-3.38,2.24-5.23Z"/><path class="cls-16" d="M72.43,208.73c0-2.36,1.19-3.7,2.86-3.7s2.86,1.35,2.86,3.7-1.17,3.75-2.86,3.75-2.86-1.39-2.86-3.75ZM76.53,208.73c0-1.72-.54-2.39-1.23-2.39s-1.22.66-1.22,2.39.54,2.42,1.22,2.42,1.23-.7,1.23-2.42ZM82.08,205.03h1.39l-6.41,12.18h-1.38l6.39-12.18ZM80.98,213.48c0-2.36,1.2-3.72,2.88-3.72s2.86,1.36,2.86,3.72-1.19,3.73-2.86,3.73-2.88-1.39-2.88-3.73ZM85.07,213.48c0-1.74-.52-2.39-1.22-2.39s-1.23.65-1.23,2.39.54,2.42,1.23,2.42,1.22-.71,1.22-2.42Z"/><path class="cls-16" d="M147.97,166.73h2.6l1.99,5.47c.25.73.47,1.5.71,2.26h.08c.25-.76.46-1.53.71-2.26l1.95-5.47h2.59v11.71h-2.14v-4.89c0-1.11.17-2.74.28-3.84h-.06l-.95,2.75-1.8,4.92h-1.34l-1.82-4.92-.93-2.75h-.06c.11,1.11.3,2.74.3,3.84v4.89h-2.11v-11.71Z"/><path class="cls-16" d="M160.69,176.03c0-1.9,1.54-2.9,5.1-3.28-.03-.87-.41-1.53-1.5-1.53-.82,0-1.61.36-2.44.84l-.84-1.53c1.04-.65,2.31-1.17,3.7-1.17,2.25,0,3.4,1.34,3.4,3.91v5.17h-1.9l-.17-.95h-.05c-.78.66-1.66,1.17-2.67,1.17-1.58,0-2.63-1.12-2.63-2.63ZM165.78,175.97v-1.79c-2.15.28-2.88.87-2.88,1.66,0,.7.49,1,1.17,1s1.16-.32,1.71-.87Z"/><path class="cls-16" d="M170.32,175.95v-10.14h2.31v10.25c0,.52.25.7.47.7.09,0,.16,0,.32-.03l.29,1.72c-.27.11-.67.21-1.2.21-1.61,0-2.18-1.06-2.18-2.71Z"/><path class="cls-16" d="M174.59,174.02c0-2.88,2.01-4.67,4.13-4.67,2.44,0,3.7,1.79,3.7,4.24,0,.43-.05.85-.11,1.06h-5.46c.19,1.46,1.14,2.22,2.45,2.22.73,0,1.36-.22,1.99-.62l.79,1.42c-.87.6-1.99.98-3.1.98-2.47,0-4.4-1.72-4.4-4.64ZM180.43,173.12c0-1.2-.54-1.96-1.68-1.96-.93,0-1.76.66-1.93,1.96h3.61Z"/><path class="cls-16" d="M20.18,166.73h7.22v1.95h-4.87v3.05h4.16v1.96h-4.16v4.75h-2.34v-11.71Z"/><path class="cls-16" d="M28.54,174.02c0-2.88,2.01-4.67,4.13-4.67,2.44,0,3.7,1.79,3.7,4.24,0,.43-.05.85-.11,1.06h-5.46c.19,1.46,1.14,2.22,2.45,2.22.73,0,1.36-.22,1.99-.62l.79,1.42c-.87.6-1.99.98-3.1.98-2.47,0-4.4-1.72-4.4-4.64ZM34.38,173.12c0-1.2-.54-1.96-1.68-1.96-.93,0-1.76.66-1.93,1.96h3.61Z"/><path class="cls-16" d="M38.13,169.57h1.9l.16,1.19h.06c.74-.78,1.57-1.41,2.72-1.41,1.27,0,2.01.57,2.44,1.55.81-.85,1.66-1.55,2.82-1.55,1.88,0,2.75,1.33,2.75,3.56v5.52h-2.33v-5.24c0-1.36-.4-1.85-1.23-1.85-.51,0-1.08.33-1.71,1v6.09h-2.33v-5.24c0-1.36-.4-1.85-1.23-1.85-.51,0-1.08.33-1.71,1v6.09h-2.31v-8.86Z"/><path class="cls-16" d="M52.78,176.03c0-1.9,1.54-2.9,5.1-3.28-.03-.87-.41-1.53-1.5-1.53-.82,0-1.61.36-2.44.84l-.84-1.53c1.04-.65,2.31-1.17,3.7-1.17,2.25,0,3.4,1.34,3.4,3.91v5.17h-1.9l-.17-.95h-.05c-.78.66-1.66,1.17-2.67,1.17-1.58,0-2.63-1.12-2.63-2.63ZM57.87,175.97v-1.79c-2.15.28-2.88.87-2.88,1.66,0,.7.49,1,1.17,1s1.16-.32,1.71-.87Z"/><path class="cls-16" d="M62.41,175.95v-10.14h2.31v10.25c0,.52.25.7.47.7.09,0,.16,0,.32-.03l.29,1.72c-.27.11-.67.21-1.2.21-1.61,0-2.18-1.06-2.18-2.71Z"/><path class="cls-16" d="M66.68,174.02c0-2.88,2.01-4.67,4.13-4.67,2.44,0,3.7,1.79,3.7,4.24,0,.43-.05.85-.11,1.06h-5.46c.19,1.46,1.14,2.22,2.45,2.22.73,0,1.36-.22,1.99-.62l.79,1.42c-.87.6-1.99.98-3.1.98-2.47,0-4.4-1.72-4.4-4.64ZM72.52,173.12c0-1.2-.54-1.96-1.68-1.96-.93,0-1.76.66-1.93,1.96h3.61Z"/><rect class="cls-11" x="999.11" y="87.05" width="6.06" height="11.56"/><rect class="cls-13" x="1062.11" y="87.05" width="6.06" height="11.56"/><path class="cls-16" d="M1074.2,93.95c0-2.37,1.42-3.81,3.36-3.81,1.02,0,1.69.46,2.11.91l-.5.6c-.37-.39-.84-.7-1.59-.7-1.47,0-2.43,1.14-2.43,2.97s.87,3.01,2.44,3.01c.53,0,1.04-.16,1.33-.43v-1.92h-1.55v-.77h2.4v3.08c-.47.49-1.28.85-2.27.85-1.93,0-3.3-1.41-3.3-3.79Z"/><path class="cls-16" d="M1081.33,92.18h.75l.08.99h.03c.38-.69.93-1.13,1.54-1.13.24,0,.41.03.58.12l-.17.8c-.18-.07-.31-.09-.53-.09-.45,0-1.01.32-1.37,1.25v3.49h-.91v-5.43Z"/><path class="cls-16" d="M1084.77,96.2c0-1.18,1.03-1.77,3.34-2.03,0-.7-.23-1.37-1.12-1.37-.63,0-1.2.29-1.63.58l-.36-.63c.5-.32,1.27-.71,2.14-.71,1.32,0,1.88.89,1.88,2.23v3.34h-.75l-.08-.65h-.03c-.52.43-1.13.78-1.8.78-.91,0-1.59-.56-1.59-1.54ZM1088.11,96.29v-1.52c-1.83.22-2.45.67-2.45,1.37,0,.62.42.87.96.87s.96-.25,1.49-.72Z"/><path class="cls-16" d="M1090.26,94.9c0-1.76,1.11-2.86,2.35-2.86.64,0,1.05.24,1.53.64l-.05-.94v-2.09h.91v7.96h-.74l-.09-.64h-.02c-.43.42-1,.77-1.65.77-1.36,0-2.24-1.03-2.24-2.84ZM1094.09,96.23v-2.85c-.46-.41-.87-.57-1.32-.57-.88,0-1.57.84-1.57,2.08,0,1.31.54,2.09,1.5,2.09.5,0,.94-.25,1.39-.75Z"/><path class="cls-16" d="M1096.68,95.62v-3.44h.91v3.33c0,1.01.3,1.44,1.02,1.44.56,0,.95-.27,1.47-.92v-3.85h.91v5.43h-.76l-.07-.85h-.03c-.51.59-1.05.98-1.8.98-1.14,0-1.65-.74-1.65-2.12Z"/><path class="cls-16" d="M1102.38,96.2c0-1.18,1.03-1.77,3.34-2.03,0-.7-.23-1.37-1.12-1.37-.63,0-1.2.29-1.63.58l-.36-.63c.5-.32,1.27-.71,2.14-.71,1.32,0,1.88.89,1.88,2.23v3.34h-.75l-.08-.65h-.03c-.52.43-1.13.78-1.8.78-.91,0-1.59-.56-1.59-1.54ZM1105.72,96.29v-1.52c-1.83.22-2.45.67-2.45,1.37,0,.62.42.87.96.87s.96-.25,1.49-.72Z"/><path class="cls-16" d="M1108.42,95.93v-3.01h-.81v-.69l.85-.05.11-1.52h.76v1.52h1.47v.74h-1.47v3.03c0,.67.21,1.05.84,1.05.19,0,.44-.07.62-.14l.18.68c-.31.1-.67.2-1,.2-1.16,0-1.55-.72-1.55-1.81Z"/><path class="cls-16" d="M1111.52,94.9c0-1.76,1.19-2.86,2.45-2.86,1.38,0,2.16,1,2.16,2.55,0,.2-.02.39-.04.52h-3.66c.06,1.16.77,1.9,1.8,1.9.53,0,.96-.16,1.36-.43l.33.6c-.48.31-1.06.56-1.8.56-1.44,0-2.6-1.05-2.6-2.84ZM1115.33,94.46c0-1.1-.5-1.69-1.35-1.69-.77,0-1.45.62-1.56,1.69h2.91Z"/><path class="cls-16" d="M1116.76,96.99l.45-.6c.47.38.96.64,1.61.64.72,0,1.07-.38,1.07-.85,0-.55-.64-.8-1.24-1.03-.76-.28-1.62-.65-1.62-1.57,0-.86.69-1.54,1.87-1.54.67,0,1.26.28,1.69.61l-.44.59c-.38-.28-.76-.48-1.25-.48-.68,0-.99.36-.99.78,0,.52.59.71,1.2.94.79.3,1.66.62,1.66,1.65,0,.88-.7,1.61-1.98,1.61-.77,0-1.51-.32-2.03-.75Z"/><path class="cls-16" d="M1010.62,90.29h1.12l1.41,3.92c.17.51.34,1.02.52,1.53h.05c.17-.51.33-1.02.5-1.53l1.4-3.92h1.12v7.33h-.87v-4.06c0-.63.07-1.52.12-2.16h-.04l-.58,1.67-1.39,3.81h-.62l-1.39-3.81-.58-1.67h-.04c.04.64.11,1.53.11,2.16v4.06h-.84v-7.33Z"/><path class="cls-16" d="M1018.39,90.48c0-.37.27-.59.63-.59s.63.22.63.59c0,.34-.27.59-.63.59s-.63-.25-.63-.59ZM1018.56,92.18h.91v5.43h-.91v-5.43Z"/><path class="cls-16" d="M1020.82,94.9c0-1.76,1.11-2.86,2.35-2.86.64,0,1.05.24,1.53.64l-.05-.94v-2.09h.91v7.96h-.74l-.09-.64h-.02c-.43.42-1,.77-1.65.77-1.36,0-2.24-1.03-2.24-2.84ZM1024.65,96.23v-2.85c-.46-.41-.87-.57-1.32-.57-.88,0-1.57.84-1.57,2.08,0,1.31.54,2.09,1.5,2.09.5,0,.94-.25,1.39-.75Z"/><path class="cls-16" d="M1029.04,94.9c0-1.81,1.23-2.86,2.62-2.86.71,0,1.2.3,1.59.64l-.47.61c-.32-.29-.65-.49-1.09-.49-.98,0-1.7.85-1.7,2.1s.68,2.08,1.68,2.08c.5,0,.94-.23,1.28-.54l.39.61c-.48.44-1.1.69-1.75.69-1.44,0-2.55-1.04-2.55-2.84Z"/><path class="cls-16" d="M1034.1,96.2c0-1.18,1.03-1.77,3.34-2.03,0-.7-.23-1.37-1.12-1.37-.63,0-1.2.29-1.63.58l-.36-.63c.5-.32,1.27-.71,2.14-.71,1.32,0,1.88.89,1.88,2.23v3.34h-.75l-.08-.65h-.03c-.52.43-1.13.78-1.8.78-.91,0-1.59-.56-1.59-1.54ZM1037.44,96.29v-1.52c-1.83.22-2.45.67-2.45,1.37,0,.62.42.87.96.87s.96-.25,1.49-.72Z"/><path class="cls-16" d="M1039.98,92.18h.75l.08.99h.03c.38-.69.93-1.13,1.54-1.13.24,0,.41.03.58.12l-.17.8c-.18-.07-.31-.09-.53-.09-.45,0-1.01.32-1.37,1.25v3.49h-.91v-5.43Z"/><path class="cls-16" d="M1043.35,94.9c0-1.76,1.19-2.86,2.45-2.86,1.38,0,2.16,1,2.16,2.55,0,.2-.02.39-.04.52h-3.66c.06,1.16.77,1.9,1.8,1.9.53,0,.96-.16,1.36-.43l.33.6c-.48.31-1.06.56-1.8.56-1.44,0-2.6-1.05-2.6-2.84ZM1047.16,94.46c0-1.1-.5-1.69-1.35-1.69-.77,0-1.45.62-1.56,1.69h2.91Z"/><path class="cls-16" d="M1048.79,94.9c0-1.76,1.19-2.86,2.45-2.86,1.38,0,2.16,1,2.16,2.55,0,.2-.02.39-.04.52h-3.66c.06,1.16.77,1.9,1.8,1.9.53,0,.96-.16,1.36-.43l.33.6c-.48.31-1.06.56-1.8.56-1.44,0-2.6-1.05-2.6-2.84ZM1052.6,94.46c0-1.1-.5-1.69-1.35-1.69-.77,0-1.45.62-1.56,1.69h2.91Z"/><path class="cls-16" d="M1054.64,92.18h.75l.08.99h.03c.38-.69.93-1.13,1.54-1.13.24,0,.41.03.58.12l-.17.8c-.18-.07-.31-.09-.53-.09-.45,0-1.01.32-1.37,1.25v3.49h-.91v-5.43Z"/></g></svg>