<?xml version="1.0" encoding="UTF-8"?><svg id="_レイヤー_2" xmlns="http://www.w3.org/2000/svg" viewBox="0 0 1054.34 212.22"><defs><style>.cls-1{fill:none;stroke:#fff;stroke-miterlimit:10;stroke-width:1.79px;}.cls-2{fill:#fff;}.cls-2,.cls-3{stroke-width:0px;}.cls-3{fill:#0017af;}</style></defs><g id="_レイヤー_1-2"><circle class="cls-2" cx="61.95" cy="65.33" r="61.95"/><circle class="cls-2" cx="437.25" cy="61.95" r="61.95"/><path class="cls-3" d="M132.4,118.82h-34.28v-10.96l29.94-47.84h19.2v46.54h9.44v12.26h-9.44v19.42h-14.86v-19.42ZM132.4,106.56v-15.62c0-4.66.33-12.04.54-16.71h-.43c-1.95,4.23-4.12,8.24-6.4,12.58l-12.47,19.74h18.77Z"/><path class="cls-3" d="M163.32,129.02c20.94-19.96,34.71-33.63,34.71-45.23,0-7.92-4.34-12.69-12.04-12.69-5.86,0-10.63,3.91-14.75,8.35l-8.68-8.68c7.38-7.92,14.54-12.26,25.49-12.26,15.19,0,25.27,9.65,25.27,24.41,0,13.67-12.58,27.77-26.9,42.74,4.01-.43,9.33-.87,13.12-.87h17.57v13.45h-53.8v-9.22Z"/><path class="cls-3" d="M68.84,166.82c-.75,1.24-2.26,3.25-3.82,4.36l-1.66-1.32c1.27-.78,2.52-2.18,2.93-2.96h-8.3c-.67,0-1.19.05-1.94.11v-2.21c.61.1,1.27.16,1.94.16h8.59c.45,0,1.32-.05,1.62-.14l1.26,1.18c-.17.21-.48.59-.62.83ZM58.55,177.67l-1.86-1.51c.51-.18,1.08-.45,1.67-.88,2.02-1.4,2.41-3.09,2.41-5.7,0-.49-.03-.92-.11-1.43h2.31c0,3.95-.08,7.2-4.41,9.53Z"/><path class="cls-3" d="M75.02,166.09c0-.56-.05-1.35-.16-1.91h2.49c-.06.56-.14,1.26-.14,1.91v2.36c2.13.62,5.19,1.75,6.66,2.47l-.91,2.2c-1.64-.86-4.03-1.78-5.75-2.37v4.51c0,.46.08,1.58.14,2.23h-2.49c.1-.64.16-1.59.16-2.23v-9.16Z"/><path class="cls-3" d="M93.95,166.54c-.51,1.56-1.8,5.61-2.6,7.74,1.94-.19,4.21-.45,5.81-.64-.56-1.15-1.15-2.21-1.67-2.92l1.99-.81c1.13,1.72,2.76,4.84,3.49,6.63l-2.15.96c-.21-.54-.46-1.19-.76-1.88-2.58.3-7.41.81-9.42,1.02-.4.05-.99.13-1.5.19l-.37-2.33c.54,0,1.23,0,1.75-.02.13,0,.29-.02.43-.02.92-2.36,2.29-6.72,2.76-8.38.22-.81.32-1.31.38-1.85l2.53.53c-.21.48-.45,1.07-.68,1.77Z"/><path class="cls-3" d="M105.88,170.46c.41.45,1.8,2.33,2.1,2.79l-1.19,1.47c-.19-.51-.56-1.29-.94-2.01v5.42h-1.69v-4.59c-.41,1.13-.88,2.17-1.39,2.9-.18-.57-.61-1.42-.88-1.96.78-.99,1.54-2.69,2.02-4.14h-1.75v-1.77h1.99v-.69l-1.29.3c-.03-.96-.35-2.47-.72-3.58l1.23-.32c.4,1.07.7,2.45.78,3.43v-4.33h1.69v4.06c.29-.97.56-2.28.7-3.23l1.5.32c-.38,1.24-.81,2.72-1.19,3.63l-1-.27v.69h1.51v1.77h-1.51v.16l.03-.03ZM116.91,168.39v1.37h-9.11v-1.37h3.54v-.68h-2.71v-1.26h2.71v-.64h-3.09v-1.35h3.09v-1.13h1.78v1.13h3.39v1.35h-3.39v.64h3.04v1.26h-3.04v.68h3.79ZM116,176.46c0,.78-.16,1.19-.72,1.43-.53.24-1.27.27-2.29.25-.06-.45-.29-1.07-.49-1.5.59.03,1.26.03,1.45.02.21,0,.27-.06.27-.24v-.67h-3.82v2.42h-1.75v-7.77h7.36v6.05ZM110.39,171.75v.78h3.82v-.78h-3.82ZM114.21,174.53v-.78h-3.82v.78h3.82Z"/><path class="cls-3" d="M124.52,172.45c-.76,0-1.31-.06-1.69-.24-1.26.56-2.6,1-3.95,1.35-.22-.4-.72-1.16-1.05-1.53,1.46-.32,2.9-.73,4.21-1.26v-3.03h1.69v2.25c1.64-.86,3.03-1.94,3.95-3.27l1.62.72c-1.04,1.4-2.44,2.58-4.05,3.54h1.93c.61,0,.72-.16.8-1.16.35.24,1.05.48,1.51.57-.21,1.64-.68,2.05-2.15,2.05h-2.82ZM121.56,168.43c-.4,1.18-1.02,2.36-2.1,3.06l-1.45-.97c.97-.61,1.66-1.62,2.01-2.64l1.55.56ZM120.33,167.81h-1.85v-3.35h5.8v-1.16h1.94v1.16h5.93v3.35h-1.94v-1.66h-6.13c.84.33,1.77.81,2.28,1.23l-.94,1.21c-.59-.51-1.77-1.15-2.74-1.53l.73-.91h-3.07v1.66ZM129.08,173.37h1.9v4.78h-1.9v-.59h-7.46v.61h-1.86v-4.8h1.86v2.45h2.69v-3.2h1.91v3.2h2.85v-2.45ZM130.11,167.97c.94.81,2.12,2.01,2.64,2.85l-1.45,1.02c-.48-.83-1.59-2.09-2.53-2.96l1.34-.91Z"/><path class="cls-3" d="M137.25,165.9c-.24,1.07-.76,4.57-.76,6.17,0,.32.02.72.06,1.04.21-.56.48-1.1.72-1.64l.97.8c-.45,1.31-.96,2.93-1.15,3.79-.05.22-.08.57-.08.75,0,.16.02.43.03.65l-1.8.14c-.33-1.12-.64-2.93-.64-5.1,0-2.41.48-5.42.65-6.64.06-.45.14-1.05.16-1.56l2.2.19c-.13.32-.32,1.13-.37,1.42ZM145.29,165.34c-.02.35-.03.94-.05,1.64.88-.08,1.71-.21,2.47-.37v1.99c-.76.11-1.59.21-2.47.27.03,1.55.11,2.82.18,3.9,1.32.54,2.33,1.35,3.09,2.06l-1.1,1.67c-.67-.62-1.31-1.18-1.94-1.61-.09,1.53-.96,2.61-3.11,2.61s-3.57-.92-3.57-2.6,1.37-2.72,3.54-2.72c.37,0,.72.02,1.04.06-.03-.99-.1-2.15-.11-3.28-.38.02-.76.02-1.13.02-.94,0-1.85-.03-2.79-.1v-1.9c.91.1,1.83.14,2.79.14.37,0,.75,0,1.12-.02,0-.78-.02-1.43-.02-1.77,0-.24-.05-.73-.11-1.05h2.28c-.05.3-.08.69-.1,1.04ZM142.14,175.63c.97,0,1.31-.51,1.31-1.45v-.29c-.41-.11-.84-.18-1.27-.18-.91,0-1.51.38-1.51.99,0,.65.64.92,1.48.92Z"/><path class="cls-3" d="M154.17,174.89h2.53v-7.15h-2.13v-1.45c1.18-.22,1.99-.53,2.74-.99h1.74v9.59h2.21v1.9h-7.09v-1.9Z"/><path class="cls-3" d="M162.91,175.67l1.24-1.42c.41.48,1.13.84,1.82.84,1.35,0,2.47-.99,2.57-3.95-.65.81-1.66,1.29-2.42,1.29-1.98,0-3.39-1.15-3.39-3.55s1.69-3.81,3.71-3.81c2.23,0,4.24,1.7,4.24,5.66,0,4.38-2.18,6.28-4.56,6.28-1.45,0-2.52-.62-3.2-1.34ZM166.56,170.76c.62,0,1.37-.37,1.91-1.26-.24-1.93-1.04-2.66-2.01-2.66-.88,0-1.59.67-1.59,2.04,0,1.29.65,1.88,1.69,1.88Z"/><path class="cls-3" d="M172.06,173.85c0-1.42.94-2.33,2.02-2.9v-.06c-.89-.65-1.56-1.5-1.56-2.71,0-1.9,1.51-3.11,3.55-3.11s3.43,1.24,3.43,3.12c0,1.13-.76,2.06-1.51,2.58v.08c1.07.61,1.98,1.45,1.98,2.99,0,1.78-1.58,3.15-3.97,3.15-2.25,0-3.93-1.31-3.93-3.15ZM177.78,173.77c0-1.15-1.1-1.56-2.61-2.18-.62.49-1.08,1.19-1.08,2.01,0,1.07.88,1.75,1.98,1.75,1,0,1.72-.56,1.72-1.58ZM177.58,168.35c0-.96-.57-1.62-1.56-1.62-.8,0-1.43.51-1.43,1.45,0,1.05.92,1.55,2.15,2.02.54-.57.84-1.19.84-1.85Z"/><path class="cls-3" d="M181.84,174.89h2.53v-7.15h-2.13v-1.45c1.18-.22,1.99-.53,2.74-.99h1.74v9.59h2.21v1.9h-7.09v-1.9Z"/><path class="cls-3" d="M209,174.77h-5.45v3.41h-1.96v-3.41h-7.17v-1.82h2.52v-4.19h4.65v-1.9h-3.41c-.65,1.13-1.42,2.15-2.17,2.9-.37-.32-1.18-.96-1.64-1.23,1.43-1.21,2.66-3.25,3.35-5.3l1.93.49c-.14.45-.32.88-.53,1.31h9v1.83h-4.57v1.9h4.21v1.77h-4.21v2.42h5.45v1.82ZM201.59,172.96v-2.42h-2.76v2.42h2.76Z"/><path class="cls-3" d="M222.43,173.72h-1.62v3.06h-2.17v-3.06h-5.78v-1.61l4.92-7.17h3.03v6.98h1.62v1.8ZM218.64,171.92v-2.76c0-.7.05-1.67.1-2.48h-.06c-.48.86-.92,1.66-1.34,2.31l-1.99,2.93h3.3Z"/><path class="cls-3" d="M238.65,175.75c0,1.15-.27,1.69-1,2.01-.76.33-1.88.37-3.52.37-.11-.56-.49-1.47-.8-1.99,1.12.06,2.45.05,2.8.05.38,0,.51-.13.51-.46v-2.31h-6.82c-.41,1.78-1.21,3.52-2.69,4.76-.29-.4-1.05-1.1-1.46-1.37,2.41-2.05,2.63-5.1,2.63-7.52v-5.24h10.35v11.71ZM236.64,171.57v-1.94h-6.39c-.02.61-.05,1.27-.11,1.94h6.5ZM230.25,165.88v1.94h6.39v-1.94h-6.39Z"/><path class="cls-3" d="M244.68,167.65v-.61c-.43.4-.89.78-1.42,1.16h6.37v4.95h-5.14c-.03.21-.06.43-.11.64h5.5v4.29h-1.64v-.45h-2.69v.49h-1.59v-2.63c-.29.84-.69,1.66-1.23,2.33-.24-.32-.91-.94-1.24-1.13,1.4-1.83,1.58-4.38,1.58-6.18v-2.17c-.17.11-.35.24-.53.35-.22-.41-.76-1.05-1.13-1.34,1.9-1.1,3.25-2.58,4-3.89h1.69c1.12.86,2.57,2.04,3.33,2.87l-1.21,1.4c-.22-.25-.51-.57-.84-.92v.83h-3.68ZM247.93,171.84v-.61h-3.28c0,.19-.02.4-.03.61h3.31ZM244.67,169.53v.57h3.27v-.57h-3.27ZM247.92,166.38c-.46-.45-.96-.91-1.42-1.27-.33.41-.7.84-1.12,1.27h2.53ZM245.54,175.16v1.13h2.69v-1.13h-2.69ZM252.36,174.18h-1.78v-8.97h1.78v8.97ZM255.9,163.61v12.3c0,1.05-.21,1.58-.84,1.86-.61.32-1.59.38-2.96.38-.08-.53-.35-1.39-.62-1.93.96.03,1.88.03,2.18.03.29,0,.4-.1.4-.37v-12.28h1.85Z"/><path class="cls-3" d="M272.02,175.65v1.9h-14.42v-1.9h7.93c.72-1.93,1.48-4.89,1.82-7.18l2.18.4c-.56,2.34-1.31,4.92-1.99,6.79h4.48ZM271.56,167.94h-13.45v-1.86h5.66v-2.77h1.98v2.77h5.81v1.86ZM261.52,175.16c-.11-1.66-.67-4.21-1.37-6.15l1.82-.48c.75,1.96,1.34,4.43,1.5,6.12l-1.94.51Z"/><path class="cls-3" d="M47.99,61.82v-.87c-.62.58-1.29,1.13-2.05,1.68h9.2v7.16h-7.43c-.05.3-.09.62-.16.92h7.94v6.19h-2.37v-.64h-3.89v.71h-2.3v-3.8c-.41,1.22-.99,2.39-1.77,3.36-.34-.46-1.31-1.36-1.79-1.63,2.03-2.65,2.28-6.33,2.28-8.93v-3.13c-.25.16-.51.35-.76.51-.32-.6-1.1-1.52-1.63-1.93,2.74-1.59,4.69-3.73,5.78-5.61h2.44c1.61,1.24,3.71,2.95,4.81,4.14l-1.75,2.02c-.32-.37-.74-.83-1.22-1.33v1.2h-5.32ZM52.68,67.87v-.87h-4.74c0,.28-.02.58-.05.87h4.79ZM47.97,64.53v.83h4.72v-.83h-4.72ZM52.66,59.98c-.67-.64-1.38-1.31-2.05-1.84-.48.6-1.01,1.22-1.61,1.84h3.66ZM49.23,72.65v1.63h3.89v-1.63h-3.89ZM59.08,71.25h-2.58v-12.95h2.58v12.95ZM64.19,55.97v17.76c0,1.52-.3,2.28-1.22,2.69-.87.46-2.3.55-4.28.55-.12-.76-.51-2-.9-2.78,1.38.05,2.71.05,3.15.05.41,0,.58-.14.58-.53v-17.74h2.67Z"/><path class="cls-3" d="M87.48,73.37v2.74h-20.82v-2.74h11.46c1.04-2.78,2.14-7.06,2.62-10.38l3.15.58c-.81,3.38-1.89,7.11-2.88,9.8h6.47ZM86.81,62.23h-19.42v-2.69h8.17v-4h2.85v4h8.4v2.69ZM72.31,72.65c-.16-2.39-.97-6.07-1.98-8.88l2.62-.69c1.08,2.83,1.93,6.4,2.16,8.84l-2.81.74Z"/><path class="cls-3" d="M274.61,125.98h-14.53v9.09h-5.22v-9.09h-19.12v-4.84h6.71v-11.17h12.4v-5.06h-9.09c-1.74,3.02-3.78,5.73-5.78,7.73-.98-.85-3.14-2.55-4.38-3.27,3.82-3.23,7.09-8.67,8.92-14.15l5.14,1.32c-.38,1.19-.85,2.34-1.4,3.48h24v4.89h-12.19v5.06h11.21v4.72h-11.21v6.46h14.53v4.84ZM254.85,121.14v-6.46h-7.35v6.46h7.35Z"/><circle class="cls-2" cx="835.4" cy="68.33" r="61.95"/><path class="cls-3" d="M482.1,163.6c-.19.43-.4.84-.64,1.26h7.38v7.87c0,.94-.17,1.45-.83,1.74-.62.3-1.53.32-2.82.32-.08-.53-.33-1.32-.57-1.83.81.05,1.74.05,2.01.05.27-.02.37-.1.37-.32v-.96h-5.75v3.04h-1.88v-6.93c-.64.7-1.32,1.34-2.1,1.86-.27-.41-.88-1.1-1.24-1.45,1.69-1.13,3.01-2.8,3.97-4.65h-3.49v-1.78h4.29c.25-.65.46-1.29.62-1.93l1.96.45c-.16.49-.32.99-.51,1.48h7.77v1.78h-8.52ZM486.99,166.52h-5.75v1.02h5.75v-1.02ZM486.99,170.15v-1.04h-5.75v1.04h5.75Z"/><path class="cls-3" d="M494.03,169.5c-.16,1.5-.49,3.09-.96,4.11-.33-.21-1.04-.54-1.45-.69.46-.94.72-2.36.84-3.7l1.56.27ZM496.85,165.05c.61,1.08,1.23,2.47,1.4,3.38l-1.34.61c-.05-.24-.11-.51-.21-.81l-.81.06v6.52h-1.64v-6.4l-2.31.14-.16-1.64,1.15-.05c.24-.3.49-.65.75-1.02-.46-.69-1.23-1.53-1.88-2.17l.91-1.29c.11.1.24.21.37.32.45-.88.89-1.93,1.16-2.77l1.64.61c-.57,1.08-1.21,2.31-1.78,3.2.21.22.38.45.54.64.54-.89,1.05-1.8,1.42-2.58l1.54.72c-.88,1.39-1.98,2.99-2.98,4.29l1.53-.06c-.17-.4-.37-.8-.56-1.15l1.26-.53ZM497.26,169.1c.4.91.81,2.07.99,2.87l-1.4.51c-.14-.8-.56-2.02-.92-2.96l1.34-.41ZM502.82,160.13c1.07,1.67,2.68,3.57,4.22,4.54-.4.48-.84,1.18-1.16,1.77-.38-.3-.78-.65-1.16-1.04v1.31h-5.24v-1.42c-.45.46-.91.88-1.39,1.24-.24-.49-.72-1.24-1.08-1.66,1.61-1.16,3.23-3.25,4.01-4.75h1.8ZM498.64,168.11h7.07v6.59h-1.82v-.78h-3.5v.84h-1.75v-6.66ZM504.32,164.99c-.91-.97-1.77-2.05-2.34-2.95-.54.89-1.31,1.98-2.21,2.95h4.56ZM500.39,169.79v2.49h3.5v-2.49h-3.5Z"/><path class="cls-3" d="M522.16,162.19c-.33,3.47-1.1,6.21-2.29,8.35.78,1.07,1.74,1.96,2.88,2.58-.43.35-1.02,1.07-1.31,1.56-1.08-.65-1.97-1.47-2.74-2.44-.81.99-1.75,1.78-2.83,2.44-.24-.41-.67-1-1.05-1.39v1.5h-1.83v-2.55c-1.83.32-3.7.61-5.16.83l-.37-1.9c.43-.05.92-.1,1.47-.16v-8.46h-1.08v-1.75h8v1.13h4.76l.32-.05,1.24.3ZM510.73,162.55v1.51h2.26v-1.51h-2.26ZM510.73,167.36h2.26v-1.59h-2.26v1.59ZM510.73,170.79c.73-.1,1.5-.21,2.26-.3v-1.43h-2.26v1.74ZM514.82,173.04c1.05-.59,1.98-1.45,2.76-2.53-.97-1.77-1.66-3.9-2.15-6.31l1.82-.37c.32,1.7.8,3.31,1.46,4.72.62-1.37,1.1-2.96,1.37-4.75h-4.7v-1.24h-.56v10.48Z"/><path class="cls-3" d="M528.66,164.11c-.38.67-.86,1.34-1.39,2.01v8.65h-1.83v-6.61c-.48.48-.96.92-1.43,1.29-.14-.41-.62-1.5-.91-1.96,1.42-.99,2.98-2.53,3.9-4.09l1.66.72ZM528.39,160.66c-1.05,1.47-2.68,3.03-4.17,4-.19-.43-.65-1.21-.94-1.61,1.24-.76,2.64-2.06,3.31-3.12l1.8.73ZM538.08,170.65h-2.18v2.26c0,.88-.16,1.32-.78,1.59-.59.27-1.39.27-2.47.27-.08-.51-.35-1.21-.59-1.69.67.03,1.42.03,1.62.03.22-.02.29-.08.29-.25v-2.21h-3.34c.64.61,1.42,1.43,1.82,1.99l-1.42,1c-.35-.61-1.16-1.55-1.83-2.21l1.18-.78h-2.23v-1.61h5.83v-.91h-5.45v-1.55h9.22v1.55h-1.85v.91h2.17l.02,1.61ZM537.22,165.88h-7.88v-5.51h7.88v5.51ZM535.31,161.69h-4.14v.8h4.14v-.8ZM535.31,163.73h-4.14v.83h4.14v-.83Z"/><path class="cls-3" d="M553.87,169.52h-6.26v5.27h-1.98v-5.27h-6.2v-1.91h6.2v-4.83h-5.37v-1.88h12.68v1.88h-5.34v4.83h6.26v1.91ZM542.97,163.29c.53,1.02,1.1,2.36,1.27,3.25l-1.85.57c-.16-.86-.65-2.25-1.16-3.31l1.74-.51ZM548.88,166.6c.51-.92,1.08-2.33,1.39-3.36l2.02.51c-.57,1.23-1.21,2.52-1.75,3.33l-1.66-.48Z"/><path class="cls-3" d="M569.56,162.44s-.02.65-.02.91c-.21,7.09-.43,9.64-1.07,10.48-.43.61-.84.78-1.5.89-.57.1-1.5.08-2.41.05-.03-.56-.29-1.37-.64-1.93.92.08,1.77.08,2.18.08.27,0,.46-.05.65-.29.46-.49.69-2.8.86-8.4h-5.05c-.29.53-.57,1-.88,1.45h4.38v1.69h-4.65v-1.32c-.16.21-.3.4-.46.57-.35-.33-1.16-.94-1.62-1.21l.17-.18h-.81v3.68c.54-.22,1.08-.43,1.61-.65l.41,1.75c-1.78.8-3.73,1.62-5.24,2.26l-.67-1.93c.57-.19,1.29-.45,2.05-.73v-4.38h-1.7v-1.78h1.7v-3.36h1.83v3.36h1.5v.92c.88-1.24,1.58-2.87,2.01-4.51l1.93.43c-.21.73-.45,1.45-.73,2.13h6.15ZM566.58,170.23c-1.78.75-3.73,1.53-5.24,2.13l-.75-1.78c1.4-.43,3.6-1.19,5.67-1.94l.32,1.59Z"/><path class="cls-3" d="M575.48,171.51h2.53v-7.15h-2.13v-1.45c1.18-.22,1.99-.53,2.74-.99h1.74v9.59h2.21v1.9h-7.09v-1.9Z"/><path class="cls-3" d="M584.09,172.05c3.08-2.93,5.1-4.94,5.1-6.64,0-1.16-.64-1.86-1.77-1.86-.86,0-1.56.57-2.17,1.23l-1.27-1.27c1.08-1.16,2.13-1.8,3.74-1.8,2.23,0,3.71,1.42,3.71,3.58,0,2.01-1.85,4.08-3.95,6.28.59-.06,1.37-.13,1.93-.13h2.58v1.98h-7.9v-1.35Z"/><path class="cls-3" d="M593.76,172.1c0-.88.62-1.53,1.45-1.53s1.46.65,1.46,1.53-.62,1.53-1.46,1.53-1.45-.67-1.45-1.53Z"/><path class="cls-3" d="M598.95,171.51h2.53v-7.15h-2.13v-1.45c1.18-.22,1.99-.53,2.74-.99h1.74v9.59h2.21v1.9h-7.09v-1.9Z"/><path class="cls-3" d="M607.28,172.02l1.08-1.5c.67.65,1.5,1.19,2.6,1.19,1.23,0,2.09-.72,2.09-2.01s-.8-1.99-1.99-1.99c-.7,0-1.08.18-1.77.62l-1.07-.68.32-5.73h6.31v1.96h-4.29l-.22,2.5c.48-.21.88-.32,1.42-.32,1.98,0,3.63,1.11,3.63,3.57s-1.94,4-4.13,4c-1.86,0-3.11-.73-3.98-1.61Z"/><path class="cls-3" d="M633.61,160.86v13.7h-2.04v-1h-7.07v1.04h-1.96v-13.73h11.07ZM624.5,162.78v3.43h7.07v-3.43h-7.07ZM631.58,171.65v-3.57h-7.07v3.57h7.07Z"/><path class="cls-3" d="M916.15,76.37h-36.12v-13.34h53.37v9.76c-18.22,22.24-21.15,37.97-22.45,68.45h-16.16c1.41-27.01,6.4-44.04,21.37-64.87Z"/><path class="cls-3" d="M940.24,131.8l7.38-10.2c4.56,4.45,10.2,8.14,17.68,8.14,8.35,0,14.21-4.88,14.21-13.67s-5.42-13.56-13.56-13.56c-4.77,0-7.38,1.19-12.04,4.23l-7.27-4.66,2.17-39.05h42.96v13.34h-29.18l-1.52,17.03c3.25-1.41,5.97-2.17,9.65-2.17,13.45,0,24.73,7.59,24.73,24.3s-13.23,27.23-28.09,27.23c-12.69,0-21.15-4.99-27.12-10.96Z"/><path class="cls-3" d="M885.03,178.42c3.08-2.93,5.1-4.94,5.1-6.64,0-1.16-.64-1.86-1.77-1.86-.86,0-1.56.57-2.17,1.23l-1.27-1.27c1.08-1.16,2.13-1.8,3.74-1.8,2.23,0,3.71,1.42,3.71,3.58,0,2.01-1.85,4.08-3.95,6.28.59-.06,1.37-.13,1.93-.13h2.58v1.98h-7.9v-1.35Z"/><path class="cls-3" d="M894.27,173.98c0-3.89,1.58-5.91,4-5.91s3.98,2.04,3.98,5.91-1.56,6.02-3.98,6.02-4-2.12-4-6.02ZM900.03,173.98c0-3.19-.75-4.08-1.77-4.08s-1.78.89-1.78,4.08.76,4.19,1.78,4.19,1.77-.99,1.77-4.19Z"/><path class="cls-3" d="M903.47,178.42c3.08-2.93,5.1-4.94,5.1-6.64,0-1.16-.64-1.86-1.77-1.86-.86,0-1.56.57-2.17,1.23l-1.27-1.27c1.08-1.16,2.13-1.8,3.74-1.8,2.23,0,3.71,1.42,3.71,3.58,0,2.01-1.85,4.08-3.95,6.28.59-.06,1.37-.13,1.93-.13h2.58v1.98h-7.9v-1.35Z"/><path class="cls-3" d="M912.43,178.36l1.1-1.48c.7.69,1.56,1.21,2.63,1.21,1.2,0,2.01-.57,2.01-1.56,0-1.11-.69-1.8-3.25-1.8v-1.69c2.17,0,2.87-.72,2.87-1.7,0-.89-.57-1.42-1.58-1.42-.84,0-1.53.4-2.23,1.05l-1.19-1.43c1.02-.89,2.15-1.47,3.54-1.47,2.28,0,3.82,1.12,3.82,3.09,0,1.24-.73,2.1-1.96,2.6v.08c1.32.35,2.34,1.32,2.34,2.84,0,2.1-1.9,3.33-4.14,3.33-1.86,0-3.12-.7-3.95-1.64Z"/><path class="cls-3" d="M922.37,178.47c0-.88.62-1.53,1.45-1.53s1.46.65,1.46,1.53-.62,1.53-1.46,1.53-1.45-.67-1.45-1.53Z"/><path class="cls-3" d="M927.56,177.88h2.53v-7.15h-2.13v-1.45c1.18-.22,1.99-.53,2.74-.99h1.74v9.59h2.21v1.9h-7.09v-1.9Z"/><path class="cls-3" d="M936.16,178.42c3.08-2.93,5.1-4.94,5.1-6.64,0-1.16-.64-1.86-1.77-1.86-.86,0-1.56.57-2.17,1.23l-1.27-1.27c1.08-1.16,2.13-1.8,3.74-1.8,2.23,0,3.71,1.42,3.71,3.58,0,2.01-1.85,4.08-3.95,6.28.59-.06,1.37-.13,1.93-.13h2.58v1.98h-7.9v-1.35Z"/><path class="cls-3" d="M955.28,177.25c-2.01.59-4.14,1.21-5.78,1.69l-.49-1.78c.65-.14,1.43-.35,2.29-.57v-3.2h-1.77v-1.74h1.77v-2.77h-1.91v-1.75h5.58v1.75h-1.83v2.77h1.66v1.74h-1.66v2.72c.62-.18,1.27-.35,1.9-.53l.25,1.67ZM962.35,179.46c.27,0,.35-.25.38-1.85.37.29,1.1.59,1.58.7-.16,2.18-.57,2.77-1.75,2.77h-1.19c-1.47,0-1.78-.54-1.78-2.15v-3.12h-.97c-.29,2.6-1.02,4.44-4.41,5.45-.19-.46-.67-1.19-1.05-1.56,2.88-.72,3.39-2.02,3.6-3.89h-1.16v-8.92h7.77v8.92h-1.96v3.12c0,.46.03.53.3.53h.65ZM957.35,169.42h4.16v-.99h-4.16v.99ZM957.35,171.85h4.16v-.99h-4.16v.99ZM957.35,174.27h4.16v-.99h-4.16v.99Z"/><path class="cls-3" d="M979.51,168.48v1.82h-8.52c-.53,1.1-1.13,2.17-1.86,3.14v7.71h-1.93v-5.54c-.45.41-.89.76-1.4,1.12-.21-.51-.64-1.37-.94-1.83,1.67-1.08,3.01-2.76,3.97-4.59h-3.46v-1.82h4.3c.27-.75.51-1.48.7-2.21l1.99.48c-.17.59-.38,1.16-.61,1.74h7.76ZM975.69,179.01h3.78v1.75h-9.54v-1.75h3.86v-3.63h-3.23v-1.75h3.23v-2.64h1.91v2.64h3.15v1.75h-3.15v3.63Z"/><path class="cls-3" d="M985.74,170.32c-.35.64-.76,1.29-1.21,1.93v8.95h-1.77v-6.82c-.41.45-.83.83-1.24,1.18-.17-.41-.68-1.37-.99-1.77,1.32-1,2.72-2.55,3.55-4.09l1.66.62ZM985.47,166.95c-1,1.37-2.49,2.92-3.81,3.89-.24-.38-.7-1.05-.99-1.39,1.13-.8,2.45-2.12,3.12-3.15l1.67.65ZM991.75,179.06c.43.06.89.1,1.35.1.43.02,2.09,0,2.64,0-.25.41-.48,1.29-.56,1.77h-2.23c-2.18,0-3.97-.53-5.23-2.45-.38,1.08-.91,2.01-1.62,2.76-.27-.33-1.02-1-1.45-1.29,1.47-1.39,1.93-3.74,2.05-6.52l1.9.13c-.06.94-.16,1.82-.3,2.64.4,1,.94,1.69,1.59,2.15v-6.63h-3.74v-1.8h2.18c-.35-.84-.96-1.99-1.5-2.84l1.56-.69c.65.94,1.35,2.18,1.69,3.03l-1.02.49h3.81l-1.23-.46c.51-.84,1.15-2.17,1.48-3.17l1.85.64c-.53,1.07-1.1,2.18-1.59,2.99h1.91v1.8h-3.55v2.47h3.12v1.74h-3.12v3.14Z"/><path class="cls-3" d="M1006.45,177.53c1.35.83,3.2,1.45,5.05,1.74-.43.41-.99,1.21-1.27,1.72-1.96-.49-3.89-1.45-5.35-2.69v2.87h-1.86v-2.77c-1.48,1.16-3.44,2.09-5.34,2.58-.27-.46-.81-1.19-1.21-1.58,1.78-.37,3.66-1.04,5.03-1.86h-4.57v-1.56h6.08v-.7h-4.59v-1.37h4.59v-.72h-5.38v-1.48h3.03c-.13-.4-.33-.88-.54-1.24l.19-.03h-3.33v-1.55h2.13c-.22-.61-.64-1.37-.99-1.98l1.62-.56c.46.69.99,1.62,1.21,2.25l-.78.29h1.45v-2.6h1.77v2.6h1.18v-2.6h1.78v2.6h1.42l-.57-.18c.38-.65.78-1.61,1-2.31l1.99.48c-.45.73-.88,1.45-1.24,2.01h2.07v1.55h-3c-.25.46-.51.89-.75,1.27h3.12v1.48h-5.53v.72h4.78v1.37h-4.78v.7h6.2v1.56h-4.62ZM1002.12,170.43c.22.41.43.89.54,1.23l-.27.05h2.98c.19-.38.38-.84.56-1.27h-3.81Z"/><path class="cls-3" d="M1022.99,178.39c1.5.45,3.17,1.02,4.27,1.47l-1.67,1.34c-1.23-.57-3.42-1.35-5.11-1.85l1.34-.96h-4.35l1.23.86c-1.29.75-3.33,1.51-4.94,1.91-.35-.4-1-.99-1.43-1.35,1.39-.3,3.03-.88,4.11-1.42h-2.5v-7.04h11.65v7.04h-2.58ZM1025.01,170.76h-10.37v-3.98h10.37v3.98ZM1015.8,173.33h7.81v-.69h-7.81v.69ZM1015.8,175.21h7.81v-.67h-7.81v.67ZM1015.8,177.12h7.81v-.7h-7.81v.7ZM1022.99,168.26h-6.44v1.04h6.44v-1.04Z"/><path class="cls-3" d="M1042.04,170.91c-.33,2.36-.88,4.33-1.74,5.94.73,1.13,1.66,2.04,2.82,2.64-.43.38-1.02,1.11-1.31,1.64-1.08-.65-1.96-1.5-2.68-2.53-.88,1.05-1.97,1.91-3.36,2.61-.11-.27-.35-.7-.61-1.08l-.72.73c-.43-.37-1-.78-1.66-1.19-.94.7-2.21,1.16-3.92,1.51-.11-.54-.45-1.18-.75-1.56,1.29-.18,2.28-.43,3.03-.86-.29-.16-.59-.3-.89-.43l-.17.3-1.66-.51c.35-.56.75-1.27,1.15-2.04h-1.51v-1.53h2.31c.19-.4.38-.78.54-1.13l.35.08v-1.53c-.73.73-1.59,1.4-2.39,1.85-.21-.41-.61-1.04-.96-1.37.97-.4,2.04-1.16,2.8-1.99h-2.49v-1.5h1.21c-.14-.54-.49-1.27-.83-1.85l1.37-.57c.41.61.83,1.42.96,1.98l-1.02.45h1.34v-2.68h1.74v2.68h1.26l-1.05-.46c.37-.57.81-1.42,1.07-2.02l1.59.64c-.49.69-.99,1.35-1.37,1.85h1.51v1.5h-2.61c.76.43,1.9,1.1,2.25,1.34l-1,1.31c-.35-.33-1.02-.89-1.64-1.39v1.93h-1.02l.69.14-.38.76h3.79c-.37-.37-.94-.86-1.29-1.1,1.35-1.62,2.12-4.33,2.5-7.17l1.91.25c-.13.89-.3,1.77-.51,2.61h4.24v1.75h-.89ZM1031.05,176.93c.48.19.94.38,1.4.61.25-.4.46-.88.61-1.45h-1.54l-.46.84ZM1034.84,176.08c-.17.89-.45,1.64-.84,2.26.49.29.96.57,1.32.84,1.18-.62,2.1-1.42,2.8-2.41-.45-.94-.8-1.99-1.08-3.14-.22.41-.48.8-.73,1.15-.06-.06-.13-.14-.22-.24v1.53h-1.24ZM1038.25,170.91c.22,1.34.54,2.6.97,3.74.4-1.08.69-2.34.86-3.74h-1.83Z"/><path class="cls-3" d="M802.92,64.33c-.51.92-1.1,1.86-1.75,2.78v12.93h-2.55v-9.85c-.6.64-1.2,1.2-1.79,1.7-.25-.6-.99-1.98-1.43-2.55,1.91-1.45,3.93-3.68,5.13-5.91l2.39.9ZM802.52,59.48c-1.45,1.98-3.59,4.21-5.5,5.61-.35-.55-1.01-1.52-1.43-2,1.63-1.15,3.54-3.06,4.51-4.56l2.42.94ZM811.59,76.96c.62.09,1.29.14,1.96.14.62.02,3.01,0,3.82,0-.37.6-.69,1.86-.81,2.55h-3.22c-3.15,0-5.73-.76-7.55-3.54-.55,1.56-1.31,2.9-2.35,3.98-.39-.48-1.47-1.45-2.09-1.86,2.12-2,2.78-5.41,2.97-9.41l2.74.18c-.09,1.36-.23,2.62-.44,3.82.58,1.45,1.36,2.44,2.3,3.11v-9.57h-5.41v-2.6h3.15c-.51-1.22-1.38-2.88-2.16-4.1l2.26-.99c.94,1.36,1.96,3.15,2.44,4.37l-1.47.71h5.5l-1.77-.67c.74-1.22,1.66-3.13,2.14-4.58l2.67.92c-.76,1.54-1.59,3.15-2.3,4.33h2.76v2.6h-5.13v3.57h4.51v2.51h-4.51v4.53Z"/><path class="cls-3" d="M832.83,74.75c1.96,1.2,4.62,2.09,7.29,2.51-.62.6-1.43,1.75-1.84,2.49-2.83-.71-5.61-2.09-7.73-3.89v4.14h-2.69v-4c-2.14,1.68-4.97,3.01-7.71,3.73-.39-.67-1.17-1.73-1.75-2.28,2.58-.53,5.29-1.5,7.27-2.69h-6.6v-2.26h8.79v-1.01h-6.63v-1.98h6.63v-1.04h-7.78v-2.14h4.37c-.18-.58-.48-1.27-.78-1.79l.28-.05h-4.81v-2.23h3.08c-.32-.87-.92-1.98-1.43-2.85l2.35-.81c.67.99,1.43,2.35,1.75,3.24l-1.13.41h2.09v-3.75h2.55v3.75h1.7v-3.75h2.58v3.75h2.05l-.83-.25c.55-.94,1.13-2.32,1.45-3.34l2.88.69c-.64,1.06-1.27,2.09-1.79,2.9h2.99v2.23h-4.33c-.37.67-.74,1.29-1.08,1.84h4.51v2.14h-7.99v1.04h6.9v1.98h-6.9v1.01h8.95v2.26h-6.67ZM826.57,64.49c.32.6.62,1.29.78,1.77l-.39.07h4.3c.28-.55.55-1.22.8-1.84h-5.5Z"/><path class="cls-3" d="M856.71,76c2.16.64,4.58,1.47,6.17,2.12l-2.42,1.93c-1.77-.83-4.95-1.96-7.39-2.67l1.93-1.38h-6.28l1.77,1.24c-1.86,1.08-4.81,2.19-7.13,2.76-.51-.58-1.45-1.43-2.07-1.96,2-.44,4.37-1.27,5.94-2.05h-3.61v-10.17h16.82v10.17h-3.73ZM859.64,64.97h-14.98v-5.75h14.98v5.75ZM846.34,68.68h11.28v-.99h-11.28v.99ZM846.34,71.39h11.28v-.97h-11.28v.97ZM846.34,74.16h11.28v-1.01h-11.28v1.01ZM856.71,61.36h-9.3v1.5h9.3v-1.5Z"/><path class="cls-3" d="M1036.16,99.33c-.04.68-.08,1.53-.13,2.42.34,5.86,2.46,24.17,18.31,31.61-1.57,1.19-3.1,2.93-3.91,4.29-9.6-4.76-14.36-13.51-16.74-21.33-2.29,7.65-6.75,15.85-15.72,21.33-.89-1.32-2.55-2.85-4.25-4.04,16.95-9.39,16.36-28.67,16.65-34.28h5.78Z"/><path class="cls-3" d="M524.15,70.89h-36.12s0-13.33,0-13.33l53.37-.02v9.76c-18.21,22.24-21.14,37.97-22.43,68.45h-16.16c1.4-27.01,6.38-44.04,21.35-64.87Z"/><path class="cls-3" d="M548.25,126.31l7.37-10.2c4.56,4.45,10.2,8.13,17.68,8.13,8.35,0,14.21-4.89,14.21-13.67,0-8.68-5.43-13.56-13.56-13.56-4.77,0-7.38,1.2-12.04,4.23l-7.27-4.66,2.16-39.05h42.96s0,13.33,0,13.33h-29.18s-1.51,17.04-1.51,17.04c3.25-1.41,5.96-2.17,9.65-2.17,13.45,0,24.74,7.59,24.74,24.29,0,17.25-13.23,27.23-28.09,27.24-12.69,0-21.16-4.98-27.12-10.95Z"/><path class="cls-3" d="M417.68,43.35c-.28.62-.57,1.22-.92,1.82h10.65s0,11.36,0,11.36c0,1.36-.25,2.09-1.2,2.51-.9.44-2.21.46-4.07.46-.12-.76-.48-1.91-.83-2.65,1.17.07,2.51.07,2.9.07.39-.02.53-.14.53-.46v-1.38s-8.31,0-8.31,0v4.4s-2.71,0-2.71,0v-10.01c-.92,1.01-1.91,1.93-3.04,2.69-.39-.6-1.27-1.59-1.8-2.09,2.44-1.63,4.35-4.05,5.73-6.72h-5.04s0-2.58,0-2.58h6.19c.37-.95.67-1.87.9-2.79l2.83.64c-.23.71-.46,1.43-.74,2.14h11.23s0,2.57,0,2.57h-12.31ZM424.75,47.56h-8.31v1.48h8.31v-1.48ZM424.75,52.81v-1.5h-8.31v1.5h8.31Z"/><path class="cls-3" d="M434.92,51.86c-.23,2.16-.71,4.46-1.38,5.94-.48-.3-1.5-.78-2.09-.99.67-1.36,1.03-3.41,1.22-5.34l2.25.39ZM438.99,45.44c.87,1.56,1.77,3.57,2.03,4.88l-1.93.88c-.07-.35-.16-.74-.3-1.17l-1.17.09v9.41s-2.37,0-2.37,0v-9.25s-3.34.21-3.34.21l-.23-2.37,1.66-.07c.35-.44.71-.94,1.08-1.47-.67-.99-1.77-2.21-2.72-3.13l1.31-1.86c.16.14.35.3.53.46.64-1.27,1.29-2.78,1.68-4l2.37.87c-.83,1.57-1.75,3.34-2.58,4.63.3.32.55.64.78.92.78-1.29,1.52-2.6,2.05-3.73l2.23,1.03c-1.27,2-2.85,4.33-4.3,6.19l2.21-.09c-.25-.58-.53-1.15-.81-1.66l1.82-.76ZM439.59,51.29c.58,1.31,1.17,2.99,1.43,4.14l-2.02.74c-.21-1.15-.81-2.92-1.34-4.28l1.93-.6ZM447.62,38.33c1.54,2.42,3.87,5.15,6.1,6.56-.58.69-1.22,1.7-1.68,2.55-.55-.44-1.13-.94-1.68-1.5v1.89s-7.57,0-7.57,0v-2.05c-.64.67-1.31,1.27-2,1.8-.35-.71-1.04-1.79-1.57-2.39,2.32-1.68,4.67-4.7,5.8-6.86h2.6ZM441.57,49.86h10.22s0,9.52,0,9.52h-2.62s0-1.13,0-1.13h-5.06s0,1.22,0,1.22h-2.53s0-9.62,0-9.62ZM449.78,45.35c-1.31-1.4-2.55-2.97-3.38-4.26-.78,1.29-1.89,2.85-3.2,4.26h6.58ZM444.1,52.27v3.59s5.06,0,5.06,0v-3.59s-5.06,0-5.06,0Z"/><path class="cls-3" d="M430,67.85c-.48,5.02-1.58,8.97-3.31,12.06,1.13,1.54,2.51,2.83,4.17,3.73-.62.51-1.47,1.54-1.89,2.26-1.56-.94-2.85-2.12-3.96-3.52-1.17,1.43-2.53,2.58-4.09,3.52-.34-.6-.97-1.45-1.52-2v2.16h-2.65s0-3.68,0-3.68c-2.65.46-5.34.88-7.46,1.2l-.53-2.74c.62-.07,1.33-.14,2.12-.23v-12.22s-1.57,0-1.57,0v-2.53h11.55s0,1.63,0,1.63h6.88s.46-.07.46-.07l1.79.44ZM413.48,68.39v2.19s3.27,0,3.27,0v-2.19s-3.27,0-3.27,0ZM413.48,75.34h3.27s0-2.3,0-2.3h-3.27s0,2.3,0,2.3ZM413.48,80.28c1.06-.14,2.16-.3,3.27-.44v-2.07h-3.27v2.51ZM419.4,83.53c1.52-.85,2.85-2.09,3.98-3.66-1.41-2.55-2.4-5.64-3.11-9.11l2.62-.53c.46,2.46,1.15,4.79,2.12,6.81.9-1.98,1.59-4.28,1.98-6.86h-6.79s0-1.79,0-1.79h-.81s0,15.14,0,15.14Z"/><path class="cls-3" d="M439.39,70.63c-.55.97-1.24,1.93-2,2.9v12.49s-2.64,0-2.64,0v-9.55c-.69.69-1.38,1.33-2.07,1.86-.21-.6-.9-2.16-1.31-2.83,2.05-1.43,4.3-3.66,5.64-5.92l2.39,1.03ZM439,65.64c-1.52,2.12-3.87,4.37-6.03,5.78-.28-.62-.94-1.75-1.36-2.32,1.79-1.1,3.82-2.97,4.78-4.51l2.6,1.06ZM452.99,80.06h-3.15s0,3.27,0,3.27c0,1.27-.23,1.91-1.13,2.3-.85.39-2,.39-3.57.39-.12-.74-.51-1.75-.85-2.44.97.05,2.05.05,2.35.05.32-.02.42-.12.42-.37v-3.2s-4.83,0-4.83,0c.92.87,2.05,2.07,2.62,2.88l-2.05,1.45c-.51-.87-1.68-2.23-2.65-3.2l1.7-1.13h-3.22s0-2.32,0-2.32h8.42s0-1.31,0-1.31h-7.87s0-2.23,0-2.23h13.32s0,2.23,0,2.23h-2.67s0,1.31,0,1.31h3.13s.02,2.32.02,2.32ZM451.75,73.18h-11.39s0-7.96,0-7.96h11.39s0,7.96,0,7.96ZM448.98,67.13h-5.98v1.15h5.98v-1.15ZM448.98,70.08h-5.98v1.2h5.98v-1.2Z"/><path class="cls-3" d="M462.17,75.83c.44-.41.88-.85,1.31-1.29-.83-.71-1.93-1.52-2.9-2.16l-1.68,1.43c-.71-.74-2.23-1.84-3.45-2.53l1.82-1.5c1.06.57,2.46,1.47,3.31,2.18l1.06-1.27.55.32c.37-.55.76-1.2,1.08-1.77h-7.52s0-2.44,0-2.44h8.1s0-2.23,0-2.23h2.81s0,2.23,0,2.23h8.31s0,2.44,0,2.44h-9.53s.51.19.51.19c-.71.92-1.47,1.86-2.14,2.65.41.3.81.57,1.15.85.78-.94,1.52-1.86,2.09-2.69l2.14.99c-1.26,1.5-2.81,3.11-4.28,4.49l2.37-.12c-.25-.44-.55-.85-.83-1.24l1.93-.81c.37.48.78,1.04,1.15,1.59l1.4-1.13c1.59.78,3.73,2.05,4.81,2.94l-1.98,1.63c-.78-.69-2.26-1.7-3.66-2.51.35.6.62,1.17.78,1.66l-2.07.92c-.12-.35-.28-.74-.48-1.15-2.78.25-5.59.46-7.8.62l-.28-1.59c-1.45.71-2.97,1.43-4.21,1.98l-1.29-2.21c1.45-.46,3.66-1.31,5.77-2.14l.42,1.7,1.22-.05ZM466.66,79.42h9.02s0,2.53,0,2.53h-9.02s0,4.1,0,4.1h-2.81s0-4.09,0-4.09h-8.84s0-2.53,0-2.53h8.84v-1.48h2.81s0,1.47,0,1.47ZM469.58,72.47c1.04-.78,2.32-1.98,3.11-2.92l2.44,1.17c-1.17,1.08-2.51,2.12-3.54,2.83l-2-1.08Z"/><path class="cls-3" d="M619.22,111.57c0-6.33,3.18-9.94,7.68-9.94,4.55,0,7.69,3.61,7.69,9.94s-3.14,10.07-7.69,10.07c-4.5,0-7.69-3.74-7.69-10.07ZM630.22,111.57c0-4.63-1.45-6.41-3.32-6.41-1.83,0-3.27,1.79-3.27,6.42,0,4.63,1.45,6.5,3.27,6.5,1.87,0,3.31-1.87,3.31-6.5ZM645.13,101.62h3.74s-17.19,32.71-17.19,32.71h-3.7s17.15-32.71,17.15-32.71ZM642.16,124.31c0-6.33,3.23-9.98,7.73-9.99,4.5,0,7.69,3.65,7.69,9.98,0,6.29-3.18,10.03-7.69,10.03-4.5,0-7.73-3.74-7.73-10.02ZM653.16,124.31c0-4.67-1.4-6.41-3.27-6.41-1.87,0-3.31,1.74-3.31,6.42,0,4.59,1.45,6.5,3.31,6.5,1.87,0,3.27-1.91,3.27-6.5Z"/><path class="cls-3" d="M607.82,86.85c0-2.34,1.66-4.08,3.87-4.08s3.91,1.74,3.91,4.08-1.66,4.08-3.91,4.08-3.87-1.78-3.87-4.08Z"/><path class="cls-3" d="M621.67,85.28h6.75v-19.07h-5.69v-3.87c3.14-.59,5.31-1.4,7.31-2.63h4.63v25.57h5.91v5.06h-18.9v-5.06Z"/><path class="cls-3" d="M643.89,86.64l2.89-3.99c1.78,1.74,3.99,3.19,6.92,3.19,3.27,0,5.56-1.91,5.56-5.35s-2.12-5.31-5.31-5.31c-1.87,0-2.89.47-4.71,1.66l-2.85-1.83.85-15.29h16.82v5.23h-11.43l-.59,6.67c1.27-.55,2.34-.85,3.78-.85,5.27,0,9.69,2.97,9.69,9.52s-5.18,10.66-11,10.66c-4.97,0-8.28-1.95-10.62-4.29Z"/><line class="cls-1" x1="323.26" y1="4.89" x2="323.26" y2="212.22"/><line class="cls-1" x1="727.57" y1="4.89" x2="727.57" y2="212.22"/></g></svg>