<?xml version="1.0" encoding="UTF-8"?><svg id="_レイヤー_2" xmlns="http://www.w3.org/2000/svg" viewBox="0 0 251.13 644.88"><defs><style>.cls-1{fill:none;stroke:#fff;stroke-miterlimit:10;stroke-width:1.79px;}.cls-2{fill:#fff;}.cls-2,.cls-3{stroke-width:0px;}.cls-3{fill:#0017af;}</style></defs><g id="_レイヤー_1-2"><circle class="cls-2" cx="75.06" cy="61.95" r="61.95"/><circle class="cls-2" cx="72.36" cy="299.57" r="61.95"/><path class="cls-3" d="M99.2,113.76h-9.55v20.83h-14.86v-20.83h-34.17v-10.85l29.94-48.6h19.09v47.29h9.55v12.15ZM74.79,101.62v-16.38c0-4.66.43-11.93.65-16.6h-.43c-1.95,4.23-4.12,8.68-6.4,13.02l-12.47,19.96h18.66Z"/><path class="cls-3" d="M105.81,125.37c21.8-19.53,34.71-34.6,34.71-46.97,0-8.14-4.45-13.02-12.04-13.02-5.86,0-10.74,3.8-14.75,8.24l-8.68-8.68c7.38-7.81,14.54-12.15,25.49-12.15,15.19,0,25.27,9.76,25.27,24.73s-12.04,30.16-26.68,44.47c4.01-.43,9.33-.87,13.02-.87h17.46v13.45h-53.8v-9.22Z"/><path class="cls-3" d="M41.19,161.35h7.26v1.96h-4.91v3.07h4.19v1.98h-4.19v4.78h-2.36v-11.79Z"/><path class="cls-3" d="M50.16,164.21h1.91l.16,1.58h.06c.65-1.16,1.61-1.8,2.53-1.8.49,0,.78.08,1.05.19l-.41,2.02c-.3-.1-.56-.14-.92-.14-.7,0-1.55.46-2.06,1.75v5.32h-2.33v-8.92Z"/><path class="cls-3" d="M56.39,168.69c0-2.98,2.05-4.7,4.29-4.7s4.29,1.72,4.29,4.7-2.05,4.67-4.29,4.67-4.29-1.72-4.29-4.67ZM62.57,168.69c0-1.69-.68-2.79-1.9-2.79s-1.9,1.1-1.9,2.79.68,2.76,1.9,2.76,1.9-1.08,1.9-2.76Z"/><path class="cls-3" d="M66.76,164.21h1.91l.16,1.19h.06c.75-.78,1.58-1.42,2.74-1.42,1.27,0,2.02.57,2.45,1.56.81-.86,1.67-1.56,2.84-1.56,1.9,0,2.77,1.34,2.77,3.58v5.56h-2.34v-5.27c0-1.37-.4-1.86-1.24-1.86-.51,0-1.08.33-1.72,1v6.13h-2.34v-5.27c0-1.37-.4-1.86-1.24-1.86-.51,0-1.08.33-1.72,1v6.13h-2.33v-8.92Z"/><path class="cls-3" d="M91.14,170.11h-3.82l-.83,3.03h-2.39l3.78-11.79h2.77l3.79,11.79h-2.47l-.83-3.03ZM90.63,168.28l-.35-1.29c-.37-1.23-.68-2.58-1.04-3.86h-.06c-.3,1.29-.65,2.63-1,3.86l-.35,1.29h2.8Z"/><path class="cls-3" d="M95.47,164.21h1.91l.16.92h.06c.75-.64,1.67-1.15,2.63-1.15,2.2,0,3.5,1.8,3.5,4.54,0,3.06-1.83,4.83-3.79,4.83-.78,0-1.53-.35-2.21-.97l.06,1.47v2.71h-2.33v-12.35ZM101.33,168.56c0-1.7-.54-2.64-1.77-2.64-.61,0-1.15.3-1.77.92v3.92c.57.49,1.15.67,1.62.67,1.08,0,1.91-.92,1.91-2.87Z"/><path class="cls-3" d="M105.57,164.21h1.91l.16,1.58h.06c.65-1.16,1.61-1.8,2.53-1.8.49,0,.78.08,1.05.19l-.41,2.02c-.3-.1-.56-.14-.92-.14-.7,0-1.55.46-2.06,1.75v5.32h-2.33v-8.92Z"/><path class="cls-3" d="M112.13,161.51c0-.76.59-1.27,1.4-1.27s1.39.51,1.39,1.27-.59,1.27-1.39,1.27-1.4-.54-1.4-1.27ZM112.36,164.21h2.33v8.92h-2.33v-8.92Z"/><path class="cls-3" d="M117.04,170.63v-10.21h2.33v10.32c0,.53.25.7.48.7.1,0,.16,0,.32-.03l.29,1.74c-.27.11-.67.21-1.21.21-1.62,0-2.2-1.07-2.2-2.72Z"/><path class="cls-3" d="M125.4,171.24h2.53v-7.46h-2.13v-1.45c1.18-.22,1.99-.53,2.74-.99h1.74v9.89h2.21v1.9h-7.09v-1.9Z"/><path class="cls-3" d="M135.38,170.62c.43.46,1.16.83,1.86.83,1.32,0,2.42-1,2.52-3.97-.61.8-1.61,1.29-2.42,1.29-1.96,0-3.38-1.21-3.38-3.71s1.69-3.93,3.71-3.93c2.23,0,4.24,1.75,4.24,5.85,0,4.46-2.18,6.39-4.52,6.39-1.47,0-2.53-.62-3.23-1.34l1.23-1.4ZM139.72,165.84c-.21-2.15-1.02-2.95-2.02-2.95-.88,0-1.59.72-1.59,2.17s.65,2.04,1.67,2.04c.64,0,1.37-.35,1.94-1.26Z"/><path class="cls-3" d="M144.6,170.62c.43.46,1.16.83,1.86.83,1.32,0,2.42-1,2.52-3.97-.61.8-1.61,1.29-2.42,1.29-1.96,0-3.38-1.21-3.38-3.71s1.69-3.93,3.71-3.93c2.23,0,4.24,1.75,4.24,5.85,0,4.46-2.18,6.39-4.52,6.39-1.47,0-2.53-.62-3.23-1.34l1.23-1.4ZM148.95,165.84c-.21-2.15-1.02-2.95-2.02-2.95-.88,0-1.59.72-1.59,2.17s.65,2.04,1.67,2.04c.64,0,1.37-.35,1.94-1.26Z"/><path class="cls-3" d="M153.07,171.24h2.53v-7.46h-2.13v-1.45c1.18-.22,1.99-.53,2.74-.99h1.74v9.89h2.21v1.9h-7.09v-1.9Z"/><path class="cls-3" d="M52.76,22.78h7.72v2.09h-5.2v2.91h4.42v2.11h-4.42v3.37h5.39v2.11h-7.9v-12.58Z"/><path class="cls-3" d="M61.94,34.25l1.14-1.56c.85.66,1.67,1.04,2.55,1.04.95,0,1.38-.41,1.38-1,0-.71-.99-1.04-1.99-1.43-1.21-.46-2.6-1.19-2.6-2.77,0-1.72,1.39-2.92,3.54-2.92,1.39,0,2.45.58,3.25,1.17l-1.12,1.51c-.68-.48-1.34-.82-2.06-.82-.85,0-1.26.37-1.26.92,0,.7.94.95,1.94,1.33,1.26.48,2.65,1.1,2.65,2.87,0,1.67-1.31,3.01-3.79,3.01-1.27,0-2.69-.56-3.62-1.34Z"/><path class="cls-3" d="M71.45,32.02v-4.22h-1.34v-1.85l1.46-.12.29-2.55h2.09v2.55h2.35v1.97h-2.35v4.22c0,1.09.44,1.6,1.29,1.6.31,0,.68-.1.94-.2l.41,1.82c-.51.17-1.17.36-2.01.36-2.26,0-3.13-1.43-3.13-3.57Z"/><path class="cls-3" d="M77.58,32.77c0-2.04,1.65-3.11,5.47-3.52-.04-.94-.44-1.65-1.62-1.65-.88,0-1.73.39-2.62.9l-.9-1.65c1.12-.7,2.48-1.26,3.98-1.26,2.41,0,3.65,1.44,3.65,4.2v5.56h-2.04l-.19-1.02h-.05c-.83.71-1.79,1.26-2.87,1.26-1.7,0-2.82-1.21-2.82-2.82ZM83.06,32.7v-1.92c-2.31.31-3.09.93-3.09,1.78,0,.75.53,1.07,1.26,1.07s1.24-.34,1.84-.94Z"/><path class="cls-3" d="M90.16,34.35h-.05l-.22,1h-1.96v-13.56h2.48v3.42l-.05,1.53c.75-.68,1.7-1.14,2.63-1.14,2.35,0,3.76,1.92,3.76,4.83,0,3.28-1.96,5.17-4.05,5.17-.85,0-1.77-.44-2.55-1.24ZM94.19,30.48c0-1.82-.58-2.82-1.89-2.82-.65,0-1.22.32-1.89.99v4.18c.6.53,1.22.71,1.73.71,1.16,0,2.04-.99,2.04-3.06Z"/><path class="cls-3" d="M98.71,32.69v-10.9h2.48v11.01c0,.56.27.75.51.75.1,0,.17,0,.34-.03l.31,1.85c-.29.12-.71.22-1.29.22-1.73,0-2.35-1.14-2.35-2.91Z"/><path class="cls-3" d="M103.66,22.95c0-.82.63-1.36,1.5-1.36s1.48.54,1.48,1.36-.63,1.36-1.48,1.36-1.5-.58-1.5-1.36ZM103.9,25.84h2.48v9.52h-2.48v-9.52Z"/><path class="cls-3" d="M107.99,34.25l1.14-1.56c.85.66,1.67,1.04,2.55,1.04.95,0,1.38-.41,1.38-1,0-.71-.99-1.04-1.99-1.43-1.21-.46-2.6-1.19-2.6-2.77,0-1.72,1.39-2.92,3.54-2.92,1.39,0,2.45.58,3.25,1.17l-1.12,1.51c-.68-.48-1.34-.82-2.06-.82-.85,0-1.26.37-1.26.92,0,.7.93.95,1.94,1.33,1.26.48,2.65,1.1,2.65,2.87,0,1.67-1.31,3.01-3.79,3.01-1.28,0-2.69-.56-3.62-1.34Z"/><path class="cls-3" d="M117.14,21.79h2.48v3.42l-.1,1.78c.77-.71,1.7-1.39,2.99-1.39,2.06,0,2.94,1.43,2.94,3.82v5.93h-2.5v-5.63c0-1.46-.41-1.99-1.34-1.99-.78,0-1.28.37-1.99,1.07v6.54h-2.48v-13.56Z"/><path class="cls-3" d="M127.26,30.61c0-3.09,2.16-5.01,4.44-5.01,2.62,0,3.98,1.92,3.98,4.56,0,.46-.05.92-.12,1.14h-5.87c.21,1.56,1.22,2.38,2.63,2.38.78,0,1.46-.24,2.14-.66l.85,1.53c-.94.65-2.14,1.05-3.33,1.05-2.65,0-4.72-1.85-4.72-4.98ZM133.53,29.64c0-1.29-.58-2.11-1.8-2.11-1,0-1.89.71-2.07,2.11h3.88Z"/><path class="cls-3" d="M137.01,30.61c0-3.11,1.94-5.01,3.99-5.01,1.07,0,1.73.41,2.41,1.04l-.1-1.5v-3.35h2.5v13.56h-2.02l-.2-.99h-.05c-.7.68-1.65,1.22-2.63,1.22-2.36,0-3.89-1.87-3.89-4.98ZM143.32,32.55v-4.18c-.58-.53-1.17-.71-1.77-.71-1.07,0-1.97,1.02-1.97,2.92s.71,2.96,1.97,2.96c.66,0,1.22-.27,1.77-.99Z"/><path class="cls-3" d="M157.11,23.73c-.32-.12-.7-.2-1-.2-.75,0-1.16.44-1.16,1.5v.82h1.79v1.97h-1.79v7.55h-2.5v-7.55h-1.28v-1.85l1.28-.1v-.78c0-1.99.92-3.52,3.31-3.52.73,0,1.38.17,1.8.34l-.46,1.84Z"/><path class="cls-3" d="M157.58,30.61c0-3.18,2.19-5.01,4.57-5.01s4.57,1.84,4.57,5.01-2.19,4.98-4.57,4.98-4.57-1.84-4.57-4.98ZM164.18,30.61c0-1.8-.73-2.97-2.02-2.97s-2.02,1.17-2.02,2.97.73,2.94,2.02,2.94,2.02-1.16,2.02-2.94Z"/><path class="cls-3" d="M168.65,25.84h2.04l.17,1.68h.07c.7-1.24,1.72-1.92,2.7-1.92.53,0,.83.08,1.12.2l-.44,2.16c-.32-.1-.6-.15-.99-.15-.75,0-1.65.49-2.19,1.87v5.68h-2.48v-9.52Z"/><path class="cls-3" d="M171.99,134.32l.84-3.5c.31.09.81.22,1.21.22,1.77,0,2.76-1.12,3.25-2.64l.31-1.02-6.76-17.05h4.59l2.76,8.06c.53,1.55.96,3.22,1.46,4.9h.15c.4-1.61.84-3.29,1.24-4.9l2.39-8.06h4.37l-6.17,17.89c-1.52,4.09-3.38,6.45-7.26,6.45-1.02,0-1.71-.12-2.39-.34Z"/><path class="cls-3" d="M189.25,119.04c0-5.64,3.94-9.15,8.09-9.15,4.77,0,7.25,3.5,7.25,8.31,0,.84-.09,1.67-.22,2.08h-10.7c.37,2.85,2.23,4.34,4.81,4.34,1.43,0,2.67-.43,3.91-1.21l1.55,2.79c-1.71,1.18-3.91,1.92-6.08,1.92-4.84,0-8.62-3.38-8.62-9.08ZM200.69,117.27c0-2.36-1.05-3.84-3.29-3.84-1.83,0-3.44,1.3-3.78,3.84h7.07Z"/><path class="cls-3" d="M207.17,122.98c0-3.72,3.01-5.67,9.98-6.42-.06-1.71-.81-3.01-2.95-3.01-1.61,0-3.16.71-4.78,1.64l-1.64-3.01c2.05-1.27,4.53-2.29,7.26-2.29,4.4,0,6.67,2.64,6.67,7.66v10.14h-3.72l-.34-1.86h-.09c-1.52,1.3-3.25,2.29-5.24,2.29-3.1,0-5.15-2.2-5.15-5.15ZM217.15,122.85v-3.5c-4.22.56-5.64,1.71-5.64,3.26,0,1.36.96,1.95,2.29,1.95s2.26-.62,3.35-1.71Z"/><path class="cls-3" d="M226.05,110.32h3.72l.31,3.07h.12c1.27-2.26,3.13-3.5,4.93-3.5.96,0,1.52.16,2.05.37l-.81,3.94c-.59-.19-1.08-.28-1.8-.28-1.37,0-3.01.9-4,3.41v10.36h-4.53v-17.36Z"/><path class="cls-3" d="M237.61,125.67l2.08-2.85c1.55,1.21,3.04,1.89,4.65,1.89,1.74,0,2.51-.74,2.51-1.83,0-1.3-1.8-1.89-3.63-2.6-2.2-.84-4.74-2.17-4.74-5.05,0-3.13,2.54-5.33,6.45-5.33,2.54,0,4.46,1.05,5.92,2.14l-2.05,2.76c-1.24-.87-2.45-1.49-3.75-1.49-1.55,0-2.29.68-2.29,1.67,0,1.27,1.71,1.74,3.54,2.42,2.29.87,4.84,2.02,4.84,5.24,0,3.04-2.39,5.49-6.91,5.49-2.33,0-4.9-1.02-6.6-2.45Z"/><circle class="cls-2" cx="69.18" cy="533.48" r="61.95"/><path class="cls-3" d="M7.04,407.73h-3.82l-.83,3.03H0l3.78-11.79h2.77l3.79,11.79h-2.47l-.83-3.03ZM6.53,405.9l-.35-1.29c-.37-1.23-.68-2.58-1.04-3.86h-.06c-.3,1.29-.65,2.63-1,3.86l-.35,1.29h2.8Z"/><path class="cls-3" d="M10.34,401.84h2.36l1.31,4.44c.22.88.48,1.8.72,2.71h.08c.22-.91.48-1.83.72-2.71l1.31-4.44h2.25l-2.98,8.92h-2.71l-3.04-8.92Z"/><path class="cls-3" d="M19.83,406.31c0-2.9,2.02-4.7,4.16-4.7,2.45,0,3.73,1.8,3.73,4.27,0,.43-.05.86-.11,1.07h-5.5c.19,1.47,1.15,2.23,2.47,2.23.73,0,1.37-.22,2.01-.62l.8,1.43c-.88.61-2.01.99-3.12.99-2.49,0-4.43-1.74-4.43-4.67ZM25.71,405.4c0-1.21-.54-1.98-1.69-1.98-.94,0-1.77.67-1.94,1.98h3.63Z"/><path class="cls-3" d="M29.49,401.84h1.91l.16,1.58h.06c.65-1.16,1.61-1.8,2.53-1.8.49,0,.78.08,1.05.19l-.41,2.02c-.3-.1-.56-.14-.92-.14-.7,0-1.55.46-2.06,1.75v5.32h-2.33v-8.92Z"/><path class="cls-3" d="M35.83,408.33c0-1.91,1.54-2.92,5.13-3.3-.03-.88-.42-1.54-1.51-1.54-.83,0-1.62.37-2.45.84l-.84-1.55c1.05-.65,2.33-1.18,3.73-1.18,2.26,0,3.43,1.35,3.43,3.93v5.21h-1.91l-.17-.96h-.05c-.78.67-1.67,1.18-2.69,1.18-1.59,0-2.64-1.13-2.64-2.64ZM40.96,408.27v-1.8c-2.17.29-2.9.88-2.9,1.67,0,.7.49,1,1.18,1s1.16-.32,1.72-.88Z"/><path class="cls-3" d="M44.94,412.33c0-.75.46-1.39,1.27-1.85v-.08c-.46-.3-.81-.76-.81-1.5,0-.67.46-1.29.99-1.67v-.06c-.61-.45-1.18-1.29-1.18-2.33,0-2.1,1.71-3.23,3.6-3.23.49,0,.97.1,1.34.22h3.22v1.72h-1.53c.24.3.42.8.42,1.35,0,2.01-1.53,3.03-3.44,3.03-.35,0-.76-.08-1.15-.21-.25.21-.38.41-.38.76,0,.48.35.73,1.4.73h1.51c2.15,0,3.31.67,3.31,2.23,0,1.8-1.86,3.17-4.84,3.17-2.1,0-3.73-.72-3.73-2.29ZM51.28,411.86c0-.64-.53-.8-1.48-.8h-1.08c-.54,0-.92-.05-1.24-.13-.4.32-.59.67-.59,1.04,0,.75.83,1.18,2.13,1.18s2.26-.59,2.26-1.29ZM50.2,404.85c0-1.05-.59-1.64-1.39-1.64s-1.4.59-1.4,1.64.62,1.64,1.4,1.64,1.39-.59,1.39-1.64Z"/><path class="cls-3" d="M54.32,406.31c0-2.9,2.02-4.7,4.16-4.7,2.45,0,3.73,1.8,3.73,4.27,0,.43-.05.86-.11,1.07h-5.5c.19,1.47,1.15,2.23,2.47,2.23.73,0,1.37-.22,2.01-.62l.8,1.43c-.88.61-2.01.99-3.12.99-2.49,0-4.43-1.74-4.43-4.67ZM60.2,405.4c0-1.21-.54-1.98-1.69-1.98-.94,0-1.77.67-1.94,1.98h3.63Z"/><path class="cls-3" d="M67.43,401.84h1.91l.16.92h.06c.75-.64,1.67-1.15,2.63-1.15,2.2,0,3.5,1.8,3.5,4.54,0,3.06-1.83,4.83-3.79,4.83-.78,0-1.53-.35-2.21-.97l.06,1.47v2.71h-2.33v-12.35ZM73.3,406.18c0-1.7-.54-2.64-1.77-2.64-.61,0-1.15.3-1.77.92v3.92c.57.49,1.15.67,1.62.67,1.08,0,1.91-.92,1.91-2.87Z"/><path class="cls-3" d="M77.09,408.33c0-1.91,1.54-2.92,5.13-3.3-.03-.88-.42-1.54-1.51-1.54-.83,0-1.62.37-2.45.84l-.84-1.55c1.05-.65,2.33-1.18,3.73-1.18,2.26,0,3.43,1.35,3.43,3.93v5.21h-1.91l-.17-.96h-.05c-.78.67-1.67,1.18-2.69,1.18-1.59,0-2.64-1.13-2.64-2.64ZM82.22,408.27v-1.8c-2.17.29-2.9.88-2.9,1.67,0,.7.49,1,1.18,1s1.16-.32,1.72-.88Z"/><path class="cls-3" d="M86.57,399.13c0-.76.59-1.27,1.4-1.27s1.39.51,1.39,1.27-.59,1.27-1.39,1.27-1.4-.54-1.4-1.27ZM86.79,401.84h2.33v8.92h-2.33v-8.92Z"/><path class="cls-3" d="M90.96,406.31c0-2.92,1.82-4.7,3.74-4.7,1,0,1.62.38,2.26.97l-.1-1.4v-3.14h2.34v12.71h-1.9l-.19-.92h-.05c-.65.64-1.55,1.15-2.47,1.15-2.21,0-3.65-1.75-3.65-4.67ZM96.88,408.13v-3.92c-.54-.49-1.1-.67-1.66-.67-1,0-1.85.96-1.85,2.74s.67,2.77,1.85,2.77c.62,0,1.15-.25,1.66-.92Z"/><path class="cls-3" d="M105.03,408.26v-10.21h2.33v10.32c0,.53.25.7.48.7.1,0,.16,0,.32-.03l.29,1.74c-.27.11-.67.21-1.21.21-1.62,0-2.2-1.07-2.2-2.72Z"/><path class="cls-3" d="M109.33,406.31c0-2.9,2.02-4.7,4.16-4.7,2.45,0,3.73,1.8,3.73,4.27,0,.43-.05.86-.11,1.07h-5.5c.19,1.47,1.15,2.23,2.47,2.23.73,0,1.37-.22,2.01-.62l.8,1.43c-.88.61-2.01.99-3.12.99-2.49,0-4.43-1.74-4.43-4.67ZM115.21,405.4c0-1.21-.54-1.98-1.69-1.98-.94,0-1.77.67-1.94,1.98h3.63Z"/><path class="cls-3" d="M118.54,408.33c0-1.91,1.54-2.92,5.13-3.3-.03-.88-.42-1.54-1.51-1.54-.83,0-1.62.37-2.45.84l-.84-1.55c1.05-.65,2.33-1.18,3.73-1.18,2.26,0,3.43,1.35,3.43,3.93v5.21h-1.91l-.17-.96h-.05c-.78.67-1.67,1.18-2.69,1.18-1.59,0-2.64-1.13-2.64-2.64ZM123.67,408.27v-1.8c-2.17.29-2.9.88-2.9,1.67,0,.7.49,1,1.18,1s1.16-.32,1.72-.88Z"/><path class="cls-3" d="M127.21,401.84h2.36l1.31,4.44c.22.88.48,1.8.72,2.71h.08c.22-.91.48-1.83.72-2.71l1.31-4.44h2.25l-2.98,8.92h-2.71l-3.04-8.92Z"/><path class="cls-3" d="M136.7,406.31c0-2.9,2.02-4.7,4.16-4.7,2.45,0,3.73,1.8,3.73,4.27,0,.43-.05.86-.11,1.07h-5.5c.19,1.47,1.15,2.23,2.47,2.23.73,0,1.37-.22,2.01-.62l.8,1.43c-.88.61-2.01.99-3.12.99-2.49,0-4.43-1.74-4.43-4.67ZM142.58,405.4c0-1.21-.54-1.98-1.69-1.98-.94,0-1.77.67-1.94,1.98h3.63Z"/><path class="cls-3" d="M149.68,403.41c0-.88.62-1.53,1.45-1.53s1.46.65,1.46,1.53-.62,1.51-1.46,1.51-1.45-.65-1.45-1.51ZM149.68,409.45c0-.86.62-1.53,1.45-1.53s1.46.67,1.46,1.53-.62,1.53-1.46,1.53-1.45-.67-1.45-1.53Z"/><path class="cls-3" d="M154.88,408.86h2.53v-7.46h-2.13v-1.45c1.18-.22,1.99-.53,2.74-.99h1.74v9.89h2.21v1.9h-7.09v-1.9Z"/><path class="cls-3" d="M163.48,409.4c3.2-2.87,5.1-5.08,5.1-6.9,0-1.19-.65-1.91-1.77-1.91-.86,0-1.58.56-2.17,1.21l-1.27-1.27c1.08-1.15,2.13-1.78,3.74-1.78,2.23,0,3.71,1.43,3.71,3.63s-1.77,4.43-3.92,6.53c.59-.06,1.37-.13,1.91-.13h2.56v1.98h-7.9v-1.35Z"/><path class="cls-3" d="M173.15,409.45c0-.86.62-1.53,1.45-1.53s1.46.67,1.46,1.53-.62,1.53-1.46,1.53-1.45-.67-1.45-1.53Z"/><path class="cls-3" d="M178.34,408.86h2.53v-7.46h-2.13v-1.45c1.18-.22,1.99-.53,2.74-.99h1.74v9.89h2.21v1.9h-7.09v-1.9Z"/><path class="cls-3" d="M186.67,409.37l1.08-1.5c.67.65,1.5,1.19,2.6,1.19,1.23,0,2.09-.78,2.09-2.17s-.8-2.13-1.99-2.13c-.7,0-1.08.18-1.77.62l-1.07-.7.32-5.72h6.31v1.96h-4.29l-.22,2.5c.46-.22.88-.33,1.42-.33,1.98,0,3.63,1.18,3.63,3.74s-1.94,4.14-4.13,4.14c-1.86,0-3.11-.73-3.98-1.61Z"/><path class="cls-3" d="M199.69,406.31c0-2.92,1.82-4.7,3.74-4.7,1,0,1.62.38,2.26.97l-.09-1.4v-3.14h2.34v12.71h-1.9l-.19-.92h-.05c-.65.64-1.55,1.15-2.47,1.15-2.21,0-3.65-1.75-3.65-4.67ZM205.6,408.13v-3.92c-.54-.49-1.1-.67-1.66-.67-1,0-1.85.96-1.85,2.74s.67,2.77,1.85,2.77c.62,0,1.15-.25,1.66-.92Z"/><path class="cls-3" d="M209.85,408.33c0-1.91,1.54-2.92,5.13-3.3-.03-.88-.42-1.54-1.51-1.54-.83,0-1.62.37-2.45.84l-.84-1.55c1.05-.65,2.33-1.18,3.73-1.18,2.26,0,3.42,1.35,3.42,3.93v5.21h-1.91l-.17-.96h-.05c-.78.67-1.67,1.18-2.69,1.18-1.59,0-2.64-1.13-2.64-2.64ZM214.98,408.27v-1.8c-2.17.29-2.9.88-2.9,1.67,0,.7.49,1,1.18,1s1.16-.32,1.72-.88Z"/><path class="cls-3" d="M219.11,414.17l.43-1.8c.16.05.41.11.62.11.91,0,1.42-.57,1.67-1.35l.16-.53-3.47-8.76h2.36l1.42,4.14c.27.8.49,1.66.75,2.52h.08c.21-.83.43-1.69.64-2.52l1.23-4.14h2.25l-3.17,9.19c-.78,2.1-1.74,3.31-3.73,3.31-.53,0-.88-.06-1.23-.17Z"/><path class="cls-3" d="M227.7,409.72l1.07-1.47c.8.62,1.56.97,2.39.97.89,0,1.29-.38,1.29-.94,0-.67-.92-.97-1.86-1.34-1.13-.43-2.44-1.11-2.44-2.6,0-1.61,1.31-2.74,3.31-2.74,1.31,0,2.29.54,3.04,1.1l-1.05,1.42c-.64-.45-1.26-.76-1.93-.76-.8,0-1.18.35-1.18.86,0,.65.88.89,1.82,1.24,1.18.45,2.48,1.04,2.48,2.69,0,1.56-1.23,2.82-3.55,2.82-1.2,0-2.52-.53-3.39-1.26Z"/><path class="cls-3" d="M92.32,539.19h-36.12v-13.34h53.37v9.65c-18.66,22.78-21.15,39.16-22.45,70.62h-16.16c1.41-27.88,6.07-45.67,21.37-66.93Z"/><path class="cls-3" d="M116.4,596.68l7.38-10.2c4.56,4.45,10.2,8.14,17.68,8.14,8.35,0,14.21-5.32,14.21-14.75s-5.42-14.54-13.56-14.54c-4.77,0-7.38,1.19-12.04,4.23l-7.27-4.77,2.17-38.94h42.96v13.34h-29.18l-1.52,17.03c3.15-1.52,5.97-2.28,9.65-2.28,13.45,0,24.73,8.03,24.73,25.49s-13.23,28.2-28.09,28.2c-12.69,0-21.15-4.99-27.12-10.96Z"/><path class="cls-3" d="M38.49,641.63h-3.82l-.83,3.03h-2.39l3.78-11.79h2.77l3.79,11.79h-2.47l-.83-3.03ZM37.98,639.8l-.35-1.29c-.37-1.23-.68-2.58-1.04-3.86h-.06c-.3,1.29-.65,2.63-1,3.86l-.35,1.29h2.8Z"/><path class="cls-3" d="M41.97,643.62l1.07-1.47c.8.62,1.56.97,2.39.97.89,0,1.29-.38,1.29-.94,0-.67-.92-.97-1.86-1.34-1.13-.43-2.44-1.11-2.44-2.6,0-1.61,1.31-2.74,3.31-2.74,1.31,0,2.29.54,3.04,1.1l-1.05,1.42c-.64-.45-1.26-.76-1.93-.76-.8,0-1.18.35-1.18.86,0,.65.88.89,1.82,1.24,1.18.45,2.48,1.04,2.48,2.69,0,1.56-1.23,2.82-3.55,2.82-1.2,0-2.52-.53-3.39-1.26Z"/><path class="cls-3" d="M53.45,640.21c0-2.98,2.05-4.7,4.29-4.7s4.29,1.72,4.29,4.7-2.05,4.67-4.29,4.67-4.29-1.72-4.29-4.67ZM59.63,640.21c0-1.69-.68-2.79-1.9-2.79s-1.9,1.1-1.9,2.79.68,2.76,1.9,2.76,1.9-1.08,1.9-2.76Z"/><path class="cls-3" d="M68.58,633.76c-.3-.11-.65-.19-.94-.19-.7,0-1.08.41-1.08,1.4v.76h1.67v1.85h-1.67v7.07h-2.34v-7.07h-1.2v-1.74l1.2-.1v-.73c0-1.86.86-3.3,3.11-3.3.69,0,1.29.16,1.69.32l-.43,1.72Z"/><path class="cls-3" d="M73.23,632.87h3.23c3.6,0,5.83,1.86,5.83,5.85s-2.23,5.94-5.7,5.94h-3.36v-11.79ZM76.32,642.76c2.2,0,3.57-1.18,3.57-4.05s-1.37-3.97-3.57-3.97h-.73v8.01h.73Z"/><path class="cls-3" d="M83.7,640.21c0-2.9,2.02-4.7,4.16-4.7,2.45,0,3.73,1.8,3.73,4.27,0,.43-.05.86-.11,1.07h-5.5c.19,1.47,1.15,2.23,2.47,2.23.73,0,1.37-.22,2.01-.62l.8,1.43c-.88.61-2.01.99-3.12.99-2.49,0-4.43-1.74-4.43-4.67ZM89.57,639.31c0-1.21-.54-1.98-1.69-1.98-.94,0-1.77.67-1.94,1.98h3.63Z"/><path class="cls-3" d="M92.79,640.21c0-2.98,2.13-4.7,4.56-4.7,1.1,0,1.94.43,2.6.99l-1.12,1.51c-.45-.38-.86-.59-1.37-.59-1.35,0-2.28,1.1-2.28,2.79s.92,2.76,2.21,2.76c.64,0,1.24-.3,1.74-.72l.92,1.55c-.84.75-1.93,1.08-2.92,1.08-2.47,0-4.35-1.72-4.35-4.67Z"/><path class="cls-3" d="M101.03,640.21c0-2.9,2.02-4.7,4.16-4.7,2.45,0,3.73,1.8,3.73,4.27,0,.43-.05.86-.11,1.07h-5.5c.19,1.47,1.15,2.23,2.47,2.23.73,0,1.37-.22,2.01-.62l.8,1.43c-.88.61-2.01.99-3.12.99-2.49,0-4.43-1.74-4.43-4.67ZM106.91,639.31c0-1.21-.54-1.98-1.69-1.98-.94,0-1.77.67-1.94,1.98h3.63Z"/><path class="cls-3" d="M110.68,635.74h1.91l.16,1.19h.06c.75-.78,1.58-1.42,2.74-1.42,1.27,0,2.02.57,2.45,1.56.81-.86,1.67-1.56,2.84-1.56,1.9,0,2.77,1.34,2.77,3.58v5.56h-2.34v-5.27c0-1.37-.4-1.86-1.24-1.86-.51,0-1.08.33-1.72,1v6.13h-2.34v-5.27c0-1.37-.4-1.86-1.24-1.86-.51,0-1.08.33-1.72,1v6.13h-2.33v-8.92Z"/><path class="cls-3" d="M127.97,643.72h-.05l-.21.94h-1.83v-12.71h2.33v3.2l-.05,1.43c.7-.64,1.59-1.07,2.47-1.07,2.2,0,3.52,1.8,3.52,4.52,0,3.07-1.83,4.84-3.79,4.84-.8,0-1.66-.41-2.39-1.16ZM131.74,640.09c0-1.7-.54-2.64-1.77-2.64-.61,0-1.15.3-1.77.92v3.92c.56.49,1.15.67,1.62.67,1.08,0,1.91-.92,1.91-2.87Z"/><path class="cls-3" d="M135.42,640.21c0-2.9,2.02-4.7,4.16-4.7,2.45,0,3.73,1.8,3.73,4.27,0,.43-.05.86-.11,1.07h-5.5c.19,1.47,1.15,2.23,2.47,2.23.73,0,1.37-.22,2.01-.62l.8,1.43c-.88.61-2.01.99-3.12.99-2.49,0-4.43-1.74-4.43-4.67ZM141.3,639.31c0-1.21-.54-1.98-1.69-1.98-.94,0-1.77.67-1.94,1.98h3.63Z"/><path class="cls-3" d="M145.08,635.74h1.91l.16,1.58h.06c.65-1.16,1.61-1.8,2.53-1.8.49,0,.78.08,1.05.19l-.41,2.02c-.3-.1-.56-.14-.92-.14-.7,0-1.55.46-2.06,1.75v5.32h-2.33v-8.92Z"/><path class="cls-3" d="M154.75,643.31c3.2-2.87,5.1-5.08,5.1-6.9,0-1.19-.65-1.91-1.77-1.91-.86,0-1.58.56-2.17,1.21l-1.27-1.27c1.08-1.15,2.13-1.78,3.74-1.78,2.23,0,3.71,1.43,3.71,3.63s-1.77,4.43-3.92,6.53c.59-.06,1.37-.13,1.91-.13h2.56v1.98h-7.9v-1.35Z"/><path class="cls-3" d="M163.99,638.72c0-4.08,1.59-6.07,4-6.07s3.98,2.01,3.98,6.07-1.59,6.17-3.98,6.17-4-2.1-4-6.17ZM169.75,638.72c0-3.3-.76-4.25-1.77-4.25s-1.78.96-1.78,4.25.76,4.33,1.78,4.33,1.77-1.02,1.77-4.33Z"/><path class="cls-3" d="M173.19,643.31c3.2-2.87,5.1-5.08,5.1-6.9,0-1.19-.65-1.91-1.77-1.91-.86,0-1.58.56-2.17,1.21l-1.27-1.27c1.08-1.15,2.13-1.78,3.74-1.78,2.23,0,3.71,1.43,3.71,3.63s-1.77,4.43-3.92,6.53c.59-.06,1.37-.13,1.91-.13h2.56v1.98h-7.9v-1.35Z"/><path class="cls-3" d="M182.15,643.24l1.1-1.48c.7.69,1.56,1.21,2.63,1.21,1.2,0,2.01-.59,2.01-1.64,0-1.16-.69-1.88-3.25-1.88v-1.69c2.17,0,2.87-.75,2.87-1.8,0-.92-.57-1.47-1.58-1.48-.84.02-1.53.41-2.23,1.05l-1.19-1.43c1.02-.89,2.15-1.45,3.54-1.45,2.28,0,3.82,1.11,3.82,3.14,0,1.27-.72,2.2-1.97,2.69v.08c1.34.37,2.36,1.35,2.36,2.9,0,2.17-1.9,3.43-4.14,3.43-1.86,0-3.12-.7-3.95-1.64Z"/><path class="cls-3" d="M69.44,494.3h7.72v2.09h-5.2v2.91h4.42v2.11h-4.42v3.37h5.39v2.11h-7.9v-12.58Z"/><path class="cls-3" d="M79.52,497.36h2.04l.17,1.27h.07c.8-.83,1.68-1.51,2.92-1.51,1.36,0,2.16.61,2.62,1.67.87-.92,1.79-1.67,3.03-1.67,2.02,0,2.96,1.43,2.96,3.82v5.93h-2.5v-5.63c0-1.46-.42-1.99-1.33-1.99-.54,0-1.16.36-1.84,1.07v6.54h-2.5v-5.63c0-1.46-.42-1.99-1.33-1.99-.54,0-1.16.36-1.84,1.07v6.54h-2.48v-9.52Z"/><path class="cls-3" d="M95.74,497.36h2.04l.17.99h.07c.8-.68,1.78-1.22,2.8-1.22,2.35,0,3.74,1.92,3.74,4.84,0,3.26-1.96,5.15-4.05,5.15-.83,0-1.63-.37-2.36-1.04l.07,1.56v2.89h-2.48v-13.17ZM101.99,502c0-1.82-.58-2.82-1.89-2.82-.65,0-1.22.32-1.89.99v4.18c.61.53,1.22.71,1.73.71,1.16,0,2.04-.99,2.04-3.06Z"/><path class="cls-3" d="M106.52,504.21v-10.9h2.48v11.01c0,.56.27.75.51.75.1,0,.17,0,.34-.03l.31,1.85c-.29.12-.71.22-1.29.22-1.73,0-2.35-1.14-2.35-2.91Z"/><path class="cls-3" d="M111.11,502.14c0-3.18,2.19-5.01,4.57-5.01s4.57,1.84,4.57,5.01-2.19,4.98-4.57,4.98-4.57-1.84-4.57-4.98ZM117.7,502.14c0-1.8-.73-2.97-2.02-2.97s-2.02,1.17-2.02,2.97.73,2.94,2.02,2.94,2.02-1.16,2.02-2.94Z"/><path class="cls-3" d="M121.7,510.52l.46-1.92c.17.05.44.12.66.12.97,0,1.51-.61,1.78-1.45l.17-.56-3.71-9.35h2.52l1.51,4.42c.29.85.53,1.77.8,2.69h.08c.22-.88.46-1.8.68-2.69l1.31-4.42h2.4l-3.38,9.81c-.83,2.24-1.85,3.54-3.98,3.54-.56,0-.93-.07-1.31-.19Z"/><path class="cls-3" d="M131.17,502.14c0-3.09,2.16-5.01,4.44-5.01,2.62,0,3.98,1.92,3.98,4.56,0,.46-.05.92-.12,1.14h-5.86c.2,1.56,1.22,2.38,2.63,2.38.78,0,1.46-.24,2.14-.66l.85,1.53c-.93.65-2.14,1.05-3.33,1.05-2.65,0-4.73-1.85-4.73-4.98ZM137.44,501.17c0-1.29-.58-2.11-1.8-2.11-1,0-1.89.71-2.07,2.11h3.88Z"/><path class="cls-3" d="M140.87,502.14c0-3.09,2.16-5.01,4.44-5.01,2.62,0,3.98,1.92,3.98,4.56,0,.46-.05.92-.12,1.14h-5.86c.2,1.56,1.22,2.38,2.63,2.38.78,0,1.46-.24,2.14-.66l.85,1.53c-.93.65-2.14,1.05-3.33,1.05-2.65,0-4.73-1.85-4.73-4.98ZM147.14,501.17c0-1.29-.58-2.11-1.8-2.11-1,0-1.89.71-2.07,2.11h3.88Z"/><path class="cls-3" d="M150.27,505.77l1.14-1.56c.85.66,1.67,1.04,2.55,1.04.95,0,1.38-.41,1.38-1,0-.71-.99-1.04-1.99-1.43-1.21-.46-2.6-1.19-2.6-2.77,0-1.72,1.39-2.92,3.54-2.92,1.39,0,2.45.58,3.25,1.17l-1.12,1.51c-.68-.48-1.34-.82-2.06-.82-.85,0-1.26.37-1.26.92,0,.7.93.95,1.94,1.33,1.26.48,2.65,1.1,2.65,2.87,0,1.67-1.31,3.01-3.79,3.01-1.27,0-2.69-.56-3.62-1.34Z"/><path class="cls-3" d="M87.64,306.18h-36.12s0-13.33,0-13.33l53.37-.02v9.65c-18.65,22.79-21.14,39.17-22.43,70.62h-16.16c1.4-27.87,6.06-45.66,21.35-66.93Z"/><path class="cls-3" d="M111.74,363.66l7.37-10.2c4.56,4.45,10.2,8.13,17.68,8.13,8.35,0,14.21-5.32,14.21-14.76,0-9.33-5.43-14.53-13.56-14.53-4.77,0-7.38,1.2-12.04,4.23l-7.27-4.77,2.16-38.94h42.96s0,13.33,0,13.33h-29.18s-1.51,17.04-1.51,17.04c3.15-1.52,5.96-2.28,9.65-2.28,13.45,0,24.74,8.02,24.74,25.48,0,17.9-13.23,28.21-28.09,28.21-12.69,0-21.16-4.98-27.12-10.95Z"/><path class="cls-3" d="M1.14,246.32h4.13c2.79,0,4.93.97,4.93,3.94,0,2.87-2.16,4.17-4.86,4.17h-1.68s0,4.47,0,4.47H1.14s0-12.58,0-12.58ZM5.17,252.44c1.73,0,2.57-.73,2.57-2.18s-.92-1.95-2.65-1.95h-1.43s0,4.13,0,4.13h1.51Z"/><path class="cls-3" d="M11.63,256.31c0-2.04,1.65-3.11,5.47-3.52-.03-.94-.44-1.65-1.62-1.65-.88,0-1.73.39-2.62.9l-.9-1.65c1.12-.7,2.48-1.26,3.98-1.26,2.41,0,3.65,1.44,3.65,4.2v5.56s-2.04,0-2.04,0l-.19-1.02h-.05c-.83.71-1.79,1.26-2.87,1.26-1.7,0-2.82-1.21-2.82-2.82ZM17.11,256.24v-1.92c-2.31.31-3.09.94-3.09,1.79,0,.75.53,1.07,1.26,1.07.71,0,1.24-.34,1.84-.94Z"/><path class="cls-3" d="M21.74,246.48c0-.82.63-1.36,1.5-1.36.85,0,1.48.54,1.48,1.36s-.63,1.36-1.48,1.36c-.87,0-1.5-.58-1.5-1.36ZM21.98,249.37h2.48s0,9.52,0,9.52h-2.48s0-9.52,0-9.52Z"/><path class="cls-3" d="M26.44,254.15c0-3.11,1.94-5.02,3.99-5.02,1.07,0,1.73.41,2.41,1.04l-.1-1.5v-3.35s2.5,0,2.5,0v13.56s-2.02,0-2.02,0l-.2-.99h-.05c-.7.68-1.65,1.22-2.63,1.22-2.36,0-3.89-1.87-3.89-4.98ZM32.74,256.08v-4.18c-.58-.53-1.17-.71-1.77-.71-1.07,0-1.97,1.02-1.97,2.92s.71,2.96,1.97,2.96c.66,0,1.22-.27,1.77-.99Z"/><path class="cls-3" d="M41.65,246.31h2.52s0,10.47,0,10.47h5.1s0,2.11,0,2.11h-7.62s0-12.58,0-12.58Z"/><path class="cls-3" d="M50.49,254.14c0-3.09,2.16-5.02,4.44-5.02,2.62,0,3.98,1.92,3.98,4.55,0,.46-.05.92-.12,1.14h-5.86c.2,1.57,1.22,2.38,2.63,2.38.78,0,1.46-.24,2.14-.66l.85,1.53c-.94.65-2.14,1.05-3.33,1.06-2.65,0-4.73-1.85-4.73-4.98ZM56.76,253.17c0-1.29-.58-2.11-1.8-2.11-1,0-1.88.71-2.07,2.11h3.88Z"/><path class="cls-3" d="M60.32,256.3c0-2.04,1.65-3.11,5.47-3.52-.04-.94-.44-1.65-1.62-1.65-.88,0-1.73.39-2.62.9l-.9-1.65c1.12-.7,2.48-1.26,3.98-1.26,2.41,0,3.65,1.44,3.66,4.2v5.56s-2.04,0-2.04,0l-.19-1.02h-.05c-.83.71-1.79,1.26-2.87,1.26-1.7,0-2.82-1.21-2.82-2.82ZM65.79,256.23v-1.92c-2.31.31-3.09.94-3.09,1.79,0,.75.53,1.07,1.26,1.07.71,0,1.24-.34,1.84-.94Z"/><path class="cls-3" d="M69.56,249.36h2.52s1.39,4.74,1.39,4.74c.24.94.51,1.92.77,2.89h.08c.24-.97.51-1.96.77-2.89l1.39-4.74h2.4s-3.18,9.52-3.18,9.52h-2.89s-3.25-9.52-3.25-9.52Z"/><path class="cls-3" d="M79.7,254.13c0-3.09,2.16-5.02,4.44-5.02,2.62,0,3.98,1.92,3.98,4.55,0,.46-.05.92-.12,1.14h-5.86c.2,1.57,1.22,2.38,2.63,2.38.78,0,1.46-.24,2.14-.66l.85,1.53c-.94.65-2.14,1.05-3.33,1.06-2.65,0-4.73-1.85-4.73-4.98ZM85.97,253.16c0-1.29-.58-2.11-1.8-2.11-1,0-1.88.71-2.07,2.11h3.88Z"/><path class="cls-3" d="M99.79,255.64h-4.08s-.88,3.23-.88,3.23h-2.55s4.03-12.58,4.03-12.58h2.96s4.05,12.58,4.05,12.58h-2.63s-.88-3.23-.88-3.23ZM99.25,253.68l-.38-1.38c-.39-1.31-.73-2.75-1.11-4.11h-.07c-.32,1.38-.7,2.8-1.07,4.11l-.37,1.38h2.99Z"/><path class="cls-3" d="M103.82,254.12c0-3.18,2.28-5.02,4.86-5.02,1.17,0,2.07.46,2.77,1.05l-1.19,1.62c-.48-.41-.92-.63-1.46-.63-1.45,0-2.43,1.17-2.43,2.98s.99,2.94,2.36,2.94c.68,0,1.33-.32,1.85-.77l.99,1.65c-.9.8-2.06,1.16-3.11,1.16-2.63,0-4.64-1.83-4.64-4.98Z"/><path class="cls-3" d="M118.97,259.49l.1-1.53c-.64.66-1.58,1.14-2.52,1.14-2.36,0-3.89-1.87-3.89-4.98,0-3.11,1.94-5.02,3.99-5.02,1.05,0,1.82.37,2.58,1.17h.07l.2-.94h1.96s0,13.17,0,13.17h-2.5s0-3.02,0-3.02ZM118.97,256.06v-4.18c-.58-.53-1.18-.71-1.77-.71-1.07,0-1.97,1.02-1.97,2.92,0,1.97.71,2.96,1.97,2.96.66,0,1.22-.27,1.77-.99Z"/><path class="cls-3" d="M123.88,255.29v-5.95s2.5,0,2.5,0v5.63c0,1.48.41,1.99,1.33,1.99.78,0,1.29-.34,1.94-1.19v-6.43s2.5,0,2.5,0v9.52s-2.04,0-2.04,0l-.19-1.36h-.07c-.81.97-1.73,1.6-3.04,1.6-2.04,0-2.92-1.43-2.92-3.81Z"/><path class="cls-3" d="M134.4,246.45c0-.82.63-1.36,1.49-1.36.85,0,1.48.54,1.48,1.36s-.63,1.36-1.48,1.36c-.87,0-1.5-.58-1.5-1.36ZM134.64,249.34h2.48s0,9.52,0,9.52h-2.48s0-9.52,0-9.52Z"/><path class="cls-3" d="M138.74,257.75l1.14-1.56c.85.66,1.67,1.04,2.55,1.04.95,0,1.38-.41,1.38-1,0-.71-.99-1.04-1.99-1.43-1.21-.46-2.6-1.19-2.6-2.77,0-1.72,1.39-2.92,3.54-2.92,1.39,0,2.45.58,3.25,1.17l-1.12,1.51c-.68-.48-1.34-.82-2.06-.82-.85,0-1.26.37-1.26.92,0,.7.94.95,1.94,1.33,1.26.48,2.65,1.1,2.65,2.87,0,1.67-1.31,3.01-3.79,3.01-1.27,0-2.69-.56-3.62-1.34Z"/><path class="cls-3" d="M147.64,246.44c0-.82.63-1.36,1.5-1.36.85,0,1.48.54,1.48,1.36s-.63,1.36-1.48,1.36c-.87,0-1.5-.58-1.5-1.36ZM147.88,249.33h2.48s0,9.52,0,9.52h-2.48s0-9.52,0-9.52Z"/><path class="cls-3" d="M153.24,255.52v-4.22s-1.35,0-1.35,0v-1.85l1.46-.12.29-2.55h2.09s0,2.55,0,2.55h2.35s0,1.97,0,1.97h-2.35s0,4.22,0,4.22c0,1.09.44,1.6,1.29,1.6.31,0,.68-.1.94-.2l.41,1.82c-.51.17-1.17.36-2.01.36-2.26,0-3.13-1.43-3.13-3.57Z"/><path class="cls-3" d="M159.61,246.44c0-.82.63-1.36,1.5-1.36.85,0,1.48.54,1.48,1.36s-.63,1.36-1.48,1.36c-.87,0-1.5-.58-1.5-1.36ZM159.85,249.33h2.48s0,9.52,0,9.52h-2.48s0-9.52,0-9.52Z"/><path class="cls-3" d="M164.25,254.1c0-3.18,2.19-5.02,4.57-5.02,2.38,0,4.57,1.83,4.57,5.01,0,3.14-2.19,4.98-4.57,4.98-2.38,0-4.57-1.83-4.57-4.98ZM170.85,254.1c0-1.8-.73-2.97-2.03-2.97-1.29,0-2.02,1.17-2.02,2.98,0,1.78.73,2.94,2.02,2.94,1.29,0,2.02-1.16,2.02-2.94Z"/><path class="cls-3" d="M175.32,249.32h2.04s.17,1.26.17,1.26h.07c.83-.82,1.8-1.5,3.09-1.5,2.06,0,2.94,1.43,2.94,3.82v5.93s-2.5,0-2.5,0v-5.63c0-1.46-.41-1.99-1.35-1.99-.78,0-1.27.37-1.99,1.07v6.54s-2.48,0-2.48,0v-9.52Z"/><path class="cls-3" d="M196.79,258.84l-2.59-4.76h-1.75s0,4.76,0,4.76h-2.52s0-12.58,0-12.58h4.38c2.63,0,4.73.92,4.73,3.8,0,1.89-.95,3.06-2.4,3.62l2.94,5.15h-2.8ZM192.46,252.09h1.63c1.62,0,2.5-.68,2.5-2.02s-.88-1.82-2.5-1.82h-1.63s0,3.84,0,3.84Z"/><path class="cls-3" d="M200.68,256.25c0-2.04,1.65-3.11,5.47-3.52-.03-.94-.44-1.65-1.62-1.65-.88,0-1.73.39-2.62.9l-.9-1.65c1.12-.7,2.48-1.26,3.98-1.26,2.41,0,3.65,1.44,3.65,4.2v5.56s-2.04,0-2.04,0l-.19-1.02h-.05c-.83.71-1.79,1.26-2.87,1.26-1.7,0-2.82-1.21-2.82-2.82ZM206.16,256.18v-1.92c-2.31.31-3.09.94-3.09,1.79,0,.75.53,1.07,1.26,1.07.71,0,1.24-.34,1.84-.94Z"/><path class="cls-3" d="M211.39,255.5v-4.22s-1.35,0-1.35,0v-1.85l1.46-.12.29-2.55h2.09s0,2.55,0,2.55h2.35s0,1.97,0,1.97h-2.35s0,4.22,0,4.22c0,1.09.44,1.6,1.29,1.6.31,0,.68-.1.94-.2l.41,1.82c-.51.17-1.17.36-2.01.36-2.26,0-3.13-1.43-3.13-3.57Z"/><path class="cls-3" d="M217.41,254.09c0-3.09,2.16-5.02,4.44-5.02,2.62,0,3.98,1.92,3.98,4.55,0,.46-.05.92-.12,1.14h-5.87c.21,1.57,1.22,2.38,2.63,2.38.78,0,1.46-.24,2.14-.66l.85,1.53c-.93.65-2.14,1.05-3.33,1.06-2.65,0-4.73-1.85-4.73-4.98ZM223.68,253.12c0-1.29-.58-2.11-1.8-2.11-1,0-1.89.71-2.07,2.11h3.88Z"/><path class="cls-3" d="M182.71,348.93c0-6.33,3.18-9.94,7.68-9.94,4.55,0,7.69,3.61,7.69,9.94s-3.14,10.07-7.69,10.07c-4.5,0-7.69-3.74-7.69-10.07ZM193.72,348.92c0-4.63-1.45-6.41-3.32-6.41-1.83,0-3.27,1.79-3.27,6.42,0,4.63,1.45,6.5,3.27,6.5,1.87,0,3.31-1.87,3.31-6.5ZM208.62,338.98h3.74s-17.19,32.71-17.19,32.71h-3.7s17.15-32.71,17.15-32.71ZM205.66,361.66c0-6.33,3.23-9.98,7.73-9.99,4.5,0,7.69,3.65,7.69,9.98,0,6.29-3.18,10.03-7.69,10.03-4.5,0-7.73-3.74-7.73-10.02ZM216.66,361.66c0-4.67-1.4-6.41-3.27-6.41s-3.31,1.74-3.31,6.42c0,4.59,1.45,6.5,3.31,6.5s3.27-1.91,3.27-6.5Z"/><path class="cls-3" d="M171.32,324.21c0-2.29,1.66-4.08,3.87-4.08s3.91,1.78,3.91,4.08-1.66,4.08-3.91,4.08-3.87-1.78-3.87-4.08Z"/><path class="cls-3" d="M185.17,322.64h6.75v-19.88h-5.69v-3.87c3.14-.59,5.31-1.4,7.31-2.63h4.63v26.38h5.91v5.06h-18.9v-5.06Z"/><path class="cls-3" d="M207.39,323.99l2.89-3.99c1.78,1.74,3.99,3.19,6.92,3.19,3.27,0,5.56-2.08,5.56-5.78s-2.12-5.69-5.31-5.69c-1.87,0-2.89.47-4.71,1.66l-2.85-1.87.85-15.25h16.82v5.23h-11.43l-.59,6.67c1.23-.59,2.34-.89,3.78-.89,5.27,0,9.69,3.14,9.69,9.98s-5.18,11.04-11,11.04c-4.97,0-8.28-1.95-10.62-4.29Z"/><line class="cls-1" x1="218.42" y1="206.99" x2="11.1" y2="206.99"/><line class="cls-1" x1="218.42" y1="446.91" x2="11.1" y2="446.91"/></g></svg>