<?xml version="1.0" encoding="UTF-8"?><svg id="_レイヤー_2" xmlns="http://www.w3.org/2000/svg" viewBox="0 0 46 43.99"><defs><style>.cls-1{fill:#0017af;stroke-width:0px;}</style></defs><g id="_レイヤー_1-2"><path class="cls-1" d="M23,0C10.38,0,0,8.89,0,19.99c0,6.05,3.15,11.43,8,15.08.63.48.94,1.26.75,2.03-.02.08-.04.17-.07.26-.35,1.3-1.04,3.13-2.48,5.17l-1.03,1.44,1.79.03c4.95.02,8.24-2.58,9.65-3.96.46-.45,1.11-.65,1.75-.53,1.5.29,3.06.47,4.65.47,12.62,0,23-8.89,23-19.99S35.62,0,23,0ZM23,1.88c11.75,0,21.12,8.17,21.12,18.11s-9.37,18.11-21.12,18.11c-2.01,0-3.96-.24-5.8-.69l-.56-.13-.38.47s-1.07,1.2-2.94,2.32c-1.51.9-3.3-.5-2.83-2.2,0-.01,0-.02,0-.03.4-1.48.41-2.51.41-2.51v-.5l-.44-.28C5.23,31.24,1.88,25.95,1.88,19.99,1.88,10.05,11.25,1.88,23,1.88Z"/></g></svg>