<?xml version="1.0" encoding="UTF-8"?><svg id="_レイヤー_2" xmlns="http://www.w3.org/2000/svg" viewBox="0 0 76.92 65.21"><defs><style>.cls-1{fill:#fff;stroke-width:0px;}</style></defs><g id="_レイヤー_1-2"><path class="cls-1" d="M35.11,0c-1.83,0-3.34,1.52-3.34,3.34v8.36H7.81c-4.26,0-7.81,3.38-7.81,7.58v38.35c0,4.2,3.55,7.58,7.81,7.58h61.31c4.26,0,7.81-3.38,7.81-7.58V19.28c0-4.2-3.55-7.58-7.81-7.58h-22.29V3.34c0-1.83-1.52-3.34-3.34-3.34h-8.36ZM35.11,3.34h8.36v9.75c-.03.18-.03.37,0,.54v3.08h-8.36v-3.06c.03-.18.03-.37,0-.54V3.34ZM7.81,15.05h23.96v1.67c0,1.83,1.52,3.34,3.34,3.34h8.36c1.83,0,3.34-1.52,3.34-3.34v-1.67h22.29c2.51,0,4.46,1.91,4.46,4.23v38.35c0,2.33-1.95,4.23-4.46,4.23H7.81c-2.51,0-4.46-1.91-4.46-4.23V19.28c0-2.33,1.95-4.23,4.46-4.23ZM21.67,21.74c-3.42,0-6,1.59-7.08,3.97-.97,2.14-.84,4.64-.28,7.17-.34.57-.56,1.25-.46,2.09.12.98.39,1.77.88,2.39.15.2.4.18.58.33.16.69.33,1.39.61,1.96.2.39.41.75.65,1.07.03.04.08.07.1.1,0,.59,0,1.18-.03,1.78-.11.22-.36.52-1.1.88-.8.4-1.96.8-3.18,1.31-1.23.52-2.54,1.19-3.64,2.29-1.1,1.1-1.9,2.7-2.02,4.66v1.78c0,.92.75,1.67,1.67,1.67h26.75c.92,0,1.67-.75,1.67-1.67v-1.78c-.12-1.95-.92-3.55-2.02-4.65-1.1-1.11-2.41-1.77-3.63-2.3-1.22-.52-2.38-.91-3.17-1.31-.74-.37-.99-.66-1.1-.88-.04-.61-.04-1.18-.03-1.78.03-.04.08-.07.1-.1.24-.33.45-.68.65-1.07.27-.57.42-1.27.58-1.95.19-.14.43-.13.58-.32.49-.62.76-1.41.88-2.39.1-.86-.13-1.53-.48-2.11.34-1.2.77-2.67.63-4.51-.08-1.12-.37-2.31-1.12-3.34-.68-.94-1.82-1.6-3.14-1.88-1.03-.94-2.38-1.38-3.85-1.38ZM21.67,25.08c1.26,0,1.8.43,1.77.39.26.44.71.75,1.22.82.76.1,1.04.33,1.29.67s.44.91.49,1.64c.12,1.45-.33,3.36-.6,4.18-.22.65-.02,1.37.51,1.81,0,.02-.04-.07-.05-.03-.06.48-.14.57-.15.61-.59.22-1.01.76-1.08,1.38-.05.44-.25,1.1-.5,1.59-.12.25-.25.46-.34.57-.06.08-.07.08-.01.04-.47.31-.75.84-.75,1.39,0,.99-.04,1.86.07,3.1.01.14.05.29.1.43.54,1.42,1.72,2.22,2.83,2.77,1.11.56,2.29.95,3.34,1.4,1.06.45,1.96.96,2.57,1.57.58.58.92,1.27,1.01,2.4H10.07c.09-1.13.43-1.82,1.02-2.4.6-.61,1.52-1.12,2.58-1.57,1.06-.46,2.24-.85,3.36-1.4,1.11-.55,2.31-1.35,2.83-2.77.06-.14.09-.29.1-.43.11-1.24.07-2.11.07-3.1,0-.57-.29-1.1-.77-1.4.07.05.05.05-.01-.04-.09-.12-.22-.33-.35-.57-.25-.5-.46-1.15-.51-1.58-.07-.63-.48-1.16-1.08-1.38-.01-.03-.09-.12-.15-.61,0-.06-.07.06-.06.05.5-.41.73-1.08.56-1.72-.62-2.4-.61-4.53-.03-5.8.57-1.26,1.5-2.01,4.04-2.01ZM40.13,26.75v3.34h30.1v-3.34h-30.1ZM40.13,33.44v3.34h23.41v-3.34h-23.41ZM40.13,40.13v3.34h18.39v-3.34h-18.39ZM40.13,46.82v3.34h23.41v-3.34h-23.41Z"/></g></svg>