<?xml version="1.0" encoding="UTF-8"?><svg id="_レイヤー_2" xmlns="http://www.w3.org/2000/svg" viewBox="0 0 283 337.55"><defs><style>.cls-1,.cls-2,.cls-3,.cls-4,.cls-5,.cls-6{stroke-width:0px;}.cls-2{fill:#d0e4ff;}.cls-3{fill:#b4b3b3;}.cls-4{fill:#ffbe9d;}.cls-5{fill:#ebebeb;}.cls-6{fill:#0017af;}</style></defs><g id="_レイヤー_1-2"><path class="cls-2" d="M181.96,98.88c.31-.47.59-.95.85-1.44.26-.51.49-1.01.69-1.53l5.93-2.16-.43-9.03-6.11-1.59c-.5-1-1.11-1.95-1.81-2.83l1.08-6.21-8.04-4.17-4.42,4.49c-1.13-.07-2.26-.01-3.36.16l-4.83-4.06-7.61,4.89,1.69,6.08c-.31.47-.59.95-.85,1.44s-.49,1-.69,1.53l-5.95,2.17.43,9.04,6.11,1.59c.5,1,1.11,1.95,1.81,2.83l-1.09,6.22,8.04,4.16,4.42-4.49c1.12.06,2.24.02,3.35-.16l4.85,4.06,7.61-4.89-1.67-6.1h0ZM165.33,96.83c-3.68-1.9-5.12-6.41-3.23-10.09,1.9-3.68,6.41-5.12,10.09-3.22,3.68,1.9,5.12,6.41,3.23,10.09-1.9,3.68-6.41,5.12-10.09,3.22h0Z"/><path class="cls-4" d="M213.18,176.37l6.41-.42.66,9.89-6.41.42-.66-9.89Z"/><path class="cls-1" d="M203,190.22h17.83l-.73-6.58c-.78.44-1.42.63-2.36.63-1.86,0-3.51-.79-4.18-2.57l-9.6,4.77c-.25.12-.47.29-.64.51-.99,1.26-.32,3.25-.32,3.25h0Z"/><path class="cls-4" d="M236.2,178.31l5.94-2.43,3.74,9.17-5.94,2.43-3.74-9.17Z"/><path class="cls-1" d="M227.02,190.22h20.93l-2.79-6.96c-.78.44-2.46,1.01-3.39,1.01-1.86,0-3.51-.79-4.18-2.57l-9.6,4.77c-.25.12-.47.29-.64.51-.99,1.26-.32,3.25-.32,3.25h0Z"/><path class="cls-4" d="M197.07,110.18s-9.96-2.19-13.09,1.51c0,0-1.24,1.58.03,2.62.44.37,1.02.51,1.59.45,1.96-.2,8.06.19,9.1.79l2.37-5.37h0ZM195.93,90.74s-4.45-9.17-9.29-9.35c0,0-2,0-2.03,1.65-.01.57.23,1.13.63,1.54,1.38,1.42,4.84,6.44,5.02,7.62l5.68-1.46Z"/><path class="cls-6" d="M232.08,182.21c-6.11-11.1-12.38-27.55-18.59-48.87l12.64-3.69c5.95,20.39,11.83,35.95,17.48,46.2l-11.53,6.35h0Z"/><path class="cls-6" d="M210.06,181.39c-3.03-19.72-3.22-33.04-3.15-49.67l13.17.06c-.07,16.55.1,28.79,2.98,47.61l-13,2Z"/><path class="cls-4" d="M222.67,98.9c0,.59-.09,1.14-.23,1.68-.73,2.52-3.06,4.36-5.81,4.36-3.34,0-6.04-2.71-6.04-6.04,0-2.41,1.42-4.49,3.45-5.46.8-.38,1.7-.59,2.59-.59,3.34,0,6.04,2.71,6.04,6.04h0Z"/><path class="cls-1" d="M222.67,98.9c0,.59-.09,1.14-.23,1.68-.56.15-1.13.22-1.7.22-3.72,0-6.73-3.01-6.73-6.73,0-.22.01-.42.03-.63.8-.38,1.7-.59,2.59-.59,3.34,0,6.04,2.71,6.04,6.04h0ZM220.46,155.67c-.34-4.24-.34-8.19,0-12.07h.15c-.34,3.88-.34,7.81,0,12.06h-.15Z"/><circle class="cls-6" cx="215.81" cy="114.28" r="8.97"/><path class="cls-6" d="M214.52,117.83c-8.41-1.39-14.79-4.52-19.53-9.55-4.05-4.3-6.86-9.95-8.85-17.76l10.63-2.71c3.1,12.14,8.4,17.34,19.54,19.2l-1.8,10.83Z"/><path class="cls-6" d="M226.84,132.08h-19.95v-16.55l16.08-2.69,3.88,19.24Z"/><path class="cls-6" d="M208.42,125.62c-3.09,0-6.35-.85-9.73-2.53l-.32-.16-8.98-6.04,6.11-9.1,8.38,5.63c5.56,2.66,7.83.54,9.29-1.9l9.41,5.66c-2.5,4.16-6.04,6.92-10.23,7.97-1.26.31-2.59.47-3.94.47h0Z"/><path class="cls-1" d="M208.44,125.66c-.51,0-1.04-.03-1.57-.07v-.15c2.28.2,4.37-.03,6.39-.7,2.44-.8,4.73-2.3,6.6-4.3l.1.1c-1.9,2.03-4.2,3.53-6.66,4.35-1.57.51-3.17.78-4.87.78h0ZM208.21,114.66c-.42,0-.88-.04-1.33-.13-2.44-.28-7.31-3.7-11.32-6.67l-.39.59-.12-.09.48-.72.06.04c3.99,2.97,8.89,6.42,11.31,6.69,1.96.37,3.64-.06,4.97-1.29.6-.56,1.11-1.27,1.49-2.15,1.08-2.46,3.03-3.47,5.97-3.12v.15c-2.88-.35-4.78.64-5.84,3.03-.39.89-.91,1.64-1.52,2.21-1.05.97-2.31,1.46-3.76,1.46h0Z"/><path class="cls-6" d="M215.84,91.89c5.13-2.28,9,2.25,9,5.74s-1.05,6.5-4.53,6.5c0,0-7.71-9.63-8.18-12.95-.32-2.25,2.43,1.29,3.72.72Z"/><path class="cls-3" d="M275.09,335.65h-3.95l-64.84-187.61-2-5.77-9.46-27.35,3.53-1.22,76.71,221.94Z"/><path class="cls-3" d="M208.02,142.95l-1.73,5.1-63.47,187.61h-3.93l65.42-193.37.17-.54,3.54,1.21Z"/><path class="cls-3" d="M180.21,189.9h54.58v3.54h-54.58v-3.54ZM217.81,213.69h27.51v3.54h-27.51v-3.54ZM226.19,238.46h27.51v3.54h-27.51v-3.54ZM234.57,263.23h27.51v3.54h-27.51v-3.54ZM246.11,288h27.51v3.54h-27.51v-3.54ZM255.49,312.79h27.51v3.54h-27.51v-3.54Z"/><path class="cls-1" d="M134.81,285.62h66.62v31.54h-66.62v-31.54Z"/><path class="cls-3" d="M98.97,326.37h138.3v9.4H98.97v-9.4Z"/><path class="cls-3" d="M124.92,311.29h86.4v17.28h-86.4v-17.28Z"/><path class="cls-1" d="M124.92,326.23h86.4v.29h-86.4v-.29ZM97.7,84.03l20.28,13.27-11.94,18.26-20.28-13.27,11.94-18.26Z"/><path class="cls-5" d="M180.17,231.27l-33.87,53.53-102.18-77.49,22.31-35.27,113.74,59.23Z"/><path class="cls-5" d="M82.96,96.46l29.56,19.35-29,61.07-5.04,10.63-47.53-31.11,8.77-10.09,43.25-49.86h0Z"/><path class="cls-1" d="M133.43,40.4l10.18,6.67-11.94,18.26-10.18-6.67,11.94-18.26Z"/><ellipse class="cls-5" cx="167.83" cy="260.22" rx="55.88" ry="55.94"/><path class="cls-1" d="M153.25,217.28l-.35-.19c-6.44,2.22-12.35,5.91-17.3,10.86-8.62,8.61-13.35,20.07-13.35,32.26,0,2.28.16,4.55.5,6.75l.34.25c-.35-2.32-.54-4.66-.54-7.02,0-12.1,4.72-23.49,13.27-32.06,4.98-4.97,10.94-8.65,17.44-10.86Z"/><ellipse class="cls-3" cx="167.83" cy="261.53" rx="15.46" ry="15.46"/><ellipse class="cls-1" cx="167.83" cy="261.53" rx="10.39" ry="10.41"/><path class="cls-5" d="M128.7,81.72l-12.77,26.88-27.74-18.17,19.5-22.47,21.01,13.75Z"/><ellipse class="cls-5" cx="121.51" cy="70.53" rx="20.18" ry="20.19"/><circle class="cls-3" cx="121.51" cy="70.53" r="5.86"/><path class="cls-3" d="M176.37,20.36l-10.62,2.06c.19.95.28,1.93.28,2.94,0,8.52-6.91,15.44-15.43,15.44s-15.43-6.91-15.43-15.44c0-6.83,4.43-12.61,10.56-14.65l-3.54-10.71c-10.3,3.51-17.71,13.26-17.71,24.75,0,14.44,11.69,26.14,26.12,26.14s26.12-11.69,26.12-26.14c0-1.49-.12-2.95-.37-4.39h0Z"/><ellipse class="cls-5" cx="46.36" cy="183.37" rx="46.36" ry="46.39"/><path class="cls-1" d="M73.12,156.59c-7.14-7.15-16.66-11.09-26.77-11.09-2.25,0-4.47.19-6.63.57l-.29.35c2.28-.42,4.6-.64,6.93-.63,10.04,0,19.46,3.9,26.56,11.01,7.09,7.1,11,16.53,11,26.57s-3.9,19.47-11,26.57c-3.97,3.98-8.66,6.94-13.79,8.78l.28.2c5.1-1.87,9.77-4.84,13.72-8.8,7.14-7.15,11.09-16.66,11.09-26.78s-3.94-19.6-11.09-26.76Z"/><ellipse class="cls-3" cx="46.36" cy="183.37" rx="12.81" ry="12.83"/><ellipse class="cls-1" cx="46.36" cy="183.37" rx="8.62" ry="8.62"/><path class="cls-1" d="M121.64,87.07c-1.59,0-3.18-.25-4.78-.73-3.01-.92-5.71-2.62-7.77-4.94-2.59-2.89-3.97-6.42-4.12-10.47h.29c.15,3.98,1.5,7.43,4.05,10.28,2.03,2.28,4.68,3.95,7.64,4.85,3.21.98,6.44.95,9.61-.09l.09.28c-1.67.54-3.33.82-5.01.82h0Z"/><path class="cls-4" d="M197.01,110.18s-10-2.2-13.15,1.51c0,0-1.25,1.58.03,2.62.44.37,1.03.51,1.6.45,1.97-.19,8.09.19,9.14.79l2.38-5.38h0Z"/><path class="cls-6" d="M208.41,125.65c-3.1,0-6.38-.85-9.77-2.54l-.32-.16-9-6.04,6.16-9.14,8.42,5.65c5.58,2.67,7.86.54,9.33-1.91l9.43,5.66c-2.51,4.16-6.07,6.94-10.27,7.99-1.28.32-2.61.48-3.97.48h0Z"/><path class="cls-1" d="M208.43,125.71c-.51,0-1.03-.03-1.57-.07v-.15c2.29.21,4.39-.03,6.42-.7,2.45-.81,4.74-2.3,6.63-4.31l.1.1c-1.91,2.04-4.22,3.53-6.68,4.36-1.57.51-3.19.78-4.89.78h0ZM208.19,114.67c-.43,0-.88-.04-1.34-.13-2.45-.28-7.34-3.71-11.37-6.69l-.4.6-.12-.09.48-.72.06.04c4.01,2.98,8.93,6.44,11.36,6.7,1.97.37,3.66-.06,4.99-1.29.6-.56,1.12-1.28,1.5-2.16,1.1-2.46,3.06-3.48,6.01-3.12v.15c-2.89-.35-4.8.65-5.86,3.04-.4.89-.91,1.64-1.53,2.21-1.07.97-2.34,1.45-3.79,1.45h0Z"/><path class="cls-4" d="M88.91,333.72l-5.61.96-1.49-8.67,5.61-.96,1.49,8.67ZM54.6,325.12l5.61.96-1.49,8.67-5.61-.96,1.49-8.67Z"/><path class="cls-1" d="M80.43,336.26c0,.42.03.82.12,1.22h12.05c.07-.4.12-.8.12-1.22,0-3.39-2.74-6.15-6.15-6.15s-6.14,2.76-6.14,6.15h0ZM49.41,336.33c0,.42.03.82.12,1.22h12.05c.07-.4.12-.8.12-1.22,0-3.39-2.74-6.15-6.15-6.15s-6.14,2.76-6.14,6.15h0Z"/><path class="cls-4" d="M64.31,242.92c0-.56.09-1.1.23-1.61.09-.33.21-.65.37-.94.94-1.94,2.94-3.27,5.23-3.27s4.28,1.33,5.23,3.27c.38.77.59,1.64.59,2.55,0,.4-.03.79-.12,1.17-.37,1.82-1.59,3.32-3.22,4.09-.63.3-1.31.49-2.01.54h-.07c-.28.02-.56.02-.86,0h-.07c-2.61-.21-4.7-2.13-5.21-4.63-.03-.38-.09-.77-.09-1.17h0Z"/><path class="cls-1" d="M64.31,242.92c0-.56.09-1.1.23-1.61.09-.33.21-.65.37-.94h.24c2.08,0,3.92,1.07,4.98,2.69.65.98,1,2.11.98,3.29,0,.86-.17,1.66-.49,2.39h-.07c-.28.02-.56.02-.86,0h-.07c-2.61-.21-4.7-2.13-5.21-4.63-.05-.4-.1-.79-.1-1.19h0Z"/><path class="cls-1" d="M69.15,246.33c0-1.21.37-2.34.98-3.29,1.07-1.61,2.9-2.69,4.98-2.69h.24c.38.77.59,1.64.59,2.55,0,.4-.03.79-.12,1.17-.37,1.82-1.59,3.32-3.22,4.09-.63.3-1.31.49-2.01.54h-.07c-.28.02-.56.02-.86,0h-.07c-.28-.73-.45-1.56-.45-2.38h0Z"/><path class="cls-6" d="M64.36,240.47c.72-.51,6.98.23,10.58-.49,1.33-.26,1.43-.47,1.75-.49,1.94-.07-.49,1.21-.77,4.25,0,.09-.75,1.9-.72,1.97-.4.75-1,1.43-1.73,1.97-.33.23-.66.42-1.01.58-1.7.75-3.62.65-5.19-.23-.61-.33-1.15-.79-1.61-1.31l-.03-.05c-.17-.21-.35-.45-.49-.7l-.03-.05c-.56-.65-1.05-2.11-.93-3.48.09-1.38.19-1.97.19-1.97Z"/><path class="cls-4" d="M104.05,240.61s4.02-5.75,3.93-10.08c-.05-2.52-1-2.88-1.77-2.74-.47.09-.87.37-1.15.75-.09.12-.16.28-.21.42-.59,1.56-1.38,3.08-2.33,4.58-.24.51-.96.56-1.28.09l-.02-.02c-.31-.47-.59-1.57-.73-2.2-.1-.45-.54-.77-1-.68-.23.05-.49.16-.61.52-.05.14-.05.28-.05.42l.31,7.03,4.9,1.92h0ZM57.49,272.12l1.43.87c1.01.63,1.54,1.82,1.28,2.99l-1.57,7.41s-1.21,1.29-2.5-.07-.16-8.84-.16-8.84l1.52-2.36h0Z"/><path class="cls-6" d="M63.75,327.66l-13.01-1.64c2.24-17.69,5.68-35.6,10.21-53.25l12.71,3.25c-4.41,17.11-7.73,34.5-9.91,51.64h0Z"/><path class="cls-6" d="M78.1,327.71c-2.19-17.14-5.51-34.51-9.9-51.64l12.71-3.25c4.53,17.65,7.96,35.56,10.21,53.25l-13.03,1.64Z"/><path class="cls-6" d="M46,274.29l8.64,4.98,4.32-7.9c-5.51-3.22-7.62-2.94-1.01-8.11,2.43,4.11,2.45,10.19,1.89,13.95l22.17-.07c-.02-.23-.28-9.66-.31-15.68,13.13,2.74,18.85-5.42,24.04-21.09l-9.02-4.28c-7.45,22.47-14.09,12.83-29.67,13.4-6.38.31-11.4,3.5-16.16,7.1-7.12,5.38-11.7,12.7-4.88,17.7h0Z"/></g></svg>